<svg xmlns="http://www.w3.org/2000/svg" id="Layer_1" width="94.008" height="86.05" data-name="Layer 1" version="1.1"><defs id="defs1546"><style id="style1544">.cls-2{fill:#f37024}</style></defs><path id="path1552" d="M45.22 35.73a25.14 25.14 0 0 0-20.83 11.06 18.85 18.85 0 1 1 0 28.2 25.16 25.16 0 1 0 20.83-39.26" class="cls-2"/><path id="path1554" d="M48.01 11.09a25.16 25.16 0 0 0-2.51 23.44 18.88 18.88 0 1 1 23.34 15.79 25.16 25.16 0 1 0-20.83-39.26" class="cls-2"/><path id="path1556" d="M31.28 69.32a25.1 25.1 0 0 0 17.5-15.8 18.86 18.86 0 1 1-6.85-27.36 25.16 25.16 0 1 0-10.65 43.16" class="cls-2"/></svg>