<svg xmlns="http://www.w3.org/2000/svg" width="303.593" height="61" viewBox="0 0 80.326 16.14"><path d="M137.364 63.186h2.813l2.205-8.217h-2.784zm14.42 0h2.813l2.204-8.217h-2.812zm14.446 0h2.785l2.179-8.217h-2.813zm-17.066-5.404h2.813c.386-1.847-.8-2.784-3.557-2.784-3.198 0-5.348 1.571-6.092 4.246-.635 2.48.661 3.97 3.665 3.97 3.033 0 4.825-.937 5.57-3.06h-2.812c-.414.936-1.13 1.405-2.122 1.405-1.352 0-1.903-.827-1.49-2.398.441-1.627 1.49-2.537 2.84-2.537.882 0 1.268.386 1.185 1.158m14.448 0h2.812c.386-1.847-.828-2.784-3.585-2.784-3.171 0-5.349 1.571-6.065 4.246-.662 2.48.634 3.97 3.64 3.97 3.005 0 4.796-.937 5.568-3.06h-2.811c-.388.936-1.132 1.405-2.124 1.405-1.35 0-1.902-.827-1.462-2.398.415-1.627 1.462-2.537 2.813-2.537.883 0 1.296.386 1.214 1.158" style="fill:#004a7f;fill-opacity:1;fill-rule:nonzero;stroke:none;stroke-width:.35277778" transform="translate(-117.497 -44.956) scale(.9623)"/><path d="M126.529 50.422c3.75-3.722 8.298-4.688 10.119-2.152 1.82 2.537.22 7.665-3.53 11.387-3.75 3.75-8.298 4.714-10.146 2.15-1.792-2.563-.192-7.665 3.557-11.385" style="fill:#f06321;fill-opacity:1;fill-rule:nonzero;stroke:none;stroke-width:.35277778" transform="translate(-117.497 -44.956) scale(.9623)"/><path d="M129.01 48.436a13.69 13.69 0 0 0-1.24 1.049c-3.28 3.252-4.66 7.718-3.033 9.952 1.681 2.232 5.707 1.405 9.07-1.876 1.82-1.764 3.033-3.805 3.53-5.706.137-1.406-.056-2.647-.69-3.585-1.433-1.984-4.52-1.82-7.637.166" style="fill:#ae282e;fill-opacity:1;fill-rule:nonzero;stroke:none;stroke-width:.35277778" transform="translate(-117.497 -44.956) scale(.9623)"/><path d="M133.752 48.85v.082c-.027.468-.303 1.047-.799 1.543-.744.717-1.736.993-2.151.58-.469-.44-.192-1.406.552-2.178.772-.744 1.764-.992 2.178-.551.138.137.22.303.22.523m-2.866 12.655c-1.765 1.323-3.584 1.986-5.35 1.71.745.027 1.352-.8 1.848-1.903.496-1.13.772-2.177 1.02-3.171.358-1.571.386-2.673.193-2.921-.303-.388-.965-.304-1.738.137-.386.22-.882.083-.301-.634.606-.716 2.949-2.426 3.775-2.702.939-.248 1.986.11 1.628 1.13-.25.744-3.502 9.236-1.075 8.354" style="fill:#fff;fill-opacity:1;fill-rule:nonzero;stroke:none;stroke-width:.35277778" transform="translate(-117.497 -44.956) scale(.9623)"/><path d="m175.412 61.89.634-2.37h1.543v-1.268h-1.185l.551-2.014h.634v-1.241h-2.096l-2.177 8.217h4.273V61.89zm2.177-2.37h.303c1.407 0 2.069.247 1.793 1.212-.22.854-.91 1.158-2.096 1.158v1.324c1.159 0 2.013-.11 2.868-.69a2.77 2.77 0 0 0 1.159-1.627c.301-1.13-.195-1.903-1.49-2.067 1.213-.22 1.986-.855 2.232-1.848.22-.744.028-1.295-.496-1.653-.44-.303-1.185-.332-2.177-.332h-2.096v1.241h1.076c1.323 0 1.93.166 1.737.992-.248.8-.965 1.022-2.315 1.022h-.498zm7.72-2.068v1.019a.958.958 0 0 0-.496.58h-1.654c.274-.8 1.02-1.352 2.15-1.599m0 4.825a2.35 2.35 0 0 1-.634.083c-.744 0-1.075-.305-.91-.856.166-.634.662-.855 1.544-.937v-.965c-1.903.138-2.95.634-3.281 1.874-.303 1.13.415 1.876 1.903 1.876.496 0 .964-.083 1.378-.248zm1.6-1.71-.028.082c-.22.855-.8 1.435-1.572 1.628v.827a3.562 3.562 0 0 0 1.102-.69l-.138.8h1.655c.083-.387.166-.828.276-1.27l.634-2.314c.055-.193.083-.386.083-.58v-.275c-.055-.938-.855-1.434-2.343-1.434-.47 0-.883.055-1.27.111v1.019c.249-.137.552-.192.94-.192.852 0 1.184.385.935 1.213l-.026.083h-.884c-.329 0-.661.027-.964.027v.965zm2.508 2.647h1.682l.8-2.95c.275-1.048 1.24-1.793 2.26-1.793.992 0 1.351.58 1.02 1.737l-.8 3.006h1.683l.937-3.502c.386-1.488-.359-2.371-2.012-2.371-1.076 0-1.93.386-2.675 1.157l.193-1.02h-1.681c-.166.91-.276 1.463-.332 1.683zm8.133 0h1.655l.827-3.088 2.234 3.088h2.287l-2.537-3.281 3.42-2.454h-2.123l-3.171 2.288 1.268-4.769h-1.654zm0 0" style="fill:#004a7f;fill-opacity:1;fill-rule:nonzero;stroke:none;stroke-width:.35277778" transform="translate(-117.497 -44.956) scale(.9623)"/></svg>