<svg xmlns="http://www.w3.org/2000/svg" width="303.593" height="61" viewBox="0 0 80.326 16.14"><path d="M126.529 50.422c3.75-3.722 8.298-4.688 10.119-2.152 1.82 2.537.22 7.665-3.53 11.387-3.75 3.75-8.298 4.714-10.146 2.15-1.792-2.563-.192-7.665 3.557-11.385" style="fill:#f06321;fill-opacity:1;fill-rule:nonzero;stroke:none;stroke-width:.35277778" transform="matrix(.9623 0 0 .9623 -117.497 -44.956)"/><path d="M129.01 48.436c-.413.303-.826.661-1.24 1.049-3.28 3.252-4.66 7.718-3.033 9.952 1.681 2.232 5.707 1.405 9.07-1.876 1.82-1.764 3.033-3.805 3.53-5.706.137-1.406-.056-2.647-.69-3.585-1.433-1.984-4.52-1.82-7.637.166" style="fill:#ae282e;fill-opacity:1;fill-rule:nonzero;stroke:none;stroke-width:.35277778" transform="matrix(.9623 0 0 .9623 -117.497 -44.956)"/><path d="M133.752 48.85v.082c-.027.468-.303 1.047-.799 1.543-.744.717-1.736.993-2.151.58-.469-.44-.192-1.406.552-2.178.772-.744 1.764-.992 2.178-.551.138.137.22.303.22.523m-2.866 12.655c-1.765 1.323-3.584 1.986-5.35 1.71.745.027 1.352-.8 1.848-1.903.496-1.13.772-2.177 1.02-3.171.358-1.571.386-2.673.193-2.921-.303-.388-.965-.304-1.738.137-.386.22-.882.083-.301-.634.606-.716 2.949-2.426 3.775-2.702.939-.248 1.986.11 1.628 1.13-.25.744-3.502 9.236-1.075 8.354" style="fill:#fff;fill-opacity:1;fill-rule:nonzero;stroke:none;stroke-width:.35277778" transform="matrix(.9623 0 0 .9623 -117.497 -44.956)"/></svg>