<svg xmlns="http://www.w3.org/2000/svg" width="55.147" height="59.6" viewBox="0 0 14.591 15.77"><path d="M4.13 3.433C7.737-.15 12.113-1.08 13.866 1.362c1.751 2.441.211 7.376-3.397 10.957-3.609 3.609-7.985 4.537-9.764 2.07C-1.018 11.921.521 7.011 4.13 3.432" style="fill:#f06321;fill-opacity:1;fill-rule:nonzero;stroke:none;stroke-width:.339478"/><path d="M6.517 1.521a13.16 13.16 0 0 0-1.194 1.01C2.167 5.66.84 9.958 2.405 12.108c1.617 2.147 5.492 1.352 8.728-1.806 1.751-1.697 2.918-3.661 3.397-5.49.132-1.354-.054-2.548-.664-3.45-1.38-1.91-4.35-1.752-7.35.16" style="fill:#ae282e;fill-opacity:1;fill-rule:nonzero;stroke:none;stroke-width:.339478"/><path d="M11.08 1.92v.079c-.026.45-.292 1.007-.77 1.485-.715.69-1.67.955-2.069.558-.451-.424-.185-1.353.531-2.096.743-.716 1.698-.955 2.096-.53a.676.676 0 0 1 .212.503M8.322 14.097c-1.699 1.273-3.449 1.91-5.148 1.645.716.026 1.3-.77 1.778-1.831.477-1.087.743-2.095.981-3.051.345-1.512.372-2.573.186-2.811-.291-.374-.928-.293-1.672.131-.372.212-.85.08-.29-.61.583-.689 2.838-2.334 3.633-2.6.903-.238 1.91.106 1.566 1.088-.24.716-3.37 8.887-1.034 8.039" style="fill:#fff;fill-opacity:1;fill-rule:nonzero;stroke:none;stroke-width:.339478"/></svg>