<svg xmlns="http://www.w3.org/2000/svg" width="85.138" height="18.657"><path d="M191.914 361.59h506.559v-93.012H191.914v93.012" style="fill:#2e3192;fill-opacity:1;fill-rule:evenodd;stroke:none" transform="matrix(.13333 0 0 -.13333 -7.992 48.212)"/><path d="M191.914 221.664h506.559v41.422H191.914v-41.422" style="fill:#ec008c;fill-opacity:1;fill-rule:evenodd;stroke:none" transform="matrix(.13333 0 0 -.13333 -7.992 48.212)"/><path d="M164.672 258.691H148.59v4.504h16.723c2.871 0 2.843-4.504-.641-4.504zm0 10.551H148.59v4.504h16.211c2.75 0 2.449-4.504-.129-4.504zm-24.449-17.371h25.734c7.578 0 10.551 1.266 10.551 8.75 0 1.703-.465 3.027-1.227 4.047-.578.773-1.402 1.238-2.301 1.559-.539.191-.71.082-.976.437.648.055 1.273.555 1.648.93 1.508 1.508 1.828 4.23 1.828 6.535 0 4.988-3.902 6.434-8.878 6.434h-26.379v-28.692m-80.285 21.356v-13.508c0-2.039 1.113-4.598 2.48-5.754.25-.211.309-.215.578-.453a6.26 6.26 0 0 1 1.902-1.188c1.067-.426 2.094-.711 3.536-.711h19.425c2.57 0 4.582 1.11 6.211 2.797 2.117 2.195 2.153 5.086 2.153 8.141 0 .293-.09.383-.387.383h-8.363c0-1.957.23-2.36-.93-3.446-.524-.488-1.188-.672-2.156-.672h-12.61c-1.734 0-2.96 1.102-2.96 2.832v9.266c0 1.332 1.242 2.574 2.574 2.574h13.636c1.246 0 2.407-1.062 2.45-2.445.015-.598-.207-1.289.382-1.289h7.977c.527 0 .387.406.387 1.418 0 2.637-.239 4.988-1.961 6.914-.2.219-.309.391-.465.566l-1.906 1.438c-.856.476-2.246.988-3.516.988H67.656c-3.937 0-7.719-3.914-7.719-7.851m39.243-13.25a7.68 7.68 0 0 1 .816-3.434c.332-.668.711-1.348 1.211-1.875l.313-.332a.41.41 0 0 1 .058-.066l.125-.137c1.438-1.434 3.402-2.52 6.227-2.52h19.687c1.348 0 2.531.192 3.512.606 2.883 1.219 5.363 4 5.363 7.242v21.102h-8.875v-18.915c0-1.484-1.301-2.574-2.832-2.574H111.02c-1.536 0-2.704 1.36-2.704 2.961v18.528H99.18v-20.586" style="fill:#eb1565;fill-opacity:1;fill-rule:evenodd;stroke:none" transform="matrix(.13333 0 0 -.13333 -7.992 48.212)"/><path d="M101.758 313.242v9.395c2.219.047 4.242 3.086 4.242 5.273.602-.691 1.207-1.305 2.141-1.715.629-.277.906-.172 1.672-.277 1.714-.23 3.308 1.449 3.39 1.484.543.215 0-.906 1.074-3.308 1.246-2.785 2.43-4.707 5.082-6.5.426-.289.661-.528 1.137-.793.227-.121.363-.18.613-.289l.715-.309c0-1.285.262-5.402-.769-5.402h-18.27c-.637 0-1.027 1.722-1.027 2.441zm30.363 3.86c-.051 2.128-.391 3.925-2.398 4.937-.504.254-1.184.582-1.848.598v3.601h-1.031v-3.472c-1.313 0-2.832-.438-3.766-1.25-.957-.84-1.254-2.008-1.254-3.77-1.5.352-3.937 2.852-4.703 3.914-2.375 3.293-2.812 6.778-2.101 10.738.117.649.359 1.102.582 1.739.234.668.386.906.746 1.441.371.559.472.875.898 1.414.203.262.289.313.492.539l.758.918c.109.106.199.176.336.305.281.262.289.293.621.535.625.465 2.094 1.563 2.887 1.746.765-1.445 2.562-2.445 4.246-2.445 1.453 0 2.238-.035 3.531.844.406.277.578.472.848.824.254.336.594.633.64 1.164 1.684-.039 4.938-2.567 6.047-4.117 1.078-1.504 2.157-3.16 2.481-5.114.316-1.886.351-1.136.351-3.25 0-3.179-1.496-6.613-3.699-8.785-.137-.136-.183-.183-.328-.312-.027-.028-.109-.094-.137-.121l-.14-.118c-1.969-1.664-2.274-1.558-4.059-2.503zm-30.883 6.824c-2.418 0-3.86 2.199-3.86 4.113 0 2.125-.265 7.988.317 9.719.422 1.254 1.633 2.504 3.16 2.504.868 0 1.352-.035 2.083-.617a4.181 4.181 0 0 0 1-1.188c1.164-2.016.777-6.949.777-9.773 0-.704-.192-1.086-.328-1.731-.11-.508-.028-.379-.235-.797-.019-.039-.179-.304-.191-.324l-.098-.156c-.269-.395.172.222-.109-.149l-.594-.691a3.696 3.696 0 0 0-.144-.117c-.145-.11-.161-.106-.301-.211-.461-.336-.719-.582-1.477-.582zm4.891 7.972v7.079c0 1.191.441 2.328.922 3.066l.894 1.035c.805.641 2.321.703 3.297.238 2.852-1.378 2.094-5.304 2.094-7.945 0-2.676.652-5.207-1.25-7.109-.34-.336-.371-.41-.809-.61-3.211-1.488-5.148 1.821-5.148 4.246zm8.621 3.86c0 2.055-.156 4.555.227 6.207.203.887.543 1.582 1.089 2.129 1.164 1.172 1.414 1.183 2.93 1.183 1.203 0 2.484-1.464 2.828-2.957-2.894-1.531-4.484-2.629-6.355-5.48-.281-.43-.375-.828-.719-1.082zm8.492 7.078v4.762c0 1.761 2.117 2.957 3.344 2.957 1.648 0 2.727-.129 3.648-1.754.586-1.035.34-4.172.34-5.836 0-.809-.453-1.781-1.058-2.285-1.907-1.578-6.274-.66-6.274 2.156zm-1.418 2.441c-.265.184-.289.266-.57.461-4.078 2.836-7.266-1.207-7.406-2.902-.168.113-2.516 3.621-6.262 1.629-.672-.352-.699-.473-1.184-1-.074-.078-.105-.11-.183-.199-.387-.434-.719-.911-.93-1.516l-.574-2.004c-.227.168-2.629 3.52-6.285 1.141-3.024-1.973-2.582-6.52-2.594-9.891-.004-.789.113-.996.133-1.668.05-1.726-.067-1.816.394-3.203.535-1.598 2.262-3.453 3.848-3.488 0-1.274.129-2.324.129-3.731 0-2.218-.64-9.527 2.445-9.527h18.528c1.195 0 1.746 1.848 1.796 2.582.164 2.387-.152 7.203.692 8.312.258.344.222.274.57.461l.336.18c.305.156.129.086.441.199 1.329.461 3.957.266 4.989-1.23.652-.945.437-2.543.437-4.067 0-1.625.133-2.847.129-4.371v-9.91h1.418v14.153c2.199.511 5.356 2.851 6.762 4.812 2.953 4.117 3.867 8.711 2.168 13.641-1.02 2.949-4.039 6.632-6.985 7.812-.711.285-1.242.688-2.074.883 0 2.82.59 6.82-1.996 8.301-1.687.965-3.703 1.152-5.449.301-2.93-1.426-2.723-3.653-2.723-6.161" style="fill:#3046a3;fill-opacity:1;fill-rule:evenodd;stroke:none" transform="matrix(.13333 0 0 -.13333 -7.992 48.212)"/><path d="M117.066 357.891c4.516 0 5.907.054 10.493-1.09 2.691-.668 3.875-1.309 6.195-2.289 3.484-1.481 7.223-4.387 9.914-7.074 2.457-2.458 3.844-4.418 5.523-7.215 4.536-7.567 5.817-17.446 3.641-26.078-.301-1.215-.594-2.11-.977-3.266-.39-1.188-.808-2.012-1.261-3.113-.399-.961-.957-1.93-1.465-2.782-.578-.964-1.066-1.777-1.719-2.656-1.355-1.84-2.207-2.953-3.937-4.687-.426-.426-.61-.602-1.078-.977-1.86-1.484-2.403-2.246-4.848-3.773-1.59-.996-3.945-2.254-5.684-2.938a35.426 35.426 0 0 0-1.59-.594c-10.105-3.441-20.085-2.402-29.332 2.743-5.406 3.007-9.879 7.781-13.027 13.089-1.582 2.664-2.96 6.274-3.684 9.313-.703 2.965-.832 4.844-1.003 7.746l.246 4c.312 3.227 1.328 7.559 2.71 10.41 1.477 3.035 3.055 6.164 5.376 8.653l1.03 1.156c.5.543.653.937 1.555 1.66 1.438 1.148 1.567 1.461 3.583 2.976 1.695 1.278 3.503 2.333 5.441 3.309 3.246 1.641 9.043 3.477 13.898 3.477zm-35.382-35.254c0-10.996 4.933-20.051 10.453-25.574.77-.77 1.445-1.571 2.281-2.219 3.289-2.531 3.566-3.067 8.152-5.36 3.993-2.004 9.789-3.644 14.496-3.644 5.231 0 9.071.258 13.95 2.129 5.476 2.101 9.468 4.496 13.617 8.644 3.722 3.723 6.73 8.309 8.57 13.43 3.297 9.18 3.012 19.793-1.312 28.379-1.707 3.383-3.399 6.043-5.844 8.82l-1.738 1.738c-2.34 2.34-4.852 4.165-7.692 5.817-.504.293-.992.484-1.512.805-.488.296-1.062.492-1.57.746-5.59 2.785-13.004 3.605-19.148 2.933-3.051-.332-6.449-1.179-9.27-2.308-.547-.223-1.035-.465-1.617-.7-2.68-1.113-7.016-3.867-9.176-5.878l-1.8-1.672c-.774-.774-1.422-1.528-2.133-2.375-.735-.875-1.395-1.668-2.016-2.61-4.137-6.242-6.691-12.605-6.691-21.101" style="fill:#2e46a3;fill-opacity:1;fill-rule:evenodd;stroke:none" transform="matrix(.13333 0 0 -.13333 -7.992 48.212)"/><path d="M126.586 301.02H123.5v2.058c1.164 0 2.484.133 3.602-.129.015-.191.476-1.929-.516-1.929zm-3.086 5.66h2.957c.453 0 .516-.567.516-1.028v-.769H123.5Zm-3.219 1.289v-8.492c0-.297.09-.387.387-.387h6.949c2.918 0 2.442 1.512 2.442 3.601 0 .926-.602.789-.77 1.418 1.262.336.734 3.399.379 3.852-.246.312-.84.391-1.406.391h-7.594c-.297 0-.387-.086-.387-.383" style="fill:#2e46a3;fill-opacity:1;fill-rule:evenodd;stroke:none" transform="matrix(.13333 0 0 -.13333 -7.992 48.212)"/><path d="M107.543 300.762c0-1.172.746-1.672 1.93-1.672h6.562c.797 0 1.367.551 1.516 1.312l.027 5.641c0 2.629 1.231 2.309-3.086 2.309v-7.332h-3.73c0 1.316-.129 2.14-.129 3.476v3.856h-3.09v-7.59" style="fill:#3046a3;fill-opacity:1;fill-rule:evenodd;stroke:none" transform="matrix(.13333 0 0 -.13333 -7.992 48.212)"/><path d="M95.32 305.781v-4.246c0-1.43.368-2.445 1.805-2.445 1.395 0 5.992-.152 7.008.195.586.199.707.36.824.719.176.535.27 2.203.27 2.945h-3.086v-1.929h-3.602v5.535h3.602v-1.547h3.086c0 .797-.258 2.558-.512 3.09-.449.445-6.668.254-7.723.254-1.512 0-1.672-1.09-1.672-2.571m28.95 26.375 3.218-4.633 2.961 4.633-.39.512c-.61.91-2.243 3.73-2.829 4.121-.148-.559-1.074-1.805-1.414-2.316l-1.546-2.317" style="fill:#2e46a3;fill-opacity:1;fill-rule:evenodd;stroke:none" transform="matrix(.13333 0 0 -.13333 -7.992 48.212)"/><path d="M127.875 326.496h5.273c.485.723.844 1.52 1.309 2.293.273.449 1.152 1.918 1.266 2.336h-5.407c-.179-.68-2.23-3.719-2.441-4.629m-6.305 0h5.274c-.199.844-2.235 3.836-2.446 4.629h-5.402c.098-.43 1.574-2.941 1.902-3.496.254-.414.415-.754.672-1.133" style="fill:#2e45a2;fill-opacity:1;fill-rule:evenodd;stroke:none" transform="matrix(.13333 0 0 -.13333 -7.992 48.212)"/><path d="M71.332 244.555h-2.469v-7.696h-.945v7.696h-2.465v.859h5.879zm3.305-2.532c-.168.129-.414.196-.735.196-.43 0-.785-.207-1.062-.617-.281-.411-.418-.95-.418-1.618v-3.125H71.5v6.11h.922v-1.266h.027c.137.438.352.774.64 1.012.286.238.602.359.954.359.258 0 .457-.027.594-.082zm5.96-5.164h-.925v.969h-.02c-.402-.746-1.03-1.113-1.883-1.113-1.46 0-2.187.867-2.187 2.601v3.653h.906v-3.496c0-1.317.504-1.973 1.508-1.973.492 0 .895.18 1.211.547.309.363.465.832.465 1.402v3.52h.926zm1.61 1.243a2.893 2.893 0 0 1 1.758-.59c.87 0 1.304.293 1.304.879a.787.787 0 0 1-.285.629c-.187.16-.562.347-1.117.554-.664.262-1.105.528-1.32.793-.219.266-.328.594-.328.988 0 .524.222.95.672 1.27.449.324.996.484 1.648.484.523 0 .992-.089 1.406-.273v-.961a2.795 2.795 0 0 1-1.554.441c-.36 0-.657-.078-.883-.242a.761.761 0 0 1-.336-.644c0-.266.074-.465.23-.606.157-.14.512-.32 1.059-.547.7-.265 1.164-.531 1.402-.804.235-.27.356-.602.356-.996a1.49 1.49 0 0 0-.672-1.289c-.445-.317-1.016-.473-1.719-.473-.629 0-1.172.121-1.621.367zm8.32-1.184c-.222-.129-.52-.191-.89-.191-1.043 0-1.57.589-1.57 1.773v3.672h-1.063v.797h1.062v1.504l.918.297v-1.801h1.543v-.797h-1.543v-3.508c0-.414.07-.711.207-.887.141-.175.371-.265.703-.265.254 0 .461.07.633.203zm4.301 5.613c.602.387 1.285.578 2.063.578 1.414 0 2.125-.75 2.125-2.257v-3.993h-.922v.961h-.035c-.422-.738-1.047-1.105-1.88-1.105-.605 0-1.081.16-1.425.484-.352.321-.524.746-.524 1.278 0 1.132.672 1.793 2.008 1.984l1.848.266c0 1.062-.426 1.589-1.27 1.589-.738 0-1.406-.253-1.988-.753zm1.762-2.773c-.524-.07-.887-.195-1.094-.379-.203-.18-.3-.461-.3-.84 0-.305.105-.551.324-.746.218-.191.507-.289.863-.289.484 0 .894.176 1.215.527.324.348.488.785.488 1.305v.625zm9.308-2.899h-.921v3.493c0 1.316-.485 1.976-1.45 1.976-.504 0-.918-.187-1.242-.566-.324-.375-.488-.852-.488-1.418v-3.485h-.918v6.11h.918v-1.024h.031c.457.778 1.125 1.164 2.004 1.164.672 0 1.184-.214 1.535-.644.356-.43.531-1.055.531-1.871zm7.028 0h-.922v1.051h-.02c-.453-.797-1.156-1.195-2.109-1.195-.773 0-1.391.277-1.848.824-.453.551-.683 1.297-.683 2.231 0 1.003.258 1.812.769 2.421.512.614 1.188.918 2.028.918.839 0 1.453-.332 1.843-.996h.02v3.789h.922zm-.922 3.68c0 .5-.168.922-.508 1.27-.34.347-.758.519-1.25.519-.613 0-1.094-.226-1.441-.676-.348-.453-.52-1.062-.52-1.832 0-.703.168-1.265.496-1.691.336-.418.785-.629 1.348-.629.543 0 .988.195 1.344.594.359.394.531.902.531 1.515zm10.383-3.68h-4.496v8.555h4.304v-.859h-3.363v-2.914h3.109v-.86h-3.109v-3.062h3.555zm5.902 6.11-2.051-3.106 2.02-3.004h-1.078l-1.215 2.008c-.086.137-.176.289-.27.457h-.031c0-.004-.094-.156-.277-.457l-1.25-2.008h-1.055l2.086 2.989-2 3.121h1.078l1.453-2.578h.02c.043.062.082.125.121.195l1.437 2.383zm5.211-5.821c-.477-.289-1.027-.433-1.656-.433-.867 0-1.567.285-2.098.848-.535.566-.797 1.304-.797 2.207 0 1.015.285 1.824.86 2.429.574.61 1.339.91 2.293.91.527 0 .996-.097 1.406-.296v-.965c-.457.32-.942.48-1.461.48-.625 0-1.145-.226-1.551-.676-.406-.453-.609-1.054-.609-1.797 0-.734.191-1.308.566-1.726.383-.422.891-.629 1.531-.629.539 0 1.047.18 1.516.539zm6.363 2.54h-4.332c.02-.704.207-1.243.559-1.618.355-.379.84-.566 1.453-.566.687 0 1.324.23 1.906.691v-.886c-.539-.395-1.242-.594-2.121-.594-.855 0-1.527.277-2.015.836-.493.554-.739 1.336-.739 2.344 0 .929.27 1.699.801 2.304.527.61 1.195.91 1.996.91.785 0 1.399-.254 1.836-.769.438-.516.656-1.235.656-2.152zm-.953.812c-.004.574-.14 1.02-.414 1.34-.269.32-.652.476-1.144.476-.442 0-.836-.156-1.168-.476-.344-.324-.555-.77-.641-1.34zm2.461-3.641v9.043h.918v-9.043zm2.934 0v9.043h.918v-9.043zm7.8 2.829h-4.332c.02-.704.207-1.243.559-1.618.356-.379.84-.566 1.453-.566.688 0 1.324.23 1.91.691v-.886c-.539-.395-1.246-.594-2.125-.594-.851 0-1.523.277-2.011.836-.493.554-.739 1.336-.739 2.344 0 .929.266 1.699.797 2.304.531.61 1.199.91 2 .91.781 0 1.395-.254 1.832-.769.438-.516.656-1.235.656-2.152zm-.949.812c-.004.574-.14 1.02-.414 1.34-.273.32-.652.476-1.144.476-.446 0-.84-.156-1.172-.476-.34-.324-.551-.77-.641-1.34zm7.473-3.641h-.922v3.493c0 1.316-.48 1.976-1.445 1.976-.508 0-.922-.187-1.242-.566-.329-.375-.485-.852-.485-1.418v-3.485h-.926v6.11h.926v-1.024h.024c.457.778 1.125 1.164 2.007 1.164.668 0 1.184-.214 1.536-.644.351-.43.527-1.055.527-1.871zm6 .289c-.473-.289-1.027-.433-1.656-.433-.864 0-1.567.285-2.098.848-.531.566-.797 1.304-.797 2.207 0 1.015.285 1.824.863 2.429.571.61 1.336.91 2.289.91.532 0 .997-.097 1.411-.296v-.965a2.51 2.51 0 0 1-1.465.48c-.625 0-1.141-.226-1.551-.676-.402-.453-.609-1.054-.609-1.797 0-.734.191-1.308.57-1.726.379-.422.891-.629 1.531-.629.543 0 1.047.18 1.512.539zm6.363 2.54h-4.332c.02-.704.207-1.243.559-1.618.355-.379.84-.566 1.453-.566.691 0 1.324.23 1.91.691v-.886c-.539-.395-1.246-.594-2.125-.594-.852 0-1.523.277-2.012.836-.492.554-.738 1.336-.738 2.344 0 .929.27 1.699.797 2.304.535.61 1.199.91 2 .91.781 0 1.394-.254 1.832-.769.437-.516.656-1.235.656-2.152zm-.949.812c-.004.574-.141 1.02-.414 1.34-.274.32-.652.476-1.145.476-.441 0-.836-.156-1.171-.476-.336-.324-.551-.77-.641-1.34zm-81.742-17.207c.238-.219.582-.398 1.035-.547a4.13 4.13 0 0 1 1.25-.219c1.246 0 1.867.453 1.867 1.364 0 .25-.062.476-.195.675a1.73 1.73 0 0 1-.52.52c-.222.144-.652.383-1.297.715-.93.472-1.515.89-1.761 1.242a2.045 2.045 0 0 0-.368 1.199c0 .688.278 1.235.836 1.653.559.41 1.266.617 2.11.617.855 0 1.46-.102 1.816-.305v-1.086c-.496.348-1.144.516-1.933.516-.547 0-.989-.114-1.332-.344a1.104 1.104 0 0 1-.512-.969c0-.258.062-.48.18-.668.12-.191.28-.359.488-.496.207-.144.61-.359 1.207-.66.84-.414 1.426-.824 1.762-1.215a2.01 2.01 0 0 0 .504-1.332c0-.726-.266-1.293-.797-1.687-.532-.399-1.274-.602-2.227-.602-.293 0-.668.051-1.133.149-.469.093-.793.207-.98.347zm8.652 6.254h-.848v-6.91h.848v-.824H94.32v.824h.848v6.91h-.848v.824h2.633zm8.274-7.734h-1.184l-4.465 6.91c-.098.16-.187.332-.262.515h-.035c.031-.179.047-.562.047-1.152v-6.273h-.945v8.558h1.246l4.344-6.844c.222-.351.336-.547.347-.582h.024c-.043.282-.063.711-.063 1.285v6.141h.946zm8.066.359c-.629-.336-1.418-.508-2.359-.508-1.204 0-2.172.399-2.907 1.191-.734.793-1.097 1.817-1.097 3.071 0 1.32.402 2.414 1.207 3.285.808.867 1.855 1.301 3.144 1.301.809 0 1.481-.117 2.012-.352v-1.019a4.188 4.188 0 0 1-2.031.507c-1.02 0-1.832-.339-2.438-1.023-.605-.687-.91-1.566-.91-2.645 0-1.015.289-1.855.852-2.492.566-.648 1.328-.968 2.281-.968.863 0 1.609.191 2.246.57zm6.254-.359h-4.496v8.558h4.301v-.863h-3.364v-2.914h3.11v-.86h-3.11v-3.062h3.559zm9.215 0h-4.805v.824h1.941v6.726l-1.992-.601v.886l2.914.915v-7.926h1.942zm1.734 1.042a3.046 3.046 0 0 1 1.508-.402c.777 0 1.387.317 1.824.949.438.637.656 1.543.656 2.711-.007-.008-.015-.008-.023 0-.367-.742-1.008-1.113-1.922-1.113-.738 0-1.336.25-1.805.758-.468.5-.699 1.137-.699 1.902 0 .817.246 1.492.746 2.039.496.539 1.157.813 1.981.813.859 0 1.515-.336 1.972-1.008.457-.672.684-1.637.684-2.899 0-1.554-.301-2.765-.898-3.636-.598-.867-1.45-1.305-2.555-1.305-.57 0-1.059.098-1.469.289zm.481 4.946c0-.598.156-1.074.468-1.434.317-.359.746-.539 1.293-.539.489 0 .891.16 1.207.481.317.324.481.714.481 1.171 0 .637-.164 1.168-.481 1.602a1.509 1.509 0 0 1-1.273.641c-.496 0-.902-.188-1.223-.563-.312-.371-.472-.828-.472-1.359zm5.562-1.883c0 1.508.246 2.652.742 3.43.489.773 1.199 1.164 2.129 1.164 1.778 0 2.664-1.461 2.664-4.387 0-1.422-.242-2.52-.73-3.293-.489-.777-1.196-1.168-2.133-1.168-.867 0-1.527.371-1.984 1.121-.457.742-.688 1.785-.688 3.133zm.941.043c0-2.34.614-3.508 1.836-3.508 1.211 0 1.817 1.184 1.817 3.563 0 2.472-.594 3.707-1.774 3.707-1.254 0-1.879-1.254-1.879-3.762zm11.239-1.852h-1.106v-2.296h-.918v2.296h-4.043v.61l3.825 5.652h1.136v-5.5h1.106zm-2.024.762v3.77c0 .257.008.558.02.89h-.02a7.842 7.842 0 0 0-.324-.66l-2.691-4h3.015" style="fill:#2e3192;fill-opacity:1;fill-rule:nonzero;stroke:none" transform="matrix(.13333 0 0 -.13333 -7.992 48.212)"/><path d="M223.59 302.715h-13.672v-18.567h13.672v6.301l5.074-1.414v-3.476c0-2.68-.371-4.508-1.125-5.477-.742-.977-2.176-1.457-4.277-1.457H210.25c-2.121 0-3.551.48-4.297 1.457-.738.969-1.113 2.797-1.113 5.477v15.457c0 2.672.375 4.492 1.113 5.472.746.981 2.176 1.473 4.297 1.473h13.012c2.101 0 3.535-.492 4.277-1.473.754-.98 1.125-2.8 1.125-5.472v-2.774l-5.074-1.082zm12.902-24.09v24.031h4.328v-24.031zm21.903 19.73v-19.73h-4.352v19.73h-8.629v4.301h21.625v-4.301zm19.972-19.73v10.797l-9.754 13.234h5.879l6.371-8.961 6.453 8.961h5.122l-9.719-13.129v-10.902zm40.285 29.336v-23.813h14.457v23.813h5.055v-22.402c0-2.68-.371-4.508-1.113-5.477-.746-.977-2.176-1.457-4.293-1.457h-13.774c-2.105 0-3.535.48-4.281 1.457-.754.969-1.125 2.797-1.125 5.477v22.402zm28.039-29.336v24.031h2.993l15.16-15.953v15.953h3.945v-24.031h-3.016l-15.117 16.207v-16.207zm29.032 0v24.031h4.332v-24.031zm15.175 4.602h14.403v15.015h-14.403zm-4.347 13.765c0 2.188.316 3.672.949 4.469.633.797 1.859 1.195 3.691 1.195h13.821c1.843 0 3.074-.398 3.703-1.195.625-.797.937-2.281.937-4.469v-12.683c0-2.2-.316-3.696-.961-4.493-.636-.793-1.863-1.191-3.679-1.191h-13.821c-1.832 0-3.058.398-3.691 1.191-.633.797-.949 2.293-.949 4.493zm29.586-18.367v24.031h2.996l15.156-15.953v15.953h3.945v-24.031h-3.015l-15.117 16.207v-16.207zm63.547 24.559h-11.575v-6.989h11.575c.882 0 1.488.16 1.828.473.336.316.504.863.504 1.637v2.769c0 .754-.168 1.309-.504 1.629-.34.32-.946.481-1.828.481zm0-11.817h-11.575v-7.465h11.575c.961 0 1.613.2 1.945.586.34.387.508 1.071.508 2.047v2.227c0 .972-.168 1.656-.508 2.031-.332.383-.984.574-1.945.574zm-16.563-12.742v29.336h18.692c1.714 0 2.964-.457 3.73-1.367.77-.899 1.156-2.344 1.156-4.328v-3.571c0-1.41-.324-2.539-.972-3.371-.649-.844-1.579-1.363-2.789-1.574 1.253-.215 2.218-.824 2.902-1.797.683-.984 1.019-2.265 1.019-3.836v-3.742c0-1.941-.527-3.391-1.586-4.328-1.062-.945-2.668-1.422-4.828-1.422zm28.192 0 10.605 24.031h4.187l10.766-24.031h-4.887l-2.254 5.277h-11.812l-2.254-5.277zm8.457 9.66h8.187l-4.16 10.016zm20.511-9.66v24.031h2.992l15.161-15.953v15.953h3.941v-24.031h-3.012l-15.117 16.207v-16.207zm29.035 0v24.031h4.395v-9.707l10.418 9.707h6.309l-12.36-11.129 13.738-12.902h-6.886l-11.219 10.848v-10.848zm43.106 0v29.336h5.078v-23.813h16.355v-5.523zm36.875 19.73v-19.73h-4.352v19.73h-8.625v4.301h21.621v-4.301zm17.625-15.23h5.613c3.063 0 5.211.594 6.426 1.801 1.23 1.199 1.84 3.226 1.84 6.078 0 2.473-.508 4.32-1.528 5.531-1.015 1.211-2.574 1.82-4.683 1.82h-7.668zm-4.391-4.5v24.031h12.024c3.453 0 6.097-1.031 7.949-3.101 1.851-2.055 2.773-5 2.773-8.832 0-4.028-.976-7.059-2.933-9.078-1.965-2.016-4.922-3.02-8.887-3.02h-10.926" style="fill:#fff;fill-opacity:1;fill-rule:nonzero;stroke:none" transform="matrix(.13333 0 0 -.13333 -7.992 48.212)"/></svg>