<svg xmlns="http://www.w3.org/2000/svg" xml:space="preserve" id="Layer_1" width="230.8" height="230.8" x="0" y="0" version="1.1"><style id="style7476" type="text/css">.st0{fill:#2e3192}</style><g id="XMLID_1_" transform="translate(-135.7 -81.1)"><path id="XMLID_5_" d="m183.3 270.2-3-1-.5-.4c-.7-1.4-1-2.5-1.2-4.2v-17.7c.1-.9.3-1.8.4-2.8l.9-1.7 1.3-.7 1.7-.3h21.9l1.7.3 1.3.5c.4 1.6.8 3.1 1.2 4.8 0 1.4 0 3 .1 4.6h-9.4v-4.7h-11.4v17.6h11.4v-6.3h9.4c0 3.3 0 7.2-1.2 10.4l-2.1 1-2.4.5c-6.8.1-13.5.1-20.1.1z" class="st0"/><path id="XMLID_6_" d="M221.5 270.2c-1-.3-2-.5-2.9-.7v-.3l-1.3-1.2-.5-2v-24.6h9.4c0 7.6 0 15.3.1 23.1h12.2v-23.1h9.6c-.1 8-.1 16-.1 24 0 .9-1.2 3.1-1.7 3.8l-2.2.8c-7.6.1-15.1.1-22.6.2z" class="st0"/><path id="XMLID_36_" d="m286.8 257.8-.5-1.2-1.4-1.2-1-.4 1.3-.4c.8-.5 1.4-1.6 1.7-2.5 0-2.2 0-4.3.1-6.4l-.3-1.2-.7-1.5-.4-.7-.9-.2-1.7-.1h-26v28.2l-.2-.2h24.4c1 0 2.1-.4 3.3-.7.9-.5 1.7-1.3 2.2-2.2l.4-1c0-2.1 0-4.2.1-6.3zM266 246h10l1.3.7c0 1.7-.2 3.5 0 5.3-3.8 0-7.3.2-11.3.4V246zm12.3 16.4-.8 1.9-1 .7h-10.4v-7h10.4l1.2.3c.7.8.6 3.1.6 4.1z" class="st0"/><path id="XMLID_45_" d="M323.6 169.3c-.5-2.4-1-4.7-1.6-6.9l-.5-1.2c0-1.2-1.4-3.4-1.8-4.6-.8-1.4-1.6-2.8-2.4-4.1-.9-1.3-1.7-2.5-2.5-3.7-.3-.9-1.8-2-1.8-2.6-.8-.9-1.6-1.7-2.4-2.5-.9-.8-1.8-1.6-2.6-2.4l-2-1.3c-1.3-1.3-3.1-2-4.6-3.1l-1.2-.5c-2-.9-3.8-1.8-5.6-2.6l-1.7-.5v-15.1l-.3-2.4c-.3-.9-.5-1.7-.8-2.5l-1.6-2.9c-1-1-2.1-2.1-3.1-3-.9-.4-1.7-.8-2.5-1.2-2.2-1.3-5.1-1.6-7.7-1.6l-2 .1c-1.6.4-4.3.8-5.5 2-1.6 0-3.4 2.5-4.6 3.3l-.4.5c-1 1.4-2.5 3.3-2.9 5.1-.1.9-.6 1.8-.6 2.8v7.5c0-.4-1.4-2.1-2.3-2.1-1.6-1.3-3.2-1.8-5.2-2.8h-5.1c-1.4 1-2.8 1-4.1 1.7l-1.4 1.1-1 .7c-1 .9-2 2-2.9 3l-.5.8c-.5.9-1 2-1.6 3l-.5 1.4-.1.9c-.7-.9-1.3-1.8-2-2.8-1-.7-2.9-2.9-3.9-2.9-2.1-2.1-6.8-1.7-9.4-1.6-1 .3-2.1.7-3 1-1 .7-3.4 1.7-3.9 2.9l-.9.8c-1 1.3-3.5 4.3-3.5 6.2-.4.9-.8 2-1 3-.3.9-.4 1.8-.5 2.9l-1-1.2-1.2-1.6-.5-.4-1.3-.8c-1-1-4.3-2.5-6-2.5h-3.4c-2 0-3.4 1-5.2 1.8l-1.9 1.4c-.9.8-2.3 1.7-2.3 2.6v.3l-1.8 2.4c-1 1.6-1.7 3.3-2.2 5l-.3 1.4c-1.4 9.2-.3 19.1-.3 28.6.1.9.2 1.8.5 2.9.3.9 2.1 6.7 3.1 6.7l4.1 4.1c1.2 1.2 4.1 2.5 5.8 2.5.1 10.7.3 21.5.5 32.2.5 1.6 1 3.1 1.6 4.7l3 3.5 2.1 1h58.2l1.8-.3 1.6-1c.7-1.4 1.4-2.9 2.2-4.3.1-1.2.5-2.4.8-3.5 0-2.6-.6-5.1.4-7.6v-12c0-1.3.3-2.6.7-3.8.5-.8 2-2.9 3-2.9.9-.9 2.4-1.2 3.6-1.6l1.9-.3c1.8.1 3.7.3 5.5.4.9.3 2.7.8 3.4 1.4 1 0 2.2 1.7 3 2.2l1 2c.5.8.8 2.1.8 3 0 17.6.1 35.4.3 52.4h4.2c-.1-14-.1-29.1-.1-43.8l1.3-.4c1-.5 2.1-1 3.3-1.4.7-.1 1.7-1.1 2.6-1.1l.9-.5 5-3.4 1.4-.9.5-.5.7-.7c1.4-1.6 2.7-3 4.3-4.5 1.2-1.8 2.7-3.5 3.7-5.2v-.3c1-2.4 2.5-4.7 3.8-6.9 0-1.2 1.4-3.9 1.6-4.7.3-1.7.7-3.4 1.1-5.1.1-2.4.3-4.7.5-7.1-.6-1.9-.7-4-.8-6zm-57.6-52 .2-1.3 2.3-3.4.4-.5 1.8-1.3c1.3-.7 2.3-1.3 3.8-1.4l.5-.2 3-.1h1.8c1.6 0 4.5 1 5.5 3h.3c.5 0 1.3 1.3 2 2.2l1.4 2.8v17.3c-1 .9-.8 1.8-1.1 2.9l-1.5 2.1-1 .9c-1.2.5-2.2 1-3.3 1.7-.9.1-1.7.3-2.4.5-1.3 0-2.8 0-3.8.1v-.1l-1.9-.3-1.8-.5c-1.3-.8-3.8-1.8-4.5-3.3l-1.6-2.5-.2-1.6c.1-5.8.1-11.4.1-17zm-27 21.6c1-2.5.9-5.4 2.5-7.3 0-1.2 2.9-3.5 3.6-4.2 2-1.4 3.8-2.1 6.3-2.1 2.2 0 6.2 2 7.1 3.9 1.7.8 2.4 4.1 3.2 5.6l-2 1c-1.3 0-2.9 2.3-4.1 2.3-1.7 1.2-3.3 1.8-4.8 3.8h-.3l-.8.7-2.4 2-1.2 1.4c-1.6 1-2.9 3.5-4.1 5-.8 1.2-1.5 2.4-2.2 3.5l-.9 1.7c.1-5.8.1-11.5.1-17.3zm-27 4.3.4-1.3.5-2 .5-2c.7-1.2 1.4-2.4 2.2-3.5l1.3-1.3 2.4-1.7c1-.4 2.1-.7 3.1-.9 1.4.1 2.9.3 4.5.5l3.1 2 2.1 2.5c.9 0 2.4 4.5 2.6 5.4 0 7.5 0 15.1.1 22.7.1 1.4.3 2.9.4 4.5-.1 2-.7 4.3-1.3 6.3-.5.8-1 1.7-1.4 2.6-.7.8-1.3 1.6-2 2.5l-1.3 1c-1.3.5-2.8 1-3.9 1.6-1.2 0-2.4 0-3.4.1v-.2c-3-.4-5.9-2.6-7.3-5.2l-.2-.5-1.7-3.8-.4-1.6-.4-1.4c.1-8.8.1-17.6.1-26.3zm-17 49.6v-.1c-1-.3-2-.5-2.9-.8l-1.7-1c-2.4-1.8-5.2-5.8-5.2-9l-.2-.9v-28.5l.3-1.6.3-1.7c.4-.9.9-1.7 1.4-2.5 0-1 2.2-2.9 2.7-3.4.8-.5 1.7-1 2.6-1.6l1.4-.4 2-.3c.8 0 1.7.1 2.6.3l2.5 1.2 2 1.4 1.3 1.3.9 1.3c1.7 2.6 2.4 6 2.6 9.2-.1 8.3-.1 16.6-.1 25-.7.7-1 3-1.2 4.1-.5.8-.9 1.6-1.3 2.5l-2.2 2.6c-1 .7-2.1 1.3-3 2.1l-1.5.5c-1.1 0-2.3.1-3.3.3zm66 36c0 1.2-.4 2.4-.6 3.6l-.9 1.6h-58.3l-.7-.5-.3-.5-1.6-3.8-.3-1.3c-.1-10.4-.1-20.7-.1-31.1l1.4-.3 2.9-1.4c.9 0 1.4-1.4 2.4-1.4 2.2-1.4 4.3-5.4 5.4-7.7l.7-2.1c.4-.7.7-3 .7-3.9l1.3 1.3v.3l3.5 2.8 4.1 2c1.6 0 3.3 0 5 .1l1.3-.1c1.3-.9 3.7-1.3 4.8-2.5 1-.5 2.4-1.8 3.1-2.8.3 1.8.7 3.7 1 5.6.1.8.4 1.7.7 2.6 1.2 2.8 2.4 5.6 3.7 8.5l2.4 3.5.5.7 1 1.7c1 1.2 2.1 2.4 3.3 3.5l3.3 3 .7.8 1.6.9 2.1 1.4.5.6 1.7 1.2h.4l.5.4 1.3.5 1.5.9v11.9zm57.2-40.8c-.9 1.8-1.4 4.2-2.5 5.8-.5.9-1 1.8-1.6 2.8l-2.1 3.1c-.8.9-1.4 1.8-2.1 2.9l-.4.3-2.9 3.1h-.3l-.3.4c-1.6 1-3 2.2-4.5 3.4-2.1 1-4.4 2.2-6.3 3.4l-2.4.9v-4.6l-.2-2.4c-.4-1-.7-2.1-1-3.1l-3.9-4.3-2.3-1.4c-1-.4-2.1-.8-3-1.2l-2.2-.5c-.9-.1-1.7-.1-2.5-.1l2.2.1c0-3.7 0-7.5.1-10.5h-3.2v10.4c-2 0-3.5 0-5.1.4l-2.3.7c-.9.5-1.8 1.5-2.7 1.5h-.3l-2 1.8c-.7.8-1.3 1.6-1.8 2.5-.4.9-.8 1.9-1 2.9-.1 2-.3 3.9-.4 6-1.6-.9-3.1-1.8-4.7-2.7l-3.4-2.6c-1.2-1-2.4-2.1-3.4-3l-.9-1.3-3.9-5.1-1.8-3.4c-1-1.7-1.8-3.9-2.6-5.9-.4-1.6-.7-3.1-1-4.6-.3-1.1-.5-2.1-.5-3v-9.3c1-3 .9-7.5 2.6-10.1 0-1.3 1.6-3.7 2.1-4.7l1.6-2.4c0-.9 1.6-2 1.6-2.5l.5-.7 1.6-1.7 1.3-1.6.1-.4 1.2-1.1c.9-.9 2-1.7 3-2.5l.5-.4c1-.5 2.2-2.2 3.5-2.2.9-.8 3.1-2.4 4.5-2.4 0 .7 2 3.4 2.9 3.4l2.5 2 3 1.6c2.1.7 5 .9 7.2.9 1.7-.1 4.5-.5 6-1.4 1 0 2-1.4 2.9-1.4l1.3-1.3c1-1.2 2.8-3.1 3.1-4.7l.3-.4c.9.3 1.8.7 2.8 1 1.6.8 3.3 1.6 5 2.5l2.2 1.3 2.4 2c.8.7 1.6 1.3 2.5 2.1l2 2.1 1.6 1.6c1.3 2 2.6 3.9 4.1 5.9l1 2.2c1 1.7 2 4.3 2.6 6.2.4 2.5.9 5 1.4 7.5 0 1.7 0 3.4.1 5.1-.1 3.5-1 7.6-1.8 11.1z" class="st0"/><path id="XMLID_46_" d="m288.1 166.8-9.5 14.5-9.5-14.5 9.5-14.5z" class="st0"/><path id="XMLID_47_" d="m296.9 184.3-16.7-.1 7.9-14h16.7z" class="st0"/><path id="XMLID_48_" d="m260.4 184.3 16.7-.1-7.9-14h-16.7z" class="st0"/><path id="XMLID_57_" d="M251.1 81.1c-63.6 0-115.4 51.8-115.4 115.4 0 63.6 51.9 115.4 115.4 115.4 63.6 0 115.4-51.8 115.4-115.4 0-63.6-51.8-115.4-115.4-115.4zm0 226.1c-61 0-110.7-49.7-110.7-110.7S190.1 85.8 251.1 85.8s110.7 49.7 110.7 110.7c.1 61-49.7 110.7-110.7 110.7z" class="st0"/></g></svg>