<svg xmlns="http://www.w3.org/2000/svg" xml:space="preserve" width="146.901" height="30.52"><defs><linearGradient id="b" x1="0" x2="1" y1="0" y2="0" gradientTransform="scale(21.015 -21.015) rotate(50.323 41.488 -17.55)" gradientUnits="userSpaceOnUse" spreadMethod="pad"><stop offset="0" style="stop-opacity:1;stop-color:#ef3b23"/><stop offset="1" style="stop-opacity:1;stop-color:#8b131e"/></linearGradient><linearGradient id="d" x1="0" x2="1" y1="0" y2="0" gradientTransform="matrix(18.014 0 0 -18.014 31.518 794.39)" gradientUnits="userSpaceOnUse" spreadMethod="pad"><stop offset="0" style="stop-opacity:1;stop-color:#b7212f"/><stop offset="1" style="stop-opacity:1;stop-color:#ef3b23"/></linearGradient><clipPath id="a" clipPathUnits="userSpaceOnUse"><path d="m43.584 815.254 18.951-22.845-22.752-18.873-18.951 22.844"/></clipPath><clipPath id="c" clipPathUnits="userSpaceOnUse"><path d="M32.333 805.144h20.573v-21.509H32.333Z"/></clipPath></defs><g clip-path="url(#a)" transform="matrix(1.33333 0 0 -1.33333 -40.827 1074.483)"><path d="M41.837 805.137c-5.788-.173-10.44-4.908-10.44-10.737 0-5.941 4.815-10.755 10.749-10.755 1.967 0 7.308.824 9.824 6.377a9.248 9.248 0 0 0-3.493-.682c-5.125 0-9.266 3.321-9.273 8.444-.005 2.633.791 4.751 2.01 6.313.247.318.654.763.932 1.047a31.852 31.852 0 0 0-.309-.007" style="fill:url(#b);stroke:none"/></g><g clip-path="url(#c)" transform="matrix(1.33333 0 0 -1.33333 -40.827 1074.483)"><path d="M43.111 804.097c1.612-2.152 1.986-4.209 1.986-6.322 0-5.123-4.152-8.445-9.273-8.445a9.26 9.26 0 0 0-3.491.682c2.564-5.712 7.852-6.377 9.819-6.377 5.938 0 10.754 4.815 10.754 10.755 0 5.831-4.653 10.566-10.443 10.739l-.317.015c.279-.284.724-.722.965-1.047" style="fill:url(#d);stroke:none"/></g><path d="M0 0c-1.128-1.559-1.845-3.593-1.835-6.036.01-2.682 1.155-4.919 2.956-6.397 1.79 1.478 2.975 3.672 2.94 6.349C4.038-4.08 3.85-2.206 2.122.175c-.275.38-.756.872-1.007 1.109C1.086 1.284.44.61 0 0" style="fill:#fff;fill-opacity:1;fill-rule:nonzero;stroke:none" transform="matrix(1.33333 0 0 -1.33333 13.888 2.671)"/><path d="M0 0v-3.098a14.554 14.554 0 0 1 1.306-.058c.381 0 .735.026 1.063.074.329.049.612.134.851.256.24.123.432.287.572.491.144.207.212.471.212.793 0 .577-.209.979-.63 1.204C2.954-.113 2.372 0 1.629 0Zm0 1.452h1.306c.705 0 1.258.101 1.657.301.402.203.603.562.603 1.08 0 .487-.208.836-.624 1.043-.418.205-.956.306-1.622.306-.284 0-.537-.005-.754-.015A6.693 6.693 0 0 1 0 4.125Zm1.248-6.15c-.538 0-1.084.018-1.63.051a7.675 7.675 0 0 0-1.438.213v9.878c.213.04.444.077.688.112.245.032.495.06.75.08a19.672 19.672 0 0 0 1.466.058c.617 0 1.19-.046 1.719-.138a4.386 4.386 0 0 0 1.372-.464 2.37 2.37 0 0 0 .901-.851c.218-.351.323-.787.323-1.305 0-.479-.113-.892-.342-1.235A2.492 2.492 0 0 0 4.094.88C4.712.675 5.166.372 5.458-.03c.295-.401.442-.909.442-1.526 0-1.048-.381-1.833-1.144-2.357-.764-.523-1.934-.785-3.508-.785" style="fill:#0a3152;fill-opacity:1;fill-rule:nonzero;stroke:none" transform="matrix(1.33333 0 0 -1.33333 37.869 16.348)"/><path d="M0 0c.549 0 .966.029 1.248.087v1.968a3.18 3.18 0 0 1-.426.088c-.185.03-.39.044-.615.044-.196 0-.394-.014-.593-.044a1.813 1.813 0 0 1-.546-.163.968.968 0 0 1-.388-.328.939.939 0 0 1-.145-.537c0-.421.129-.711.395-.873C-.804.083-.449 0 0 0m-.145 6.62c.586 0 1.08-.074 1.482-.221.401-.145.72-.352.961-.616s.41-.585.513-.962c.103-.376.155-.79.155-1.24v-4.653a23.896 23.896 0 0 0-1.24-.214 13.01 13.01 0 0 0-1.871-.123c-.461 0-.881.043-1.263.133a2.612 2.612 0 0 0-.975.424c-.271.197-.48.449-.633.764-.152.314-.226.699-.226 1.161 0 .439.084.811.257 1.114.171.303.402.551.698.741.292.191.632.327 1.018.412.388.082.791.125 1.211.125a5.605 5.605 0 0 0 1.306-.162v.293c0 .205-.025.401-.071.588a1.279 1.279 0 0 1-.257.491 1.228 1.228 0 0 1-.485.331 2.162 2.162 0 0 1-.759.117c-.41 0-.787-.031-1.127-.089a4.856 4.856 0 0 1-.836-.205l-.222 1.44c.225.076.552.155.981.234.433.077.894.117 1.383.117" style="fill:#0a3152;fill-opacity:1;fill-rule:nonzero;stroke:none" transform="matrix(1.33333 0 0 -1.33333 50.51 20.79)"/><path d="M0 0a11.934 11.934 0 0 0 3.154.41c.626 0 1.148-.084 1.57-.256a2.48 2.48 0 0 0 1.007-.718c.251-.311.425-.682.526-1.118.105-.435.157-.912.157-1.431v-4.315H4.637v4.037c0 .41-.026.762-.082 1.049a1.852 1.852 0 0 1-.264.705 1.053 1.053 0 0 1-.498.396 2.115 2.115 0 0 1-.772.126c-.225 0-.46-.015-.703-.045-.246-.03-.427-.053-.543-.073v-6.195H0" style="fill:#0a3152;fill-opacity:1;fill-rule:nonzero;stroke:none" transform="matrix(1.33333 0 0 -1.33333 56.09 12.55)"/><path d="M0 0c0-.783.185-1.396.557-1.841.372-.446.885-.669 1.541-.669.284 0 .527.012.727.037.202.025.365.051.492.082v4.404a2.856 2.856 0 0 1-.625.299 2.45 2.45 0 0 1-.829.141c-.645 0-1.117-.222-1.417-.662C.148 1.35 0 .754 0 0m5.093-3.624c-.354-.11-.795-.206-1.327-.294a10.239 10.239 0 0 0-1.682-.132c-.607 0-1.149.092-1.629.278a3.38 3.38 0 0 0-1.226.8 3.494 3.494 0 0 0-.777 1.262 4.795 4.795 0 0 0-.274 1.666c0 .607.076 1.158.229 1.652.151.493.374.917.667 1.269.293.352.651.624 1.073.816.42.19.905.285 1.454.285.371 0 .697-.045.98-.131.287-.089.531-.186.736-.294v3.684l1.776.293" style="fill:#0a3152;fill-opacity:1;fill-rule:nonzero;stroke:none" transform="matrix(1.33333 0 0 -1.33333 68.125 17.308)"/><path d="M0 0v11.097l1.777.294V7.588c.195.07.424.129.683.177.26.048.514.074.77.074.616 0 1.129-.085 1.535-.256.405-.172.732-.412.973-.719.246-.31.422-.68.524-1.109.102-.431.155-.911.155-1.44V0H4.641v4.037c0 .41-.03.762-.081 1.049-.055.289-.142.524-.267.705a1.06 1.06 0 0 1-.491.396 2.04 2.04 0 0 1-.762.126c-.236 0-.476-.026-.72-.075a4.864 4.864 0 0 1-.543-.131V0" style="fill:#0a3152;fill-opacity:1;fill-rule:nonzero;stroke:none" transform="matrix(1.33333 0 0 -1.33333 76.656 22.454)"/><path d="M0 0c.546 0 .962.029 1.246.087v1.968c-.097.029-.24.06-.428.088a3.82 3.82 0 0 1-.613.044 4.02 4.02 0 0 1-.595-.044 1.785 1.785 0 0 1-.543-.163.981.981 0 0 1-.39-.328.923.923 0 0 1-.145-.537c0-.421.131-.711.394-.873C-.807.083-.452 0 0 0m-.149 6.62c.589 0 1.08-.074 1.481-.221a2.35 2.35 0 0 0 .964-.616c.24-.264.409-.585.515-.962.103-.376.152-.79.152-1.24v-4.653a23.625 23.625 0 0 0-1.239-.214 13.008 13.008 0 0 0-1.873-.123c-.46 0-.88.043-1.262.133-.38.086-.707.228-.977.424-.268.197-.48.449-.629.764-.153.314-.229.699-.229 1.161 0 .439.086.811.258 1.114.171.303.403.551.697.741.295.191.634.327 1.022.412.386.082.789.125 1.209.125a5.653 5.653 0 0 0 1.306-.162v.293c0 .205-.025.401-.073.588a1.189 1.189 0 0 1-.741.822 2.151 2.151 0 0 1-.756.117c-.412 0-.789-.031-1.131-.089a4.978 4.978 0 0 1-.836-.205l-.22 1.44c.224.076.551.155.983.234.431.077.891.117 1.379.117" style="fill:#0a3152;fill-opacity:1;fill-rule:nonzero;stroke:none" transform="matrix(1.33333 0 0 -1.33333 90.378 20.79)"/><path d="M0 0c.344.098.788.19 1.337.279.548.087 1.154.131 1.82.131.626 0 1.151-.084 1.57-.256.42-.171.756-.412 1.008-.718a2.82 2.82 0 0 0 .528-1.118 6.27 6.27 0 0 0 .152-1.431v-4.315H4.639v4.037c0 .41-.026.762-.08 1.049a1.885 1.885 0 0 1-.264.705 1.059 1.059 0 0 1-.5.396 2.093 2.093 0 0 1-.768.126c-.226 0-.464-.015-.706-.045-.245-.03-.426-.053-.544-.073v-6.195H0" style="fill:#0a3152;fill-opacity:1;fill-rule:nonzero;stroke:none" transform="matrix(1.33333 0 0 -1.33333 95.952 12.55)"/><path d="M0 0v-4.021c.146-.022.366-.044.66-.067a9.91 9.91 0 0 1 2.21.051c.424.06.8.168 1.122.325.325.157.583.373.777.649.194.274.294.628.294 1.06 0 .392-.068.719-.204.98a1.558 1.558 0 0 1-.587.618 2.598 2.598 0 0 1-.932.316A7.76 7.76 0 0 1 2.114 0Zm0 .851h1.938c.36 0 .704.026 1.026.08.324.054.604.151.845.293.241.141.429.331.566.57.136.239.205.544.205.914 0 .331-.074.611-.222.842a1.674 1.674 0 0 1-.623.563c-.268.145-.589.25-.962.312a7.375 7.375 0 0 1-1.232.097c-.361 0-.669-.011-.918-.031A6.556 6.556 0 0 1 0 4.419Zm1.438-5.827a9.39 9.39 0 0 0-.58.021c-.221.016-.445.036-.673.06-.233.025-.451.054-.655.088-.203.035-.382.07-.527.111v9.79c.176.048.371.09.587.124.213.035.437.062.669.089.229.023.453.04.673.051.219.01.422.014.609.014.548 0 1.068-.044 1.564-.131a4.252 4.252 0 0 0 1.3-.439c.37-.206.666-.477.889-.815.217-.337.326-.755.326-1.253 0-.547-.138-1.014-.416-1.4a2.17 2.17 0 0 0-1.123-.8c.294-.067.562-.165.808-.293.243-.126.458-.29.645-.492.186-.2.331-.444.433-.734.103-.289.152-.634.152-1.037 0-.96-.381-1.691-1.142-2.198-.764-.504-1.944-.756-3.539-.756" style="fill:#0a3152;fill-opacity:1;fill-rule:nonzero;stroke:none" transform="matrix(1.33333 0 0 -1.33333 111.004 15.937)"/><path d="M0 0c.374 0 .7.012.977.036.279.023.516.058.712.096v2.671a2.903 2.903 0 0 1-.513.154c-.235.054-.56.08-.969.08-.235 0-.482-.015-.735-.051a2.121 2.121 0 0 1-.704-.219 1.46 1.46 0 0 1-.527-.462c-.139-.196-.208-.457-.208-.779 0-.284.047-.524.141-.718.093-.197.226-.354.396-.473.171-.116.376-.202.617-.253C-.575.027-.302 0 0 0m-.088 7.074c.499 0 .923-.07 1.271-.211.347-.143.628-.339.844-.588a2.27 2.27 0 0 0 .468-.889c.1-.342.146-.713.146-1.115V-.514a4.124 4.124 0 0 0-.423-.095 20.378 20.378 0 0 0-.647-.109A11.473 11.473 0 0 0-.161-.852c-.401 0-.771.044-1.109.134a2.41 2.41 0 0 0-.879.416 1.966 1.966 0 0 0-.587.734c-.142.3-.214.663-.214 1.094 0 .411.08.763.237 1.057.153.295.375.537.66.727.284.191.622.332 1.012.419a5.926 5.926 0 0 0 1.71.11 7.062 7.062 0 0 0 .808-.133c.102-.023.173-.046.212-.064v.468c0 .264-.019.521-.059.77a1.645 1.645 0 0 1-.258.676c-.13.2-.317.362-.555.485-.242.121-.558.181-.947.181-.559 0-.975-.037-1.25-.115a7.797 7.797 0 0 1-.6-.193l-.134.838c.168.079.425.15.771.22.348.067.767.102 1.255.102" style="fill:#0a3152;fill-opacity:1;fill-rule:nonzero;stroke:none" transform="matrix(1.33333 0 0 -1.33333 123.84 21.534)"/><path d="M0 0c.285.078.668.167 1.146.264.479.098 1.066.147 1.762.147.576 0 1.058-.083 1.444-.25.387-.166.695-.402.926-.711.228-.309.394-.677.489-1.108.099-.431.15-.906.15-1.424v-4.242h-.955v3.934c0 .538-.037.994-.11 1.364-.074.371-.197.677-.368.911-.17.234-.396.403-.675.508-.279.1-.629.154-1.049.154a7.99 7.99 0 0 1-1.166-.074c-.327-.049-.541-.093-.64-.134v-6.663H0" style="fill:#0a3152;fill-opacity:1;fill-rule:nonzero;stroke:none" transform="matrix(1.33333 0 0 -1.33333 129.34 12.689)"/><path d="M0 0a11.47 11.47 0 0 0 1.05-.843c.352-.319.699-.666 1.04-1.036.344-.375.665-.754.969-1.146.302-.394.561-.762.774-1.107H2.686a9.386 9.386 0 0 1-.8 1.135c-.302.37-.622.722-.955 1.049a12.89 12.89 0 0 1-.999.895 5.61 5.61 0 0 1-.886.609v-3.688h-.951V7.083l.951.176V.189c.206.175.458.414.764.716.307.301.615.606.929.91.32.305.616.602.898.888.28.286.517.536.706.753h1.166a33.798 33.798 0 0 0-.772-.782A691.274 691.274 0 0 0 .895.862C.589.559.292.272 0 0" style="fill:#0a3152;fill-opacity:1;fill-rule:nonzero;stroke:none" transform="matrix(1.33333 0 0 -1.33333 141.746 16.945)"/></svg>