<svg xmlns="http://www.w3.org/2000/svg" width="224.09" height="69.36"><path d="M3.897 987.302h218.162v61.105H3.897v-61.105z" style="fill:#e7e514;fill-opacity:1;fill-rule:evenodd;stroke:none" transform="translate(0 -983.002)"/><path d="m0 0-2.9 6.727c0 .004-.01.01-.01.014v.017l-.02.045c-.17.381-.37.643-.6.785a.695.695 0 0 1-.12.065c-.06.031-.1.053-.12.068-.12.033-.2.067-.24.106a.207.207 0 0 0-.06.158c0 .074.04.133.1.18.07.046.16.072.27.072.04 0 .1-.006.19-.02l.07-.006.02-.005a8.215 8.215 0 0 1 1.45-.045c.19.007.41.019.65.033l.33.023c.15.014.26.02.33.02.11 0 .19-.02.23-.053.04-.035.06-.094.06-.176 0-.07-.01-.127-.05-.164-.02-.037-.09-.078-.2-.123A.268.268 0 0 0-.66 7.7l-.02-.008c-.26-.119-.4-.285-.4-.49 0-.067.02-.159.05-.276.04-.115.09-.25.15-.404L.88 2.338c.01-.043.04-.082.06-.111a.169.169 0 0 1 .1-.039c.03 0 .07.012.1.039.03.023.06.061.08.105l1.6 3.807c.06.143.1.285.14.426.03.139.05.26.05.361 0 .197-.05.358-.15.477-.11.119-.27.207-.49.267-.03.014-.08.026-.13.039-.02.006-.03.008-.03.012H2.2c-.26.063-.39.166-.39.309 0 .074.03.123.08.164.05.037.12.054.22.054a.49.49 0 0 0 .08-.007c.04-.002.08-.004.11-.004l.07-.014c.39-.039.75-.062 1.08-.062.14 0 .29.002.43.011.14.012.29.028.46.051.02 0 .05.004.08.008l.06.006c.1-.004.16-.022.19-.051.03-.029.05-.08.05-.156 0-.119-.09-.237-.27-.342l-.01-.006c0-.004-.01-.012-.03-.025a1.503 1.503 0 0 1-.16-.104c-.15-.133-.34-.445-.56-.935-.02-.053-.04-.09-.05-.118-.01-.015-.01-.031-.02-.054-.01-.016-.02-.045-.04-.088L1.06.704a.582.582 0 0 1-.03-.075.521.521 0 0 1-.06-.125C.8.116.67-.13.59-.232.51-.334.42-.384.33-.384c-.07 0-.12.025-.17.076C.11-.257.06-.154 0 0m9.61 8.282v-.66a1.58 1.58 0 0 1-.61.113c-.34 0-.57-.07-.7-.215-.12-.145-.18-.461-.18-.949V5.387c0-.297.07-.498.22-.615.14-.119.4-.176.75-.176.19 0 .36.016.52.045v-.644c-.22.039-.45.06-.71.06-.37 0-.59-.033-.67-.098-.07-.064-.11-.244-.11-.539V1.387c0-.424.07-.699.23-.82.15-.123.45-.186.88-.186.13 0 .26.008.38.024v-.584c-.17-.006-.34-.012-.51-.012-.29 0-.66.01-1.11.023-.11.006-.19.014-.23.014-.03 0-.07 0-.11.004-.21.014-.34.02-.41.02-.22 0-.44-.006-.64-.024a9.838 9.838 0 0 1-.64-.06c-.03-.004-.06-.01-.11-.012-.1-.01-.17-.014-.21-.014-.07 0-.13.028-.18.078a.235.235 0 0 0-.07.174c0 .067.02.125.06.17.04.047.13.104.26.166l.02.012c.19.094.31.183.38.275.08.102.13.237.16.395.04.16.06.449.06.869v4.408c0 .363-.03.633-.08.809A.89.89 0 0 1 6 7.53c-.12.092-.29.16-.52.209l-.02.006-.18.037c-.04.008-.07.039-.11.082-.02.047-.04.092-.04.144a.25.25 0 0 0 .24.24l.08-.001a11.36 11.36 0 0 1 .85-.067 13.448 13.448 0 0 1 1.29-.008c.17.012.37.03.59.051.06 0 .16.008.28.018.43.029.75.043.97.043.06 0 .12 0 .18-.002m-21.76-6.383v4.408c0 .363-.03.633-.08.809a.828.828 0 0 1-.25.414.821.821 0 0 1-.2.121 1.89 1.89 0 0 1-.34.094.18.18 0 0 1-.06.011.67.67 0 0 1-.11.026c-.04.008-.07.039-.11.082a.267.267 0 0 0-.05.144c0 .078.03.141.09.186a.39.39 0 0 0 .24.066h.09c.02-.004.05-.006.08-.012.01-.003.02-.007.03-.007.47-.045.92-.069 1.36-.069.46 0 .93.026 1.42.076.05.006.08.008.1.012.03.004.05.006.08.006.02.004.04.006.07.006.09 0 .17-.022.22-.068.06-.043.08-.1.08-.172 0-.106-.09-.196-.27-.276-.02-.006-.03-.011-.03-.011a1 1 0 0 1-.19-.063.483.483 0 0 1-.12-.082.65.65 0 0 1-.19-.309c-.04-.119-.06-.347-.06-.697V4.545c0-.06.01-.111.03-.152.03-.041.05-.061.08-.061.01 0 .04.012.08.038.04.019.08.052.12.093l2.15 1.975c.24.219.42.404.52.551.1.146.15.283.15.406 0 .18-.12.295-.37.344l-.01.006h-.06l-.02.005c-.19.049-.28.137-.28.258 0 .082.02.141.06.172.04.035.11.053.22.057.05 0 .09 0 .13-.002.04-.002.08-.006.12-.012.02-.002.06-.006.1-.006.39-.021.72-.033 1.01-.033.33 0 .68.012 1.04.033l.03.006c.02.006.05.01.07.012.02.002.04.002.07.002.12 0 .22-.016.26-.047.04-.031.07-.086.07-.17 0-.082-.02-.141-.05-.176-.02-.035-.1-.068-.23-.105l-.06-.024c-.1-.041-.18-.076-.23-.103-.4-.18-.91-.545-1.52-1.092l-.04-.031-.03-.039-1.13-1.006a.97.97 0 0 1-.16-.151c-.02-.043-.04-.078-.04-.113 0-.023.01-.055.03-.094.02-.041.05-.099.1-.181l2.65-3.864c.12-.166.23-.302.33-.398.11-.096.22-.17.34-.227a.543.543 0 0 1 .15-.05l.01-.006c.09-.018.14-.045.16-.076a.42.42 0 0 0 .03-.19c0-.107-.02-.181-.07-.219-.05-.037-.15-.054-.29-.054l-.16.002-.1.008c-.11.007-.21.015-.3.019a8.757 8.757 0 0 1-1.05-.029h-.02c-.03-.004-.05-.006-.07-.01-.02-.002-.04-.002-.06-.002-.12 0-.24.061-.37.18-.13.123-.29.336-.49.646l-2.02 3.072a.57.57 0 0 1-.11.131.172.172 0 0 1-.09.037.23.23 0 0 1-.08-.013.214.214 0 0 1-.06-.045l-.37-.344a.698.698 0 0 1-.14-.174.618.618 0 0 1-.03-.224V1.567c0-.319.03-.547.09-.686.07-.136.18-.263.33-.371.09-.056.23-.113.41-.156l.03-.006c.16-.043.27-.084.32-.127a.236.236 0 0 0 .08-.183.285.285 0 0 0-.08-.198c-.05-.052-.1-.08-.17-.08-.08 0-.15.002-.21.008a1.41 1.41 0 0 0-.17.018c-.25.035-.49.06-.71.078-.23.019-.46.025-.69.025a8.478 8.478 0 0 1-1.29-.094c-.09-.009-.17-.019-.24-.025-.07-.008-.13-.01-.19-.01-.07 0-.12.028-.17.078a.246.246 0 0 0-.08.174c0 .111.11.219.31.328l.01.008c.1.037.18.08.24.125.06.049.12.1.16.162a.99.99 0 0 1 .17.385c.03.154.05.449.05.879M9.61-.179v.584c.42.052.75.197 1 .437.32.309.48.754.48 1.334 0 .617-.18 1.088-.55 1.405-.24.201-.55.341-.93.416v.644c.24.051.43.139.57.268.23.207.35.535.35.978 0 .565-.14 1.014-.42 1.348-.14.176-.31.303-.5.387v.66c.84-.022 1.51-.196 1.98-.528.52-.351.77-.847.77-1.482 0-.477-.14-.867-.42-1.166-.29-.299-.72-.512-1.3-.643.81-.041 1.4-.222 1.78-.547.39-.328.58-.812.58-1.453 0-.902-.32-1.572-.96-2.006-.55-.376-1.36-.587-2.43-.636" style="fill:#000;fill-opacity:1;fill-rule:evenodd;stroke:none" transform="matrix(1.25 0 0 -1.25 43.31 39.253)"/><path d="M0 0c6.95 5.406 17.03 4.149 22.44-2.801 5.4-6.951 4.15-17.029-2.81-22.435-.2-.158-.41-.309-.61-.453 6.42 5.504 7.45 15.197 2.2 21.941C15.97 2.998 6.32 4.381-.59-.49c.19.166.39.33.59.49" style="fill:#00854a;fill-opacity:1;fill-rule:evenodd;stroke:none" transform="matrix(1.25 0 0 -1.25 33.485 17.569)"/><path d="M0 0c7.51 5.842 17.95 5.387 24.82-.58-6.29 4.863-15.38 5.043-21.98-.1-7.82-6.078-9.28-17.344-3.26-25.082 6.02-7.738 17.3-9.092 25.11-3.015a17.997 17.997 0 0 1 6.18 8.966 19.651 19.651 0 0 0-7.02-10.841c-8.53-6.629-20.83-5.151-27.4 3.291C-10.12-18.92-8.52-6.629 0 0" style="fill:#00854a;fill-opacity:1;fill-rule:evenodd;stroke:none" transform="matrix(1.25 0 0 -1.25 27.772 15.16)"/><path d="M0 0h9.83c1.88-9.89 10.6-17.412 21.03-17.412 8.09 0 15.16 4.535 18.79 11.193h125.01v-14.503H0V0z" style="fill:#00854a;fill-opacity:1;fill-rule:evenodd;stroke:none" transform="matrix(1.25 0 0 -1.25 3.747 39.502)"/><path d="M0 0v1.928h.74c.25 0 .43.043.54.129.12.086.17.227.17.42 0 .084-.01.178-.03.281-.02.104-.06.221-.11.352L-.86 9.059h2.62L2.89 5.12 4 9.059h2.43L4.32 2.596c-.23-.725-.42-1.221-.55-1.49a2.21 2.21 0 0 0-.41-.613c-.2-.194-.44-.334-.71-.416-.27-.081-.72-.122-1.34-.122-.17 0-.38.004-.6.012C.48-.023.25-.013 0 0" style="fill:#000;fill-opacity:1;fill-rule:evenodd;stroke:none" transform="matrix(1.25 0 0 -1.25 130.322 42.947)"/><path d="M0 0v1.928h.74c.25 0 .43.043.54.129.11.086.17.227.17.42 0 .084-.01.178-.03.281-.03.104-.06.221-.11.352L-.86 9.059h2.61L2.89 5.12 4 9.059h2.43L4.32 2.596c-.23-.725-.42-1.221-.55-1.49-.13-.27-.27-.475-.42-.613a1.637 1.637 0 0 0-.7-.416c-.27-.081-.72-.122-1.34-.122-.18 0-.38.004-.6.012C.48-.023.25-.013 0 0" style="fill:#000;fill-opacity:1;fill-rule:evenodd;stroke:none" transform="matrix(1.25 0 0 -1.25 147.947 42.947)"/><path d="M0 0v8.805h2.81V5.887l2.53 2.918h3.28L5.48 5.561 9.03 0H5.66L3.51 3.527l-.7-.722V0H0z" style="fill:#000;fill-opacity:1;fill-rule:evenodd;stroke:none" transform="matrix(1.25 0 0 -1.25 72.51 39.748)"/><path d="M0 0v-1.566c-.24-.008-.42-.061-.55-.156-.15-.106-.23-.27-.25-.489h-2.52c.01.733.3 1.282.89 1.657.56.353 1.37.539 2.43.554m0-4.128-.02-.004c-.65-.172-.97-.403-.97-.692a.52.52 0 0 1 .19-.428c.13-.103.31-.154.54-.154.09 0 .18.004.26.012v-1.348l-.03-.008a3.667 3.667 0 0 0-1.29-.211c-.73 0-1.3.18-1.7.54-.4.361-.6.869-.6 1.529 0 .64.2 1.115.59 1.422.4.306 1.14.529 2.24.67.14.019.33.041.56.066.08.008.16.018.23.027v-1.421zm.97.3a9.268 9.268 0 0 0-.97-.3v1.421c.66.102 1 .303 1 .608a.44.44 0 0 1-.23.406c-.15.086-.38.129-.71.129-.02 0-.04 0-.06-.002V0a6.809 6.809 0 0 0 1.63-.146c.45-.098.81-.232 1.06-.402.3-.207.52-.44.64-.704.13-.259.19-.63.19-1.119v-3.621c0-.121.02-.226.07-.32a.606.606 0 0 1 .21-.231v-.187H1.2l-.15.623A3.472 3.472 0 0 0 0-6.742v1.348c.3.035.53.127.69.285.19.199.29.518.29.953v.203c0 .045-.01.088-.01.125" style="fill:#000;fill-opacity:1;fill-rule:evenodd;stroke:none" transform="matrix(1.25 0 0 -1.25 88.084 31.336)"/><path d="M0 0v6.5h2.38V5.316c.17.471.42.815.74 1.032.32.22.75.326 1.28.326h.24V4.096c-.1.009-.19.017-.28.023-.09.006-.17.008-.25.008-.52 0-.91-.115-1.15-.354-.25-.232-.37-.603-.37-1.105V0H0z" style="fill:#000;fill-opacity:1;fill-rule:evenodd;stroke:none" transform="matrix(1.25 0 0 -1.25 93.66 39.748)"/><path d="M0 0v-6.5h-2.37v.959c-.3-.383-.64-.668-1.01-.854a2.753 2.753 0 0 0-1.26-.277c-.4 0-.75.065-1.06.197-.31.131-.58.328-.79.588-.19.229-.33.51-.41.842-.08.334-.12.893-.12 1.678V0h2.59v-3.356c0-.492.06-.833.19-1.025.13-.189.36-.283.69-.283.32 0 .56.109.72.328.16.223.24.551.24.994V0H0z" style="fill:#000;fill-opacity:1;fill-rule:evenodd;stroke:none" transform="matrix(1.25 0 0 -1.25 108.785 31.623)"/><path d="M0 0v6.5h2.39V5.316c.17.471.41.815.73 1.032.33.22.75.326 1.29.326h.23V4.096c-.1.009-.19.017-.28.023-.08.006-.17.008-.25.008-.52 0-.9-.115-1.15-.354-.24-.232-.36-.603-.36-1.105V0H0z" style="fill:#000;fill-opacity:1;fill-rule:evenodd;stroke:none" transform="matrix(1.25 0 0 -1.25 109.972 39.748)"/><path d="M0 0h2.89l1.48-5.684L5.97 0h2.78L5.78-8.805H2.97L0 0z" style="fill:#000;fill-opacity:1;fill-rule:evenodd;stroke:none" transform="matrix(1.25 0 0 -1.25 118.972 28.742)"/><path d="M0 0h2.5c0-.274.07-.479.21-.613.15-.135.36-.204.64-.204.27 0 .48.045.63.137.14.09.21.225.21.403 0 .289-.32.505-.96.642-.05.014-.1.024-.13.033-1.21.254-2.01.535-2.38.834-.37.299-.55.739-.55 1.315 0 .699.26 1.228.81 1.594.54.367 1.34.546 2.38.546.97 0 1.72-.17 2.25-.513.54-.344.84-.852.92-1.528H4.21a.647.647 0 0 1-.26.465.9.9 0 0 1-.56.172c-.23 0-.4-.037-.52-.115a.385.385 0 0 1-.19-.34c0-.254.3-.447.89-.57.15-.032.27-.055.35-.075 1.18-.271 1.95-.558 2.3-.861.35-.308.54-.754.54-1.344 0-.746-.3-1.308-.88-1.687-.57-.377-1.43-.567-2.57-.567-1.05 0-1.85.19-2.4.567C.35-1.33.05-.76 0 0" style="fill:#000;fill-opacity:1;fill-rule:evenodd;stroke:none" transform="matrix(1.25 0 0 -1.25 138.51 37.192)"/><path d="M0 0v-1.566c-.24-.008-.42-.061-.55-.156-.15-.106-.23-.27-.25-.489h-2.52c.01.733.31 1.282.89 1.657.56.353 1.37.539 2.43.554m0-4.128-.02-.004c-.65-.172-.97-.403-.97-.692a.52.52 0 0 1 .19-.428c.13-.103.31-.154.54-.154.1 0 .18.004.26.012v-1.348l-.03-.008a3.667 3.667 0 0 0-1.29-.211c-.73 0-1.3.18-1.7.54-.4.361-.6.869-.6 1.529 0 .64.2 1.115.59 1.422.4.306 1.14.529 2.24.67.14.019.33.041.56.066.08.008.16.018.23.027v-1.421zm.97.3a9.268 9.268 0 0 0-.97-.3v1.421c.66.102 1 .303 1 .608a.44.44 0 0 1-.23.406c-.15.086-.38.129-.71.129-.02 0-.04 0-.06-.002V0a6.809 6.809 0 0 0 1.63-.146c.46-.098.81-.232 1.06-.402.3-.207.52-.44.64-.704.13-.259.19-.63.19-1.119v-3.621c0-.121.02-.226.07-.32a.606.606 0 0 1 .21-.231v-.187H1.21l-.17.623A3.312 3.312 0 0 0 0-6.742v1.348c.3.035.53.127.69.285.19.199.3.518.3.953 0 .092 0 .16-.01.203 0 .045-.01.088-.01.125" style="fill:#000;fill-opacity:1;fill-rule:evenodd;stroke:none" transform="matrix(1.25 0 0 -1.25 160.66 31.336)"/><path d="M0 0h1.25v-2.057l-.1-.002h-3.89v8.805H.87c.13 0 .26 0 .38-.002V4.738c-.14.006-.29.012-.47.012H0V3.232h1.25V1.625H0V0zm1.25 0h.06c.43 0 .74.062.92.189.19.129.28.338.28.627 0 .291-.1.5-.28.623-.19.125-.5.186-.95.186h-.03v1.607c.35.008.59.066.74.174.16.115.24.308.24.586 0 .291-.09.488-.26.595-.12.079-.36.129-.72.151v2.006c.58-.004 1.02-.024 1.31-.057.36-.039.66-.103.92-.197.44-.166.79-.426 1.02-.783.24-.354.36-.786.36-1.293 0-.397-.09-.746-.27-1.041-.17-.299-.44-.541-.8-.731.47-.17.82-.42 1.04-.756.22-.332.33-.769.33-1.301 0-.523-.1-.974-.32-1.361-.22-.383-.54-.68-.95-.889-.28-.142-.6-.244-.96-.304-.34-.055-.9-.086-1.68-.088V0z" style="fill:#000;fill-opacity:1;fill-rule:evenodd;stroke:none" transform="matrix(1.25 0 0 -1.25 173.31 37.175)"/><path d="M0 0v-1.566c-.24-.008-.42-.061-.55-.156a.663.663 0 0 1-.25-.489h-2.52c.01.733.3 1.282.89 1.657.56.353 1.37.539 2.43.554m0-4.128-.02-.004c-.65-.172-.97-.403-.97-.692a.52.52 0 0 1 .19-.428c.13-.103.31-.154.55-.154.08 0 .17.004.25.012v-1.348l-.03-.008a3.667 3.667 0 0 0-1.29-.211c-.73 0-1.3.18-1.7.54-.4.361-.6.869-.6 1.529 0 .64.2 1.115.59 1.422.4.306 1.15.529 2.24.67.14.019.32.041.56.066.08.008.15.018.23.027v-1.421zm.97.3a9.268 9.268 0 0 0-.97-.3v1.421c.67.102 1 .303 1 .608a.44.44 0 0 1-.23.406c-.15.086-.39.129-.71.129-.02 0-.04 0-.06-.002V0a6.809 6.809 0 0 0 1.63-.146c.45-.098.81-.232 1.06-.402.3-.207.52-.44.64-.704.13-.259.19-.63.19-1.119v-3.621c0-.121.02-.226.07-.32a.606.606 0 0 1 .21-.231v-.187H1.2l-.16.623A3.312 3.312 0 0 0 0-6.742v1.348c.3.035.53.127.69.285.2.199.29.518.29.953v.203c0 .045-.01.088-.01.125" style="fill:#000;fill-opacity:1;fill-rule:evenodd;stroke:none" transform="matrix(1.25 0 0 -1.25 185.047 31.336)"/><path d="M0 0v6.5h2.34v-.949c.31.379.65.66 1.02.847.37.184.79.276 1.26.276.39 0 .75-.065 1.06-.197.31-.131.57-.327.79-.586.2-.235.34-.52.42-.858.08-.336.12-.887.12-1.654V0H4.43v3.369c0 .492-.07.834-.2 1.022-.14.183-.36.275-.69.275-.32 0-.56-.107-.72-.322-.16-.217-.24-.545-.24-.989V0H0z" style="fill:#000;fill-opacity:1;fill-rule:evenodd;stroke:none" transform="matrix(1.25 0 0 -1.25 190.61 39.748)"/><path d="M0 0v8.805h2.58V4.508L4.29 6.5h2.89L4.77 4.103 7.51 0H4.44L3.02 2.328l-.44-.457V0H0z" style="fill:#000;fill-opacity:1;fill-rule:evenodd;stroke:none" transform="matrix(1.25 0 0 -1.25 200.634 39.748)"/><path d="M0 0a.278.278 0 0 0-.1-.152.511.511 0 0 0-.23-.041h-.19a.6.6 0 0 0-.24.047c-.05.029-.08.07-.08.127 0 .013.01.039.04.088v.017l.03.108C-.29 1.6.11 2.879.43 4.028c.32 1.148.48 1.826.48 2.037 0 .177-.17.283-.52.322l-.16.018.06.259c.3.02.59.055.87.11.29.052.56.123.83.209l.11-.051c-.3-1.082-.54-1.922-.72-2.529-.17-.602-.33-1.116-.48-1.541.38.408.72.707 1.04.894.32.188.64.279.96.279.26 0 .47-.074.62-.22.16-.147.24-.34.24-.576 0-.331-.21-.62-.64-.87-.42-.25-.94-.38-1.56-.394.1-.063.19-.151.28-.262.08-.115.18-.312.31-.596.01-.027.03-.066.05-.115.19-.429.38-.644.58-.644.1 0 .21.041.33.127.12.084.24.209.38.377l.18-.135c-.21-.328-.43-.572-.66-.742-.23-.17-.45-.254-.68-.254-.21 0-.38.074-.52.222-.14.147-.3.457-.47.922-.01.041-.03.098-.06.176-.2.555-.42.848-.65.879L0 0zm.66 2.176c.03 0 .08 0 .14-.004.06-.004.11-.004.14-.004.64 0 1.13.082 1.49.246.35.166.53.393.53.682 0 .129-.04.228-.12.303a.494.494 0 0 1-.34.111c-.28 0-.59-.115-.91-.35-.33-.232-.64-.56-.93-.984m-7.97.527-.21.116c.19.386.39.683.61.892.23.211.44.315.66.315.13 0 .23-.045.32-.131.08-.09.12-.205.12-.348 0-.105-.02-.24-.05-.404a6.913 6.913 0 0 0-.12-.535c.36.48.7.841 1.02 1.08.32.234.63.355.93.355.22 0 .39-.056.52-.168.13-.113.19-.267.19-.465 0-.097-.02-.214-.05-.341a8.394 8.394 0 0 0-.22-.614l-.06-.148C-4 1.405-4.17.895-4.17.774c0-.061.01-.112.05-.151a.155.155 0 0 1 .13-.062c.07 0 .16.041.26.121.1.082.26.244.48.488l.2-.187c-.34-.422-.65-.735-.92-.94-.27-.201-.52-.303-.74-.303-.15 0-.28.043-.36.131-.09.09-.13.209-.13.366 0 .084.01.185.04.3.03.119.07.264.13.438l.59 1.601c.01.026.02.067.04.12.08.224.12.39.12.49 0 .097-.03.172-.08.224a.292.292 0 0 1-.22.082c-.23 0-.49-.185-.78-.554-.29-.369-.55-.864-.78-1.479L-6.65.145c-.06-.147-.11-.239-.16-.276-.05-.035-.13-.052-.25-.052h-.08l-.05.007a.782.782 0 0 0-.3.055c-.06.037-.1.084-.1.147 0 .011.01.029.01.047 0 .015.01.035.02.052l.04.094c.31.752.54 1.334.68 1.746.15.414.22.693.22.846 0 .105-.02.187-.07.242-.04.053-.11.08-.2.08-.05 0-.12-.035-.18-.102a1.979 1.979 0 0 1-.24-.328m-2.73-1.648c-.29-.42-.56-.734-.81-.947-.24-.215-.45-.321-.63-.321-.13 0-.24.045-.32.131a.539.539 0 0 0-.11.356c0 .109.04.3.12.57.08.273.19.6.34.982h-.03c-.38-.66-.76-1.168-1.12-1.519-.37-.352-.71-.529-1.01-.529-.2 0-.35.064-.46.197-.1.129-.16.316-.16.558 0 .389.12.799.36 1.241.25.439.58.845 1 1.211.32.275.63.482.95.617.32.137.63.203.96.203.05 0 .13-.006.24-.016.01 0 .02-.004.02-.006l.25.34h.58c-.37-.883-.66-1.613-.87-2.185-.21-.571-.31-.932-.31-1.076 0-.073.01-.129.04-.168.03-.041.06-.063.11-.063.08 0 .17.037.25.104.09.07.23.226.43.468l.18-.148zm-3.3-.047c0-.156.03-.273.08-.346.05-.074.14-.111.25-.111.14 0 .31.098.5.289.19.191.42.481.68.861.2.293.36.573.48.838.13.262.19.444.19.541 0 .073-.03.131-.08.17a.448.448 0 0 1-.25.059c-.17 0-.34-.051-.52-.145a2.052 2.052 0 0 1-.52-.408 3.356 3.356 0 0 1-.58-.885c-.15-.334-.23-.625-.23-.863m-7.3.652 1.15 3.989c.02.093.05.177.06.252.01.07.02.132.02.181 0 .176-.21.282-.62.313l.04.24c.3.039.59.09.87.146.28.057.54.125.8.202l.1-.061-1.51-4.799c.47.641.91 1.119 1.32 1.438.41.314.8.474 1.16.474.24 0 .43-.087.58-.265.15-.18.22-.412.22-.697 0-.313-.09-.645-.27-.997a3.865 3.865 0 0 0-.75-1.029 4.91 4.91 0 0 0-1.29-.973c-.44-.23-.87-.343-1.27-.343-.27 0-.49.07-.64.205a.74.74 0 0 0-.23.568c0 .092.02.225.05.395.04.166.11.422.21.761m2.79 1.739c-.15 0-.31-.057-.48-.168a3.957 3.957 0 0 1-.63-.567 4.954 4.954 0 0 1-.76-1.019c-.19-.342-.28-.625-.28-.848 0-.182.05-.322.14-.416.09-.096.22-.144.39-.144s.34.052.51.152c.18.103.34.248.5.437.3.356.55.731.74 1.123.19.395.29.713.29.956 0 .164-.04.287-.11.369-.07.084-.17.125-.31.125m-13.17.636c.44 0 .79-.146 1.07-.441.27-.295.4-.684.4-1.17 0-.289-.05-.584-.16-.887-.1-.298-.26-.584-.45-.849a2.495 2.495 0 0 0-.79-.707c-.31-.168-.62-.25-.94-.25-.46 0-.82.148-1.1.447-.28.301-.41.697-.41 1.193 0 .293.05.59.16.885.11.293.27.576.47.842.24.31.51.539.81.701.29.156.61.236.94.236m-.06-.324c-.16 0-.3-.055-.43-.172-.13-.119-.26-.304-.39-.564a5.695 5.695 0 0 1-.43-1.108c-.1-.384-.15-.732-.15-1.05 0-.243.05-.43.15-.565.1-.133.24-.197.43-.197.18 0 .34.066.49.201.14.137.29.354.42.65.16.333.29.676.37 1.03.09.355.13.683.13.984 0 .252-.05.447-.16.586a.503.503 0 0 1-.43.205M-36.03.869c-.29-.404-.56-.695-.81-.871a1.436 1.436 0 0 0-.83-.267c-.21 0-.37.054-.49.166-.12.111-.18.263-.18.461 0 .064.01.131.02.205.02.072.04.152.06.238l.76 2.588h-.69v.34h.78l.27.939c.04.119.08.197.14.233.06.037.17.052.33.052h.08c.13 0 .22-.013.28-.045.06-.033.09-.08.09-.146 0-.016-.01-.039-.01-.072-.01-.012-.01-.02-.01-.022l-.28-.939h.91v-.34h-1l-.65-2.301c-.01-.078-.03-.144-.04-.201-.01-.057-.02-.102-.02-.135 0-.111.03-.195.08-.258.06-.06.13-.091.23-.091.08 0 .18.045.3.13.11.086.28.252.51.493l.17-.157zM-50.91 2.49l-.25.083c.15.48.33.841.55 1.089.22.25.47.373.74.373.38 0 .67-.279.85-.839.19-.559.28-1.428.28-2.608V.221c.36.478.64.93.84 1.348.19.421.29.787.29 1.095 0 .133-.03.303-.1.504-.06.203-.09.342-.09.414 0 .137.03.244.12.328.08.084.19.125.32.125.15 0 .27-.05.36-.156.1-.099.14-.244.14-.422 0-.422-.18-.982-.53-1.687-.36-.699-.85-1.463-1.48-2.287-.56-.709-1-1.219-1.35-1.526-.35-.304-.64-.457-.89-.457a.47.47 0 0 0-.33.121.41.41 0 0 0-.14.309c0 .123.04.221.12.293.07.074.17.111.3.111.08 0 .19-.023.32-.07.13-.045.22-.068.26-.068.09 0 .2.056.33.169.13.116.26.264.39.45.12.158.2.334.25.523.05.192.08.455.08.797 0 1.061-.07 1.855-.19 2.375s-.3.781-.55.781c-.13 0-.24-.058-.34-.179-.09-.12-.2-.327-.3-.622m-2.49-1.435c-.29-.42-.56-.734-.81-.947-.24-.215-.46-.321-.64-.321a.4.4 0 0 0-.31.131c-.08.082-.12.203-.12.356 0 .109.05.3.12.57.09.273.2.6.35.982h-.04c-.37-.66-.75-1.168-1.12-1.519-.36-.352-.7-.529-1.01-.529-.19 0-.35.064-.45.197-.11.129-.16.316-.16.558 0 .389.12.799.36 1.241.24.439.58.845 1 1.211.31.275.63.482.95.617.31.137.63.203.95.203.06 0 .14-.006.24-.016.01 0 .02-.004.03-.006l.24.34h.58c-.37-.883-.66-1.613-.86-2.185-.21-.571-.31-.932-.31-1.076 0-.073.01-.129.04-.168a.111.111 0 0 1 .1-.063c.09 0 .18.037.26.104.09.07.23.226.42.468l.19-.148zm-3.3-.047c0-.156.02-.273.08-.346.05-.074.13-.111.25-.111.13 0 .3.098.5.289.19.191.42.481.68.861.19.293.35.573.48.838.13.262.19.444.19.541 0 .073-.03.131-.08.17a.497.497 0 0 1-.25.059c-.17 0-.34-.051-.52-.145a1.892 1.892 0 0 1-.52-.408 3.126 3.126 0 0 1-.58-.885c-.15-.334-.23-.625-.23-.863m-7.85 2.301h-.95c-.22 0-.39-.033-.51-.098a.333.333 0 0 1-.17-.299c0-.056.06-.138.17-.254.1-.113.16-.205.16-.287a.418.418 0 0 0-.12-.3.378.378 0 0 0-.57.017.595.595 0 0 0-.11.369c0 .129.06.326.19.596.13.27.29.512.47.732.07.086.15.151.23.19.09.043.19.06.3.06.05 0 .16-.005.34-.011a9.295 9.295 0 0 1 .84-.006c.12.004.25.008.39.017l.09-.093c-.41-.571-.72-1.059-.93-1.475-.2-.412-.3-.756-.3-1.033 0-.262.07-.471.2-.623a.7.7 0 0 1 .55-.231c.1 0 .22.028.35.078.13.055.27.137.42.241-.01.07-.02.144-.02.22v.223c0 .293.02.586.09.873.07.289.17.572.3.858.14.306.29.546.46.716.17.17.33.256.49.256.14 0 .26-.053.34-.158.09-.104.13-.25.13-.43 0-.334-.1-.701-.3-1.113-.2-.41-.49-.82-.86-1.23a.72.72 0 0 1 .23-.411.648.648 0 0 1 .42-.142c.22 0 .44.08.68.24.23.164.44.389.63.676.14.199.24.4.31.599.07.2.1.383.1.551 0 .096-.01.184-.02.252a.848.848 0 0 1-.09.168c-.03.029-.06.065-.11.115-.15.145-.22.28-.22.401a.463.463 0 0 0 .47.482c.17 0 .3-.064.39-.197.1-.133.15-.317.15-.557 0-.297-.07-.633-.2-1.002-.12-.369-.3-.74-.53-1.105-.29-.457-.6-.813-.92-1.07-.32-.254-.63-.383-.93-.383-.23 0-.43.064-.58.197-.16.135-.27.328-.34.584a2.795 2.795 0 0 0-.65-.576 1.264 1.264 0 0 0-.65-.188c-.3 0-.55.098-.74.295-.19.197-.28.455-.28.774 0 .295.1.65.3 1.062.2.416.5.891.91 1.43m1.56-1.899c.26.293.46.584.6.873.14.288.21.54.21.752 0 .092-.02.161-.06.211-.04.047-.1.071-.18.071-.16 0-.31-.137-.43-.409-.12-.271-.18-.607-.18-1.005 0-.065 0-.137.01-.213 0-.078.02-.172.03-.28M-75.06.869c-.29-.404-.56-.695-.81-.871a1.428 1.428 0 0 0-.82-.267c-.22 0-.38.054-.5.166a.626.626 0 0 0-.17.461c0 .064 0 .131.01.205.02.072.04.152.07.238l.75 2.588h-.69v.34h.79l.26.939c.04.119.08.197.14.233.06.037.17.052.33.052h.08c.13 0 .22-.013.28-.045.06-.033.09-.08.09-.146 0-.016-.01-.039-.01-.072-.01-.012-.01-.02-.01-.022l-.28-.939h.91v-.34h-1l-.64-2.301c-.02-.078-.04-.144-.05-.201-.01-.057-.02-.102-.02-.135 0-.111.03-.195.08-.258.06-.06.14-.091.23-.091.08 0 .18.045.3.13.11.086.28.252.51.493l.17-.157zm-6.34 1.51c.29.58.55 1 .79 1.258.23.262.47.389.71.389a.52.52 0 0 0 .35-.11.407.407 0 0 0 .12-.31.64.64 0 0 0-.13-.405c-.08-.115-.18-.175-.29-.175-.07 0-.16.027-.27.082a.656.656 0 0 1-.25.078c-.16 0-.33-.113-.49-.344-.16-.23-.37-.686-.64-1.365l-.53-1.326c0-.01-.01-.024-.02-.039a.442.442 0 0 0-.44-.295h-.05l-.06.007a.69.69 0 0 0-.29.055c-.07.033-.1.08-.1.139 0 .015 0 .031.01.053 0 .017.01.037.02.054l.03.096c.31.713.53 1.289.68 1.725.15.437.22.738.22.904 0 .09-.02.16-.07.211-.04.049-.11.072-.19.072-.06 0-.12-.037-.19-.111a1.309 1.309 0 0 1-.23-.319l-.2.116c.19.39.39.687.62.894.21.209.44.313.66.313.14 0 .25-.041.33-.129a.56.56 0 0 0 .11-.358c0-.16-.02-.338-.06-.527a4.607 4.607 0 0 0-.19-.623l.04-.01zm-4.03-1.324c-.29-.42-.56-.734-.81-.947-.24-.215-.45-.321-.63-.321-.14 0-.24.045-.32.131-.08.082-.12.203-.12.356 0 .109.04.3.13.57.08.273.19.6.34.982h-.03c-.38-.66-.76-1.168-1.13-1.519-.36-.352-.7-.529-1.01-.529-.19 0-.34.064-.45.197-.11.129-.16.316-.16.558 0 .389.12.799.36 1.241.24.439.58.845 1 1.211.32.275.63.482.95.617.31.137.63.203.95.203.06 0 .14-.006.25-.016.01 0 .01-.004.02-.006l.24.34h.58c-.37-.883-.66-1.613-.86-2.185-.21-.571-.31-.932-.31-1.076 0-.073.01-.129.04-.168.02-.041.06-.063.11-.063.08 0 .17.037.25.104.09.07.24.226.43.468l.18-.148zm-3.3-.047c0-.156.03-.273.08-.346.05-.074.14-.111.25-.111.14 0 .3.098.49.289.2.191.43.481.69.861.2.293.36.573.48.838.13.262.19.444.19.541 0 .073-.03.131-.09.17-.05.039-.13.059-.24.059-.17 0-.34-.051-.53-.145a2.012 2.012 0 0 1-.51-.408 3.126 3.126 0 0 1-.58-.885c-.16-.334-.23-.625-.23-.863M-98.4-.183l-.07.007a.574.574 0 0 0-.26.059c-.07.037-.1.084-.1.145 0 .013 0 .027.01.045 0 .017.01.035.02.052l.03.096c.31.734.54 1.318.68 1.744.16.424.23.723.23.885 0 .09-.03.16-.07.211-.05.049-.11.072-.2.072-.06 0-.13-.037-.2-.111a1.643 1.643 0 0 1-.23-.319l-.19.116c.19.39.39.687.61.894.22.209.45.313.67.313a.43.43 0 0 0 .33-.131c.08-.09.12-.207.12-.356 0-.113-.01-.242-.04-.394a6.74 6.74 0 0 0-.12-.496c.3.461.61.808.91 1.039.3.232.59.347.88.347a.68.68 0 0 0 .5-.187c.13-.125.2-.287.2-.484 0-.065-.01-.145-.03-.245-.02-.097-.06-.224-.1-.38.35.437.7.767 1.02.986.33.219.64.328.94.328.21 0 .37-.059.5-.174.12-.113.18-.271.18-.469 0-.084-.01-.175-.04-.281-.03-.105-.06-.228-.12-.373l-.51-1.361v-.012c-.13-.348-.19-.555-.19-.619 0-.066.02-.121.06-.164a.192.192 0 0 1 .14-.065c.09 0 .19.045.3.137.11.092.25.236.41.442l.19-.139c-.3-.395-.59-.697-.86-.904-.28-.209-.53-.313-.75-.313-.15 0-.28.049-.37.148a.563.563 0 0 0-.14.395c0 .121.08.391.25.818.08.213.15.387.19.516.18.479.3.832.37 1.061.08.23.11.38.11.457 0 .109-.03.195-.09.257-.06.061-.14.09-.25.09-.29 0-.62-.244-.96-.732-.34-.49-.66-1.17-.97-2.041l-.2-.592a.787.787 0 0 0-.14-.258c-.04-.039-.12-.06-.24-.06h-.2a.787.787 0 0 0-.27.043c-.05.025-.08.062-.08.115 0 .035.01.08.02.133.01.054.03.113.05.175l.79 2.207c.04.104.07.206.09.303.02.102.03.196.03.28a.41.41 0 0 1-.1.291c-.06.076-.16.111-.27.111-.23 0-.48-.188-.75-.565-.26-.373-.53-.912-.79-1.617L-97.9.145c-.06-.147-.11-.239-.16-.276-.04-.035-.13-.052-.25-.052h-.09zm-7.28.375c.05.142.1.302.15.478.05.174.13.44.23.797l.31-.053c-.02-.101-.03-.191-.04-.269-.01-.078-.01-.143-.01-.196 0-.281.09-.496.28-.648.19-.152.46-.23.8-.23.35 0 .64.103.86.308.22.207.33.471.33.787 0 .358-.28.862-.84 1.514-.08.088-.13.154-.17.197-.36.416-.59.742-.7.975-.1.232-.15.476-.15.734 0 .531.19.973.57 1.32.38.352.86.526 1.45.526.28 0 .54-.041.8-.125.25-.08.51-.205.76-.379-.06-.17-.12-.348-.17-.529-.05-.18-.08-.369-.12-.565l-.31.072c.01.073.01.124.02.155v.095c0 .288-.08.514-.25.678-.17.164-.4.248-.69.248-.33 0-.6-.105-.82-.308a1.034 1.034 0 0 1-.32-.774c0-.205.05-.406.16-.609.1-.199.32-.486.65-.854.03-.033.08-.084.13-.152.67-.738 1-1.359 1-1.867 0-.537-.19-.969-.59-1.305-.4-.334-.92-.5-1.57-.5-.3 0-.59.039-.88.119a3.82 3.82 0 0 0-.87.36" style="fill:#fff;fill-opacity:1;fill-rule:evenodd;stroke:none" transform="matrix(1.25 0 0 -1.25 204.484 59.763)"/></svg>