<svg xmlns="http://www.w3.org/2000/svg" width="56" height="56"><path d="M42.815 988.85a27.583 27.583 45.492 0 1 27.346 27.818v.473a27.345 27.345 135 0 1-27.346 27.346 27.583 27.583 45.492 0 1-27.345-27.819v-.473a27.345 27.345 135 0 1 27.345-27.345z" style="fill:#e7e514;fill-opacity:1;fill-rule:evenodd;stroke:none;stroke-width:.477759" transform="translate(-14.828 -988.743)"/><path d="m0 0-2.9 6.727c0 .004-.01.01-.01.014v.017l-.02.045c-.17.381-.37.643-.6.785a.695.695 0 0 1-.12.065c-.06.031-.1.053-.12.068-.12.033-.2.067-.24.106a.207.207 0 0 0-.06.158c0 .074.04.133.1.18.07.046.16.072.27.072.04 0 .1-.006.19-.02l.07-.006.02-.005a8.215 8.215 0 0 1 1.45-.045c.19.007.41.019.65.033l.33.023c.15.014.26.02.33.02.11 0 .19-.02.23-.053.04-.035.06-.094.06-.176 0-.07-.01-.127-.05-.164-.02-.037-.09-.078-.2-.123A.268.268 0 0 0-.66 7.7l-.02-.008c-.26-.119-.4-.285-.4-.49 0-.067.02-.159.05-.276.04-.115.09-.25.15-.404L.88 2.338c.01-.043.04-.082.06-.111a.169.169 0 0 1 .1-.039c.03 0 .07.012.1.039.03.023.06.061.08.105l1.6 3.807c.06.143.1.285.14.426.03.139.05.26.05.361 0 .197-.05.358-.15.477-.11.119-.27.207-.49.267-.03.014-.08.026-.13.039-.02.006-.03.008-.03.012H2.2c-.26.063-.39.166-.39.309 0 .074.03.123.08.164.05.037.12.054.22.054a.49.49 0 0 0 .08-.007c.04-.002.08-.004.11-.004l.07-.014c.39-.039.75-.062 1.08-.062.14 0 .29.002.43.011.14.012.29.028.46.051.02 0 .05.004.08.008l.06.006c.1-.004.16-.022.19-.051.03-.029.05-.08.05-.156 0-.119-.09-.237-.27-.342l-.01-.006c0-.004-.01-.012-.03-.025a1.503 1.503 0 0 1-.16-.104c-.15-.133-.34-.445-.56-.935-.02-.053-.04-.09-.05-.118-.01-.015-.01-.031-.02-.054-.01-.016-.02-.045-.04-.088L1.06.704a.582.582 0 0 1-.03-.075.521.521 0 0 1-.06-.125C.8.116.67-.13.59-.232.51-.334.42-.384.33-.384c-.07 0-.12.025-.17.076C.11-.257.06-.154 0 0m9.61 8.282v-.66a1.58 1.58 0 0 1-.61.113c-.34 0-.57-.07-.7-.215-.12-.145-.18-.461-.18-.949V5.387c0-.297.07-.498.22-.615.14-.119.4-.176.75-.176.19 0 .36.016.52.045v-.644c-.22.039-.45.06-.71.06-.37 0-.59-.033-.67-.098-.07-.064-.11-.244-.11-.539V1.387c0-.424.07-.699.23-.82.15-.123.45-.186.88-.186.13 0 .26.008.38.024v-.584c-.17-.006-.34-.012-.51-.012-.29 0-.66.01-1.11.023-.11.006-.19.014-.23.014-.03 0-.07 0-.11.004-.21.014-.34.02-.41.02-.22 0-.44-.006-.64-.024a9.838 9.838 0 0 1-.64-.06c-.03-.004-.06-.01-.11-.012-.1-.01-.17-.014-.21-.014-.07 0-.13.028-.18.078a.235.235 0 0 0-.07.174c0 .067.02.125.06.17.04.047.13.104.26.166l.02.012c.19.094.31.183.38.275.08.102.13.237.16.395.04.16.06.449.06.869v4.408c0 .363-.03.633-.08.809A.89.89 0 0 1 6 7.53c-.12.092-.29.16-.52.209l-.02.006-.18.037c-.04.008-.07.039-.11.082-.02.047-.04.092-.04.144a.25.25 0 0 0 .24.24l.08-.001a11.36 11.36 0 0 1 .85-.067 13.448 13.448 0 0 1 1.29-.008c.17.012.37.03.59.051.06 0 .16.008.28.018.43.029.75.043.97.043.06 0 .12 0 .18-.002m-21.76-6.383v4.408c0 .363-.03.633-.08.809a.828.828 0 0 1-.25.414.821.821 0 0 1-.2.121 1.89 1.89 0 0 1-.34.094.18.18 0 0 1-.06.011.67.67 0 0 1-.11.026c-.04.008-.07.039-.11.082a.267.267 0 0 0-.05.144c0 .078.03.141.09.186a.39.39 0 0 0 .24.066h.09c.02-.004.05-.006.08-.012.01-.003.02-.007.03-.007.47-.045.92-.069 1.36-.069.46 0 .93.026 1.42.076.05.006.08.008.1.012.03.004.05.006.08.006.02.004.04.006.07.006.09 0 .17-.022.22-.068.06-.043.08-.1.08-.172 0-.106-.09-.196-.27-.276-.02-.006-.03-.011-.03-.011a1 1 0 0 1-.19-.063.483.483 0 0 1-.12-.082.65.65 0 0 1-.19-.309c-.04-.119-.06-.347-.06-.697V4.545c0-.06.01-.111.03-.152.03-.041.05-.061.08-.061.01 0 .04.012.08.038.04.019.08.052.12.093l2.15 1.975c.24.219.42.404.52.551.1.146.15.283.15.406 0 .18-.12.295-.37.344l-.01.006h-.06l-.02.005c-.19.049-.28.137-.28.258 0 .082.02.141.06.172.04.035.11.053.22.057.05 0 .09 0 .13-.002.04-.002.08-.006.12-.012.02-.002.06-.006.1-.006.39-.021.72-.033 1.01-.033.33 0 .68.012 1.04.033l.03.006c.02.006.05.01.07.012.02.002.04.002.07.002.12 0 .22-.016.26-.047.04-.031.07-.086.07-.17 0-.082-.02-.141-.05-.176-.02-.035-.1-.068-.23-.105l-.06-.024c-.1-.041-.18-.076-.23-.103-.4-.18-.91-.545-1.52-1.092l-.04-.031-.03-.039-1.13-1.006a.97.97 0 0 1-.16-.151c-.02-.043-.04-.078-.04-.113 0-.023.01-.055.03-.094.02-.041.05-.099.1-.181l2.65-3.864c.12-.166.23-.302.33-.398.11-.096.22-.17.34-.227a.543.543 0 0 1 .15-.05l.01-.006c.09-.018.14-.045.16-.076a.42.42 0 0 0 .03-.19c0-.107-.02-.181-.07-.219-.05-.037-.15-.054-.29-.054l-.16.002-.1.008c-.11.007-.21.015-.3.019a8.757 8.757 0 0 1-1.05-.029h-.02c-.03-.004-.05-.006-.07-.01-.02-.002-.04-.002-.06-.002-.12 0-.24.061-.37.18-.13.123-.29.336-.49.646l-2.02 3.072a.57.57 0 0 1-.11.131.172.172 0 0 1-.09.037.23.23 0 0 1-.08-.013.214.214 0 0 1-.06-.045l-.37-.344a.698.698 0 0 1-.14-.174.618.618 0 0 1-.03-.224V1.567c0-.319.03-.547.09-.686.07-.136.18-.263.33-.371.09-.056.23-.113.41-.156l.03-.006c.16-.043.27-.084.32-.127a.236.236 0 0 0 .08-.183.285.285 0 0 0-.08-.198c-.05-.052-.1-.08-.17-.08-.08 0-.15.002-.21.008a1.41 1.41 0 0 0-.17.018c-.25.035-.49.06-.71.078-.23.019-.46.025-.69.025a8.478 8.478 0 0 1-1.29-.094c-.09-.009-.17-.019-.24-.025-.07-.008-.13-.01-.19-.01-.07 0-.12.028-.17.078a.246.246 0 0 0-.08.174c0 .111.11.219.31.328l.01.008c.1.037.18.08.24.125.06.049.12.1.16.162a.99.99 0 0 1 .17.385c.03.154.05.449.05.879M9.61-.179v.584c.42.052.75.197 1 .437.32.309.48.754.48 1.334 0 .617-.18 1.088-.55 1.405-.24.201-.55.341-.93.416v.644c.24.051.43.139.57.268.23.207.35.535.35.978 0 .565-.14 1.014-.42 1.348-.14.176-.31.303-.5.387v.66c.84-.022 1.51-.196 1.98-.528.52-.351.77-.847.77-1.482 0-.477-.14-.867-.42-1.166-.29-.299-.72-.512-1.3-.643.81-.041 1.4-.222 1.78-.547.39-.328.58-.812.58-1.453 0-.902-.32-1.572-.96-2.006-.55-.376-1.36-.587-2.43-.636" style="fill:#000;fill-opacity:1;fill-rule:evenodd;stroke:none" transform="matrix(1.25 0 0 -1.25 28.98 32.86)"/><path d="M0 0c6.95 5.406 17.03 4.149 22.44-2.801 5.4-6.951 4.15-17.029-2.81-22.435-.2-.158-.41-.309-.61-.453 6.42 5.504 7.45 15.197 2.2 21.941C15.97 2.998 6.32 4.381-.59-.49c.19.166.39.33.59.49" style="fill:#00854a;fill-opacity:1;fill-rule:evenodd;stroke:none" transform="matrix(1.25 0 0 -1.25 19.155 11.175)"/><path d="M0 0c7.51 5.842 17.95 5.387 24.82-.58-6.29 4.863-15.38 5.043-21.98-.1-7.82-6.078-9.28-17.344-3.26-25.082 6.02-7.738 17.3-9.092 25.11-3.015a17.997 17.997 0 0 1 6.18 8.966 19.651 19.651 0 0 0-7.02-10.841c-8.53-6.629-20.83-5.151-27.4 3.291C-10.12-18.92-8.52-6.629 0 0" style="fill:#00854a;fill-opacity:1;fill-rule:evenodd;stroke:none" transform="matrix(1.25 0 0 -1.25 13.442 8.768)"/></svg>