<svg xmlns="http://www.w3.org/2000/svg" width="300" height="110" version="1.0" viewBox="0 0 1214 444"><path d="M95.09 16.99c6.16-6.98 16.2-7.75 24.91-8.01 6.74.48 13.56.82 20.12 2.53 2.12.92 5.26 1.74 5.36 4.55-2.16 4.46-7.44 5.6-11.34 8.02-14.39 8.52-29.13 16.79-41.83 27.77.19-4.97-.55-9.91-.29-14.88.14-6.67-1.81-14.48 3.07-19.98zm62.88 7.11c12.2-6.82 27.15-2.5 38.08 4.78 2.91 1.82 5.46 5.92 2.86 9.05-3.6 4.19-8.94 6.51-14.17 7.93-33.38 9.53-64.83 25.6-92.28 46.82-.05-5.35-.07-10.7.01-16.05 18.87-20.88 42-37.29 65.5-52.53zm54.85 18.46c6.84-2.5 14.48.38 19.91 4.73 3.93 3.09 8.32 5.58 12.02 8.97 2.64 2.46 4.73 6.65 2.42 10.02-3.7 5.33-10.47 6.82-16.3 8.67-48.84 16.07-97.12 36.17-138.74 66.85-.35-5.27-.36-10.56-.98-15.81 22.57-25.78 51.25-45.28 80.85-62.1 13.35-7.59 27.12-14.41 40.82-21.33zm41.36 33.58c5.99-2.44 13.74-2.65 18.79 1.9 4.15 4.2 8.55 8.16 12.75 12.3 2.67 3.08 5.64 7.35 3.85 11.57-2.16 5.12-7.79 7.44-12.6 9.38-41.09 12.58-82.09 26.1-120.79 44.96-22.59 10.98-44.33 23.85-64.14 39.31.03-4.78-.22-9.55-.3-14.33 20.78-25.77 48.07-45.37 76.28-62.26 27.61-16.39 56.7-30.13 86.16-42.83zm31.47 42.52c4.63-2.1 9.61-4.66 14.85-3.42 6.42 1.46 10.82 6.98 13.69 12.57 3.52 6.79 9.28 13.12 9.02 21.23 0 6.04-4.7 10.81-9.67 13.59-10.33 5.7-22.21 7.33-33.7 9.09-67.15 11.54-132.04 37.82-187.17 78.03.05-5.49-.63-10.96-.65-16.44 21.89-23.39 47.99-42.45 75.27-59.05 37.4-22.57 77.44-40.46 118.36-55.6zm-50.84 76.33c.65 5.4.3 10.86.78 16.28-23.49 25.21-51.88 45.35-81.45 62.81-35.37 20.65-72.91 37.4-111.31 51.57-4.16 1.68-8.23 4.23-12.9 3.95-7.46.19-13.12-6.08-16.22-12.25-3.74-7.11-9.83-13.84-9.29-22.38.31-6.08 5.27-10.57 10.28-13.28 9.97-5.25 21.28-6.94 32.28-8.64 67.38-11.41 132.53-37.72 187.83-78.06zm54.14 12.9c9.07-6.71 20.93-8.41 31.93-7.37 4.97.18 9.88 1.23 14.62 2.73 6.45 1.98 13.19 3.57 18.88 7.37-.06 9.5-.06 19 0 28.5-5.45-4.37-11.73-7.62-18.2-10.2-6.14-2.28-13.02-4.18-19.47-2.1-3.36 1.02-6.34 4.37-5.24 8.06 1.49 3.8 5.27 5.95 8.68 7.81 9.53 4.46 19.12 9.17 27.34 15.84 6.08 4.85 8.92 12.81 8.71 20.44.31 8.43-3.18 17.07-9.79 22.44-8.2 6.75-18.99 9.75-29.47 9.94-14.16.52-28.37-2.8-41.14-8.85.08-9.62.05-19.24.02-28.86 7.43 4.86 15.56 8.71 24.11 11.14 5.87 1.77 12.49 1.14 17.75-2.08 1.85-1.07 2.3-3.28 2.88-5.15-1.64-4.6-6.55-6.54-10.6-8.51-8.78-3.59-17.42-8.03-24.32-14.65-12.91-12.29-11.17-36.14 3.31-46.5zm122.23-1.76c13.02-1.53 26.72-.01 38.37 6.31 13.37 7.27 23.96 20.32 26.41 35.56 1.43 11.01.98 22.74-4.22 32.78-7.59 15.29-23.1 25.96-39.82 28.73-13.88 2.22-28.76.67-41.12-6.37-11.58-6.6-21.19-17.33-24.88-30.29-3.77-13.82-2.36-29.37 5.33-41.64 8.57-13.91 23.81-23.07 39.93-25.08m2.16 30.39c-15.26 5.2-18.43 27.63-7.15 38.26 7.44 7.6 21.09 7.57 28.46-.1 4.74-4.53 6.87-11.25 6.41-17.71.32-7.99-4.31-15.86-11.4-19.53-5.05-2.42-11.03-2.78-16.32-.92zm195.31-29.49c35.65.01 71.29-.01 106.94.01-.02 8.86-.04 17.71.02 26.57-11.89-.07-23.77-.02-35.65-.03.01 25.19.01 50.39 0 75.58h-35.92c-.01-25.19-.01-50.39 0-75.58-11.81-.01-23.62.01-35.43-.01.09-8.85.02-17.69.04-26.54zm120 0c11.56 0 23.13 0 34.7.01-.01 12.53-.01 25.07 0 37.61 13.83.01 27.65 0 41.48 0 .01-12.54.01-25.07.01-37.61 11.58-.01 23.17-.01 34.75 0-.02 34.31-.03 68.61 0 102.92-11.58.01-23.17.01-34.75 0v-37.98c-13.83-.03-27.66 0-41.49-.02 0 12.67-.01 25.34 0 38.01-11.57 0-23.14 0-34.7-.01.01-34.31.01-68.62 0-102.93zm-241 1c11.77-.01 23.55.02 35.33-.01-.03 17-.01 34-.01 50.99-.04 5.09-.3 10.41 1.86 15.16 1.9 4.54 6.18 7.93 11.04 8.72 5.74 1.11 12.3.79 17.16-2.78 4.92-3.74 6.47-10.26 6.63-16.14-.02-18.65 0-37.29-.01-55.94 11.77-.01 23.55.02 35.33-.01-.03 15.01-.01 30.01-.01 45.01.11 10.79.42 21.99-3.88 32.14-4.01 10.32-12.98 18.18-23.36 21.74-13.54 4.63-28.26 4.92-42.3 2.78-10.87-1.82-21.87-6.51-28.74-15.45-7.1-9.06-9.35-20.97-9.05-32.24.02-17.99.01-35.98.01-53.97zm-316.03 80.31c22.41-10.96 44.08-23.66 63.71-39.12-.07 4.79.65 9.66.42 14.38-16.24 20.23-36.78 36.53-58.25 50.88-31.78 20.95-66.17 37.56-100.99 52.76-6.17 3.15-14.04 4.44-20.26.71-3.62-3.08-6.87-6.58-10.39-9.78-2.83-2.56-5.66-5.29-7.41-8.73-1.64-3.33-.9-7.57 1.84-10.09 4.71-4.46 11.11-6.35 17.2-8.09 38.85-11.97 77.51-25.11 114.13-42.92zm-71.77 80.39c47.68-15.99 94.86-35.73 135.51-65.82.11 5.29 1.19 10.58.85 15.86-13.94 16.3-30.77 29.92-48.39 42.04-21.66 14.8-44.77 27.32-68.3 38.83-3.17 1.94-6.68 3.72-10.51 3.53-4.97-.49-9.87-2.28-13.75-5.47-4.48-3.62-9.75-6.33-13.6-10.68-2.71-2.75-2.86-7.66.09-10.29 4.85-4.82 11.92-5.77 18.1-8zm175.8-46.7c11.17 0 22.34 0 33.51.01v98.92c-11.17.01-22.34 0-33.51.01.01-32.98.01-65.96 0-98.94zm51.37-.01c10.4.03 20.8.01 31.2.01 14.76 16.47 29.46 32.99 44.36 49.32.17-16.44.03-32.88.07-49.32 11.31.01 22.63-.01 33.94.01-.02 32.97-.02 65.95 0 98.92-10.42-.13-20.89.29-31.28-.2-14.76-16.23-29.16-32.81-44.16-48.82.03 16.34 0 32.68.01 49.02-11.38.02-22.76-.01-34.14.02.02-32.99.02-65.97 0-98.96zm125.39.02c18.82.26 37.68-.62 56.46.57 13.45.91 26.45 6.98 35.6 16.91 8.35 8.53 12.39 20.65 11.89 32.47.34 11.75-4.03 23.62-12.37 31.98-9.03 9.74-21.93 15.47-35.1 16.41-18.8 1.2-37.66.32-56.48.58.02-32.97.02-65.95 0-98.92m33.76 25.31c-.01 16.1-.01 32.2 0 48.3 4.63-.02 9.27.03 13.91.01 7.08-.13 13.98-3.81 17.89-9.74 4-5.72 4.46-13.05 3.58-19.77-1.32-7.75-6.83-14.76-14.3-17.41-6.79-2.35-14.06-1.07-21.08-1.39zm80.48-25.32c11.11 0 22.22.02 33.33-.01-.02 32.99-.02 65.97 0 98.96-11.11-.03-22.22-.01-33.33-.01.01-32.98.01-65.96 0-98.94zm79.35.01c13.22.02 26.43-.08 39.65.05 12.3 33 24.84 65.9 37.18 98.88-10.26-.07-20.54.11-30.8-.08l-.58-.34c-2.06-5.49-3.96-11.03-5.91-16.55-13.6-.08-27.2 0-40.8-.05-2.01 5.58-4.11 11.12-6.23 16.65-1.39.72-3.08.24-4.57.39-9.05-.03-18.1-.06-27.15.02 13.11-32.97 26.2-65.96 39.21-98.97m19.45 26.71c-4.3 10.56-8.04 21.35-12.43 31.86 8.1.51 16.23.1 24.35.22-3.92-10.71-7.89-21.41-11.92-32.08zm63.95-26.7c10.43.01 20.87-.1 31.3.06 14.69 16.62 29.71 32.96 44.38 49.6-.12-16.56 0-33.12-.06-49.69 11.38.03 22.76 0 34.14.02v98.92c-10.38.02-20.76-.03-31.14.03-14.99-16.32-29.61-32.97-44.54-49.34-.31 16.43-.05 32.88-.13 49.32-11.31-.01-22.63.01-33.94-.01.02-32.97.03-65.94-.01-98.91zm159.44-.01c11.04-.02 22.08 0 33.13-.02 9.73.48 20.17.8 28.57 6.4 10.73 6.74 12.83 23.31 4.78 32.88-1.99 2.35-4.61 4.05-7.33 5.43 7.05 2.59 14.07 7.02 16.99 14.28 3.4 8.66 2.95 19.06-1.86 27.12-4.91 7.86-14.42 11.06-23.17 12.13-17 1.39-34.08.42-51.11.7v-98.92m22.12 17.54c.01 7.15 0 14.3.01 21.45 6.02-.03 12.04.05 18.07-.02 3.81.04 8.14-1.51 9.8-5.21 2.39-5.5.49-13.7-5.94-15.33-7.19-1.66-14.64-.6-21.94-.89m.01 39.39c0 7.89-.02 15.79.01 23.68 7.3-.04 14.62.08 21.93-.04 3.93-.41 8.5-1.25 10.89-4.76 2.23-3.89 2.21-8.94.27-12.94-2.4-4.22-7.53-5.75-12.1-5.89-7-.14-14-.01-21-.05zm226.68-56.93c6.9-.01 13.8-.01 20.7-.01-.01 32.38 0 64.76 0 97.14-6.9-.02-13.8-.02-20.7 0 0-32.38.01-64.76 0-97.13zm-156 37.2c11.29-5.92 24.43-8.63 37.13-7 5.92.85 12.39 3.14 15.4 8.73 4.36 7.25 2.91 16 3.17 24.04.18 6.44-.38 12.92.27 19.33 2.01 2.91 6.04.75 8.69-.04-.01 3.49.26 6.96.28 10.45-6.44 3.06-13.38 6.57-20.73 5.41-3.88-.66-6.51-4.03-7.69-7.57-6 4.77-13.6 7.17-21.21 7.42-5.24-.16-10.85-1.39-14.63-5.29-5.27-5.63-6-15.31-1-21.35 4.05-5.03 10.11-7.84 15.99-10.17 6.51-2.54 13.31-4.23 20.04-6.09.23-3.27-.6-6.92-3.29-9.03-3.87-3.07-9.19-3.4-13.88-2.55-6.88 1.37-13.25 4.77-18.6 9.25.12-5.18.04-10.36.06-15.54m19.49 35.92c-2.97 3.6-2.84 10.69 2.18 12.34 4.82 1.2 9.65-.99 13.73-3.39-.09-5.69.1-11.39-.13-17.08-5.51 2.07-11.87 3.37-15.78 8.13zm-859.1 3.87c33.79-9.48 65.55-25.78 93.34-47.16-.09 5.32.03 10.65-.09 15.97-16.05 18.06-35.62 32.55-55.52 46.06-5.41 3.34-10.35 7.87-16.74 9.21-7.74 2.05-15.98.43-23.14-2.84-4.17-1.87-8.75-3.81-11.45-7.68-1.79-2.45-.46-5.71 1.69-7.42 3.43-2.92 7.6-4.93 11.91-6.14zm934.55-36.92c5.74-5.5 13.33-9.39 21.41-9.45 6.46-.35 13.54 1.36 17.87 6.5 4.95 5.68 5.99 13.6 5.72 20.87-.02 12.97-.03 25.95 0 38.93-6.86.02-13.72-.01-20.57.02-.04-13.68.13-27.36-.08-41.03-.04-4.43-1.52-10.13-6.4-11.39-7.52-1.83-14.59 4.13-17.89 10.37-.17 14-.04 28.02-.06 42.03-6.65.01-13.3 0-19.94 0 .01-21.64.01-43.28 0-64.93 6.64.01 13.29-.01 19.94.01-.03 2.69-.02 5.38 0 8.07zm106.49-8.08c8.33.02 16.66-.03 24.99.03-8.28 10.33-16.8 20.48-24.92 30.93 1.63 3.39 4.49 6.14 6.59 9.3 6.21 8.37 12.41 16.74 18.64 25.09-7.99-.08-15.97 0-23.95-.04-8.43-11.35-17-22.6-25.58-33.83 8.18-10.41 16.15-20.99 24.23-31.48zm-970.73 55.25c7.95-5.1 15.98-10.21 23.03-16.53-.15 8.99.22 17.98.37 26.96-.35 6.48-5.67 11.48-11.5 13.52-8.41 2.95-17.52 2.53-26.26 1.73-4.85-.77-10.12-.79-14.33-3.63-1.46-.73-1.21-2.44-1.26-3.78 1.41-1.34 2.81-2.74 4.58-3.6 8.75-4.37 17.04-9.57 25.37-14.67z" style="opacity:1;fill:#a00"/></svg>