<svg xmlns="http://www.w3.org/2000/svg" width="78.789" height="105.412" version="1.0" viewBox="0 0 318.832 425.48"><path d="M95.09 16.99c6.16-6.98 16.2-7.75 24.91-8.01 6.74.48 13.56.82 20.12 2.53 2.12.92 5.26 1.74 5.36 4.55-2.16 4.46-7.44 5.6-11.34 8.02-14.39 8.52-29.13 16.79-41.83 27.77.19-4.97-.55-9.91-.29-14.88.14-6.67-1.81-14.48 3.07-19.98Zm62.88 7.11c12.2-6.82 27.15-2.5 38.08 4.78 2.91 1.82 5.46 5.92 2.86 9.05-3.6 4.19-8.94 6.51-14.17 7.93-33.38 9.53-64.83 25.6-92.28 46.82-.05-5.35-.07-10.7.01-16.05 18.87-20.88 42-37.29 65.5-52.53zm54.85 18.46c6.84-2.5 14.48.38 19.91 4.73 3.93 3.09 8.32 5.58 12.02 8.97 2.64 2.46 4.73 6.65 2.42 10.02-3.7 5.33-10.47 6.82-16.3 8.67-48.84 16.07-97.12 36.17-138.74 66.85-.35-5.27-.36-10.56-.98-15.81 22.57-25.78 51.25-45.28 80.85-62.1 13.35-7.59 27.12-14.41 40.82-21.33zm41.36 33.58c5.99-2.44 13.74-2.65 18.79 1.9 4.15 4.2 8.55 8.16 12.75 12.3 2.67 3.08 5.64 7.35 3.85 11.57-2.16 5.12-7.79 7.44-12.6 9.38-41.09 12.58-82.09 26.1-120.79 44.96-22.59 10.98-44.33 23.85-64.14 39.31.03-4.78-.22-9.55-.3-14.33 20.78-25.77 48.07-45.37 76.28-62.26 27.61-16.39 56.7-30.13 86.16-42.83zm31.47 42.52c4.63-2.1 9.61-4.66 14.85-3.42 6.42 1.46 10.82 6.98 13.69 12.57 3.52 6.79 9.28 13.12 9.02 21.23 0 6.04-4.7 10.81-9.67 13.59-10.33 5.7-22.21 7.33-33.7 9.09-67.15 11.54-132.04 37.82-187.17 78.03.05-5.49-.63-10.96-.65-16.44 21.89-23.39 47.99-42.45 75.27-59.05 37.4-22.57 77.44-40.46 118.36-55.6zm-50.84 76.33c.65 5.4.3 10.86.78 16.28-23.49 25.21-51.88 45.35-81.45 62.81-35.37 20.65-72.91 37.4-111.31 51.57-4.16 1.68-8.23 4.23-12.9 3.95-7.46.19-13.12-6.08-16.22-12.25-3.74-7.11-9.83-13.84-9.29-22.38.31-6.08 5.27-10.57 10.28-13.28 9.97-5.25 21.28-6.94 32.28-8.64 67.38-11.41 132.53-37.72 187.83-78.06zm-63.19 93.35c22.41-10.96 44.08-23.66 63.71-39.12-.07 4.79.65 9.66.42 14.38-16.24 20.23-36.78 36.53-58.25 50.88-31.78 20.95-66.17 37.56-100.99 52.76-6.17 3.15-14.04 4.44-20.26.71-3.62-3.08-6.87-6.58-10.39-9.78-2.83-2.56-5.66-5.29-7.41-8.73-1.64-3.33-.9-7.57 1.84-10.09 4.71-4.46 11.11-6.35 17.2-8.09 38.85-11.97 77.51-25.11 114.13-42.92Zm-71.77 80.39c47.68-15.99 94.86-35.73 135.51-65.82.11 5.29 1.19 10.58.85 15.86-13.94 16.3-30.77 29.92-48.39 42.04-21.66 14.8-44.77 27.32-68.3 38.83-3.17 1.94-6.68 3.72-10.51 3.53-4.97-.49-9.87-2.28-13.75-5.47-4.48-3.62-9.75-6.33-13.6-10.68-2.71-2.75-2.86-7.66.09-10.29 4.85-4.82 11.92-5.77 18.1-8zm42.19 30.3c33.79-9.48 65.55-25.78 93.34-47.16-.09 5.32.03 10.65-.09 15.97-16.05 18.06-35.62 32.55-55.52 46.06-5.41 3.34-10.35 7.87-16.74 9.21-7.74 2.05-15.98.43-23.14-2.84-4.17-1.87-8.75-3.81-11.45-7.68-1.79-2.45-.46-5.71 1.69-7.42 3.43-2.92 7.6-4.93 11.91-6.14zm70.31 10.25c7.95-5.1 15.98-10.21 23.03-16.53-.15 8.99.22 17.98.37 26.96-.35 6.48-5.67 11.48-11.5 13.52-8.41 2.95-17.52 2.53-26.26 1.73-4.85-.77-10.12-.79-14.33-3.63-1.46-.73-1.21-2.44-1.26-3.78 1.41-1.34 2.81-2.74 4.58-3.6 8.75-4.37 17.04-9.57 25.37-14.67z" style="opacity:1;fill:#a00" transform="translate(-4.386 -9.547)"/></svg>