<svg xmlns="http://www.w3.org/2000/svg" xml:space="preserve" width="323.57" height="73"><path d="M.791-58.004h257.855V-.527H.791z" style="fill:green;fill-opacity:1" transform="matrix(1.25 0 0 1.25 0 73)"/><g style="fill:#fee800;fill-opacity:1"><path d="m0 0 .657 7.879c.019.23.026.42.026.571 0 .239-.056.415-.172.528-.117.114-.324.176-.618.19L0 9.421h3.904l-.08-.253h-.192c-.255 0-.464-.079-.622-.241-.159-.16-.256-.459-.29-.899l-.376-4.674 2.912 3.798.073.876c.017.181.027.327.027.435 0 .221-.064.392-.187.508-.127.118-.334.183-.626.197l.074.253h3.93l-.078-.253c-.347 0-.603-.079-.77-.241-.165-.16-.267-.459-.306-.899l-.37-4.674 2.805 3.682c.479.63.778 1.056.89 1.284a.856.856 0 0 1 .122.394c0 .104-.054.197-.161.283-.107.083-.311.141-.615.171l.071.253h2.578l-.065-.253a1.352 1.352 0 0 1-.576-.229c-.214-.16-.491-.464-.834-.911L5.107 0h-.42l.491 6.215L.428 0H0zm15.862 9.629-1.853-6.117c.642.902 1.106 1.509 1.396 1.827.432.456.804.765 1.116.927.311.16.607.241.892.241a.85.85 0 0 0 .624-.262c.173-.174.26-.406.26-.696 0-.245-.058-.551-.172-.917l-.904-2.893c-.081-.253-.122-.423-.122-.51 0-.04.017-.077.051-.112a.156.156 0 0 1 .114-.051c.056 0 .115.023.171.067.153.114.313.295.483.545.044.063.112.158.207.285l.279-.15c-.408-.642-.797-1.083-1.161-1.324C16.878.25 16.531.13 16.202.13c-.294 0-.525.072-.691.218a.686.686 0 0 0-.247.542c0 .199.056.482.17.849l.882 2.893c.059.199.085.345.085.436a.176.176 0 0 1-.06.131.193.193 0 0 1-.139.058c-.17 0-.406-.136-.705-.408-.617-.556-1.235-1.43-1.85-2.622L13.013.211h-1.767l2.336 7.675c.094.325.143.559.143.698a.308.308 0 0 1-.143.267c-.124.086-.314.12-.569.106l.048.274 2.373.398h.428zm5.598-6.871a5.105 5.105 0 0 1-.066-.728c0-.338.105-.612.312-.813.206-.204.481-.306.828-.306.334 0 .666.077 1.002.229.333.156.722.425 1.165.809l.211-.183c-.545-.63-1.077-1.078-1.595-1.344a3.684 3.684 0 0 0-1.716-.401c-.792 0-1.342.181-1.646.542a1.9 1.9 0 0 0-.454 1.257c0 .744.226 1.485.681 2.227a5.085 5.085 0 0 0 1.849 1.788c.783.447 1.566.672 2.356.672.399 0 .7-.09.904-.271a.878.878 0 0 0 .307-.687c0-.331-.1-.653-.299-.964a3.329 3.329 0 0 0-1.041-1.029 5.054 5.054 0 0 0-1.402-.594c-.348-.092-.813-.159-1.396-.204zm.063.353c.418.058.742.139.973.241.228.102.454.264.676.489.221.225.413.508.573.849.161.342.244.662.244.961 0 .126-.04.226-.112.3a.39.39 0 0 1-.283.106c-.225 0-.483-.15-.768-.454-.522-.552-.958-1.384-1.303-2.492zm7.584 3.396-1.074-3.818c.882 1.861 1.546 3.007 1.993 3.438.261.252.538.38.827.38.199 0 .36-.069.484-.209.124-.136.184-.333.184-.586 0-.438-.111-.809-.335-1.106-.141-.192-.302-.288-.477-.288a.464.464 0 0 0-.427.253c-.095.167-.161.267-.2.295a.187.187 0 0 1-.122.044.344.344 0 0 1-.147-.039c-.105-.056-.241-.188-.411-.399-.168-.209-.375-.561-.623-1.055-.245-.494-.44-.911-.576-1.254-.138-.341-.33-.992-.576-1.952h-1.723l1.174 4.502c.085.336.128.558.128.667a.536.536 0 0 1-.067.285.405.405 0 0 1-.185.149c-.08.032-.241.049-.489.049l.063.194 2.152.45h.427zm4.503-3.749a5.105 5.105 0 0 1-.066-.728c0-.338.104-.612.311-.813.207-.204.481-.306.829-.306.333 0 .666.077 1.002.229.333.156.722.425 1.164.809l.212-.183c-.545-.63-1.078-1.078-1.595-1.344a3.687 3.687 0 0 0-1.716-.401c-.793 0-1.342.181-1.646.542a1.901 1.901 0 0 0-.455 1.257c0 .744.226 1.485.681 2.227a5.096 5.096 0 0 0 1.85 1.788c.782.447 1.565.672 2.355.672.399 0 .701-.09.905-.271a.88.88 0 0 0 .306-.687c0-.331-.1-.653-.299-.964a3.315 3.315 0 0 0-1.04-1.029 5.048 5.048 0 0 0-1.403-.594c-.348-.092-.812-.159-1.395-.204zm.063.353c.418.058.741.139.972.241.229.102.455.264.676.489.221.225.413.508.574.849.16.342.243.662.243.961a.41.41 0 0 1-.112.3.389.389 0 0 1-.282.106c-.226 0-.484-.15-.768-.454-.523-.552-.958-1.384-1.303-2.492zm13.294 3.396-.311-2.098h-.265c-.036.542-.211.969-.522 1.282-.312.313-.645.468-1.002.468a.792.792 0 0 1-.54-.183.558.558 0 0 1-.214-.44c0-.146.029-.281.093-.408.061-.128.199-.299.413-.517.749-.77 1.206-1.299 1.366-1.588a1.87 1.87 0 0 0 .243-.93c0-.359-.095-.698-.284-1.015a2.043 2.043 0 0 0-.853-.77 2.557 2.557 0 0 0-1.177-.287c-.277 0-.615.051-1.018.155-.268.074-.467.109-.599.109a.615.615 0 0 1-.279-.051.72.72 0 0 1-.221-.213h-.263l.35 2.262h.226c.168-.549.324-.938.467-1.173a1.63 1.63 0 0 1 .581-.556 1.4 1.4 0 0 1 .698-.206.92.92 0 0 1 .649.234c.17.155.255.343.255.558 0 .214-.056.42-.167.619-.113.199-.368.51-.771.93-.557.575-.922 1.02-1.099 1.333a1.604 1.604 0 0 0-.185.774c0 .487.187.895.559 1.222.372.327.898.489 1.57.489.295 0 .657-.051 1.082-.151.215-.048.387-.074.513-.074.188 0 .336.074.45.225h.255zm2.531-3.749a5.105 5.105 0 0 1-.066-.728c0-.338.105-.612.312-.813.206-.204.481-.306.828-.306.334 0 .666.077 1.002.229.333.156.722.425 1.164.809l.212-.183c-.544-.63-1.077-1.078-1.595-1.344a3.687 3.687 0 0 0-1.716-.401c-.792 0-1.342.181-1.646.542a1.901 1.901 0 0 0-.455 1.257c0 .744.227 1.485.681 2.227a5.096 5.096 0 0 0 1.85 1.788c.783.447 1.565.672 2.355.672.399 0 .701-.09.905-.271a.88.88 0 0 0 .306-.687 1.76 1.76 0 0 0-.299-.964 3.305 3.305 0 0 0-1.04-1.029 5.048 5.048 0 0 0-1.403-.594c-.347-.092-.812-.159-1.395-.204zm.063.353c.418.058.742.139.973.241.228.102.454.264.675.489.221.225.414.508.574.849.161.342.243.662.243.961a.413.413 0 0 1-.111.3.391.391 0 0 1-.283.106c-.226 0-.483-.15-.768-.454-.522-.552-.958-1.384-1.303-2.492zm7.584 3.396-1.074-3.818c.882 1.861 1.546 3.007 1.993 3.438.261.252.538.38.827.38.199 0 .36-.069.484-.209.123-.136.184-.333.184-.586 0-.438-.112-.809-.335-1.106-.141-.192-.302-.288-.477-.288a.465.465 0 0 0-.428.253c-.094.167-.16.267-.199.295a.186.186 0 0 1-.121.044.345.345 0 0 1-.149-.039c-.104-.056-.241-.188-.41-.399-.168-.209-.375-.561-.623-1.055-.246-.494-.44-.911-.576-1.254-.139-.341-.331-.992-.576-1.952h-1.723l1.174 4.502c.085.336.129.558.129.667a.526.526 0 0 1-.069.285.397.397 0 0 1-.184.149c-.081.032-.241.049-.489.049l.063.194 2.152.45h.427zm4.23-6.486h-.255c.015.371.022.651.022.841 0 .517-.044 1.263-.127 2.24-.082.973-.177 1.625-.279 1.952-.083.238-.19.414-.321.521a.533.533 0 0 1-.35.109c-.08 0-.178-.01-.292-.026v.244l2.373.605c.474-1.236.705-2.819.69-4.748.698.633 1.179 1.148 1.442 1.542.262.394.396.723.396.985 0 .209-.083.42-.246.635-.165.216-.267.366-.306.459a.714.714 0 0 0-.061.297c0 .236.08.433.241.591.163.16.367.239.612.239.263 0 .465-.079.606-.239.199-.22.299-.484.299-.788 0-.311-.058-.619-.173-.92-.117-.299-.316-.656-.6-1.065a7.227 7.227 0 0 0-.943-1.117c-.635-.616-1.544-1.402-2.728-2.357zm7.743 9.608c.294 0 .542-.097.743-.289a.948.948 0 0 0 .302-.707.942.942 0 0 0-.307-.708 1.032 1.032 0 0 0-.738-.292c-.287 0-.531.098-.735.292a.945.945 0 0 0-.306.708c0 .275.1.512.302.707.201.192.449.289.739.289zm.439-3.122-1.458-4.829c-.08-.276-.122-.457-.122-.545 0-.048.022-.095.063-.139a.194.194 0 0 1 .137-.062c.08 0 .16.032.243.102.211.167.469.47.768.908l.243-.136C68.714.616 67.951.021 67.143.021c-.308 0-.554.083-.736.248a.809.809 0 0 0-.275.628c0 .167.042.38.122.638l.989 3.247c.095.311.143.547.143.705 0 .1-.046.187-.136.267a.552.552 0 0 1-.369.113c-.073 0-.158-.002-.258-.004l.093.271 2.416.373h.425zm5.813-4.66.213-.183c-.462-.526-.914-.911-1.361-1.154a3.77 3.77 0 0 0-1.845-.489c-.425 0-.804.088-1.135.262a1.628 1.628 0 0 0-.729.732 2.137 2.137 0 0 0-.236.969c0 .742.211 1.472.634 2.189.423.718.98 1.286 1.673 1.706.695.417 1.376.628 2.044.628.538 0 .941-.114 1.211-.341.272-.225.406-.505.406-.841a1.08 1.08 0 0 0-.306-.775c-.205-.213-.431-.319-.684-.319a.77.77 0 0 0-.544.204.634.634 0 0 0-.216.482c0 .245.126.459.384.639.175.126.262.237.262.332a.226.226 0 0 1-.107.197.597.597 0 0 1-.369.109c-.399 0-.773-.153-1.126-.461a3.959 3.959 0 0 1-1.067-1.549c-.248-.626-.372-1.219-.372-1.78 0-.443.127-.798.377-1.062.253-.264.551-.399.899-.399.304 0 .632.077.985.225.355.151.69.376 1.009.679zm3.276.911a5.232 5.232 0 0 1-.065-.728c0-.338.104-.612.311-.813.207-.204.481-.306.829-.306.333 0 .666.077 1.002.229.332.156.722.425 1.163.809l.213-.183c-.545-.63-1.078-1.078-1.595-1.344a3.687 3.687 0 0 0-1.716-.401c-.793 0-1.343.181-1.646.542a1.901 1.901 0 0 0-.455 1.257c0 .744.226 1.485.681 2.227a5.088 5.088 0 0 0 1.85 1.788c.782.447 1.565.672 2.355.672.399 0 .7-.09.904-.271a.878.878 0 0 0 .307-.687c0-.331-.1-.653-.299-.964a3.326 3.326 0 0 0-1.04-1.029 5.06 5.06 0 0 0-1.403-.594c-.348-.092-.812-.159-1.396-.204zm.064.353c.418.058.741.139.972.241.228.102.454.264.675.489.221.225.414.508.574.849.161.342.243.662.243.961a.41.41 0 0 1-.111.3.389.389 0 0 1-.282.106c-.227 0-.484-.15-.769-.454-.522-.552-.957-1.384-1.302-2.492zm11.145 6.518c.295 0 .542-.097.744-.289a.948.948 0 0 0 .302-.707.946.946 0 0 0-.307-.708 1.032 1.032 0 0 0-.739-.292c-.286 0-.53.098-.734.292a.945.945 0 0 0-.306.708c0 .275.1.512.301.707.202.192.45.289.739.289zm.44-3.122-1.458-4.829c-.081-.276-.122-.457-.122-.545 0-.048.022-.095.063-.139a.194.194 0 0 1 .137-.062c.08 0 .16.032.242.102.212.167.47.47.768.908l.244-.136C89.452.616 88.688.021 87.881.021c-.309 0-.554.083-.736.248a.812.812 0 0 0-.275.628c0 .167.042.38.122.638l.989 3.247c.095.311.143.547.143.705 0 .1-.046.187-.136.267a.554.554 0 0 1-.369.113c-.073 0-.158-.002-.258-.004l.092.271 2.417.373h.425zm5.762 0-.312-2.098h-.265c-.036.542-.211.969-.522 1.282-.311.313-.644.468-1.002.468a.794.794 0 0 1-.54-.183.557.557 0 0 1-.213-.44.9.9 0 0 1 .092-.408c.061-.128.199-.299.413-.517.749-.77 1.206-1.299 1.367-1.588a1.942 1.942 0 0 0-.042-1.945 2.043 2.043 0 0 0-.853-.77 2.56 2.56 0 0 0-1.177-.287c-.277 0-.615.051-1.018.155-.268.074-.467.109-.598.109a.62.62 0 0 1-.28-.051.71.71 0 0 1-.221-.213h-.263l.351 2.262h.225c.169-.549.324-.938.468-1.173a1.62 1.62 0 0 1 .58-.556c.244-.139.474-.206.698-.206a.92.92 0 0 1 .649.234c.17.155.255.343.255.558 0 .214-.056.42-.168.619-.111.199-.367.51-.77.93-.557.575-.922 1.02-1.099 1.333a1.604 1.604 0 0 0-.185.774c0 .487.188.895.559 1.222.372.327.897.489 1.571.489.294 0 .656-.051 1.081-.151a2.53 2.53 0 0 1 .514-.074c.187 0 .335.074.449.225h.256zm10.975-.095-1.381-4.516-.143-.551a.784.784 0 0 1-.022-.149c0-.056.022-.102.061-.144.042-.039.083-.06.124-.06.099 0 .238.072.413.218.073.058.243.267.513.623l.25-.122c-.338-.587-.698-1.016-1.079-1.287a2.106 2.106 0 0 0-1.235-.403c-.272 0-.479.067-.62.199a.668.668 0 0 0-.213.508c0 .176.075.503.228.983l.17.552c-.552-.902-1.08-1.54-1.587-1.915a1.552 1.552 0 0 0-.941-.327c-.438 0-.753.172-.948.512a2.3 2.3 0 0 0-.292 1.159c0 .638.204 1.37.613 2.195.408.828.945 1.491 1.609 1.994.547.417 1.06.626 1.539.626.265 0 .479-.074.641-.22.161-.149.28-.418.355-.807l.258.837 1.687.095zm-2.278-1.291c0 .366-.06.633-.179.795a.414.414 0 0 1-.348.169c-.149 0-.299-.067-.457-.204-.319-.28-.661-.849-1.029-1.708-.366-.858-.551-1.598-.551-2.224 0-.241.041-.412.124-.519.083-.106.175-.16.275-.16.213 0 .429.118.648.353.312.335.596.746.847 1.23.447.851.67 1.607.67 2.268zm12.597 1.386.528-4.768c.717.674 1.184 1.207 1.403 1.599.218.392.328.719.328.98 0 .1-.025.2-.073.3a2.208 2.208 0 0 1-.285.414c-.141.177-.223.288-.24.334a.848.848 0 0 0-.051.311c0 .232.082.427.25.589.165.16.374.241.627.241.251 0 .45-.081.598-.246.209-.234.314-.505.314-.813 0-.503-.253-1.162-.756-1.978-.503-.814-1.653-1.963-3.447-3.449h-.285l-.442 4.17-3.075-4.17h-.307c.071 1.259.108 2.436.108 3.53 0 .717-.042 1.234-.122 1.549a.763.763 0 0 1-.252.422.633.633 0 0 1-.397.143c-.075 0-.172-.009-.292-.027v.25l2.45.619c.134-.355.224-.686.27-.999.081-.48.122-1.039.122-1.676 0-.227-.01-.573-.029-1.034l2.756 3.709h.299zm10.441-.095-1.381-4.516-.143-.551a.784.784 0 0 1-.022-.149c0-.056.022-.102.061-.144.041-.039.083-.06.124-.06.099 0 .238.072.413.218.073.058.243.267.513.623l.25-.122c-.338-.587-.698-1.016-1.079-1.287a2.106 2.106 0 0 0-1.235-.403c-.272 0-.479.067-.62.199a.668.668 0 0 0-.213.508c0 .176.075.503.228.983l.17.552c-.552-.902-1.079-1.54-1.587-1.915a1.555 1.555 0 0 0-.941-.327c-.438 0-.753.172-.948.512a2.3 2.3 0 0 0-.292 1.159c0 .638.204 1.37.613 2.195.408.828.945 1.491 1.609 1.994.547.417 1.06.626 1.539.626.265 0 .479-.074.641-.22.161-.149.28-.418.355-.807l.258.837 1.687.095zm-2.277-1.291c0 .366-.061.633-.18.795a.413.413 0 0 1-.348.169c-.148 0-.299-.067-.457-.204-.319-.28-.661-.849-1.029-1.708-.366-.858-.551-1.598-.551-2.224 0-.241.041-.412.124-.519.082-.106.175-.16.275-.16.214 0 .43.118.649.353.311.335.595.746.846 1.23.447.851.671 1.607.671 2.268zm2.953.774 2.195.612a2.15 2.15 0 0 0 .37-.591c.128-.322.218-.765.27-1.331.099-1.115.169-2.302.206-3.565.508.637 1.092 1.481 1.745 2.531.2.318.3.617.3.897 0 .177-.115.346-.346.503-.231.158-.374.283-.43.371a.604.604 0 0 0-.085.343c0 .225.085.422.26.589.172.17.381.253.629.253a.938.938 0 0 0 .681-.285.916.916 0 0 0 .287-.673c0-.303-.087-.656-.268-1.057-.177-.4-.593-1.087-1.249-2.06-.839-1.245-1.663-2.323-2.469-3.234-.518-.58-.937-.997-1.255-1.252a4.371 4.371 0 0 0-.99-.607 1.548 1.548 0 0 0-.605-.13.975.975 0 0 0-.695.271.857.857 0 0 0-.287.647c0 .248.085.459.258.63a.84.84 0 0 0 .61.258c.289 0 .554-.144.797-.434.161-.194.295-.292.399-.292.11 0 .217.03.321.088.143.072.343.241.598.503.029.566.044.992.044 1.282 0 .39-.02.939-.059 1.644l-.121 2.589c-.041.476-.149.816-.319 1.025a.657.657 0 0 1-.52.231c-.082 0-.173-.006-.272-.02v.264zm14.636.612c.375 0 .727-.083 1.058-.248.328-.165.578-.396.746-.689a1.92 1.92 0 0 0 .253-.978c0-.735-.214-1.467-.644-2.202A4.864 4.864 0 0 0 142.82.656c-.705-.424-1.412-.635-2.125-.635-.644 0-1.145.183-1.497.549a1.862 1.862 0 0 0-.533 1.345c0 .63.134 1.219.397 1.771a5.076 5.076 0 0 0 2.404 2.436 3.69 3.69 0 0 0 1.638.385zm-.291-.359a.946.946 0 0 1-.628-.211c-.333-.286-.707-.953-1.125-2.001-.418-1.047-.627-1.994-.627-2.835 0-.208.065-.38.199-.517a.645.645 0 0 1 .469-.204c.187 0 .35.055.494.165.209.162.464.528.768 1.096a9.44 9.44 0 0 1 .749 1.88c.194.686.291 1.314.291 1.885 0 .236-.06.417-.18.547a.537.537 0 0 1-.41.195zm6.607-.626-.831-3.137c-.392-1.481-.771-2.554-1.141-3.22-.371-.665-.804-1.159-1.3-1.476-.496-.32-1.065-.48-1.707-.48-.404 0-.7.074-.89.22-.189.149-.284.32-.284.519 0 .186.078.348.236.482.155.137.362.205.62.205.214 0 .376-.051.491-.156a.51.51 0 0 0 .17-.394c0-.144-.037-.252-.107-.322-.071-.07-.107-.116-.107-.139l.036-.049a.167.167 0 0 1 .1-.033c.141 0 .263.042.362.128.253.213.44.471.564.774.086.209.248.759.492 1.651l1.453 5.427h-.992l.236.795c.355-.004.615.037.776.127.163.093.333.295.512.612.523.921 1.075 1.579 1.654 1.978a3.339 3.339 0 0 0 1.937.595c.454 0 .788-.083.994-.25a.806.806 0 0 0 .309-.651c0-.237-.069-.422-.207-.561a.698.698 0 0 0-.513-.206.661.661 0 0 0-.469.169.53.53 0 0 0-.184.408c0 .113.038.232.116.359.078.128.117.213.117.257a.154.154 0 0 1-.053.123.194.194 0 0 1-.139.049c-.28 0-.566-.167-.861-.496-.486-.531-.875-1.368-1.169-2.513h1.033l-.25-.795h-1.004" style="fill:#fee800;fill-opacity:1;fill-rule:nonzero;stroke:none" transform="matrix(.97866 0 0 -1.02096 103.502 66.293)"/></g><g style="fill:#fee800;fill-opacity:1"><path d="m0 0 .657 7.879c.019.23.026.42.026.571 0 .239-.056.415-.172.528-.117.114-.324.176-.618.19L0 9.421h3.904l-.08-.253h-.192c-.255 0-.464-.079-.622-.241-.159-.16-.256-.459-.29-.899l-.376-4.674 2.912 3.798.073.876c.017.181.027.327.027.435 0 .221-.064.392-.187.508-.127.118-.334.183-.626.197l.074.253h3.93l-.078-.253c-.347 0-.603-.079-.77-.241-.165-.16-.267-.459-.306-.899l-.37-4.674 2.805 3.682c.479.63.778 1.056.89 1.284a.856.856 0 0 1 .122.394c0 .104-.054.197-.161.283-.107.083-.311.141-.615.171l.071.253h2.578l-.065-.253a1.352 1.352 0 0 1-.576-.229c-.214-.16-.491-.464-.834-.911L5.107 0h-.42l.491 6.215L.428 0H0z" style="fill:#fee800;fill-opacity:1;stroke:none" transform="matrix(.97866 0 0 -1.02096 103.502 66.293)"/></g><g style="fill:#fee800;fill-opacity:1"><path d="m0 0-1.853-6.117c.642.902 1.107 1.509 1.396 1.826.432.457.804.765 1.116.927.311.161.607.242.892.242.243 0 .45-.089.625-.262.172-.174.259-.406.259-.696 0-.246-.058-.552-.172-.918l-.904-2.893c-.081-.253-.122-.422-.122-.51 0-.039.017-.077.051-.111a.152.152 0 0 1 .114-.051c.056 0 .115.023.171.067.153.114.313.295.483.545.044.062.112.157.207.285l.279-.151c-.408-.642-.797-1.082-1.161-1.323C1.016-9.379.669-9.5.34-9.5c-.294 0-.525.072-.69.219a.684.684 0 0 0-.248.542c0 .199.056.482.17.848l.882 2.893c.059.2.085.346.085.436a.177.177 0 0 1-.06.132.197.197 0 0 1-.139.058c-.17 0-.406-.137-.705-.408-.617-.556-1.235-1.43-1.85-2.622l-.634-2.016h-1.767l2.336 7.675c.094.325.143.558.143.698a.308.308 0 0 1-.143.266c-.124.086-.314.121-.569.107l.048.273L-.428 0H0z" style="fill:#fee800;fill-opacity:1;stroke:none" transform="matrix(.97866 0 0 -1.02096 119.025 56.463)"/></g><g style="fill:#fee800;fill-opacity:1"><path d="M0 0a5.117 5.117 0 0 1-.066-.728c0-.338.105-.612.312-.813.206-.205.481-.306.828-.306.334 0 .666.076 1.002.229.333.155.722.424 1.165.809l.211-.183c-.545-.631-1.077-1.078-1.595-1.345a3.696 3.696 0 0 0-1.716-.401c-.792 0-1.342.181-1.646.543a1.898 1.898 0 0 0-.454 1.256c0 .744.226 1.486.681 2.228A5.09 5.09 0 0 0 .571 3.076c.783.447 1.566.673 2.356.673.399 0 .7-.091.904-.272a.874.874 0 0 0 .307-.686c0-.331-.1-.654-.299-.964A3.332 3.332 0 0 0 2.798.797 5.052 5.052 0 0 0 1.396.204C1.048.111.583.044 0 0z" style="fill:#fee800;fill-opacity:1;stroke:none" transform="matrix(.97866 0 0 -1.02096 124.504 63.478)"/></g><g style="fill:#fff;fill-opacity:1"><path d="M0 0c.418.058.742.139.973.241.228.102.454.264.675.489.222.225.414.508.574.849.161.343.243.663.243.962a.41.41 0 0 1-.112.299.386.386 0 0 1-.282.107c-.226 0-.484-.151-.768-.455C.78 1.941.345 1.108 0 0z" style="fill:green;fill-opacity:1;stroke:none" transform="matrix(.97866 0 0 -1.02096 124.565 63.118)"/></g><g style="fill:#fee800;fill-opacity:1"><path d="m0 0-1.074-3.818C-.192-1.956.472-.811.919-.38c.26.252.537.38.827.38.199 0 .36-.069.483-.209.124-.136.185-.333.185-.586 0-.438-.112-.809-.336-1.106-.14-.192-.301-.288-.476-.288a.465.465 0 0 0-.428.253c-.094.167-.16.267-.199.295a.187.187 0 0 1-.122.044.344.344 0 0 1-.148-.039c-.104-.056-.24-.188-.41-.399-.168-.209-.375-.561-.623-1.055-.246-.494-.44-.911-.576-1.254-.139-.341-.331-.992-.576-1.952h-1.723l1.173 4.502c.086.336.129.558.129.667a.536.536 0 0 1-.067.285.41.41 0 0 1-.185.149c-.081.032-.241.049-.489.049l.063.194L-.428 0H0z" style="fill:#fee800;fill-opacity:1;stroke:none" transform="matrix(.97866 0 0 -1.02096 131.988 59.651)"/></g><g style="fill:#fee800;fill-opacity:1"><path d="M0 0a5.117 5.117 0 0 1-.066-.728c0-.338.105-.612.312-.813.206-.205.481-.306.828-.306.334 0 .666.076 1.002.229.333.155.722.424 1.164.809l.212-.183c-.545-.631-1.077-1.078-1.595-1.345a3.699 3.699 0 0 0-1.716-.401c-.793 0-1.342.181-1.646.543a1.903 1.903 0 0 0-.454 1.256c0 .744.225 1.486.68 2.228a5.102 5.102 0 0 0 1.85 1.787c.783.447 1.566.673 2.356.673.398 0 .7-.091.904-.272a.878.878 0 0 0 .307-.686c0-.331-.1-.654-.299-.964A3.332 3.332 0 0 0 2.798.797 5.046 5.046 0 0 0 1.395.204C1.048.111.583.044 0 0z" style="fill:#fee800;fill-opacity:1;stroke:none" transform="matrix(.97866 0 0 -1.02096 136.393 63.479)"/></g><g style="fill:#fff;fill-opacity:1"><path d="M0 0c.418.058.742.139.972.241.229.102.455.264.676.489.221.225.414.508.574.849.161.343.243.663.243.962a.41.41 0 0 1-.112.299.388.388 0 0 1-.282.107c-.226 0-.484-.151-.768-.455C.78 1.941.345 1.108 0 0z" style="fill:green;fill-opacity:1;stroke:none" transform="matrix(.97866 0 0 -1.02096 136.455 63.12)"/></g><g style="fill:#fee800;fill-opacity:1"><path d="m0 0-.311-2.098h-.265c-.036.542-.211.969-.522 1.282-.312.313-.645.468-1.002.468a.792.792 0 0 1-.54-.183.558.558 0 0 1-.214-.44c0-.146.029-.281.093-.408.061-.128.199-.299.413-.517.749-.77 1.206-1.299 1.366-1.588a1.87 1.87 0 0 0 .243-.93c0-.359-.094-.698-.284-1.015a2.043 2.043 0 0 0-.853-.77 2.557 2.557 0 0 0-1.177-.287c-.277 0-.615.051-1.018.155-.268.074-.467.109-.599.109a.618.618 0 0 1-.279-.051.72.72 0 0 1-.221-.213h-.262l.349 2.262h.227c.167-.549.323-.938.466-1.173a1.64 1.64 0 0 1 .581-.556 1.4 1.4 0 0 1 .698-.206.92.92 0 0 1 .649.234c.17.155.255.343.255.558 0 .214-.056.42-.167.619-.112.2-.368.51-.771.93-.557.575-.922 1.02-1.099 1.333a1.604 1.604 0 0 0-.184.774c0 .487.186.895.558 1.222.372.327.898.489 1.571.489.294 0 .656-.051 1.081-.151.215-.048.387-.074.513-.074.188 0 .336.074.45.225H0z" style="fill:#fee800;fill-opacity:1;stroke:none" transform="matrix(.97866 0 0 -1.02096 149.465 59.652)"/></g><g style="fill:#fee800;fill-opacity:1"><path d="M0 0a5.245 5.245 0 0 1-.065-.728c0-.338.104-.612.311-.813.206-.205.481-.306.828-.306.334 0 .666.076 1.002.229.333.155.722.424 1.165.809l.211-.183c-.544-.631-1.077-1.078-1.594-1.345a3.706 3.706 0 0 0-1.717-.401c-.792 0-1.342.181-1.646.543a1.903 1.903 0 0 0-.454 1.256c0 .744.226 1.486.681 2.228A5.099 5.099 0 0 0 .571 3.076c.783.447 1.566.673 2.356.673.398 0 .7-.091.905-.272a.88.88 0 0 0 .306-.686c0-.331-.1-.654-.299-.964A3.322 3.322 0 0 0 2.798.797 5.046 5.046 0 0 0 1.395.204C1.048.111.583.044 0 0z" style="fill:#fee800;fill-opacity:1;stroke:none" transform="matrix(.97866 0 0 -1.02096 151.942 63.48)"/></g><g style="fill:#fff;fill-opacity:1"><path d="M0 0c.418.058.741.139.972.241.229.102.455.264.676.489.221.225.414.508.573.849.161.343.244.663.244.962a.41.41 0 0 1-.112.299.39.39 0 0 1-.282.107c-.226 0-.484-.151-.769-.455C.78 1.941.345 1.108 0 0z" style="fill:green;fill-opacity:1;stroke:none" transform="matrix(.97866 0 0 -1.02096 152.005 63.12)"/></g><g style="fill:#fee800;fill-opacity:1"><path d="m0 0-1.074-3.818C-.192-1.956.471-.811.919-.38c.26.252.537.38.826.38.2 0 .36-.069.484-.209.124-.136.185-.333.185-.586 0-.438-.112-.809-.336-1.106-.14-.192-.301-.288-.476-.288a.465.465 0 0 0-.428.253c-.094.167-.161.267-.199.295a.189.189 0 0 1-.122.044.344.344 0 0 1-.148-.039C.6-1.692.464-1.824.294-2.035.127-2.244-.08-2.596-.328-3.09c-.246-.494-.44-.911-.576-1.254-.139-.341-.331-.992-.576-1.952h-1.724l1.175 4.502c.085.336.128.558.128.667a.526.526 0 0 1-.068.285.4.4 0 0 1-.185.149c-.08.032-.241.049-.488.049l.063.194L-.428 0H0z" style="fill:#fee800;fill-opacity:1;stroke:none" transform="matrix(.97866 0 0 -1.02096 159.427 59.653)"/></g><g style="fill:#fee800;fill-opacity:1"><path d="M0 0h-.255c.015.371.022.651.022.841 0 .517-.044 1.264-.127 2.24-.082.974-.177 1.625-.279 1.952-.083.238-.19.415-.321.521a.533.533 0 0 1-.35.109 2.18 2.18 0 0 1-.292-.025v.243l2.373.605c.474-1.235.705-2.819.69-4.748.698.633 1.179 1.148 1.442 1.542.262.395.396.723.396.985 0 .209-.083.42-.246.636-.165.215-.267.366-.306.458a.718.718 0 0 0-.06.298c0 .236.079.433.24.591a.842.842 0 0 0 .613.238c.262 0 .464-.079.605-.238.199-.221.299-.485.299-.789 0-.31-.058-.619-.173-.92-.116-.299-.316-.656-.6-1.064a7.134 7.134 0 0 0-.943-1.117C2.093 1.741 1.184.955 0 0z" style="fill:#fee800;fill-opacity:1;stroke:none" transform="matrix(.97866 0 0 -1.02096 163.567 66.275)"/></g><g style="fill:#fee800;fill-opacity:1"><path d="M0 0c.294 0 .542-.097.744-.29a.944.944 0 0 0 .301-.707.944.944 0 0 0-.306-.707A1.036 1.036 0 0 0 0-1.996c-.287 0-.53.098-.735.292a.948.948 0 0 0-.306.707c0 .276.1.513.302.707.202.193.45.29.739.29z" style="fill:#fee800;fill-opacity:1;stroke:none" transform="matrix(.97866 0 0 -1.02096 171.145 56.465)"/></g><g style="fill:#fee800;fill-opacity:1"><path d="m0 0-1.458-4.829c-.081-.276-.122-.456-.122-.545 0-.048.022-.095.063-.139a.194.194 0 0 1 .137-.062c.08 0 .16.032.243.102.211.167.469.47.767.908l.244-.136c-.718-1.19-1.481-1.785-2.288-1.785-.308 0-.554.083-.736.248a.809.809 0 0 0-.275.628c0 .167.041.38.121.638l.99 3.247c.095.311.143.547.143.705 0 .1-.046.187-.136.267a.554.554 0 0 1-.369.113c-.073 0-.158-.002-.258-.004l.092.271L-.425 0H0z" style="fill:#fee800;fill-opacity:1;stroke:none" transform="matrix(.97866 0 0 -1.02096 171.575 59.652)"/></g><g style="fill:#fee800;fill-opacity:1"><path d="m0 0 .214-.183C-.248-.709-.7-1.094-1.147-1.338a3.78 3.78 0 0 0-1.845-.489c-.426 0-.805.089-1.136.262a1.64 1.64 0 0 0-.729.733 2.132 2.132 0 0 0-.235.969c0 .742.211 1.472.634 2.188a4.797 4.797 0 0 0 1.672 1.706c.696.417 1.376.629 2.045.629.537 0 .94-.114 1.21-.341.273-.225.406-.506.406-.841 0-.304-.102-.562-.306-.775-.204-.213-.43-.32-.683-.32a.77.77 0 0 0-.544.204.634.634 0 0 0-.217.482c0 .246.126.459.384.64.175.125.262.237.262.332a.224.224 0 0 1-.107.197.593.593 0 0 1-.369.109c-.399 0-.773-.153-1.126-.462a3.946 3.946 0 0 1-1.066-1.548c-.248-.626-.373-1.22-.373-1.781 0-.442.127-.797.377-1.061.253-.264.552-.399.9-.399.304 0 .632.077.985.225.354.15.69.375 1.008.679z" style="fill:#fee800;fill-opacity:1;stroke:none" transform="matrix(.97866 0 0 -1.02096 177.263 64.41)"/></g><g style="fill:#fee800;fill-opacity:1"><path d="M0 0a5.117 5.117 0 0 1-.066-.728c0-.338.105-.612.311-.813.207-.205.482-.306.829-.306.333 0 .666.076 1.002.229.333.155.722.424 1.164.809l.212-.183c-.545-.631-1.077-1.078-1.595-1.345a3.699 3.699 0 0 0-1.716-.401c-.793 0-1.342.181-1.646.543A1.904 1.904 0 0 0-1.96-.939c0 .744.227 1.486.681 2.228a5.102 5.102 0 0 0 1.85 1.787c.783.447 1.566.673 2.356.673.398 0 .7-.091.904-.272a.877.877 0 0 0 .306-.686c0-.331-.099-.654-.299-.964a3.318 3.318 0 0 0-1.04-1.03A5.046 5.046 0 0 0 1.395.204C1.048.111.583.044 0 0z" style="fill:#fee800;fill-opacity:1;stroke:none" transform="matrix(.97866 0 0 -1.02096 180.47 63.48)"/></g><g style="fill:#fff;fill-opacity:1"><path d="M0 0c.418.058.742.139.972.241.229.102.455.264.676.489.221.225.413.508.574.849.16.343.243.663.243.962a.41.41 0 0 1-.112.299.388.388 0 0 1-.282.107c-.226 0-.483-.151-.768-.455C.78 1.941.345 1.108 0 0z" style="fill:green;fill-opacity:1;stroke:none" transform="matrix(.97866 0 0 -1.02096 180.532 63.12)"/></g><g style="fill:#fee800;fill-opacity:1"><path d="M0 0c.295 0 .542-.097.744-.29a.944.944 0 0 0 .301-.707.944.944 0 0 0-.306-.707A1.032 1.032 0 0 0 0-1.996c-.286 0-.53.098-.734.292a.944.944 0 0 0-.306.707c0 .276.099.513.301.707.202.193.45.29.739.29z" style="fill:#fee800;fill-opacity:1;stroke:none" transform="matrix(.97866 0 0 -1.02096 191.44 56.465)"/></g><g style="fill:#fee800;fill-opacity:1"><path d="m0 0-1.458-4.829c-.081-.276-.122-.456-.122-.545 0-.048.022-.095.063-.139a.192.192 0 0 1 .136-.062.37.37 0 0 1 .243.102c.212.167.47.47.768.908l.243-.136c-.716-1.19-1.48-1.785-2.287-1.785-.309 0-.554.083-.737.248a.811.811 0 0 0-.274.628c0 .167.042.38.121.638l.99 3.247c.095.311.143.547.143.705 0 .1-.046.187-.136.267a.555.555 0 0 1-.369.113c-.073 0-.158-.002-.258-.004l.092.271L-.425 0H0z" style="fill:#fee800;fill-opacity:1;stroke:none" transform="matrix(.97866 0 0 -1.02096 191.87 59.652)"/></g><g style="fill:#fee800;fill-opacity:1"><path d="m0 0-.311-2.098h-.265c-.037.542-.212.969-.523 1.282-.311.313-.644.468-1.001.468a.79.79 0 0 1-.54-.183.558.558 0 0 1-.214-.44c0-.146.029-.281.093-.408.06-.128.199-.299.413-.517.748-.77 1.205-1.299 1.366-1.588a1.87 1.87 0 0 0 .243-.93c0-.359-.095-.698-.285-1.015a2.043 2.043 0 0 0-.853-.77 2.556 2.556 0 0 0-1.176-.287c-.277 0-.615.051-1.019.155a2.47 2.47 0 0 1-.598.109.615.615 0 0 1-.279-.051.7.7 0 0 1-.221-.213h-.263l.35 2.262h.226c.168-.549.323-.938.467-1.173.145-.231.338-.417.581-.556.243-.139.474-.206.697-.206a.92.92 0 0 1 .65.234c.17.155.255.343.255.558 0 .214-.056.42-.168.619-.112.2-.367.51-.771.93-.557.575-.921 1.02-1.099 1.333a1.615 1.615 0 0 0-.184.774c0 .487.187.895.559 1.222.372.327.897.489 1.57.489.295 0 .657-.051 1.082-.151.214-.048.387-.074.513-.074.187 0 .335.074.45.225H0z" style="fill:#fee800;fill-opacity:1;stroke:none" transform="matrix(.97866 0 0 -1.02096 197.509 59.652)"/></g><g style="fill:#fee800;fill-opacity:1"><path d="m0 0-1.381-4.516-.143-.551a.784.784 0 0 1-.022-.149c0-.056.022-.102.061-.144.042-.039.083-.06.124-.06.099 0 .238.072.413.218.073.058.243.267.513.623l.25-.122c-.338-.587-.698-1.016-1.079-1.287a2.106 2.106 0 0 0-1.235-.403c-.272 0-.479.067-.62.199a.668.668 0 0 0-.213.508c0 .176.075.503.228.983l.17.552c-.552-.902-1.08-1.54-1.587-1.915a1.552 1.552 0 0 0-.941-.327c-.438 0-.753.172-.948.512a2.3 2.3 0 0 0-.292 1.159c0 .638.204 1.37.613 2.195.408.828.945 1.491 1.609 1.994.547.417 1.06.626 1.539.626.265 0 .479-.074.641-.22.161-.149.28-.418.355-.807l.258.837L0 0z" style="fill:#fee800;fill-opacity:1;stroke:none" transform="matrix(.97866 0 0 -1.02096 208.25 59.749)"/></g><g style="fill:#fff;fill-opacity:1"><path d="M0 0c0 .366-.061.633-.18.795a.41.41 0 0 1-.347.17c-.149 0-.299-.068-.457-.204-.319-.281-.662-.849-1.029-1.709-.367-.858-.551-1.597-.551-2.223 0-.241.041-.413.124-.519.082-.107.175-.16.274-.16.214 0 .43.118.649.352.312.336.596.746.846 1.231C-.224-1.416 0-.66 0 0z" style="fill:green;fill-opacity:1;stroke:none" transform="matrix(.97866 0 0 -1.02096 206.02 61.067)"/></g><g style="fill:#fee800;fill-opacity:1"><path d="m0 0 .528-4.768c.717.674 1.183 1.207 1.402 1.599.219.392.328.719.328.98 0 .1-.024.2-.072.3-.047.1-.141.238-.285.414-.141.177-.224.288-.24.334a.83.83 0 0 0-.052.311c0 .232.083.427.251.589.165.16.374.241.627.241.25 0 .449-.081.598-.246.209-.234.313-.505.313-.813 0-.503-.252-1.162-.756-1.978C2.139-3.851.99-5-.804-6.486h-.285l-.442 4.17-3.075-4.17h-.307c.071 1.259.107 2.436.107 3.53 0 .717-.041 1.234-.121 1.549a.759.759 0 0 1-.253.422.63.63 0 0 1-.396.143c-.076 0-.173-.009-.292-.027v.25l2.45.619c.134-.355.224-.686.27-.999.081-.48.121-1.039.121-1.676 0-.227-.009-.573-.028-1.034L-.299 0H0z" style="fill:#fee800;fill-opacity:1;stroke:none" transform="matrix(.97866 0 0 -1.02096 218.348 59.652)"/></g><g style="fill:#fee800;fill-opacity:1"><path d="m0 0-1.381-4.516-.143-.551a.784.784 0 0 1-.022-.149c0-.056.022-.102.061-.144.041-.039.082-.06.124-.06.099 0 .238.072.413.218.073.058.243.267.513.623l.25-.122c-.338-.587-.698-1.016-1.079-1.287a2.106 2.106 0 0 0-1.235-.403c-.272 0-.479.067-.62.199a.668.668 0 0 0-.214.508c0 .176.075.503.229.983l.17.552c-.552-.902-1.08-1.54-1.587-1.915a1.555 1.555 0 0 0-.941-.327c-.438 0-.754.172-.948.512a2.3 2.3 0 0 0-.292 1.159c0 .638.204 1.37.612 2.195.409.828.946 1.491 1.61 1.994.547.417 1.06.626 1.539.626.265 0 .479-.074.641-.22.161-.149.28-.418.355-.807l.258.837L0 0z" style="fill:#fee800;fill-opacity:1;stroke:none" transform="matrix(.97866 0 0 -1.02096 228.566 59.749)"/></g><g style="fill:#fff;fill-opacity:1"><path d="M0 0c0 .366-.061.633-.18.795a.411.411 0 0 1-.348.17c-.148 0-.299-.068-.457-.204-.318-.281-.661-.849-1.028-1.709-.367-.858-.552-1.597-.552-2.223 0-.241.042-.413.124-.519.083-.107.175-.16.275-.16.214 0 .43.118.649.352.311.336.596.746.846 1.231C-.224-1.416 0-.66 0 0z" style="fill:green;fill-opacity:1;stroke:none" transform="matrix(.97866 0 0 -1.02096 226.337 61.067)"/></g><g style="fill:#fee800;fill-opacity:1"><path d="m0 0 2.195.612a2.15 2.15 0 0 0 .37-.591c.128-.322.218-.765.27-1.331.099-1.115.17-2.302.206-3.565.508.637 1.092 1.481 1.745 2.531.2.318.3.617.3.897 0 .177-.115.346-.346.503-.231.158-.374.284-.43.371a.614.614 0 0 0-.085.343c0 .225.085.422.26.589.172.17.381.253.63.253.26 0 .488-.095.68-.285a.916.916 0 0 0 .287-.673c0-.303-.087-.655-.268-1.057-.177-.4-.593-1.087-1.249-2.06-.839-1.245-1.662-2.323-2.469-3.234-.518-.58-.937-.997-1.255-1.252a4.387 4.387 0 0 0-.989-.607 1.553 1.553 0 0 0-.606-.13.975.975 0 0 0-.694.271.855.855 0 0 0-.288.647c0 .248.085.459.258.63a.84.84 0 0 0 .61.258c.29 0 .555-.144.797-.434.161-.194.295-.292.399-.292.11 0 .217.03.321.088.144.072.343.241.598.503.029.566.044.992.044 1.282 0 .39-.02.939-.058 1.644L1.111-1.5C1.07-1.024.962-.684.793-.475a.661.661 0 0 1-.521.232C.19-.243.099-.25 0-.264V0z" style="fill:#fee800;fill-opacity:1;stroke:none" transform="matrix(.97866 0 0 -1.02096 229.227 60.277)"/></g><g style="fill:#fee800;fill-opacity:1"><path d="M0 0c.374 0 .726-.083 1.058-.248a1.74 1.74 0 0 0 .746-.689c.17-.294.252-.621.252-.978 0-.735-.213-1.467-.644-2.202A4.854 4.854 0 0 0-.284-5.851c-.706-.424-1.413-.635-2.125-.635-.644 0-1.145.183-1.498.549a1.865 1.865 0 0 0-.532 1.345c0 .63.134 1.219.396 1.771A5.08 5.08 0 0 0-1.638-.385 3.69 3.69 0 0 0 0 0z" style="fill:#fee800;fill-opacity:1;stroke:none" transform="matrix(.97866 0 0 -1.02096 243.55 59.652)"/></g><g style="fill:#fff;fill-opacity:1"><path d="M0 0a.941.941 0 0 1-.627-.211c-.333-.285-.707-.953-1.126-2.001-.418-1.047-.627-1.993-.627-2.835 0-.208.066-.38.199-.517a.645.645 0 0 1 .469-.204.79.79 0 0 1 .494.165c.209.162.464.528.768 1.096a9.44 9.44 0 0 1 .749 1.88c.194.686.292 1.315.292 1.885 0 .236-.061.417-.18.547A.54.54 0 0 1 0 0z" style="fill:green;fill-opacity:1;stroke:none" transform="matrix(.97866 0 0 -1.02096 243.265 60.019)"/></g><g style="fill:#fee800;fill-opacity:1"><path d="m0 0-.831-3.137c-.392-1.481-.771-2.554-1.141-3.22-.371-.665-.804-1.159-1.3-1.476-.496-.32-1.064-.48-1.706-.48-.404 0-.7.074-.89.22-.19.149-.285.32-.285.519 0 .186.078.348.236.483.155.136.362.204.62.204.214 0 .377-.051.491-.156a.51.51 0 0 0 .17-.394c0-.143-.036-.252-.107-.322-.07-.07-.107-.116-.107-.139l.037-.049a.164.164 0 0 1 .099-.033c.141 0 .263.042.362.128.254.213.441.471.565.774.085.209.248.759.491 1.651L-1.843 0h-.991l.236.795c.354-.004.614.037.775.127.163.093.333.295.513.612.523.921 1.074 1.579 1.653 1.978a3.339 3.339 0 0 0 1.937.595c.454 0 .788-.083.994-.25a.803.803 0 0 0 .309-.651c0-.236-.068-.422-.207-.561a.697.697 0 0 0-.512-.206.662.662 0 0 0-.47.169.533.533 0 0 0-.184.408.69.69 0 0 0 .117.359c.077.128.116.213.116.257a.154.154 0 0 1-.053.123.19.19 0 0 1-.139.049c-.28 0-.566-.167-.861-.496C.905 2.777.515 1.94.221.795h1.034L1.004 0H0z" style="fill:#fee800;fill-opacity:1;stroke:none" transform="matrix(.97866 0 0 -1.02096 249.73 60.658)"/></g><g style="fill:#fee800;fill-opacity:1"><path d="m0 0-2.356-7.645c-.138-.454-.206-.737-.206-.851 0-.058.019-.107.061-.148a.17.17 0 0 1 .131-.06c.085 0 .165.03.241.095.228.176.483.475.763.895l.277-.121c-.45-.688-.895-1.18-1.332-1.475a1.692 1.692 0 0 0-.953-.299c-.314 0-.564.082-.749.242a.74.74 0 0 0-.277.579c0 .169.056.438.17.809l1.923 6.261c.104.346.158.573.158.687 0 .109-.051.194-.151.259-.133.091-.335.128-.605.114l.078.259L-.426 0H0zm2.716 0c.294 0 .541-.097.743-.29a.945.945 0 0 0 .302-.707.942.942 0 0 0-.307-.707 1.032 1.032 0 0 0-.738-.292c-.288 0-.531.098-.735.292a.944.944 0 0 0-.306.707c0 .276.1.513.302.707.201.193.449.29.739.29zm.44-3.122L1.697-7.951c-.08-.276-.122-.457-.122-.545 0-.048.022-.095.063-.139a.195.195 0 0 1 .137-.063c.08 0 .16.033.243.103.211.166.469.47.768.908l.243-.136C2.312-9.013 1.548-9.609.741-9.609c-.309 0-.554.084-.736.249a.809.809 0 0 0-.275.628c0 .167.042.38.121.637l.99 3.248c.095.31.143.547.143.704 0 .101-.046.188-.136.267a.549.549 0 0 1-.369.114c-.073 0-.158-.002-.258-.005l.092.272 2.417.373h.426zm4.151-.985-.831-3.137c-.392-1.481-.771-2.555-1.141-3.22-.371-.665-.804-1.159-1.3-1.477-.495-.319-1.064-.479-1.706-.479-.404 0-.7.074-.89.22-.19.148-.284.32-.284.519 0 .185.077.348.236.482.155.137.361.204.619.204.215 0 .377-.051.492-.155a.512.512 0 0 0 .17-.394c0-.144-.037-.253-.107-.322-.071-.07-.107-.116-.107-.14l.036-.048a.164.164 0 0 1 .1-.033c.14 0 .262.042.362.128.253.213.44.47.564.774.085.209.248.758.491 1.651l1.454 5.427h-.992l.236.795c.355-.005.614.037.775.127.163.093.334.294.513.612.523.92 1.075 1.579 1.653 1.977A3.335 3.335 0 0 0 9.587 0c.455 0 .788-.083.995-.25a.806.806 0 0 0 .308-.652c0-.236-.068-.421-.206-.561a.705.705 0 0 0-.513-.206.662.662 0 0 0-.469.169.532.532 0 0 0-.185.408c0 .114.039.232.117.36.077.127.116.213.116.257 0 .051-.017.09-.053.123a.194.194 0 0 1-.139.048c-.279 0-.566-.167-.86-.496-.486-.53-.875-1.367-1.17-2.512h1.034l-.251-.795H7.307zm3.321-2.764a5.117 5.117 0 0 1-.066-.728c0-.338.104-.612.311-.813.207-.204.482-.306.829-.306.333 0 .666.076 1.002.229.333.155.722.424 1.164.809l.212-.183c-.545-.631-1.077-1.078-1.595-1.344a3.687 3.687 0 0 0-1.716-.402c-.793 0-1.342.181-1.646.543a1.899 1.899 0 0 0-.455 1.256c0 .744.227 1.486.681 2.228a5.102 5.102 0 0 0 1.85 1.787c.783.448 1.566.673 2.355.673.399 0 .701-.091.905-.272a.877.877 0 0 0 .306-.686c0-.331-.099-.654-.299-.964a3.305 3.305 0 0 0-1.04-1.029 5.048 5.048 0 0 0-1.403-.594c-.348-.093-.812-.16-1.395-.204zm.063.352c.418.059.742.14.972.242.229.102.455.264.676.489.221.225.413.508.573.848.161.343.244.663.244.962a.413.413 0 0 1-.112.3.389.389 0 0 1-.282.106c-.226 0-.484-.151-.768-.454-.523-.552-.958-1.384-1.303-2.493" style="fill:#fee800;fill-opacity:1;fill-rule:nonzero;stroke:none" transform="matrix(.97866 0 0 -1.02096 258.924 56.463)"/></g><g style="fill:#fee800;fill-opacity:1"><path d="m0 0-2.356-7.645c-.138-.454-.206-.737-.206-.851 0-.058.019-.107.061-.148a.17.17 0 0 1 .131-.06c.085 0 .165.03.241.095.228.176.483.475.763.895l.277-.121c-.45-.688-.895-1.18-1.332-1.475a1.692 1.692 0 0 0-.953-.299c-.314 0-.564.082-.749.242a.74.74 0 0 0-.277.579c0 .169.056.438.17.809l1.923 6.261c.104.346.158.573.158.687 0 .109-.051.194-.151.259-.133.091-.335.128-.605.114l.078.259L-.426 0H0z" style="fill:#fee800;fill-opacity:1;stroke:none" transform="matrix(.97866 0 0 -1.02096 258.924 56.463)"/></g><g style="fill:#fee800;fill-opacity:1"><path d="M0 0c.294 0 .542-.097.743-.29a.941.941 0 0 0 .302-.707.944.944 0 0 0-.306-.707A1.036 1.036 0 0 0 0-1.996c-.287 0-.53.098-.734.292a.94.94 0 0 0-.306.707c0 .276.099.513.301.707C-.538-.097-.29 0 0 0z" style="fill:#fee800;fill-opacity:1;stroke:none" transform="matrix(.97866 0 0 -1.02096 261.582 56.463)"/></g><g style="fill:#fee800;fill-opacity:1"><path d="m0 0-1.458-4.829c-.081-.276-.122-.456-.122-.545 0-.048.022-.095.062-.139.045-.042.088-.062.137-.062.08 0 .16.032.243.102.211.167.469.47.768.908l.244-.136c-.718-1.19-1.481-1.785-2.288-1.785-.309 0-.555.083-.737.248a.811.811 0 0 0-.274.628c0 .167.041.38.121.638l.989 3.247c.095.311.144.547.144.705 0 .1-.046.187-.136.267a.557.557 0 0 1-.37.113c-.073 0-.158-.002-.258-.004l.093.271L-.426 0H0z" style="fill:#fee800;fill-opacity:1;stroke:none" transform="matrix(.97866 0 0 -1.02096 262.013 59.65)"/></g><g style="fill:#fee800;fill-opacity:1"><path d="m0 0-.831-3.137c-.392-1.481-.771-2.554-1.141-3.22-.371-.665-.804-1.159-1.3-1.476-.495-.32-1.064-.48-1.706-.48-.404 0-.7.074-.89.22-.19.149-.285.32-.285.519 0 .186.078.348.236.483.156.136.362.204.62.204.214 0 .377-.051.492-.156a.51.51 0 0 0 .17-.394c0-.143-.037-.252-.108-.322-.07-.07-.106-.116-.106-.139l.036-.049a.164.164 0 0 1 .1-.033c.14 0 .262.042.362.128.253.213.44.471.564.774.085.209.248.759.491 1.651L-1.843 0h-.991l.236.795c.354-.004.614.037.775.127.163.093.333.295.513.612.522.921 1.074 1.579 1.653 1.978a3.341 3.341 0 0 0 1.937.595c.454 0 .788-.083.995-.25a.805.805 0 0 0 .308-.651c0-.236-.068-.422-.206-.561a.701.701 0 0 0-.513-.206.658.658 0 0 0-.469.169.53.53 0 0 0-.185.408.69.69 0 0 0 .117.359c.077.128.116.213.116.257a.154.154 0 0 1-.053.123.192.192 0 0 1-.139.049c-.28 0-.566-.167-.86-.496C.905 2.777.516 1.94.221.795h1.034L1.004 0H0z" style="fill:#fee800;fill-opacity:1;stroke:none" transform="matrix(.97866 0 0 -1.02096 266.076 60.656)"/></g><g style="fill:#fee800;fill-opacity:1"><path d="M0 0a5.117 5.117 0 0 1-.066-.728c0-.338.104-.612.311-.813.207-.205.482-.306.829-.306.333 0 .666.076 1.002.229.333.155.722.424 1.164.809l.212-.183c-.545-.631-1.077-1.078-1.595-1.345a3.699 3.699 0 0 0-1.716-.401c-.793 0-1.342.181-1.646.543A1.899 1.899 0 0 0-1.96-.939c0 .744.227 1.486.681 2.228a5.102 5.102 0 0 0 1.85 1.787c.783.447 1.566.673 2.355.673.399 0 .701-.091.905-.272a.877.877 0 0 0 .306-.686c0-.331-.099-.654-.299-.964a3.318 3.318 0 0 0-1.04-1.03A5.046 5.046 0 0 0 1.395.204C1.047.111.583.044 0 0z" style="fill:#fee800;fill-opacity:1;stroke:none" transform="matrix(.97866 0 0 -1.02096 269.326 63.477)"/></g><g style="fill:#fff;fill-opacity:1"><path d="M0 0c.418.058.742.139.972.241.229.102.455.264.676.489.221.225.414.508.574.849.16.343.243.663.243.962a.41.41 0 0 1-.112.299.39.39 0 0 1-.282.107c-.226 0-.484-.151-.768-.455C.78 1.941.345 1.108 0 0z" style="fill:green;fill-opacity:1;stroke:none" transform="matrix(.97866 0 0 -1.02096 269.388 63.117)"/></g><path d="M0 0v9.976c0 .586-.098.978-.391 1.173-.196.196-.783.391-1.663.391v.489h7.531c2.054 0 3.618-.293 4.694-.88.978-.684 1.565-1.662 1.565-2.836 0-1.369-.587-2.445-1.76-3.032-1.076-.684-2.935-.978-5.379-.978h-.783V0c0-.587.196-.978.391-1.174.294-.195.881-.391 1.761-.391v-.489h-8.02v.489c.88 0 1.467.196 1.663.391C-.098-.978 0-.587 0 0zm3.814 4.988h.391c1.272 0 2.152.195 2.739.684.489.587.782 1.37.782 2.641 0 1.076-.195 1.858-.685 2.347-.391.489-1.075.685-1.955.685-.489 0-.783-.098-.978-.196-.196-.195-.294-.489-.294-.88V4.988zM16.822 7.53V.782c0-.684.098-1.173.293-1.467.098-.195.489-.391.978-.391.391 0 .88.196 1.272.391.293.196.489.392.684.587v5.575c0 .587-.098.978-.293 1.173-.196.294-.587.392-1.174.392v.488h4.792V0c0-.489 0-.782.196-.88.196-.196.587-.294 1.076-.294v-.489a44.946 44.946 0 0 1-2.25-.293c-.684-.098-1.467-.196-2.347-.391v1.369c-.293-.293-.587-.489-.978-.783-.782-.391-1.565-.586-2.347-.586-1.076 0-1.858.195-2.347.684-.587.587-.88 1.272-.88 2.25v4.89c0 .587-.098 1.076-.196 1.271-.196.196-.489.294-.88.294v.488h4.401zM26.895 0v5.477c0 .587-.098 1.076-.293 1.271-.098.196-.489.294-.978.294v.488h4.499V5.966c.195.391.586.782.978 1.076a4.06 4.06 0 0 0 2.445.782c.88 0 1.662-.294 2.249-.88.587-.489.88-1.174.88-2.054V0c0-.587.098-1.076.196-1.271.196-.196.489-.294.978-.294v-.489h-5.672v.489c.489 0 .88.098.978.294.195.195.293.684.293 1.271v4.303c0 .783-.098 1.369-.293 1.663-.196.293-.587.391-1.076.391-.391 0-.783-.098-1.174-.391-.293-.196-.587-.489-.782-.685V0c0-.587.097-1.076.293-1.271.098-.196.489-.294.978-.294v-.489h-5.77v.489c.489 0 .88.098.978.294.195.195.293.684.293 1.271zm14.182 5.77c0 .489-.098.88-.294.978-.098.196-.587.294-1.174.294v.488h4.793v-9.291c0-1.564-.392-2.738-1.076-3.52-.685-.685-1.76-1.076-3.326-1.076-.88 0-1.662.196-2.249.587-.587.391-.88.978-.88 1.565 0 .293.196.586.489.88.293.195.587.391.978.391.587 0 1.076-.294 1.271-.685.196-.391.098-.782-.195-1.271-.196-.293-.294-.489-.196-.587.098-.195.391-.195.782-.195.392 0 .685.097.881.391.098.195.196.684.196 1.173V5.77zm1.564 6.553c.489 0 .978-.098 1.272-.391.391-.392.586-.783.586-1.174 0-.489-.195-.88-.586-1.173-.294-.294-.783-.489-1.272-.489s-.978.195-1.271.489a1.393 1.393 0 0 0-.587 1.173c0 .391.196.782.587 1.174.293.293.782.391 1.271.391zm6.651-14.67c-.783 0-1.37.195-1.859.586-.488.49-.782.979-.782 1.663 0 .685.391 1.272.978 1.858.685.489 1.76.978 3.13 1.369l2.249.588v1.564c0 .685-.195 1.174-.489 1.467-.293.294-.782.391-1.565.391-.489 0-.978-.097-1.173-.391-.294-.293-.294-.489 0-.782.489-.489.587-.978.391-1.467-.294-.489-.783-.685-1.467-.685-.489 0-.88.098-1.174.294-.293.293-.391.586-.391 1.075 0 .783.391 1.37 1.271 1.859.783.488 1.859.782 3.13.782 1.467 0 2.641-.294 3.521-.782.782-.489 1.174-1.272 1.174-2.25V-.391c0-.294.097-.391.097-.489.098-.098.196-.196.392-.196.097 0 .195 0 .293.098l.196.196.391-.392a2.679 2.679 0 0 0-1.174-.88c-.489-.196-.978-.391-1.369-.391-.685 0-1.272.195-1.565.587a1.895 1.895 0 0 0-.489.88c-.391-.391-.88-.685-1.271-.88-.783-.392-1.663-.489-2.445-.489zM53.008 0v3.032l-.293-.098c-.88-.196-1.565-.587-1.956-.978-.489-.391-.685-.88-.685-1.467 0-.391.098-.782.294-1.076.195-.195.489-.293.88-.293s.684 0 .978.195c.195.196.489.392.782.685zm6.553 9.976c0 .586-.098 1.075-.196 1.271-.196.196-.489.293-1.076.293v.489h4.597V6.65c.88.783 1.76 1.174 2.836 1.174 1.272 0 2.347-.489 3.228-1.369.782-.88 1.271-2.054 1.271-3.423 0-1.663-.489-2.934-1.467-3.912-.978-.978-2.347-1.467-3.912-1.467-1.076 0-1.956.293-2.934.978l-.196.195-1.858-1.173h-.293V9.976zm4.89-11.737c.782 0 1.369.392 1.76 1.076.294.685.489 1.859.489 3.423 0 1.37-.195 2.445-.489 3.032-.391.587-.978.88-1.76.88-.587 0-1.174-.391-1.565-1.173V0c0-.293.098-.587.196-.88a.997.997 0 0 1 .489-.587c.293-.196.586-.294.88-.294zM81.762 9.096c0 .977.489 1.76 1.271 2.347.88.586 1.956.978 3.325.978 1.174 0 2.152-.294 2.934-.783.685-.489 1.076-1.076 1.076-1.858s-.489-1.467-1.565-2.152c-.587-.391-1.271-.684-2.054-.88l2.152-2.836 1.467-1.761c.391.489.685.881.978 1.272.196.294.294.489.489.782.293.587.391 1.076.196 1.467-.196.294-.685.489-1.467.489v.587h4.89v-.587c-.587 0-1.076-.097-1.369-.293-.294-.293-.587-.685-.979-1.271-.293-.489-.586-.978-.978-1.37a9.801 9.801 0 0 0-1.271-1.564l.587-.685A4.59 4.59 0 0 1 92.52 0c.391-.196.684-.293 1.076-.293.293 0 .489.097.782.195.293.196.489.391.685.587l.391-.196c-.489-.978-1.076-1.662-1.663-2.054-.587-.489-1.369-.684-2.249-.684-.489 0-.978.195-1.565.391-.489.293-.978.587-1.369.978l-.294.489c-.782-.489-1.467-.88-2.151-1.174-1.076-.489-2.152-.684-3.326-.684-1.271 0-2.347.391-3.227 1.076-.783.684-1.272 1.565-1.272 2.64 0 1.076.489 2.054 1.468 2.934.684.587 1.76 1.174 3.227 1.859-.293.391-.489.782-.685 1.173-.391.783-.586 1.37-.586 1.859zM85.478-.88c.489 0 .978.195 1.565.489l.684.391-1.564 1.858c-.685.88-1.467 1.859-2.348 3.032l-.391.489c-.391-.196-.782-.391-.978-.587-.489-.391-.782-.88-.782-1.467 0-.978.391-1.956 1.173-2.836C83.62-.391 84.5-.88 85.478-.88zM84.5 10.367c0-.294.196-.782.489-1.369a8.428 8.428 0 0 1 1.271-1.663c.294.098.587.195.783.391.587.294.978.783.978 1.272 0 .782-.294 1.369-.685 1.858a1.728 1.728 0 0 1-1.467.782c-.489 0-.782-.098-.978-.293-.293-.294-.391-.587-.391-.978zm28.754-2.543c-.391 1.174-.979 2.152-1.761 2.836-.782.685-1.76 1.076-2.738 1.076-.782 0-1.467-.196-1.956-.587-.489-.391-.685-.88-.685-1.467 0-.586.196-1.075.782-1.467.489-.489 1.37-.88 2.641-1.369 1.858-.685 3.13-1.467 3.912-2.152.783-.782 1.174-1.662 1.174-2.64 0-1.369-.587-2.543-1.663-3.325-.978-.783-2.445-1.272-4.205-1.272-.978 0-2.152.293-3.423.685-.391.097-.685.097-.783.097a1.001 1.001 0 0 1-.489-.586v-.196h-.782V2.64h.685c.293-1.271.88-2.347 1.76-3.227.88-.782 1.956-1.174 3.13-1.174.88 0 1.564.196 2.151.587.489.489.782 1.076.782 1.761 0 .587-.195 1.076-.782 1.564-.489.392-1.467.881-2.836 1.37-1.663.684-2.836 1.369-3.521 2.054-.782.782-1.173 1.662-1.173 2.64 0 1.272.489 2.347 1.467 3.032.88.782 2.151 1.174 3.814 1.174.782 0 1.76-.196 2.836-.587.489-.196.782-.196 1.076-.196.196.098.391.294.489.587l.098.196h.684V7.824h-.684zM117.263 0v5.477c0 .587-.098 1.076-.293 1.271-.098.196-.489.294-.978.294v.488h4.499V0c0-.587.098-1.076.293-1.271.098-.196.489-.294.978-.294v-.489h-5.77v.489c.489 0 .88.098.978.294.195.195.293.684.293 1.271zm1.565 12.323c.587 0 .978-.098 1.369-.391.294-.392.489-.783.489-1.174 0-.489-.195-.88-.489-1.173-.391-.294-.782-.489-1.369-.489-.489 0-.88.195-1.271.489-.392.293-.489.684-.489 1.173 0 .391.097.782.489 1.174.391.293.782.391 1.271.391zM123.914 0v5.477c0 .587-.098 1.076-.293 1.271-.098.196-.489.294-.978.294v.488h4.498V5.966c.294.391.587.782.978 1.076a4.063 4.063 0 0 0 2.445.782c.88 0 1.663-.294 2.25-.88.587-.489.88-1.174.88-2.054V0c0-.587.098-1.076.293-1.271.098-.196.392-.294.881-.294v-.489h-5.673v.489c.489 0 .88.098.978.294.196.195.294.684.294 1.271v4.303c0 .783-.098 1.369-.294 1.663-.195.293-.587.391-1.076.391a1.88 1.88 0 0 1-1.173-.391c-.294-.196-.587-.489-.783-.685V0c0-.587.098-1.076.294-1.271.098-.196.489-.294.978-.294v-.489h-5.77v.489c.489 0 .88.098.978.294.195.195.293.684.293 1.271zm16.137-2.347c-1.271 0-2.249.391-3.032 1.369-.782.88-1.173 2.152-1.173 3.618 0 1.468.488 2.739 1.369 3.717.88.978 1.956 1.467 3.227 1.467.783 0 1.467-.294 2.152-.782.293-.098.489-.294.587-.489v3.423c0 .586-.098.978-.294 1.173-.195.294-.684.391-1.369.391v.489h4.988V0c0-.489.098-.782.293-.88.098-.196.489-.294 1.076-.294v-.489a76.91 76.91 0 0 1-2.347-.293 39.344 39.344 0 0 1-2.347-.391v1.271a1.188 1.188 0 0 0-.489-.489c-.783-.587-1.663-.782-2.641-.782zm1.369 8.997c-.684 0-1.271-.293-1.565-.978-.391-.586-.489-1.662-.489-3.032 0-1.369.098-2.347.392-2.933.391-.685.88-.978 1.467-.978.587 0 1.076.293 1.467.684.195.196.391.489.489.685v5.379a1.838 1.838 0 0 1-.587.684c-.391.294-.782.489-1.174.489zM156.775 0v9.976c0 .586-.195.978-.391 1.173-.293.196-.881.391-1.663.391v.489h7.335c1.956 0 3.521-.195 4.499-.782 1.076-.587 1.565-1.369 1.565-2.445 0-1.076-.587-1.956-1.761-2.543-.586-.293-1.271-.587-2.151-.684 1.076-.196 1.956-.489 2.738-.881 1.272-.586 1.956-1.565 1.956-2.738 0-1.174-.586-2.152-1.76-2.934-1.173-.783-2.739-1.076-4.597-1.076h-7.824v.489c.782 0 1.37.196 1.663.391.196.196.391.587.391 1.174zm3.814 10.367V5.672h.392c1.173 0 2.053.294 2.542.685.489.489.685 1.271.685 2.347 0 .881-.196 1.663-.587 2.054-.391.489-.978.685-1.858.685-.391 0-.782-.098-.978-.294-.098-.098-.196-.391-.196-.782zm0-5.281V-.196c0-.391.098-.684.294-.88.195-.195.587-.293 1.076-.293h.097c.978 0 1.663.195 2.054.782.489.587.685 1.369.685 2.543 0 1.076-.294 1.858-.881 2.347-.684.489-1.662.783-2.933.783h-.392zm12.617-7.433c-.783 0-1.37.195-1.858.586-.489.49-.685.979-.685 1.663 0 .685.293 1.272.978 1.858.587.489 1.662.978 3.031 1.369l2.25.588v1.564c0 .685-.098 1.174-.489 1.467-.293.294-.782.391-1.467.391-.587 0-.978-.097-1.271-.391-.294-.293-.294-.489 0-.782.489-.489.684-.978.391-1.467-.196-.489-.783-.685-1.467-.685-.489 0-.88.098-1.174.294-.195.293-.391.586-.391 1.075 0 .783.489 1.37 1.271 1.859.783.488 1.859.782 3.13.782 1.565 0 2.738-.294 3.521-.782.782-.489 1.174-1.272 1.174-2.25V-.391c0-.294.097-.391.195-.489 0-.098.196-.196.294-.196.097 0 .195 0 .293.098.098 0 .196.098.293.196l.294-.392a2.679 2.679 0 0 0-1.174-.88c-.489-.196-.978-.391-1.369-.391-.685 0-1.272.195-1.565.587-.196.195-.391.489-.391.88-.489-.391-.88-.685-1.369-.88-.783-.392-1.565-.489-2.445-.489zM176.922 0v3.032l-.293-.098c-.88-.196-1.565-.587-1.957-.978-.488-.391-.684-.88-.684-1.467 0-.391.098-.782.293-1.076.294-.195.587-.293.881-.293.391 0 .684 0 .978.195.195.196.489.392.782.685zm6.65 0v5.477c0 .587-.097 1.076-.195 1.271-.196.196-.489.294-1.076.294v.488h4.499V5.966c.293.391.587.782.978 1.076.782.488 1.565.782 2.445.782.978 0 1.663-.294 2.249-.88.685-.489.978-1.174.978-2.054V0c0-.587 0-1.076.196-1.271.098-.196.391-.294.88-.294v-.489h-5.672v.489c.587 0 .88.098 1.076.294.097.195.195.684.195 1.271v4.303c0 .783-.098 1.369-.293 1.663-.196.293-.489.391-1.076.391-.391 0-.782-.098-1.174-.391-.293-.196-.489-.489-.684-.685V0c0-.587 0-1.076.195-1.271.196-.196.489-.294.978-.294v-.489h-5.77v.489c.587 0 .88.098 1.076.294.098.195.195.684.195 1.271zm13.008 0v9.976c0 .586-.098 1.075-.196 1.271-.097.196-.488.293-.88.293v.489h4.401V3.032l1.761 1.565c1.075.978 1.662 1.564 1.76 1.956 0 .293-.489.489-1.467.489v.488h5.086v-.488c-.587 0-1.076-.098-1.467-.294-.391-.195-.978-.684-1.76-1.271l-1.272-1.174L206.067 0a9.322 9.322 0 0 1 1.076-1.271c.293-.196.488-.294.684-.294v-.489h-5.575v.489c.587 0 .881.098.881.294 0 .195-.196.684-.685 1.271l-2.054 2.543-.489-.489V0c0-.587.098-1.076.196-1.271.196-.196.489-.294.978-.294v-.489h-5.575v.489c.392 0 .783.098.88.294.098.195.196.684.196 1.271" style="fill:#fee800;fill-opacity:1;fill-rule:evenodd;stroke:none" transform="matrix(1.25 0 0 -1.25 57.964 27.939)"/><path d="M0 0v9.976c0 .586-.098.978-.391 1.173-.196.196-.783.391-1.663.391v.489h7.531c2.054 0 3.618-.293 4.694-.88.978-.684 1.565-1.662 1.565-2.836 0-1.369-.587-2.445-1.76-3.032-1.076-.684-2.935-.978-5.379-.978h-.783V0c0-.587.196-.978.391-1.174.294-.195.881-.391 1.761-.391v-.489h-8.02v.489c.88 0 1.467.196 1.663.391C-.098-.978 0-.587 0 0z" style="fill:none;stroke:none" transform="matrix(1.25 0 0 -1.25 57.964 27.939)"/><path d="M0 0h.391c1.271 0 2.152.196 2.738.685.49.586.783 1.369.783 2.64 0 1.076-.196 1.858-.685 2.347-.391.489-1.076.685-1.956.685-.489 0-.782-.098-.978-.196C.098 5.966 0 5.672 0 5.281V0z" style="fill:none;stroke:none" transform="matrix(1.25 0 0 -1.25 62.731 21.704)"/><path d="M0 0v-6.748c0-.685.098-1.174.294-1.467.097-.196.489-.391.978-.391.391 0 .88.195 1.271.391.293.196.489.391.685.587v5.574c0 .587-.098.978-.294 1.174-.195.293-.587.391-1.173.391V0h4.792v-7.53c0-.489 0-.783.195-.881.196-.195.587-.293 1.076-.293v-.489a44.742 44.742 0 0 1-2.249-.294c-.685-.097-1.467-.195-2.347-.391v1.37c-.294-.294-.587-.49-.978-.783-.783-.391-1.565-.587-2.348-.587-1.076 0-1.858.196-2.347.685-.587.587-.88 1.271-.88 2.249v4.89c0 .587-.098 1.076-.196 1.272-.195.195-.489.293-.88.293V0H0z" style="fill:none;stroke:none" transform="matrix(1.25 0 0 -1.25 78.99 18.525)"/><path d="M0 0v5.477c0 .587-.098 1.076-.293 1.271-.098.196-.49.294-.979.294v.488h4.499V5.966c.196.391.587.782.978 1.076a4.063 4.063 0 0 0 2.445.782c.881 0 1.663-.294 2.25-.88.587-.489.88-1.174.88-2.054V0c0-.587.098-1.076.196-1.271.195-.196.489-.294.978-.294v-.489H5.281v.489c.489 0 .88.098.978.294.196.195.294.684.294 1.271v4.303c0 .783-.098 1.369-.294 1.663-.195.293-.587.391-1.076.391a1.88 1.88 0 0 1-1.173-.391c-.294-.196-.587-.489-.783-.685V0c0-.587.098-1.076.294-1.271.097-.196.489-.294.978-.294v-.489h-5.771v.489c.489 0 .881.098.979.294C-.098-1.076 0-.587 0 0z" style="fill:none;stroke:none" transform="matrix(1.25 0 0 -1.25 91.583 27.937)"/><path d="M0 0c0 .489-.098.88-.293.978-.099.195-.587.293-1.174.293v.489h4.792v-9.291c0-1.565-.391-2.738-1.076-3.52-.684-.685-1.76-1.077-3.325-1.077-.88 0-1.663.196-2.249.588-.587.391-.881.978-.881 1.564 0 .294.196.587.49.88.293.196.586.392.977.392.587 0 1.076-.294 1.272-.685.195-.391.097-.782-.196-1.271-.196-.294-.293-.489-.196-.587.098-.196.392-.196.783-.196s.684.098.88.392c.098.195.196.684.196 1.173V0z" style="fill:none;stroke:none" transform="matrix(1.25 0 0 -1.25 109.309 20.725)"/><path d="M0 0c.489 0 .978-.098 1.271-.391.391-.391.587-.782.587-1.174 0-.489-.196-.88-.587-1.173C.978-3.032.489-3.227 0-3.227c-.489 0-.978.195-1.271.489a1.39 1.39 0 0 0-.587 1.173c0 .392.195.783.587 1.174C-.978-.098-.489 0 0 0z" style="fill:none;stroke:none" transform="matrix(1.25 0 0 -1.25 111.265 12.534)"/><path d="M0 0c-.782 0-1.369.196-1.858.587-.489.489-.783.978-.783 1.663 0 .684.392 1.271.978 1.858.685.489 1.761.978 3.13 1.369l2.249.587v1.565c0 .684-.195 1.173-.489 1.466-.293.294-.782.392-1.564.392-.489 0-.979-.098-1.174-.392-.293-.293-.293-.488 0-.782.489-.489.587-.978.391-1.467-.293-.489-.782-.684-1.467-.684-.489 0-.88.097-1.173.293-.294.293-.392.587-.392 1.076 0 .782.392 1.369 1.272 1.858.782.489 1.858.782 3.13.782 1.466 0 2.64-.293 3.52-.782.783-.489 1.174-1.271 1.174-2.249V1.956c0-.293.098-.391.098-.489.098-.098.195-.195.391-.195.098 0 .196 0 .293.097l.196.196.391-.391A2.664 2.664 0 0 0 7.14.293c-.489-.195-.978-.391-1.37-.391-.684 0-1.271.196-1.565.587a1.9 1.9 0 0 0-.489.88c-.391-.391-.88-.684-1.271-.88C1.663.098.782 0 0 0z" style="fill:none;stroke:none" transform="matrix(1.25 0 0 -1.25 119.578 30.871)"/><path d="M0 0v3.032l-.293-.098c-.88-.196-1.565-.587-1.956-.978-.49-.391-.685-.88-.685-1.467 0-.391.098-.782.294-1.076.195-.195.489-.293.88-.293s.684 0 .978.195c.195.196.489.392.782.685z" style="fill:none;stroke:none" transform="matrix(1.25 0 0 -1.25 124.223 27.937)"/><path d="M0 0c0 .587-.098 1.076-.196 1.271-.195.196-.489.294-1.075.294v.489h4.596v-5.379c.88.782 1.761 1.173 2.837 1.173 1.271 0 2.347-.489 3.227-1.369.783-.88 1.272-2.054 1.272-3.423 0-1.663-.489-2.934-1.468-3.912-.978-.978-2.347-1.467-3.911-1.467-1.077 0-1.957.293-2.935.978l-.195.196-1.859-1.174H0V0z" style="fill:none;stroke:none" transform="matrix(1.25 0 0 -1.25 132.414 15.467)"/><path d="M0 0c.783 0 1.37.391 1.761 1.076.293.685.489 1.858.489 3.423 0 1.369-.196 2.445-.489 3.032-.391.587-.978.88-1.761.88-.587 0-1.173-.391-1.565-1.174V1.761c0-.294.098-.587.196-.881.098-.293.293-.489.489-.587C-.587.098-.293 0 0 0z" style="fill:none;stroke:none" transform="matrix(1.25 0 0 -1.25 138.526 30.137)"/><path d="M0 0c0 .978.489 1.76 1.271 2.347.881.587 1.957.978 3.326.978 1.173 0 2.151-.293 2.934-.782.684-.489 1.076-1.076 1.076-1.858 0-.783-.489-1.468-1.565-2.152-.587-.391-1.272-.685-2.054-.88L7.14-5.183l1.467-1.761c.391.489.684.88.977 1.271.196.294.294.49.489.783.294.587.392 1.076.196 1.467-.196.293-.685.489-1.467.489v.587h4.89v-.587c-.587 0-1.076-.098-1.369-.294-.293-.293-.587-.684-.978-1.271-.293-.489-.587-.978-.978-1.369a9.91 9.91 0 0 0-1.271-1.565l.586-.685a4.61 4.61 0 0 1 1.076-.978c.391-.195.685-.293 1.076-.293.293 0 .489.098.782.196.294.195.489.391.685.586l.391-.195c-.489-.978-1.076-1.663-1.662-2.054-.587-.489-1.37-.685-2.25-.685-.489 0-.978.196-1.565.391-.489.294-.978.587-1.369.979l-.293.489c-.783-.489-1.467-.881-2.152-1.174-1.076-.489-2.151-.685-3.325-.685-1.272 0-2.347.391-3.227 1.076-.783.685-1.272 1.565-1.272 2.641s.489 2.053 1.467 2.934c.685.587 1.76 1.173 3.227 1.858-.293.391-.489.782-.684 1.174C.196-1.076 0-.489 0 0z" style="fill:none;stroke:none" transform="matrix(1.25 0 0 -1.25 160.165 16.567)"/><path d="M0 0c.489 0 .978.196 1.565.489l.684.391L.685 2.738C0 3.618-.782 4.597-1.663 5.77l-.391.489c-.391-.195-.782-.391-.978-.587-.489-.391-.782-.88-.782-1.467 0-.978.391-1.956 1.173-2.836C-1.858.489-.978 0 0 0z" style="fill:none;stroke:none" transform="matrix(1.25 0 0 -1.25 164.81 29.037)"/><path d="M0 0c0-.293.195-.782.489-1.369A8.351 8.351 0 0 1 1.76-3.032c.294.098.587.196.783.391.586.294.978.783.978 1.272 0 .782-.294 1.369-.685 1.858a1.728 1.728 0 0 1-1.467.782c-.489 0-.782-.097-.978-.293C.098.685 0 .391 0 0z" style="fill:none;stroke:none" transform="matrix(1.25 0 0 -1.25 163.588 14.979)"/><path d="M0 0c-.391 1.174-.978 2.152-1.76 2.836-.783.685-1.761 1.076-2.739 1.076-.782 0-1.467-.196-1.956-.587-.489-.391-.684-.88-.684-1.467 0-.586.195-1.075.782-1.467.489-.489 1.369-.88 2.641-1.369C-1.858-1.663-.587-2.445.196-3.129c.782-.783 1.173-1.663 1.173-2.641 0-1.369-.587-2.543-1.662-3.325-.978-.783-2.446-1.272-4.206-1.272-.978 0-2.152.294-3.423.685-.391.097-.685.097-.782.097a.998.998 0 0 1-.489-.586v-.196h-.783v5.184h.685c.293-1.272.88-2.348 1.76-3.228.88-.782 1.956-1.174 3.13-1.174.88 0 1.565.196 2.151.588.49.489.783 1.075.783 1.76 0 .587-.196 1.076-.783 1.565-.489.391-1.466.88-2.836 1.369-1.662.685-2.836 1.369-3.521 2.054-.782.782-1.173 1.662-1.173 2.64 0 1.272.489 2.348 1.467 3.032.88.782 2.151 1.174 3.814 1.174.783 0 1.76-.196 2.836-.587.489-.196.783-.196 1.076-.196.196.098.391.294.489.587L0 4.597h.685V0H0z" style="fill:none;stroke:none" transform="matrix(1.25 0 0 -1.25 199.529 18.157)"/><path d="M0 0v5.477c0 .587-.098 1.076-.293 1.271-.098.196-.489.294-.978.294v.488h4.498V0c0-.587.098-1.076.294-1.271.098-.196.489-.294.978-.294v-.489h-5.77v.489c.489 0 .88.098.978.294C-.098-1.076 0-.587 0 0z" style="fill:none;stroke:none" transform="matrix(1.25 0 0 -1.25 204.541 27.937)"/><path d="M0 0c.587 0 .978-.098 1.369-.391.293-.391.489-.782.489-1.174 0-.489-.196-.88-.489-1.173C.978-3.032.587-3.227 0-3.227c-.489 0-.88.195-1.271.489-.392.293-.489.684-.489 1.173 0 .392.097.783.489 1.174C-.88-.098-.489 0 0 0z" style="fill:none;stroke:none" transform="matrix(1.25 0 0 -1.25 206.498 12.534)"/><path d="M0 0v5.477c0 .587-.098 1.076-.293 1.271-.098.196-.489.294-.978.294v.488h4.499V5.966c.293.391.586.782.977 1.076a4.063 4.063 0 0 0 2.445.782c.88 0 1.663-.294 2.25-.88.587-.489.88-1.174.88-2.054V0c0-.587.098-1.076.293-1.271.098-.196.392-.294.881-.294v-.489H5.281v.489c.489 0 .88.098.978.294.196.195.294.684.294 1.271v4.303c0 .783-.098 1.369-.294 1.663-.195.293-.587.391-1.076.391a1.88 1.88 0 0 1-1.173-.391c-.294-.196-.587-.489-.782-.685V0c0-.587.097-1.076.293-1.271.098-.196.489-.294.978-.294v-.489h-5.77v.489c.489 0 .88.098.978.294C-.098-1.076 0-.587 0 0z" style="fill:none;stroke:none" transform="matrix(1.25 0 0 -1.25 212.855 27.937)"/><path d="M0 0c-1.271 0-2.249.391-3.031 1.369-.783.881-1.174 2.152-1.174 3.619s.488 2.738 1.369 3.716c.88.978 1.956 1.467 3.227 1.467.783 0 1.467-.293 2.152-.782.293-.098.489-.294.587-.489v3.423c0 .587-.098.978-.294 1.174-.195.293-.684.391-1.369.391v.489h4.988V2.347c0-.489.098-.782.293-.88.098-.195.489-.293 1.076-.293V.685A76.66 76.66 0 0 1 5.477.391C4.792.293 4.108.196 3.13 0v1.272a1.184 1.184 0 0 0-.489-.49C1.858.196.978 0 0 0z" style="fill:none;stroke:none" transform="matrix(1.25 0 0 -1.25 233.026 30.871)"/><path d="M0 0c-.685 0-1.272-.293-1.565-.978-.391-.587-.489-1.662-.489-3.032 0-1.369.098-2.347.391-2.934.391-.684.88-.978 1.468-.978.586 0 1.075.294 1.466.685.196.195.392.489.489.684v5.379a1.827 1.827 0 0 1-.586.685C.782-.196.391 0 0 0z" style="fill:none;stroke:none" transform="matrix(1.25 0 0 -1.25 234.738 19.624)"/><path d="M0 0v9.976c0 .586-.196.978-.391 1.173-.294.196-.881.391-1.663.391v.489h7.335c1.956 0 3.521-.195 4.499-.782 1.076-.587 1.565-1.369 1.565-2.445 0-1.076-.587-1.956-1.761-2.543-.586-.293-1.271-.587-2.151-.684 1.076-.196 1.956-.489 2.738-.881 1.272-.586 1.956-1.565 1.956-2.738 0-1.174-.587-2.152-1.76-2.934-1.174-.783-2.739-1.076-4.597-1.076h-7.824v.489c.782 0 1.369.196 1.663.391C-.196-.978 0-.587 0 0z" style="fill:none;stroke:none" transform="matrix(1.25 0 0 -1.25 253.931 27.936)"/><path d="M0 0v-4.694h.391c1.174 0 2.054.293 2.543.684.489.489.685 1.271.685 2.348 0 .88-.196 1.662-.587 2.053-.391.489-.978.685-1.859.685-.391 0-.782-.098-.977-.294C.098.685 0 .391 0 0z" style="fill:none;stroke:none" transform="matrix(1.25 0 0 -1.25 258.699 14.977)"/><path d="M0 0v-5.281c0-.391.098-.685.293-.88.196-.196.587-.294 1.076-.294h.098c.978 0 1.663.196 2.054.783.489.586.684 1.369.684 2.542 0 1.076-.293 1.859-.88 2.348C2.641-.293 1.663 0 .391 0H0z" style="fill:none;stroke:none" transform="matrix(1.25 0 0 -1.25 258.699 21.579)"/><path d="M0 0c-.782 0-1.369.196-1.858.587-.489.489-.685.978-.685 1.663 0 .684.294 1.271.978 1.858.587.489 1.663.978 3.032 1.369l2.249.587v1.565c0 .684-.097 1.173-.489 1.466-.293.294-.782.392-1.466.392-.588 0-.979-.098-1.272-.392-.293-.293-.293-.488 0-.782.489-.489.684-.978.391-1.467-.196-.489-.782-.684-1.467-.684-.489 0-.88.097-1.173.293-.196.293-.392.587-.392 1.076 0 .782.489 1.369 1.272 1.858.782.489 1.858.782 3.13.782 1.564 0 2.738-.293 3.52-.782.783-.489 1.174-1.271 1.174-2.249V1.956c0-.293.098-.391.196-.489 0-.098.195-.195.293-.195.098 0 .196 0 .293.097.098 0 .196.098.294.196l.293-.391A2.664 2.664 0 0 0 7.14.293c-.489-.195-.979-.391-1.37-.391-.684 0-1.271.196-1.565.587-.195.196-.391.489-.391.88-.489-.391-.88-.684-1.369-.88C1.663.098.88 0 0 0z" style="fill:none;stroke:none" transform="matrix(1.25 0 0 -1.25 274.469 30.87)"/><path d="M0 0v3.032l-.293-.098c-.88-.196-1.565-.587-1.957-.978-.488-.391-.684-.88-.684-1.467 0-.391.098-.782.293-1.076.294-.195.587-.293.881-.293.391 0 .684 0 .978.195.195.196.489.392.782.685z" style="fill:none;stroke:none" transform="matrix(1.25 0 0 -1.25 279.114 27.936)"/><path d="M0 0v5.477c0 .587-.098 1.076-.196 1.271-.195.196-.488.294-1.075.294v.488h4.499V5.966c.293.391.586.782.978 1.076.782.488 1.565.782 2.445.782.978 0 1.662-.294 2.249-.88.685-.489.978-1.174.978-2.054V0c0-.587 0-1.076.196-1.271.097-.196.391-.294.88-.294v-.489H5.281v.489c.587 0 .881.098 1.076.294.098.195.196.684.196 1.271v4.303c0 .783-.098 1.369-.293 1.663-.196.293-.489.391-1.077.391a1.88 1.88 0 0 1-1.173-.391c-.293-.196-.489-.489-.685-.685V0c0-.587 0-1.076.196-1.271.196-.196.489-.294.978-.294v-.489h-5.77v.489c.587 0 .88.098 1.075.294C-.098-1.076 0-.587 0 0z" style="fill:none;stroke:none" transform="matrix(1.25 0 0 -1.25 287.426 27.936)"/><path d="M0 0v9.976c0 .586-.098 1.075-.196 1.271-.097.196-.488.293-.88.293v.489h4.401V3.032l1.761 1.565c1.075.978 1.662 1.564 1.76 1.956 0 .293-.489.489-1.467.489v.488h5.086v-.488c-.587 0-1.076-.098-1.467-.294-.391-.195-.978-.684-1.76-1.271L5.966 4.303 9.487 0a9.322 9.322 0 0 1 1.076-1.271c.293-.196.488-.294.684-.294v-.489H5.672v.489c.587 0 .881.098.881.294 0 .195-.196.684-.685 1.271L3.814 2.543l-.489-.489V0c0-.587.098-1.076.196-1.271.196-.196.489-.294.978-.294v-.489h-5.575v.489c.392 0 .783.098.88.294C-.098-1.076 0-.587 0 0z" style="fill:none;stroke:none" transform="matrix(1.25 0 0 -1.25 303.686 27.936)"/><path d="M0 0h-.88c-.391.685-.782 1.369-.978 2.151-.196.685-.392 1.37-.392 2.054 0 .881.196 1.663.49 2.348.195.684.587 1.271.978 1.858H0c-.391-.88-.684-1.663-.782-2.25a6.289 6.289 0 0 1-.294-1.956c0-.489.098-.978.196-1.467l.293-1.467C-.391.978-.293.587 0 0zm6.65 1.956H5.281l-.586 1.369H2.152l-.489-1.369H.294l2.444 6.357h1.37L6.65 1.956zM4.303 4.401l-.88 2.347-.88-2.347h1.76zm8.509-.196v1.076h2.738V2.836c-.293-.293-.684-.489-1.173-.782a4.047 4.047 0 0 0-1.565-.294c-.587 0-1.174.196-1.663.489-.586.294-.88.685-1.173 1.174-.196.489-.391 1.076-.391 1.663 0 .684.195 1.271.489 1.76.195.587.684.978 1.173 1.271.391.196.88.294 1.565.294.782 0 1.369-.196 1.858-.489.391-.391.685-.783.783-1.369l-1.272-.294c-.098.294-.195.587-.489.783-.195.195-.586.293-.88.293-.587 0-1.076-.196-1.369-.587-.294-.391-.489-.88-.489-1.565 0-.782.195-1.369.489-1.76.293-.294.782-.489 1.369-.489.196 0 .489 0 .782.098.294.097.489.293.685.391v.782h-1.467zm3.619.098c0 .391.097.783.293 1.174.196.391.489.684.88.88.392.196.783.293 1.272.293a2.36 2.36 0 0 0 1.662-.684c.489-.489.685-1.076.685-1.761 0-.684-.196-1.271-.685-1.662a2.089 2.089 0 0 0-1.662-.783c-.489 0-.88.098-1.272.294a1.92 1.92 0 0 0-.88.88c-.196.391-.293.782-.293 1.369zm1.271-.098c0-.489.098-.782.294-1.076.293-.195.489-.293.88-.293.293 0 .587.098.782.293.196.294.294.587.294 1.076 0 .489-.098.783-.294 1.076-.195.196-.489.391-.782.391-.391 0-.587-.195-.88-.391-.196-.293-.294-.587-.294-1.076zm5.77-2.249-1.858 4.597h1.272l.88-2.348.195-.782c.098.195.098.293.196.391 0 .098 0 .196.098.391l.88 2.348h1.271l-1.858-4.597h-1.076zm5.771 4.597v-.978h-.881V3.716c0-.391.098-.587.098-.684 0-.098 0-.098.098-.196h.196c.097 0 .293 0 .489.098l.097-.978c-.293-.098-.586-.196-.978-.196-.195 0-.391.098-.586.196-.196 0-.294.098-.391.293-.098.098-.098.196-.196.391v2.935h-.587v.978h.587v.88l1.173.684V6.553h.881zm2.053-4.597h-1.174v1.173h1.174V1.956zm-1.173 0zm4.596 2.347c0 .391.098.783.294 1.174.195.391.489.684.88.88.391.196.783.293 1.272.293a2.36 2.36 0 0 0 1.662-.684c.489-.489.685-1.076.685-1.761 0-.684-.196-1.271-.685-1.662-.489-.489-.978-.783-1.662-.783-.489 0-.881.098-1.272.294a1.915 1.915 0 0 0-.88.88c-.196.391-.294.782-.294 1.369zm1.272-.098c0-.489.098-.782.293-1.076.294-.195.489-.293.881-.293.293 0 .586.098.782.293.196.294.293.587.293 1.076 0 .489-.097.783-.293 1.076-.196.196-.489.391-.782.391-.392 0-.587-.195-.881-.391-.195-.293-.293-.587-.293-1.076zm3.912 2.348h.684v.293c0 .391.098.685.098.88.098.196.294.391.489.489.196.098.489.196.881.196.293 0 .684-.098.978-.196l-.196-.88c-.196.098-.293.098-.489.098s-.293 0-.391-.098c-.098-.098-.098-.293-.098-.489v-.293h.88v-.978h-.88V1.956h-1.272v3.619h-.684v.978zm7.237-4.597h-1.272v6.357h1.272V1.956zm-1.271 0zm6.65 0h-1.173v2.347c0 .489 0 .783-.098.88 0 .196-.098.294-.196.392-.195.097-.293.097-.489.097-.195 0-.391 0-.587-.195-.097-.098-.195-.196-.293-.391-.098-.196-.098-.587-.098-1.076V1.956h-1.271v4.597h1.173v-.685c.392.489.881.782 1.565.782.196 0 .489-.097.685-.195.195-.098.391-.196.489-.391.098-.098.196-.294.293-.489V1.956zm5.477 0H56.92v.587a4.19 4.19 0 0 0-.684-.587c-.294-.098-.489-.196-.783-.196-.489 0-.978.294-1.369.685-.391.391-.587.978-.587 1.76 0 .783.196 1.37.587 1.859.391.391.782.586 1.369.586.489 0 .978-.195 1.37-.684v2.347h1.173V1.956zm-3.227 2.347c0-.489.097-.88.195-1.076.196-.293.489-.489.88-.489.196 0 .49.196.685.391.196.196.294.587.294 1.076 0 .489-.098.881-.294 1.174-.195.196-.391.293-.782.293-.196 0-.489-.097-.685-.293-.196-.293-.293-.587-.293-1.076zm5.672 2.836h-1.174v1.173h1.174V7.139zm-1.174 0zm1.174-5.183h-1.174v4.596h1.174V1.956zm-1.174 0zm3.326 3.13-1.076.195c.098.489.293.783.587.978.391.294.782.391 1.369.391s.978-.097 1.271-.195c.294-.196.391-.294.587-.489.098-.196.098-.587.098-1.076V3.423c0-.391 0-.685.098-.88 0-.196.098-.392.196-.587h-1.174c-.098 0-.098.195-.196.293v.196c-.196-.196-.391-.391-.684-.489a1.842 1.842 0 0 0-.783-.196c-.489 0-.782.196-1.076.391-.293.294-.391.587-.391.978 0 .294 0 .489.196.783.098.195.293.293.489.391.195.098.587.196.978.294.587.097.978.195 1.173.293v.196a.753.753 0 0 1-.195.489c-.098.097-.294.097-.685.097-.195 0-.293 0-.489-.097-.098-.098-.195-.196-.293-.489zm1.662-.979c-.195 0-.391-.097-.782-.195-.293 0-.489-.098-.587-.196-.195-.098-.293-.293-.293-.391a.75.75 0 0 1 .195-.489.748.748 0 0 1 .489-.196c.196 0 .392.098.587.196.196.196.293.293.293.489.098.098.098.293.098.587v.195zm4.89 4.206h1.272V3.814c.098-.293.196-.489.391-.685.294-.195.489-.195.88-.195s.685 0 .88.195c.098.098.294.294.294.587 0 .196.098.489.098 1.076v3.521h1.271V4.89c0-.685-.098-1.272-.098-1.565-.098-.293-.195-.587-.391-.782-.196-.196-.489-.392-.782-.587a3.83 3.83 0 0 0-1.272-.196c-.586 0-.978.098-1.369.294-.293.097-.489.293-.685.489-.195.195-.293.489-.391.684-.098.391-.098.978-.098 1.663v3.423zm10.563-6.357h-1.174v2.347c0 .489 0 .783-.098.88 0 .196-.097.294-.293.392-.098.097-.196.097-.391.097-.196 0-.391 0-.587-.195-.098-.098-.293-.196-.293-.391-.098-.196-.098-.587-.098-1.076V1.956h-1.271v4.597h1.173v-.685c.391.489.88.782 1.467.782.293 0 .587-.097.782-.195.196-.098.392-.196.489-.391.098-.098.196-.294.294-.489V1.956zm5.477 0h-1.076v.587c-.196-.196-.489-.392-.685-.587-.293-.098-.489-.196-.782-.196-.587 0-.978.294-1.369.685-.391.391-.587.978-.587 1.76 0 .783.196 1.37.587 1.859.391.391.782.586 1.369.586.489 0 .978-.195 1.369-.684v2.347h1.174V1.956zm-3.228 2.347c0-.489.098-.88.196-1.076.196-.293.489-.489.782-.489.294 0 .587.196.783.391.195.196.293.587.293 1.076 0 .489-.098.881-.293 1.174-.196.196-.489.293-.783.293a.885.885 0 0 1-.684-.293c-.196-.293-.294-.587-.294-1.076zm7.14-.88 1.174-.294a1.8 1.8 0 0 0-.685-.978c-.391-.195-.783-.391-1.272-.391-.782 0-1.369.294-1.76.88-.391.392-.489.881-.489 1.565 0 .783.195 1.37.587 1.761.391.489.88.684 1.565.684.684 0 1.173-.293 1.565-.684.391-.489.586-1.174.586-2.054h-3.032c0-.391.098-.685.294-.88.195-.196.391-.294.684-.294.196 0 .392 0 .489.098.098.098.196.293.294.587zm.098 1.174c-.098.391-.098.684-.294.782a.885.885 0 0 1-.684.293c-.196 0-.489-.097-.587-.293-.196-.196-.294-.391-.294-.782h1.859zm3.325-2.641h-1.174v4.597h1.076v-.685c.196.293.391.489.587.587a.745.745 0 0 0 .489.195c.293 0 .587-.097.782-.293l-.391-.978c-.196.098-.391.196-.587.196-.098 0-.293-.098-.391-.196-.098-.098-.196-.293-.293-.489-.098-.293-.098-.783-.098-1.565V1.956zm4.401 4.597v-.978h-.782V3.032c0-.098 0-.098.097-.196h.196c.098 0 .293 0 .489.098l.098-.978c-.294-.098-.587-.196-.978-.196-.196 0-.391.098-.587.196-.196 0-.293.098-.391.293-.098.098-.098.196-.196.391v2.935h-.587v.978h.587v.88l1.272.684V6.553h.782zm1.761-1.467-1.077.195c.098.489.294.783.587.978.294.294.783.391 1.37.391.586 0 .978-.097 1.271-.195.196-.196.391-.294.489-.489.196-.196.196-.587.196-1.076V3.423c0-.391 0-.685.097-.88 0-.196.098-.392.196-.587h-1.271s0 .195-.098.293v.196a2.968 2.968 0 0 0-.685-.489 1.837 1.837 0 0 0-.782-.196c-.489 0-.783.196-1.076.391-.294.294-.391.587-.391.978 0 .294 0 .489.097.783.196.195.294.293.587.391.196.098.49.196.979.294.586.097.977.195 1.173.293v.196a.748.748 0 0 1-.196.489c-.097.097-.293.097-.684.097-.196 0-.391 0-.489-.097-.098-.098-.196-.196-.293-.489zm1.662-.979c-.196 0-.391-.097-.782-.195-.294 0-.489-.098-.685-.196-.098-.098-.195-.293-.195-.391 0-.196.097-.391.195-.489a.748.748 0 0 1 .489-.196c.196 0 .391.098.587.196.195.196.293.293.293.489.098.098.098.293.098.587v.195zm2.347-2.151v6.357h1.174V4.89l1.467 1.663h1.467l-1.565-1.761 1.76-2.836h-1.369l-1.173 2.054-.587-.587V1.956h-1.174zm6.162 5.183h-1.174v1.173h1.174V7.139zm-1.174 0zm1.174-5.183h-1.174v4.596h1.174V1.956zm-1.174 0zm6.651 0h-1.174v2.347c0 .489-.098.783-.098.88-.098.196-.196.294-.293.392-.098.097-.196.097-.392.097-.195 0-.391 0-.586-.195-.196-.098-.294-.196-.294-.391-.098-.196-.098-.587-.098-1.076V1.956h-1.271v4.597h1.174v-.685c.391.489.88.782 1.467.782.293 0 .587-.097.782-.195.196-.098.391-.196.489-.391a.748.748 0 0 0 .196-.489c.098-.196.098-.489.098-.783V1.956zm1.173-.391 1.369-.098c0-.196.098-.293.196-.391.098-.098.293-.098.489-.098.293 0 .587 0 .685.098.195.098.195.195.293.391 0 .098.098.293.098.489v.684c-.391-.489-.881-.684-1.467-.684-.587 0-1.076.195-1.467.782-.294.391-.391.88-.391 1.467 0 .783.195 1.37.586 1.859.392.391.783.586 1.369.586.587 0 1.076-.293 1.37-.782v.685h1.173V2.347c0-.489 0-.88-.097-1.173-.098-.294-.294-.489-.392-.685a4.641 4.641 0 0 0-.684-.293c-.294-.098-.587-.196-.978-.196-.783 0-1.369.196-1.663.489-.391.196-.489.587-.489.978v.098zm1.076 2.738c0-.489.098-.88.293-1.076.196-.195.391-.293.685-.293.293 0 .489.098.782.293.196.294.294.587.294 1.076 0 .489-.098.783-.294 1.076-.195.196-.489.293-.782.293-.294 0-.489-.097-.685-.293-.195-.293-.293-.587-.293-1.076zM120.687 0c.195.587.391.978.489 1.271.097.196.195.587.293.88.098.392.098.685.196 1.076v.978c0 .685 0 1.37-.196 1.956-.098.587-.391 1.37-.782 2.25h.782c.489-.685.782-1.272 1.076-1.956.196-.783.293-1.467.293-2.152 0-.587-.097-1.271-.293-1.956-.196-.782-.489-1.565-1.076-2.347h-.782" style="fill:#fee800;fill-opacity:1;fill-rule:evenodd;stroke:none" transform="matrix(1.25 0 0 -1.25 111.144 53.244)"/><path d="M0 0h-.88c-.391.685-.782 1.369-.978 2.151-.196.685-.392 1.37-.392 2.054 0 .881.196 1.663.49 2.348.195.684.587 1.271.978 1.858H0c-.391-.88-.684-1.663-.782-2.25a6.289 6.289 0 0 1-.294-1.956c0-.489.098-.978.196-1.467l.293-1.467C-.391.978-.293.587 0 0z" style="fill:none;stroke:none" transform="matrix(1.25 0 0 -1.25 111.144 53.244)"/><path d="M0 0h-1.369l-.587 1.369h-2.543L-4.988 0h-1.369l2.445 6.357h1.369L0 0z" style="fill:none;stroke:none" transform="matrix(1.25 0 0 -1.25 119.456 50.799)"/><path d="m0 0-.88 2.347L-1.761 0H0z" style="fill:none;stroke:none" transform="matrix(.97866 0 0 -1.02096 131.922 47.116)"/><path d="M0 0v1.076h2.738v-2.445c-.293-.294-.684-.489-1.173-.782A4.047 4.047 0 0 0 0-2.445c-.587 0-1.174.196-1.663.489-.587.293-.88.685-1.173 1.174-.196.489-.392 1.076-.392 1.662 0 .685.196 1.272.489 1.761.196.587.685.978 1.174 1.271.391.196.88.293 1.565.293.782 0 1.369-.195 1.858-.489.391-.391.685-.782.783-1.369l-1.272-.293c-.098.293-.195.587-.489.782-.196.196-.587.294-.88.294-.587 0-1.076-.196-1.369-.587-.294-.391-.49-.88-.49-1.565 0-.782.196-1.369.49-1.76.293-.294.782-.489 1.369-.489.195 0 .489 0 .782.097.294.098.489.294.685.392V0H0z" style="fill:none;stroke:none" transform="matrix(1.25 0 0 -1.25 127.159 47.987)"/><path d="M0 0c0 .391.098.783.293 1.174.196.391.489.684.881.88a2.7 2.7 0 0 0 1.271.293c.685 0 1.271-.293 1.663-.684.489-.489.684-1.076.684-1.761 0-.684-.195-1.271-.684-1.662a2.09 2.09 0 0 0-1.663-.783 2.7 2.7 0 0 0-1.271.294 1.917 1.917 0 0 0-.881.88C.098-.978 0-.587 0 0z" style="fill:none;stroke:none" transform="matrix(.97866 0 0 -1.02096 143.79 47.216)"/><path d="M0 0c0-.489.098-.782.293-1.076.294-.195.489-.293.88-.293.294 0 .587.098.783.293.196.294.293.587.293 1.076 0 .489-.097.783-.293 1.076-.196.196-.489.391-.783.391-.391 0-.586-.195-.88-.391C.098.783 0 .489 0 0z" style="fill:none;stroke:none" transform="matrix(.97866 0 0 -1.02096 145.035 47.316)"/><path d="m0 0-1.858 4.597h1.271l.88-2.348.196-.782c.098.196.098.293.196.391 0 .098 0 .196.097.391l.881 2.348h1.271L1.076 0H0z" style="fill:none;stroke:none" transform="matrix(.97866 0 0 -1.02096 150.682 49.612)"/><path d="M0 0v-.978h-.88v-1.858c0-.392.098-.587.098-.685 0-.098 0-.098.097-.195h.196c.098 0 .293 0 .489.097l.098-.978c-.294-.097-.587-.195-.978-.195-.196 0-.391.098-.587.195-.196 0-.293.098-.391.294-.098.098-.098.195-.196.391v2.934h-.587V0h.587v.88l1.174.685V0H0zm2.054-4.597H.88v1.173h1.174v-1.173z" style="fill:none;stroke:none" transform="matrix(1.25 0 0 -1.25 147.696 45.052)"/><path d="M0 0z" style="fill:none;stroke:none" transform="matrix(.97866 0 0 -1.02096 157.52 50.93)"/><path d="M0 0c0 .391.098.783.293 1.174.196.391.489.684.881.88a2.7 2.7 0 0 0 1.271.293 2.36 2.36 0 0 0 1.663-.684c.489-.489.684-1.076.684-1.761 0-.684-.195-1.271-.684-1.662-.489-.489-.978-.783-1.663-.783a2.7 2.7 0 0 0-1.271.294 1.917 1.917 0 0 0-.881.88C.098-.978 0-.587 0 0z" style="fill:none;stroke:none" transform="matrix(.97866 0 0 -1.02096 161.689 47.216)"/><path d="M0 0c0-.489.098-.782.293-1.076.294-.195.49-.293.881-.293.293 0 .587.098.782.293.196.294.294.587.294 1.076 0 .489-.098.783-.294 1.076-.195.196-.489.391-.782.391-.391 0-.587-.195-.881-.391C.098.783 0 .489 0 0z" style="fill:none;stroke:none" transform="matrix(.97866 0 0 -1.02096 162.933 47.316)"/><path d="M0 0h.685v.293c0 .392.097.685.097.881.098.195.294.391.489.489.196.097.49.195.881.195.293 0 .684-.098.978-.195L2.934.782C2.739.88 2.641.88 2.445.88c-.195 0-.293 0-.391-.098-.098-.097-.098-.293-.098-.489V0h.88v-.978h-.88v-3.619H.685v3.619H0V0zm7.238-4.597H5.966V1.76h1.272v-6.357z" style="fill:none;stroke:none" transform="matrix(1.25 0 0 -1.25 161.021 45.054)"/><path d="M0 0z" style="fill:none;stroke:none" transform="matrix(.97866 0 0 -1.02096 172.93 50.931)"/><path d="M0 0h-1.174v2.347c0 .489 0 .783-.097.881 0 .195-.098.293-.196.391-.195.097-.294.097-.489.097-.196 0-.391 0-.587-.195-.098-.098-.196-.196-.293-.391-.098-.196-.098-.587-.098-1.076V0h-1.271v4.597h1.173v-.685c.391.489.88.782 1.565.782.196 0 .489-.097.685-.195.195-.098.391-.196.489-.391.097-.098.195-.294.293-.489V0z" style="fill:none;stroke:none" transform="matrix(.97866 0 0 -1.02096 179.109 49.613)"/><path d="M0 0h-1.076v.587A4.239 4.239 0 0 0-1.76 0c-.294-.098-.489-.196-.783-.196-.489 0-.978.294-1.369.685-.391.391-.587.978-.587 1.76 0 .783.196 1.37.587 1.859.391.391.782.586 1.369.586.489 0 .978-.195 1.37-.684v2.347H0V0z" style="fill:none;stroke:none" transform="matrix(1.25 0 0 -1.25 183.639 50.8)"/><path d="M0 0c0-.489.098-.88.196-1.076.195-.293.488-.489.88-.489.196 0 .489.196.685.391.195.196.293.587.293 1.076 0 .489-.098.881-.293 1.174-.196.196-.392.293-.783.293-.196 0-.489-.097-.685-.293C.098.783 0 .489 0 0zm5.673 2.836H4.499v1.173h1.174V2.836z" style="fill:none;stroke:none" transform="matrix(1.25 0 0 -1.25 179.605 47.866)"/><path d="M0 0zm1.174-5.183H0v4.596h1.174v-4.596z" style="fill:none;stroke:none" transform="matrix(.97866 0 0 -1.02096 185.714 44.321)"/><path d="M0 0z" style="fill:none;stroke:none" transform="matrix(.97866 0 0 -1.02096 186.043 50.931)"/><path d="m0 0-1.076.196c.098.489.294.782.587.978.391.293.783.391 1.369.391a3.83 3.83 0 0 0 1.272-.196c.293-.195.391-.293.587-.489.098-.195.098-.587.098-1.076v-1.467c0-.391 0-.684.097-.88 0-.196.098-.391.196-.587H1.956c-.098 0-.098.196-.196.294v.195c-.195-.195-.391-.391-.684-.489a1.84 1.84 0 0 0-.782-.195c-.489 0-.783.195-1.076.391-.294.293-.391.587-.391.978 0 .293 0 .489.195.782.098.196.294.294.489.391.196.098.587.196.978.294.587.098.978.196 1.174.293V0a.746.746 0 0 1-.196.489c-.098.098-.293.098-.685.098-.195 0-.293 0-.488-.098C.196.391.098.293 0 0z" style="fill:none;stroke:none" transform="matrix(.97866 0 0 -1.02096 188.968 46.417)"/><path d="M0 0c-.196 0-.391-.098-.782-.196-.294 0-.489-.097-.587-.195-.196-.098-.294-.294-.294-.391 0-.196.098-.392.196-.489a.746.746 0 0 1 .489-.196c.196 0 .391.098.587.196.195.195.293.293.293.489C0-.685 0-.489 0-.196V0z" style="fill:none;stroke:none" transform="matrix(.97866 0 0 -1.02096 190.595 47.416)"/><path d="M0 0h1.272v-4.499c.097-.293.195-.489.391-.684.293-.196.489-.196.88-.196s.685 0 .88.196c.098.097.294.293.294.586 0 .196.097.489.097 1.076V0h1.272v-3.423c0-.685-.098-1.271-.098-1.565-.098-.293-.196-.587-.391-.782-.196-.196-.489-.391-.783-.587a3.819 3.819 0 0 0-1.271-.196c-.587 0-.978.098-1.369.294-.294.098-.489.293-.685.489-.196.195-.293.489-.391.684C0-4.694 0-4.108 0-3.423V0z" style="fill:none;stroke:none" transform="matrix(1.25 0 0 -1.25 197.576 42.854)"/><path d="M0 0h-1.174v2.347c0 .489 0 .783-.098.881 0 .195-.097.293-.293.391-.098.097-.196.097-.391.097-.196 0-.391 0-.587-.195-.098-.098-.293-.196-.293-.391-.098-.196-.098-.587-.098-1.076V0h-1.271v4.597h1.173v-.685c.391.489.88.782 1.467.782.293 0 .587-.097.782-.195.196-.098.392-.196.489-.391.098-.098.196-.294.294-.489V0z" style="fill:none;stroke:none" transform="matrix(.97866 0 0 -1.02096 205.718 49.613)"/><path d="M0 0h-1.076v.587C-1.272.391-1.565.196-1.761 0c-.293-.098-.489-.196-.782-.196-.587 0-.978.294-1.369.685-.391.391-.587.978-.587 1.76 0 .783.196 1.37.587 1.859.391.391.782.586 1.369.586.489 0 .978-.195 1.369-.684v2.347H0V0z" style="fill:none;stroke:none" transform="matrix(1.25 0 0 -1.25 217.626 50.8)"/><path d="M0 0c0-.489.098-.88.196-1.076.195-.293.489-.489.782-.489.293 0 .587.196.782.391.196.196.294.587.294 1.076 0 .489-.098.881-.294 1.174-.195.196-.489.293-.782.293-.293 0-.489-.097-.685-.293C.098.783 0 .489 0 0z" style="fill:none;stroke:none" transform="matrix(.97866 0 0 -1.02096 207.92 47.217)"/><path d="m0 0 1.174-.293a1.787 1.787 0 0 0-.685-.978c-.391-.196-.782-.392-1.271-.392-.783 0-1.369.294-1.761.881-.391.391-.489.88-.489 1.564 0 .783.196 1.37.587 1.761.391.489.88.685 1.565.685.684 0 1.174-.294 1.565-.685.391-.489.587-1.174.587-2.054H-1.76c0-.391.098-.685.293-.88.196-.196.391-.294.685-.294.195 0 .391 0 .489.098.097.098.195.294.293.587z" style="fill:none;stroke:none" transform="matrix(.97866 0 0 -1.02096 214.906 48.115)"/><path d="M0 0c-.098.391-.098.685-.294.782-.195.196-.391.294-.684.294-.196 0-.489-.098-.587-.294C-1.761.587-1.858.391-1.858 0H0z" style="fill:none;stroke:none" transform="matrix(.97866 0 0 -1.02096 215.002 46.916)"/><path d="M0 0h-1.174v4.597h1.076v-.685c.196.293.391.489.587.587a.745.745 0 0 0 .489.195c.293 0 .587-.097.782-.293l-.391-.978c-.196.098-.391.196-.587.196-.098 0-.293-.098-.391-.196-.098-.098-.196-.293-.293-.489C0 2.641 0 2.152 0 1.369V0z" style="fill:none;stroke:none" transform="matrix(.97866 0 0 -1.02096 218.256 49.613)"/><path d="M0 0v-.978h-.782v-2.543c0-.098 0-.098.097-.195h.196c.098 0 .293 0 .489.097l.098-.978c-.294-.097-.587-.195-.978-.195-.196 0-.391.098-.587.195-.196 0-.293.098-.391.294-.098.098-.098.195-.196.391v2.934h-.587V0h.587v.88l1.272.685V0H0z" style="fill:none;stroke:none" transform="matrix(1.25 0 0 -1.25 232.295 45.054)"/><path d="m0 0-1.076.196c.098.489.293.782.587.978.293.293.782.391 1.369.391s.978-.098 1.271-.196c.196-.195.392-.293.49-.489.195-.195.195-.587.195-1.076v-1.467c0-.391 0-.684.098-.88 0-.196.097-.391.195-.587H1.858s0 .196-.098.294v.195a2.994 2.994 0 0 0-.684-.489 1.842 1.842 0 0 0-.783-.195c-.489 0-.782.195-1.076.391-.293.293-.391.587-.391.978 0 .293 0 .489.098.782.196.196.293.294.587.391.195.098.489.196.978.294.587.098.978.196 1.173.293V0a.745.745 0 0 1-.195.489c-.098.098-.294.098-.685.098-.195 0-.391 0-.489-.098C.195.391.098.293 0 0z" style="fill:none;stroke:none" transform="matrix(.97866 0 0 -1.02096 224.286 46.417)"/><path d="M0 0c-.196 0-.391-.098-.782-.196-.294 0-.489-.097-.685-.195-.098-.098-.195-.294-.195-.391 0-.196.097-.392.195-.489a.748.748 0 0 1 .489-.196c.196 0 .391.098.587.196.195.195.293.293.293.489C0-.685 0-.489 0-.196V0z" style="fill:none;stroke:none" transform="matrix(.97866 0 0 -1.02096 225.913 47.416)"/><path d="M0 0v6.357h1.174V2.934l1.467 1.663h1.467L2.543 2.836 4.303 0H2.934L1.761 2.054l-.587-.587V0H0zm6.162 5.183H4.988v1.173h1.174V5.183z" style="fill:none;stroke:none" transform="matrix(1.25 0 0 -1.25 239.508 50.8)"/><path d="M0 0zm1.174-5.183H0v4.596h1.174v-4.596z" style="fill:none;stroke:none" transform="matrix(.97866 0 0 -1.02096 233.091 44.321)"/><path d="M0 0z" style="fill:none;stroke:none" transform="matrix(.97866 0 0 -1.02096 233.421 50.931)"/><path d="M0 0h-1.174v2.347c0 .489-.097.783-.097.881a1.379 1.379 0 0 1-.294.391c-.098.097-.196.097-.391.097-.196 0-.391 0-.587-.195-.196-.098-.293-.196-.293-.391-.098-.196-.098-.587-.098-1.076V0h-1.272v4.597h1.174v-.685c.391.489.88.782 1.467.782.294 0 .587-.097.783-.195.195-.098.391-.196.489-.391a.753.753 0 0 0 .195-.489C0 3.423 0 3.13 0 2.836V0z" style="fill:none;stroke:none" transform="matrix(.97866 0 0 -1.02096 239.6 49.613)"/><path d="m0 0 1.369-.098c0-.195.098-.293.196-.391.098-.098.293-.098.489-.098.293 0 .587 0 .685.098.195.098.195.196.293.391 0 .098.098.294.098.489v.685C2.739.587 2.249.391 1.663.391c-.587 0-1.076.196-1.467.783-.294.391-.391.88-.391 1.467 0 .782.195 1.369.586 1.858.391.391.783.587 1.369.587.587 0 1.076-.294 1.37-.783v.685h1.173V.782c0-.489 0-.88-.097-1.173-.098-.294-.294-.489-.392-.685a4.751 4.751 0 0 0-.684-.293c-.294-.098-.587-.196-.978-.196-.783 0-1.37.196-1.663.489C.098-.88 0-.489 0-.098V0z" style="fill:none;stroke:none" transform="matrix(.97866 0 0 -1.02096 240.748 50.012)"/><path d="M0 0c0-.489.098-.88.293-1.076.196-.195.391-.293.685-.293.294 0 .489.098.783.293.195.294.293.587.293 1.076 0 .489-.098.783-.293 1.076-.196.196-.489.293-.783.293-.294 0-.489-.097-.685-.293C.098.783 0 .489 0 0z" style="fill:none;stroke:none" transform="matrix(.97866 0 0 -1.02096 241.801 47.217)"/><path d="M0 0c.196.587.391.978.489 1.271.098.196.195.587.293.88.098.392.098.685.196 1.076v.978c0 .685 0 1.37-.196 1.956-.098.587-.391 1.37-.782 2.25h.782c.489-.685.783-1.272 1.076-1.956.196-.783.294-1.467.294-2.152 0-.587-.098-1.271-.294-1.956C1.662 1.565 1.369.782.782 0H0z" style="fill:none;stroke:none" transform="matrix(1.25 0 0 -1.25 262.003 53.245)"/><path d="M6.082 5.803h35.14V53.24H6.083V5.803z" style="fill:#fee800;fill-opacity:1;fill-rule:nonzero;stroke:none" transform="matrix(1.25 0 0 -1.25 0 73)"/><path d="M6.082 53.239h35.14V5.803H6.083V53.24z" style="fill:none;stroke:none" transform="matrix(1.25 0 0 -1.25 0 73)"/><path d="m0 0-.345-.357-.351.362.345.357L0 0zm2.546 2.458.894.003c-.036.286-.118.449-.246.594-.127.144-.271.238-.424.217-.344-.047-.438-.535-.224-.814zM1.118 1.297A.49.49 0 0 1 .97 1.14.459.459 0 0 1 .873.875c0-.134.03-.268.124-.338a.543.543 0 0 1 .314-.099c.064 0 .131 0 .151.016l.162.084-.506.759zm.704-.636a.337.337 0 0 1 .15.128.335.335 0 0 1 .078.203c0 .156-.046.277-.14.362a.4.4 0 0 1-.276.106h-.162a.346.346 0 0 1-.148-.04l.498-.759zm.518 1.786c-.095.091-.181.307-.209.432-.033.153.019.427.182.552a.753.753 0 0 0 .441.153c.205 0 .383-.097.535-.29.151-.193.255-.436.312-.833h.427l.168-.332h-.503V-.463l-.461.196v2.396h-.58V-.463l-.418.196v.731C2.14.356 2.057.323 1.98.276c-.136-.082-.372-.13-.555-.13A.957.957 0 0 0 .73.408a.968.968 0 0 0-.281.638c0 .149.082.351.208.483.163.171.489.29.756.27.169-.013.375-.051.514-.142.12-.079.199-.117.307-.277v.749H.33l-.157.332 2.167-.014zm-5.039-.318c.154-.328.212-.669.057-.977l.169-.093a.591.591 0 0 1 .297-.067A.83.83 0 0 1-2.07 1c.037.006.021.026.087.053.11.045.198.089.259.145v.931h-.975zm-.269 0c.353-.476.193-.627-.011-.796-.033-.065-.132-.053-.131-.074-.062.096-.148.145-.252.107-.197-.024-.342-.256-.309-.361.027-.085.11-.219.279-.439.14-.182.544-.587 1.012-1.122l.118.25-.421.445-.27.29-.162.19a.098.098 0 0 0 .035.055.932.932 0 0 0 .127.073c.043.03.086.067.13.111l.113.123a.925.925 0 0 1 .295-.226A.805.805 0 0 1-2.07.68c.04 0 .027.008.091.025.066.017.12.034.163.053.044.019.074.03.092.033V-.267l.457-.196v2.592h.344l-.156.332h-5.298l.162-.332h.354V.747c0-.163.046-.299.167-.368l1.585-.909c.099-.056.14-.117.14-.161a.202.202 0 0 0-.029-.092.464.464 0 0 0-.067-.092l.275-.251c.119.175.178.294.178.357a.332.332 0 0 1-.062.162 1 1 0 0 1-.224.178l-1.42.925c-.022.011-.039.039-.052.083a.5.5 0 0 0-.018.129v1.421h.769V.892c0-.071-.051-.112-.153-.106l-.306.016.284-.278.199-.039a.39.39 0 0 0 .07-.011h.13c.13 0 .244.076.244.228v1.427h1.183zm-5.993.329.754.003a1.064 1.064 0 0 1-.271.609.51.51 0 0 1-.423.194c-.193-.009-.351-.125-.305-.467a.646.646 0 0 1 .245-.339zm-.385-.335h-.88v-.891c0-.283.095-.424.286-.424.075 0 .171.022.286.067a1.408 1.408 0 0 1 .308.161v1.087zM-6.649 0l-.345-.357-.351.362.345.357.351-.362zM-9.2 2.461c-.109.099-.379.292-.365.613.008.166.11.302.215.404.104.102.27.122.433.122.205 0 .383-.097.534-.29.151-.193.298-.452.355-.849h.426l.151-.332h-.502V-.463l-.445.196v2.396l-.508-.006V-.463l-.44.196v.924a2.075 2.075 0 0 0-.101-.052.624.624 0 0 0-.09-.037 1.076 1.076 0 0 0-.24-.038c-.13 0-.386.074-.568.222-.203.167-.305.331-.305.491v.88h-.403l-.161.338H-9.2" style="fill:#b41630;fill-opacity:1;fill-rule:evenodd;stroke:none" transform="matrix(1.5386 0 0 -1.45172 33.942 61.92)"/><path d="m0 0-.345-.357-.351.362.345.357L0 0z" style="fill:none;stroke:none" transform="matrix(1.5386 0 0 -1.45172 33.942 61.92)"/><path d="m0 0 .894.003C.858.289.776.452.648.597.521.741.378.834.224.814-.12.767-.213.279 0 0z" style="fill:none;stroke:none" transform="matrix(1.5386 0 0 -1.45172 37.86 58.352)"/><path d="M0 0a.475.475 0 0 1-.148-.158.454.454 0 0 1-.097-.264c0-.134.03-.268.124-.338a.54.54 0 0 1 .313-.099c.065 0 .132 0 .151.015l.162.085L0 0z" style="fill:none;stroke:none" transform="matrix(1.5386 0 0 -1.45172 35.664 60.038)"/><path d="M0 0a.332.332 0 0 1 .15.128.337.337 0 0 1 .078.203c0 .156-.046.277-.14.362a.397.397 0 0 1-.275.106h-.162a.343.343 0 0 1-.148-.04L0 0z" style="fill:none;stroke:none" transform="matrix(1.5386 0 0 -1.45172 36.746 60.961)"/><path d="M0 0c-.095.091-.181.307-.209.432-.033.153.018.427.182.552.117.09.279.153.441.153.205 0 .383-.097.534-.289.151-.193.256-.436.313-.834h.427l.167-.332h-.502v-2.591l-.462.195v2.396h-.58v-2.591l-.417.195v.731C-.2-2.091-.284-2.124-.36-2.17c-.136-.083-.372-.131-.555-.131a.978.978 0 0 0-.357.054 1.057 1.057 0 0 0-.338.208.968.968 0 0 0-.281.638c0 .149.082.351.208.483.163.171.489.29.756.27.168-.013.375-.05.514-.142.12-.079.199-.116.307-.276v.748H-2.01l-.157.332L0 0z" style="fill:none;stroke:none" transform="matrix(1.5386 0 0 -1.45172 37.543 58.368)"/><path d="M0 0c.154-.328.213-.669.058-.976l.169-.094a.677.677 0 0 1 .402-.058c.038.005.021.026.088.053a.878.878 0 0 1 .259.145V0H0z" style="fill:none;stroke:none" transform="matrix(1.5386 0 0 -1.45172 29.79 58.83)"/><path d="M0 0c.352-.476.193-.626-.011-.796-.033-.065-.132-.053-.131-.073-.062.095-.148.145-.252.107-.197-.024-.342-.256-.309-.361.027-.086.109-.22.279-.439.14-.182.544-.588 1.012-1.122l.118.249-.421.446-.271.29c-.046.055-.1.119-.161.189a.11.11 0 0 0 .034.056c.014.011.055.035.127.072.044.03.087.067.13.112l.114.122c.09-.1.188-.175.295-.225a.791.791 0 0 1 .345-.076c.04 0 .026.009.091.025.065.017.119.034.163.053.043.019.074.03.092.034v-1.059l.457-.195V0h.344l-.157.332h-5.297L-3.247 0h.353v-1.382c0-.163.047-.298.168-.368l1.585-.909c.098-.056.14-.116.14-.161a.195.195 0 0 0-.029-.091.415.415 0 0 0-.068-.092l.276-.251c.118.175.178.293.178.356a.328.328 0 0 1-.062.162.969.969 0 0 1-.224.178l-1.421.926c-.021.011-.038.038-.051.083a.493.493 0 0 0-.018.128V0h.769v-1.237c0-.07-.051-.111-.153-.106l-.306.017.283-.279.2-.039a.315.315 0 0 0 .07-.011h.13c.13 0 .244.076.244.229V0H0z" style="fill:none;stroke:none" transform="matrix(1.5386 0 0 -1.45172 29.377 58.83)"/><path d="m0 0 .754.003a1.066 1.066 0 0 1-.27.61.515.515 0 0 1-.424.194C-.133.798-.291.681-.245.34A.649.649 0 0 1 0 0z" style="fill:none;stroke:none" transform="matrix(1.5386 0 0 -1.45172 20.156 58.352)"/><path d="M0 0h-.88v-.892c0-.282.095-.423.286-.423.076 0 .171.022.286.067A1.318 1.318 0 0 1 0-1.087V0z" style="fill:none;stroke:none" transform="matrix(1.5386 0 0 -1.45172 19.564 58.839)"/><path d="m0 0-.345-.357-.351.362.345.357L0 0z" style="fill:none;stroke:none" transform="matrix(1.5386 0 0 -1.45172 23.714 61.92)"/><path d="M0 0c-.109.099-.38.293-.365.613.008.167.11.302.214.404.105.102.271.122.433.122.206 0 .384-.097.535-.29.151-.193.297-.451.355-.849h.426l.151-.332h-.502v-2.591l-.446.195v2.396L.294-.338v-2.585l-.44.195v.925a2.225 2.225 0 0 0-.101-.053.843.843 0 0 0-.09-.036 1.04 1.04 0 0 0-.24-.039c-.13 0-.387.074-.568.223-.203.166-.305.33-.305.49v.88h-.403L-2.015 0H0z" style="fill:none;stroke:none" transform="matrix(1.5386 0 0 -1.45172 19.789 58.348)"/><path d="m0 0 .038.408a7.282 7.282 0 0 0 4.746 6.008l.353.121v1.561l.091.001c5.433.525 3.956 6.497 9.72 6.931l.523.038c.241.011.483.02.725.024v-3.623l-.154.025c-1.407.192-2.563-.603-3.232-1.809l-.12-.235c-.216-.403-.426-.808-.661-1.199a8.118 8.118 0 0 0-.258-.395 7.303 7.303 0 0 0-.212-.279 6.606 6.606 0 0 0-.234-.265l-.171-.168a6.542 6.542 0 0 0-.284-.24l-.21-.151-.228-.144-.122-.069-.374-.199.49-.229c5.504-2.774 5.418-10.47-.154-13.117l-.783-.344.831-.042.239-.024c3.867-.531 5.574-5.093 2.958-8.015l-.16-.168-.167-.159c-2.987-2.671-7.642-.827-8.034 3.14l-.019.306V0h3.279v-4.024l.32.13C15.554.356 5.677 7.705 3.498.125v-17.174H-.008V0H0zm9.954-10.656-.157-.008-.152-.023-.148-.038a2.216 2.216 0 0 1-.209-.083 2.421 2.421 0 0 1-.193-.111 2.11 2.11 0 0 1-.175-.137 2.546 2.546 0 0 1-.152-.16 2.054 2.054 0 0 1-.129-.181 2.195 2.195 0 0 1-.102-.199 2.345 2.345 0 0 1-.073-.214l-.031-.151-.016-.154v-.158l.016-.155.031-.15c.021-.073.045-.142.073-.214.031-.069.064-.133.102-.199.04-.063.082-.122.129-.181.049-.056.098-.108.152-.16.057-.049.113-.093.175-.137.063-.041.125-.077.193-.111.069-.032.137-.059.209-.083l.148-.038.152-.024.157-.007.157.007.152.024c.075.017.146.037.219.062.071.028.137.058.205.093.065.037.125.076.187.12.059.046.113.094.167.145.051.054.099.108.145.167.044.062.082.122.12.187.035.068.065.134.093.205.025.073.045.144.062.219l.023.152.008.157-.008.157-.023.152a2.03 2.03 0 0 1-.062.219 2.088 2.088 0 0 1-.093.204 2.383 2.383 0 0 1-.12.187 2.33 2.33 0 0 1-.145.168 2.28 2.28 0 0 1-.167.145 2.362 2.362 0 0 1-.187.12 2.347 2.347 0 0 1-.205.093 2.373 2.373 0 0 1-.219.062l-.152.023-.157.008" style="fill:#b41630;fill-opacity:1;fill-rule:evenodd;stroke:none" transform="matrix(1.5386 0 0 -1.45172 17.525 30.555)"/><path d="m0 0 .038.408a7.282 7.282 0 0 0 4.746 6.008l.353.121v1.561l.091.001c5.433.525 3.956 6.497 9.72 6.931l.523.038c.241.011.483.02.725.024v-3.623l-.154.025c-1.407.192-2.563-.603-3.232-1.809l-.12-.235c-.216-.403-.426-.808-.661-1.199a8.118 8.118 0 0 0-.258-.395 7.303 7.303 0 0 0-.212-.279 6.606 6.606 0 0 0-.234-.265l-.171-.168a6.542 6.542 0 0 0-.284-.24l-.21-.151-.228-.144-.122-.069-.374-.199.49-.229c5.504-2.774 5.418-10.47-.154-13.117l-.783-.344.831-.042.239-.024c3.867-.531 5.574-5.093 2.958-8.015l-.16-.168-.167-.159c-2.987-2.671-7.642-.827-8.034 3.14l-.019.306V0h3.279v-4.024l.32.13C15.554.356 5.677 7.705 3.498.125v-17.174H-.008V0H0z" style="fill:none;stroke:none" transform="matrix(1.5386 0 0 -1.45172 17.525 30.555)"/><path d="m0 0-.157-.008-.153-.023-.147-.038a2.523 2.523 0 0 1-.209-.083 2.421 2.421 0 0 1-.193-.111 2.122 2.122 0 0 1-.175-.138 2.107 2.107 0 0 1-.153-.16 2.106 2.106 0 0 1-.128-.181 2.054 2.054 0 0 1-.102-.198 2.265 2.265 0 0 1-.073-.215l-.031-.15-.016-.155v-.157l.016-.155.031-.15c.021-.074.045-.143.073-.214.031-.069.064-.134.102-.199.04-.063.082-.122.128-.181.049-.056.099-.109.153-.16a2.11 2.11 0 0 1 .175-.137c.063-.041.125-.077.193-.111.069-.032.137-.059.209-.083l.147-.038.153-.024L0-3.077l.157.008.152.024c.075.017.146.037.219.062.071.028.137.058.204.093.066.037.126.076.188.12.059.046.113.093.167.145.051.054.099.108.145.167.044.061.082.122.12.187.035.068.065.134.093.205.024.073.045.144.062.218l.023.153.008.157-.008.157-.023.152a2.373 2.373 0 0 1-.062.219 2.088 2.088 0 0 1-.093.204 2.383 2.383 0 0 1-.12.187 2.33 2.33 0 0 1-.145.168 2.55 2.55 0 0 1-.167.145 2.487 2.487 0 0 1-.188.12 1.96 1.96 0 0 1-.204.092 2.38 2.38 0 0 1-.219.063l-.152.023L0 0z" style="fill:none;stroke:none" transform="matrix(1.5386 0 0 -1.45172 32.84 46.024)"/></svg>