<svg xmlns="http://www.w3.org/2000/svg" xml:space="preserve" width="24.931" height="46.66"><path d="m0 0 .038.408a7.282 7.282 0 0 0 4.746 6.008l.353.121v1.561l.091.001c5.433.525 3.956 6.497 9.72 6.931l.523.038c.241.011.483.02.725.024v-3.623l-.154.025c-1.407.192-2.563-.603-3.232-1.809l-.12-.235c-.216-.403-.426-.808-.661-1.199a8.118 8.118 0 0 0-.258-.395 7.303 7.303 0 0 0-.212-.279 6.606 6.606 0 0 0-.234-.265l-.171-.168a6.542 6.542 0 0 0-.284-.24l-.21-.151-.228-.144-.122-.069-.374-.199.49-.229c5.504-2.774 5.418-10.47-.154-13.117l-.783-.344.831-.042.239-.024c3.867-.531 5.574-5.093 2.958-8.015l-.16-.168-.167-.159c-2.987-2.671-7.642-.827-8.034 3.14l-.019.306V0h3.279v-4.024l.32.13C15.554.356 5.677 7.705 3.498.125v-17.174H-.008V0Zm9.954-10.656-.157-.008-.152-.023-.148-.038a2.216 2.216 0 0 1-.209-.083 2.421 2.421 0 0 1-.193-.111 2.11 2.11 0 0 1-.175-.137 2.546 2.546 0 0 1-.152-.16 2.054 2.054 0 0 1-.129-.181 2.195 2.195 0 0 1-.102-.199 2.345 2.345 0 0 1-.073-.214l-.031-.151-.016-.154v-.158l.016-.155.031-.15c.021-.073.045-.142.073-.214.031-.069.064-.133.102-.199.04-.063.082-.122.129-.181.049-.056.098-.108.152-.16.057-.049.113-.093.175-.137.063-.041.125-.077.193-.111.069-.032.137-.059.209-.083l.148-.038.152-.024.157-.007.157.007.152.024c.075.017.146.037.219.062.071.028.137.058.205.093.065.037.125.076.187.12.059.046.113.094.167.145.051.054.099.108.145.167.044.062.082.122.12.187.035.068.065.134.093.205.025.073.045.144.062.219l.023.152.008.157-.008.157-.023.152a2.03 2.03 0 0 1-.062.219 2.088 2.088 0 0 1-.093.204 2.383 2.383 0 0 1-.12.187 2.33 2.33 0 0 1-.145.168 2.28 2.28 0 0 1-.167.145 2.362 2.362 0 0 1-.187.12 2.347 2.347 0 0 1-.205.093 2.373 2.373 0 0 1-.219.062l-.152.023-.157.008" style="fill:#b41630;fill-opacity:1;fill-rule:evenodd;stroke:none" transform="matrix(1.5386 0 0 -1.45172 .012 21.91)"/><path d="m0 0 .038.408a7.282 7.282 0 0 0 4.746 6.008l.353.121v1.561l.091.001c5.433.525 3.956 6.497 9.72 6.931l.523.038c.241.011.483.02.725.024v-3.623l-.154.025c-1.407.192-2.563-.603-3.232-1.809l-.12-.235c-.216-.403-.426-.808-.661-1.199a8.118 8.118 0 0 0-.258-.395 7.303 7.303 0 0 0-.212-.279 6.606 6.606 0 0 0-.234-.265l-.171-.168a6.542 6.542 0 0 0-.284-.24l-.21-.151-.228-.144-.122-.069-.374-.199.49-.229c5.504-2.774 5.418-10.47-.154-13.117l-.783-.344.831-.042.239-.024c3.867-.531 5.574-5.093 2.958-8.015l-.16-.168-.167-.159c-2.987-2.671-7.642-.827-8.034 3.14l-.019.306V0h3.279v-4.024l.32.13C15.554.356 5.677 7.705 3.498.125v-17.174H-.008V0Z" style="fill:none;stroke:none" transform="matrix(1.5386 0 0 -1.45172 .012 21.91)"/><path d="m0 0-.157-.008-.153-.023-.147-.038a2.523 2.523 0 0 1-.209-.083 2.421 2.421 0 0 1-.193-.111 2.122 2.122 0 0 1-.175-.138 2.107 2.107 0 0 1-.153-.16 2.106 2.106 0 0 1-.128-.181 2.054 2.054 0 0 1-.102-.198 2.265 2.265 0 0 1-.073-.215l-.031-.15-.016-.155v-.157l.016-.155.031-.15c.021-.074.045-.143.073-.214.031-.069.064-.134.102-.199.04-.063.082-.122.128-.181.049-.056.099-.109.153-.16a2.11 2.11 0 0 1 .175-.137c.063-.041.125-.077.193-.111.069-.032.137-.059.209-.083l.147-.038.153-.024L0-3.077l.157.008.152.024c.075.017.146.037.219.062.071.028.137.058.204.093.066.037.126.076.188.12.059.046.113.093.167.145.051.054.099.108.145.167.044.061.082.122.12.187.035.068.065.134.093.205.024.073.045.144.062.218l.023.153.008.157-.008.157-.023.152a2.373 2.373 0 0 1-.062.219 2.088 2.088 0 0 1-.093.204 2.383 2.383 0 0 1-.12.187 2.33 2.33 0 0 1-.145.168 2.55 2.55 0 0 1-.167.145 2.487 2.487 0 0 1-.188.12 1.96 1.96 0 0 1-.204.092 2.38 2.38 0 0 1-.219.063l-.152.023z" style="fill:none;stroke:none" transform="matrix(1.5386 0 0 -1.45172 15.328 37.379)"/></svg>