<svg xmlns="http://www.w3.org/2000/svg" xmlns:xlink="http://www.w3.org/1999/xlink" width="91.319" height="46.76" version="1.2" viewBox="0 0 68.489 35.07"><defs><symbol id="a" overflow="visible"><path d="M1.719 0h7.703c5.453 0 8.11-3.844 8.11-9.031 0-5.922-3.485-8.813-8.11-8.813H1.719Zm3.937-14.547h2.797c3.89 0 5.14 2.297 5.14 5.89 0 3.954-2.171 5.36-4.437 5.36h-3.5zm0 0"/></symbol><symbol id="b" overflow="visible"><path d="M17.422-11.844c-.469-4.125-3.766-6.437-7.703-6.437-5.516 0-8.766 4.125-8.766 9.437 0 5.14 3.25 9.266 8.766 9.266 4.375 0 7.453-2.844 7.86-7.297H13.78c-.312 2.344-1.656 4-4.062 4-3.516 0-4.844-3-4.844-5.969 0-3.125 1.328-6.125 4.844-6.125 1.953 0 3.656 1.344 3.906 3.125zm0 0"/></symbol><symbol id="c" overflow="visible"><path d="M5.656-7.953h4.266c1.672 0 2.828.734 2.828 2.547 0 1.86-1.344 2.36-2.906 2.36H5.656ZM1.72 0h8.656c3.219 0 6.297-1.547 6.297-5.172 0-2.234-1.094-3.906-3.266-4.531 1.547-.75 2.422-1.969 2.422-3.719 0-3.328-2.297-4.422-5.703-4.422H1.719Zm3.937-14.797h3.672c1.39 0 2.703.344 2.703 2.047 0 1.5-1.031 2.125-2.406 2.125h-3.97Zm0 0"/></symbol></defs><path fill="#26358f" d="M0 35.07h68.49V0H0Zm0 0" style="stroke-width:.685315"/><g fill="#fff" transform="translate(-188.086 -625)"><use xlink:href="#a" width="100%" height="100%" x="195.159" y="651.385"/><use xlink:href="#b" width="100%" height="100%" x="213.087" y="651.385"/><use xlink:href="#c" width="100%" height="100%" x="231.014" y="651.385"/></g></svg>