<svg xmlns="http://www.w3.org/2000/svg" xmlns:xlink="http://www.w3.org/1999/xlink" width="201" height="201.031" viewBox="0 0 21.427 21.377"><clipPath id="a"><path d="M595 0h.273v841.89H595Zm0 0"/></clipPath><g transform="translate(-303.595 561.187)"><g clip-path="url(#a)" transform="translate(.834 .333) scale(.35278)"><path fill="#fff" d="M595.277 841.89h564.094V0H595.277Zm0 0"/></g><use xlink:href="#b" width="100%" height="100%" x="275.69" y="670.252" fill="#211e1e" transform="translate(-76.754 -83.532) scale(.35278)"/><use xlink:href="#c" width="100%" height="100%" x="234.171" y="683.252" fill="#211e1e" transform="translate(-76.754 -83.532) scale(.35278)"/><use xlink:href="#d" width="100%" height="100%" x="164.616" y="442.901" fill="#4c4a4c" transform="translate(-150.47 -116.697) scale(.35278)"/><use xlink:href="#d" width="100%" height="100%" x="417.752" y="445.901" fill="#26429e" transform="translate(-150.47 -116.697) scale(.35278)"/><use xlink:href="#e" width="100%" height="100%" x="556.612" y="476.901" fill="#4c4a4c" transform="translate(-150.47 -116.697) scale(.35278)"/><use xlink:href="#d" width="100%" height="100%" x="462.563" y="507.901" fill="#26429e" transform="translate(-150.47 -116.697) scale(.35278)"/><use xlink:href="#d" width="100%" height="100%" x="423.242" y="551.901" fill="#4c4a4c" transform="translate(-150.47 -116.697) scale(.35278)"/><use xlink:href="#d" width="100%" height="100%" x="418.252" y="582.901" fill="#4c4a4c" transform="translate(-150.47 -116.697) scale(.35278)"/><use xlink:href="#e" width="100%" height="100%" x="477.193" y="613.901" fill="#4c4a4c" transform="translate(-150.47 -116.697) scale(.35278)"/><use xlink:href="#f" width="100%" height="100%" x="264.196" y="64.52" fill="#232830" transform="translate(-227.193 -148.152) scale(.35278)"/><use xlink:href="#g" width="100%" height="100%" x="442.279" y="578.78" fill="#512685" transform="translate(34.605 -302.405) scale(.35278)"/><use xlink:href="#h" width="100%" height="100%" x="211.224" y="218.392" transform="translate(172.3 -419.332) scale(.35278)"/><path fill="#2b61ab" d="M303.595-539.786h21.427v-21.426h-21.427Zm0 0" style="stroke-width:.906207"/><g fill-rule="evenodd"><path fill="#fff" d="m322.242-561.214-11.813 21.43-4.054-4.102h2.795zm0 0"/><path fill="#d71c23" d="m320.765-558.913-10.416 18.519-3.078-3.116h2.085zm0 0"/></g></g></svg>