<svg xmlns="http://www.w3.org/2000/svg" width="742" height="233" viewBox="0 0 196.321 61.648"><path d="M101.022 283.471c-.267 0-.407-.11-.407-.336v-46.88c0-.268.14-.402.407-.402h22.794c17.725 0 18.253 19.241 8.802 23.038 3.79 1.623 7.06 5.002 7.138 10.917 0 4.197-1.345 7.523-4.04 9.98-2.649 2.455-5.788 3.683-9.423 3.683zm8.057-39.51v11.133h14.787c8.843-.611 8.727-11.317-.856-11.133zm0 19.26v12.09h15.461c9.155-.306 8.15-12.294 0-12.09zm-3.485 25.419a1.7 1.7 0 0 1 .312 1.026c0 .41-.105.742-.314.986-.118.142-.287.27-.516.385.345.126.605.325.781.592.175.271.263.598.263.984a1.993 1.993 0 0 1-.779 1.6 1.852 1.852 0 0 1-.764.337c-.292.061-.608.09-.95.09h-3.045v-6.714h3.262c.824.012 1.406.249 1.75.715zm-3.667.452v1.478h1.642c.293 0 .532-.053.715-.162.181-.115.272-.31.272-.592 0-.312-.12-.52-.362-.618a2.533 2.533 0 0 0-.796-.106zm0 2.592v1.791h1.64c.292 0 .522-.04.684-.117.296-.147.444-.427.444-.839 0-.35-.143-.59-.43-.72-.162-.075-.385-.113-.675-.115zm8.413-1.909c.35.157.637.401.864.736.203.295.338.634.4 1.025.033.228.046.557.042.986h-3.64c.024.498.197.846.526 1.05.197.125.437.186.718.186.297 0 .54-.078.725-.229.101-.082.19-.195.269-.34h1.334c-.036.293-.198.594-.486.897-.445.482-1.075.726-1.878.726a2.731 2.731 0 0 1-1.759-.612c-.509-.408-.764-1.072-.764-1.99 0-.861.23-1.519.691-1.98.458-.456 1.053-.687 1.785-.687.433 0 .827.077 1.173.232zm-1.951 1.122c-.185.19-.301.444-.35.77h2.25c-.023-.346-.14-.607-.346-.784a1.15 1.15 0 0 0-.776-.27c-.335 0-.597.096-.778.284m8.22.721c.242-.03.416-.065.52-.111.186-.08.281-.205.281-.371 0-.202-.071-.344-.215-.42-.145-.077-.356-.115-.634-.115-.314 0-.535.074-.665.227a.926.926 0 0 0-.184.456h-1.262c.03-.435.15-.792.367-1.07.35-.44.943-.656 1.786-.656.552 0 1.037.105 1.465.322.425.217.636.622.636 1.22v2.28c0 .156.003.35.013.573.005.17.032.289.075.347a.46.46 0 0 0 .195.15v.19h-1.422a1.503 1.503 0 0 1-.083-.28 4.046 4.046 0 0 1-.036-.302 2.82 2.82 0 0 1-.626.498c-.283.159-.602.24-.958.24-.455 0-.83-.13-1.127-.385-.296-.257-.445-.62-.445-1.092 0-.609.238-1.054.714-1.324.262-.15.647-.255 1.156-.318zm.797.608a1.62 1.62 0 0 1-.252.125 2.14 2.14 0 0 1-.352.09l-.297.054c-.28.05-.479.108-.6.178-.206.117-.308.305-.308.553 0 .22.062.38.187.478.127.099.281.15.46.15.285 0 .547-.084.789-.247.238-.164.365-.464.373-.897zm5.779.829c.027.232.089.397.178.491.164.173.465.263.903.263.259 0 .463-.04.615-.115.15-.078.229-.192.229-.34a.365.365 0 0 0-.186-.335c-.123-.074-.577-.206-1.363-.391-.57-.14-.969-.314-1.201-.525-.233-.207-.348-.505-.348-.894 0-.456.182-.85.545-1.184.362-.328.873-.493 1.53-.493.626 0 1.134.124 1.527.37.392.25.618.677.679 1.284h-1.307a.789.789 0 0 0-.144-.396c-.143-.176-.387-.263-.732-.263-.285 0-.49.043-.611.131-.122.088-.182.191-.182.31 0 .15.065.257.192.324.128.07.585.19 1.365.361.52.119.909.303 1.17.551.257.248.383.56.383.933a1.5 1.5 0 0 1-.552 1.204c-.37.312-.94.47-1.711.47-.787 0-1.365-.164-1.742-.495a1.606 1.606 0 0 1-.562-1.261zm3.551-2.41v-.923h.696v-1.387h1.294v1.387h.808v.923h-.808v2.623c0 .205.023.334.074.382.052.052.21.077.477.077.041 0 .083 0 .126-.008.045 0 .088 0 .13-.002l.001.97-.617.024c-.618.02-1.04-.086-1.266-.319-.144-.148-.219-.377-.219-.69v-3.057zm6.749-.87c.349.157.637.401.864.736.205.295.336.634.398 1.025.035.228.048.557.043.986h-3.636c.018.498.194.846.52 1.05.201.125.441.186.719.186.298 0 .54-.078.728-.229.1-.082.19-.195.27-.34h1.331c-.035.293-.196.594-.485.897-.446.482-1.073.726-1.877.726a2.73 2.73 0 0 1-1.759-.612c-.507-.408-.762-1.072-.762-1.99 0-.861.227-1.519.687-1.98.458-.456 1.053-.687 1.786-.687.435 0 .827.077 1.173.232zm-1.951 1.122c-.185.19-.302.444-.348.77h2.248c-.025-.346-.139-.607-.347-.784a1.141 1.141 0 0 0-.775-.27c-.334 0-.595.096-.778.284" style="fill:#c72e8f;fill-opacity:1;fill-rule:evenodd;stroke:none;stroke-width:.89227873" transform="translate(0 -235.352)"/><path d="M139.834 290.266c.403.423.609 1.044.609 1.861 0 .864-.201 1.523-.596 1.977-.397.453-.907.679-1.53.679-.396 0-.725-.097-.989-.293a1.874 1.874 0 0 1-.422-.473v2.556h-1.282v-6.835h1.242v.726c.141-.215.291-.383.45-.504.29-.22.635-.33 1.033-.33.586 0 1.08.21 1.485.636zm-.998.922c-.176-.29-.46-.437-.857-.437-.476 0-.803.219-.98.661-.093.236-.137.533-.137.894 0 .566.153.97.466 1.2.18.132.398.202.65.202.367 0 .644-.138.838-.413.189-.278.284-.646.284-1.103 0-.38-.088-.716-.264-1.004" style="fill:#c72e8f;fill-opacity:1;fill-rule:evenodd;stroke:none;stroke-width:.88414466" transform="translate(0 -235.352)"/><path d="M145.34 291.618c.244-.03.42-.065.523-.111.188-.08.28-.205.28-.371 0-.202-.072-.344-.214-.42-.144-.077-.356-.115-.633-.115-.312 0-.537.074-.666.227a.939.939 0 0 0-.185.456h-1.258c.025-.435.15-.792.367-1.07.346-.44.942-.656 1.786-.656.547 0 1.037.105 1.462.322.427.217.638.622.638 1.22v2.28c0 .156.005.35.01.573.01.17.038.289.08.347a.46.46 0 0 0 .192.15v.19H146.3a1.837 1.837 0 0 1-.117-.582 2.83 2.83 0 0 1-.628.498c-.281.159-.602.24-.957.24-.457 0-.832-.13-1.126-.385-.298-.257-.445-.62-.445-1.092 0-.609.238-1.054.714-1.324.263-.15.648-.255 1.154-.318zm.8.608a1.48 1.48 0 0 1-.253.125 2.21 2.21 0 0 1-.35.09l-.298.054c-.278.05-.48.108-.6.178-.206.117-.307.305-.307.553 0 .22.06.38.186.478.126.099.281.15.46.15.283 0 .548-.084.787-.247.24-.164.365-.464.374-.897zm5.89-2.523c.251.105.457.269.618.488.137.184.219.375.252.57.028.198.045.52.045.96v2.92h-1.335v-3.024c0-.268-.045-.484-.136-.649-.117-.229-.341-.345-.673-.345-.341 0-.602.116-.78.344-.175.229-.265.556-.265.982v2.691h-1.305v-6.693h1.305v2.367c.189-.283.407-.485.654-.6.25-.113.51-.17.784-.17.306 0 .586.054.835.16m5.256.071c.346.157.634.401.863.736.203.295.335.634.396 1.025.038.228.05.557.044.986h-3.636c.022.498.194.846.52 1.05.202.125.442.186.723.186.296 0 .539-.078.724-.229.101-.082.192-.195.269-.34h1.333c-.035.293-.197.594-.485.897-.446.482-1.074.726-1.88.726-.661 0-1.25-.204-1.756-.612-.51-.408-.765-1.072-.765-1.99 0-.861.23-1.519.691-1.98.458-.456 1.052-.687 1.785-.687.433 0 .826.077 1.174.232zm-1.952 1.122c-.184.19-.301.444-.348.77h2.248c-.025-.346-.14-.607-.35-.784a1.132 1.132 0 0 0-.772-.27c-.335 0-.595.096-.778.284m5.752.721c.244-.03.418-.065.523-.111.187-.08.282-.205.282-.371 0-.202-.073-.344-.217-.42-.144-.077-.356-.115-.635-.115-.312 0-.533.074-.662.227a.925.925 0 0 0-.187.456h-1.26c.03-.435.15-.792.368-1.07.346-.44.943-.656 1.785-.656.55 0 1.037.105 1.465.322.424.217.638.622.638 1.22v2.28c0 .156.003.35.01.573.005.17.035.289.075.347.046.06.11.11.195.15v.19h-1.419a1.329 1.329 0 0 1-.084-.28 2.657 2.657 0 0 1-.035-.302c-.183.193-.392.36-.627.498-.282.159-.599.24-.96.24-.455 0-.831-.13-1.126-.385-.295-.257-.445-.62-.445-1.092 0-.609.24-1.054.718-1.324.26-.15.643-.255 1.154-.318zm.798.608a1.48 1.48 0 0 1-.252.125c-.085.031-.2.063-.35.09l-.298.054c-.279.05-.478.108-.6.178a.597.597 0 0 0-.31.553c0 .22.064.38.191.478.125.099.278.15.457.15.287 0 .547-.084.788-.247.24-.164.366-.464.374-.897zm4.948-2.472a1.6 1.6 0 0 1 .574.55v-2.37h1.321v6.706h-1.267v-.688c-.188.297-.398.51-.637.644-.237.135-.533.2-.888.2-.585 0-1.073-.233-1.471-.705-.4-.47-.6-1.071-.6-1.804 0-.85.198-1.516.59-2.003.39-.484.916-.726 1.574-.726.301 0 .57.065.804.196zm.32 3.54c.194-.274.291-.63.291-1.062 0-.607-.154-1.043-.467-1.303a.974.974 0 0 0-.655-.238c-.382 0-.664.144-.844.43-.175.288-.266.643-.266 1.071 0 .456.09.823.272 1.098.18.277.458.412.827.412.37 0 .652-.135.843-.409m9.252.739c-.423.52-1.063.78-1.92.78-.86 0-1.498-.26-1.918-.78-.424-.516-.635-1.137-.635-1.865 0-.718.21-1.339.635-1.866.42-.523 1.058-.784 1.918-.784.857 0 1.497.261 1.92.784.422.527.631 1.148.631 1.866 0 .728-.209 1.35-.631 1.865zm-1.044-.717c.203-.27.304-.652.304-1.148 0-.498-.1-.882-.304-1.151-.204-.267-.5-.403-.88-.403-.381 0-.675.136-.88.403-.208.27-.31.653-.31 1.15 0 .497.102.88.31 1.15.205.269.499.403.88.403.38 0 .676-.134.88-.404m4.534-5.453c.068.005.159.01.276.023v1.057a5.33 5.33 0 0 0-.37-.02c-.172-.002-.291.033-.357.114a.41.41 0 0 0-.098.268v.42h.855v.915h-.855v4.003h-1.297v-4.003h-.731v-.916h.712v-.32c0-.532.093-.897.27-1.098.192-.298.65-.445 1.372-.445.082 0 .158 0 .223.005m4.718 6.775h-1.306v-6.715h1.306zm2.474-5.556h-1.322v-1.2h1.322zm-1.322.59h1.322v4.966h-1.322zm4.512-1.812c.066.005.158.01.272.023v1.057a5.213 5.213 0 0 0-.367-.02c-.172-.002-.29.033-.355.114a.399.399 0 0 0-.099.268v.42h.856v.915h-.856v4.003h-1.298v-4.003h-.73v-.916h.713v-.32c0-.532.09-.897.269-1.098.19-.298.646-.445 1.37-.445.082 0 .156 0 .225.005m4.169 1.91c.351.157.637.401.862.736.207.295.339.634.401 1.025.034.228.048.557.043.986h-3.637c.02.498.195.846.523 1.05.197.125.44.186.718.186.298 0 .54-.078.725-.229.1-.082.191-.195.267-.34h1.336c-.036.293-.195.594-.483.897-.45.482-1.074.726-1.881.726a2.735 2.735 0 0 1-1.759-.612c-.508-.408-.761-1.072-.761-1.99 0-.861.23-1.519.69-1.98.456-.456 1.052-.687 1.784-.687.434 0 .824.077 1.172.232zm-1.951 1.122c-.184.19-.3.444-.349.77h2.25c-.024-.346-.14-.607-.347-.784a1.146 1.146 0 0 0-.775-.27c-.337 0-.595.096-.779.284m-176.477-7.426c-.269 0-.404-.11-.404-.336V243.98H.822c-.27 0-.404-.134-.404-.402v-7.322c0-.27.135-.403.404-.403H39.31c.27 0 .405.134.405.403v7.322c0 .268-.135.402-.405.402H24.59v39.155c0 .225-.135.336-.403.336zm22.806-.334c-.125.257-.283.342-.474.342h-8.907a.343.343 0 0 1-.343-.342l18.733-46.978c.026-.097.164-.296.35-.296l9.032-.046c.19 0 .345.155.345.342z" style="fill:#c72e8f;fill-opacity:1;fill-rule:evenodd;stroke:none;stroke-width:.89227873" transform="translate(0 -235.352)"/><path d="M66.76 283.167c.081.184.253.34.442.34h8.942c.188 0 .406-.156.343-.34l-18.836-47.008c-.092-.27-.275-.342-.463-.342h-8.916c-.19 0-.377.105-.423.293zm19.734-.082c.069.184.217.343.409.343h8.972c.19 0 .388-.153.345-.343L77.433 236.16c-.11-.201-.173-.309-.36-.309l-9.02-.033a.346.346 0 0 0-.348.342z" style="fill:#3052a1;fill-opacity:1;fill-rule:evenodd;stroke:none;stroke-width:.89227873" transform="translate(0 -235.352)"/><path d="M63.53 247.162c.17.392 3.592 9.096 4.421 11.214.094.217.328.284.47-.015.135-.295 8.959-22.281 8.959-22.281-.045-.155-.214-.263-.39-.263h-9.04c-.128.005-.282.168-.345.342l-4.112 10.264s-.151.294.037.74" style="fill:#c72e8f;fill-opacity:1;fill-rule:evenodd;stroke:none;stroke-width:.89227873" transform="translate(0 -235.352)"/><path d="M158.1 246.042v6.616h-1.165v-6.616h-2.121V245h5.405v1.043zm5.18 6.616v-.495c-.401.396-.78.559-1.46.559-.683 0-1.14-.163-1.474-.497-.28-.288-.43-.707-.43-1.168 0-.918.638-1.572 1.892-1.572h1.449v-.39c0-.687-.347-1.02-1.202-1.02-.606 0-.896.14-1.198.528l-.724-.676c.518-.604 1.057-.787 1.968-.787 1.502 0 2.257.635 2.257 1.872v3.646zm-.023-2.41h-1.288c-.647 0-.982.29-.982.785 0 .495.313.774 1.004.774.423 0 .737-.031 1.028-.311.163-.162.238-.42.238-.807zm9.103 2.41v-3.324c0-.849-.486-1.216-1.104-1.216-.592 0-1.134.377-1.134 1.163v3.377h-1.104v-3.324c0-.849-.485-1.216-1.101-1.216-.617 0-1.134.377-1.134 1.216v3.324h-1.105v-5.454h1.082v.55c.368-.4.908-.614 1.458-.614.683 0 1.215.27 1.559.796.441-.54.993-.796 1.718-.796.562 0 1.059.183 1.384.495.423.407.586.925.586 1.537v3.486zm2.39-6.528v-1.163h1.168v1.162zm.034 6.528v-5.454h1.102v5.454zm3.946 0c-1.049 0-1.503-.699-1.503-1.506v-6.153h1.102v6.088c0 .42.153.633.595.633h.487v.938zm4.852 0v-3.324c0-.849-.483-1.216-1.1-1.216-.616 0-1.135.377-1.135 1.216v3.324h-1.104v-5.454h1.082v.55a1.966 1.966 0 0 1 1.46-.614c.56 0 1.025.183 1.35.495.42.407.55.925.55 1.537v3.486zm5.378 0v-.495c-.401.396-.781.559-1.458.559-.687 0-1.14-.163-1.475-.497-.28-.288-.43-.707-.43-1.168 0-.918.635-1.572 1.89-1.572h1.45v-.39c0-.687-.349-1.02-1.2-1.02-.605 0-.9.14-1.2.528l-.724-.676c.517-.604 1.058-.787 1.966-.787 1.503 0 2.26.635 2.26 1.872v3.646zm-.023-2.41h-1.285c-.65 0-.987.29-.987.785 0 .495.316.774 1.006.774.423 0 .735-.031 1.028-.311.162-.162.238-.42.238-.807zm5.569 2.41v-.581c-.413.493-.856.645-1.45.645-.552 0-1.038-.181-1.342-.485-.55-.546-.613-1.483-.613-2.313 0-.828.064-1.751.613-2.3.304-.301.78-.484 1.329-.484.585 0 1.04.14 1.44.614v-2.755h1.1v7.659zm-1.157-4.54c-.996 0-1.148.838-1.148 1.806 0 .97.152 1.82 1.148 1.82.992 0 1.135-.85 1.135-1.82 0-.968-.143-1.806-1.135-1.806m-38.858 15.295v-5.12l-1.772 3.734h-.865l-1.819-3.734v5.12h-1.164v-7.66h1.164l2.25 4.767 2.206-4.766h1.169v7.659zm3.473-2.408c0 .934.494 1.528 1.393 1.528.615 0 .94-.173 1.329-.56l.704.655c-.564.561-1.092.85-2.056.85-1.37 0-2.464-.72-2.464-2.796 0-1.764.917-2.786 2.327-2.786 1.468 0 2.323 1.076 2.323 2.624v.485zm2.31-1.508c-.172-.406-.561-.686-1.077-.686-.523 0-.921.28-1.094.686-.107.249-.13.41-.139.744h2.465c-.013-.334-.045-.495-.154-.744m5.342-.257c-.249-.249-.442-.365-.822-.365-.594 0-1.092.472-1.092 1.227v3.311H162.6v-5.454h1.082v.593c.28-.388.843-.656 1.46-.656.53 0 .93.14 1.305.516zm3.179 4.239c-1.233 0-2.443-.754-2.443-2.797 0-2.044 1.21-2.786 2.443-2.786.757 0 1.287.214 1.807.764l-.758.73c-.347-.377-.62-.515-1.049-.515-.422 0-.78.17-1.015.484-.24.302-.327.688-.327 1.323 0 .636.087 1.033.327 1.333.236.313.593.485 1.015.485.43 0 .702-.14 1.048-.517l.76.72c-.52.55-1.051.776-1.808.776m5.609-.066v-.494c-.4.398-.778.56-1.458.56-.68 0-1.136-.162-1.47-.496-.282-.29-.433-.71-.433-1.172 0-.913.637-1.57 1.891-1.57h1.447v-.389c0-.685-.343-1.02-1.198-1.02-.607 0-.897.14-1.2.527l-.726-.677c.52-.605 1.06-.786 1.972-.786 1.5 0 2.258.635 2.258 1.869v3.648zm-.023-2.408H173.1c-.648 0-.986.29-.986.784 0 .496.314.774 1.006.774.421 0 .736-.03 1.027-.312.164-.16.236-.418.236-.803zm5.765 2.408v-3.324c0-.85-.485-1.214-1.102-1.214-.62 0-1.137.376-1.137 1.214v3.324h-1.1v-5.454h1.08v.55a1.965 1.965 0 0 1 1.459-.613c.563 0 1.027.181 1.35.497.424.406.554.923.554 1.536v3.484zm4.056 0c-1.027 0-1.505-.73-1.505-1.517v-3h-.626v-.838h.626v-1.656h1.106v1.656h1.058v.838h-1.058v2.947c0 .398.193.636.605.636h.453v.934zm1.655-6.526v-1.165h1.166v1.165zm.031 6.526v-5.454h1.103v5.454zm3.946 0c-1.048 0-1.5-.698-1.5-1.505v-6.154h1.1v6.09c0 .418.15.635.596.635h.485v.934zm2.053-2.408c0 .934.497 1.528 1.393 1.528.616 0 .943-.173 1.332-.56l.702.655c-.562.561-1.09.85-2.054.85-1.373 0-2.465-.72-2.465-2.796 0-1.764.918-2.786 2.323-2.786 1.472 0 2.327 1.076 2.327 2.624v.485zm2.313-1.508c-.171-.406-.56-.686-1.082-.686-.517 0-.918.28-1.09.686-.108.249-.132.41-.14.744h2.465c-.013-.334-.044-.495-.153-.744m-34.415 14.673h-3.113v-7.658h2.993c1.428 0 2.325.807 2.325 2.096 0 .83-.52 1.42-1.037 1.627.596.234 1.156.804 1.156 1.773 0 1.41-.961 2.161-2.324 2.161zm-.216-6.615h-1.73v2.194h1.73c.747 0 1.253-.386 1.253-1.096 0-.71-.506-1.098-1.253-1.098zm.108 3.237h-1.838v2.336h1.838c.812 0 1.263-.497 1.263-1.173 0-.679-.451-1.163-1.263-1.163m6.605 3.378v-.494c-.397.395-.777.558-1.458.558-.683 0-1.135-.163-1.471-.494-.28-.29-.432-.71-.432-1.175 0-.911.637-1.569 1.891-1.569h1.45v-.385c0-.69-.346-1.023-1.2-1.023-.605 0-.899.14-1.2.526l-.724-.676c.517-.602 1.06-.785 1.967-.785 1.502 0 2.259.634 2.259 1.871v3.645zm-.02-2.41h-1.287c-.65 0-.984.29-.984.786 0 .493.313.773 1.003.773.424 0 .736-.03 1.027-.311.163-.163.24-.42.24-.807zm5.763 2.41v-3.324c0-.85-.486-1.216-1.101-1.216-.619 0-1.139.377-1.139 1.216v3.323h-1.101v-5.453h1.08v.547c.38-.406.908-.61 1.46-.61.562 0 1.028.183 1.352.494.42.408.55.925.55 1.538v3.484zm5.872 0-1.537-2.516-.81.911v1.604h-1.104v-7.657h1.103v4.722l2.131-2.518h1.342l-1.904 2.142 2.14 3.311zm4.442 0v-7.658h1.168v6.616h3.71v1.041zm7.333 0c-1.03 0-1.505-.732-1.505-1.517v-3h-.624v-.84h.624v-1.654h1.104v1.653h1.06v.84h-1.06v2.948c0 .4.194.634.604.634h.456v.935zm4.833 0v-.581c-.413.496-.856.645-1.449.645-.553 0-1.04-.181-1.343-.484-.55-.547-.613-1.484-.613-2.313 0-.826.064-1.753.613-2.301.304-.3.78-.483 1.329-.483.585 0 1.041.139 1.44.61v-2.75h1.1v7.656zm-1.157-4.54c-.998 0-1.148.84-1.148 1.807 0 .968.15 1.819 1.148 1.819.992 0 1.135-.85 1.135-1.819 0-.968-.143-1.807-1.135-1.807" style="fill:#3052a1;fill-opacity:1;fill-rule:evenodd;stroke:none;stroke-width:.89227873" transform="translate(0 -235.352)"/></svg>