<svg xmlns="http://www.w3.org/2000/svg" width="270.129" height="46.137" viewBox="0 0 71.472 12.207"><path d="m66.72.328 4.54 8.367c.546.902-.021 1.827-1.058 1.665-.327-.051-2.433-.34-5.096-.696l.76-1.026 3.605.395c.299.036.438-.051.266-.374 0 0-3.395-6.84-3.429-6.918-.114-.213-.24-.144-.344.047l-3.378 6.134c-.124.237-.076.354.28.389l1.311.143-.755.932-1.711-.27c-.428-.055-.567-.325-.332-.766.177-.333 4.159-7.6 4.159-7.6.079-.138.147-.245.228-.389.237-.417.668-.529.953-.033" style="fill:#00adef;fill-opacity:1;fill-rule:nonzero;stroke:none;stroke-width:.35278"/><path d="m56.871 6.748 5.96-1.051-.508.924-4.114.69c-.21.048-.191.142-.058.23 0 0 3.588 2.48 3.935 2.708.28.189.43.266.664-.036 0 0 2.914-3.574 3.066-3.815.222-.297.321-.416-.035-.353l-2.023.338.519-.935 2.713-.494c.619-.104.865.326.561.782-.26.372-4.56 6.158-4.56 6.158-.278.407-.487.39-.813.104l-5.488-4.55c-.334-.277-.229-.625.181-.7" style="fill:#fabc09;fill-opacity:1;fill-rule:nonzero;stroke:none;stroke-width:.35278"/><path d="M5.25 8.463h-.29c-.11.518-.217.947-.32 1.287-.103.333-.223.6-.355.8a1.12 1.12 0 0 1-.465.4c-.172.073-.38.11-.623.11-.653 0-1.136-.292-1.454-.877a3.496 3.496 0 0 1-.322-1.032c-.066-.408-.1-.933-.1-1.575 0-1.282.156-2.216.466-2.809.311-.592.796-.888 1.455-.888.222 0 .406.026.555.078.147.052.28.152.399.3a2.4 2.4 0 0 1 .332.622c.111.266.23.617.354 1.053a.332.332 0 0 1 .034.102.998.998 0 0 1 .044.131h.267V4.081c-.613-.305-1.226-.457-1.841-.457a3.4 3.4 0 0 0-1.398.278 2.951 2.951 0 0 0-1.066.776A3.661 3.661 0 0 0 .233 5.91 5.222 5.222 0 0 0 0 7.52c0 .576.078 1.098.233 1.564.164.466.389.865.678 1.2a3.188 3.188 0 0 0 1.054.764 3.48 3.48 0 0 0 1.388.266c.635 0 1.268-.143 1.897-.431zm3.88 2.707h1.443v-.254h-.522V7.364c0-.578-.156-1.01-.467-1.299-.301-.295-.75-.444-1.341-.444a3.662 3.662 0 0 0-1.765.444v1.698h.287c.083-.26.156-.485.222-.675.075-.2.15-.379.224-.534.125-.273.25-.456.376-.543.134-.09.33-.133.59-.133.635 0 .952.395.952 1.187v.775c-.14.06-.266.113-.376.156a5.056 5.056 0 0 1-.31.124c-.104.028-.215.058-.334.087-.111.023-.244.048-.4.079-.34.073-.6.144-.775.21a1.753 1.753 0 0 0-.456.255 1.249 1.249 0 0 0-.378.488 1.502 1.502 0 0 0-.133.623c0 .436.138.786.41 1.054.28.266.648.398 1.1.398.813 0 1.364-.372 1.652-1.12zm0-2.33c0 .643-.123 1.158-.367 1.542-.243.379-.572.568-.986.568-.518 0-.777-.379-.777-1.134 0-.384.07-.668.21-.854.14-.185.392-.326.755-.422l.388-.11a3.92 3.92 0 0 0 .277-.089c.09-.03.17-.06.244-.09a2.18 2.18 0 0 0 .255-.11Zm3.536-3.074h-1.441v.255h.52v4.894h-.52v.256h2.108v-.256h-.667V7.763c0-.532.108-.961.323-1.288.215-.325.5-.488.855-.488.236 0 .416.08.544.246.125.154.188.382.188.687v3.995h-.679v.256h2.11v-.256h-.51V6.854c0-.4-.118-.704-.356-.911-.237-.214-.587-.322-1.054-.322-.347 0-.631.083-.855.244-.221.163-.41.43-.566.798zm7.054 5.404h1.443v-.254h-.521V7.364c0-.578-.153-1.01-.464-1.299-.306-.295-.754-.444-1.347-.444a3.66 3.66 0 0 0-1.762.444v1.698h.287c.082-.26.156-.485.223-.675.073-.2.147-.379.223-.534.125-.273.252-.456.375-.543.135-.09.33-.133.59-.133.635 0 .953.395.953 1.187v.775a13.74 13.74 0 0 1-.376.156 5.176 5.176 0 0 1-.311.124c-.104.028-.216.058-.332.087l-.4.079c-.34.073-.6.144-.778.21a1.785 1.785 0 0 0-.454.255 1.217 1.217 0 0 0-.377.488 1.498 1.498 0 0 0-.134.623c0 .436.137.786.41 1.054.282.266.648.398 1.1.398.814 0 1.364-.372 1.652-1.12zm0-2.33c0 .643-.12 1.158-.365 1.542-.244.379-.575.568-.988.568-.517 0-.776-.379-.776-1.134 0-.384.069-.668.211-.854.14-.185.392-.326.754-.422l.388-.11c.104-.03.196-.06.277-.089.09-.03.17-.06.244-.09a2.18 2.18 0 0 0 .255-.11zm5.57-.987v-2.03a1.468 1.468 0 0 0-.345-.157 1.233 1.233 0 0 0-.344-.045c-.303 0-.558.082-.765.244-.2.156-.392.423-.577.8v-.9h-1.442v.256h.52v4.894h-.52v.256h2.242v-.256h-.733V8.33c0-.23.003-.428.009-.598.017-.172.034-.322.057-.456.023-.141.052-.266.09-.377.036-.112.08-.222.131-.333.075-.146.171-.273.29-.377.117-.111.222-.167.311-.167a.255.255 0 0 1 .11.021c.03.01.056.035.078.08.03.037.059.093.09.166.034.073.078.174.12.299.082.2.149.396.2.588a9.116 9.116 0 0 1 .178.678zm3.591 3.317h1.442v-.254h-.52V7.364c0-.578-.156-1.01-.468-1.299-.303-.295-.751-.444-1.343-.444-.628 0-1.216.15-1.765.444v1.698h.29c.08-.26.156-.485.222-.675.073-.2.149-.379.222-.534.127-.273.252-.456.377-.543.133-.09.329-.133.588-.133.637 0 .955.395.955 1.187v.775c-.141.06-.267.113-.377.156a5.185 5.185 0 0 1-.31.124c-.105.028-.216.058-.334.087-.111.023-.245.048-.4.079a5.718 5.718 0 0 0-.776.21 1.83 1.83 0 0 0-.457.255 1.245 1.245 0 0 0-.375.488 1.498 1.498 0 0 0-.135.623c0 .436.138.786.411 1.054.281.266.648.398 1.099.398.813 0 1.365-.372 1.654-1.12zm0-2.33c0 .643-.123 1.158-.368 1.542-.242.379-.57.568-.986.568-.517 0-.776-.379-.776-1.134 0-.384.07-.668.21-.854.14-.185.392-.326.754-.422l.39-.11c.103-.03.195-.06.277-.089a4.648 4.648 0 0 0 .499-.2zm4.641-5.071v.255h.666v6.892h-.666v.254h2.375c.423 0 .804-.025 1.144-.077.34-.06.628-.144.866-.255.37-.17.662-.411.877-.723a1.827 1.827 0 0 0 .321-1.042 1.64 1.64 0 0 0-.233-.854 1.67 1.67 0 0 0-.622-.622 2.376 2.376 0 0 0-.599-.233 5.212 5.212 0 0 0-.866-.112c.578-.088 1.026-.288 1.343-.599a1.56 1.56 0 0 0 .476-1.164c0-.267-.06-.515-.187-.744a1.709 1.709 0 0 0-.544-.588 1.895 1.895 0 0 0-.7-.3 5.008 5.008 0 0 0-1.042-.088Zm1.776 3.395v-3.14h.799c.465 0 .803.126 1.009.377.214.244.323.633.323 1.165 0 .57-.133.98-.4 1.232-.265.244-.702.366-1.31.366zm0 3.752V7.42h.822c.326 0 .598.033.82.1.223.06.403.155.545.288.146.134.25.308.31.521.066.215.1.474.1.777 0 .652-.155 1.118-.466 1.4-.304.272-.817.41-1.542.41zm7.587.254h1.443v-.254h-.522V7.364c0-.578-.155-1.01-.465-1.299-.304-.295-.75-.444-1.342-.444-.63 0-1.219.15-1.765.444v1.698h.287c.082-.26.156-.485.222-.675.074-.2.15-.379.223-.534.126-.273.252-.456.376-.543.135-.09.33-.133.588-.133.637 0 .955.395.955 1.187v.775c-.138.06-.266.113-.377.156a5.014 5.014 0 0 1-.311.124c-.104.028-.215.058-.331.087l-.401.079c-.34.073-.6.144-.777.21a1.791 1.791 0 0 0-.454.255 1.254 1.254 0 0 0-.378.488 1.52 1.52 0 0 0-.133.623c0 .436.136.786.41 1.054.282.266.647.398 1.099.398.815 0 1.365-.372 1.653-1.12zm0-2.33c0 .643-.12 1.158-.365 1.542-.246.379-.576.568-.988.568-.517 0-.777-.379-.777-1.134 0-.384.07-.668.211-.854.141-.185.392-.326.754-.422l.389-.11c.104-.03.198-.06.278-.089.089-.03.17-.06.243-.09a2.2 2.2 0 0 0 .255-.11zm3.536-3.074h-1.44v.255h.52v4.894h-.52v.256h2.105v-.256h-.665V7.763c0-.532.108-.961.323-1.288.213-.325.498-.488.854-.488.239 0 .418.08.543.246.127.154.189.382.189.687v3.995h-.676v.256h2.11v-.256h-.513V6.854c0-.4-.118-.704-.354-.911-.239-.214-.589-.322-1.054-.322-.35 0-.634.083-.855.244-.222.163-.411.43-.567.798zM51.8 3.769h-1.444v.255h.523v6.892h-.523v.254h2.11v-.254H51.8zm.044 4.55 1.944 2.85h1.386v-.253h-.421l-2.165-3.064 1.553-1.831h.499v-.255h-1.52v.255h.668z" style="fill:#00adef;fill-opacity:1;fill-rule:nonzero;stroke:none;stroke-width:.35278"/></svg>