<svg xmlns="http://www.w3.org/2000/svg" width="459.666" height="100.044" viewBox="0 0 121.62 26.47"><path d="M.01.012h121.6v26.446H.011Z" style="fill:#00adef;fill-opacity:1;fill-rule:evenodd;stroke:none;stroke-width:.212535"/><path d="m0 0 12.871-23.718c1.548-2.557-.061-5.18-2.998-4.721-.927.146-6.899.964-14.446 1.975l2.153 2.906L7.8-24.677c.847-.101 1.241.145.754 1.062 0 0-9.625 19.385-9.719 19.609-.324.602-.682.408-.975-.133 0 0-9.454-17.168-9.578-17.388-.35-.673-.214-1.005.797-1.103l3.715-.406-2.14-2.642-4.851.765c-1.212.157-1.607.922-.94 2.173.502.944 11.787 21.541 11.787 21.541.225.394.417.697.646 1.103C-2.031 1.087-.809 1.405 0 0" style="fill:#fff;fill-opacity:1;fill-rule:nonzero;stroke:none" transform="matrix(.35278 0 0 -.35278 114.91 1.249)"/><path d="m0 0 16.892 2.978-1.44-2.62-11.66-1.957c-.595-.134-.542-.4-.165-.649 0 0 10.17-7.03 11.154-7.677.792-.536 1.217-.753 1.883.101 0 0 8.261 10.132 8.691 10.814.628.844.91 1.179-.099 1.002l-5.734-.958 1.469 2.651 7.691 1.4c1.755.295 2.452-.925 1.592-2.218-.738-1.055-12.926-17.455-12.926-17.455-.788-1.154-1.381-1.107-2.305-.295C13.904-13.936-.515-1.984-.515-1.984-1.461-1.201-1.162-.214 0 0" style="fill:#fabc09;fill-opacity:1;fill-rule:nonzero;stroke:none" transform="matrix(.35278 0 0 -.35278 105.062 7.669)"/><path d="M0 0h-.822c-.311-1.47-.616-2.686-.91-3.65-.291-.943-.631-1.7-1.004-2.267-.38-.541-.822-.918-1.319-1.134-.488-.206-1.076-.311-1.766-.311-1.85 0-3.22.828-4.12 2.485-.423.815-.724 1.794-.914 2.927-.186 1.155-.284 2.643-.284 4.464 0 3.632.442 6.282 1.321 7.961.883 1.678 2.256 2.517 4.124 2.517.631 0 1.151-.073 1.574-.219.416-.148.795-.433 1.13-.853.332-.416.649-1.006.942-1.761.316-.754.652-1.75 1.004-2.987a.942.942 0 0 0 .096-.287 2.83 2.83 0 0 0 .126-.373h.757v5.909c-1.739.865-3.478 1.296-5.22 1.296-1.468 0-2.791-.266-3.964-.789a8.366 8.366 0 0 1-3.021-2.199c-.837-.969-1.489-2.13-1.952-3.493-.441-1.366-.661-2.886-.661-4.565 0-1.631.22-3.112.661-4.431.463-1.323 1.102-2.453 1.922-3.401A9.037 9.037 0 0 1-9.313-7.33c1.177-.505 2.485-.753 3.934-.753 1.8 0 3.596.407 5.379 1.223z" style="fill:#fff;fill-opacity:1;fill-rule:nonzero;stroke:none" transform="matrix(.35278 0 0 -.35278 53.441 9.384)"/><path d="M0 0h4.093v.723H2.611V10.79c0 1.638-.44 2.863-1.323 3.682-.854.836-2.127 1.258-3.802 1.258a10.38 10.38 0 0 1-5.002-1.258V9.659h.815c.233.736.441 1.374.627 1.915.213.568.424 1.072.635 1.513.355.774.71 1.292 1.068 1.539.378.254.933.377 1.669.377 1.803 0 2.702-1.12 2.702-3.364V9.44c-.397-.17-.756-.318-1.068-.441a14.332 14.332 0 0 0-.878-.351c-.294-.079-.61-.165-.947-.248-.315-.064-.692-.136-1.133-.222-.964-.207-1.699-.408-2.198-.599a4.969 4.969 0 0 1-1.292-.72 3.54 3.54 0 0 1-1.072-1.385 4.258 4.258 0 0 1-.376-1.764c0-1.237.391-2.23 1.162-2.987.795-.754 1.836-1.129 3.117-1.129C-2.38-.406-.817.648 0 2.767zm0 6.608c0-1.825-.348-3.285-1.04-4.372-.688-1.075-1.619-1.61-2.795-1.61-1.468 0-2.202 1.073-2.202 3.213 0 1.09.197 1.893.598 2.421.394.524 1.109.924 2.137 1.197.438.122.807.23 1.101.313.294.081.556.168.786.25.254.087.483.169.691.256.231.082.475.186.724.311z" style="fill:#fff;fill-opacity:1;fill-rule:nonzero;stroke:none" transform="matrix(.35278 0 0 -.35278 57.32 12.092)"/><path d="M0 0h-4.087v-.725h1.477v-13.873h-1.477v-.725h5.976v.725H0v8.935c0 1.51.305 2.726.914 3.651.611.922 1.417 1.385 2.425 1.385.667 0 1.179-.23 1.541-.697.355-.438.534-1.085.534-1.947v-11.327H3.489v-.725H9.47v.725H8.021v11.513c0 1.134-.333 1.995-1.007 2.583C6.343.105 5.35.41 4.027.41c-.983 0-1.789-.236-2.425-.693C.976-.745.44-1.498 0-2.545Z" style="fill:#fff;fill-opacity:1;fill-rule:nonzero;stroke:none" transform="matrix(.35278 0 0 -.35278 60.857 6.687)"/><path d="M0 0h4.089v.723H2.611V10.79c0 1.638-.433 2.863-1.315 3.682-.865.836-2.135 1.258-3.817 1.258-1.777 0-3.445-.422-4.995-1.258V9.659h.815c.232.736.441 1.374.631 1.915.208.568.416 1.072.632 1.513.354.774.713 1.292 1.064 1.539.383.254.935.377 1.67.377 1.801 0 2.704-1.12 2.704-3.364V9.44a38.95 38.95 0 0 0-1.068-.441 14.672 14.672 0 0 0-.881-.351c-.295-.079-.611-.165-.941-.248-.318-.064-.694-.136-1.136-.222-.964-.207-1.701-.408-2.202-.599a5.06 5.06 0 0 1-1.288-.72 3.45 3.45 0 0 1-1.068-1.385 4.246 4.246 0 0 1-.38-1.764c0-1.237.388-2.23 1.162-2.987.799-.754 1.836-1.129 3.116-1.129C-2.377-.406-.817.648 0 2.767zm0 6.608c0-1.825-.344-3.285-1.036-4.372-.692-1.075-1.631-1.61-2.8-1.61-1.466 0-2.201 1.073-2.201 3.213 0 1.09.196 1.893.599 2.421.396.524 1.11.924 2.136 1.197.442.122.808.23 1.101.313.294.081.556.168.785.25.255.087.484.169.692.256.234.082.473.186.724.311Z" style="fill:#fff;fill-opacity:1;fill-rule:nonzero;stroke:none" transform="matrix(.35278 0 0 -.35278 67.911 12.092)"/><path d="M0 0v5.754a4.162 4.162 0 0 1-.975.443 3.495 3.495 0 0 1-.976.128c-.86 0-1.581-.232-2.168-.692-.568-.442-1.112-1.198-1.636-2.266v2.55h-4.088v-.726h1.474V-8.682h-1.474v-.723h6.355v.723h-2.077v7.332c0 .651.007 1.214.025 1.696.047.486.097.911.161 1.292.065.399.148.754.255 1.069.102.316.23.628.373.943.211.415.484.775.822 1.068.332.316.627.473.882.473a.724.724 0 0 0 .311-.06c.083-.026.158-.097.22-.223.085-.106.167-.265.253-.473.1-.208.223-.492.344-.847.231-.565.42-1.124.567-1.666A25.84 25.84 0 0 0-.849 0Z" style="fill:#fff;fill-opacity:1;fill-rule:nonzero;stroke:none" transform="matrix(.35278 0 0 -.35278 73.48 8.774)"/><path d="M0 0h4.087v.723H2.61V10.79c0 1.638-.44 2.863-1.323 3.682-.861.836-2.13 1.258-3.808 1.258-1.78 0-3.447-.422-5.003-1.258V9.659h.822c.229.736.441 1.374.628 1.915.207.568.422 1.072.63 1.513.359.774.714 1.292 1.07 1.539.375.254.931.377 1.667.377 1.804 0 2.707-1.12 2.707-3.364V9.44c-.402-.17-.757-.318-1.069-.441a14.698 14.698 0 0 0-.882-.351c-.295-.079-.61-.165-.943-.248-.316-.064-.696-.136-1.137-.222-.96-.207-1.696-.408-2.199-.599a5.186 5.186 0 0 1-1.294-.72 3.53 3.53 0 0 1-1.064-1.385 4.247 4.247 0 0 1-.381-1.764c0-1.237.391-2.23 1.165-2.987.796-.754 1.836-1.129 3.113-1.129C-2.385-.406-.821.648 0 2.767zm0 6.608c0-1.825-.349-3.285-1.044-4.372C-1.73 1.161-2.66.626-3.838.626c-1.466 0-2.201 1.073-2.201 3.213 0 1.09.197 1.893.595 2.421.398.524 1.111.924 2.138 1.197.441.122.81.23 1.104.313.294.081.555.168.785.25.25.087.484.169.693.256.229.082.473.186.724.311z" style="fill:#fff;fill-opacity:1;fill-rule:nonzero;stroke:none" transform="matrix(.35278 0 0 -.35278 77.072 12.092)"/><path d="M0 0v-.725h1.886V-20.26H0v-.72h6.731c1.2 0 2.278.071 3.242.217.965.172 1.782.409 2.455.723 1.048.485 1.876 1.167 2.486 2.05a5.18 5.18 0 0 1 .911 2.954c0 .882-.223 1.688-.66 2.42a4.733 4.733 0 0 1-1.764 1.764 6.734 6.734 0 0 1-1.697.661c-.609.147-1.43.253-2.455.316 1.638.25 2.908.816 3.806 1.698.901.88 1.35 1.981 1.35 3.3 0 .756-.171 1.459-.53 2.108-.355.649-.872 1.209-1.543 1.669-.568.4-1.226.684-1.983.848C9.593-.086 8.61 0 7.394 0Zm5.034-9.625v8.9h2.264c1.319 0 2.276-.355 2.86-1.068.607-.692.917-1.793.917-3.303 0-1.617-.379-2.779-1.134-3.492-.753-.69-1.991-1.037-3.712-1.037Zm0-10.635v9.91h2.328c.924 0 1.696-.093 2.327-.283.632-.169 1.141-.441 1.543-.818.415-.379.709-.871.878-1.477.189-.609.286-1.344.286-2.202 0-1.847-.441-3.17-1.321-3.966-.862-.774-2.318-1.164-4.373-1.164z" style="fill:#fff;fill-opacity:1;fill-rule:nonzero;stroke:none" transform="matrix(.35278 0 0 -.35278 81.713 4.69)"/><path d="M0 0h4.088v.723H2.61V10.79c0 1.638-.44 2.863-1.319 3.682-.861.836-2.126 1.258-3.805 1.258-1.785 0-3.453-.422-5.003-1.258V9.659h.815c.232.736.441 1.374.63 1.915.21.568.423 1.072.632 1.513.355.774.714 1.292 1.066 1.539.383.254.935.377 1.666.377 1.806 0 2.708-1.12 2.708-3.364V9.44c-.393-.17-.756-.318-1.069-.441a14.212 14.212 0 0 0-.883-.351c-.294-.079-.608-.165-.939-.248-.319-.064-.694-.136-1.136-.222-.962-.207-1.699-.408-2.202-.599a5.077 5.077 0 0 1-1.288-.72 3.556 3.556 0 0 1-1.071-1.385 4.306 4.306 0 0 1-.376-1.764c0-1.237.386-2.23 1.162-2.987.799-.754 1.835-1.129 3.115-1.129C-2.377-.406-.818.648 0 2.767zm0 6.608c0-1.825-.344-3.285-1.037-4.372-.695-1.075-1.631-1.61-2.8-1.61-1.466 0-2.201 1.073-2.201 3.213 0 1.09.197 1.893.598 2.421.399.524 1.109.924 2.137 1.197.439.122.807.23 1.101.313.295.081.561.168.79.25.251.087.479.169.688.256.232.082.476.186.724.311z" style="fill:#fff;fill-opacity:1;fill-rule:nonzero;stroke:none" transform="matrix(.35278 0 0 -.35278 91.076 12.092)"/><path d="M0 0h-4.085v-.725h1.474v-13.873h-1.474v-.725h5.97v.725H0v8.935c0 1.51.305 2.726.913 3.651.606.922 1.412 1.385 2.422 1.385.677 0 1.186-.23 1.54-.697.359-.438.535-1.085.535-1.947v-11.327H3.495v-.725h5.978v.725H8.02v11.513c0 1.134-.333 1.995-1.003 2.583C6.341.105 5.349.41 4.03.41c-.991 0-1.797-.236-2.425-.693C.978-.745.441-1.498 0-2.545Z" style="fill:#fff;fill-opacity:1;fill-rule:nonzero;stroke:none" transform="matrix(.35278 0 0 -.35278 94.612 6.687)"/><path d="M0 0h-4.093v-.725h1.482V-20.26h-1.482v-.72h5.982v.72H0Zm.124-12.899 5.509-8.081h3.93v.72H8.369l-6.136 8.685 4.403 5.191h1.413v.721H3.743v-.721h1.89z" style="fill:#fff;fill-opacity:1;fill-rule:nonzero;stroke:none" transform="matrix(.35278 0 0 -.35278 99.991 4.69)"/><path d="m0 0-.098.181c-.638 1.028-1.652 1.78-2.598 1.811-.113.008-.181 0-.264 0-.684 0-1.225-.435-1.757-1.413-.526-.962-.791-2.36-.791-4.171 0-2.05.28-3.266.821-4.267.526-.985 1.007-1.427 2.164-1.427 1.112 0 1.855.503 2.508 1.564zm-9.511 5.163h-2.509v-17.05h1.712v-.907h-6.753v.907h1.854v3.682a4.155 4.155 0 0 0-.668-.939c-.759-.797-1.871-1.186-3.336-1.186a6.01 6.01 0 0 0-2.353.473 6.056 6.056 0 0 0-1.848 1.367 6.524 6.524 0 0 0-1.217 2.021c-.301.789-.443 1.648-.443 2.563v.134c0 .924.142 1.789.443 2.571.3.781.698 1.45 1.217 2.021a6.182 6.182 0 0 0 1.848 1.359 6.012 6.012 0 0 0 2.353.474c1.465 0 2.577-.392 3.336-1.178.255-.266.481-.571.668-.949v4.637h-9.173v.916h7.43l-5.349 4.809h-1.796v.812h4.29l4.952-4.682-2.051 5.502h-1.489l.008.817h3.802l2.547-7.258h24.33v-.916H3.059V.992c.119.174.248.346.398.497.723.797 1.804 1.186 3.232 1.186.802 0 1.563-.158 2.277-.473A5.604 5.604 0 0 0 10.753.834a6.635 6.635 0 0 0 1.188-2.012 7.656 7.656 0 0 0 .428-2.579c0-.961-.151-1.832-.458-2.628-.315-.806-.737-1.496-1.27-2.06-.564-.586-1.926-1.787-3.442-1.787-.953 0-1.36.291-2.051.524-.068.024-.18.062-.286.107v4.342h.632c.21-.88.261-1.075.458-1.759.172-.571.309-.999.487-1.442.152-.398.445-.931.812-.931.558 0 .992.684 1.316 1.413.39.885.585 2.08.585 3.891 0 2.058-.27 3.576-.819 4.577-.524.999-1.276 1.45-2.427 1.45-1.112 0-1.773-.481-2.426-1.533a3.409 3.409 0 0 1-.406-.984l-.015-11.316h1.57v-.901h-6.176v.901H0v2.78c-.736-.798-1.794-1.18-3.215-1.18-.812 0-1.57.151-2.293.474-.683.345-1.284.788-1.78 1.374-.511.564-.901 1.239-1.186 2.015-.295.788-.437 1.637-.437 2.577 0 .954.152 1.832.467 2.622.309.811.729 1.495 1.269 2.065a6.109 6.109 0 0 0 1.991 1.345c.737.303 1.54.459 2.405.474 1.308-.015 2.081-.48 2.711-1.164L0 5.163Zm-5.892-11.941-6.31 4.931a16.176 16.176 0 0 1-.151-2.127c.014-1.939.294-3.38.826-4.334.556-.984 1.465-1.219 2.398-1.219 1.149 0 2.043.585 2.72 1.653.178.285.291.437.399.805.02.09.089.172.118.291zM-21.458-.69l6.251-4.952-.023 3.621c-.096.49-.194.894-.276 1.173a4.034 4.034 0 0 1-.414.991c-.684 1.06-1.578 1.691-2.488 1.691-1.186 0-2.057-.488-2.615-1.48a5.603 5.603 0 0 1-.435-1.044zM-70.177.918l-.157.021-.152.015-.211.008a1.894 1.894 0 0 1-1.239-.383c-.361-.27-.624-.653-.796-1.164a7.369 7.369 0 0 1-.272-1.231 22.268 22.268 0 0 1-.059-1.736c0-.954.039-1.691.113-2.218.074-.511.21-.925.398-1.248.173-.301.405-.532.708-.704.299-.174.63-.256 1.013-.256.45 0 .827.082 1.127.256.3.172.549.442.743.811.196.36.339.841.406 1.441.091.616.128 1.361.128 2.247 0 .744-.029 1.383-.105 1.909-.075.532-.202.968-.384 1.299-.179.332-.414.579-.69.73a2.18 2.18 0 0 1-.571.203zM-91.367 0l-.096.181c-.638 1.028-1.655 1.78-2.609 1.811-.104.008-.179 0-.262 0-.684 0-1.219-.435-1.76-1.413-.526-.962-.772-2.36-.772-4.171 0-2.05.264-3.266.796-4.267.541-.985 1.014-1.427 2.172-1.427 1.112 0 1.855.503 2.51 1.564zm-.081 6.079-4.471 6.268h-1.834v.827h4.561l4.833-7.095h55.164v-.916h-2.564v-17.05h1.835v-.907h-6.626v.907h1.599v17.05h-2.057l-4.598-.009c1.358-.277 3.995-.689 3.995-3.501 0-1.163-.429-2.126-1.02-2.72-.564-.622-1.917-1.329-3.013-1.329l-3.585.015v-6.876c0-2.021.398-2.847 1.976-2.847.639 0 1.127.122 1.457.359.309.22.677.669 1.001 1.362.173.398.307.675.488 1.179.157.503.344 1.083.547 1.743h.716v-4.334c-1.362-.768-2.946-1.142-4.509-1.142-1.466 0-2.728.374-3.478 1.142a4.495 4.495 0 0 0-1.415 3.314v6.1h-2.5v.948h.945l6.304.014c1.841 0 2.51 1.93 2.51 3.199 0 .963-.324 2.714-1.563 3.232-.315.137-.714.106-1.014.151h-10.511v-17.05h1.593v-.907h-6.379v.907h1.591V.82h-6.266c.437-.202.812-.202 1.135-.511.503-.451.902-.963 1.172-1.569a4.303 4.303 0 0 0 .451-1.957 5.59 5.59 0 0 0-.451-2.253 4.794 4.794 0 0 0-1.196-1.756c-.493-.496-1.102-.88-1.802-1.159a6.364 6.364 0 0 0-2.299-.405c-.768 0-1.511.134-2.232.429a5.598 5.598 0 0 0-1.895 1.215 4.773 4.773 0 0 0-1.081 1.579c-.218.579-.336 1.277-.336 2.066 0 .76.142 1.45.419 2.103.3.64.708 1.189 1.225 1.662.519.459 1.12.826 1.81 1.089.7.255 1.466.391 2.3.391h9.046v3.419h-26.845V.992c.119.174.247.346.391.497.727.797 1.818 1.186 3.229 1.186.813 0 1.571-.158 2.286-.473A5.518 5.518 0 0 0-80.622.834a6.365 6.365 0 0 0 1.189-2.012c.292-.805.428-1.661.428-2.579 0-.961-.152-1.832-.461-2.628a6.15 6.15 0 0 0-1.269-2.06c-.562-.586-1.923-1.787-3.425-1.787-.971 0-1.369.291-2.059.524a7.12 7.12 0 0 0-.301.107v4.342h.639c.218-.88.262-1.075.459-1.759.18-.571.309-.999.487-1.442.158-.398.452-.931.82-.931.547 0 .985.684 1.315 1.413.383.885.579 2.08.579 3.891 0 2.058-.27 3.576-.806 4.577-.541.999-1.275 1.45-2.44 1.45-1.112 0-1.775-.481-2.428-1.533a3.67 3.67 0 0 1-.399-.984l-.021-11.316h1.579v-.901h-6.186v.901h1.555v2.78c-.734-.798-1.811-1.18-3.223-1.18-.811 0-1.57.151-2.276.474a5.454 5.454 0 0 0-1.796 1.374c-.503.564-.894 1.239-1.18 2.015-.301.788-.436 1.637-.436 2.577 0 .954.15 1.832.459 2.622a6.185 6.185 0 0 0 1.27 2.065 6.07 6.07 0 0 0 1.992 1.345 6.61 6.61 0 0 0 2.419.474c1.29-.015 2.072-.48 2.696-1.164l.075 3.674h-7.934v.916zm81.966 4.651c.459 0 .835-.166 1.142-.48.324-.301.481-.685.481-1.135 0-.43-.148-.819-.451-1.135a1.538 1.538 0 0 0-1.104-.451c-.457 0-.841.157-1.172.482a1.563 1.563 0 0 0-.474 1.135c0 .435.151.803.452 1.104.323.314.698.48 1.126.48" style="fill:#fff;fill-opacity:1;fill-rule:nonzero;stroke:none" transform="matrix(.35278 0 0 -.35278 37.386 7.504)"/><path d="M0 0a.376.376 0 0 0 .026-.113.083.083 0 0 0-.022-.064.16.16 0 0 0-.085-.028 2.076 2.076 0 0 0-.314-.002.355.355 0 0 0-.087.015.092.092 0 0 0-.045.031c-.01.012-.018.028-.028.048l-.351.997h-1.703l-.335-.985a.167.167 0 0 0-.025-.05.153.153 0 0 0-.046-.034.272.272 0 0 0-.086-.02 1.092 1.092 0 0 0-.144-.008 1.01 1.01 0 0 0-.15.009c-.039.005-.068.014-.082.03-.016.015-.024.037-.022.065 0 .03.01.066.026.112l1.374 3.809a.16.16 0 0 0 .033.056.124.124 0 0 0 .061.034c.026.01.059.016.1.019.043.004.094.004.158.004.067 0 .123 0 .167-.004a.396.396 0 0 0 .107-.019.14.14 0 0 0 .064-.035.153.153 0 0 0 .034-.058zm82.071-.11a.075.075 0 0 0-.014-.045.098.098 0 0 0-.042-.033.397.397 0 0 0-.083-.017 1.036 1.036 0 0 0-.138-.008c-.055 0-.102.003-.14.006a.49.49 0 0 0-.092.015.172.172 0 0 0-.062.032.271.271 0 0 0-.044.05l-1.201 1.578V-.113a.078.078 0 0 0-.012-.044.134.134 0 0 0-.042-.031.353.353 0 0 0-.079-.017.909.909 0 0 0-.257 0 .386.386 0 0 0-.082.017.114.114 0 0 0-.042.031.087.087 0 0 0-.011.044v4.229c0 .017.004.033.011.044a.084.084 0 0 0 .042.032c.02.008.047.014.082.018a.883.883 0 0 0 .127.007.93.93 0 0 0 .13-.007.3.3 0 0 0 .079-.018.094.094 0 0 0 .042-.032.076.076 0 0 0 .012-.044V1.54l1.074 1.184a.34.34 0 0 0 .053.054c.02.012.043.024.068.034a.38.38 0 0 0 .093.019c.036.004.079.004.13.004.054 0 .098 0 .133-.004a.453.453 0 0 0 .086-.015.127.127 0 0 0 .048-.029c.01-.011.014-.027.014-.046a.156.156 0 0 0-.021-.076.436.436 0 0 0-.067-.088l-1.028-1.034L81.994.039a.58.58 0 0 0 .059-.088.12.12 0 0 0 .018-.061zm1.132-.003a.072.072 0 0 0-.013-.044.129.129 0 0 0-.041-.031.884.884 0 0 0-.21-.025.883.883 0 0 0-.208.025.106.106 0 0 0-.042.031.087.087 0 0 0-.012.044v2.851c0 .015.005.029.012.041.007.013.022.023.042.033.02.007.047.013.081.017.034.004.076.006.127.006.053 0 .096-.002.129-.006a.361.361 0 0 0 .081-.017.108.108 0 0 0 .041-.033.067.067 0 0 0 .013-.041zm.058 3.811c0-.123-.024-.206-.07-.25-.047-.045-.131-.067-.257-.067-.124 0-.207.022-.252.064-.046.044-.068.126-.068.247 0 .123.022.206.069.251.046.044.133.066.257.066s.208-.021.253-.064c.045-.044.068-.126.068-.247zm3.355-3.811a.078.078 0 0 0-.012-.044.134.134 0 0 0-.042-.031.873.873 0 0 0-.207-.025.909.909 0 0 0-.13.008.363.363 0 0 0-.08.017.129.129 0 0 0-.041.031.08.08 0 0 0-.014.044v1.669c0 .162-.012.294-.037.393a.849.849 0 0 1-.11.257.482.482 0 0 1-.186.164.598.598 0 0 1-.266.057.667.667 0 0 1-.391-.139 2.096 2.096 0 0 1-.409-.409V-.113a.072.072 0 0 0-.013-.044.129.129 0 0 0-.041-.031.363.363 0 0 0-.08-.017.909.909 0 0 0-.257 0 .374.374 0 0 0-.081.017.106.106 0 0 0-.042.031.078.078 0 0 0-.012.044v2.851c0 .017.004.031.01.043a.089.089 0 0 0 .038.031c.02.009.043.016.073.019.03.004.07.004.119.004.046 0 .085 0 .115-.004a.19.19 0 0 0 .072-.019c.017-.01.03-.02.037-.031a.083.083 0 0 0 .011-.043V2.36c.16.181.319.312.479.396.158.084.318.125.481.125.188 0 .348-.032.478-.096a.863.863 0 0 0 .314-.259.997.997 0 0 0 .172-.379c.034-.144.052-.318.052-.521zm3.334 2.718a.325.325 0 0 0-.03-.161c-.019-.033-.045-.049-.078-.049h-.409a.651.651 0 0 0 .156-.249 1.123 1.123 0 0 0-.035-.722.885.885 0 0 0-.227-.32.993.993 0 0 0-.351-.203 1.358 1.358 0 0 0-.78-.024.7.7 0 0 0-.242.117.611.611 0 0 1-.089-.13.399.399 0 0 1-.034-.169c0-.075.034-.136.103-.185a.493.493 0 0 1 .272-.08l.743-.031c.14-.004.27-.024.387-.059a.974.974 0 0 0 .307-.148.703.703 0 0 0 .202-.237.687.687 0 0 0 .072-.328.87.87 0 0 0-.081-.373.859.859 0 0 0-.253-.312 1.257 1.257 0 0 0-.431-.211 2.162 2.162 0 0 0-.621-.078c-.229 0-.425.02-.586.059a1.276 1.276 0 0 0-.398.16.624.624 0 0 0-.224.241.691.691 0 0 0-.069.307c0 .07.008.137.024.203a.816.816 0 0 0 .208.355c.052.054.111.108.179.16a.498.498 0 0 0-.301.46c0 .128.026.244.077.346.053.1.116.191.193.272a.927.927 0 0 0-.155.264.982.982 0 0 0-.057.357c0 .161.027.307.082.437a.926.926 0 0 0 .228.324c.098.09.214.158.35.205.136.048.285.072.446.072a1.82 1.82 0 0 0 .453-.058h.861c.037 0 .063-.018.081-.053a.347.347 0 0 0 .027-.159Zm-.817-.749c0 .194-.052.346-.159.454-.108.109-.258.163-.454.163a.657.657 0 0 1-.266-.051.539.539 0 0 1-.296-.343.806.806 0 0 1-.037-.242c0-.187.053-.334.16-.442.107-.107.257-.161.449-.161.101 0 .192.016.268.049a.508.508 0 0 1 .189.136.58.58 0 0 1 .11.201.75.75 0 0 1 .036.236zm.26-2.255a.318.318 0 0 1-.151.284.763.763 0 0 1-.406.105l-.735.024a1.273 1.273 0 0 1-.166-.149.757.757 0 0 1-.103-.135.518.518 0 0 1-.053-.129.614.614 0 0 1-.013-.129c0-.137.069-.24.208-.311.14-.07.333-.106.581-.106.159 0 .291.015.397.046a.727.727 0 0 1 .256.122.447.447 0 0 1 .185.378zm-47.7 4.309a.642.642 0 0 0-.006-.097.525.525 0 0 0-.015-.058c-.005-.015-.011-.026-.021-.031a.07.07 0 0 0-.03-.007.153.153 0 0 0-.057.013l-.081.033a.808.808 0 0 1-.263.046.493.493 0 0 1-.2-.037.33.33 0 0 1-.133-.121.564.564 0 0 1-.072-.209 1.766 1.766 0 0 1-.023-.315v-.31h.635a.065.065 0 0 0 .042-.012.087.087 0 0 0 .031-.038.24.24 0 0 0 .024-.069.557.557 0 0 0 .007-.1.373.373 0 0 0-.028-.166c-.02-.033-.044-.05-.076-.05h-.635V-.113a.079.079 0 0 0-.013-.044.129.129 0 0 0-.043-.031.858.858 0 0 0-.207-.025.878.878 0 0 0-.207.025.114.114 0 0 0-.042.031.072.072 0 0 0-.014.044v2.495h-.404c-.032 0-.059.017-.076.05a.41.41 0 0 0-.026.166c0 .04.003.074.007.1a.292.292 0 0 0 .019.069.082.082 0 0 0 .032.038.077.077 0 0 0 .044.012h.404v.295c0 .2.019.37.056.513a.887.887 0 0 0 .169.35c.077.092.172.16.288.204a1.178 1.178 0 0 0 .622.043.975.975 0 0 0 .162-.043.265.265 0 0 0 .076-.044.142.142 0 0 0 .031-.049.288.288 0 0 0 .019-.073c.003-.028.004-.063.004-.103zm2.484-4.02a.075.075 0 0 0-.013-.045c-.008-.013-.023-.022-.045-.03a.794.794 0 0 0-.215-.028.802.802 0 0 0-.214.028c-.022.008-.037.017-.045.03a.082.082 0 0 0-.012.045v3.934a.07.07 0 0 0 .013.044c.01.014.026.023.048.03.022.008.05.014.085.02a.89.89 0 0 0 .125.007.961.961 0 0 0 .132-.007.44.44 0 0 0 .083-.02c.022-.007.037-.016.045-.03a.07.07 0 0 0 .013-.044zm3.481-.003a.072.072 0 0 0-.013-.044.129.129 0 0 0-.041-.031.873.873 0 0 0-.207-.025.914.914 0 0 0-.131.008.366.366 0 0 0-.079.017.11.11 0 0 0-.041.031.071.071 0 0 0-.012.044v1.669c0 .162-.014.294-.04.393a.8.8 0 0 1-.109.257.48.48 0 0 1-.188.164.584.584 0 0 1-.265.057.664.664 0 0 1-.39-.139 2.126 2.126 0 0 1-.41-.409V-.113a.071.071 0 0 0-.012-.044.134.134 0 0 0-.042-.031.353.353 0 0 0-.079-.017.909.909 0 0 0-.257 0 .36.36 0 0 0-.082.017.114.114 0 0 0-.042.031.087.087 0 0 0-.011.044v2.851c0 .017.004.031.011.043.006.011.017.021.037.031a.22.22 0 0 0 .074.019.97.97 0 0 0 .118.004c.046 0 .084 0 .115-.004a.196.196 0 0 0 .072-.019.119.119 0 0 0 .037-.031.094.094 0 0 0 .012-.043V2.36c.158.181.317.312.478.396.158.084.318.125.481.125.188 0 .348-.032.478-.096a.884.884 0 0 0 .315-.259c.08-.107.136-.234.171-.379.034-.144.052-.318.052-.521zm3.393 0a.094.094 0 0 0-.011-.045.09.09 0 0 0-.039-.031.654.654 0 0 0-.289-.016.35.35 0 0 0-.073.016.097.097 0 0 0-.041.031.087.087 0 0 0-.013.045v.379a1.93 1.93 0 0 0-.465-.381 1.077 1.077 0 0 0-.531-.137c-.209 0-.387.042-.534.123a1.02 1.02 0 0 0-.36.33 1.46 1.46 0 0 0-.199.488 2.613 2.613 0 0 0-.064.589c0 .245.026.468.078.664.054.198.131.367.235.506.102.139.231.246.384.321.153.075.329.112.53.112a.985.985 0 0 0 .458-.108c.137-.075.273-.182.408-.323v1.653c0 .015.004.029.011.043.007.014.022.023.043.032a.733.733 0 0 0 .206.026.762.762 0 0 0 .208-.026.107.107 0 0 0 .044-.032.071.071 0 0 0 .014-.043zm-.526 2.006c-.14.176-.276.311-.408.402a.711.711 0 0 1-.412.139.58.58 0 0 1-.338-.095.737.737 0 0 1-.225-.251c-.058-.103-.1-.22-.126-.351a1.971 1.971 0 0 1-.04-.399c0-.143.011-.285.034-.422.021-.137.061-.26.114-.366a.715.715 0 0 1 .219-.257.572.572 0 0 1 .34-.096c.069 0 .136.009.201.028.063.019.13.051.196.094.067.045.138.102.212.173.074.071.151.157.233.261zm2.019-2.006a.079.079 0 0 0-.013-.044.15.15 0 0 0-.04-.031.889.889 0 0 0-.212-.025.883.883 0 0 0-.208.025.106.106 0 0 0-.042.031.087.087 0 0 0-.01.044v2.851a.08.08 0 0 0 .01.041.092.092 0 0 0 .042.033c.02.007.046.013.081.017.034.004.076.006.127.006.054 0 .097-.002.13-.006a.4.4 0 0 0 .082-.017c.018-.01.03-.02.04-.033a.074.074 0 0 0 .013-.041zm.058 3.811c0-.123-.024-.206-.07-.25-.046-.045-.132-.067-.258-.067-.122 0-.207.022-.252.064-.046.044-.068.126-.068.247 0 .123.023.206.07.251.046.044.132.066.257.066.123 0 .208-.021.253-.064.045-.044.068-.126.068-.247zm3.05-3.815c0-.024-.008-.044-.025-.057a.156.156 0 0 0-.07-.028.745.745 0 0 0-.261 0 .146.146 0 0 0-.071.028.074.074 0 0 0-.022.057v.285a1.388 1.388 0 0 0-.417-.309 1.113 1.113 0 0 0-.486-.111c-.149 0-.285.02-.407.059a.879.879 0 0 0-.309.17.746.746 0 0 0-.201.272.918.918 0 0 0-.071.368.802.802 0 0 0 .38.714 1.4 1.4 0 0 0 .45.176c.176.038.376.058.598.058h.394v.222c0 .11-.013.206-.035.292a.51.51 0 0 1-.113.211.479.479 0 0 1-.201.127.913.913 0 0 1-.303.043c-.128 0-.244-.015-.346-.047a1.857 1.857 0 0 1-.463-.205.245.245 0 0 0-.114-.047.072.072 0 0 0-.044.014c-.014.007-.024.02-.033.038a.179.179 0 0 0-.021.063.609.609 0 0 0-.006.088c0 .051.003.093.011.124.007.03.025.06.054.087a.901.901 0 0 0 .146.097c.069.036.151.072.242.102.089.031.188.056.296.077.107.021.217.03.326.03.204 0 .378-.022.521-.069a.852.852 0 0 0 .348-.205.778.778 0 0 0 .192-.333c.041-.134.061-.29.061-.467zm-.518 1.305h-.446c-.143 0-.267-.011-.374-.036a.777.777 0 0 1-.262-.108.455.455 0 0 1-.154-.171.525.525 0 0 1-.048-.23c0-.148.046-.266.141-.353.093-.088.224-.132.393-.132.137 0 .264.035.381.105.117.069.24.176.369.319zm6.08.134c0-.248-.037-.47-.109-.666a1.362 1.362 0 0 0-.312-.495 1.314 1.314 0 0 0-.494-.307 1.94 1.94 0 0 0-.662-.106c-.225 0-.43.033-.616.099a1.31 1.31 0 0 0-.478.29 1.263 1.263 0 0 0-.307.48 1.881 1.881 0 0 0-.108.665v2.542c0 .017.005.033.013.044a.08.08 0 0 0 .045.03.46.46 0 0 0 .083.02.955.955 0 0 0 .134.007.968.968 0 0 0 .13-.007.433.433 0 0 0 .084-.02.085.085 0 0 0 .044-.03.076.076 0 0 0 .012-.044V1.349c0-.19.023-.355.069-.497A.919.919 0 0 1 58.943.5a.82.82 0 0 1 .315-.212c.123-.048.261-.072.416-.072.156 0 .296.022.42.069a.805.805 0 0 1 .312.21.905.905 0 0 1 .195.344c.046.138.069.298.069.481v2.504c0 .017.004.033.012.044a.08.08 0 0 0 .045.03.474.474 0 0 0 .084.02c.035.005.08.007.133.007.05 0 .093-.002.129-.007a.413.413 0 0 0 .081-.02c.021-.007.037-.016.046-.03a.065.065 0 0 0 .014-.044zm3.472-1.435a.078.078 0 0 0-.012-.044.114.114 0 0 0-.042-.031.353.353 0 0 0-.079-.017.894.894 0 0 0-.127-.008.889.889 0 0 0-.21.025.123.123 0 0 0-.042.031.078.078 0 0 0-.012.044v1.669c0 .162-.013.294-.038.393a.826.826 0 0 1-.111.257.489.489 0 0 1-.186.164.596.596 0 0 1-.267.057.666.666 0 0 1-.389-.139 2.126 2.126 0 0 1-.41-.409V-.113a.072.072 0 0 0-.013-.044.118.118 0 0 0-.041-.031.884.884 0 0 0-.209-.025.888.888 0 0 0-.209.025.106.106 0 0 0-.042.031.078.078 0 0 0-.011.044v2.851c0 .017.003.031.009.043a.1.1 0 0 0 .039.031.22.22 0 0 0 .073.019c.03.004.07.004.117.004.048 0 .087 0 .117-.004a.202.202 0 0 0 .072-.019.148.148 0 0 0 .037-.031.094.094 0 0 0 .01-.043V2.36c.161.181.319.312.478.396.16.084.32.125.482.125.189 0 .349-.032.479-.096a.88.88 0 0 0 .314-.259c.08-.107.137-.234.172-.379.035-.144.051-.318.051-.521zm3.393 0a.084.084 0 0 0-.011-.045.09.09 0 0 0-.037-.031.662.662 0 0 0-.29-.016.377.377 0 0 0-.074.016.111.111 0 0 0-.041.031.097.097 0 0 0-.011.045v.379a1.938 1.938 0 0 0-.467-.381 1.079 1.079 0 0 0-.53-.137c-.21 0-.387.042-.534.123a1.011 1.011 0 0 0-.36.33c-.09.138-.157.301-.2.488a2.613 2.613 0 0 0-.064.589c0 .245.026.468.079.664.053.198.131.367.235.506.103.139.231.246.384.321.153.075.329.112.53.112a.978.978 0 0 0 .457-.108c.138-.075.274-.182.409-.323v1.653c0 .015.003.029.01.043.009.014.022.023.044.032a.731.731 0 0 0 .206.026.77.77 0 0 0 .208-.026.103.103 0 0 0 .043-.032.071.071 0 0 0 .014-.043zm-.525 2.006c-.14.176-.277.311-.408.402a.714.714 0 0 1-.412.139.58.58 0 0 1-.338-.095.74.74 0 0 1-.226-.251 1.205 1.205 0 0 1-.125-.351 1.902 1.902 0 0 1-.04-.399c0-.143.011-.285.034-.422.021-.137.06-.26.114-.366a.703.703 0 0 1 .218-.257.574.574 0 0 1 .34-.096c.069 0 .136.009.201.028.064.019.13.051.197.094.067.045.138.102.212.173.073.071.151.157.233.261zm3.918-.456c0-.083-.021-.141-.062-.178a.22.22 0 0 0-.141-.051h-1.872c0-.159.016-.301.048-.428a.798.798 0 0 1 .159-.328.71.71 0 0 1 .287-.208c.119-.048.264-.074.435-.074.134 0 .256.011.361.034a2.267 2.267 0 0 1 .464.148c.05.022.086.033.113.033a.077.077 0 0 0 .039-.011.07.07 0 0 0 .026-.034.18.18 0 0 0 .015-.061.862.862 0 0 0-.006-.219.19.19 0 0 0-.016-.044.293.293 0 0 0-.028-.036.573.573 0 0 0-.103-.056 1.458 1.458 0 0 0-.222-.078 3.51 3.51 0 0 0-.314-.067 2.293 2.293 0 0 0-.38-.031c-.234 0-.439.033-.616.099a1.15 1.15 0 0 0-.444.291c-.119.131-.21.29-.27.485-.061.194-.092.42-.092.678 0 .244.031.465.095.66.063.195.154.361.273.497.119.137.264.24.432.315.169.072.358.108.567.108.223 0 .413-.035.57-.107.159-.071.286-.169.388-.291.1-.121.175-.263.223-.428.047-.163.071-.338.071-.523zm-.525.154c.007.274-.054.49-.183.647-.129.157-.317.235-.569.235a.758.758 0 0 1-.341-.072.741.741 0 0 1-.244-.195.898.898 0 0 1-.153-.281 1.225 1.225 0 0 1-.06-.334Zm2.992.962c0-.046-.001-.085-.004-.116a.276.276 0 0 0-.013-.076.094.094 0 0 0-.023-.041c-.009-.009-.022-.013-.04-.013a.176.176 0 0 0-.061.013c-.025.009-.052.02-.082.028-.031.01-.065.019-.103.028a.59.59 0 0 1-.123.012.397.397 0 0 1-.155-.031.643.643 0 0 1-.16-.105A1.45 1.45 0 0 1 73 2.058a4.707 4.707 0 0 1-.203-.296V-.113a.078.078 0 0 0-.012-.044.129.129 0 0 0-.041-.031.889.889 0 0 0-.337-.017.386.386 0 0 0-.082.017.114.114 0 0 0-.042.031.087.087 0 0 0-.011.044v2.851c0 .017.004.031.01.043.006.011.018.021.038.031.02.009.043.016.073.019.03.004.069.004.119.004.046 0 .084 0 .115-.004a.196.196 0 0 0 .072-.019c.017-.01.03-.02.037-.031a.083.083 0 0 0 .011-.043v-.416c.077.115.151.208.219.28.069.072.134.129.195.171a.622.622 0 0 0 .363.108.93.93 0 0 0 .305-.051.232.232 0 0 0 .065-.031c.013-.011.021-.02.024-.03a.136.136 0 0 0 .013-.036.317.317 0 0 0 .007-.064l.001-.116zM76.011.099a.68.68 0 0 0-.013-.146.162.162 0 0 0-.038-.08.237.237 0 0 0-.076-.047 1.15 1.15 0 0 0-.252-.06 1.024 1.024 0 0 0-.146-.01c-.147 0-.274.019-.379.058a.617.617 0 0 0-.258.178.729.729 0 0 0-.148.3c-.03.12-.045.264-.045.427v1.663h-.401c-.031 0-.058.017-.077.05a.359.359 0 0 0-.028.166c0 .04.002.074.007.1a.336.336 0 0 0 .021.069.085.085 0 0 0 .08.05h.398v.676c0 .015.003.029.011.041a.083.083 0 0 0 .041.033c.02.009.047.017.082.022.033.004.075.006.128.006.052 0 .096-.002.129-.006a.3.3 0 0 0 .08-.022.1.1 0 0 0 .041-.033.073.073 0 0 0 .012-.041v-.676h.727a.084.084 0 0 0 .077-.05.248.248 0 0 0 .02-.069.557.557 0 0 0 .007-.1.357.357 0 0 0-.029-.166c-.018-.033-.044-.05-.075-.05h-.727V.797c0-.196.03-.345.087-.444.058-.1.161-.15.31-.15a.51.51 0 0 1 .129.014c.038.01.071.019.101.03l.075.03a.12.12 0 0 0 .056.015.06.06 0 0 0 .031-.008.066.066 0 0 0 .021-.03.52.52 0 0 0 .021-.155zm2.76-.216c0-.024-.008-.044-.025-.057a.156.156 0 0 0-.069-.028.718.718 0 0 0-.261 0c-.033.006-.057.014-.072.028-.015.013-.022.032-.022.057v.285a1.384 1.384 0 0 0-.416-.309 1.127 1.127 0 0 0-.487-.111c-.149 0-.286.02-.407.059a.887.887 0 0 0-.309.17.77.77 0 0 0-.201.272.918.918 0 0 0-.072.368c0 .161.033.3.099.418a.813.813 0 0 0 .282.296 1.4 1.4 0 0 0 .45.176c.177.038.377.058.598.058h.393v.222c0 .11-.011.206-.034.292a.52.52 0 0 1-.112.211.498.498 0 0 1-.201.127.932.932 0 0 1-.304.043c-.129 0-.244-.015-.345-.047a1.829 1.829 0 0 1-.463-.205.252.252 0 0 0-.115-.047.072.072 0 0 0-.044.014.09.09 0 0 0-.033.038.16.16 0 0 0-.021.063.604.604 0 0 0 .004.212.2.2 0 0 0 .054.087.941.941 0 0 0 .148.097c.069.036.149.072.24.102.089.031.19.056.298.077.107.021.215.03.324.03.204 0 .378-.022.522-.069a.87.87 0 0 0 .349-.205.797.797 0 0 0 .191-.333c.041-.134.061-.29.061-.467zm-.519 1.305h-.445c-.143 0-.268-.011-.373-.036a.783.783 0 0 1-.263-.108.444.444 0 0 1-.202-.401.46.46 0 0 1 .14-.353c.095-.088.225-.132.395-.132.136 0 .263.035.38.105.117.069.24.176.368.319zM-1.763 3.361h-.003l-.706-2.043h1.424zm6.985-.014a.506.506 0 0 0-.025-.184.103.103 0 0 0-.033-.042.069.069 0 0 0-.041-.012c-.025 0-.066.019-.126.06a2.427 2.427 0 0 1-.238.135 2.27 2.27 0 0 1-.356.133 1.78 1.78 0 0 1-.492.06 1.43 1.43 0 0 1-.608-.123 1.295 1.295 0 0 1-.456-.343 1.53 1.53 0 0 1-.288-.519 2.083 2.083 0 0 1-.099-.653c0-.263.036-.494.108-.698.075-.203.175-.375.305-.514.128-.139.282-.245.461-.316.178-.073.375-.109.588-.109a1.648 1.648 0 0 1 .749.185v1.197h-.949c-.037 0-.064.018-.081.054a.391.391 0 0 0-.027.168c0 .041.003.074.006.103A.249.249 0 0 0 3.641 2c.01.017.021.03.033.038a.08.08 0 0 0 .048.013h1.3a.193.193 0 0 0 .07-.013.17.17 0 0 0 .107-.108.31.31 0 0 0 .016-.101V.266a.347.347 0 0 0-.028-.143.244.244 0 0 0-.121-.106 2.92 2.92 0 0 0-.851-.249 2.802 2.802 0 0 0-.314-.02c-.318 0-.6.05-.849.149A1.723 1.723 0 0 0 2.026.97a2.495 2.495 0 0 0-.137.849c0 .325.049.621.147.885.099.262.237.487.415.675.178.185.393.328.642.433.25.102.527.152.832.152.155 0 .301-.014.439-.041.137-.028.259-.061.366-.097.106-.038.195-.077.269-.122a.817.817 0 0 0 .15-.108.2.2 0 0 0 .056-.095.54.54 0 0 0 .017-.154Zm3.603-2.001c0-.233-.031-.447-.092-.643A1.418 1.418 0 0 0 8.46.199a1.24 1.24 0 0 0-.455-.331 1.605 1.605 0 0 0-.635-.12c-.234 0-.438.036-.612.106s-.319.171-.435.304a1.3 1.3 0 0 0-.259.484c-.057.19-.085.405-.085.646 0 .232.03.446.09.641.061.195.151.365.272.507.121.141.272.25.453.328.181.079.394.117.636.117.235 0 .438-.034.612-.104a1.13 1.13 0 0 0 .435-.304c.115-.133.203-.294.26-.485.058-.19.088-.404.088-.642Zm-.545-.034c0 .154-.013.301-.043.438a1.064 1.064 0 0 1-.141.361.694.694 0 0 1-.267.245.872.872 0 0 1-.419.091.89.89 0 0 1-.399-.082.721.721 0 0 1-.274-.234 1.036 1.036 0 0 1-.16-.356 1.776 1.776 0 0 1-.054-.451c0-.156.015-.303.044-.44.027-.138.076-.257.142-.361a.737.737 0 0 1 .268-.242.89.89 0 0 1 .421-.09c.151 0 .283.026.397.081a.756.756 0 0 1 .276.232c.072.099.124.217.159.355.034.138.05.288.05.453zm3.624 1.432-.001-.027-.004-.03-.009-.035a.424.424 0 0 0-.011-.041l-.971-2.709a.22.22 0 0 0-.033-.057.153.153 0 0 0-.062-.035.523.523 0 0 0-.105-.017 2.182 2.182 0 0 0-.317.002.63.63 0 0 0-.102.017.164.164 0 0 0-.062.036.204.204 0 0 0-.036.054l-.967 2.709a.798.798 0 0 0-.031.109l-.001.024c0 .017.004.032.011.044.01.014.024.024.044.031a.342.342 0 0 0 .079.014c.032.002.073.002.122.002.061 0 .11 0 .147-.004a.33.33 0 0 0 .085-.017.1.1 0 0 0 .045-.032.293.293 0 0 0 .027-.048l.803-2.35.014-.038.009.038.794 2.35c.004.02.013.035.023.048.01.013.026.023.045.032a.352.352 0 0 0 .083.017c.036.004.08.004.138.004.048 0 .089 0 .119-.002a.264.264 0 0 0 .076-.016.089.089 0 0 0 .037-.03.073.073 0 0 0 .011-.043zm2.955-1.307c0-.083-.02-.141-.062-.178a.22.22 0 0 0-.141-.051h-1.871c0-.159.016-.301.047-.428a.81.81 0 0 1 .159-.328.704.704 0 0 1 .287-.208c.119-.048.264-.074.435-.074.134 0 .256.011.36.034a2.19 2.19 0 0 1 .465.148c.05.022.086.033.113.033a.071.071 0 0 0 .039-.011.06.06 0 0 0 .026-.034.202.202 0 0 0 .016-.061.862.862 0 0 0 0-.167c-.002-.019-.003-.037-.007-.052a.154.154 0 0 0-.044-.08.504.504 0 0 0-.103-.056 1.498 1.498 0 0 0-.222-.078 3.436 3.436 0 0 0-.314-.067 2.284 2.284 0 0 0-.38-.031c-.235 0-.439.033-.615.099a1.142 1.142 0 0 0-.444.291c-.12.131-.21.29-.271.485-.062.194-.092.42-.092.678 0 .244.031.465.095.66.063.195.155.361.273.497.119.137.264.24.433.315.168.072.357.108.565.108.224 0 .415-.035.571-.107.158-.071.287-.169.389-.291.1-.121.174-.263.222-.428.048-.163.071-.338.071-.523zm-.525.154c.006.274-.054.49-.182.647-.129.157-.318.235-.57.235a.757.757 0 0 1-.34-.072.735.735 0 0 1-.245-.195.896.896 0 0 1-.152-.281 1.154 1.154 0 0 1-.06-.334Zm2.991.962-.002-.116a.313.313 0 0 0-.014-.076.105.105 0 0 0-.023-.041c-.009-.009-.022-.013-.039-.013a.18.18 0 0 0-.062.013c-.025.009-.052.02-.082.028a.614.614 0 0 1-.226.04.397.397 0 0 1-.155-.031.64.64 0 0 1-.159-.105 1.45 1.45 0 0 1-.177-.194 5.798 5.798 0 0 1-.202-.296V-.113a.072.072 0 0 0-.013-.044.113.113 0 0 0-.04-.031.899.899 0 0 0-.337-.017.361.361 0 0 0-.081.017.106.106 0 0 0-.042.031.078.078 0 0 0-.012.044v2.851c0 .017.004.031.01.043a.1.1 0 0 0 .037.031.249.249 0 0 0 .075.019.961.961 0 0 0 .117.004c.046 0 .086 0 .115-.004a.208.208 0 0 0 .074-.019.126.126 0 0 0 .036-.031.083.083 0 0 0 .011-.043v-.416c.078.115.152.208.22.28.069.072.133.129.193.171a.634.634 0 0 0 .365.108.916.916 0 0 0 .304-.051.218.218 0 0 0 .065-.031.085.085 0 0 0 .026-.03.194.194 0 0 0 .011-.036.435.435 0 0 0 .006-.064l.001-.116zM20.37-.113a.078.078 0 0 0-.012-.044.148.148 0 0 0-.042-.031.863.863 0 0 0-.207-.025.914.914 0 0 0-.131.008.366.366 0 0 0-.079.017.118.118 0 0 0-.041.031.072.072 0 0 0-.013.044v1.669c0 .162-.013.294-.038.393a.802.802 0 0 1-.11.257.478.478 0 0 1-.187.164.593.593 0 0 1-.265.057.667.667 0 0 1-.391-.139 2.096 2.096 0 0 1-.409-.409V-.113a.079.079 0 0 0-.013-.044.129.129 0 0 0-.041-.031.377.377 0 0 0-.08-.017.909.909 0 0 0-.257 0 .4.4 0 0 0-.082.017.11.11 0 0 0-.041.031.078.078 0 0 0-.011.044v2.851c0 .017.003.031.01.043a.085.085 0 0 0 .037.031c.02.009.043.016.074.019a.97.97 0 0 0 .118.004c.046 0 .085 0 .115-.004a.185.185 0 0 0 .072-.019c.017-.01.03-.02.037-.031a.075.075 0 0 0 .012-.043V2.36c.159.181.318.312.478.396.158.084.318.125.481.125.189 0 .348-.032.478-.096a.863.863 0 0 0 .314-.259 1.03 1.03 0 0 0 .173-.379 2.3 2.3 0 0 0 .051-.521zm5.182 0a.066.066 0 0 0-.014-.044.113.113 0 0 0-.04-.031.863.863 0 0 0-.206-.025.904.904 0 0 0-.21.025.114.114 0 0 0-.042.031.071.071 0 0 0-.012.044v1.732c0 .121-.012.231-.033.33a.751.751 0 0 1-.101.257.484.484 0 0 1-.176.164.534.534 0 0 1-.253.057.59.59 0 0 1-.361-.139 2.562 2.562 0 0 1-.4-.409V-.113a.078.078 0 0 0-.012-.044.135.135 0 0 0-.044-.031.868.868 0 0 0-.333-.017.36.36 0 0 0-.082.017.103.103 0 0 0-.043.031.078.078 0 0 0-.011.044v1.732c0 .121-.011.231-.034.33a.87.87 0 0 1-.105.257.484.484 0 0 1-.176.164.523.523 0 0 1-.251.057.603.603 0 0 1-.364-.139 2.4 2.4 0 0 1-.398-.409V-.113a.072.072 0 0 0-.014-.044.113.113 0 0 0-.04-.031.899.899 0 0 0-.21-.025.888.888 0 0 0-.208.025.1.1 0 0 0-.042.031.071.071 0 0 0-.012.044v2.851c0 .017.003.031.01.043a.089.089 0 0 0 .038.031.22.22 0 0 0 .074.019.97.97 0 0 0 .117.004c.046 0 .086 0 .116-.004a.202.202 0 0 0 .072-.019.132.132 0 0 0 .037-.031.094.094 0 0 0 .01-.043V2.36c.16.181.318.312.468.396a.93.93 0 0 0 .457.125c.119 0 .225-.014.319-.04a.894.894 0 0 0 .249-.117.741.741 0 0 0 .184-.178c.05-.068.092-.144.126-.23.096.104.186.191.271.264.085.072.167.13.247.175a.983.983 0 0 0 .229.096c.076.021.151.03.226.03a1 1 0 0 0 .462-.096.874.874 0 0 0 .302-.259 1.07 1.07 0 0 0 .165-.379c.031-.144.048-.297.048-.458zm3.377 1.55c0-.083-.021-.141-.062-.178a.222.222 0 0 0-.141-.051h-1.872c0-.159.016-.301.047-.428a.812.812 0 0 1 .16-.328.7.7 0 0 1 .286-.208c.119-.048.265-.074.435-.074.135 0 .257.011.361.034a2.238 2.238 0 0 1 .464.148c.05.022.088.033.113.033a.077.077 0 0 0 .04-.011.064.064 0 0 0 .025-.034.156.156 0 0 0 .016-.061.862.862 0 0 0-.006-.219c-.003-.017-.01-.03-.017-.044a.176.176 0 0 0-.028-.036.536.536 0 0 0-.103-.056 1.523 1.523 0 0 0-.221-.078 3.588 3.588 0 0 0-.314-.067 2.305 2.305 0 0 0-.381-.031c-.234 0-.439.033-.615.099a1.142 1.142 0 0 0-.444.291 1.27 1.27 0 0 0-.271.485c-.062.194-.092.42-.092.678 0 .244.031.465.095.66.063.195.155.361.273.497.12.137.265.24.433.315.168.072.357.108.567.108.222 0 .413-.035.57-.107.157-.071.286-.169.388-.291.1-.121.175-.263.223-.428.047-.163.071-.338.071-.523zm-.526.154c.006.274-.053.49-.182.647-.129.157-.318.235-.57.235a.76.76 0 0 1-.34-.072.741.741 0 0 1-.244-.195.898.898 0 0 1-.153-.281 1.189 1.189 0 0 1-.06-.334ZM32.18-.113a.072.072 0 0 0-.013-.044.123.123 0 0 0-.042-.031.34.34 0 0 0-.079-.017.914.914 0 0 0-.258 0 .34.34 0 0 0-.079.017.102.102 0 0 0-.041.031.072.072 0 0 0-.014.044v1.669c0 .162-.013.294-.038.393a.78.78 0 0 1-.11.257.47.47 0 0 1-.187.164.59.59 0 0 1-.265.057.67.67 0 0 1-.391-.139 2.122 2.122 0 0 1-.408-.409V-.113a.079.079 0 0 0-.013-.044.134.134 0 0 0-.042-.031.889.889 0 0 0-.21-.025.873.873 0 0 0-.208.025.106.106 0 0 0-.042.031.078.078 0 0 0-.012.044v2.851c0 .017.004.031.011.043.006.011.018.021.038.031a.22.22 0 0 0 .073.019c.03.004.069.004.118.004.047 0 .085 0 .115-.004a.196.196 0 0 0 .073-.019.148.148 0 0 0 .037-.031.094.094 0 0 0 .01-.043V2.36c.16.181.319.312.479.396.159.084.319.125.481.125.189 0 .349-.032.478-.096a.867.867 0 0 0 .315-.259c.08-.107.137-.234.172-.379.034-.144.052-.318.052-.521zm2.373.212a.621.621 0 0 0-.013-.146.154.154 0 0 0-.038-.08.242.242 0 0 0-.075-.047 1.15 1.15 0 0 0-.253-.06 1.01 1.01 0 0 0-.145-.01c-.148 0-.275.019-.379.058a.614.614 0 0 0-.259.178.727.727 0 0 0-.147.3c-.03.12-.046.264-.046.427v1.663h-.4c-.032 0-.058.017-.077.05a.359.359 0 0 0-.028.166.413.413 0 0 0 .028.169.09.09 0 0 0 .033.038c.014.009.03.012.047.012h.397v.676c0 .015.004.029.011.041.007.013.022.024.043.033a.288.288 0 0 0 .081.022c.033.004.075.006.127.006.053 0 .095-.002.129-.006a.288.288 0 0 0 .081-.022.1.1 0 0 0 .041-.033.073.073 0 0 0 .012-.041v-.676h.727a.07.07 0 0 0 .043-.012.078.078 0 0 0 .033-.038.217.217 0 0 0 .021-.069.686.686 0 0 0 .006-.1.373.373 0 0 0-.028-.166c-.019-.033-.044-.05-.075-.05h-.727V.797c0-.196.029-.345.087-.444.057-.1.161-.15.31-.15.047 0 .091.004.129.014.037.01.071.019.1.03l.076.03c.02.011.039.015.056.015.011 0 .02-.002.03-.008a.054.054 0 0 0 .021-.03.4.4 0 0 0 .021-.155zm4.804 1.247c0-.233-.03-.447-.092-.643a1.434 1.434 0 0 0-.273-.504 1.243 1.243 0 0 0-.456-.331 1.599 1.599 0 0 0-.633-.12c-.235 0-.439.036-.613.106s-.319.171-.434.304a1.302 1.302 0 0 0-.26.484c-.057.19-.085.405-.085.646 0 .232.031.446.089.641.061.195.151.365.272.507.122.141.274.25.455.328.181.079.394.117.635.117.235 0 .438-.034.612-.104.175-.069.319-.172.435-.304a1.3 1.3 0 0 0 .261-.485c.058-.19.087-.404.087-.642zm-.544-.034c0 .154-.015.301-.044.438a1.065 1.065 0 0 1-.142.361.687.687 0 0 1-.267.245.862.862 0 0 1-.418.091.89.89 0 0 1-.399-.082.732.732 0 0 1-.275-.234 1.036 1.036 0 0 1-.16-.356 1.825 1.825 0 0 1-.052-.451c0-.156.013-.303.043-.44.028-.138.075-.257.142-.361a.737.737 0 0 1 .268-.242.89.89 0 0 1 .42-.09.89.89 0 0 1 .397.081.74.74 0 0 1 .276.232.954.954 0 0 1 .159.355c.034.138.052.288.052.453" style="fill:#fff;fill-opacity:1;fill-rule:nonzero;stroke:none" transform="matrix(.35278 0 0 -.35278 71.632 16.19)"/><path d="M0 0h1.648v1.776H0Zm-1.534 1.776-.463.444h4.674l.464-.444h-.875v-3.997l-.618.267v1.421H0v-.356a.2.2 0 0 0-.072-.159.164.164 0 0 0-.133-.063c-.2 0-.413.107-.639.321-.226.213-.34.417-.34.612.007.059.028.101.061.124.029.036.076.054.145.054h.36v1.776ZM-7.3-2.043l2.986 1.821V-.8l-2.575-1.687zm1.236 1.51c.225 0 .462.052.71.16.233.1.477.254.732.461-.145.131-.324.24-.537.329a1.538 1.538 0 0 1-.597.116c-.219 0-.415-.059-.587-.178C-6.5.23-6.58.082-6.58-.089c0-.13.048-.237.145-.32a.544.544 0 0 1 .371-.124zm-1.493 2.309-.464.444h6.177l.464-.444h-2.625V.355c.143.089.305.166.484.231.151.053.282.08.391.08.288 0 .583-.145.885-.436.303-.278.453-.562.453-.852 0-.143-.061-.316-.186-.525a4.297 4.297 0 0 0-.535-.674l-.463.444c.193.196.333.376.422.541a.964.964 0 0 1 .145.48.434.434 0 0 1-.166.338.671.671 0 0 1-.401.151A1.36 1.36 0 0 1-3.44.018a3.041 3.041 0 0 1-.565-.347v-1.892l-.617.267v1.332a2.861 2.861 0 0 0-.557-.32 1.152 1.152 0 0 0-.474-.124c-.343 0-.687.148-1.029.444-.344.308-.515.604-.515.888 0 .225.114.414.34.569.212.153.477.231.793.231.206 0 .435-.06.69-.178.233-.107.483-.269.752-.489v1.377zM-9.875-.222a1.6 1.6 0 0 1 .588.115c.178.083.325.191.443.329v1.554h-1.648V.177c0-.106.058-.201.174-.284a.817.817 0 0 1 .443-.115zm-1.698 1.998-.464.444h4.222l.464-.444h-.875v-3.997l-.618.267v1.465a1.486 1.486 0 0 0-.824-.266c-.269 0-.553.12-.855.364-.295.236-.491.5-.587.79v1.377zm-4.047 0-.463.444h4.252l.463-.444h-1.338c.178-.154.319-.302.422-.444.096-.148.145-.282.145-.4 0-.13-.059-.263-.175-.399a1.899 1.899 0 0 0-.495-.356c.275-.089.498-.231.67-.426a.953.953 0 0 0 .257-.64c0-.29-.128-.538-.381-.745a1.337 1.337 0 0 0-.907-.32c-.418 0-.83.148-1.234.445a3.347 3.347 0 0 0-.979 1.153l.257.134a2.54 2.54 0 0 1 .825-.88 2.016 2.016 0 0 1 1.08-.319c.193 0 .364.059.515.177a.542.542 0 0 1 .207.444c0 .19-.073.355-.218.498-.157.153-.349.27-.575.346a2.344 2.344 0 0 0-.649-.089l-.309.462.515.027c.261 0 .49.077.69.23a.707.707 0 0 1 .288.569c0 .1-.038.201-.113.302a.984.984 0 0 1-.3.231zm-5.22 0-.463.444h2.337l.463-.444h-.875v-3.997l-.617.355v3.642zm-4.479-2.309c.227 0 .463.052.711.16.233.1.477.254.73.461-.143.131-.322.24-.535.329a1.54 1.54 0 0 1-.598.116c-.219 0-.414-.059-.586-.178-.158-.125-.237-.273-.237-.444 0-.13.048-.237.145-.32a.543.543 0 0 1 .37-.124zm-1.493 2.309-.463.444h6.177l.464-.444h-2.625V.355c.144.089.305.166.483.231.152.053.282.08.391.08.289 0 .585-.145.886-.436.302-.278.453-.562.453-.852 0-.143-.062-.316-.185-.525a4.37 4.37 0 0 0-.536-.674l-.463.444c.192.196.332.376.422.541a.954.954 0 0 1 .145.48.434.434 0 0 1-.166.338.671.671 0 0 1-.401.151c-.117 0-.271-.039-.463-.115a3.015 3.015 0 0 1-.566-.347v-1.892l-.619.267v1.332a2.8 2.8 0 0 0-.556-.32 1.144 1.144 0 0 0-.473-.124c-.343 0-.687.148-1.03.444-.343.308-.515.604-.515.888 0 .225.114.414.34.569.214.153.477.231.793.231.206 0 .436-.06.69-.178a3.51 3.51 0 0 0 .751-.489v1.377zm-5.93 0-.464.444h3.048l.463-.444h-1.277V.177a.894.894 0 0 0-.134-.479 1.182 1.182 0 0 0-.38-.409l1.595-1.332-.309-.267-2.162 2.043a.39.39 0 0 0-.071.116 1.236 1.236 0 0 0-.032.226c0 .051.038.108.113.173a.315.315 0 0 0 .248.107.485.485 0 0 0 .175-.036.873.873 0 0 0 .237-.097.707.707 0 0 1 .082.168c.015.084.021.161.021.232v1.154zm-2.132 0-.462.444H-33l.463-.444h-.874v-3.997l-.619.355v3.642zm-4.479-2.309c.227 0 .464.052.711.16.234.1.476.254.731.461-.144.131-.323.24-.536.329a1.542 1.542 0 0 1-.597.116 1 1 0 0 1-.586-.178c-.158-.125-.237-.273-.237-.444 0-.13.047-.237.143-.32a.549.549 0 0 1 .371-.124zm-1.493 2.309-.463.444h6.177l.464-.444h-2.625V.355c.144.089.304.166.483.231.151.053.282.08.392.08.288 0 .583-.145.885-.436.302-.278.453-.562.453-.852 0-.143-.062-.316-.185-.525a4.418 4.418 0 0 0-.535-.674l-.464.444c.193.196.333.376.422.541a.962.962 0 0 1 .144.48.434.434 0 0 1-.164.338.677.677 0 0 1-.402.151c-.116 0-.272-.039-.463-.115a2.984 2.984 0 0 1-.566-.347v-1.892l-.618.267v1.332a2.827 2.827 0 0 0-.556-.32 1.152 1.152 0 0 0-.474-.124c-.343 0-.686.148-1.03.444-.342.308-.515.604-.515.888 0 .225.114.414.34.569.213.153.478.231.793.231.207 0 .436-.06.69-.178.234-.107.484-.269.752-.489v1.377zm-2.842 0-.462.444h3.046l.464-.444h-1.277V.177a.911.911 0 0 0-.133-.479 1.205 1.205 0 0 0-.381-.409l1.596-1.332-.309-.267-2.163 2.043a.412.412 0 0 0-.072.116c-.02.101-.03.176-.03.226 0 .051.038.108.113.173a.312.312 0 0 0 .247.107.485.485 0 0 0 .175-.036.873.873 0 0 0 .237-.097.792.792 0 0 1 .082.168c.014.084.021.161.021.232v1.154ZM-46.21.133c.22 0 .436.033.648.097.2.065.395.167.588.303v1.243h-1.854V.266a.772.772 0 0 1 .257-.107c.138-.023.259-.032.361-.026zm-2.482 1.643-.462.444h5.209l.463-.444h-.875v-3.997l-.617.355v1.777a1.83 1.83 0 0 0-.505-.24 1.612 1.612 0 0 0-.525-.071c-.152 0-.298.027-.444.08a1.765 1.765 0 0 0-.431.231c-.021-.119-.104-.231-.247-.337a1.392 1.392 0 0 0-.526-.241l1.7-1.287-.309-.312-1.649 1.422c-.156.148-.274.29-.349.426-.075.16-.113.314-.113.462 0 .076.04.152.123.222a.483.483 0 0 0 .288.089.39.39 0 0 0 .196-.053c.048-.031.11-.087.185-.169a.394.394 0 0 1 .103.142.694.694 0 0 1 .031.213v1.288zm-7.382 0-.463.444h4.499l.464-.444h-.875v-3.997l-.618.267V.444h-1.03c-.261 0-.481-.071-.659-.214-.178-.136-.268-.301-.268-.497 0-.266.097-.551.288-.852.179-.297.443-.589.794-.88l-.258-.178c-.46.415-.817.808-1.071 1.183-.246.372-.37.704-.37.994 0 .271.13.503.391.692.261.19.577.285.948.285h1.235v.799zm-2.842 0-.463.444h3.047l.464-.444h-1.277V.177a.92.92 0 0 0-.133-.479 1.215 1.215 0 0 0-.381-.409l1.596-1.332-.309-.267-2.163 2.043a.412.412 0 0 0-.072.116c-.02.101-.03.176-.03.226 0 .051.038.108.113.173a.31.31 0 0 0 .247.107.489.489 0 0 0 .175-.036.867.867 0 0 0 .236-.097.75.75 0 0 1 .083.168c.014.084.02.161.02.232v1.154zm-2.132 0-.462.444h2.336l.463-.444h-.874v-3.997l-.618.355v3.642zm-3.449-.755v.621a.347.347 0 0 1-.102.25.396.396 0 0 1-.258.106.396.396 0 0 1-.257-.106.352.352 0 0 1-.103-.25c0-.124.068-.239.206-.346.13-.124.302-.215.514-.275zm1.236.755-.462.444h2.419l.463-.444h-.876v-3.997l-.617.267v1.421h-1.544v-.4a.188.188 0 0 0-.063-.151.166.166 0 0 0-.143-.071c-.185 0-.419.127-.7.382-.288.26-.433.473-.433.64 0 .029.027.059.083.088a.31.31 0 0 0 .175.045h.462v.755c-.404.1-.727.248-.967.444-.247.195-.37.402-.37.621a.65.65 0 0 0 .246.506c.159.137.35.205.577.205.178 0 .412-.139.7-.418.289-.278.433-.509.433-.693V0h1.544v1.776z" style="fill:#fff;fill-opacity:1;fill-rule:nonzero;stroke:none" transform="matrix(.35278 0 0 -.35278 25.235 15.562)"/><path d="M0 0h138.565v22.258H0Z" style="fill:#fff;fill-opacity:1;fill-rule:nonzero;stroke:none" transform="matrix(.35278 0 0 -.35278 36.4 25.273)"/><path d="M0 0h4.34v22.26H0Z" style="fill:#f14f1b;fill-opacity:1;fill-rule:nonzero;stroke:none" transform="matrix(.35278 0 0 -.35278 83.751 25.274)"/><path d="M0 0h127.146v22.26H0Z" style="fill:#feed4c;fill-opacity:1;fill-rule:nonzero;stroke:none" transform="matrix(.35278 0 0 -.35278 38.414 25.273)"/><path d="M0 0h4.34v22.26H0Z" style="fill:#f14f1b;fill-opacity:1;fill-rule:nonzero;stroke:none" transform="matrix(.35278 0 0 -.35278 36.4 25.274)"/><path d="M0 0h-4.276c.095-.339.143-.72.332-.932.143-.296.475-.422.808-.422.142 0 .38.084.571.211.047.086.237.211.38.423l2.043-.212c-.238-.719-.665-1.143-1.141-1.481-.428-.297-1.045-.465-1.948-.465-.713 0-1.283.168-1.71.465A2.664 2.664 0 0 0-5.987-1.27c-.285.55-.38 1.228-.38 1.948 0 1.057.238 1.862.808 2.497.57.635 1.283 1.017 2.233 1.017.808 0 1.473-.17 1.949-.424.427-.296.808-.72.997-1.312.238-.508.38-1.228.38-2.159Zm-2.185 1.228c0 .507-.143.889-.333 1.101-.143.211-.38.338-.713.338-.332 0-.57-.211-.807-.507-.095-.212-.143-.51-.238-.932Zm-6.13 5.334v-2.54h1.141V2.16h-1.141V-.211c0-.297 0-.509.095-.552.095-.169.143-.211.333-.211.142 0 .38 0 .713.128l.142-1.821c-.571-.127-1.045-.211-1.52-.211-.475 0-.904.168-1.142.296-.236.169-.379.423-.569.719-.047.381-.142.889-.142 1.652V2.16h-.809v1.862h.809v1.227zm-7.602-4.657-1.996.212c.096.423.143.761.332.974.142.295.333.508.618.677.191.127.524.211.808.254.333.085.665.17 1.045.17.665 0 1.236-.085 1.569-.17.38-.043.711-.254.949-.466.143-.253.333-.508.429-.889.142-.297.142-.634.142-.932V-1.27c0-.296.094-.508.094-.719 0-.17.049-.424.238-.678h-2.042c-.048.17-.143.296-.143.381 0 .084 0 .211-.095.423-.238-.339-.57-.55-.808-.719-.381-.128-.808-.296-1.283-.296-.665 0-1.141.211-1.521.592-.332.339-.475.846-.475 1.354 0 .509.048.932.381 1.313.236.297.665.551 1.283.72.807.212 1.376.339 1.615.423.189.085.474.126.712.297 0 .296-.047.508-.142.635a.84.84 0 0 1-.57.211c-.333 0-.618-.085-.808-.211-.142-.127-.237-.296-.332-.551zm1.852-1.397c-.285-.127-.618-.211-.854-.339-.476-.169-.713-.296-.903-.423-.095-.169-.143-.295-.143-.466 0-.212.048-.337.143-.508.19-.126.332-.212.57-.212.236 0 .38.086.664.212.143.171.285.296.381.508.095.212.142.509.142.805zm-6.747-.55 1.997-.297a2.26 2.26 0 0 0-.57-1.312 2.882 2.882 0 0 0-.952-.846c-.428-.213-.902-.381-1.473-.381-.522 0-1.093.084-1.425.211-.427.17-.713.381-1.046.678a4.91 4.91 0 0 0-.665 1.057c-.142.383-.237.932-.237 1.61 0 .635.095 1.227.333 1.692.094.297.333.678.569.89.238.296.476.508.713.635.428.127.951.297 1.616.297.903 0 1.615-.213 1.996-.593.523-.424.807-1.017 1.093-1.694l-2.044-.381c-.094.297-.142.509-.332.636-.142.169-.38.21-.618.21-.427 0-.666-.126-.902-.422-.239-.298-.333-.762-.333-1.355s.094-1.016.333-1.313c.236-.254.475-.423.807-.423.333 0 .571.169.713.297.19.126.332.423.427.804zm-7.601 6.604h2.089V4.826h-2.089zm0-2.54h2.089v-6.689h-2.089zm-1.379 2.54v-9.229h-1.948v.974c-.286-.466-.522-.678-.807-.889-.239-.128-.619-.296-.952-.296-.807 0-1.378.381-1.758 1.1-.427.721-.569 1.524-.569 2.498 0 1.185.237 1.947.618 2.583.522.592.997.889 1.709.889.333 0 .666-.085.904-.213a8.8 8.8 0 0 0 .712-.593v3.176zM-31.883.678c0 .55-.095.931-.238 1.227-.238.255-.474.339-.712.339s-.522-.084-.666-.339c-.142-.255-.237-.677-.237-1.227 0-.593.095-1.017.237-1.227.239-.297.428-.383.666-.383.286 0 .474.086.712.383.143.295.238.634.238 1.227zm-10.834 3.344h2.044V2.963c.237.423.571.721.902.932.286.212.618.297 1.046.297.617 0 1.045-.213 1.378-.636.38-.465.522-1.1.522-1.947v-4.276h-2.137v3.683c0 .424-.095.719-.191.889-.142.212-.332.255-.57.255-.237 0-.379-.127-.569-.339-.144-.212-.239-.635-.239-1.313v-3.175h-2.186zm-3.515-9.398h-2.281l.902 2.666-2.28 6.689h2.186l1.14-4.487 1.045 4.487h2.091s-2.091-6.857-1.996-6.857zM-57.399.381l2.185.127c.096-.423.143-.719.334-1.016.237-.338.569-.466 1.045-.466.334 0 .57.042.713.254.238.171.331.381.331.678 0 .211-.093.423-.236.635-.143.211-.571.339-1.236.508-1.045.296-1.757.634-2.233 1.143-.427.423-.665 1.059-.665 1.778 0 .466.19.974.333 1.313.237.422.57.804 1.045 1.015.475.297 1.045.339 1.853.339.998 0 1.805-.212 2.281-.635.475-.424.807-1.143.902-2.075l-2.185-.169c-.095.466-.238.719-.428.888-.141.213-.38.298-.808.298-.237 0-.379-.085-.57-.255-.142-.126-.238-.253-.238-.465 0-.169.096-.297.191-.381.142-.127.38-.211.808-.339 1.045-.296 1.757-.508 2.137-.804.524-.296.809-.635.998-1.102.239-.337.333-.846.333-1.353 0-.551-.094-1.06-.427-1.567-.238-.508-.618-.932-1.141-1.143-.475-.297-1.045-.465-1.853-.465-1.284 0-2.186.381-2.661.931a3.716 3.716 0 0 0-.808 2.328" style="fill:#f14f1b;fill-opacity:1;fill-rule:evenodd;stroke:none" transform="matrix(.35278 0 0 -.35278 82.382 22.47)"/><path d="M0 0v.483c-.361.13-.765.262-1.08.35-.359.087-.677.175-.992.175-.54 0-1.082-.175-1.352-.395-.405-.305-.629-.613-.629-.876 0-.482.316-.701.899-.701.767 0 1.759.306 3.154.964zm-21.127 3.069h-2.748V.613c.406-.218.856-.305 1.397-.305.361 0 .676.087 1.036.175.111.035.216.078.315.125zm33.4 0H10.81V1.14c0-.307-.763-.527-2.25-.745C7.028.174 6.352-.263 6.352-.964c0-.57.451-.878 1.532-.878 1.171 0 2.433.35 3.919 1.053l.901-1.141c-.451-.307-.991-.525-1.667-.657-.63-.132-1.216-.22-1.847-.22-1.216 0-2.297.22-3.153.659-.901.526-1.351 1.184-1.351 2.015 0 .659.45 1.186 1.442 1.58.765.219 1.666.35 2.747.35v1.272H1.218V1.413c.179.021.359.034.539.034.768 0 1.442-.219 1.938-.746a2.42 2.42 0 0 0 .766-1.796c0-.439-.092-.835-.226-1.142a3.382 3.382 0 0 0-.766-.964l-1.937.746c.405.613.676 1.053.9 1.446.272.351.316.658.316.876 0 .396-.223.528-.585.528-.216 0-.597-.081-.945-.202v-3.525L-.675-2.5v.565c-.449-.126-.856-.213-1.216-.213-.946 0-1.758.306-2.613.833C-5.27-.789-5.676-.263-5.676.308c0 .525.316.963.948 1.358.584.352 1.35.57 2.206.57.45 0 .991-.044 1.442-.264.132-.051.269-.114.405-.188v1.285h-6.532V1.666c0-.395-.225-.526-.676-.526h-2.837c-.36 0-.586-.087-.811-.22-.271-.175-.316-.307-.316-.437 0-.175.045-.22.225-.309.225-.086.542-.174.902-.174.18 0 .54.088.99.263.496.132.948.22 1.397.22.45 0 .901-.22 1.352-.746.54-.526.765-.964.765-1.359 0-.526-.45-1.052-1.216-1.359-.676-.264-1.35-.351-2.118-.351-.855 0-1.756.131-2.612.613-.676.264-1.622.877-2.838 1.755l.766.306a8.294 8.294 0 0 1 2.297-1.272c.677-.218 1.397-.351 2.072-.351.676 0 1.127.133 1.622.351.36.219.585.438.585.835 0 .217-.135.306-.359.306-.181 0-.543 0-.991-.175-.542-.045-.947-.131-1.262-.131-.675 0-1.352.131-2.027.524-.857.528-1.262 1.054-1.262 1.711 0 .351.226.614.767.832.54.22 1.17.264 1.847.264h1.846v.833h-6.217v-6.401l-1.892.832v5.569h-2.072v-6.401l-1.847.832v1.905a7.312 7.312 0 0 0-.9-.063c-.946 0-1.622.176-2.073.438-.135-.262-.451-.569-.991-.744l2.838-2.061-.72-.439-4.505 3.331a.754.754 0 0 0-.36.616c0 .13.045.262.223.437.137.133.317.133.587.133.225 0 .496 0 .72-.045.227 0 .361-.088.542-.175v2.236h-3.694v-6.401l-1.847.832v5.569h-1.442l-.901 1.14h1.801c-.27.438-.539.878-.539 1.316 0 .526.315.964.765 1.359.541.307 1.262.439 2.163.439.766 0 1.531-.088 2.432-.395.856-.22 1.847-.659 2.839-1.184v-.657c-.812.35-1.577.657-2.343.832a6.05 6.05 0 0 1-1.847.263c-.856 0-1.442-.131-1.848-.482-.36-.395-.63-.92-.63-1.491h12.974a2.429 2.429 0 0 0-.406 1.316c0 .526.136.964.631 1.271.45.307 1.037.439 1.802.439.765 0 1.532-.132 2.387-.351.901-.219 1.938-.615 2.974-1.184v-.483c-.902.308-1.757.527-2.523.702-.676.132-1.306.219-1.847.219-1.442 0-2.117-.701-2.117-1.929H-.899c-.948.965-1.848 1.622-2.614 2.06-.631.396-1.215.527-1.667.527-.18 0-.315 0-.406-.088-.135 0-.315-.043-.36-.043l-.946 1.271c.226.219.631.264.991.264.721 0 1.487-.264 2.388-.877 1.081-.658 2.118-1.71 3.288-3.114h12.498zm-34.39 4.034-1.352-.834-1.397.834 1.397.833z" style="fill:#f14f1b;fill-opacity:1;fill-rule:nonzero;stroke:none" transform="matrix(.35278 0 0 -.35278 55.916 22.482)"/><path d="M0 0h3.811c.886 0 1.61-.657 1.61-1.458v-14.671c0-.802-.724-1.457-1.61-1.457H0c-.885 0-1.608.655-1.608 1.457v14.671C-1.608-.657-.885 0 0 0" style="fill:#f14f1b;fill-opacity:1;fill-rule:evenodd;stroke:none" transform="matrix(.35278 0 0 -.35278 39.867 18.674)"/><path d="M0 0v.004c-.174 0-.304.115-.497.045-.062-.006-.375 0-.375.057-.046.011-.1.024-.143 0 0-.021-.139-.021-.139 0-.304 0-.158.581-.096.581 0 .053.046.13.046.182a.214.214 0 0 0-.142.091h-.016C-1.463.869-1.45.736-1.616.663c-.252 0-.459-.137-.714-.137-.27.14-.444-.088-.579.238-.008.105-.024.283.065.365.02.045.05.105.05.154-.073 0-.149-.102-.23-.119-.375-.169-.665.094-.849.346l-.024.042c-.073.336.008.705-.085 1.023-.239.542-.193 1.058.055 1.586 0 .015.018.095.038.095.104.42.039.865.285 1.257h.008c.127.231.298.424.518.585.011.014.057.099.069.099.004.052.054.475-.007.475-.048.337-.159.705-.159 1.044 0 .34.011.694.051 1.033.01.074.08.568.115.568 0 .255.181.58.258.818.008.015.012.06.035.06.08.224.213.473.266.705 0 .01.011.042.027.042 0 .06.043.136.062.189.066.326.139.651.224.973h.007c0 .116.115.351.166.463.016.031.096.248.128.248 0 .106.177.392.215.5.013.047.062.246.078.246.004.032.007.06.015.088.104.424.154.847.271 1.272h.007c.112.352.325.797.224 1.172l.011 1.222c0 .026.02.257.058.257.112.399.227.784.286 1.201h.007c0 .343.101.83.602.648a.724.724 0 0 0 .321-.235c.073 0 .216-.389.25-.389.082-.179.162-.368.227-.55.013-.024.043-.147.067-.147.031-.147.196-.567.44-.388.034.031.138.196.147.196 0 .083.091.262.115.349.05.214.1.424.169.635h.009c.007.034.204.504.293.504 0 .174.358.181.467.143v-.007c.273-.122.343-.844.369-1.099.009-.017.028-.182.043-.182.038-.365.05-.771.197-1.106.008-.047.046-.289.008-.289 0-.021.073-.136.089-.136.107-.195.231-.364.05-.585 0-.108.3-.479.401-.571.089-.038.636-.465.636-.479.128 0 .301-.312.271-.435-.032-.091-.186-.199-.186-.28H4.31c-.062-.056-.117-.175-.17-.245-.174-.315-.652-.028-.899-.252a.428.428 0 0 0-.019-.171c.046 0 .092.048.131.048-.016-.077-.193-.112-.166-.16.042.006.088.01.134.013.004.01.078.147.043.147 0 .123.101-.017.039-.105 0-.059-.085-.098-.062-.169.163-.219-.046-.303-.189-.466-.012-.006-.023-.016-.035-.026 0-.014.016-.046.032-.046.05-.186.149-.358.192-.55l.094-.329h.006c.035-.27.116-.557.043-.823 0-.064-.038-.299-.049-.299 0-.188-.082-.412-.105-.609-.016-.111-.012-.277-.051-.381 0-.567.069-1.187-.13-1.734H3.14c-.076-.245-.161-.515-.285-.742a.009.009 0 0 1-.008-.008c-.12-.217-.223-.402-.266-.643-.007-.148-.011-.295-.016-.443.116-.237.263-.461.375-.696.124-.375.131-.777.2-1.166h.009c0-.274.158-.613.192-.887l.094-.465h.006V2.63h-.006c0-.178-.222-.203-.286-.357-.005 0-.009-.003-.009-.006-.019-.095-.257-.326-.257-.348-.013 0-.028-.003-.028-.016.077-.039.158-.077.239-.116.128-.063.463-.424.41-.579-.163-.294-.475-.002-.649-.161-.015-.003-.089-.021-.089-.037-.057-.018-.309-.022-.309.006-.014 0-.123.021-.123-.006-.015 0-.115-.008-.115.006a.72.72 0 0 0-.441.246h-.007c0-.215-.062-.278.142-.369.02-.017.038-.038.063-.058.131-.239.184-.397-.093-.481-.209-.016-.309-.143-.517-.143-.027 0-.239-.094-.239-.112-.012 0-.058-.003-.058.007-.016 0-.255.108-.255-.007C.776.099.691.06.656.049.548.049.432.067.336.025.293.064.069.018 0 0" style="fill:#fff;fill-opacity:1;fill-rule:evenodd;stroke:none" transform="matrix(.35278 0 0 -.35278 41.556 24.816)"/><path d="M0 0c-.147.19.223.365.038.151C.016.099.038.018 0 0Zm.385-.048C.369-.034.351-.003.351.015c.03.027.057-.035.057-.06zm1.96-.013c-.015.01-.031.016-.043.024 0 .014-.016.237.032.196.049.07.104.14.157.206a.039.039 0 0 0 .027-.047C2.442.206 2.36.088 2.36-.051Zm.069-.329c0 .042 0 .306.139.213 0-.066-.077-.137-.104-.203zM-.062-.524c0 .014-.069.036-.042.061.123 0 .15-.011.042-.061zm2.603-.041c0 .021-.095.149.023.149.062-.02.012-.117-.023-.149zm.42-.057c-.046.084-.012.029-.012.078.035-.007.035-.063.032-.078ZM.335-.666c-.151.135.308.356.269.139C.473-.551.423-.656.335-.666Zm-.504-.283c-.077.069-.066.223-.024.303.016-.109-.02-.198.039-.303zm2.865-.196c0 .017-.062.027-.073.031-.112.101.296.401.322.321 0-.031-.033-.07-.033-.094-.066-.07-.174-.241-.216-.258Zm-.178-.039c-.023.032-.038.049-.046.087.046-.01.089-.035.089-.073-.016-.004-.032-.007-.043-.014Zm-.227-.241-.046.041c.038.018.1.007.046-.041zm.277-.035c-.015.021-.03.025-.03.049-.02 0 .035.014.069.011 0-.029.019-.022.042-.022 0-.041-.065-.013-.065-.038zm.266-.003-.266.003m.078-.168c0 .004-.078.101-.008.101.022-.02.046-.083.008-.101zM.154-1.642c0 .004-.046.046-.046.085.011.024.053.097.089.097.011.031.019.057.049.07.069-.032-.054-.186-.058-.186-.004-.017-.004-.034-.004-.052Zm2.768-.025c0 .014-.088.057-.088.102.023.021.158-.07.088-.102zm-1.205-.195c-.026.004-.026.028-.026.049.026.024.069-.018.053-.045ZM.285-1.873c0 .005-.047.025-.047.057.051.045.077-.029.047-.057zm-.339-.003c-.035.035-.035.042-.035.045.073.067.073-.027.062-.027zm2.076-.004c-.028.043-.032.046-.035.046 0 .027.035.027.058.027.046-.041-.008-.059-.023-.073Zm.131-.095c0 .005-.028.043-.028.063.085.116.15-.034.028-.063zm-.147-.01.147.01m-.586-.034c-.139.003.112.293.112.108-.05-.074-.088-.087-.112-.108zm.689-.028c0 .007-.042.02-.042.056.042.038.081-.022.042-.056zm-.358-.073-.023.052c.046 0 .101-.035.023-.052zm-.608-.011c0 .003-.108.098.007.098.009-.028.027-.059.016-.091zm-.328-.045c0 .011-.035.017-.042.021 0 .076.081.178.154.209.043-.017.011-.133-.007-.133-.028-.031-.069-.083-.105-.097Zm-.608-.007c0 .003-.051.044-.051.086 0 .036.044.088.059.117.084-.029.023-.175-.008-.203zm2.769-.011c0 .035-.104.004-.054.097.066-.013.089-.047.077-.09zM.289-2.191c0 .059.046.305-.069.143-.009-.016-.012-.034-.016-.055-.034-.015-.054.042-.02.055 0 .029-.088.13-.107.13a.216.216 0 0 0-.015.05c-.154 0-.154-.102-.154-.187-.02-.017-.036-.017-.028-.045-.027-.024-.061-.07-.107-.055 0 .073-.023.052-.085.052 0 .108-.077.15-.154.227-.008.021-.027.102-.062.102 0-.028 0-.057.003-.084-.111 0-.065.39.051.286l.058-.15c.072-.022.022.154.019.154-.004.045-.03.133-.007.174.092.032.111-.338.161-.248 0 .158.066.325.027.465-.069.322-.046.553.108.835.016-.056.065-.056.108-.063.053.049-.104.371-.085.483.027.081.085.256.216.195C.158.305.273.214.307.214c.032.029.17.029.17-.024.058 0 .274-.475.305-.475C.82-.369.936-.569.936-.67.909-.666.882-.656.882-.695.863-.684.855-.67.828-.67c0-.151.058-.308.023-.472l-.023-.07c-.027 0-.039.073-.046.094-.055.049-.101.042-.155.063.07.074.032.211.027.305 0 .031-.17.052-.192.055-.042 0-.12-.262-.134-.308C.3-.961.3-.898.273-.872c0 .213-.411.005-.323-.113.084-.115-.039-.332.046-.433.011-.032.027-.139.085-.087.057.133.091.198.234.198.013-.027.027-.038.062-.038a.267.267 0 0 0 .016.057c.027-.089.034-.092.112-.092l.034-.055c.031-.011-.031-.172-.058-.172-.047-.067-.153-.195.027-.195.054 0 .112.118.143.146.095-.042-.162-.347-.162-.392-.092-.143-.062-.112-.2-.143Zm2.456-.021c-.057.046-.142.091-.142.143.035.05.158-.094.158-.133zm-3.172-.063c.003.021.011.039.018.056.012-.042-.004-.048-.018-.056zm2.237-.006c-.031.027.061.108.061.014a.459.459 0 0 1-.061-.014Zm1.471-.025c0 .045-.043.021-.004.094.03-.014.042-.014.053-.017 0-.046-.007-.059-.049-.077zm-.127-.066c-.008.028-.028.058-.012.087.023 0 .039-.018.057-.024 0-.021-.03-.057-.045-.063zM.916-2.383c-.007.025-.015.045-.019.066L.82-2.341c0 .105.124.186.093.066.035 0 .046.063.096.063.065-.059-.039-.157-.093-.171Zm.906-.028c-.067.039.023.091.057.091.074-.031-.011-.08-.057-.091Zm1.185-.434c0 .035-.049-.021-.049.074.034.021.038.014.042.007.019-.031.019-.056.007-.081Zm-.87-.013c.043.045.066.08.085.08a.495.495 0 0 0-.085-.08zm.978-.073c-.015.02-.042.02-.054.023 0 .032-.011.05.004.081.054-.025.116-.088.05-.104zm-.246-.047c-.035.056-.054.126.004.126 0-.021.023-.126-.004-.126zm.292-.171c-.084.021-.131.137-.038.08 0-.023.038-.027.058-.031 0-.024.015-.034-.02-.049zm-1.467-.045c0 .021-.111.042-.054.094.046 0 .089-.066.104-.094zm1.171-.048c-.015.027-.015.02-.004.045Zm.497-.005c0 .005-.035.04-.035.063.042.018.058-.031.049-.058zm-.72-.02-.039.049c.027.038.066-.008.066-.042Zm.484-.003c-.073.003-.154.052-.173.115.043.003.258-.078.173-.115Zm.344-.065-.009.071c.023 0 .032-.021.051-.029 0-.027-.023-.034-.042-.042zm.138-.194c.073.066.05.014 0 0zm-1.166-.063c-.039.024-.05.027-.059.031 0 .027.004.084.047.084.016-.014.026-.014.042-.018a.578.578 0 0 1-.03-.097Zm-.512-.014.512.014m-.427-.018c-.039.042-.055.049-.071.053-.023.013-.061.017-.073.007-.03.006-.061.038-.095.048a.489.489 0 0 0-.009.081c-.096 0-.123-.035-.204.055-.011.018-.069.14-.018.14 0 .053.038-.055.038-.09.019.098.262-.126.262-.011 0 .014-.062.028-.074.028.03.073.066.018.088-.01.024 0 .071.112.101.052 0-.01-.004-.045-.016-.045a.245.245 0 0 1-.019-.046c.097.06.166.182.251.028l.046-.034c0-.026-.008-.085-.042-.085-.023-.024-.046-.048-.069-.076.037-.035.157.111.207.017 0-.007-.235-.14-.235-.084-.027 0-.046-.017-.068-.028zm-2.662-.021c0 .029-.019.066.007.091.039-.035.074-.057-.007-.091zm3.196-.01c-.027.052-.004.049.004.052l.05-.008c-.019-.02-.039-.03-.054-.044Zm.039-.097c-.024.082.026.072.076.051 0-.032-.05-.045-.076-.051zm-.374-.089c.012.042.031.05.054.052l.027-.041zm.458-.007c-.038.074.034.122.082.136l.034-.04c-.046-.029-.07-.075-.116-.096ZM.762-3.9l.05.038m-.219-.052C.577-3.883.5-3.886.5-3.879c-.034.049 0 .074-.077.081.036.063.058.167.147.167a.261.261 0 0 1 .084.074c.023-.04.039-.045.081-.053.02-.06-.1-.049-.076-.115.003-.007.022-.042.003-.042a.342.342 0 0 1-.038-.147Zm1.525-.028c0 .006-.031.038-.031.067.05.045.066-.035.066-.063zm.712-.01c-.011.014-.019.063 0 .063 0 .017.011.041.035.041-.004-.031-.004-.066-.004-.101Zm-1.067-.046s-.099.112-.008.112a.738.738 0 0 0 .058-.077c-.015-.028-.022-.028-.05-.035ZM-.755-4.04c-.046.042.031.178.066.217h.061c.015-.014-.085-.21-.127-.217zm2.084-.032c.03.029.057.053.096.053a1.217 1.217 0 0 1-.096-.053Zm.815-.02c0 .034-.049.164-.091.045-.036.038-.063.189-.116.189-.027-.025-.007-.084-.007-.119-.051 0-.066.014-.039-.063-.066.007-.131.014-.197.018 0 .07-.246.094-.219.118.088-.024.019.088-.035.088a.294.294 0 0 0-.1-.059c.147.115.074.052.074.16-.035 0-.113-.02-.128-.014 0 .08-.019.059-.061.14-.047.007-.05.021-.055.035.028.025.039.052.02.091-.047.039-.054.042-.061.042-.004.021-.004.041-.004.063-.035 0-.042-.011-.066-.022.004.022.1.087-.004.087-.008.033-.004.043-.034.057 0 .06.276.235.338.235 0-.043-.127-.089-.092-.154.016.003.03.003.05.003l.069-.049c.035-.129.066-.006.159-.006 0 .031.03.125-.058.086.145.099.003.147.003.21-.019.081-.223-.035-.223-.067-.055.063.039.07.066.123-.047.06-.181-.067-.197-.112-.104 0 .046.109-.051.109-.038-.018-.046-.01-.064.017-.07 0-.085-.07-.135-.025l-.039.046c.008.017.016.035.028.049.057.038.011.133.03.188.011-.041.031-.048.061-.062.035.031.028.146 0 .185-.065-.034-.084.014-.111-.011-.02-.055-.027-.143-.066-.177.004.02.012.042.019.062-.05.07.07.23-.069.2 0 .077.22.45.27.471l.058.063c.103.088.216.07.262-.014-.216 0-.005-.104.131-.056.124.038.104.116.103.116.046-.001.066.035.073.069-.122.113-.119.334-.027.458-.004.014-.004.028-.004.043.031-.025.027-.084.055-.084.011-.035.135-.388.192-.281.031.036.062.096.108.054.103-.217.177.014.323-.12.069.063.077.12.024.12-.09.105-.173.052-.297.087-.008.031-.057.042-.057.063-.043 0-.032.13-.021.15a.423.423 0 0 0 .062-.018c.021-.087.005-.146.117-.17 0 .063-.121.16.014.22.051-.115.209.016.262-.032 0-.035.047-.046.073-.056 0-.014 0-.027.005-.042l.092.021c-.03.031-.03.039-.03.042-.081-.011-.062.035-.062.083-.055.05-.016.096-.078.13a.295.295 0 0 0-.014.05c-.021.013-.039.034-.066.034 0 .109-.042.168-.147.192-.092.26.023.55.077.804.008.112.155.476.301.476.011-.038.011-.07.069-.07.035.032-.046.077-.027.094.149 0 .235-.203.25-.203.097-.175.1-.503.135-.692.073-.311.085-.632.115-.95 0-.014.02-.134.043-.134.019-.108.104-.219.104-.328-.035.014-.069.028-.101.039-.103.02-.246.035-.296.125-.023.043-.08.081-.104.127-.077 0 .042-.182.065-.211.05-.045.117-.077.178-.111-.042-.014-.073-.091-.073-.122.057-.026.076.006.108.048.023 0-.035-.181.061-.094.047.087.085.067.123 0 .078 0 .166-.185.216-.256 0-.037-.093-.079-.093-.129-.041 0-.104.133-.15.154-.134-.025-.053-.172-.038-.172.019-.075.076-.146.1-.216.224-.171.296-.447.485-.619.031-.055.374-.353.42-.353l.05-.059c-.066-.059-.366.028-.366.116.016.045-.1.066-.069.038l.05-.021c-.073.014-.105-.007-.15.088l-.046-.008c.103.046-.031.151-.09.046a.637.637 0 0 0 .059-.049c0-.073-.059-.018-.027-.133a.853.853 0 0 1-.085.003.972.972 0 0 1-.046.067c-.034-.014-.216.14-.27.163-.18 0-.242.047-.242.214.085 0 .034.085.034.122.042.039.015.151-.054.151-.011.021-.019.042-.026.059-.047 0-.051-.017-.043-.059a.262.262 0 0 1-.053-.007c-.05.045-.128.021-.128.112.092 0 .096.144.165.144 0-.061-.076-.095-.087-.148 0-.129.153.018.176.039 0-.031.05-.045.05-.063.015.021.074.098.008.098l-.023.045c-.05.045-.042.077-.074.092l-.011.045c-.007.108-.057.077-.131.108-.015.032-.076.21-.111.241a.18.18 0 0 1-.043-.013.8.8 0 0 1-.107.076c0 .021-.046.088-.004.088v.051c-.077 0-.162-.104-.113-.104 0-.028-.03-.052-.03-.077.02-.018.023-.059.039-.059.043-.029.073.003.112.014a1.32 1.32 0 0 1 .026-.137c.004-.021.012-.041.02-.066-.054-.011-.066.007-.074.021-.131 0-.25.193-.427.031.012-.021.003-.052.007-.066.078 0 .182 0 .251-.031.054-.018.057-.046.089-.046 0 .031-.023.046-.023.07.019.007.123-.161.076-.161-.257.116-.443.004-.696-.059-.074 0-.201-.112-.108-.154.077.07.053.039.158.07 0-.179.203-.017.331-.073l-.032-.078c-.041-.039-.223.022-.103-.066.046-.02.092-.041.138-.067.124-.003.246-.01.374-.017.027-.004.139-.035.17-.049.045.022.092-.031.135-.048 0-.053.042-.063.057-.113-.015-.013-.023-.021-.023-.042.039-.034.042-.034.046-.038-.027-.045-.165-.073-.058-.123 0-.052-.058-.1.054-.1.016-.015.008-.074.035-.074.019-.017.035-.004.057-.004.082-.073.062-.139.17-.189 0-.091-.139-.066-.139-.111-.015.018-.015.031-.015.045l-.054.028c-.015.031-.054.021-.088.021-.078.007-.085-.049-.173-.049-.028-.014-.02-.031-.012-.059l.065-.021c0-.06-.196-.042-.227-.042.027.046 0 .069 0 .084-.092.028-.15-.007-.212-.007 0-.115.104-.028.177-.059-.128-.012-.173-.106-.27-.147Zm-.515-.011c-.012.028-.016.034-.016.042.012-.014.012-.029.016-.042Zm2.287-.029-.081.085c0 .066.165.147.165.168.078.038.109.024.19.024-.012-.017-.081-.011-.081-.031-.131-.059-.135-.14-.193-.246Zm-2.5 0c.039.042.051.063.067.018a.287.287 0 0 1-.067-.018Zm2.835-.101c-.026.053-.088.099-.046.155.016.014.066.077.089.077.027.042.023.044.019.049.027.024.057 0 .081-.011-.012-.049.019-.042.019-.084a7.724 7.724 0 0 1-.127-.129.3.3 0 0 1-.019-.052ZM.034-4.271c0 .113-.162.095-.203.119 0 .067-.005.238.073.238.027.025.022.073.073.052 0-.147.069-.055.149-.055 0-.032-.145-.175.044-.175 0-.017-.044-.04-.044-.077-.034 0-.057-.021-.064-.021 0-.025.026-.043.026-.067a.225.225 0 0 1-.054-.014Zm-.103-.049a.08.08 0 0 0-.027.053c.011-.021.053-.028.027-.053zm-.266-.118c0 .01-.012.055.016.055.003-.01-.004-.045-.016-.055zm1.232-.081c0 .018-.054.014-.054.035-.026.018-.054.031-.081.046l-.053.027c.018.003.049-.002.049-.017a.123.123 0 0 1 .05.045c.027 0 .047-.052.101-.052.018.022.077.102.108.102 0-.05-.016-.127 0-.172a1.097 1.097 0 0 1-.12-.014ZM-.854-4.54c-.087.003-.124.098-.094.157a.242.242 0 0 0 .046-.013c.039-.036.112-.116.048-.144zm-.082-.087c-.108.003-.108.07.031.07 0-.011.042-.025.054-.029-.039-.021-.062-.031-.085-.041zm.17-.021c-.005.052.011.062.038.062.004-.013.007-.027.015-.045-.011-.017-.034-.014-.053-.017zm-.046-.489c0 .052-.071.352.038.352.023-.115.023-.223.023-.332zm1.663-.081c0 .003-.043.045-.043.073.012.021.035.049.035.073-.035.011-.077.043-.108.06-.003.018-.003.035-.003.053.061 0 .127-.004.192-.008.05-.069.008-.055.008-.084.019-.041-.035-.128-.05-.164zm.204-.164c0 .004-.104.098-.104.167.054-.027.15-.115.15-.153-.016-.004-.031-.007-.046-.014Zm-2.106-.165c-.028.091.053.112.034.182-.092.21.146.276.146.087-.015-.013-.058-.104-.012-.104.055-.162-.058-.134-.168-.165zm2.203-.069c-.305.08-.166.205-.012.066.007-.017.026-.042.026-.063Zm2.206-.031c0 .055-.007.097.016.167.096-.07.172.035.199.011 0-.133-.096-.151-.215-.178zm-2.311-.148s-.049.063-.049.105c.014-.014.038-.021.049-.025l.012-.069zm.374-.07-.062.049c-.007.015-.081.123-.046.123.023.007.039-.024.054-.024.031-.05.203-.123.054-.148Zm-.797-.056c0 .036-.208.259-.081.305.119 0 .127-.263.081-.305zm.72-.153c-.024.038-.031.042-.035.046.02.01.038.02.061.027.189.098.09-.055-.026-.073zm1.082.613a.26.26 0 0 0-.069.172c.016-.06.069-.123.069-.172zm.312-.01a.174.174 0 0 1-.05.017c0 .053.046.035.085.017zM.824-6.263c-.019.02-.039.066-.05.066-.019.06-.077.227.034.227.051-.045.055-.22.039-.293zm1.834.494c-.078.007-.262.074-.262.165 0 0 .168-.091.207-.098.043-.038.119.021.154-.046zm-1.253-.703-.019.048c.039.036.054-.014.046-.042zm1.244.512c0 .01-.295.016-.397.394-.095.354-.053.768-.053.789 0 .059-.031.115-.058.167.007.008.046-.007.062-.007-.02.018-.016.063-.055.063.089-.01.397-.139.397-.241.161-.073.139-.084.205-.203.134 0 .041.168.227.057.066-.12.315-.063.362-.105-.094-.27-.001-.505-.105-.796-.131-.182-.379-.19-.585-.118Zm-1.302-.713a.178.178 0 0 1-.05.022c-.023.064.036.056.089.056.004-.018.012-.036.019-.052-.019-.008-.038-.015-.058-.026Zm-1.751-.006c-.023.035-.066.053-.108.066 0 .277 0 .231-.185.147.015.031.02.042.008.042 0 .036.003.038.007.042.023.276.058.5.097.727l.023.059c0-.09.073-.223.073-.041.019.041.076.136.076.173-.08.074-.119-.055-.142-.096-.011.052.062.349.112.371.042 0 .012-.085.054-.085 0-.052.054-.125.084-.167a.421.421 0 0 0-.092-.075c0-.01-.007-.059.008-.059-.008-.024-.015-.051 0-.051.019-.154-.136-.302-.136-.452-.034-.136.043-.436.198-.506-.067-.029-.058-.063-.062-.095zm1.717-.116-.046.036c.034.042.1.016.1-.022-.02-.004-.038-.007-.054-.014Zm.454-.063a.362.362 0 0 0-.053.217c.015-.042.073-.199.053-.217Zm1.522-.021c0 .053-.046.102.138.102 0-.06-.073-.097-.138-.102zM-1.76-6.91c-.039.07.057.115.023.014zm2.804-.048c-.039.1.134.076.053.003-.019 0-.038 0-.053-.003zm.573-.06c0 .018-.112.063-.112.122-.069-.101-.112-.021-.185-.021-.126.169.085.08.155.08 0 .042-.039.224.015.224.05-.076.057-.213.139-.286.031-.046.031-.067.031-.092-.02 0-.028-.02-.043-.027zm1.699-.217c0 .007-.128.217-.012.217.035-.031-.008-.115.015-.137.073 0 .055-.073-.003-.08zm-1.579-.126c-.031.022-.058.043-.085.06-.112.202.115.049.115-.043zm-3.362-.105-.055.091c.08.072.106-.083.055-.091zm2.611-.066c0 .081-.27.284-.031.284.054 0 .115-.245.031-.284zm2.021-.06c-.038.036.004.046.028.005zm-1.432-.115c-.016.097.226.165.3.185 0 .018.039.011.05.007a.71.71 0 0 0-.35-.192zm1.286-.248c0 .003-.062.181.039.136.019-.063 0-.112-.039-.136zm-1.013-.109s-.077.054-.093.054l-.064.065c-.128.235.23-.055.23-.094-.015-.021-.05-.018-.073-.025Zm-.219-.035c0 .008-.165.099-.108.151.024 0 .123-.109.123-.147zM-.778-8.12c-.05.043-.004.063-.004.074.077.036.273.136.273-.024-.073-.032-.18-.039-.269-.05zm-.667-.003c0 .028-.115.014-.123.014-.004.029-.004.055-.004.081.043.031.09.063.135.091a1.244 1.244 0 0 0-.065.083c-.081 0 .096.262-.066.262-.057.109-.153.175-.153.326-.021.077 0 .192-.039.262-.085 0-.016-.43.039-.504 0-.021.072-.122.096-.122-.034.035-.128.007-.139-.017 0-.039-.026-.084-.026-.123-.024 0 .018.185.023.214a.2.2 0 0 0-.028.041c-.092-.007-.073.032-.142.032 0 .115.054.245.076.356.009.235.181.664.293.87.008.12.201.414.25.514 0 .005.032.13.051.13.124.424.184.863.262 1.293.003.018.007.092.03.092 0 .146.128.391.17.545 0 .056.104.377.123.377.046.224.016.496.005.727.057.077.115.155.177.228.026 0-.009-.122-.009-.14-.026-.382-.219-.714-.03-1.056.011-.003.05-.021.05-.035.046 0-.011-.126-.039-.126 0-.027-.073-.241-.077-.241-.046-.042-.061-.157-.072-.217-.044 0-.078.063-.124.063-.043-.039-.119-.339.007-.339 0 .025.174-.038.193-.042 0-.056.042-.172.019-.213-.074-.035-.1-.126-.1-.182-.046-.203-.065-.409-.119-.605 0-.01-.004-.048-.016-.048 0-.039-.427-.185-.427-.308.004-.014.007-.028.016-.042a.508.508 0 0 0 .061-.014c.011.011.024.028.042.028 0-.081-.119-.097-.173-.13a.985.985 0 0 1-.196-.556c-.177-.02-.112-.244-.128-.369a.952.952 0 0 1 .05-.385c.035 0 .019-.178.032-.224.03-.073.058-.084.13-.084 0-.021-.019-.091.051-.059.066-.061.049-.335.092-.335-.073-.07-.066-.099-.178-.113zm4.179-.02-.046.013c.073.098.169.015.046-.013zm-1.602-.018c0 .024-.077.046.015.088.051-.029.047-.07-.015-.088zm.289-.182c0 .014-.031.022-.016.052.035 0 .023-.024.027-.048zm-.177-.353c-.092.172.023.167.023.004zm-.975-.256c-.007.015-.015.028-.019.043.028 0 .039-.025.046-.039zm.204-.139a.2.2 0 0 1-.042.039c0 .058.143.055.108-.008zm-1.918-.126c0 .029-.076.056-.076.112a.894.894 0 0 0 .088-.109zm4.013-.021a.14.14 0 0 1-.088.038c0 .046.003.046.022.091-.153.193.013.119.071.238.015.08-.012.171.096.146 0-.016.088-.052.007-.125-.016-.042-.1-.102-.073-.15.023 0 .05.048.057.066.028.025.074.018.108.021.023-.021.02-.031.062-.039 0-.01.004-.042-.007-.042a.45.45 0 0 0-.066-.104 2.61 2.61 0 0 1-.108-.095c-.019-.027-.049-.031-.081-.045ZM-.84-9.256c0 .008-.057.056-.057.109.022-.021.037-.041.061-.053l.019-.053zm-.062-.059c-.112.015-.261.101-.192.231.043 0 .031-.13.096-.158.027 0 .093-.003.108-.016-.027-.026.069-.032-.012-.057zm3.213-.248-.02.066c.058-.027.039-.048.02-.066Zm-.296-.042a.419.419 0 0 0-.044.031c.044.032.058.025.085.014 0-.037-.011-.037-.041-.045zm-3.075-.049c-.026.025-.014.087.004.116.058-.039.047-.042.047-.109a.203.203 0 0 1-.051-.007zm-.138-.088c-.042.04.042.283.085.322.027.015.034.015.042.015 0-.057-.065-.318-.127-.337zm.7-.115a.77.77 0 0 0-.211.059c.116.029.239.018.362.007v-.041c-.05-.007-.1-.014-.151-.025zm2.253-.031c0 .024-.095.108-.095.167 0 .046.008.05.022.05.009-.007.109-.19.109-.213zm-.7-.031c0 .003-.054.038-.061.065.05.047.096.025.107-.023-.016-.018-.027-.036-.046-.042Zm-2.369-.116c0 .025-.104.186.02.101 0-.066.077-.058-.02-.101zm3.42-.063c-.023.036-.019.056-.015.074.027 0 .034.006.066-.008 0-.028-.016-.059-.051-.066zm-1.147-.045c0 .01-.05.02-.05.036-.034.013-.034.026-.034.065a.276.276 0 0 0 .184-.003v-.053a.192.192 0 0 0-.1-.045zm-1.66 0c-.038.007-.32.094-.32.136-.046.042-.135.101-.1.164l.208-.011c.059-.052.351-.093.351-.093.108.017.239.086.262 0-.035-.022-.139-.147-.143-.147-.027-.052-.193-.042-.258-.049zm1.086-.003c0 .079-.201.084-.231.097 0 .14.215-.032.22-.032.023-.021.03-.049.011-.065zm1.41-.196c-.074.003-.109.052-.109.107.035.032.105.005.147 0 0-.058.042-.073-.038-.107zm-2.477-.078c-.004.005-.247.033-.189.085.135-.018.302.048.44.048 0-.055-.189-.118-.251-.133zm1.036-.115c-.031.028-.166.14-.216.14 0 .066.296.08.239-.137zm-1.475-.251c-.139.126.035.244.035.167.061 0 0-.154-.035-.167zm.212-.091c-.032.034-.034.049-.034.052.08.059.142-.021.034-.052zm-.032-.178.048.024c-.016-.014-.031-.018-.048-.024zm.094-.011c-.02.053.007.063.035.066 0-.027-.016-.049-.035-.066zm.165-.105c0 .038-.073.091-.039.153.051.047.081-.107.081-.142zm2.287-.067c0 .022.004.042.008.06.012-.034.008-.046-.008-.06zm-1.851-.251c0 .014-.158.102-.066.144h.069l.023-.046.023-.095c-.019 0-.035 0-.049-.003zm-.332-.06c0 .008-.104.046-.104.089a.34.34 0 0 0-.062.139c.085.097.251-.102.251-.175-.032-.018-.058-.036-.085-.053zm1.826-.149a.114.114 0 0 1-.043.01c.016.024.031.02.047.027zm1.001-.008c0 .035-.081.038-.016.115.032.028.101.131.143.131 0 .03.073.048.104.048 0-.137-.212-.196-.212-.29zM.377-11.95c0 .014-.077.01-.088.01-.027 0-.112.067-.135.077.073.032.292-.025.223-.087zm-.836-.056c-.177.241.205.206.078.034a.46.46 0 0 1-.078-.034zm.81-.151c-.131.004-.298.251-.039.136.062 0 .127.026.181.026l.042-.029c0-.073-.15-.101-.184-.133zm.365-.067c-.131.239.166.214.066.028a.262.262 0 0 1-.066-.028zm1.813-.101c-.041.082-.103.207-.053.298.051 0 .031-.179.062-.179.003-.027.023-.09.011-.115zm-.103-.098c-.039.053-.17.29-.115.34.016-.027.085-.183.108-.183 0-.052.088-.121.007-.157zm-3.1-.08c0 .039-.204.252.027.252.03 0 .034-.161.034-.193-.023 0-.018-.034-.018-.048zm.582-.017c0 .006-.067.039-.067.048-.061.028-.049.077-.049.106l.077.021c.042-.039.112-.105.077-.169zm2.24-.045c-.018.024-.042.069-.073.084 0 .055.05.058.05.037.035-.031.043-.079.035-.121zM.15-12.59c0 .025-.093.22.058.154l-.011-.119c-.02 0-.036-.025-.047-.035zm2.226-.108c-.049.09-.159.191-.019.217.073-.033.089-.185.019-.217zm-3.455-.035c-.038.013-.176.118-.196.118-.108.2.339.004.32-.091a.3.3 0 0 0-.124-.027zm2.162-.028c-.009.048.014.063.034.063-.008-.018-.016-.035-.02-.057zm-1.934-.109c0 .008-.216.06-.158.112.057 0 .178-.052.178-.112zm-.177-.084c0 .004-.131.05-.131.119.046.041.292-.045.131-.119zm2.064-.154c-.012.032-.035.05 0 .05zm-1.949-.031c-.019.039-.039.07-.039.102.023-.028.05-.068.05-.099zm-.674-.07c-.104.415.228.279.031.011zm3.216-.098c0 .014-.043.017-.043.032-.039.027-.057.031-.057.079.064.04.1-.03.131-.03v-.074Zm-.073-.178-.085.049c0 .077.081.014.081.01.034-.007.027-.049.004-.059zm-2.543-.143c-.03.027-.069.294-.057.294.027-.025.054-.113.069-.113 0-.052.034-.16-.012-.181zm2.454-.174c-.039.047-.074.097-.108.142-.069.127-.012.171.096.143.054-.048.092-.251.012-.285zm-.196-.259-.059.041c-.072.119-.153.56.094.56.03 0-.058-.347.049-.347.015-.063.132-.045.085-.133-.073-.032-.096-.107-.169-.121zm-2.384-.063c-.016.083.027.132.027.013zm4.101-.21c0 .002-.181.227-.104.227 0-.021.2-.186.104-.227zm.181-.06a.98.98 0 0 1-.08.06c-.074.135-.17.591-.101.72.062 0 .115-.462.127-.519.011-.069.135-.226.054-.261zm-4.444-.129-.05.024c-.085.148-.204.43-.116.595.058 0 .116-.416.201-.494.104-.044.026-.097-.035-.125zm4.19-.073c-.027.023.069.164.085.178.108 0-.028-.151-.028-.16a.742.742 0 0 1-.057-.018zm.066-.078c-.036.032.03.091.046.115.111 0 .008-.107-.046-.115zm.122-.08c-.046.043.058.108.058.022-.015-.015-.042-.018-.058-.022zm-1.806-.007c0 .014-.069.06-.081.066-.034.081-.073.172-.061.259.081.074.108-.265.181-.265 0-.036-.012-.036-.039-.06zm.635-.182c-.03.029-.046.224-.026.259.081 0 .104-.21.084-.248zm-.785-.429c-.018.034-.03.272.062.272.039.042.035-.021.062-.021.026-.024.084-.035.084-.076-.026-.039-.196-.078-.196-.172zm-2.23-.06a.314.314 0 0 1-.042.024c-.004.026-.004.046-.004.067.062 0 .089 0 .073-.084zm2.304-.06c0 .008-.085.147.015.147.038-.014.042-.003.05.007.061 0 .069-.038.058-.08-.035-.014-.043-.014-.054.007l-.038-.077zm1.57-.055c0 .003-.062.066-.023.066l.035-.066zm-1.517-.245c-.034.031-.065.206-.007.206.042-.039.066-.181.007-.206zm-.588-.182c-.082.112-.12.342.08.297.039 0 .039-.24.008-.24a.234.234 0 0 0-.088-.057zm.654-.074a.504.504 0 0 1-.046.039c.019.077-.016.087.007.129.032-.034.046-.073.066-.111 0-.039.015-.046-.027-.057zm-.84-.045a.1.1 0 0 0-.092.095c.073.031.2.045.2-.053-.018-.017-.038-.024-.069-.024zm-1.386-.003-.089.111c-.061.004-.05-.035-.104-.024 0 .011-.046.042-.057.049-.023.06-.162.531.039.441.046-.007-.012-.119.026-.119 0-.063.008-.116.038-.172.124.102.209-.23.147-.286zm.209-.035c0 .002-.051.038-.051.067.058.052.097-.025.051-.067zm2.059-.172c-.027.039-.03.053-.03.064.034.048.062-.032.053-.06zm-2.587-.129-.07.063c-.011.06-.039.147.011.193.066-.029.036-.116.054-.179.016.004.031.004.051.004.065.003.085-.008.016-.029 0-.031-.04-.042-.062-.052zm4.097-.174c0 .048-.101.038-.023.119.015.048-.039.415.039.237.03-.031.076-.046.088-.07.015-.102.034-.255-.104-.286zm-4.097-.025c-.12.003-.201.262-.062.22 0-.112.08-.147.08-.217zm-1.549-.144c-.277.004-.354.158-.354.377.023-.016.058-.115.084-.115.008-.02.089-.097.089-.101.039 0 .181-.102.231-.111zm5.307-.077c-.134.029-.226.089-.357.029-.116 0-.236.07-.243.171.115.209.037.345 0 .563 0 .021.003.189-.009.189 0 .069-.099.709-.03.771.027 0 .016-.044.039-.044 0-.028.046-.088.062-.108.057-.232.176-.388.222-.609.008-.032.049-.328.112-.328.131.118.058.216.189.335.122.112 0 .199 0 .332.019.036.057-.05.069-.063-.004.052-.023.105-.039.154.027.024.074.031.104.049.046-.021.057-.039.089-.066 0 .136.112.168.174.283.138.143-.12.447-.055.475.058-.024.223-.217.243-.217.012-.017.023-.039.038-.059.059-.053-.007-.087.1-.063.024.021 0 .251.012.304.078 0 .085-.291.116-.346.077-.034.031-.06.031-.108-.028-.015-.028-.025-.028-.049-.007-.063-.115-.277-.081-.308a.75.75 0 0 1-.015-.087c0-.073-.269-.242-.354-.265-.054.023-.101-.029-.119-.029-.02-.035-.024-.077-.062-.087-.032-.074-.089-.077-.089-.164-.072-.067.101-.151-.019-.287.005-.078.051-.311-.053-.356-.016-.009-.032-.009-.047-.012Zm-3.589-.013c-.038.034.022.102.054.115.039-.06-.016-.105-.054-.115zm.959-.077c-.019.011-.038.017-.054.024-.012.028-.038.27-.023.297.039 0 .034-.038.058-.038.042-.087.042-.19.042-.279zm2.765-.041c-.135.002-.115.227.027.097.007-.042.023-.077-.027-.097zm-3.617-.05c0 .046-.019.07.012.129.027-.059.046-.104-.012-.129zm-.273-.039.273.039m-1.482-.067c0 .015-.015.046-.004.067.019 0 .015-.045.019-.067zm2.237-.032c0 .005-.046.039-.046.068.031.013.043-.008.066-.026v-.042zm-2.226-.02c-.007.007-.015.042 0 .042l.012-.042zm-.62-.137c.013.133.108.242-.084.186-.058 0-.054.384-.024.444.012-.024.039-.046.039-.07.023-.077.016-.133.124-.181.069-.021.342.017.342.006-.088 0 .089-.157.066-.202-.02-.004-.213-.053-.22-.046-.042.077-.154-.105-.243-.137zm.686-.049c.007.032.019.049.019.071h-.081c.028.056.074.091.136.091 0-.06-.016-.136-.074-.162zm5.715-.044-.189.118c.035.137.119-.045.193-.045.138.125.115-.175.039-.032-.035-.035-.039-.039-.043-.041zm-.251-.035-.022.048c-.047 0-.159.147-.239.147l-.073.074c.08.073.293-.172.316-.221.038 0 .03-.038.018-.048zm-.08-.021c0 .048-.128.163-.02.066.005-.01.031-.056.02-.066zm-4.052-.116c0 .035-.081.018-.023.122-.069-.021-.104-.045-.104.021.024.021.115.227.112.224.012-.042.012-.133.023-.157.019.035.053.038.081.038.073-.066-.062-.178-.062-.241zm.109-.095c-.078.141.042.117.042.057l-.024-.049zm.033-.083c0 .011-.057.031-.026.059.078.027.173.022.258.022-.085-.05-.159-.063-.232-.081zm-.499-.028c-.116.174-.016.098.022.003zm-.544-.021c-.011.01-.034.318-.107.15l-.024-.094c-.042.017-.049.129-.049.164.027.025.042.133.065.133.019-.053.069-.067.115-.088zm-.527-.053c-.016.036-.028.063-.009.063.009.036.051.059.066.088.016-.025.089-.031.02-.074-.011-.017-.031-.038-.031-.059a.314.314 0 0 1-.046-.018zm-.081-.303c-.096.086.003.52.072.52 0 .014.024.136-.007.136.054-.01.089.043.128.043.127-.235.034-.329-.112-.487-.039-.076-.039-.174-.081-.212zm3.066-.112-.165.119c-.112.101-.128.307-.148.44a.57.57 0 0 1-.054.164l-.069.336c.196-.154.228-.196.516-.248.024-.018.051-.035.077-.057l.058-.083c.023 0 .012-.134.004-.134 0-.164-.065-.443-.219-.537zm.084-.165-.084.165m-1.053-.329c0 .024.055.193.109.167 0-.024.004-.048.008-.073-.046 0-.073-.076-.117-.094zm-.095-.003c0 .01-.073.038-.089.041.035.186.081.333.127.479 0 .329.108.151.108.007 0-.146.034-.447-.146-.527zm.983-.179c0 .015-.098.003-.117.022.019.062.034.076.016.132-.081 0-.081-.07-.081-.111-.024-.012-.224.044-.27.052 0 .038.073.003.085.003.03.028.103.318.039.318-.059.108-.101.014-.166.014.015-.038.019-.244 0-.244-.065-.245-.435-.049-.62-.049-.1-.046-.327 0-.154.076 0 .196-.039.221.057.399-.072.115.247.293-.019.293a.23.23 0 0 0-.065.057c-.089 0-.047.118-.077.118-.005.018-.035.034-.035.046-.043.024-.077.045-.112.035-.135.06-.069-.091-.05-.161-.046 0-.085.122-.088.146-.089-.01 0-.136 0-.15.046-.041.057-.028.096-.028-.104-.038-.169-.042-.212-.118-.157 0-.154.486-.138.59a.134.134 0 0 0 .031.042c.022 0 .033.032.042.045.015-.139.011-.311.211-.129.016 0 .085-.049.085-.02.165.149-.023.399-.023.562.112 0 .147.448.05.179-.023-.039-.046-.091-.08-.122 0-.068.014-.218-.012-.27-.062.055-.077.297-.112.374-.108.199.011.342-.054.528-.077.136-.027.898.004.399.008-.07.115-.277.115-.301.009 0 .039-.022.066-.022.062.057-.03.305-.054.371 0 .032.031.504-.023.504-.043-.038-.054-.087-.069-.137-.044.099.058.361-.039.447-.077.281-.146.595-.146.882-.015.045-.027.09-.039.132-.011.116-.027.585-.192.633a.096.096 0 0 0 .05.043c0 .024-.043.138-.011.138 0 .042-.016.081 0 .13.023 0 .053.171.053.209.009.032.089.218.108.218 0 .056.135.174.177.216.123 0 .185-.321.481-.279.024.03.024.045.027.056-.049.017-.054.038-.054.048.024.029.058.071.078.071 0 .122-.035.174.03.292-.003.016-.003.029-.003.043-.193 0 .037.203.042.203 0-.066-.026-.157.035-.213.011 0 .042-.004.042-.021.035.006.039.035.058.035.016.102-.035.258.073.308.012.02.042.07.03.09-.034 0-.13-.02-.13-.059-.081 0-.042-.144-.157-.073.023.042.084.058.084.118-.004 0-.131.045-.113.062.036-.005.07-.017.113-.013.011.01.019.035.042.035-.004.017-.004.031-.004.046-.035.017-.042.038-.053.038-.055.111-.092.111-.066.203a.112.112 0 0 0-.035.086c.035-.055.039-.062.101-.062 0 .077 0 .154.003.228-.019.017-.023.027-.023.056-.026-.011-.046.003-.058.023-.05 0-.269-.052-.124-.094l-.072-.024c-.027.024.027.161-.081.161l-.012-.066c-.065.013-.131.023-.192.034 0 .028.015.101.054.101 0 .011.003.046-.008.046l.008.074c.019.017.138.342.039.342-.032-.011-.062-.025-.097-.025-.015.078.004.161-.015.235-.012.024-.023.045-.031.066a.908.908 0 0 1-.216-.053c-.077.015-.242.148-.142-.013-.024-.011-.047-.014-.066-.018-.042.007-.046.039-.057.07.073.063-.043.172.076.241.193.042-.023.434.236.378 0-.031-.016-.185-.028-.185.008-.129.008-.206.058-.298.069 0-.077.217.065.217.035.021.02.084.05.112.032-.139.185-.185.147-.115 0 .118.02.336.112.42.042.038.023.027.076.027 0 .025-.08.14-.115.14 0 .098.089.262-.1.262-.058-.035.035-.097-.043-.119-.057-.017-.073 0-.077.025-.023 0-.069.171-.076.195h-.085c-.012-.031-.034-.16-.004-.16l.023-.095c-.007 0-.058.004-.058.018-.054 0-.108.203-.103.234 0 .074-.055.06-.035.15 0 .116-.093.169-.189.211 0 .16.073.115-.046.115-.12.034-.108-.018-.161-.092-.044-.007-.082-.013-.12-.023 0 .019.076.261.104.261 0 .046.034.109.046.151.016-.022.081-.098.096-.127.011-.055.139-.157.201-.185.057-.053.203-.027.23-.077.019 0 .051-.031.066-.041 0-.091.231-.098.281-.12.011-.058.031-.223.128-.223.007.007-.082.364-.182.356a.175.175 0 0 1-.046-.018c0 .039-.023.246.004.246 0-.053.027-.102.042-.15.024-.021.065-.036.065-.05-.014.088-.038.175-.061.262a.473.473 0 0 0-.007.07c.05.022.054.053.084.053.042-.101.181.129.2.164.023-.055.181.05.19.063a.687.687 0 0 0 .303.102c.023.042.012.052-.011.098a.66.66 0 0 1-.185-.025c0 .088.343.078.378.052.007-.069 0-.115.088-.115.038.141.111.018.146.018.035.031-.003.055-.039.055.004.024.016.042.032.042.004.018.015.07.05.057 0-.105.165-.043.138.031-.05 0-.015.217.023.217.062-.057-.069-.65.082-.65 0-.217.033-.284.145-.486.005-.123.012-.248.02-.375l-.124.064c-.03.006-.157.192-.157.119.069-.113.069-.088.069-.186-.035-.031.038-.157.047-.157 0-.021.019-.123-.009-.123-.05-.055-.115-.24.023-.24.012.006.035.157.062.195.131-.185.274.08.342.049.024 0 .062.042.071.059.06 0 .038.136.038.123a.418.418 0 0 1 .131-.084c.177.118-.02.129.004.272-.058.092.004.126.05.214.011 0 .042-.074.057-.091.078 0 .066.049.112.07 0 .076-.119.031-.162.031 0 .032.035.066.035.092-.024.031-.108.016-.108.031.093.084.032.094-.061.094-.012.024-.016.035-.016.045-.046.015-.119.042-.165.042.011.014.019.049.046.049.03-.063.099-.042.135-.031-.02.018-.089.084-.139.038a.414.414 0 0 0-.028.129c.109-.083.278-.105.321.049-.009.011-.108.126-.046.126.142-.073.119.073.184.073 0 .018-.169.222-.173.222a1.299 1.299 0 0 0-.019.125c-.058.018-.093-.007-.147-.014-.011-.025-.026-.283.047-.283 0-.039.053-.074.053-.102-.149 0-.161.319-.192.409-.019 0-.035 0-.05-.003 0 .066-.008.132.046.199a.34.34 0 0 1 .023-.119c.084 0 .135.224.047.263 0 .021.053.126.076.126 0 .069.227.255.012.198a.242.242 0 0 1-.046-.006l.011.066c.073.021.143-.06.143.06-.019.003-.035.003-.05.003.015.056-.254.105-.285.118.023.039.05.064.077.088.073-.055.058-.053.135-.053l-.077.189c-.016.032-.058.13-.016.147 0 .109-.104.007-.146.007-.066.011-.143-.018-.196-.018 0 .039-.047.064-.024.109.039-.035.177-.057.205-.007-.012.028-.023.052-.032.078-.057 0-.145.013-.177-.047-.06.088-.103.248-.122.347-.017 0-.066.154-.055.175.03-.015.03-.054.055-.054 0-.17.462-.059.18 0-.046.039-.185.263-.189.263 0 .018-.023.071.023.071.023-.022.027-.082.035-.109.082-.151.128-.203.293-.221 0 .022.046.039.065.039 0 .045.101.039.027.105a.303.303 0 0 1-.108.063c-.027.034-.053.07-.077.105-.046.065-.033.104.008.182.005-.011.005-.123.035-.123A.427.427 0 0 1 .57-5.26c.146-.066.127.087.081.087-.089.059-.077.175-.143.175l-.042-.038.011.17c.223-.002.509-.078.686.011.196.043-.073-.059.027-.149 0-.029.004-.057.008-.088-.055 0-.055.108-.101.129-.115-.104.255-.509.39-.581-.154-.013.065-.304.161-.359-.008-.098-.027-.287-.151-.287.094-.196.344.256.189.256.097.01.074.01.058.069.069.064.023-.272-.062-.325a.275.275 0 0 1 .016-.042l.073.011c-.011-.042-.019-.088-.027-.133-.08.024-.073-.217-.092-.217 0-.021-.027-.149.008-.149 0-.159.153-.159.046-.302 0-.073.123 0 .169 0 .039-.01.008-.108.078-.108 0-.049.015-.276.076-.276.016-.014.011-.039.011-.063h-.069c-.027-.024.031-.039.031-.053.059-.002.119-.01.181-.018-.077-.045-.324-.131-.324-.25-.042-.014-.018-.036-.018-.071.053-.049.184-.031.25-.003l-.058.06c.062.094.288.181.386.094.053 0 .172.178.241.209 0-.065-.149-.556.016-.405.028 0 .012-.049.053-.049.005 0 .098.277.059.294 0 .021.161.21.116.21 0 .076.026.237.142.237 0-.021.027-.038.05-.038.027.028.03.038.042.038 0-.038.054-.034.085-.028.031.057.015.297-.024.357-.011 0-.091-.07-.11-.054 0 .25.072.078.203.196.066 0 .093.159.123.159 0 .024.005.048.009.07-.05-.026-.085-.211-.163-.175.159.202.078.549.078.761.023-.013.042-.196.076-.196.101-.272.197-.565.248-.849 0-.063.041-.265.045-.265a2.178 2.178 0 0 0-.135-.647c-.023-.041-.007-.102-.007-.137-.034 0-.054-.216-.077-.262-.019-.185-.074-.394-.074-.58-.073-.475.016-.972-.104-1.447-.065-.179-.126-.357-.188-.535-.088-.241-.193-.468-.293-.689-.019-.028-.031-.045-.039-.066a.314.314 0 0 1-.026-.09c-.02.02-.047.003-.047.003-.258-.185-.06-.619.043-.84a.222.222 0 0 1 .027-.041c.027 0 .019-.039.042-.039.043-.157.166-.307.243-.447.004-.014.03-.105.05-.105.015-.049.127-.457.035-.457a.142.142 0 0 0-.008.042c-.015-.092-.038-.407.054-.449.023-.16.042-.324.15-.457 0-.011.038-.23.061-.23.069-.337.428-1.389.074-1.63a1.92 1.92 0 0 1-.081-.076c-.073-.098-.232-.514-.412-.435-.058.106-.088-.056-.035-.056.031-.112.366-.192.447-.265.05-.021.258-.329.246-.353-.026 0-.038-.01-.057-.021-.044-.077-.205-.094-.27-.122-.008.041-.004.041.003.041.085-.013-.011.105-.011.109-.038.017-.211.137-.146.017.019-.021.047-.055.073-.066-.061.029-.108.021-.138.036a.152.152 0 0 1-.028.066c-.053-.078.035-.441-.188-.238-.166.076-.17.22-.308.318-.011.021-.135.069-.135.048-.019 0-.03.06-.066.029.009-.039.151-.235.155-.235l.023-.125c-.046-.029-.081-.011-.105-.056a.497.497 0 0 1-.142.079c0 .05-.069.075-.069.096-.054.024-.049.314-.049.371l-.066.009c0 .109-.212.109-.154-.02l-.023-.144c-.012-.007-.039-.062 0-.062v-.413c0-.122.149-.182.238-.248.012-.021.038-.122.054-.122.004-.057.007-.117.016-.175-.02 0-.329-.063-.329-.081a.167.167 0 0 1-.041-.007c-.012.049-.032.046-.09.052a.905.905 0 0 1-.1.465c-.01-.111.028-.262.028-.391-.019-.069-.05-.15-.035-.224-.23 0-.308-.213-.404.011-.03.115.039.311-.016.409-.065 0-.161-.367-.111-.469-.135-.017-.27-.175-.431-.101 0 .112.019.283-.081.374a2.7 2.7 0 0 0 .131.186c0 .034.026.079.038.111.043.227.077.595-.038.808-.189.143-.389.174-.44.362-.011.026-.05.046-.077.057 0 .052 0 .13-.081.112-.058.034-.084.22.013.22 0 .031.011.193-.009.193-.041.115.115.171.174.251.019.056.023.112.028.168.044.042.157-.112.203.056.05.091-.085.146.058.209.042.039.131.228.058.259-.004.015-.009.028-.009.043-.057 0-.057 0-.08.042-.05 0-.027.021-.024.055.047 0 .039.011.066.05.012.086.05.086.131.097 0 .003.116.081.143.081-.116-.117-.285-.256-.147-.382.062 0 .078.336.209.217 0-.063-.043-.154.057-.175.03 0 .139.371.189.441 0 .042-.081.115-.081.144-.108 0-.07.726-.058.904 0 .217-.05.462.02.653 0 .029-.04.182-.058.182-.016.046-.035.105-.012.151.274 0 .062.329.219.398.046.084.023.186.085.256.023 0 .02.098 0 .098-.039.074-.138.199-.085.296.027 0 .108-.143.158-.097.085.105.147.108.124.245.011.066-.016.272.057.296.22.025-.05.431.12.431 0 .014.008.055.027.055-.027.077.053.269.035.269.015.057.061.084.038.13l-.096-.01c-.008.049-.023.045-.046.042 0 .027 0 .055-.016.08-.066 0-.119-.028-.178-.003-.042.017-.142.115-.115.163.046 0 .324-.042.324.081l-.235.042c-.019.014-.039.028-.055.042-.126.077-.287-.045-.287-.175-.266 0-.105-.262-.247-.392-.077-.142-.019-.251-.093-.387 0-.122.108-.203.066-.326-.077-.191.085 0 .085.137 0 .07.046-.056.05-.056.049-.046-.115-.254-.031-.254a.169.169 0 0 0 .05-.072c.012 0 .027 0 .042-.003 0-.042-.069-.112-.05-.146.1-.165-.123-.458-.123-.654-.05 0-.151-.129-.216-.129-.038.074-.031.168-.066.234-.057 0-.115.056-.153-.013-.02-.018-.154.118-.154.006.046-.032.096-.063.145-.095-.049-.013-.106-.462-.122-.524-.078 0 .035.206-.012.206-.022.022-.08.067-.08-.013-.012 0-.089.013-.089-.011-.02 0-.081-.011-.081-.032-.027 0-.081-.088-.108-.088-.043-.034-.08-.079-.101-.003.024.036.039.042.055.046.012.085-.062.091-.062.133-.031 0-.034.053-.103.038-.078-.07.034-.149.08-.191-.031-.029-.1-.012-.035-.099.07-.077.063-.301.039-.391-.039-.64.019-1.283.038-1.923.004-.045.027-.507.051-.507.031-.485.073-.975.119-1.457.046-.252.138-.508.165-.759.009-.098.17-.402.301-.402l.046-.053c-.019-.049-.015-.091-.012-.136.067-.059.104-.178-.015-.231-.042-.013-.081-.02-.118-.031Zm-.117-.074c-.173.004-.304.119-.497.049-.061-.006-.373 0-.373.056-.046.012-.1.025-.142 0 0-.02-.139-.02-.139 0-.305 0-.158.581-.097.581 0 .052.046.129.046.181a.22.22 0 0 0-.142.091c-.116-.091-.104-.223-.269-.298-.25 0-.459-.135-.712-.135-.27.14-.444-.087-.578.237-.009.105-.024.283.065.364.02.046.05.105.05.154-.074 0-.15-.102-.23-.119-.374-.167-.663.095-.849.346l-.023.043c-.073.335.009.701-.084 1.02-.239.542-.193 1.056.054 1.584 0 .014.019.094.039.094.104.419.037.862.284 1.255.134.231.304.422.524.584.012.014.058.097.069.097.005.053.055.476-.007.476-.047.335-.158.702-.158 1.041 0 .34.011.692.05 1.031.011.074.08.567.115.567 0 .256.182.58.259.818.007.014.011.059.033.059.082.223.213.473.266.703 0 .01.013.042.028.042 0 .059.042.136.062.188.065.326.138.651.222.973.009.115.124.349.174.461.016.031.097.248.127.248 0 .104.177.391.216.499.011.047.062.246.077.246a.479.479 0 0 0 .015.087c.104.423.155.846.27 1.269.119.353.331.797.231 1.171l.012 1.22c0 .024.018.255.057.255.113.398.228.783.285 1.199.008.342.108.829.608.647a.696.696 0 0 0 .32-.234c.073 0 .215-.389.251-.389.081-.178.162-.367.227-.549.012-.024.042-.146.065-.146.031-.147.197-.566.44-.388.033.032.138.195.146.195 0 .085.092.263.116.351.049.212.099.422.168.632.016.035.213.503.301.503 0 .175.358.182.466.143.273-.128.342-.849.369-1.104.009-.017.028-.181.043-.181.038-.364.05-.77.196-1.105.008-.046.046-.287.008-.287 0-.021.073-.136.088-.136.108-.196.232-.364.051-.584 0-.108.3-.478.4-.57.089-.039.635-.465.635-.478.128 0 .301-.313.27-.434-.031-.091-.185-.2-.185-.28-.073-.056-.127-.174-.18-.244-.174-.316-.651-.029-.899-.252a.434.434 0 0 0-.018-.172c.046 0 .092.05.131.05-.016-.078-.193-.112-.166-.162.043.008.089.011.135.014.003.011.077.148.042.148 0 .122.1-.018.039-.106 0-.059-.085-.097-.062-.167.162-.22-.046-.304-.188-.466-.035-.041-.02-.073-.005-.073.051-.185.151-.356.193-.548l.092-.329c.043-.269.124-.556.05-.821 0-.064-.038-.298-.05-.298 0-.188-.08-.412-.103-.607-.016-.113-.012-.277-.051-.382 0-.566.07-1.185-.131-1.73-.085-.245-.169-.514-.292-.74-.127-.225-.231-.41-.273-.651-.009-.147-.012-.294-.016-.44.115-.239.262-.463.373-.697.123-.374.132-.776.201-1.163.007-.274.165-.613.2-.885l.092-.465.008-.531c-.008-.179-.227-.203-.293-.357-.026-.101-.265-.332-.265-.353.049-.055.131-.094.212-.133.127-.063.462-.422.408-.577-.162-.293-.474-.003-.647-.161-.015-.003-.088-.02-.088-.038-.058-.017-.309-.02-.309.008-.015 0-.123.021-.123-.008-.015 0-.115-.007-.115.008a.703.703 0 0 0-.439.244c-.009-.214-.07-.275.134-.367l.062-.059c.131-.238.185-.395-.092-.479-.209-.018-.308-.143-.517-.143-.027 0-.238-.094-.238-.112-.012 0-.058-.003-.058.006-.016 0-.255.109-.255-.006-.038 0-.123-.039-.158-.05-.107 0-.222.018-.319-.024-.042.038-.266-.007-.335-.025" style="fill:#231f20;fill-opacity:1;fill-rule:evenodd;stroke:none" transform="matrix(.35278 0 0 -.35278 41.462 18.172)"/></svg>