<svg xmlns="http://www.w3.org/2000/svg" viewBox="104.68 0.92 14.98 12.21"><path d="m0 0 12.871-23.718c1.548-2.557-.061-5.18-2.998-4.721-.927.146-6.899.964-14.446 1.975l2.153 2.906L7.8-24.677c.847-.101 1.241.145.754 1.062 0 0-9.625 19.385-9.719 19.609-.324.602-.682.408-.975-.133 0 0-9.454-17.168-9.578-17.388-.35-.673-.214-1.005.797-1.103l3.715-.406-2.14-2.642-4.851.765c-1.212.157-1.607.922-.94 2.173.502.944 11.787 21.541 11.787 21.541.225.394.417.697.646 1.103C-2.031 1.087-.809 1.405 0 0" style="fill:#00adef;fill-opacity:1;fill-rule:nonzero;stroke:none" transform="matrix(.35278 0 0 -.35278 114.91 1.249)"/><path d="m0 0 16.892 2.978-1.44-2.62-11.66-1.957c-.595-.134-.542-.4-.165-.649 0 0 10.17-7.03 11.154-7.677.792-.536 1.217-.753 1.883.101 0 0 8.261 10.132 8.691 10.814.628.844.91 1.179-.099 1.002l-5.734-.958 1.469 2.651 7.691 1.4c1.755.295 2.452-.925 1.592-2.218-.738-1.055-12.926-17.455-12.926-17.455-.788-1.154-1.381-1.107-2.305-.295C13.904-13.936-.515-1.984-.515-1.984-1.461-1.201-1.162-.214 0 0" style="fill:#fabc09;fill-opacity:1;fill-rule:nonzero;stroke:none" transform="matrix(.35278 0 0 -.35278 105.062 7.669)"/></svg>