<svg xmlns="http://www.w3.org/2000/svg" id="Layer_1" data-name="Layer 1" viewBox="0 0 689.5 212.82"><defs><style>.cls-1{fill:#004e96}</style></defs><path d="M.37 0h688.55v172.14H.37z" class="cls-1"/><path d="M.37 154.92h688.55v17.21H.37z" style="fill:#faa61a"/><path d="m83.17 39.15-1.19 12.58H59.75L57.67 69.2h22.32L78.5 81.9H56.17l-4.26 34.29H39.1l9.04-77.15 35.03.11zm6.51.03-8.75 76.71s37.78.76 37.78-.11 1.29-12.15 1.29-12.15H94.71l2.56-21.95h25.38l1.58-12.81H99l2.06-17.32h25.3l1.47-12.48Zm103.49 0-8.76 76.71s37.78.76 37.78-.11 1.29-12.15 1.29-12.15h-25.3l2.56-21.95h25.39l1.57-12.81h-25.19l2.06-17.32h25.29l1.49-12.48Zm-40.54.19-17.17-.09-8.67 76.72h12.53v-.06c2.67.26 17.75 1.42 27.15-4.06 0 0 19.35-7.94 19.17-39.74.01-.03-1.12-29.22-33.01-32.77Zm3.08 64.25s-11.85.77-15 .36l5.91-52.17 9.37-.18s13.42 0 17.27 17.2a1.8 1.8 0 0 1 .06.32c3.74 17.53-7.32 33.03-17.61 34.47ZM278 116.19l-16.21-33s14.13-2.6 15.47-22.59c0 0 .29-20-19.48-21.13H239.3l-8.77 76.71h12.93L247 84.55l1.7.11 16 31.54Zm-27.24-64.51s12.47-2.28 14.11 5.32c0 0 2.86 14.18-10.14 16.06l-6.39-.06Zm80.75 64.51h13.28L322.48 39l-43 77.09h14.6l8.53-16.31h24.75Zm-22.43-28.78 10.24-19.58 5 19.68Zm194.59 28.78H517L494.64 39l-43 77.09h14.59l8.53-16.31h24.75Zm-22.43-28.78 10.25-19.58 4.95 19.68ZM356.42 39.78l-8.99 76.41h34.56l1.31-12.12h-21.41l6.81-64.41-12.28.12zM444.83 76s10.31-8.77 7.64-20.34c0 0-1.27-14.78-18.75-16.31H416.9l-8.67 76.67h19.51s16.95.14 22.7-9.48c0 .03 11.21-16.83-5.61-30.54Zm-15.57-25.6s7.78-.56 10.59 4c0 0 5.48 10.74-6.25 15.75l-6.83.4 2.23-18.9Zm9.95 50.46s-3.31 4.88-16.06 3.21h-.37L425.41 82c2.13-.17 7.13-.44 8.83.64 0-.05 12.49 3.03 4.97 18.22Zm93.6-62.13-11.1 77.35H534l6.64-49.91 41.72 49.6 10.55-76.69h-13.2l-5.4 46.1-41.5-46.45zm117.38.34h-14.62L610.94 66l3.09-26.93-13.22-.14-8.85 77.26h13.22l3.52-30.66 2.08-2.33 22.87 32.7h15.01L620.3 72.54l29.89-33.47z" style="fill:#fff"/><path d="M10.3 201.38c-1.22-2-2.69-4.41-4.44-7.15l-2.55-3.89-2.44-3.64c-.46-.63-.75-1-.87-1.17a23.4 23.4 0 0 0 2.52.12 23.4 23.4 0 0 0 2.48-.12 19.91 19.91 0 0 0 .89 2c.31.64.85 1.56 1.57 2.77L9 193c1.36 2.25 2.55 4.21 3.62 5.84 1-1.54 2.13-3.37 3.34-5.48l1.72-3c.63-1.06 1.12-1.93 1.43-2.57a20.89 20.89 0 0 0 .93-2.24 12.34 12.34 0 0 0 1.8.12 12.05 12.05 0 0 0 1.8-.12c-.14.14-.42.54-.87 1.17s-1.26 1.86-2.44 3.64L18 193.94c-1.62 2.51-3 4.72-4.15 6.64v8.64a25.89 25.89 0 0 0 .25 3.2 15.83 15.83 0 0 0-2-.12 15.88 15.88 0 0 0-2.06.12 30.5 30.5 0 0 0 .25-3.2c0-1.28.06-3.43.06-6.42Zm31.76 11.44q6.9 0 11.17-4a13.38 13.38 0 0 0 4.29-10.35 12.39 12.39 0 0 0-4.15-9.68q-4.15-3.69-10.87-3.7a15.85 15.85 0 0 0-11.17 4A13.51 13.51 0 0 0 27 199.44a12.36 12.36 0 0 0 4.17 9.68q4.17 3.7 10.85 3.7m.22-1.69a10.36 10.36 0 0 1-8-3.23 12.18 12.18 0 0 1-3-8.61 13.27 13.27 0 0 1 3-9.07 10.09 10.09 0 0 1 8-3.41 10.44 10.44 0 0 1 8 3.23 12.22 12.22 0 0 1 3 8.61 13.32 13.32 0 0 1-3 9.08 10.16 10.16 0 0 1-8 3.4m45.67-10.46c0 4-1 7-3 9.05s-4.91 3.1-8.75 3.1-6.8-.88-8.67-2.64-2.81-4.5-2.83-8.18v-2.76l-.06-8.91c0-1.57-.06-2.68-.1-3.32a9.16 9.16 0 0 0-.15-1.48 16.74 16.74 0 0 0 2.12.13 16.46 16.46 0 0 0 2.11-.13 10.47 10.47 0 0 0-.17 1.51c0 .63-.08 1.73-.13 3.29q-.14 3.94-.13 8.88v1.59c0 3.38.73 5.9 2.15 7.53s3.59 2.45 6.5 2.45c3.08 0 5.31-.86 6.73-2.59s2.11-4.46 2.1-8.2v-.76l-.06-8.9v-3.4c0-.64 0-1.11-.07-1.4a8.09 8.09 0 0 0 1.46.13 8 8 0 0 0 1.47-.13 12.07 12.07 0 0 0-.2 1.63c-.06.65-.11 1.71-.17 3.17q-.1 3.94-.11 8.89Zm8.62 10.4a12.78 12.78 0 0 1-.14 1.34 18.6 18.6 0 0 1 2.09-.11 18.28 18.28 0 0 1 2.08.11 12.86 12.86 0 0 1-.12-1.34c0-.63-.07-1.79-.12-3.46 0-2.48-.07-5.28-.07-8.38h1.33q2.11 2.37 4.76 5.59l2.29 2.79c1.09 1.29 1.87 2.25 2.35 2.89a15.56 15.56 0 0 1 1.25 1.91c.74-.07 1.61-.11 2.56-.11s1.82 0 2.56.11c-.16-.13-.52-.52-1.1-1.16s-1.63-1.85-3.18-3.64l-2.22-2.6c-1.93-2.28-3.59-4.27-5-6a13.9 13.9 0 0 0 5.12-1.77 6.09 6.09 0 0 0 3.33-5.34 5.41 5.41 0 0 0-2.26-4.75c-1.5-1.07-3.76-1.59-6.78-1.59h-1.65c-.61 0-1.3 0-2.06.1h-2c-.87 0-1.93-.07-3.2-.13a10.11 10.11 0 0 1 .12 1.32c0 .65.07 1.81.13 3.48q.06 3.82.06 8.65c0 3.18 0 6-.06 8.63-.06 1.67-.09 2.83-.11 3.46m3.68-23.59c1-.07 2.17-.13 3.41-.14a8.5 8.5 0 0 1 4.94 1.22 4 4 0 0 1 1.71 3.5A4.54 4.54 0 0 1 108 196a10.57 10.57 0 0 1-6 1.47c-.65 0-1.28 0-1.87.06Zm34.29 23.58c0 .65-.08 1.1-.12 1.36a16 16 0 0 1 2.08-.12 16.37 16.37 0 0 1 2.09.12 8.6 8.6 0 0 1-.12-1.33c0-.64-.09-1.8-.13-3.48-.07-2.29-.09-4.85-.08-7.67a24.66 24.66 0 0 0 3.58.18q5.16 0 8-2a6.71 6.71 0 0 0 2.83-5.78 5.81 5.81 0 0 0-2.39-5.11c-1.6-1.11-4-1.66-7.35-1.66h-1.66c-.61 0-1.27 0-2 .09h-4.76c0 .25.08.7.12 1.34s.07 1.8.12 3.45c0 2.56.07 5.42.06 8.56s0 6-.06 8.61c-.05 1.66-.09 2.82-.12 3.45m3.68-23.45c1.05-.1 2.22-.16 3.53-.16a8.51 8.51 0 0 1 5.07 1.28 4.42 4.42 0 0 1 1.72 3.78 5 5 0 0 1-2.06 4.21 8.92 8.92 0 0 1-5.55 1.58c-1 0-1.87 0-2.71-.11Zm19.04 24.97a8.55 8.55 0 0 0 .13-1.34c0-.65.06-1.79.12-3.46v-17.64q-.09-2.49-.12-3.45a8.86 8.86 0 0 0-.13-1.35 21.09 21.09 0 0 0 2.4.22c1.13.06 2.26.09 3.4.09h3.11q1.86 0 3.33-.09a24.67 24.67 0 0 0 2.56-.27 7.6 7.6 0 0 0 0 2.69 18 18 0 0 0-2.46-.27 81.06 81.06 0 0 0-3.43-.09h-1.45c-1.26 0-2.43 0-3.53.05l-.11 9.76h3.62c1.2 0 2.44 0 3.71-.1a20.71 20.71 0 0 0 2.61-.25 6.89 6.89 0 0 0-.11 1.35 6.75 6.75 0 0 0 .11 1.33 20.71 20.71 0 0 0-2.61-.25c-1.27-.06-2.51-.1-3.71-.1h-3.61c0 4.17 0 7.8.1 10.87h4.13c1.25 0 2.55 0 3.89-.12a26.09 26.09 0 0 0 2.85-.28 7.09 7.09 0 0 0-.12 1.38 6.84 6.84 0 0 0 .12 1.35c-.57-.09-1.44-.17-2.63-.24s-2.27-.1-3.26-.1h-3.11c-1 0-2.13 0-3.26.08s-2 .13-2.54.21m22.1-1.5c0 .66-.09 1.11-.13 1.34a18.41 18.41 0 0 1 2.08-.11 18.79 18.79 0 0 1 2.1.11 8.55 8.55 0 0 1-.13-1.34c0-.63-.08-1.79-.12-3.46 0-2.48-.08-5.28-.08-8.38h1.34c1.41 1.58 3 3.44 4.76 5.59l2.29 2.79c1.09 1.29 1.88 2.25 2.35 2.89a16.69 16.69 0 0 1 1.24 1.91c.75-.07 1.61-.11 2.57-.11s1.81 0 2.57.11a12.3 12.3 0 0 1-1.11-1.16c-.57-.65-1.64-1.85-3.19-3.64l-2.22-2.6c-1.93-2.28-3.59-4.27-5-6a13.85 13.85 0 0 0 5.11-1.77q3.34-2 3.34-5.34a5.42 5.42 0 0 0-2.27-4.75c-1.5-1.07-3.76-1.59-6.78-1.59h-1.64c-.62 0-1.29 0-2.06.1h-2c-.86 0-1.92-.07-3.19-.13a10.65 10.65 0 0 1 .11 1.32c0 .65.09 1.81.13 3.48q.08 3.82.07 8.65c0 3.18 0 6-.07 8.63 0 1.67-.09 2.83-.11 3.46m3.68-23.59c1-.07 2.17-.13 3.43-.14a8.41 8.41 0 0 1 4.92 1.22 4 4 0 0 1 1.72 3.5 4.53 4.53 0 0 1-2.23 3.95 10.66 10.66 0 0 1-6 1.47c-.65 0-1.27 0-1.87.06Zm21.75 20.13c0-2.57.05-5.48.05-8.72s0-6.15-.05-8.73c-.06-1.67-.1-2.82-.13-3.46s-.08-1.09-.12-1.35a23.85 23.85 0 0 0 2.7.22q2 .09 4.14.09h2.49c1.25 0 2.36 0 3.34-.09s1.83-.15 2.56-.27a7 7 0 0 0-.11 1.35 6.85 6.85 0 0 0 .11 1.34 17.78 17.78 0 0 0-2.44-.27 82.46 82.46 0 0 0-3.46-.09h-1.64c-1.34 0-2.56 0-3.72.05q-.1 4.08-.13 9.55h4.15c1.24 0 2.5 0 3.77-.09a20.91 20.91 0 0 0 2.55-.25 7 7 0 0 0 0 2.68 21.61 21.61 0 0 0-2.39-.21c-1.27-.07-2.58-.11-3.93-.14l-4.15-.06q0 4.73.09 8.49.08 2.52.12 3.48a9.74 9.74 0 0 0 .12 1.32 19.82 19.82 0 0 0-4.17 0c0-.25.1-.7.14-1.35s0-1.78.11-3.45m20.92 4.94c0-.25.08-.7.11-1.34s.08-1.79.12-3.46q.08-3.91.07-8.83t-.07-8.81q-.06-2.49-.12-3.45c0-.64-.07-1.09-.11-1.35a20.61 20.61 0 0 0 2.4.22c1.12.06 2.25.09 3.4.09h3.11q1.86 0 3.33-.09a25.29 25.29 0 0 0 2.56-.27 7.6 7.6 0 0 0 0 2.69 18.6 18.6 0 0 0-2.48-.27c-1.17-.05-2.31-.09-3.41-.09h-1.45c-1.26 0-2.44 0-3.53.05l-.12 9.76h3.62c1.21 0 2.44 0 3.71-.1a21.15 21.15 0 0 0 2.62-.25 6.12 6.12 0 0 0-.13 1.35 6 6 0 0 0 .13 1.33 21.15 21.15 0 0 0-2.62-.25c-1.27-.06-2.5-.1-3.71-.1h-3.61c0 4.17 0 7.8.11 10.87h4.13c1.24 0 2.54 0 3.89-.12a26.67 26.67 0 0 0 2.85-.28 7.09 7.09 0 0 0-.12 1.38 6.84 6.84 0 0 0 .12 1.35q-.87-.13-2.64-.24c-1.19-.07-2.28-.1-3.25-.1h-3.11c-1.06 0-2.15 0-3.26.08s-2 .13-2.54.21m44.05-4.18c-.09.44-.18.82-.22 1.14s-.09.72-.12 1.16a18.13 18.13 0 0 1-4.36 1.62 22.85 22.85 0 0 1-5 .51 14.54 14.54 0 0 1-10.32-3.7 12.7 12.7 0 0 1-4-9.69 13.54 13.54 0 0 1 4.29-10.34 15.27 15.27 0 0 1 10.95-4 24.87 24.87 0 0 1 4.81.43 22.6 22.6 0 0 1 4.41 1.3l-.52 1.6c-.12.46-.26 1-.41 1.63h-.66a9.61 9.61 0 0 0-3.41-2.41 10.65 10.65 0 0 0-12.17 2.59 13.22 13.22 0 0 0-3 9.07 12.17 12.17 0 0 0 3 8.49 10 10 0 0 0 7.72 3.34 13.84 13.84 0 0 0 4.76-.84 11.57 11.57 0 0 0 3.83-2.32Zm12.27-.76c0-2.58.06-5.45.06-8.6 0-4.43 0-8.23-.13-11.42h-2.16c-1.34 0-2.68 0-4 .11a21.24 21.24 0 0 0-2.77.28 7.6 7.6 0 0 0 0-2.69c1.49.09 3.18.18 5.07.25s3.33.11 4.36.11h2.15c1.08 0 2.59 0 4.48-.11s3.52-.16 4.94-.25a7.6 7.6 0 0 0 0 2.69 22.35 22.35 0 0 0-2.75-.25c-1.34-.07-2.68-.11-4-.11h-1.54c-.1 3.17-.14 7-.14 11.38 0 3.19 0 6.07.07 8.62.06 1.65.1 2.8.12 3.44a8.41 8.41 0 0 0 .13 1.34 18.66 18.66 0 0 0-2.1-.11 18.41 18.41 0 0 0-2.08.11 12.11 12.11 0 0 0 .13-1.34c0-.64.07-1.79.12-3.44m33.4-8.52h2.73a10.89 10.89 0 0 1 5.94 1.32 4.38 4.38 0 0 1 2 3.93 5.17 5.17 0 0 1-2.07 4.48c-1.36 1-3.4 1.53-6.08 1.53a18.25 18.25 0 0 1-2.53-.18Zm-3.68 12a9.37 9.37 0 0 1-.14 1.33l2-.12 5.2.12a14.36 14.36 0 0 0 8.17-2.12 6.42 6.42 0 0 0 3.13-5.51 6 6 0 0 0-2.7-5.35 11.73 11.73 0 0 0-4.84-1.6 11 11 0 0 0 3.71-1.51 5.71 5.71 0 0 0 2.9-5 4.77 4.77 0 0 0-2.41-4.36q-2.42-1.45-7.28-1.46l-5.88.12-2-.12a7.37 7.37 0 0 1 .12 1.33c0 .64.09 1.8.13 3.48 0 2.54.08 5.43.07 8.64s0 6-.07 8.63c0 1.67-.08 2.84-.11 3.48m3.68-23.29a16.78 16.78 0 0 1 3.1-.23 8.5 8.5 0 0 1 4.85 1.22 3.68 3.68 0 0 1 1.81 3.22 4.37 4.37 0 0 1-2 3.73 9 9 0 0 1-5.27 1.4h-2.52Zm19.48 23.37a14.2 14.2 0 0 1-.72 1.23 11.15 11.15 0 0 1 1.62-.11 11.7 11.7 0 0 1 1.65.11c.19-.77.39-1.48.61-2.12s.6-1.53 1.09-2.68a159.5 159.5 0 0 1 2.28-5.22 22.52 22.52 0 0 1 5.18-.33 46.79 46.79 0 0 1 5.09.33l2.3 5.22c.55 1.24.94 2.19 1.17 2.83s.45 1.31.63 2a20.82 20.82 0 0 1 2.24-.11 21.43 21.43 0 0 1 2.25.11l-2.37-4.8a409.22 409.22 0 0 1-4-8.54c-2.45-5.34-4.43-9.8-5.94-13.42h-1q-2.26 5.46-6.07 13.46c-1.49 3.16-2.88 6-4.16 8.5-.9 1.74-1.53 2.93-1.87 3.57m11.73-20 3.54 7.77.4.92c-1.24.15-2.58.24-4 .27a26.21 26.21 0 0 1-4-.23l.44-1c1.28-2.85 1.93-4.26 1.93-4.26s.56-1.16 1.7-3.47m21.93 16.4c.06 1.63.12 2.76.16 3.41a13.25 13.25 0 0 0 .15 1.39 9.09 9.09 0 0 0-1.47-.11 9.31 9.31 0 0 0-1.48.11 8.41 8.41 0 0 0 .13-1.34c0-.64.07-1.79.12-3.46 0-2.57.06-5.45.06-8.62s0-6-.06-8.54c-.05-1.66-.1-2.81-.12-3.46a8.24 8.24 0 0 0-.13-1.33h1.28q5.19 5.61 13.29 13.77l6.7 6.65v-6.85c0-3.29 0-6.25-.08-8.9q-.07-2.51-.12-3.48a8.22 8.22 0 0 0-.13-1.32 7.81 7.81 0 0 0 1.45.13 7.89 7.89 0 0 0 1.45-.13 8.22 8.22 0 0 0-.13 1.32c0 .65-.06 1.81-.12 3.48 0 2.63-.07 5.59-.07 8.89 0 5.43.07 10 .18 13.6h-1.18q-5.19-5.62-13.29-13.77l-6.73-6.71V199c0 3.21.06 6.08.13 8.63m33.64-.03c.05 1.67.1 2.83.14 3.47a7.27 7.27 0 0 0 .11 1.35 18.26 18.26 0 0 0-4.18 0 8.6 8.6 0 0 0 .12-1.33c0-.64.07-1.81.13-3.48 0-2.58.05-5.46.05-8.63s0-6.1-.05-8.64c-.06-1.68-.1-2.84-.13-3.48a8.6 8.6 0 0 0-.12-1.33 18.26 18.26 0 0 0 4.18 0 7.27 7.27 0 0 0-.11 1.35c0 .64-.09 1.79-.14 3.45-.06 2.33-.07 4.86-.06 7.61h.06c1.8-1.48 3.91-3.39 6.3-5.72 2.62-2.54 4.7-4.73 6.28-6.57h2.14a17 17 0 0 0 2.14-.12 14.3 14.3 0 0 0-1.52 1.2c-.76.64-2.12 1.84-4.11 3.6l-3.33 3-4.29 4.06 4.45 5.1 4.56 5.07 3.33 3.68c.59.65 1 1 1.1 1.14a28 28 0 0 0-5.18 0 15.55 15.55 0 0 0-1.36-1.95c-.52-.64-1.33-1.59-2.48-2.87L408 205.2c-2.33-2.59-4.31-4.73-6-6.45v.2q0 4.81.09 8.65m22.04.01c0-2.59.07-5.45.07-8.63s0-6.1-.07-8.64c0-1.67-.08-2.82-.11-3.46a10 10 0 0 0-.14-1.35 16.53 16.53 0 0 0 2.1.13 16.37 16.37 0 0 0 2.09-.13 10.94 10.94 0 0 0-.12 1.35c0 .64-.07 1.79-.13 3.46 0 2.57-.05 5.45-.05 8.62s0 6.09.05 8.65c.06 1.66.1 2.82.13 3.46a10.53 10.53 0 0 0 .12 1.34 18.73 18.73 0 0 0-2.09-.11 18.92 18.92 0 0 0-2.1.11 8.22 8.22 0 0 0 .14-1.34c0-.64.07-1.8.11-3.46m15.01 0c.06 1.63.11 2.76.15 3.41a13.25 13.25 0 0 0 .15 1.39 9.09 9.09 0 0 0-1.47-.11 9.27 9.27 0 0 0-1.47.11 10.33 10.33 0 0 0 .12-1.34c0-.64.08-1.79.12-3.46 0-2.57.06-5.45.06-8.62s0-6-.06-8.54c0-1.66-.08-2.81-.12-3.46a10.12 10.12 0 0 0-.12-1.33h1.28q5.19 5.61 13.28 13.77l6.7 6.65v-6.85c0-3.29 0-6.25-.1-8.9q-.06-2.51-.12-3.48a9 9 0 0 0-.11-1.32 7.58 7.58 0 0 0 1.43.13 7.73 7.73 0 0 0 1.45-.13 8.57 8.57 0 0 0-.12 1.32c0 .65-.07 1.81-.13 3.48 0 2.63-.07 5.59-.07 8.89q0 8.15.2 13.6H459q-5.19-5.62-13.29-13.77l-6.71-6.71V199c0 3.21.06 6.08.14 8.63m42.66 5.19a15.64 15.64 0 0 1-10.79-3.7 12.35 12.35 0 0 1-4.14-9.68 13.51 13.51 0 0 1 4.26-10.35 15.66 15.66 0 0 1 11.1-4 27.93 27.93 0 0 1 5.89.59 22.38 22.38 0 0 1 5.11 1.82c-.21.61-.39 1.14-.53 1.6s-.27 1-.42 1.65h-.66a12.52 12.52 0 0 0-4.11-2.9 11.66 11.66 0 0 0-4.81-1.08 11 11 0 0 0-8.42 3.41 12.86 12.86 0 0 0-3.17 9.11 11.7 11.7 0 0 0 3.18 8.59 11.29 11.29 0 0 0 8.44 3.21 18.94 18.94 0 0 0 6.81-1.3v-2.7c0-1.73 0-3.09-.09-4s-.18-2-.34-3.15a17.19 17.19 0 0 0 2.15.11 16.85 16.85 0 0 0 2.13-.11 16 16 0 0 0-.22 1.62c0 .65-.06 1.7-.09 3.17v4.54a11.73 11.73 0 0 0 .22 1.88 36.25 36.25 0 0 1-11.54 1.67m31.86-1.76a11.94 11.94 0 0 1-.14 1.36 16.37 16.37 0 0 1 2.09-.12 16.21 16.21 0 0 1 2.08.12c0-.24-.08-.69-.12-1.33s-.07-1.8-.12-3.48q-.1-3.44-.07-7.67h-.06a24.73 24.73 0 0 0 3.59.18c3.43 0 6.09-.68 8-2a6.71 6.71 0 0 0 2.83-5.78 5.82 5.82 0 0 0-2.37-5.11q-2.4-1.66-7.36-1.66h-1.67c-.59 0-1.25 0-2 .09h-4.78a8.91 8.91 0 0 1 .12 1.34c0 .64.07 1.8.13 3.45 0 2.56.07 5.42.07 8.56s0 6-.07 8.61c-.06 1.66-.1 2.82-.11 3.45m3.68-23.45c1-.1 2.22-.16 3.51-.16a8.62 8.62 0 0 1 5.09 1.28 4.42 4.42 0 0 1 1.72 3.78 5 5 0 0 1-2.08 4.21 8.86 8.86 0 0 1-5.58 1.57c-1 0-1.87 0-2.71-.11Zm17.28 23.56a10.71 10.71 0 0 1-.71 1.23 12.13 12.13 0 0 1 3.26 0 21.53 21.53 0 0 1 .64-2.12c.22-.65.57-1.53 1.07-2.68.66-1.63 1.44-3.37 2.29-5.22a22.51 22.51 0 0 1 5.17-.33 47 47 0 0 1 5.1.33l2.3 5.22c.54 1.24.94 2.19 1.17 2.83s.43 1.31.61 2a21.29 21.29 0 0 1 2.25-.11 21.63 21.63 0 0 1 2.26.11l-2.39-4.8q-1.82-3.8-4-8.54c-2.44-5.34-4.42-9.8-5.94-13.42h-1q-2.25 5.46-6.06 13.46c-1.49 3.16-2.88 6-4.16 8.5-.9 1.74-1.53 2.93-1.88 3.57m11.73-20 3.56 7.77.4.92c-1.24.15-2.59.24-4 .27a26.08 26.08 0 0 1-4-.23l.44-1 1.93-4.26s.56-1.16 1.69-3.47m19 19.86a10.46 10.46 0 0 1-.14 1.34 19.91 19.91 0 0 1 4.18 0 12.11 12.11 0 0 1-.13-1.34c0-.63-.07-1.79-.12-3.46 0-2.48-.09-5.28-.09-8.38h1.36c1.4 1.58 3 3.44 4.77 5.59l2.28 2.79c1.08 1.29 1.86 2.25 2.35 2.89a16.69 16.69 0 0 1 1.24 1.91c.74-.07 1.6-.11 2.56-.11s1.82 0 2.56.11c-.16-.13-.52-.52-1.1-1.16s-1.62-1.85-3.18-3.64l-2.24-2.6c-1.92-2.28-3.57-4.27-4.94-6a13.91 13.91 0 0 0 5.11-1.77 6.08 6.08 0 0 0 3.32-5.34 5.41 5.41 0 0 0-2.25-4.75c-1.5-1.07-3.76-1.59-6.79-1.59h-1.64c-.61 0-1.3 0-2.05.1h-2c-.86 0-1.93-.07-3.2-.13a8.57 8.57 0 0 1 .12 1.32c0 .65.07 1.81.13 3.48 0 2.55.07 5.43.07 8.65s0 6-.07 8.63c-.06 1.67-.1 2.83-.11 3.46m3.65-23.59c1-.07 2.18-.13 3.41-.14a8.46 8.46 0 0 1 4.94 1.22 4 4 0 0 1 1.71 3.5 4.55 4.55 0 0 1-2.23 3.95 10.63 10.63 0 0 1-6 1.47c-.66 0-1.28 0-1.87.06Zm28.24 20.15q.06-3.87.06-8.6c0-4.43 0-8.23-.13-11.42h-2.16c-1.34 0-2.67 0-4 .11a21.46 21.46 0 0 0-2.72.25 7.6 7.6 0 0 0 0-2.69c1.5.09 3.18.18 5.07.25s3.34.11 4.36.11h2.15c1.09 0 2.59 0 4.48-.11s3.54-.16 5-.25a6.53 6.53 0 0 0 0 2.69 23.25 23.25 0 0 0-2.77-.25c-1.34-.07-2.68-.11-4-.11H601c-.08 3.17-.12 7-.12 11.38v8.62c.06 1.65.09 2.8.13 3.44a8.77 8.77 0 0 0 .12 1.34 18.55 18.55 0 0 0-2.08-.11 18.79 18.79 0 0 0-2.1.11 8.55 8.55 0 0 0 .13-1.34c0-.64.07-1.79.12-3.44m20.46 0c.07 1.63.11 2.76.16 3.41a9.35 9.35 0 0 0 .15 1.39 9.94 9.94 0 0 0-3 0 8.41 8.41 0 0 0 .13-1.34c0-.64.07-1.79.11-3.46 0-2.57.07-5.45.07-8.62s0-6-.07-8.54c0-1.66-.08-2.81-.11-3.46a8.24 8.24 0 0 0-.13-1.33h1.27q5.22 5.61 13.29 13.77l6.7 6.65v-6.85c0-3.29 0-6.25-.09-8.9q-.08-2.51-.12-3.48c0-.63-.08-1.08-.12-1.32a7.53 7.53 0 0 0 1.44.13 7.78 7.78 0 0 0 1.44-.13 8.22 8.22 0 0 0-.13 1.32c0 .65-.07 1.81-.11 3.48 0 2.63-.07 5.59-.07 8.89 0 5.43.07 10 .18 13.6h-1.18q-5.19-5.62-13.29-13.77l-6.74-6.71V199c0 3.21.05 6.08.14 8.63m28.98 4.96c0-.25.08-.7.13-1.34s.06-1.79.12-3.46c0-2.61.05-5.55.05-8.83s0-6.22-.05-8.81q-.09-2.49-.12-3.45c-.05-.64-.09-1.09-.13-1.35a21.09 21.09 0 0 0 2.4.22c1.12.06 2.26.09 3.41.09h3.1c1.24 0 2.35 0 3.34-.09a24.75 24.75 0 0 0 2.55-.27 7.6 7.6 0 0 0 0 2.69 18.19 18.19 0 0 0-2.46-.27 81.06 81.06 0 0 0-3.43-.09H654c-1.26 0-2.43 0-3.53.05l-.12 9.76H654c1.19 0 2.42 0 3.69-.1a21.15 21.15 0 0 0 2.62-.25 6.79 6.79 0 0 0-.13 1.35 6.66 6.66 0 0 0 .13 1.33 21.15 21.15 0 0 0-2.62-.25c-1.27-.06-2.5-.1-3.69-.1h-3.63c0 4.17 0 7.8.11 10.87h4.13c1.25 0 2.54 0 3.89-.12a26.67 26.67 0 0 0 2.85-.28 7.09 7.09 0 0 0-.12 1.38 6.84 6.84 0 0 0 .12 1.35c-.57-.09-1.46-.17-2.63-.24s-2.27-.1-3.26-.1h-3.1c-1.07 0-2.16 0-3.26.08s-2 .13-2.55.21m22.11-1.5c0 .66-.09 1.11-.13 1.34a18.28 18.28 0 0 1 2.08-.11 18.79 18.79 0 0 1 2.1.11 9.57 9.57 0 0 1-.14-1.34c0-.63-.07-1.79-.11-3.46-.05-2.48-.08-5.28-.08-8.38h1.34c1.4 1.58 3 3.44 4.77 5.59l2.28 2.79c1.09 1.29 1.88 2.25 2.35 2.89a16.69 16.69 0 0 1 1.24 1.91c.76-.07 1.61-.11 2.57-.11s1.81 0 2.57.11a11.43 11.43 0 0 1-1.1-1.16c-.58-.65-1.64-1.85-3.2-3.64L683 205c-1.93-2.28-3.59-4.27-5-6a13.85 13.85 0 0 0 5.11-1.77 6.07 6.07 0 0 0 3.33-5.34 5.43 5.43 0 0 0-2.25-4.75c-1.51-1.07-3.77-1.59-6.79-1.59h-1.64c-.62 0-1.31 0-2.06.1h-2c-.86 0-1.92-.07-3.19-.13 0 .25.09.68.13 1.32s.07 1.81.11 3.48c0 2.55.07 5.43.07 8.65s0 6-.07 8.63c0 1.67-.09 2.83-.11 3.46m3.68-23.59c1-.07 2.17-.13 3.43-.14a8.43 8.43 0 0 1 4.92 1.22 4 4 0 0 1 1.72 3.5 4.53 4.53 0 0 1-2.23 3.95 10.66 10.66 0 0 1-6 1.47c-.65 0-1.27 0-1.87.06Z" class="cls-1"/></svg>