<svg xmlns="http://www.w3.org/2000/svg" xml:space="preserve" width="28.679" height="28.679"><defs><linearGradient id="b" x1="0" x2="1" y1="0" y2="0" gradientTransform="scale(21.015 -21.015) rotate(50.323 41.488 -17.55)" gradientUnits="userSpaceOnUse" spreadMethod="pad"><stop offset="0" style="stop-opacity:1;stop-color:#ef3b23"/><stop offset="1" style="stop-opacity:1;stop-color:#8b131e"/></linearGradient><linearGradient id="d" x1="0" x2="1" y1="0" y2="0" gradientTransform="matrix(18.014 0 0 -18.014 31.518 794.39)" gradientUnits="userSpaceOnUse" spreadMethod="pad"><stop offset="0" style="stop-opacity:1;stop-color:#b7212f"/><stop offset="1" style="stop-opacity:1;stop-color:#ef3b23"/></linearGradient><clipPath id="a" clipPathUnits="userSpaceOnUse"><path d="m43.584 815.254 18.951-22.845-22.752-18.873-18.951 22.844"/></clipPath><clipPath id="c" clipPathUnits="userSpaceOnUse"><path d="M32.333 805.144h20.573v-21.509H32.333Z"/></clipPath></defs><g clip-path="url(#a)" transform="matrix(1.33333 0 0 -1.33333 -41.863 1073.525)"><path d="M41.837 805.137c-5.788-.173-10.44-4.908-10.44-10.737 0-5.941 4.815-10.755 10.749-10.755 1.967 0 7.308.824 9.824 6.377a9.248 9.248 0 0 0-3.493-.682c-5.125 0-9.266 3.321-9.273 8.444-.005 2.633.791 4.751 2.01 6.313.247.318.654.763.932 1.047a31.852 31.852 0 0 0-.309-.007" style="fill:url(#b);stroke:none"/></g><g clip-path="url(#c)" transform="matrix(1.33333 0 0 -1.33333 -41.863 1073.525)"><path d="M43.111 804.097c1.612-2.152 1.986-4.209 1.986-6.322 0-5.123-4.152-8.445-9.273-8.445a9.26 9.26 0 0 0-3.491.682c2.564-5.712 7.852-6.377 9.819-6.377 5.938 0 10.754 4.815 10.754 10.755 0 5.831-4.653 10.566-10.443 10.739l-.317.015c.279-.284.724-.722.965-1.047" style="fill:url(#d);stroke:none"/></g><path d="M0 0c-1.128-1.559-1.845-3.593-1.835-6.036.01-2.682 1.155-4.919 2.956-6.397 1.79 1.478 2.975 3.672 2.94 6.349C4.038-4.08 3.85-2.206 2.122.175c-.275.38-.756.872-1.007 1.109C1.086 1.284.44.61 0 0" style="fill:#fff;fill-opacity:1;fill-rule:nonzero;stroke:none" transform="matrix(1.33333 0 0 -1.33333 12.852 1.713)"/></svg>