<svg xmlns="http://www.w3.org/2000/svg" width="202" height="173" viewBox="0 0 104.844 90.192"><defs><clipPath id="a" clipPathUnits="userSpaceOnUse"><path d="M46.024 10.458v69.969h28.16a468.313 468.313 0 0 1-.467-3.747c-.39-3.134-.694-6.276-.996-9.419-.22-2.696-.5-5.386-.724-8.082-.164-1.923-.216-3.854-.375-5.777-.193-2.757-.486-5.507-.792-8.253-.417-4.097-.787-8.2-1.152-12.301-.283-3.407-.583-6.812-.87-10.219a154.606 154.606 0 0 0-1.154-9.916c-.104-.753-.22-1.504-.335-2.255Zm30.371 0c-.999 1.175-1.985 2.071-2.95 2.532 5.8 4.254 7.512 5.05 14.168.852v-3.384z" style="fill:red;fill-opacity:1;fill-rule:nonzero;stroke:none;stroke-width:.521341"/></clipPath></defs><g fill-rule="evenodd"><path fill="#003874" d="M-.01 45.096C-.01 20.192 23.462 0 52.422 0s52.432 20.192 52.432 45.096c0 24.904-23.474 45.096-52.432 45.096C23.465 90.192-.01 70.003-.01 45.096"/><path fill="#ed1c24" d="m58.25 10.458-12.182 4.026-.044 65.943 12.285-4.116zm153.292 12.139-12.038 4.3v6.689c.913-.367 1.85-.647 2.789-.804 1.963-.327 2.562.034 4.307.542.34.082.67.223 1.018.246.311.021.864-.172 1.3-.333.321-.486.663-.995 1.185-1.215.45-.19.942-.205 1.44-.195zm63.689.046L262.98 26.9v43.46l.01-.01h12.249V52.78h.134l9.802 17.57H300l-13.34-19.205 12.316-16.276h-13.403l-10.208 14.914h-.134Zm-107.912 11.95a22.118 22.118 0 0 0-5.35 1.816c1.782-.597 3.564-1.2 5.348-1.793l.002-.022zm51.364.274c.573 1.083.785 2.356.852 3.58a11.371 11.371 0 0 1-.886 5h1.471v-8.58zm-23.148.392a43.055 43.055 0 0 1-2.379 2.635c.05.06.105.133.153.191a15.16 15.16 0 0 1 2.363-2.29c-.051-.181-.09-.357-.137-.536zm18.662.461a3.882 3.882 0 0 0-.964.098c-.284.676-.87 1.25-1.335 1.832a18.442 18.442 0 0 1-1.523 1.674 7.831 7.831 0 0 0-.128 2.541c.448-.107.956-.178 1.634-.319 1.15.394 2.28.49 2.754 1.5 1.082-1.756 1.37-3.621 1.045-5.85-.053-.361-.228-.694-.341-1.041-.38-.145-.735-.417-1.142-.435zm-10.814.769c-1.003.033-2.021.358-2.962.808.254.407.548.797.89 1.165.485.192.934.547 1.454.575 1.557.086 2.968-.73 4.171-1.753a6.148 6.148 0 0 1-1.549-.336c-.262-.115-.508-.278-.787-.344a4.61 4.61 0 0 0-1.217-.115zm-31.943 1.025c-.05.115-.088.213-.142.335-.014.075-.025.122-.04.196l.322-.402a14.088 14.088 0 0 1-.14-.129zm12.494.56c-.482.001-1.04.01-1.698.02-1.402.022-2.793.261-4.181.453-1.157.16-2 .404-2.747.518-.341.427-1.279 1.609-1.84 2.315.07.031.142.056.21.09.705.361 1.229.98 1.76 1.586 1.725.578 2.991 1.728 3.85 3.237 2.66-2.499 5.281-5.04 7.832-7.653-.125-.101-.255-.197-.383-.295-.671-.205-1.426-.274-2.803-.27zm13.329 1.32c-.506.426-.98.887-1.356 1.423-.09.128-.172.26-.249.394.35.637.61 1.337.791 2.236h2.833v6.781c2.653-.242 5.307-.48 7.96-.733-.36-.33-.664-.812-.895-1.54-.394-1.242.033-2.535.728-3.592-.211-.769-.481-1.528-.601-2.312-.891.39-1.825.644-2.782.694-1.108.057-2.186-.379-3.279-.568-.88-.706-1.9-1.266-2.64-2.117a7.417 7.417 0 0 1-.51-.666zm-33.71.504-.998.336c.103.215.187.458.245.733.238-.366.484-.726.753-1.07zm26.239 1.471c-2.988 3.074-6.076 6.048-9.22 8.963.077.545.119 1.104.14 1.673 4.198-.441 8.4-.842 12.605-1.228-.007-.082-.003-.17-.011-.252-1.097-.129-2.14-1.064-2.786-2.643-.532-1.302.114-2.81.171-4.216.084-.214.154-.435.228-.653a16.348 16.348 0 0 0-1.127-1.644zm-33.599.932c-.394.062-.746.06-1.054.005-.417.63-.804 1.284-1.141 1.977a120.02 120.02 0 0 0 2.724 5.802l-.018-.169c-.233-2.533-.36-5.076-.511-7.615zm55.352 3.015c-.023.009-.042.011-.065.021.016.01.047.019.065.028zm-48.645.492v1.546c.515-.052.988.138 1.31.52l.5-1.784c-.429.164-.857.304-1.236.115a2.754 2.754 0 0 1-.574-.397zm29.688 1.056c-.242.324-.416 1.4-.202 1.096.13-.184.24-.388.33-.6-.044-.165-.08-.335-.128-.496zm-40.23 3.007a21.36 21.36 0 0 0-.191 2.77c0 8.741 4.966 14.746 12.344 17.234a119.228 119.228 0 0 1-12.153-20.004zm59.187 3.037c-4.086.409-8.174.794-12.263 1.165v3.814c0 4.417.742 7.835 3.005 10.102.298-.07.596-.14.89-.22 3.915-1.08 7.986-2.87 11.811-4.915-2.675-.525-3.443-2.643-3.443-6.33zm-18.234 1.715c-4.307.395-8.613.8-12.914 1.254-.573 2.675-1.905 4.912-4.213 5.996 2.248 2.54 5.035 4.616 8.2 5.836.25.097.506.175.762.256 4.57-2.791 7.619-7.33 8.165-13.342zm-27.884 2.289c-.138.377-.286.75-.454 1.116-.515 1.124-.728 2.72-1.84 3.234a113.96 113.96 0 0 0 7.138 9.784c.823.072 1.658.12 2.513.12 2.762 0 5.36-.392 7.73-1.125-3.415-1.825-6.336-4.43-8.65-7.524-3.455-.345-5.513-2.591-6.437-5.605zm54.847 7.33c-4.136 2.451-8.7 4.749-13.182 6.293 1.612.408 3.515.63 5.796.63 3.063 0 5.38-.4 7.7-.68z" clip-path="url(#a)" transform="translate(-.01)"/><path fill="#fff" d="M91.855 49.636c-1.143 9.42-6.427 18.937-17.965 18.955-6.736.012-11.998-4.6-15.642-10.243v-6.536c4.56 2.264 8.822 4.694 13.993 4.768 6.37.094 12.13-2.355 14.512-6.945h5.103zm-38.57 5.915c-5.293 6.38-10.408 12.897-19.992 12.897-13.537 0-19.958-13.088-19.958-24.03 0-10.514 5.018-22.96 18.206-22.96 5.72 0 11.226 3.498 14.508 7.198l-.01 8.925c-2.742-1.846-8.884-3.657-12.894-3.722-8.363-.14-15.736 3.485-15.608 11.74.087 5.683 5.718 9.546 11.32 9.546 8.58 0 13.778-7.838 18.122-13.787a490.38 490.38 0 0 0 5.165-6.858c4.825-6.742 10.408-12.897 19.992-12.897 11.29 0 17.628 9.1 19.42 18.468h-5.1c-2.05-3.038-5.993-4.897-9.877-4.897-8.87 0-14.17 8.16-18.606 14.168l-4.7 6.208"/></g></svg>