<svg xmlns="http://www.w3.org/2000/svg" xml:space="preserve" width="525.632" height="74.392"><path d="M69.517 12.835v25.922h3.434V25.9l12.874 12.856h4.647L79.596 28.255l11.352-15.42h-4.526l-9.228 13.12-4.243-4.14v-8.98zm36.146 2.317c-1.183-1.002-2.318-1.708-3.404-2.124a9.899 9.899 0 0 0-3.513-.615c-2.064 0-3.646.5-4.756 1.508-1.104 1.008-1.66 2.3-1.66 3.863 0 .923.205 1.762.628 2.523.416.76.966 1.37 1.642 1.828a7.78 7.78 0 0 0 2.293 1.044c.622.163 1.564.326 2.825.477 2.57.308 4.465.67 5.679 1.099.012.434.018.712.018.826 0 1.298-.302 2.215-.906 2.74-.808.725-2.021 1.08-3.62 1.08-1.497 0-2.602-.259-3.32-.784-.712-.525-1.237-1.454-1.581-2.788l-3.108.429c.283 1.328.748 2.408 1.394 3.222.646.821 1.587 1.455 2.812 1.895 1.226.441 2.644.664 4.26.664 1.607 0 2.904-.193 3.906-.567 1.002-.38 1.739-.851 2.215-1.424.471-.574.797-1.292.99-2.167.103-.543.157-1.521.157-2.933v-4.243c0-2.963.066-4.834.205-5.613.132-.785.404-1.54.803-2.257h-3.326c-.325.658-.543 1.43-.633 2.317zm-.266 7.11c-1.16-.477-2.891-.875-5.197-1.207-1.31-.187-2.239-.398-2.776-.634-.543-.235-.965-.58-1.255-1.038a2.7 2.7 0 0 1-.447-1.509c0-.85.326-1.557.966-2.124.64-.562 1.581-.845 2.818-.845 1.226 0 2.318.265 3.271.803.954.537 1.66 1.273 2.107 2.203.344.718.513 1.78.513 3.18zm8.117-9.427V31.61h2.862v-2.843c.73 1.328 1.406 2.209 2.027 2.631.616.423 1.298.64 2.04.64 1.074 0 2.16-.344 3.271-1.026l-1.098-2.958c-.773.466-1.551.695-2.33.695a3.04 3.04 0 0 1-1.877-.628c-.555-.422-.947-1.002-1.183-1.744-.356-1.129-.53-2.366-.53-3.712v-9.831zm12.095 0V31.61h2.862v-2.668c1.382 2.064 3.373 3.096 5.974 3.096 1.135 0 2.173-.205 3.12-.61.954-.41 1.66-.94 2.13-1.604.478-.659.804-1.444.997-2.348.114-.592.175-1.624.175-3.097V12.835h-3.187V24.26c0 1.291-.12 2.263-.368 2.909-.247.64-.688 1.152-1.316 1.533-.634.386-1.37.58-2.22.58-1.359 0-2.524-.435-3.513-1.292-.984-.864-1.473-2.493-1.473-4.9V12.834zm32.393 2.317c-1.183-1.002-2.318-1.708-3.404-2.124a9.902 9.902 0 0 0-3.513-.615c-2.064 0-3.646.5-4.756 1.508-1.105 1.008-1.66 2.3-1.66 3.863 0 .923.205 1.762.628 2.523a5.18 5.18 0 0 0 1.642 1.828 7.78 7.78 0 0 0 2.293 1.044c.622.163 1.563.326 2.824.477 2.571.308 4.466.67 5.68 1.099.012.434.018.712.018.826 0 1.298-.302 2.215-.906 2.74-.808.725-2.022 1.08-3.62 1.08-1.498 0-2.602-.259-3.32-.784-.712-.525-1.237-1.454-1.581-2.788l-3.109.429c.284 1.328.749 2.408 1.395 3.222.645.821 1.587 1.455 2.812 1.895 1.225.441 2.644.664 4.26.664 1.607 0 2.904-.193 3.906-.567 1.002-.38 1.738-.851 2.215-1.424.47-.574.797-1.292.99-2.167.102-.543.157-1.521.157-2.933v-4.243c0-2.963.066-4.834.205-5.613.132-.785.404-1.54.802-2.257h-3.325c-.326.658-.543 1.43-.633 2.317zm-.266 7.11c-1.16-.477-2.891-.875-5.197-1.207-1.31-.187-2.24-.398-2.776-.634-.543-.235-.966-.58-1.255-1.038a2.7 2.7 0 0 1-.447-1.509c0-.85.326-1.557.966-2.124.64-.562 1.58-.845 2.818-.845 1.226 0 2.318.265 3.271.803.954.537 1.66 1.273 2.107 2.203.344.718.513 1.78.513 3.18zm15.1-6.578.459-2.813c-.894-.187-1.696-.284-2.402-.284-1.159 0-2.052.181-2.692.55-.633.361-1.08.844-1.34 1.442-.26.591-.392 1.847-.392 3.754v10.803h-2.336v2.475h2.336v4.653l3.168 1.907v-6.56h3.2v-2.475h-3.2V18.158c0-.912.055-1.49.163-1.75.116-.26.296-.465.55-.622.253-.15.615-.229 1.086-.229.356 0 .82.042 1.4.127zm15.366-.532c-1.182-1.002-2.317-1.708-3.403-2.124a9.901 9.901 0 0 0-3.513-.615c-2.064 0-3.646.5-4.756 1.508-1.105 1.008-1.66 2.3-1.66 3.863 0 .923.205 1.762.627 2.523a5.18 5.18 0 0 0 1.643 1.828 7.782 7.782 0 0 0 2.293 1.044c.621.163 1.563.326 2.825.477 2.57.308 4.465.67 5.678 1.099.013.434.019.712.019.826 0 1.298-.302 2.215-.906 2.74-.808.725-2.021 1.08-3.621 1.08-1.496 0-2.601-.259-3.32-.784-.711-.525-1.236-1.454-1.58-2.788l-3.109.429c.284 1.328.749 2.408 1.395 3.222.645.821 1.587 1.455 2.812 1.895 1.225.441 2.644.664 4.26.664 1.607 0 2.904-.193 3.906-.567 1.002-.38 1.738-.851 2.215-1.424.47-.574.797-1.292.99-2.167.102-.543.157-1.521.157-2.933v-4.243c0-2.963.066-4.834.205-5.613.132-.785.404-1.54.802-2.257h-3.325c-.326.658-.543 1.43-.634 2.317zm-.265 7.11c-1.16-.477-2.891-.875-5.197-1.207-1.31-.187-2.239-.398-2.776-.634-.543-.235-.965-.58-1.255-1.038a2.701 2.701 0 0 1-.447-1.509c0-.85.326-1.557.965-2.124.64-.562 1.582-.845 2.819-.845 1.225 0 2.318.265 3.271.803.954.537 1.66 1.273 2.107 2.203.344.718.512 1.78.512 3.18zm8.166-9.427v25.922h3.186V23.976l7.532 7.635h4.116l-7.175-6.965 7.905-11.811h-3.928l-6.204 9.602-2.246-2.16v-7.442zm30.345 2.317c-1.183-1.002-2.318-1.708-3.403-2.124a9.9 9.9 0 0 0-3.513-.615c-2.064 0-3.646.5-4.756 1.508-1.105 1.008-1.66 2.3-1.66 3.863 0 .923.205 1.762.627 2.523.417.76.967 1.37 1.643 1.828a7.782 7.782 0 0 0 2.293 1.044c.622.163 1.563.326 2.825.477 2.57.308 4.465.67 5.679 1.099.012.434.018.712.018.826 0 1.298-.302 2.215-.906 2.74-.808.725-2.021 1.08-3.621 1.08-1.496 0-2.601-.259-3.32-.784-.711-.525-1.236-1.454-1.58-2.788l-3.109.429c.284 1.328.749 2.408 1.395 3.222.645.821 1.587 1.455 2.812 1.895 1.226.441 2.644.664 4.26.664 1.606 0 2.904-.193 3.906-.567 1.002-.38 1.738-.851 2.215-1.424.47-.574.797-1.292.99-2.167.102-.543.156-1.521.156-2.933v-4.243c0-2.963.067-4.834.206-5.613.132-.785.404-1.54.802-2.257h-3.325c-.326.658-.543 1.43-.634 2.317zm-.265 7.11c-1.16-.477-2.891-.875-5.197-1.207-1.31-.187-2.24-.398-2.776-.634-.543-.235-.966-.58-1.255-1.038a2.7 2.7 0 0 1-.447-1.509c0-.85.326-1.557.965-2.124.64-.562 1.582-.845 2.819-.845 1.225 0 2.318.265 3.271.803.954.537 1.66 1.273 2.107 2.203.344.718.513 1.78.513 3.18zm18.474-9.427v25.922h9.729c1.98 0 3.567-.266 4.762-.785a6.093 6.093 0 0 0 2.812-2.426c.676-1.087 1.02-2.227 1.02-3.422 0-1.105-.302-2.149-.905-3.127-.598-.978-1.509-1.768-2.722-2.371 1.569-.459 2.77-1.243 3.615-2.348.845-1.11 1.268-2.42 1.268-3.929 0-1.214-.26-2.342-.773-3.386s-1.147-1.847-1.9-2.414c-.756-.568-1.703-.99-2.837-1.28-1.136-.29-2.53-.434-4.183-.434zm3.434 15.028h5.606c1.516 0 2.608.102 3.272.301.869.26 1.527.688 1.967 1.292.441.604.665 1.358.665 2.264 0 .856-.206 1.617-.616 2.268-.417.659-1.008 1.105-1.768 1.346-.767.242-2.083.362-3.948.362h-5.178zm0-11.968h6.452c1.11 0 1.889.042 2.335.12.791.145 1.449.38 1.98.713.53.326.966.808 1.31 1.436.338.634.513 1.358.513 2.185 0 .965-.248 1.804-.743 2.523-.495.712-1.183 1.212-2.064 1.502-.875.284-2.142.43-3.79.43h-5.993zm32.711-.743c-1.183-1.002-2.318-1.708-3.404-2.124a9.9 9.9 0 0 0-3.512-.615c-2.064 0-3.646.5-4.756 1.508-1.105 1.008-1.66 2.3-1.66 3.863 0 .923.205 1.762.627 2.523.417.76.967 1.37 1.643 1.828a7.78 7.78 0 0 0 2.293 1.044c.622.163 1.563.326 2.824.477 2.571.308 4.466.67 5.68 1.099.012.434.018.712.018.826 0 1.298-.302 2.215-.906 2.74-.808.725-2.022 1.08-3.62 1.08-1.498 0-2.602-.259-3.32-.784-.712-.525-1.237-1.454-1.581-2.788l-3.109.429c.284 1.328.749 2.408 1.395 3.222.645.821 1.587 1.455 2.812 1.895 1.225.441 2.644.664 4.26.664 1.606 0 2.904-.193 3.906-.567 1.002-.38 1.738-.851 2.215-1.424.47-.574.797-1.292.99-2.167.102-.543.156-1.521.156-2.933v-4.243c0-2.963.066-4.834.206-5.613.132-.785.404-1.54.802-2.257h-3.325c-.326.658-.543 1.43-.634 2.317zm-.265 7.11c-1.16-.477-2.891-.875-5.197-1.207-1.31-.187-2.24-.398-2.776-.634-.543-.235-.966-.58-1.255-1.038a2.7 2.7 0 0 1-.447-1.509c0-.85.326-1.557.965-2.124.64-.562 1.582-.845 2.82-.845 1.225 0 2.317.265 3.27.803.954.537 1.66 1.273 2.107 2.203.344.718.513 1.78.513 3.18zm8.153-9.427V31.61h2.862v-2.668c1.382 2.064 3.373 3.096 5.974 3.096 1.135 0 2.173-.205 3.12-.61.954-.41 1.66-.94 2.13-1.604.478-.659.804-1.444.997-2.348.114-.592.175-1.624.175-3.097V12.835h-3.187V24.26c0 1.291-.12 2.263-.368 2.909-.247.64-.688 1.152-1.316 1.533-.633.386-1.37.58-2.22.58-1.359 0-2.524-.435-3.513-1.292-.984-.864-1.473-2.493-1.473-4.9V12.834zm20.153 0v25.922h3.186V23.976l7.532 7.635h4.116l-7.175-6.965 7.905-11.811h-3.929l-6.203 9.602-2.246-2.16v-7.442zm28.414 0v25.922h3.434V15.895h12.765v-3.06zm26.827 2.849.459-2.813c-.894-.187-1.696-.284-2.402-.284-1.159 0-2.052.181-2.692.55-.633.361-1.08.844-1.34 1.442-.26.591-.392 1.847-.392 3.754v10.803h-2.336v2.475h2.336v4.653l3.168 1.907v-6.56h3.199v-2.475h-3.199V18.158c0-.912.054-1.49.163-1.75.115-.26.296-.465.55-.622.253-.15.615-.229 1.086-.229.356 0 .82.042 1.4.127zm15.294-2.85v2.373c-1.19-1.865-2.94-2.794-5.251-2.794-1.497 0-2.873.41-4.128 1.237-1.256.82-2.227 1.973-2.921 3.458-.688 1.478-1.032 3.174-1.032 5.1 0 1.87.313 3.572.935 5.1.628 1.526 1.563 2.697 2.813 3.506 1.249.815 2.65 1.225 4.194 1.225 1.128 0 2.137-.241 3.018-.718a6.293 6.293 0 0 0 2.16-1.865v9.3h3.163v-25.92zm-10.061 9.374c0-2.408.507-4.207 1.52-5.396 1.014-1.189 2.21-1.787 3.592-1.787 1.388 0 2.57.574 3.542 1.708.972 1.136 1.461 2.873 1.461 5.209 0 2.571-.495 4.454-1.485 5.655-.99 1.208-2.208 1.804-3.663 1.804-1.413 0-2.595-.578-3.543-1.732-.947-1.152-1.424-2.975-1.424-5.461zm18.92-9.373v3.627h3.628v-3.627z" style="fill:#853a93;fill-opacity:1;fill-rule:nonzero;stroke:#853a93;stroke-width:.99999994;stroke-opacity:1" transform="matrix(1.33333 0 0 -1.33333 0 74.392)"/><path d="M244.193 8.227h1.88l1.106-1.924 1.107 1.924h1.869l-2.13-3.312V2.528h-1.698v2.387zm5.952-3.647c0 .63.204 1.15.612 1.557.41.409.96.613 1.656.613.795 0 1.396-.24 1.801-.72.328-.385.49-.862.49-1.427 0-.635-.203-1.154-.607-1.56-.405-.405-.965-.609-1.68-.609-.638 0-1.153.17-1.547.506-.484.417-.725.964-.725 1.64zm1.524.004c0-.368.072-.64.216-.816a.668.668 0 0 1 .54-.265c.22 0 .399.088.54.261.14.174.211.452.211.837 0 .357-.071.623-.212.798a.656.656 0 0 1-.528.262.68.68 0 0 1-.55-.265c-.144-.178-.217-.45-.217-.812zm8.334-2.056h-1.421v.669c-.212-.275-.425-.471-.64-.587a1.668 1.668 0 0 0-.795-.175c-.419 0-.747.13-.985.39s-.357.662-.357 1.204v2.627h1.529v-2.27c0-.26.046-.444.138-.553a.483.483 0 0 1 .389-.163c.182 0 .33.073.447.218.115.146.173.406.173.782v1.986h1.522zm1.32 4.128h1.424v-.675c.138.291.28.493.425.603.145.11.325.166.54.166.224 0 .469-.073.735-.217l-.47-1.129a1.128 1.128 0 0 1-.426.117.521.521 0 0 1-.463-.255c-.157-.242-.236-.693-.236-1.354V2.528h-1.53zm7.32 1.572h4.187V7.003h-2.486v-.996h2.122v-1.15h-2.122v-2.33h-1.7zm6.57-2.908-1.454.159c.055.264.134.473.238.624.103.151.251.283.446.394a1.8 1.8 0 0 0 .576.187c.243.044.507.066.792.066.455 0 .822-.026 1.098-.079.277-.053.508-.165.691-.333.13-.117.232-.282.308-.496a1.86 1.86 0 0 0 .11-.612V3.406c0-.193.014-.346.036-.457.025-.11.076-.25.156-.421h-1.427a1.597 1.597 0 0 0-.113.242 2.035 2.035 0 0 0-.052.264 1.935 1.935 0 0 0-.594-.428 2.392 2.392 0 0 0-.937-.171c-.474 0-.834.114-1.08.343a1.104 1.104 0 0 0-.368.842c0 .314.089.572.266.774.177.203.502.353.978.451.572.12.942.203 1.112.25.168.048.347.112.537.19 0 .194-.039.33-.115.408-.078.077-.214.116-.409.116-.248 0-.434-.042-.56-.125-.096-.064-.176-.186-.236-.364zm1.319-.832a6.922 6.922 0 0 0-.654-.208c-.308-.084-.504-.169-.587-.251a.405.405 0 0 1-.127-.292c0-.125.042-.226.125-.306.085-.078.207-.117.369-.117.169 0 .326.042.473.127a.773.773 0 0 1 .31.313c.061.124.091.284.091.48zm2.793 2.168h1.42v-.602c.206.252.411.43.62.537.207.106.459.16.753.16.316 0 .567-.059.75-.176.186-.116.336-.29.453-.521.239.269.457.453.654.55.197.097.44.146.73.146.426 0 .758-.13.997-.395.24-.263.359-.674.359-1.234V2.528h-1.525v2.351c0 .187-.035.327-.105.417-.102.142-.23.213-.381.213a.535.535 0 0 1-.434-.2c-.11-.137-.163-.353-.163-.652v-2.13h-1.526v2.275c0 .182-.01.305-.03.37a.514.514 0 0 1-.168.25.436.436 0 0 1-.281.096.531.531 0 0 1-.43-.206c-.112-.138-.168-.363-.168-.677V2.528h-1.525zm8.083 1.572h1.522V7.15h-1.522zm0-1.572h1.522V2.528h-1.522zm2.928 1.572h1.526v-5.7h-1.526zm2.572-1.572h1.606l.818-2.748.76 2.748h1.5l-1.576-4.412c-.178-.503-.362-.843-.549-1.018-.264-.25-.666-.374-1.207-.374-.22 0-.558.032-1.017.094l-.118 1.104a2.29 2.29 0 0 1 .731-.109.7.7 0 0 1 .436.128c.111.086.205.238.281.459zm9.05 1.572h3.17c.528 0 .934-.137 1.216-.409.283-.272.425-.61.425-1.01a1.31 1.31 0 0 0-.303-.868c-.135-.16-.331-.288-.59-.381.393-.098.682-.268.868-.507.186-.24.278-.541.278-.904 0-.295-.066-.561-.197-.797a1.506 1.506 0 0 0-.542-.56c-.142-.085-.357-.147-.643-.186a7.186 7.186 0 0 0-.76-.078h-2.923zm1.707-2.237h.737c.264 0 .447.048.552.142.104.096.155.233.155.41a.497.497 0 0 1-.155.39c-.105.094-.284.14-.54.14h-.749zm0-2.238h.864c.292 0 .498.053.616.16.12.108.18.252.18.434a.51.51 0 0 1-.177.406c-.118.102-.326.154-.623.154h-.86zm5.912 1.567-1.454.159c.055.264.134.473.238.624.103.151.251.283.447.394.138.08.33.144.575.187.243.044.508.066.792.066.456 0 .823-.026 1.099-.079.277-.053.507-.165.691-.333.13-.117.232-.282.308-.496.074-.214.11-.417.11-.612V3.406c0-.193.013-.346.036-.457.024-.11.076-.25.156-.421h-1.428a1.493 1.493 0 0 0-.112.242 1.995 1.995 0 0 0-.052.264c-.2-.2-.399-.343-.595-.428a2.395 2.395 0 0 0-.938-.171c-.473 0-.832.114-1.079.343a1.103 1.103 0 0 0-.367.842c0 .314.088.572.265.774.177.203.502.353.979.451.571.12.941.203 1.111.25.168.048.348.112.537.19 0 .194-.038.33-.115.408-.078.077-.213.116-.408.116-.25 0-.435-.042-.56-.125-.097-.064-.177-.186-.236-.364zm1.32-.832a6.882 6.882 0 0 0-.654-.208c-.309-.084-.505-.169-.587-.251a.405.405 0 0 1-.128-.292c0-.125.042-.226.125-.306.085-.078.207-.117.369-.117.17 0 .326.042.473.127.146.086.25.191.31.313.061.124.091.284.091.48zm2.781 2.168h1.417v-.671c.213.275.427.47.643.588.218.118.481.177.793.177.421 0 .75-.13.99-.39.236-.261.355-.663.355-1.207V2.528h-1.528v2.27c0 .26-.047.442-.139.55a.482.482 0 0 1-.389.161.543.543 0 0 1-.448-.217c-.114-.145-.172-.406-.172-.782V2.528h-1.522zm5.489 1.572h1.555v-2.94l1.137 1.368h1.873l-1.426-1.446 1.507-2.682h-1.716l-.804 1.656-.57-.583V2.528h-1.556zm5.492-4.114h1.627V2.528h-1.627zm9.848-.645h-1.93l-.264-.941h-1.73l2.058 5.7h1.847l2.06-5.7h-1.772zm-.355 1.232-.606 2.05-.602-2.05zm6.18-.56 1.446-.17a2.153 2.153 0 0 0-.392-.815 1.836 1.836 0 0 0-.698-.535c-.282-.126-.642-.19-1.077-.19-.421 0-.773.041-1.052.122-.28.082-.522.214-.723.396a1.964 1.964 0 0 0-.475.645c-.115.245-.172.571-.172.979 0 .424.069.778.21 1.061.101.207.24.393.418.558.177.165.358.287.545.367.297.128.676.191 1.14.191.648 0 1.142-.12 1.482-.362.34-.24.58-.593.716-1.058l-1.432-.197a.685.685 0 0 1-.245.398c-.118.09-.277.134-.477.134a.76.76 0 0 1-.611-.281c-.155-.189-.233-.473-.233-.854 0-.34.078-.597.232-.773a.747.747 0 0 1 .59-.264c.2 0 .367.053.504.159.134.106.237.269.304.49zm2.543 2.515h1.423v-.675c.139.291.28.493.425.603.146.11.326.166.54.166.224 0 .47-.073.736-.217l-.47-1.129c-.179.079-.322.117-.427.117a.522.522 0 0 1-.463-.255c-.156-.242-.236-.693-.236-1.354V2.528h-1.528zm3.702-2.075c0 .629.204 1.149.613 1.556.41.41.96.613 1.656.613.795 0 1.395-.24 1.8-.719.328-.386.491-.862.491-1.428 0-.634-.203-1.154-.607-1.56-.405-.405-.965-.608-1.68-.608-.639 0-1.153.169-1.547.506-.484.416-.726.963-.726 1.64zm1.525.004c0-.369.072-.641.216-.816a.668.668 0 0 1 .54-.265c.219 0 .398.087.54.26.14.175.21.452.21.837 0 .357-.07.623-.212.799a.657.657 0 0 1-.528.261.68.68 0 0 1-.549-.265c-.144-.178-.217-.449-.217-.811zm3.881-.914 1.51.148c.063-.187.15-.32.262-.4.112-.081.262-.121.45-.121.203 0 .361.045.474.136.087.067.13.151.13.252 0 .115-.058.202-.17.265-.084.043-.302.098-.656.163-.527.097-.895.184-1.1.266a1.17 1.17 0 0 0-.52.415 1.09 1.09 0 0 0-.21.664c0 .273.075.507.227.704.152.198.361.345.627.442.267.097.625.146 1.073.146.473 0 .823-.039 1.05-.113.225-.075.412-.192.563-.35.15-.158.276-.372.376-.641l-1.443-.149a.511.511 0 0 1-.187.292.732.732 0 0 1-.434.124c-.17 0-.297-.031-.375-.095a.287.287 0 0 1-.117-.23c0-.103.05-.178.15-.23.099-.052.315-.098.65-.141.505-.06.881-.142 1.127-.248a1.24 1.24 0 0 0 .567-.455 1.14 1.14 0 0 0 .196-.65c0-.238-.069-.47-.207-.696-.139-.226-.357-.405-.654-.537-.298-.134-.704-.2-1.217-.2-.725 0-1.242.106-1.549.322-.308.215-.505.521-.593.917zm5.06 0 1.51.148c.062-.187.149-.32.261-.4.112-.081.26-.121.45-.121.203 0 .361.045.473.136.087.067.13.151.13.252 0 .115-.057.202-.17.265-.083.043-.301.098-.655.163-.528.097-.895.184-1.101.266a1.18 1.18 0 0 0-.52.415 1.096 1.096 0 0 0-.21.664c0 .273.076.507.228.704.152.198.361.345.627.442.267.097.624.146 1.073.146.473 0 .822-.039 1.049-.113.226-.075.413-.192.563-.35.152-.158.276-.372.377-.641l-1.443-.149a.513.513 0 0 1-.187.292.733.733 0 0 1-.434.124c-.17 0-.297-.031-.375-.095a.285.285 0 0 1-.117-.23c0-.103.05-.178.148-.23.1-.052.317-.098.651-.141.506-.06.882-.142 1.128-.248.248-.106.436-.258.567-.455.131-.197.196-.413.196-.65 0-.238-.07-.47-.207-.696-.139-.226-.357-.405-.654-.537-.298-.134-.704-.2-1.217-.2-.725 0-1.242.106-1.549.322a1.455 1.455 0 0 0-.593.917zm8.942 4.557h1.696v-5.7h-1.696zm3.193-1.572h1.417v-.671c.213.275.427.47.643.588.217.118.482.178.793.178.421 0 .75-.132.989-.392.237-.26.355-.662.355-1.206V2.528h-1.528V4.8c0 .258-.046.442-.138.55a.483.483 0 0 1-.389.16.543.543 0 0 1-.448-.217c-.114-.145-.172-.406-.172-.782V2.528h-1.522zm9.668 1.572v-5.7h-1.423v.61c-.201-.258-.382-.433-.547-.525a1.52 1.52 0 0 0-.732-.178c-.54 0-.955.214-1.24.64-.284.429-.427.948-.427 1.56 0 .685.156 1.208.472 1.57.316.364.716.546 1.201.546a1.48 1.48 0 0 0 1.16-.498v1.975zm-1.526-3.624c0 .325-.065.566-.198.725a.619.619 0 0 1-.5.24.547.547 0 0 1-.445-.23c-.12-.153-.18-.409-.18-.77 0-.337.062-.584.185-.74a.564.564 0 0 1 .458-.235c.195 0 .357.078.486.236.13.16.194.416.194.774zm2.891 3.624h1.522V7.151h-1.522zm0-1.572h1.522V2.528h-1.522zm4.263-1.336-1.453.16c.055.264.134.472.237.623.104.152.252.283.447.394.139.081.331.144.575.187.244.044.508.067.792.067.456 0 .823-.027 1.099-.08.277-.053.508-.165.691-.333a1.18 1.18 0 0 0 .308-.495c.074-.215.11-.418.11-.613V3.406c0-.193.014-.346.036-.456.025-.11.076-.25.157-.422h-1.429a1.597 1.597 0 0 0-.112.242 1.995 1.995 0 0 0-.052.264 1.94 1.94 0 0 0-.595-.428 2.39 2.39 0 0 0-.937-.171c-.473 0-.833.114-1.08.343a1.103 1.103 0 0 0-.367.842c0 .315.088.572.265.774.178.203.503.353.979.451.572.12.942.203 1.111.25.17.049.349.113.538.19 0 .194-.04.33-.115.408-.078.077-.214.117-.41.117-.248 0-.434-.042-.559-.125-.097-.065-.176-.187-.236-.365zm1.32-.832a6.89 6.89 0 0 0-.654-.207c-.308-.085-.505-.17-.587-.252a.405.405 0 0 1-.127-.292c0-.125.042-.226.125-.305.084-.079.207-.118.368-.118.17 0 .327.042.474.127a.772.772 0 0 1 .31.313c.06.124.09.284.09.48zm2.786-.374h1.627V2.528h-1.627z" style="fill:#853a93;fill-opacity:1;fill-rule:nonzero;stroke:none;stroke-width:.99999994" transform="matrix(1.33333 0 0 -1.33333 0 74.392)"/><path d="m42.315 16.967-3.68 5.984-3.61-5.984zm-.007 18.56H34.98l3.652-5.865zM25.15 44.84l-3.63-5.952h7.29zM8.073 35.527l3.623-5.9 3.606 5.9zm-.004-18.61 7.239.045-3.61 5.931zM1.879 38.89H17.43l7.315 11.953.463.756.462-.756 7.316-11.953h15.552l-.463-.752-7.314-11.875 7.316-11.96.46-.753H32.986L25.671 1.624 25.21.87l-.463.754-7.315 11.925H1.88l.46.752 7.315 11.96-7.314 11.876zm17.587-3.474-5.893-9.156 5.893-9.236h11.485l5.893 9.236-5.893 9.156zm5.737-27.768 3.61 5.902h-7.285zm-.417 22.51a4.298 4.298 0 0 0 2.95-1.154v.002c.755-.71 1.224-1.691 1.224-2.772 0-1.079-.47-2.06-1.225-2.77v-.002a4.3 4.3 0 0 0-2.949-1.151c-1.15 0-2.193.44-2.948 1.15h.002c-.758.713-1.227 1.694-1.227 2.773 0 1.078.468 2.06 1.224 2.77l.002.003-.002-.002.002.002a4.296 4.296 0 0 0 2.947 1.151" style="fill:#853a93;fill-opacity:1;fill-rule:evenodd;stroke:none;stroke-width:.99999994" transform="matrix(1.33333 0 0 -1.33333 0 74.392)"/></svg>