<svg xmlns="http://www.w3.org/2000/svg" xml:space="preserve" width="62.215" height="67.637"><path d="m42.315 16.967-3.68 5.984-3.61-5.984zm-.007 18.56H34.98l3.652-5.865zM25.15 44.84l-3.63-5.952h7.29zM8.073 35.527l3.623-5.9 3.606 5.9zm-.004-18.61 7.239.045-3.61 5.931zM1.879 38.89H17.43l7.315 11.953.463.756.462-.756 7.316-11.953h15.552l-.463-.752-7.314-11.875 7.316-11.96.46-.753H32.986L25.671 1.624 25.21.87l-.463.754-7.315 11.925H1.88l.46.752 7.315 11.96-7.314 11.876zm17.587-3.474-5.893-9.156 5.893-9.236h11.485l5.893 9.236-5.893 9.156zm5.737-27.768 3.61 5.902h-7.285zm-.417 22.51a4.298 4.298 0 0 0 2.95-1.154v.002c.755-.71 1.224-1.691 1.224-2.772 0-1.079-.47-2.06-1.225-2.77v-.002a4.3 4.3 0 0 0-2.949-1.151c-1.15 0-2.193.44-2.948 1.15h.002c-.758.713-1.227 1.694-1.227 2.773 0 1.078.468 2.06 1.224 2.77l.002.003-.002-.002.002.002a4.296 4.296 0 0 0 2.947 1.151" style="fill:#853a93;fill-opacity:1;fill-rule:evenodd;stroke:none;stroke-width:1" transform="matrix(1.33333 0 0 -1.33333 -2.504 68.797)"/></svg>