<svg xmlns="http://www.w3.org/2000/svg" xmlns:xlink="http://www.w3.org/1999/xlink" width="235" height="83"><defs><path id="a" d="M0 83h235V0H0z"/></defs><g fill="none" fill-rule="evenodd"><path fill="#9D1D27" d="M0 83h235V0H0z"/><path fill="#FEFEFE" d="M17.966 17.963h47.07V65.04H17.964l.002-47.076ZM69 14.003 14 14v55h55V14.002Z"/><path fill="#FEFEFE" d="M23 32h37v-9H23zm0 28h9v-9h-9zm0-14h23v-9H23zm60-4h4V23h-4zm11.183-15.79v12.158h3.38c3.715 0 4.567-1.419 4.567-6.144 0-5.033-.543-6.014-4.98-6.014h-2.967Zm3.896-3.176c5.831 0 7.92 2.529 7.92 9.163 0 6.378-2.217 9.347-7.947 9.347h-7.687v-18.51h7.714Zm10.887 0h13.002v3.176h-9.184v4.337h8.024v3.175h-8.024v7.822h-3.818zm30.804 12.417c-.258 3.614-2.271 6.506-7.972 6.506-5.573 0-8.385-2.762-8.385-9.578 0-6.66 2.658-9.758 8.41-9.758 4.542 0 7.328 1.936 7.947 6.17h-3.818c-.44-1.651-.98-2.918-4.13-2.918-3.146 0-4.54 1.886-4.54 6.843 0 3.845 1.033 5.99 4.592 5.99 2.557 0 3.769-.802 4.078-3.255h3.818Zm10.165-12.417h13.003v3.176h-9.186v4.337h8.026v3.175h-8.026v7.822h-3.817z"/><mask id="b" fill="#fff"><use xlink:href="#a"/></mask><path fill="#FEFEFE" d="M165.414 41.544h3.818V23.035h-3.818zm11.223-15.334v4.878h3.432c3.07 0 4.1-.308 4.1-2.633 0-1.859-.644-2.245-3.869-2.245h-3.663Zm-3.818-3.176h8.024c3.842 0 7.198.103 7.198 5.55 0 3.613-1.497 4.956-3.612 5.448l4.824 7.512h-4.644l-4.54-7.28h-3.432v7.28h-3.818v-18.51Zm21.259 12.702c.154 1.936.44 2.969 4.102 2.969 1.935 0 3.353-.285 3.353-2.17 0-1.134-.516-1.754-2.14-2.194l-4.49-1.212c-2.244-.593-4.232-1.678-4.232-5.06 0-2.66 1.214-5.448 6.941-5.448 5.443 0 7.146 2.53 7.225 5.834h-3.82c-.182-1.547-.258-2.583-3.562-2.583-1.932 0-2.913.364-2.913 1.835 0 1.343.8 1.73 1.883 2.015l4.128 1.11c2.632.695 4.85 1.728 4.85 5.418 0 5.217-4.462 5.707-7.223 5.707-6.037 0-7.689-2.376-7.92-6.221h3.818Zm17.801-9.449h-5.572v-3.252h14.936v3.252h-5.546v15.255h-3.818zM86.779 61.16v4.878h3.431c3.483 0 4.256-.256 4.256-2.373 0-2.221-.721-2.505-3.508-2.505h-4.18Zm0-7.278v4.103h4.282c2.298 0 2.864-.283 2.864-2.194 0-1.548-.362-1.91-3.585-1.91h-3.56Zm5.211-3.176c3.638 0 5.624 1.29 5.624 4.802 0 2.865-1.315 3.458-2.114 3.793 2.27.878 2.837 2.634 2.837 4.57 0 3.046-1.394 5.343-6.502 5.343h-8.874V50.706h9.029Zm16.899 12.236-2.503.413c-1.367.207-2.347.49-2.347 1.936 0 1.033.514 1.601 2.114 1.601 2.193 0 2.736-1.188 2.736-2.865v-1.085Zm-8.024-3.2c.18-3.513 2.19-4.467 5.856-4.467 3.766 0 5.752 1.006 5.752 3.975v9.964h-3.43v-1.033c-.697.723-2.013 1.37-4.179 1.37-3.252 0-4.412-1.446-4.412-3.768 0-3.02 1.96-4.157 3.948-4.467l4.489-.699v-.824c0-1.266-.647-1.628-2.323-1.628-1.78 0-2.141.413-2.321 1.576h-3.38Zm23.528 1.651c0-2.09-.025-3.175-2.32-3.175-2.557 0-2.84 1.343-2.84 4.543v6.454h-3.586V55.61h3.407v1.756c.978-1.318 2.038-2.09 4.54-2.09 3.483 0 4.386 1.495 4.386 5.627v8.312h-3.587v-7.822Zm7.044-10.687h3.587v9.937l4.41-5.033h4.412l-4.746 5.163 4.928 8.442h-4.154l-3.302-5.911-1.548 1.6v4.311h-3.587z" mask="url(#b)"/></g></svg>