<svg xmlns="http://www.w3.org/2000/svg" width="293" height="53.11" viewBox="0 0 234.4 42.488"><path d="M287.66 35.86c37.5 35.45 75.01 70.88 112.52 106.31-3.41 3.51-6.89 6.95-10.34 10.41-33.99-32.1-67.99-64.2-101.95-96.34-33.16 33.28-66.69 66.18-99.87 99.44-3.54-3.41-7.17-6.74-10.71-10.17 28.57-28.5 57.31-56.82 85.84-85.37 8.39-7.86 16.4-16.13 24.51-24.28z" style="fill:#013cc8;fill-opacity:1" transform="translate(-3.575 -2.752) scale(.09499)"/><path d="M195.95 161.92c30.82-30.66 61.95-61 92.8-91.62 31.46 29.57 62.81 59.26 94.26 88.83-3.46 3.46-6.93 6.92-10.38 10.4-27.83-26.32-55.66-52.64-83.64-78.79-27.39 27.08-54.9 54.02-82.23 81.16-3.67-3.26-7.22-6.65-10.81-9.98z" style="fill:#013cc8;fill-opacity:1" transform="translate(-3.575 -2.752) scale(.09499)"/><path d="M213.73 178.88c24.83-24.58 49.95-48.87 74.71-73.53 25.38 23.5 50.53 47.23 75.85 70.78-3.47 3.46-6.94 6.92-10.4 10.4-21.66-20.27-43.42-40.42-65.06-60.71-21.54 20.96-42.93 42.09-64.38 63.15-3.6-3.33-7.11-6.77-10.72-10.09zm755.64-34.31c8.21-3.16 17.42 3.25 18.98 11.51 2.36 8.43-2.51 18.76-11.39 20.75-7.51 1.93-15.18-3.63-17.2-10.79-2.91-8.14 1.28-18.51 9.61-21.47zm346.7.64c11.95-.39 24.31.31 35.32 5.4 15.85 6.97 27.76 21.08 34.22 36.92 6.05 15.31 7.07 32.34 4.41 48.48-2.96 17.74-12.01 34.64-25.77 46.3-16.78 14.05-40.59 16.78-61.34 11.77-15.53-3.67-28.96-14.05-37.42-27.45-11.96-17.82-15.01-40.33-12.1-61.27 2.33-15.97 9.79-31.26 21.51-42.44 10.7-11.03 25.81-17.47 41.17-17.71m.41 7.42c-7.8 1.53-14.22 7.03-18.2 13.74-6.12 9.77-8.43 21.32-9.76 32.62-1.03 11.24-1.7 22.56-.68 33.82.66 11.71 2.33 23.55 6.86 34.45 3.02 7.04 7.32 14.08 14.25 17.85 5.79 3.3 12.74 3.33 19.18 2.53 8.22-1.48 14.64-7.85 18.52-14.96 6.07-11.21 8.22-24.04 9.14-36.62.07-7.37 1.06-14.73.26-22.09-.1-11.18-.89-22.46-3.75-33.3-2.51-8.22-6.05-16.62-12.72-22.34-6.23-5.47-15.07-7.33-23.1-5.7zm-949.33 31.5c12.91-12.29 25.3-25.12 37.96-37.67 37.43 35.53 74.97 70.93 112.49 106.36-3.44 3.43-6.89 6.85-10.28 10.33-34.04-31.93-67.93-64.03-101.79-96.15-33.6 32.88-66.72 66.25-100.16 99.3-3.49-3.46-7.1-6.78-10.69-10.13 24.19-23.98 48.39-47.95 72.47-72.04zM655.84 147H725c-.01 1.38-.01 2.76 0 4.14-5.2 0-11.38-.56-15.33 3.54-3.75 3.76-3.34 9.47-3.51 14.36.01 34.68-.04 69.36.03 104.04.24 4.42-.08 9.88 3.87 12.87 4.08 3.67 9.86 3.05 14.94 3.06-.01 1.33-.01 2.66 0 3.99h-69.16v-3.98c5.08-.03 10.92.55 14.99-3.16 4-3.91 3.35-10 3.76-15.11.18-24.23.02-48.47.07-72.7-.11-11 .27-22.02-.27-33.01-.32-3.55-.26-7.7-3.28-10.18-3.95-4.13-10.03-3.8-15.27-3.73V147zM891 147h40.33c0 39.66.02 79.32-.01 118.98.06 4.41-.2 9.02 1.52 13.18 1.55 3.66 5.86 4.25 9.3 4.92 0 1.25.01 2.5.03 3.75-12.54 2.56-25.02 5.4-37.53 8.07.03-5.26.05-10.51-.02-15.76-4.38 5.37-8.72 11.35-15.36 14.03-10.79 4.33-23.87.6-31.43-8.05-9.76-10.84-13.4-25.87-13.4-40.15-.37-14 2.47-28.42 10.01-40.38 6.78-10.73 19.78-17.91 32.61-15.62 7.38 1.1 12.85 6.64 17.62 11.93-.06-11.86.08-23.72-.06-35.57-.29-4.04.01-8.75-3.04-11.87-2.63-3-6.97-2.68-10.57-3.04-.01-1.47-.02-2.95 0-4.42m-6.72 53.45c-6.19 2.02-8.16 9.08-9.75 14.68-2.79 14.12-2.46 28.69-1.19 42.97.71 6.55 2.22 13.19 5.59 18.93 1.69 2.91 4.44 5.64 7.99 5.81 5.61.65 10.3-3.46 13.31-7.74 2.05-3.04 4.8-6.17 4.46-10.09-.04-14.35-.05-28.69 0-43.03-.03-3.36.48-7.03-1.66-9.91-3.69-6.61-10.51-13.4-18.75-11.62zM2048.67 147h36.39c15.23.05 30.53-.41 45.7 1.33 8.14.9 16.17 4.03 22.09 9.83 6.95 7.03 11.21 16.91 10.72 26.87-.02 8.89-4.68 17.55-11.97 22.59-5.62 4.09-12.3 6.26-18.85 8.31 7.64 2.38 15.53 4.5 22.32 8.9 8.18 5.27 13.83 14.45 14.42 24.22.27 5.58.2 11.36-1.83 16.64-3.13 9-10.32 16.1-18.67 20.4-9.22 4.8-19.7 6.47-29.97 6.91h-70.35c-.03-1.32-.03-2.63-.01-3.94 5.04-.23 10.99.4 14.9-3.5 3.58-3.11 3.31-8.26 3.45-12.57-.03-35.67.02-71.34-.03-107.01-.14-3.76-.13-8.09-3.01-10.93-3.97-4.04-10.09-3.78-15.31-3.97-.02-1.36-.02-2.72.01-4.08m49.35 8.26c-.04 12.25-.03 24.49-.01 36.74.13 7.02-.75 14.02-.45 21.04 7.94-.05 16.63-.26 23.27-5.24 7.3-5.02 10.44-14.22 10.2-22.79.42-8.51-1.73-17.87-8.57-23.5-6.71-5.79-16.06-5.94-24.44-6.25m-.46 66.06c-.08 16.9.19 33.82-.2 50.72.07 2.96.32 6.08 1.86 8.7 1.52 2.67 4.67 4.01 7.67 4.08 8.52.33 17.33-3.62 22.08-10.84 5.65-8.45 6.79-19.27 4.82-29.09-1.35-7.95-5.35-16.11-12.84-19.86-7.27-3.4-15.52-3.7-23.39-3.71zm293.1-74.32h36.67c.04 31.9-.07 63.79.06 95.69 7.59-8.18 14.71-16.78 22.35-24.92 3.09-3.49 6.73-7.02 7.53-11.83.62-2.5-.08-5.39-2.16-7-2.37-1.74-5.38-2.07-8.11-2.8-.03-1.24-.03-2.47.01-3.71 13.66.02 27.32.02 40.98 0-.03 1.23-.03 2.46.01 3.69-4.35.64-8.84 1.67-12.23 4.64-9.07 7.64-16.73 16.74-24.64 25.52 10.22 16.94 20.05 34.12 30.75 50.77 3.29 5.25 6.85 11.51 13.71 12.28-.04 1.21-.06 2.44-.04 3.66-15.52.02-31.04.01-46.55.01-.03-1.24-.03-2.47 0-3.7 2.19-.39 5.07-.81 5.83-3.35.29-3.44-1.97-6.36-3.45-9.27-6.07-10.07-12.16-20.12-18.23-30.18-1.96 2.11-3.89 4.24-5.82 6.37.39 10.33-1.01 20.85 1.27 31.04 1.03 3.82 5.39 4.68 8.74 5.36-.03 1.24-.03 2.48-.01 3.73h-46.67c-.03-1.24-.03-2.48 0-3.71 3.44-.77 7.85-1.85 8.86-5.8 1.48-7.07 1.07-14.34 1.15-21.51-.01-30.66-.01-61.32 0-91.98-.13-4.73-.06-9.61-1.55-14.15-1.33-3.44-5.36-4.02-8.44-4.94a72.87 72.87 0 0 1-.02-3.91zM116.79 200.81c16.75-16.98 33.87-33.56 50.71-50.45 37.45 35.49 75.05 70.85 112.49 106.36-3.44 3.45-6.88 6.89-10.33 10.33-33.97-32.07-67.97-64.13-101.86-96.29-19.94 19.74-39.94 39.41-59.72 59.31-13.69 13.11-26.7 26.91-40.45 39.96-3.49-3.39-7.08-6.65-10.59-10.01 11.58-11.75 23.49-23.17 35.11-34.88 8.18-8.14 16.23-16.43 24.64-24.33z" style="fill:#013cc8;fill-opacity:1" transform="translate(-3.575 -2.752) scale(.09499)"/><path d="M313.35 272.44c30.91-30.44 61.79-60.92 92.75-91.31 3.08 2.08 5.5 5 8.27 7.46 28.7 27.02 57.29 54.16 86.1 81.06-3.47 3.5-6.96 6.98-10.45 10.47-27.75-26.35-55.72-52.47-83.47-78.82-27.48 27.06-55.01 54.08-82.4 81.25-3.68-3.28-7.21-6.73-10.8-10.11zM168.58 184.7c31.35 29.71 62.86 59.25 94.25 88.91-3.49 3.43-6.88 6.96-10.46 10.28-27.85-26.26-55.72-52.49-83.57-78.74-27.4 27.12-54.97 54.06-82.38 81.18-3.41-3.44-7.31-6.4-10.39-10.15 22.3-22.72 45.38-44.66 67.86-67.2 8.36-7.97 16.33-16.32 24.69-24.28zm602.78 20.96c6.79-7.97 15.45-16.22 26.67-16.05 9.39-.78 17.97 5.81 21.31 14.3 3.03 7.64 2.84 16.04 3 24.12 0 15.34-.02 30.68 0 46.03.12 3.62.28 7.35 1.55 10.78 1.58 3.14 5.37 3.71 8.45 4.44-.01 1.23-.01 2.47 0 3.72-15.3 0-30.6.01-45.9-.01-.02-1.22-.03-2.44-.02-3.66 2.77-.83 5.92-1.8 7.34-4.59 1.75-3.6 1.66-7.78 1.89-11.7 0-17.32.07-34.65-.04-51.98-.37-4.91.2-10.55-3.22-14.56-2.32-2.79-6.48-3.06-9.61-1.63-4.91 2.17-8.09 6.79-10.71 11.27-.93 1.44-.71 3.21-.77 4.84.09 18.03 0 36.07.04 54.1.15 3.32.34 6.78 1.68 9.87 1.36 2.79 4.53 3.67 7.31 4.33-.01 1.23 0 2.47.01 3.72-15.3 0-30.6.01-45.9-.01-.02-1.24-.03-2.48-.03-3.72 3.34-.7 7.42-1.59 8.88-5.1.95-3.28 1.07-6.74 1.16-10.13-.02-18.33-.01-36.67-.01-55-.01-5.74.3-11.58-1.09-17.2-1.02-3.97-5.53-4.77-8.89-5.72-.03-1.24-.05-2.47-.06-3.7 12.32.05 24.64.01 36.96.01-.04 4.41-.04 8.82 0 13.23zm252.58-7.8c9.34-6.24 20.88-8.75 32.02-8.19 7.42.18 14.96 2.84 20.17 8.27 4.84 4.33 8.08 10.5 8.09 17.08.69 16.31.18 32.65.34 48.98.08 4.61-.44 9.32.79 13.84.36 1.88 2.65 2.13 3.98 3.13 1.48-1.42 2.92-2.89 4.33-4.39.89.85 1.77 1.71 2.69 2.57-3.73 5.97-8.26 12.36-15.38 14.41-6.26 1.61-14 1.28-18.65-3.79-3.02-3.05-3.82-7.43-4.75-11.44-6.12 5.89-12.82 11.59-20.92 14.52-5.88 2.06-12.93 2.45-18.26-1.24-7.05-4.68-9.63-14.11-7.85-22.11 1.42-8.34 7.04-15.27 13.66-20.23 10.43-7.91 22.05-14.05 33.66-20.03-.34-7.99.65-16.19-1.3-24.02-3.33-8.73-15.8-9.63-22.13-3.78-1.4 1.36-2.57 3.52-1.6 5.46 1.69 3.83 5.17 6.76 5.96 11.02 1.54 7.42-5.21 15.01-12.75 14.47-7.34.37-14.2-6.05-14.25-13.38-.05-8.57 5.23-16.45 12.15-21.15m12.68 64.24c-1.03 5.84 2.49 14.18 9.37 13.93 4.7.32 8.56-2.8 11.89-5.71-.11-11.21.03-22.42-.07-33.64-9.27 6.02-18.94 14.04-21.19 25.42zm124.36-71.12c7.87-2.66 17.6-1.78 23.6 4.45 6.77 6.23 8.34 15.85 8.59 24.62.36 14.64.07 29.29.17 43.94.1 6.73-.55 13.61 1.28 20.17 1.22 3.65 5.44 4.38 8.72 5.12-.02 1.23-.02 2.47 0 3.72-15.3 0-30.6.01-45.9-.01-.02-1.22-.03-2.44-.02-3.66 2.78-.84 5.95-1.81 7.36-4.62 1.63-3.32 1.58-7.17 1.85-10.78.09-15.3 0-30.6.04-45.9-.07-5.9.16-11.9-1.15-17.68-1.06-4.07-5.2-7.29-9.49-6.16-6.5 1.51-10.68 7.56-13.5 13.18-.47 15.52-.06 31.08-.19 46.62.16 6.77-.7 13.76 1.39 20.33 1.15 3.18 4.59 4.3 7.6 4.95-.01 1.24-.01 2.48.01 3.73-15.3 0-30.6.01-45.89-.01-.03-1.24-.04-2.48-.04-3.71 3.34-.71 7.47-1.61 8.9-5.17.93-3.27 1.05-6.72 1.14-10.1-.02-18.32-.01-36.64-.01-54.96-.02-5.73.29-11.56-1.08-17.17-1-4.01-5.53-4.8-8.9-5.76a114.6 114.6 0 0 1-.06-3.7c12.32.05 24.64.01 36.96.01-.04 4.41-.04 8.82 0 13.23 5.25-5.92 10.92-12.07 18.62-14.68zm363.22 5.21c7.85-5.9 18.39-8.12 27.91-5.59 7.87 2.21 14.09 8.16 18.53 14.81 6.35 10.02 8.04 22.12 8.61 33.74-16.77.01-33.55 0-50.32.01.58 12.07 3.38 24.93 11.91 34 4.82 5.43 12.93 8.11 19.87 5.43 7.21-2.45 11.35-9.37 15.17-15.49 1.09.97 2.22 1.95 3.36 2.93-3.61 7.69-7.79 15.35-14.07 21.2-13.35 12.53-36.99 11.52-49.05-2.33-11.46-13.3-13.75-31.9-12.41-48.81.99-15.34 7.88-30.68 20.49-39.9m10.08 6.07c-5.31 8.86-5.83 19.51-5.99 29.58 9.06.01 18.12 0 27.19 0-.53-8.83.23-18.06-2.92-26.49-1.67-3.97-4.65-8.84-9.61-8.4-3.77-.45-6.92 2.24-8.67 5.31zm108.31-6.72c4.26-3.56 9.64-6.4 15.37-5.9 5.49.06 9.65 5.22 10.22 10.39.49 5.15.4 10.92-2.99 15.16-2.48 3.24-7 4.6-10.88 3.38-4.11-1-6.43-4.89-9.79-7.11-2.92-1.78-6.38.4-8.35 2.63-5.7 6.52-6.71 15.56-7.81 23.81-.58 12.03 0 24.08-.22 36.13.11 4.12-.5 8.95 2.63 12.21 2.32 2.58 6.05 2.52 9.23 2.92-.02 1.28-.02 2.56 0 3.84-16.19 0-32.37.01-48.55-.01a92.48 92.48 0 0 1-.04-3.72c3.6-.64 8.23-1.8 8.8-6.14 1.37-7.3 1.24-14.8 1.23-22.2-.03-16.31.06-32.63-.04-48.94-.44-4.06.08-8.55-2.2-12.13-1.64-2.68-5.06-2.86-7.75-3.72-.04-1.24-.06-2.49-.05-3.72 12.03.03 24.07.04 36.11-.01.43 7.55.61 15.1.49 22.66 4.18-6.96 8.44-14.09 14.59-19.53zm43.12 3.21c5.12-6.8 13.95-9.76 22.24-9.1 6.31 0 11.72 3.52 17.21 6.17 2.81-1.1 4.72-3.44 6.25-5.94l3.06-.08c1.01 11.41.67 22.89 1.62 34.31-.88.03-2.63.11-3.5.15-3.45-7.94-6.77-16.5-13.72-22.08-3.97-3.21-9.51-5.67-14.57-3.74-3.58 1.68-6.39 5.53-5.99 9.6.03 2.78 1.8 5.11 3.66 7.02 8.03 8.4 18.29 14.19 26.62 22.27 5.51 4.91 10.15 11.21 11.45 18.62 2.19 12.57-1.59 27.11-12.32 34.82-7.02 5.08-16.42 6.53-24.64 3.81-4.26-1.05-8.14-3.23-12.36-4.35-3.2-.66-4.62 2.97-6.09 5.06-.77.03-2.32.09-3.1.11-.84-11.98-1.19-24-1.83-35.99 1.1.01 2.24.03 3.39.06 2.7 8.25 6.5 16.53 13.24 22.29 4.05 3.45 9.16 6.51 14.7 5.88 3.92-.41 7.24-3.49 8.37-7.22 1.32-4.66.06-9.97-3.35-13.45-5.35-5.72-12.04-9.9-18.01-14.91-5.79-4.85-11.98-9.64-15.67-16.38-6.43-11.48-5-26.76 3.34-36.93zm89.49-2.56c7.86-5.91 18.42-8.12 27.95-5.58 7.62 2.14 13.66 7.83 18.08 14.19 6.69 10.11 8.45 22.49 9.02 34.35-16.77.01-33.55 0-50.32.01.45 9.59 2.29 19.41 7.22 27.78 3.18 5.27 7.68 10.3 13.83 11.97 6.03 1.92 12.89-.08 17.41-4.4 3.44-3.3 6-7.37 8.49-11.41 1.08.97 2.22 1.95 3.36 2.93-3.61 7.69-7.8 15.36-14.09 21.21-13.7 12.87-38.21 11.39-49.95-3.42-11.09-13.86-12.96-32.64-11.31-49.74 1.38-14.66 8.27-29.07 20.31-37.89m10.07 6.09c-5.3 8.86-5.82 19.5-5.98 29.55 9.06.03 18.12.01 27.19.01-.52-8.85.23-18.1-2.94-26.54-1.66-3.92-4.6-8.75-9.51-8.35-3.81-.48-7 2.22-8.76 5.33zm68.76-2.18c6.95-5.95 15.99-8.85 24.92-10.14 8.69-.8 18.18-.67 25.73 4.32 4.26 3.04 8.17 6.87 10.48 11.63 2.57 5.34 2.04 11.4 2.37 17.14.07 13.97.01 27.95.02 41.92.05 4.26-.36 8.62.78 12.8.32 1.93 2.62 2.19 3.99 3.2a138.9 138.9 0 0 0 4.35-4.4c.87.87 1.75 1.73 2.68 2.6-3.83 6.12-8.52 12.67-15.91 14.55-5.96 1.33-13.12 1.05-17.69-3.52-3.32-3.06-4.25-7.66-5.18-11.87-6.12 5.88-12.81 11.58-20.9 14.51-5.66 1.97-12.39 2.46-17.66-.83-5.83-3.47-8.89-10.34-9.01-16.95 0-6.19 1.97-12.4 5.71-17.36 3.94-5.39 9.44-9.33 14.92-13.03 8.74-5.73 17.95-10.69 27.24-15.47-.01-5.76-.11-11.53-.26-17.29-.2-3.8-.67-8.11-3.79-10.72-4.68-4.69-12.4-4.21-17.78-1.06-2.13 1.38-4.36 3.98-3.25 6.67 1.67 3.91 5.25 6.87 6.02 11.21 1.46 7.38-5.24 14.89-12.74 14.38-7.35.4-14.25-6.05-14.28-13.41-.08-7.3 3.87-14.14 9.24-18.88m18.38 54.26c-2.41 4.35-4.06 9.72-2.13 14.57 1.18 3.32 3.7 6.91 7.58 7.04 5.09.79 9.46-2.45 13.03-5.66-.13-11.21.02-22.42-.08-33.63-7.25 4.54-13.96 10.29-18.4 17.68zm75.27-56.74c5.19-6.1 13.52-8.54 21.33-7.97 6.29.02 11.67 3.53 17.14 6.17 2.81-1.09 4.73-3.42 6.25-5.94l3.07-.08c1.02 11.41.66 22.89 1.62 34.32l-3.53.12c-3.41-7.94-6.75-16.47-13.67-22.05-3.98-3.23-9.57-5.7-14.64-3.73-5.64 2.36-8.1 10.33-3.71 14.98 10.5 11.92 25.83 18.76 35.14 31.86 4.92 7.18 5.74 16.35 4.35 24.75-1.29 6.63-4.11 13.19-9.03 17.95-6.67 6.64-16.95 9.57-26.06 7.05-4.89-.99-9.3-3.4-14.05-4.78-3.28-.85-4.79 2.89-6.27 5.03-.77.02-2.31.07-3.08.09-.86-11.98-1.19-23.99-1.84-35.98 1.1.01 2.23.03 3.39.05 2.7 8.23 6.47 16.5 13.18 22.25 4.07 3.48 9.22 6.58 14.8 5.93 5.15-.56 9.01-5.61 8.81-10.68.21-3.94-1.53-7.79-4.31-10.51-5.47-5.61-12.15-9.81-18.09-14.85-5.99-5.01-12.38-10.08-15.82-17.28-5.85-11.77-3.79-26.94 5.02-36.7zm248.83 2.95c7-6.28 16.3-9.29 25.47-10.62 8.67-.79 18.13-.66 25.66 4.31 4.28 3.03 8.19 6.87 10.52 11.64 2.56 5.32 2.04 11.38 2.37 17.11.06 16.02.02 32.04.01 48.06-.01 2.28.18 4.59.81 6.8.39 1.86 2.63 2.1 3.98 3.09 1.48-1.42 2.91-2.88 4.34-4.39.87.87 1.74 1.73 2.68 2.6-3.82 6.11-8.51 12.65-15.89 14.54-5.95 1.33-13.09 1.07-17.67-3.47-3.35-3.06-4.29-7.68-5.22-11.91-6.13 5.89-12.84 11.6-20.95 14.53-5.44 1.87-11.83 2.41-17-.5-4.35-2.34-7.41-6.67-8.72-11.36-1.96-6.78-.53-14.2 2.84-20.28 4.03-7.13 10.84-12.02 17.52-16.47 8.55-5.51 17.48-10.41 26.57-14.98.06-5.78-.08-11.56-.22-17.34-.19-3.84-.68-8.18-3.85-10.79-4.51-4.5-11.82-4.13-17.12-1.37-2.38 1.34-4.97 4.04-3.88 6.98 1.68 3.94 5.29 6.92 6.06 11.29 1.43 7.42-5.32 14.91-12.84 14.35-6.96.32-13.48-5.45-14.13-12.35-.54-7.42 3.33-14.53 8.66-19.47m17.03 57.9c-2.36 5.69-.88 13.2 4.42 16.69 5.51 2.54 11.75-.57 15.59-4.66.68-11.23.13-22.55.26-33.82-8.38 5.37-16.6 12.27-20.27 21.79zm123.4-67.48c7.87-2.67 17.62-1.8 23.63 4.44 6.75 6.21 8.34 15.8 8.6 24.54.39 18.35.03 36.7.19 55.05.16 3.32.34 6.74 1.56 9.87 1.59 3.1 5.35 3.66 8.42 4.39a76.89 76.89 0 0 0 0 3.72c-15.31 0-30.61.01-45.9-.01-.04-1.22-.05-2.44-.03-3.66 3.5-.84 7.31-2.69 8.17-6.55 1.97-9.79.74-19.85 1.08-29.75-.18-12.65.4-25.31-.37-37.94-.16-4.27-1.77-9.37-6.27-10.78-5.35-1.34-10.29 2.4-13.34 6.42-1.93 2.79-4.68 5.58-4.36 9.23.02 16.01.01 32.03.01 48.04.01 5.46-.33 11.07 1.4 16.33 1.17 3.15 4.58 4.34 7.6 4.95-.03 1.23-.02 2.47.01 3.72-15.3 0-30.6.01-45.9-.01-.04-1.24-.05-2.48-.03-3.72 3.51-.7 8.01-1.79 9.1-5.76 1.38-6.42.82-13.03.93-19.54 0-14.99-.01-29.97 0-44.95-.02-5.74.29-11.58-1.09-17.19-1.03-3.96-5.54-4.76-8.89-5.72-.05-1.23-.08-2.46-.06-3.69 12.31.05 24.63.02 36.96.01-.05 4.41-.05 8.82 0 13.23 5.24-5.91 10.9-12.04 18.58-14.67zm-1387.13 1.46c12.59-.03 25.18.03 37.77-.04-.06 27.2 0 54.4-.02 81.6.22 3.86.2 7.98 2.06 11.48 1.81 2.96 5.65 3.19 8.73 3.74-.02 1.25-.03 2.51-.02 3.77h-48.48c-.02-1.26-.02-2.51-.01-3.75 3.55-.43 7.66-1.38 9.47-4.84 1.11-2.98 1.34-6.22 1.37-9.38-.04-21.67 0-43.35-.02-65.02-.2-3.53-.37-7.35-2.31-10.41-2.09-2.47-5.57-2.73-8.48-3.53-.02-.9-.04-2.72-.06-3.62zm449.81-.02c15.99 0 31.99.04 47.98-.01-.04 1.21-.06 2.42-.06 3.64-3.69.19-7.5 2.07-8.21 6.02-.53 5.02 1.68 9.8 3.25 14.46 5.12 12.78 9.91 25.7 15.2 38.42.2 0 .6.02.81.03 3.11-7.21 5.42-14.74 8.29-22.05 3.19-8.88 6.95-17.68 8.36-27.07.58-3.1-.75-6.69-3.61-8.22-1.97-.86-4.1-1.17-6.17-1.57a89.35 89.35 0 0 1-.06-3.66c9.73.04 19.47.04 29.2 0-.05 1.22-.06 2.45-.06 3.68-3.1 1.07-6.35 2.46-7.99 5.49-3.7 6.38-6.16 13.37-8.83 20.22-9.28 24.74-18.81 49.38-28.02 74.14-1.48.01-2.93.01-4.37.02-8.39-21.66-16.95-43.25-25.41-64.88-3.83-9.41-7.03-19.11-11.83-28.08-1.6-3.52-4.86-5.69-8.4-6.91-.02-.92-.05-2.75-.07-3.67z" style="fill:#013cc8;fill-opacity:1" transform="translate(-3.575 -2.752) scale(.09499)"/><path d="M361.56 259.64c14.79-14.54 29.62-29.06 44.43-43.58 25.35 23.55 50.55 47.26 75.86 70.85-3.55 3.4-7.16 6.74-10.63 10.22-21.58-20.3-43.37-40.38-64.95-60.68-21.52 20.97-42.89 42.09-64.38 63.09-3.65-3.33-7.21-6.75-10.74-10.2 10.37-9.66 20.2-19.88 30.41-29.7zM93.51 293.32c24.81-24.6 49.97-48.83 74.71-73.51 25.41 23.45 50.49 47.26 75.88 70.74-3.43 3.54-6.94 7-10.42 10.49-21.72-20.29-43.43-40.6-65.23-60.8-21.19 21.23-42.91 41.93-64.09 63.17-3.65-3.33-7.3-6.65-10.85-10.09z" style="fill:#013cc8;fill-opacity:1" transform="translate(-3.575 -2.752) scale(.09499)"/><path d="M46.83 270.08c40.79 35.92 81.67 71.74 122.4 107.73 37.5-34.58 74.98-69.18 112.39-103.86-.39 6.68.58 13.34.39 20.02-37.54 34.46-74.99 69.01-112.45 103.56-40.02-35.32-79.85-70.86-119.85-106.21-.98-.97-2.38-1.89-2.19-3.47-.16-5.92-.57-11.84-.69-17.77zm246.39 1.75c40.56 35.54 81.55 70.6 122.3 105.92 36.29-35.15 72.62-70.27 108.8-105.52-.08 6.63.58 13.24.74 19.86-36.17 35.34-72.75 70.26-109 105.51-40.62-35.58-81.4-70.98-122.06-106.52-.24-6.42-.35-12.84-.78-19.25z" style="fill:#013cc8;fill-opacity:1" transform="translate(-3.575 -2.752) scale(.09499)"/><path d="M417.25 416.01c36.53-36.43 72.53-73.37 108.71-110.15.28 6.34.27 12.7.55 19.05-36.17 36.97-72.44 73.84-108.55 110.86-40.77-35.61-81.42-71.36-122.22-106.94-.09-6.96-.68-13.89-.88-20.85 40.76 36.06 81.62 71.99 122.39 108.03zM47.97 306.16c40.82 36.63 81.58 73.34 122.49 109.86 37.63-35.84 74.77-72.2 112.11-108.34-.27 6.15.92 12.3.3 18.45-2.57 3.62-6.18 6.39-9.3 9.53-34.17 33.51-68.66 66.68-102.77 100.25-37.72-33.55-75.38-67.16-113.07-100.75-3.04-2.84-6.44-5.33-9.16-8.49-.09-6.83-.5-13.67-.6-20.51z" style="fill:#013cc8;fill-opacity:1" transform="translate(-3.575 -2.752) scale(.09499)"/><path d="M419.02 449.58c36.2-36.84 72.28-73.79 108.33-110.78.55 6.66.87 13.33 1.02 20.01-36.26 36.83-72.58 73.61-108.87 110.42-40.6-35.11-81.4-69.99-122.03-105.07-.68-6.68-.5-13.39-.83-20.08 40.7 35.27 81.69 70.21 122.38 105.5zm-247.52-.07c37.61-36.09 74.78-72.62 112.02-109.07.45 6.72.69 13.45.64 20.19-37.49 36.22-75.01 72.42-112.39 108.75-40.63-35.71-81.37-71.31-122.07-106.93-.3-6.74-.19-13.48-.38-20.21 16.16 14.69 32.82 28.82 49.18 43.29 24.35 21.31 48.67 42.65 73 63.98z" style="fill:#013cc8;fill-opacity:1" transform="translate(-3.575 -2.752) scale(.09499)"/></svg>