<svg xmlns="http://www.w3.org/2000/svg" width="42.819" height="42.818"><defs><clipPath id="a"><path d="M14.627 780.973h622.346V14.627H14.627Z"/></clipPath><clipPath id="b"><path d="M0 795.975h651.96V.015H0Z"/></clipPath></defs><g clip-path="url(#a)" transform="matrix(1.25 0 0 -1.25 -76.715 940.05)"><g clip-path="url(#b)"><path d="M0 0c2.36-2.905 3.753-6.657 3.753-10.651 0-4.055-1.393-7.748-3.753-10.652v.786c2.058 2.784 3.268 6.173 3.268 9.866 0 3.691-1.21 7.08-3.268 9.864zm0-16.643.182-.121.545.301L0-16.16Zm0 1.452c.484-.06 1.15.424 1.21 1.15l-.423-.06c-.182-.424-.424-.727-.787-.605Zm0 1.514.061.06.121-.181.423.363C0-12.527.061-11.741.423-11.681c.425.061.727-.605.666-1.27l.485.302c-.182.787-.605 1.271-1.211 1.271-.121 0-.242-.06-.363-.122zm0 3.026h1.392l.303.483H0Zm0 1.996h.908l.242.545L0-8.17Zm0 1.151h.908l.242.484H0ZM-2.784 2.784A20.124 20.124 0 0 0 0 0v-.787C-.787.303-1.755 1.271-2.784 2.119zM0-21.303c-.847-1.029-1.755-1.998-2.784-2.785v.606c1.029.908 1.997 1.876 2.784 2.965zM0-7.02v-.484h-1.09l.303.484zm0-1.15v-.485h-1.15l.363.485zm0-1.998v-.483h-.605c0-.485-.061-.969-.121-1.393h.423c0 .242.121.424.303.544v-2.177c-.303-.485-.363-.848-.061-1.029H0v-.485c-.242.061-.424.182-.544.485-.243.544 0 1.15.423 1.694l-.121.485h-.545c-.121-1.029-.423-1.998-.786-2.967L0-16.16v-.483l-1.755.725c-.12-.242-.242-.545-.424-.786.787.182 1.997-.181 1.695-1.513-.121-.605-.848-1.09-1.331-.848-.727.303-.666 1.09.06 1.575.06-.122.122-.243.241-.364-.483-.363-.544-.908-.059-.786.363.06.968.786.241 1.452-.241.242-.726.182-1.089.06-.121-.242-.242-.423-.363-.605v.484a11.782 11.782 0 0 1 1.816 6.598c0 .302 0 .604-.061.968h.363v-.485zm-2.784-12.164h.302v.424h-.302zm0 2.119v.725c.182 0 .363-.121.363-.362a.39.39 0 0 0-.363-.363zm0 5.869c.424 1.15.605 2.422.605 3.693 0 1.27-.181 2.541-.605 3.691v-2.058c.06-.545.121-1.089.121-1.633 0-.545-.061-1.151-.121-1.635zm0 8.292v.484c.06-.363.424-.484 1.089-.484v-.242c-.484-.061-.847.06-1.089.242zm0 .666v1.331l1.331 2.3-1.331-.242v.302l2.421.424-2.179-3.51c-.121-.243-.242-.424-.242-.605zm0 5.871.363.726c-.121-.061-.242-.121-.363-.121Zm-3.812 4.599a18.786 18.786 0 0 0 3.812-2.3v-.665c-1.149.968-2.482 1.754-3.812 2.42zm3.812-29.172a18.827 18.827 0 0 0-3.812-2.299v.544c1.33.606 2.663 1.453 3.812 2.361zm0 25.178V.485l-1.149-2.361 1.149.181v-.302l-1.997-.302L-3.45.545C-4.358.061-5.568-.423-6.596-.484v.303c1.21.06 2.602.726 3.812 1.271zm0-5.145v-1.997c-.483.363-.605.969-.302 1.513zm0-2.905c-.726 2.118-2.118 3.934-3.812 5.205v-.605a10.807 10.807 0 0 0 3.812-6.658zm0-5.326v-2.058c-.726-2.119-2.118-3.933-3.812-5.265v.666a10.807 10.807 0 0 1 3.812 6.657zm0-4.963a12.725 12.725 0 0 0-3.812-3.812v-.363c.725.423 1.392.967 1.997 1.513l.302-.424c-.907-.364-1.392-1.089-.907-1.513.241-.182.968.121 1.271.424.302.363.666.181.423-.182-.242-.364-.605-.545-1.089-.666v-.241l.666.12-.182-.424.363-.06.181.424.787.121v.424h-.424c.364.423.484.907.06 1.15-.423.301-.785-.122-1.149-.485-.423-.423-.666.061-.363.242.302.243.666.484.969.726l-.545.727a10.581 10.581 0 0 1 1.452 1.815zm0-2.239c-.242 0-.364-.121-.364-.362 0-.182.122-.363.364-.363zm-3.812-3.509.363-.788h.544l-.907 1.815zm0 6.354v.423h.968v10.652h-.968v.485h1.392v-11.56zm0 1.331c.181.182.302.423.302.666a.744.744 0 0 1-.302.605zm0 1.453a.74.74 0 0 1 .181.484c0 .181-.06.363-.181.544zm0 2.663v3.509h.181l.302-.604h-.424v-2.966zm0 3.873v.787c.181 0 .363-.182.363-.424a.391.391 0 0 0-.363-.363Zm-1.029 12.77a19.53 19.53 0 0 1 1.029-.363v-.545c-.364.121-.726.243-1.029.423Zm1.029-31.834c-.364-.122-.726-.242-1.029-.424v.545c.303.12.665.302 1.029.423zm0 26.206v-.303c-.425 0-.726 0-1.029.121v.302c.303-.12.665-.12 1.029-.12zm0-1.574v-.605c-.364.242-.666.484-1.029.726v.605c.303-.242.665-.423 1.029-.726zm-1.029-3.328h1.029v-.485h-1.029zm1.029 0zm0-1.453v-.787c-.243 0-.425.182-.425.363 0 .242.182.424.425.424zm0-1.151h-.182c-.364.303-.544.727-.847 1.09v-.483c.121-.183.303-.424.483-.607h-.18c-.122.122-.243.183-.303.303v-.968h.483v-.726a.942.942 0 0 1-.483.363v-.363c.181 0 .363-.061.423-.182h.06v-.303c-.06-.06-.18-.181-.302-.241l-.181.302v-.847c.181.061.363.181.483.302v-.847l.546-.302zm0-5.144v-1.028c-.061-.061-.122-.061-.182-.121.06 0 .121 0 .182-.061v-1.271c-.182-.182-.364-.242-.908-.242h-.121v.484h.242c.303 0 .423.181.423.484 0 .242-.182.364-.423.364h-.242v.484h.181c.242 0 .423.061.423.303 0 .241-.181.302-.423.302h-.181v.545h.303c.362 0 .544-.121.726-.243zm-1.029-3.389h1.029v-.423h-1.029zm1.029 0zm0-2.723v-.666c-.364-.241-.726-.484-1.029-.666v.605c.363.182.665.424 1.029.727zm0-2.118v-.363c-.122-.061-.182-.122-.243-.122l.243-.424v-1.027l-.182.241-.847-.424v.484l.665.364-.302.484-.363-.182v.364c.303.181.665.363 1.029.605zM-7.867 5.568c.06-.061.12-.061.242-.121v-.485c-.122 0-.182 0-.242.061zm.242-32.379c-.122 0-.182 0-.242-.06v.544c.06 0 .12.061.242.061zm0 26.75v-.302c-.122 0-.182.061-.242.061V0c.06 0 .12-.061.242-.061zm0-.968v-.605a.458.458 0 0 1-.242.121v.605c.06-.06.12-.06.242-.121zm-.242-4.054h.242v-.485h-.242zm.242 0zm0-1.514v-.483c-.061.12-.182.18-.242.241v.424c.06-.061.181-.121.242-.182zm0-.787v-.968h-.242v.665h.06-.06v.485a.815.815 0 0 1 .242-.182zm0-1.331v-.363c-.061 0-.182-.061-.242-.061v.424zm0-.787v-.847h-.242v.423h.06l-.06.061v.666zm-.242-3.086h.242v-.545h-.242zm.242 0zm-.242-1.15h.242v-.484h-.242zm.242 0zm-.242-1.332h.242v-.484h-.242zm.242 0zm-.242-1.15h.242v-.423h-.242zm.242 0zm0-3.45v-.605c-.122-.06-.182-.06-.242-.121v.606c.06 0 .181.06.242.12zm0-1.996v-.364c-.061-.06-.182-.06-.242-.121v.363c.06.061.181.061.242.122zm0-1.03v-.484l-.122-.06c.122-.485.061-.907-.12-1.211v1.695zm-.546 28.324c.122 0 .244-.06.304-.06v-.545c-.06 0-.182.061-.304.061zm.304-32.499c-.06 0-.182-.061-.304-.061v.484c.122.061.244.061.304.121zm0 26.871v-.302c-.122.059-.182.121-.304.181v.242c.122-.06.244-.06.304-.121Zm0-.908v-.605c-.06.061-.182.121-.304.182v.605c.122-.061.244-.121.304-.182zm-.304-4.175h.304v-.485h-.304zm.304 0zm0-1.332v-.424c-.06.121-.122.182-.182.242-.061 0-.061.061-.122.061v.364c.061 0 .061-.062.061-.062a.835.835 0 0 0 .243-.181zm0-.787v-.485l-.304.243v.424c.122-.06.244-.121.304-.182zm-.304-.485h.304v-.666h-.304zm.304 0zm0-1.028v-1.15l-.304.424v.726zm0-1.211v-.423c-.122 0-.182 0-.304.061v.362zm-.304-2.662h.304v-.545h-.304zm.304 0zm-.304-1.15h.304v-.484h-.304zm.304 0zm-.304-1.332h.304v-.484h-.304zm.304 0zm-.304-1.15h.304v-.423h-.304zm.304 0zm0-3.57v-.606c-.06-.061-.182-.121-.304-.181v.605c.122.061.244.122.304.182zm0-1.998v-.363c-.06 0-.182-.06-.304-.121v.364c.122.06.244.12.304.12zm0-.968v-1.695a.72.72 0 0 0-.304-.302v2.36l.182-.424zM-8.594 5.75c.121 0 .303-.061.423-.122v-.544c-.12.061-.302.121-.423.181zm.423-32.682c-.12-.061-.302-.121-.423-.182v.545c.121.06.303.06.423.121zm0 27.053v-.242.303zm0-.847v-.605c-.12.12-.302.181-.423.242v.544c.121-.06.303-.121.423-.181zm-.423-4.357h.423v-.485h-.423zm.423 0zm0-1.089v-.364c-.12.06-.242.121-.362.121h-.061v.423c.121-.06.303-.121.423-.18zm0-.848v-.424l-.362.242h-.061v.423c.121 0 .242-.06.364-.181 0 0 .059 0 .059-.06zm-.423-.667h.423v-.666h-.423zm.423 0zm0-1.028v-.726l-.059.181c-.243-.181-.303-.363-.183-.544.061-.061.122-.122.242-.122v-.362c-.181 0-.302.12-.423.181v1.21a.55.55 0 0 0 .423.182zm-.423-3.873h.423v-2.966h-.423zm.423 0zm-.423-3.632h.423v-.423h-.423zm.423 0zm0-3.752v-.605c-.12-.061-.302-.122-.423-.242v.606c.121.06.303.12.423.241zm0-1.936v-.364h-.059l.059-.121v-2.36c-.12-.061-.302-.061-.423-.061v.303c.364-.061.545.484.303 1.029-.122 0-.242-.061-.303-.061v.485l.121.12-.121.303v.545c.121.06.303.12.423.182zm-5.204 28.383c1.633 0 3.268-.242 4.781-.725v-.485a17.875 17.875 0 0 1-4.781.667zm4.781-33.589a17.914 17.914 0 0 0-4.781-.665v.483c1.633 0 3.268.243 4.781.727zm0 26.569v-.544a10.713 10.713 0 0 1-4.781 1.15v.484c1.695 0 3.328-.363 4.781-1.09zm0-4.538h-1.453V-16.22h-.725v.666h-.546l-.241.363v1.271c.182.243.302.122.544.606l.121.363c.122.06.182.302.182.545h-.484c0-.485-.424-.666-.666-.666v.907c.182.06.303.06.544.363l.182.302a.478.478 0 0 1 .242.243v.242h-.605l-.06-.423h-.666v.605c.302.182.726.363.787.786.061 0 .302.182.363.182v.363h-.484l-.183-.302c-.12-.243-.665-.182-.604-.182v.666c.302.121.604.302.726.544l.302.121v.485h-.544c0-.182-.122-.363-.303-.485h-.302v.606c.302.181.666.303.725.726l.304.121v.363h-.546c0-.121-.181-.302-.241-.424h-.303v.484c.303.182.484.424.544.787l.364.061v.424h-.545c-.12-.545-.363-.545-.484-.485v.485c.303.181.303.242.605.545.243.12.424.665.182.605h-.242c-.181 0-.181-.304-.303-.424-.06 0-.242-.061-.363-.061v.545c.303.06.666.303.726.667h.182c0 .059 0 .18.061.301h-.484c-.061-.242-.243-.363-.424-.424-.242.182-.303.182-.364.485 0 .424.424.787.122 1.271l-.061.302c0 .484-.182.545-.363.727v-15.675h4.781v.423h-1.089v10.652h1.089zm0-.909v-.423h-.363l-.242.423zm0-.787v-.423h-.303l-.302.484h.484c.06 0 .06 0 .121-.061zm0-.908v-.665h-.303l-.241.665zm0-1.21v-1.21c-.181.181-.303.363-.303.605-.06.242.061.484.303.605zm-.121-3.691h.12v-2.966h-.12zm.121 0zm0-7.625v-.606a11.486 11.486 0 0 0-4.781-1.029v.483c1.695 0 3.328.425 4.781 1.152zm0-1.877v-.545l-.061.122a11.95 11.95 0 0 0-4.418-.848v-.786c.484.241.969.483 1.393.422.847 0 1.028-.544.786-1.149-.242-.545-1.029-.485-1.513-.424.061.121.122.303.182.484.545-.12 1.21.121 1.089.485-.182.423-.908.182-1.331-.122-.182-.121-.364-.181-.606-.302v-1.029l-.302.242v2.482c1.695 0 3.268.362 4.781.968zm0-.968c-1.089-.485-.968-1.393-.303-1.695.061 0 .182-.061.303-.061v.303c-.061 0-.181.06-.242.06-.363.243-.302.666.242.908zm-4.781 25.539 1.15 1.755.968-3.025C-10.954.303-9.804 0-9.018 1.09l-.181.181c-.666-.848-1.21-.786-1.513.181l-1.211 3.934-1.452-2.42zm0-30.26c-1.998 0-3.995.363-5.81 1.029v.544c1.815-.665 3.812-1.09 5.81-1.09zm-5.81 33.226a17.026 17.026 0 0 0 5.81 1.028v-.543c-1.998 0-3.995-.364-5.81-1.03zm5.81-2.481-.424-.666-1.332 3.147c-.665-1.877-1.149-4.418-2.965-5.084l.182-.121c1.331.181 2.239 2.361 2.663 3.994l1.209-2.844.667 1.089zm0-2.421V.061c-2.118 0-4.116-.666-5.81-1.756v.606a11.199 11.199 0 0 0 5.81 1.634zm0-1.513c-.061.06-.121.181-.121.363-.06.121-.242.182-.303.06-.363-.302-.786 0-.666-.968l.182-.484c-.484-.363-.242-.726-.122-1.21v-.364l-.12-.182c-.182.061-.363.182-.424.424h-.484c0-.121 0-.242.06-.301h.182c.06-.364.303-.727.606-.727v-.545h-.242c-.122.181-.182.485-.364.485h-.242c-.242 0 0-.425.242-.545.06-.303.303-.424.606-.545v-.485c-.182-.06-.485-.06-.606.485h-.423v-.424l.302-.061c.061-.363.303-.605.605-.787v-.423l-.242-.061a.658.658 0 0 0-.182.424h-.544v-.363h.242c.06-.423.302-.666.666-.847v-.606h-.303c-.181.122-.242.243-.242.364h-.544v-.364l.242-.06c.181-.242.423-.545.665-.605l.061-.666s-.545-.061-.545.182v.302h-.484v-.363c.061 0 .121-.061.182-.061.182-.362.423-.665.726-.907l-.061-.605h-.303l-.06.423h-.605v-.242a.332.332 0 0 1 .303-.181l.06-.182c.182-.363.363-.545.605-.545v-.907c-.242 0-.544.181-.605.605h-.424v-.364l.243-.12c.121-.545.363-.787.665-.969v-1.271l-.302-.423h-.485v-.606h-.726v11.137h-2.481v-.485h2.058V-16.22h-2.058v-.423h5.81zm0-20.397v-.483a11.18 11.18 0 0 0-5.81 1.635v.543c1.694-1.029 3.692-1.695 5.81-1.695zm0-1.693c-1.09 0-2.178.181-3.208.423l-.061.424h-.423c-.363.726-.847 1.089-1.392 1.21v-.423c.484 0 .727-.364.908-.908a9.62 9.62 0 0 0-1.634.726v-.364c.182-.12.302-.181.423-.241l-.121-.363-.302.061v-.425c.605 0 .907-.242.848-.544-.061-.303-.425-.364-.848-.303v-.484c.605.061 1.029.303 1.15.726.121.424-.061.726-.363.847l.061.303c.362-.12.726-.303 1.088-.363l-.545-1.816.183-.544.786 2.178c1.09-.302 2.178-.423 3.329-.423l.06-1.029c-1.149-.424-1.815-.424-1.876-.061-.061.304.424.485 1.09.243.06.12.18.242.302.302-.545.303-1.029.303-1.453.06-.726-.301-.544-.786-.06-1.088.606-.303 1.331-.182 1.997.06v-.545l.061-.121zm-5.81 7.504v1.029l.121-.423.545 2.36h.846v-2.966h-.544v2.482l-.545-2.482zm0 5.81v.605h.605v.787h-.605v.606h1.391l.183-.606h-.424v-3.086l-.545.423v1.271zm0 9.078c.242.303.302.727.242 1.211h-.242zm0-26.084c-.969.363-1.937.786-2.845 1.331v.605a17.608 17.608 0 0 1 2.845-1.392zM-22.03 4.115c.908.485 1.876.969 2.845 1.332v-.545a17.685 17.685 0 0 1-2.845-1.391Zm2.845-3.57V-.666c-.303-.423-.848-.605-1.393-.363l-1.452.666v.726l1.634-.786c.908-.485 1.332-.122 1.211.968zm0-1.634a11.21 11.21 0 0 1-2.845-2.482v-.786c.787 1.028 1.756 1.997 2.845 2.662zm0-3.994v-.485h-1.998V-16.22h1.998v-.423h-2.422v11.56zm0-2.663h-1.514l.182-.606h.303v-.787c-.485-.181-.546-.363-.242-.847a.743.743 0 0 1 .666-.423c.182.181.122.362.122.665h.483v.605h-.483v.787h.483zm0-6.779-.423 1.937h-.909v-2.966h.606v2.482l.544-2.482h.182zm0-5.145v-.543c-1.089.665-2.058 1.451-2.845 2.48v.787a11.083 11.083 0 0 1 2.845-2.724zm0-1.936v-.364c-.061 0-.182.062-.303.122l.182.302c.06 0 .121-.06.121-.06zm0-.907h-.182c-.363.605-.847.967-1.393.967-.543 0-.966-.484-.362-1.694l.423.182c-.362.362-.544.786-.242 1.028.242.303.605.06.969-.483l-.061-.122.061-.362c.304.059.605.059.787.059zm0-1.272v-.484c-.121 0-.242 0-.423.061v.544c.12-.061.302-.121.423-.121zm-2.845 4.963c.242 0 .423.182.423.363 0 .242-.181.363-.423.363zm0-6.597c-.06.06-.12.121-.181.121v.605c.061-.06.121-.121.181-.121zm-.181 29.414c.061 0 .121.06.181.12v-.604c-.06-.061-.12-.061-.181-.122Zm.181-3.632v-.726l-.181.12v.666zm0-3.934v-.786a1.313 1.313 0 0 0-.181-.304v.848c.061.06.121.183.181.242zm0-13.375v-.787c-.06.061-.12.182-.181.243v.847c.061-.121.121-.182.181-.303zm0-1.15v-.726c-.06 0-.12.06-.181.06v.605c.061.061.121.061.181.061zm-.181-1.574v.363l.181-.181zm0-5.628-1.089.726v.606l1.089-.727zM-23.3 3.268l1.089.727v-.606l-1.089-.725Zm1.089-2.845v-.666L-23.3.242v.727zm0-4.236v-.848A15.975 15.975 0 0 1-23.3-6.657v1.15c.301.605.665 1.15 1.089 1.694zm0-12.83v-.847a9.932 9.932 0 0 0-1.089 1.694v1.15c.301-.727.665-1.392 1.089-1.997zm0-1.514v-.605a.332.332 0 0 0-.181.303c0 .182.06.242.181.302zm0-1.15a5.483 5.483 0 0 0-1.089 1.272v-.424l.422-.545-.422-.303v-.604l.665.544.363-.363.061.06zM-23.3-2.723v.665l.241-.121-.241.787v1.029l.726-2.602zm0-21.849c-.849.606-1.635 1.332-2.422 2.059v.725c.726-.786 1.573-1.513 2.422-2.178zm-2.422 25.783c.787.726 1.573 1.453 2.422 2.057v-.604c-.849-.667-1.696-1.393-2.422-2.179zM-23.3.969l-.787.362.787-2.723v1.029l-.182.666.182-.061zm0-3.027v-.665l-2.24.786c.908-1.452 1.936-3.57 1.15-4.66l-.242-.06c.605 1.392-.243 3.027-1.09 4.539v.907zm0-3.449a11.153 11.153 0 0 1-1.271-5.144c0-1.876.484-3.632 1.271-5.145v1.15c-.485 1.271-.787 2.602-.787 3.995 0 1.391.302 2.722.787 3.994zm0-12.528v-.424l-.425.484c-.181-.787-.605-.968-1.331-.605 0-.605.605-.908 1.331-1.029l.425.302v-.604l-1.09-.908-.122.484.425.424c-1.514.423-1.514 1.209-1.15 2.118.483-.666.968-.606 1.15.303-.303.423-.545.907-.788 1.391l-.847-.302v1.392c.182-.182.243-.485.363-.787l.303.121c-.242.605-.484 1.211-.666 1.816v1.876c.121-1.089.363-2.118.787-3.087.303.364.423.787.181 1.211l.364.182c.182-.485.121-1.09-.242-1.817l.181-.362-.12-.122c.363-.726.786-1.452 1.271-2.057zm-2.422-4.478c-.181.241-.363.423-.605.665v.787c.242-.242.424-.485.605-.727zM-26.327.545c.242.182.424.424.605.666V.485a6.369 6.369 0 0 0-.605-.728zm.605-1.756v-.907c-.181.363-.423.787-.605 1.15zm0-10.772v-1.876c0 .121-.06.242-.06.424l-.545-.121v.544l.484.061-.121.846-.363-.06v.484l.242.061v.969h.303c0-.424.06-.908.06-1.332zm0-3.026v-1.392l-.06-.062c-.121.728-.303 1.212-.545 1.393v.545a.963.963 0 0 0 .605-.484zm-.605-1.755.242.301a.464.464 0 0 1-.242.243zm0 7.988v.485h.605l-.242-.485zm0 1.089v.546h.605l-.181-.546zm0-14.161a53.385 53.385 0 0 0-1.452 1.937v.968c.424-.727.908-1.453 1.452-2.118zm-1.452 20.456c.484.666.968 1.331 1.452 1.937v-.788a16.484 16.484 0 0 1-1.452-2.117zm1.452.424v-6.719h-1.452v.364l.121.182h1.331zm0-7.323v-.485h-1.452v.364l.121.121zm0-3.39v-.484h-.484l.121-.907.363.06v-.544l-1.452-.182v.424l.544.12-.12.908c-.122 0-.303.061-.424.061v.544h.121c.181.061.241.243.181.424-.06.182-.181.303-.302.303v.545c.424.06.847-.242.968-1.272zm0-2.844v-.545c-.06.061-.121.061-.241.061-.545 0-.485-.726-.183-1.029.183-.061.303-.061.424-.182v-.544l-.06-.061-.545.121-.545-.302a.458.458 0 0 0-.302-.122v.665l.06.062.242-.182.242.242-.544.303v.484l.424-.302c-.122.786.12 1.27.725 1.331zm-1.452-5.386c-1.695 2.662-2.723 5.87-2.723 9.26 0 3.388 1.028 6.596 2.723 9.259v-.968c-1.392-2.421-2.18-5.265-2.18-8.291 0-3.026.788-5.871 2.18-8.292zm0 12.588-.182-.364h.182zm0-1.089-.242-.364h.242zm0-1.997c-.303-.061-.606-.424-.606-.908 0-.424.182-.727.606-.908v.544c-.122 0-.242.122-.242.303-.061.182 0 .424.181.424 0 .06.061.06.061 0zm0-2.905h-.182c-.06.302-.182.605-.363.908l-.242-.121c.363-.727.06-1.211-.302-.848-.424.363-.122 1.089 0 1.573l-.182.061c-.303-.665-.485-1.271 0-1.997.364-.545.726-.363 1.089-.06l.182.06zm0-2.24-.424.242-.182-.302.606-.424zm0-.909-.364-.301.182-.242c.06-.061.121-.122.182-.122v.665" style="fill:#0e88d3;fill-opacity:1;fill-rule:evenodd;stroke:none" transform="translate(91.874 745.565)"/></g></g></svg>