<svg xmlns="http://www.w3.org/2000/svg" width="112.563" height="30.595"><defs><clipPath id="b"><path d="M279.485 660.36h24.93V635.4h-24.93z"/></clipPath><clipPath id="a"><path d="M279.485 660.36h24.93V635.4h-24.93z"/></clipPath></defs><path d="M169.645 1030.794v-2.158h.99l-.99-3.418v-2.609h1.53l3.331 9.714h-2.881l-.45-1.529zm5.761-8.185h2.61l3.331 5.397v-5.397h2.61v9.714h-2.61l-3.331-5.306v5.306h-2.61zm10.351 0h2.79v3.688l2.882-3.688h3.69l-3.24 3.688 3.33 6.026h-3.33l-1.892-3.957-1.44 1.619v2.338h-2.79zm-16.112 0v2.61-.09l-.99 3.507h.99v2.159h-1.62l-.45 1.528h-2.79l3.33-9.714zm-9.451 9.714v-2.069h.18c.54 0 .81-.09.99-.27.27-.18.36-.448.36-.718 0-.27-.09-.54-.36-.72-.18-.18-.45-.27-.99-.27h-.18v-1.799c.45 0 .72-.09.9-.27.18-.18.27-.36.27-.719 0-.27-.09-.45-.27-.63-.18-.18-.45-.27-.9-.27v-1.979h1.17c.9 0 1.53.27 1.98.72.45.45.72 1.08.72 1.71 0 .63-.18 1.078-.54 1.528-.18.27-.54.45-.9.63.63.18 1.08.449 1.35.899.36.36.45.9.45 1.53 0 .448-.09.898-.27 1.348-.27.36-.54.72-.9.9-.27.18-.54.27-1.08.36-.63.09-.99.09-1.17.09zm0-9.714v1.98h-1.17v1.888h1.17v1.799h-1.17v1.978h1.17v2.07h-3.96v-9.715zm-14.222 9.894v-2.248c.54 0 .99-.18 1.35-.63.36-.36.54-1.17.54-2.248 0-.9-.18-1.53-.54-1.979-.36-.45-.81-.63-1.35-.63v-2.249c1.44 0 2.61.36 3.42 1.26s1.17 2.068 1.17 3.688c0 1.079-.18 2.069-.54 2.787-.36.72-.81 1.26-1.53 1.71-.63.36-1.44.54-2.43.54h-.09zm-18.542-9.893h2.7v5.846c0 .54-.09 1.08-.18 1.619-.18.54-.45.99-.81 1.35-.36.358-.72.628-1.08.808-.54.18-1.17.27-1.98.27-.45 0-.9 0-1.44-.09-.45 0-.9-.18-1.261-.36-.36-.18-.63-.448-.9-.808-.36-.36-.54-.81-.63-1.17-.18-.63-.27-1.17-.27-1.62v-5.845h2.79v5.936c0 .54.09.99.36 1.259.27.36.72.45 1.17.45.45 0 .81-.09 1.08-.45.27-.27.45-.72.45-1.26zm18.542-.09v2.248c-.63 0-1.08.18-1.35.63-.36.449-.54 1.169-.54 2.159 0 .989.18 1.619.54 2.069.27.449.72.629 1.35.629v2.248c-.99 0-1.8-.18-2.43-.45-.63-.36-1.171-.988-1.621-1.708-.36-.72-.63-1.71-.63-2.788 0-1.62.45-2.879 1.261-3.779.81-.898 1.98-1.258 3.42-1.258zm-8.011 5.846 2.34.81a4.367 4.367 0 0 1-.72 1.889c-.36.45-.81.808-1.35 1.078-.45.27-1.17.36-1.89.36-.99 0-1.8-.09-2.43-.45-.63-.27-1.171-.809-1.621-1.619-.45-.718-.63-1.708-.63-2.967 0-1.62.36-2.789 1.17-3.689.811-.899 1.891-1.259 3.331-1.259 1.17 0 1.98.18 2.7.72.63.45 1.08 1.26 1.35 2.25l-2.43.628c-.09-.36-.18-.539-.27-.629a.811.811 0 0 0-.54-.54c-.18-.18-.45-.18-.72-.18-.63 0-1.08.27-1.44.81-.27.359-.36.989-.36 1.889 0 1.079.09 1.799.45 2.249.27.359.72.539 1.26.539s.9-.09 1.17-.45c.27-.36.45-.81.63-1.44m-70.299-5.755s0-.09-.09-.09l-.09.09c0 .09.09.09.09.09.09 0 .09 0 .09-.09" style="fill:#04a;fill-opacity:1;fill-rule:evenodd;stroke:none" transform="translate(-82.646 -1012.206)"/><path d="m107.782 1042.705 5.044-5.05v-20.17l-5.072-5.183H87.822l-5.08 5.219v20.17l5.008 5.014h20.032" style="fill:#fff;fill-opacity:1;fill-rule:evenodd;stroke:none" transform="translate(-82.646 -1012.206)"/><g clip-path="url(#a)" transform="matrix(1.25 0 0 -1.25 -349.554 824.88)"><path d="m299.752 635.505 4.035 4.039v16.136l-4.058 4.147h-15.945l-4.064-4.175v-16.136l4.006-4.011z" style="fill:none;stroke:#fff;stroke-width:.154;stroke-linecap:butt;stroke-linejoin:miter;stroke-miterlimit:2.613;stroke-dasharray:none;stroke-opacity:1"/></g><path d="M107.754 1037.592h-4.944v-5.565l4.216-4.401-8.616-9.359v2.36l5.481 6.421-5.442 5.592v10.065h9.333l5.044-5.05v-20.17l-5.072-5.183H87.822l-5.08 5.219v20.17l5.008 5.014h9.409l-.002-10.065-5.443-5.592 5.481-6.421v-2.36l-8.616 9.359 4.215 4.401v5.565h-4.945v-20.177h19.87l.035 20.177zm-13.825-10.883a3.857 3.857 0 0 1 3.855-3.86 3.856 3.856 0 0 1 3.855 3.86 3.857 3.857 0 0 1-3.855 3.86 3.858 3.858 0 0 1-3.855-3.86" style="fill:#000;fill-opacity:1;fill-rule:evenodd;stroke:none" transform="translate(-82.646 -1012.206)"/><g clip-path="url(#b)" style="fill:#04a" transform="matrix(1.25 0 0 -1.25 -349.554 824.88)"><path d="M299.729 639.595h-3.955v4.452l3.373 3.521-6.893 7.487v-1.888l4.385-5.137-4.354-4.473v-8.052h7.467l4.035 4.039v16.136l-4.058 4.147h-15.945l-4.064-4.175v-16.136l4.006-4.011h7.527l-.002 8.052-4.354 4.473 4.385 5.137v1.888l-6.893-7.487 3.372-3.521v-4.452h-3.956v16.142h15.896zm-11.06 8.706a3.085 3.085 0 1 0 6.168 0 3.086 3.086 0 0 0-3.084-3.088 3.086 3.086 0 0 0-3.084 3.088z" style="fill:#04a;stroke:#000;stroke-width:.154;stroke-linecap:butt;stroke-linejoin:miter;stroke-miterlimit:2.613;stroke-dasharray:none;stroke-opacity:1"/></g></svg>