<svg xmlns="http://www.w3.org/2000/svg" width="300" height="93" version="1.0" viewBox="0 0 531 163"><path d="M59.58 0h.82c3.43 8.67 8.23 16.7 11.76 25.32-11.65-2.04-23.47-.4-35.2-.96-5.78-.26-11.5-1.7-16.63-4.42 5.19-3.73 11.41-5.52 16.95-8.61C44.66 7.45 52.65 4.68 59.58 0zM5 40.36c12.14 2.59 24.71 2.53 36.74 5.71 7.79 1.63 15.7 5 20.76 11.38 2.97 4.22 4.12 9.49 3.92 14.6-9.05 4.51-18.31 8.6-27.48 12.88-3.35 1.53-6.53 3.92-10.37 3.83-7.51-16.3-16.09-32.1-23.57-48.4z" style="opacity:1;fill:#de4019"/><path d="M106.39 8.15c.49-1.77 2.59-.72 3.72-.34 20.4 8.03 40.61 16.55 61.05 24.47 1.09 1.28-.23 2.96-.52 4.32-8.1 19.4-16.09 38.85-23.78 58.42-.39.71-.85 1.39-1.36 2.02-.85-3.16-.86-6.49-1.84-9.61-2.45-6.86-7.07-13.21-13.75-16.45-5.73-3.5-12.58-3.72-18.95-5.19 2.14-3.66 5.2-6.67 8.17-9.65 1.47-1.68 3.85-1.42 5.85-1.72-.11-.51-.33-1.53-.43-2.05-3.09-1.29-6-3.54-9.4-3.76-6.86 1.86-13.54 4.46-20.46 6.15-1.01-3.26-2.35-6.42-3.14-9.75 4.63-12.39 9.88-24.58 14.84-36.86z" style="opacity:1;fill:#0084c4"/><path d="M493.28 76.25c1.35-2.05 4.02-2.75 6.02-4.04.91 13.78 0 27.67.45 41.48 6.43-7.06 10.98-15.59 17-22.98 2.26-1 5-.22 7.45-.41-3.78 5.75-8.12 11.08-12.16 16.64 5.25 9.78 9.72 19.95 14.87 29.78-2.43-.06-4.95.39-7.31-.3-3.46-6.39-6.38-13.1-9.58-19.65-.84-1.21-.89-3.58-2.77-3.52-2.43 3.32-5.03 6.53-7.38 9.9-.53 4.5-.04 9.07-.21 13.6h-6.42c-.01-20.16-.1-40.34.04-60.5zm-258.59-1.77c8.74-2.65 18.01.48 25.25 5.53-1.74 3.01-3.6 5.94-5.48 8.87-4.42-1.58-8.5-4.7-13.45-4.29-2.62-.29-5.84 1.46-5.68 4.41-.06 4.16 3.6 6.79 5.89 9.79 4.98 5.35 9.46 11.16 14.69 16.27 1.65-3.22 2.1-7.33 4.41-10.02 3.34.49 6.45 1.91 9.56 3.17-1.36 5.58-4.13 10.6-6.9 15.57 4.02 4.09 7.93 8.31 11.41 12.88-4.68.15-9.36.13-14.03 0a150.35 150.35 0 0 1-4.41-4.7c-7.3 5.65-17.12 6.94-25.99 5.1-3.35-.91-6.88-2.09-9.16-4.86-4.96-6.02-4.81-15.45-.31-21.68 2.6-2.96 5.84-5.28 9.25-7.22-5.32-4.94-9.09-13-5.78-20.08 1.47-4.78 6.26-7.35 10.73-8.74m-4.5 42.83c-1.14 2.94-.36 7.29 3.02 8.32 4.9 1.88 10.77 1.38 15.26-1.4-3.66-4.84-8.04-9.13-12.38-13.38-2.26 1.81-5.27 3.37-5.9 6.46zm-28.92-42.42c4.29-.57 8.62-.19 12.93-.19.08 11.43 0 22.87.05 34.3-.06 7.67-1.39 15.76-6.34 21.89-6.17 7.08-16.9 8.17-25.5 5.82-8.15-2.01-13.52-9.37-16.25-16.89 4.04-1.34 8.09-2.73 12.28-3.55 2.07 3.56 4.08 8.26 8.68 8.92 3.44.52 7.36.47 10.23-1.77 3.1-3.32 4.2-7.97 4.06-12.42-.07-12.03.15-24.08-.14-36.11zm75.44-.2c4.24-.1 8.48-.09 12.72-.05.06 9.09.16 18.18-.15 27.26 7.49-9.15 14.72-18.53 22.63-27.32 4.86.11 9.72-.08 14.58.13-5.84 7.29-12.06 14.26-18.12 21.37 7.35 13.68 15.42 26.95 22.69 40.67-4.91-.01-9.81.02-14.72-.05-5.98-9.72-11.17-19.91-17.11-29.65-3.1 3.9-6.8 7.32-9.62 11.42-.48 6.09.2 12.23-.31 18.33-4.16-.1-8.31-.04-12.46-.07-.32-20.67-.06-41.36-.13-62.04zm80.77.57.62-.57c6.96-.21 13.93.02 20.89-.08 4.51-.14 9.23.76 12.94 3.46 5.15 3.99 6.77 11.5 4.46 17.46-1.28 3.49-4.6 5.57-7.59 7.47 3.37 1.41 7.13 2.95 8.91 6.4 4.85 8.2 2.59 20.74-6.22 25.31-3.9 1.7-8.24 2.05-12.44 2.04-7.21-.03-14.42.02-21.63-.03.09-20.49-.03-40.98.06-61.46m7.11 5.91c-.2 6.36-.08 12.73-.06 19.09 6.63-.31 13.46.86 19.95-.81 5.55-1.64 7.1-9 4.75-13.76-1.5-2.94-4.94-4.46-8.14-4.44-5.5-.15-11 .05-16.5-.08m-.03 25.42c-.11 7.94-.1 15.89-.01 23.83 6.17.05 12.34.1 18.5-.02 4.66.09 9.35-3.66 9.68-8.44.4-3.87.4-8.31-2.24-11.45-2.86-2.51-6.65-4-10.47-3.95-5.15-.06-10.31-.01-15.46.03zM408.35 93c6.48-3.44 14.01-4.48 21.24-3.39 6.19 1.14 11.42 6.9 11.01 13.37-.14 11.29.3 22.6-.21 33.88-2.03-.09-4.06-.12-6.08-.12-.27-1.65-.53-3.3-.78-4.94-4.33 4.29-10.44 6.66-16.55 5.89-5.86-.15-10.98-4.48-12.34-10.13-.87-4.78-.65-10.29 2.93-13.97 3.37-4.35 9.24-5.32 14.41-5.37 4.05-.19 7.95.97 11.86 1.84-.16-4.59.87-10.31-3.43-13.42-6.02-3.95-13.76-1.29-19.52 1.89-.87-1.84-1.72-3.68-2.54-5.53m6.43 21.89c-6.1 3.99-4.97 15.14 2.29 17.11 6.02 1.58 13.09-1.2 16.51-6.4.51-3.35.17-6.76.09-10.12-6.05-1.93-12.83-3.08-18.89-.59zm40.69-19.18c3.15-3.59 7.51-6.68 12.51-6.46 5.66-.57 11.46 2.3 14.4 7.18 2.08 3.81 2.33 8.27 2.33 12.52-.01 9.27-.01 18.53 0 27.8-2.11 0-4.22 0-6.33.01-.1-9.93.14-19.86-.11-29.79-.15-4.62-2.27-9.45-6.75-11.34-2.63-.67-5.46-.67-8.11-.12-4.35 1.71-7.27 5.89-7.45 10.55-.7 10.2-.09 20.46-.3 30.68h-6.71c-.3-15.46-.04-30.93-.14-46.4 2.3-.04 4.61-.06 6.92-.03-.07 1.8-.15 3.6-.26 5.4z" style="opacity:1;fill:#1f1a16"/><path d="M85.33 90.17c.74-1.83 3.02-1.59 4.63-1.76 5.02-.04 10.36-.67 15.01 1.63 10.14 4.25 17.24 13.66 20.87 23.78-13.94 14.73-27.08 30.19-40.97 44.97-4.07-2.35-7.11-6-10.73-8.93-13.24-12.1-26.75-23.9-39.93-36.07 3.56-4.69 7.8-8.82 11.77-13.16 4.39 3.97 9.39 7.81 15.42 8.7 5.62.66 11.32.51 16.95-.01 2.28-6.4 4.36-12.89 6.98-19.15z" style="opacity:1;fill:#68b92e"/></svg>