<svg xmlns="http://www.w3.org/2000/svg" width="94.115" height="90" version="1.0" viewBox="0 0 166.584 157.742"><path d="M59.58 0h.82c3.43 8.67 8.23 16.7 11.76 25.32-11.65-2.04-23.47-.4-35.2-.96-5.78-.26-11.5-1.7-16.63-4.42 5.19-3.73 11.41-5.52 16.95-8.61C44.66 7.45 52.65 4.68 59.58 0ZM5 40.36c12.14 2.59 24.71 2.53 36.74 5.71 7.79 1.63 15.7 5 20.76 11.38 2.97 4.22 4.12 9.49 3.92 14.6-9.05 4.51-18.31 8.6-27.48 12.88-3.35 1.53-6.53 3.92-10.37 3.83-7.51-16.3-16.09-32.1-23.57-48.4Z" style="opacity:1;fill:#de4019" transform="translate(-5 -.524)"/><path d="M106.39 8.15c.49-1.77 2.59-.72 3.72-.34 20.4 8.03 40.61 16.55 61.05 24.47 1.09 1.28-.23 2.96-.52 4.32-8.1 19.4-16.09 38.85-23.78 58.42-.39.71-.85 1.39-1.36 2.02-.85-3.16-.86-6.49-1.84-9.61-2.45-6.86-7.07-13.21-13.75-16.45-5.73-3.5-12.58-3.72-18.95-5.19 2.14-3.66 5.2-6.67 8.17-9.65 1.47-1.68 3.85-1.42 5.85-1.72-.11-.51-.33-1.53-.43-2.05-3.09-1.29-6-3.54-9.4-3.76-6.86 1.86-13.54 4.46-20.46 6.15-1.01-3.26-2.35-6.42-3.14-9.75 4.63-12.39 9.88-24.58 14.84-36.86z" style="opacity:1;fill:#0084c4" transform="translate(-5 -.524)"/><path d="M85.33 90.17c.74-1.83 3.02-1.59 4.63-1.76 5.02-.04 10.36-.67 15.01 1.63 10.14 4.25 17.24 13.66 20.87 23.78-13.94 14.73-27.08 30.19-40.97 44.97-4.07-2.35-7.11-6-10.73-8.93-13.24-12.1-26.75-23.9-39.93-36.07 3.56-4.69 7.8-8.82 11.77-13.16 4.39 3.97 9.39 7.81 15.42 8.7 5.62.66 11.32.51 16.95-.01 2.28-6.4 4.36-12.89 6.98-19.15z" style="opacity:1;fill:#68b92e" transform="translate(-5 -.524)"/></svg>