<svg xmlns="http://www.w3.org/2000/svg" id="Layer_1" data-name="Layer 1" viewBox="0 0 156.46 127.51"><defs><style>.cls-1{fill:#fff;fill-rule:evenodd}.cls-2{fill:none;stroke:#7f1416;stroke-miterlimit:2.61;stroke-width:2px}</style></defs><g id="Layer_11" data-name="Layer 11"><path d="M123.68 73.64a5.2 5.2 0 0 1-.36-4.8c1.15-1.51-.07-2.56-2.41-5s-6.42-5.59-6.66-11.42 4.39-6.17 4.39-6.17c3-.43 3.44-3.65 3.44-3.65.21-1.26 2.84-.63 2.84-.63l-1.17-2.38c-4.66-8-5.7-14.08-5.41-20.48s5.41-12.12 7.24-15.61-1.68-2.25-1.68-2.25c-16.28 7.86-13.28 30-13.28 30-8.41-9.38-20.76-4.35-20.76-4.35-14.22 6.81-6.63 18.92-6.63 18.92-.37 4-12 5.41-14.32 5.41s-14.59-2-20.94-3.43-15.54-4-27.09-3.72a19.28 19.28 0 0 0-16.29 9.18c-6 8.84-2.63 24.47-2.63 24.47 1.39 6.74 2.41 21.74 2.41 21.74-.93 3.65-1.83 16-1.83 16-.07 8.34 2.14 7.71 2.14 7.71 2.11.09 3-5.1 3-5.1.6-2.55.26-9 .89-11.3S7.19 92.11 7.19 92.11s-1.54-6.79-3.21-20 6.57-18.78 6.57-18.78c6.22-4.08 16.42-4.08 25.7 2.1s18.4 6.73 28.78 7.41a60.81 60.81 0 0 0 19.93-2.29c6.95-2.53 11.39 4.55 11.39 4.55 4.09 5.82.73 12.28.73 12.28-5.11 3.27-5.69 13.45-5.69 13.45a6.28 6.28 0 0 1-3.3 4.83c-4.59 1.62-10.67-1-10.67-1a11.51 11.51 0 0 0 1.64 6.79 9.8 9.8 0 0 1 1.21 2.17c.82 1.27 1.17 7.79 1.27 9.62s-.45 9.45-.45 9.45a4.65 4.65 0 0 1 3.35 3h10.22c.81-2-4.53-5.54-4.53-5.54-1.8-2.16-.19-2.93-.19-2.93l7.79.48a38.29 38.29 0 0 1 .22 5.48c2.94 1.52 2.63 2.87 2.63 2.87l10.16.14c.21-.58-.3-1.54-.3-1.92s-4.17-4.27-4.17-4.27a2.44 2.44 0 0 1 .21-3.08c15.12 8.41 19.81-6.44 19.81-6.44 0-2.39 2.63-3.72 2.63-3.72 6.34-4.56 7.53-7.65 7.82-11.64s-4.84-10.91-4.84-10.91-6.7-8.16-8.22-10.57Zm-22.56 7.28a1.39 1.39 0 0 1 1.45-1s1 .49.27 2-2.33 4.83 0 9.89 5.57 7.33 5.72 10.71-1.31 9.25-7.15 10.37c0 0-2.41.14-2.5-1.32 0 0-.27-.77 1.85-1.62a7.12 7.12 0 0 0 3.2-6.92c-.45-4.93-1.39-5.69-2-7s-3.94-6.59-2.11-11.79Zm14.81-12.48s.8-1.89 1 .21c.34 3.51.15 7.35 3.1 10 1.21 1.08 2.63 2 3.93 3.09l3.79 2.93c2 1.64 3.84 6.67 3.42 9.49 0 0-.81 6.73-5.11 6.93 0 0-2.42.35.06-1.62s1.48-7.21 1.48-7.21a14 14 0 0 0-4.17-7.78c-3.81-3.8-5.62-5.38-6.59-8 .04.02-1.47-5.99-.9-8.04Zm-8.7-11.2s.58-2.34 1.76.64a15.54 15.54 0 0 1 .19 6.63c-.69 3.93-1.86 10.19 2.53 15.42 0 0 6.13 4.7 6.62 9.06a16.51 16.51 0 0 1-.13 3.95c-.34 1.54-.71 4.78 2.18 10.35 0 0 3.29 4.45.36 9.14 0 0-3.82 6.23-8.46 3.11 0 0-2.21-2.13 1.38-4.56 0 0 3.6-1.58 3.6-3 0 0 .94-1.45-1.39-4.69a35.64 35.64 0 0 1-2.21-3.71 9.4 9.4 0 0 1 .09-5.4 8.15 8.15 0 0 0-1.32-6.93c-.85-1.19-7.81-8.29-7-14.27s1.54-9.19 1.84-10.56a18.63 18.63 0 0 0-.03-5.18Z" class="cls-1"/><path d="M123.68 73.64a5.2 5.2 0 0 1-.36-4.8c1.15-1.51-.07-2.56-2.41-5s-6.42-5.59-6.66-11.42 4.39-6.17 4.39-6.17c3-.43 3.44-3.65 3.44-3.65.21-1.26 2.84-.63 2.84-.63l-1.17-2.38c-4.66-8-5.7-14.08-5.41-20.48s5.41-12.12 7.24-15.61-1.68-2.25-1.68-2.25c-16.28 7.86-13.28 30-13.28 30-8.41-9.38-20.76-4.35-20.76-4.35-14.22 6.81-6.63 18.92-6.63 18.92-.37 4-12 5.41-14.32 5.41s-14.59-2-20.94-3.43-15.54-4-27.09-3.72a19.28 19.28 0 0 0-16.29 9.18c-6 8.84-2.63 24.47-2.63 24.47 1.39 6.74 2.41 21.74 2.41 21.74-.93 3.65-1.83 16-1.83 16-.07 8.34 2.14 7.71 2.14 7.71 2.11.09 3-5.1 3-5.1.6-2.55.26-9 .89-11.3S7.19 92.11 7.19 92.11s-1.54-6.79-3.21-20 6.57-18.78 6.57-18.78c6.22-4.08 16.42-4.08 25.7 2.1s18.4 6.73 28.78 7.41a60.81 60.81 0 0 0 19.93-2.29c6.95-2.53 11.39 4.55 11.39 4.55 4.09 5.82.73 12.28.73 12.28-5.11 3.27-5.69 13.45-5.69 13.45a6.28 6.28 0 0 1-3.3 4.83c-4.59 1.62-10.67-1-10.67-1a11.51 11.51 0 0 0 1.64 6.79 9.8 9.8 0 0 1 1.21 2.17c.82 1.27 1.17 7.79 1.27 9.62s-.45 9.45-.45 9.45a4.65 4.65 0 0 1 3.35 3h10.22c.81-2-4.53-5.54-4.53-5.54-1.8-2.16-.19-2.93-.19-2.93l7.79.48a38.29 38.29 0 0 1 .22 5.48c2.94 1.52 2.63 2.87 2.63 2.87l10.16.14c.21-.58-.3-1.54-.3-1.92s-4.17-4.27-4.17-4.27a2.44 2.44 0 0 1 .21-3.08c15.12 8.41 19.81-6.44 19.81-6.44 0-2.39 2.63-3.72 2.63-3.72 6.34-4.56 7.53-7.65 7.82-11.64s-4.84-10.91-4.84-10.91-6.7-8.16-8.22-10.57Zm-22.56 7.28a1.39 1.39 0 0 1 1.45-1s1 .49.27 2-2.33 4.83 0 9.89 5.57 7.33 5.72 10.71-1.31 9.25-7.15 10.37c0 0-2.41.14-2.5-1.32 0 0-.27-.77 1.85-1.62a7.12 7.12 0 0 0 3.2-6.92c-.45-4.93-1.39-5.69-2-7s-3.94-6.59-2.11-11.79Zm14.81-12.48s.8-1.89 1 .21c.34 3.51.15 7.35 3.1 10 1.21 1.08 2.63 2 3.93 3.09l3.79 2.93c2 1.64 3.84 6.67 3.42 9.49 0 0-.81 6.73-5.11 6.93 0 0-2.42.35.06-1.62s1.48-7.21 1.48-7.21a14 14 0 0 0-4.17-7.78c-3.81-3.8-5.62-5.38-6.59-8 .04.02-1.47-5.99-.9-8.04Zm-8.7-11.2s.58-2.34 1.76.64a15.54 15.54 0 0 1 .19 6.63c-.69 3.93-1.86 10.19 2.53 15.42 0 0 6.13 4.7 6.62 9.06a16.51 16.51 0 0 1-.13 3.95c-.34 1.54-.71 4.78 2.18 10.35 0 0 3.29 4.45.36 9.14 0 0-3.82 6.23-8.46 3.11 0 0-2.21-2.13 1.38-4.56 0 0 3.6-1.58 3.6-3 0 0 .94-1.45-1.39-4.69a35.64 35.64 0 0 1-2.21-3.71 9.4 9.4 0 0 1 .09-5.4 8.15 8.15 0 0 0-1.32-6.93c-.85-1.19-7.81-8.29-7-14.27s1.54-9.19 1.84-10.56a18.63 18.63 0 0 0-.03-5.18Z" class="cls-2"/><path d="M155.45 23.92a30.77 30.77 0 0 0-4.26-16c-1.88-3.49-3.34-2.8-3.34-2.8-2 .21-.88 4.49-.88 4.49 2.63 11.28-.73 18.29-.73 18.29C141 38.87 129.3 40.05 129.3 40.05s4.37 3.29 5.91 4.62a16.49 16.49 0 0 1 5 7.85c1.39 4.27-2.93 7.79-2.93 7.79-1.67 1.75-3.59 11.26-3.72 12.66s-1.31.93-1.31.93a1.61 1.61 0 0 0-1.32.29c-1.55 1.39.21 3.71.36 4.06a4.8 4.8 0 0 0 1.53 1.8 4.21 4.21 0 0 0 2 0l.57-1.55c.89-1.1 2.12-9.94 2.27-11.28s2.85-3.91 2.85-3.91c5.62-4.72 6.22-8.14 6.37-9.13s-2.35-8.21-2.35-8.21c10.86-10.92 10.92-22.05 10.92-22.05Z" class="cls-1"/><path d="M155.45 23.92a30.77 30.77 0 0 0-4.26-16c-1.88-3.49-3.34-2.8-3.34-2.8-2 .21-.88 4.49-.88 4.49 2.63 11.28-.73 18.29-.73 18.29C141 38.87 129.3 40.05 129.3 40.05s4.37 3.29 5.91 4.62a16.49 16.49 0 0 1 5 7.85c1.39 4.27-2.93 7.79-2.93 7.79-1.67 1.75-3.59 11.26-3.72 12.66s-1.31.93-1.31.93a1.61 1.61 0 0 0-1.32.29c-1.55 1.39.21 3.71.36 4.06a4.8 4.8 0 0 0 1.53 1.8 4.21 4.21 0 0 0 2 0l.57-1.55c.89-1.1 2.12-9.94 2.27-11.28s2.85-3.91 2.85-3.91c5.62-4.72 6.22-8.14 6.37-9.13s-2.35-8.21-2.35-8.21c10.86-10.92 10.92-22.05 10.92-22.05Z" class="cls-2"/><path d="M122.59 53.05c-.66.07-.72 2.32-.72 2.32-.09.34 1 .69 2.33.92s1.54 1.88 1.54 1.88l.06 4s1.54-2.45 1.9-3 1.48-2.54.28-4.22-4.73-2.01-5.39-1.9Z" class="cls-1"/><path d="M122.59 53.05c-.66.07-.72 2.32-.72 2.32-.09.34 1 .69 2.33.92s1.54 1.88 1.54 1.88l.06 4s1.54-2.45 1.9-3 1.48-2.54.28-4.22-4.73-2.01-5.39-1.9Z" class="cls-2"/><path d="M58.34 98.44c-1.91 1.68-4.16-.36-4.16-.36l-12.86-4.3 2.06-7.29c.19-.86 1.75-2.24-2.27-7.87s-12.25-8-12.25-8c-4.58 1.47-3.6 5.59-3.6 6.16s1.65 5.89 1.65 5.89c.28.74 3 7.56-.49 13.93s-5.45 6.54-9 6.92-3.32 3-3.32 3l-.08 5.8c.39 2 .3 11.13.3 11.13 2.14.28 3.79 3.08 3.79 3.08l10.21-.29c-.08-2.32-5.94-7.09-5.94-7.09l-.85-2.8c.19-4.3 4.08-7.56 4.08-7.56 9.63-2.07 13.93-8.72 14.71-10.31a3 3 0 0 1 2.8-1.53l10.31 4c3.81 2.8 5.07.37 5.07.37l4.08-5.05h-1Z" class="cls-1"/><path d="M58.34 98.44c-1.91 1.68-4.16-.36-4.16-.36l-12.86-4.3 2.06-7.29c.19-.86 1.75-2.24-2.27-7.87s-12.25-8-12.25-8c-4.58 1.47-3.6 5.59-3.6 6.16s1.65 5.89 1.65 5.89c.28.74 3 7.56-.49 13.93s-5.45 6.54-9 6.92-3.32 3-3.32 3l-.08 5.8c.39 2 .3 11.13.3 11.13 2.14.28 3.79 3.08 3.79 3.08l10.21-.29c-.08-2.32-5.94-7.09-5.94-7.09l-.85-2.8c.19-4.3 4.08-7.56 4.08-7.56 9.63-2.07 13.93-8.72 14.71-10.31a3 3 0 0 1 2.8-1.53l10.31 4c3.81 2.8 5.07.37 5.07.37l4.08-5.05h-1Z" class="cls-2"/><path d="M41.9 118.74c-2.82-4.59-1.26-7.76-.39-9.45s4.61-3.73 4.61-3.73c.88-.65-.1-2.61-.1-2.61a3.41 3.41 0 0 0-4.18-.94 21.55 21.55 0 0 0-8.76 10.46c.88 3 .27 9.63.27 9.63a4.89 4.89 0 0 1 3.53 3.08h10.4c-.16-2.62-5.38-6.44-5.38-6.44Z" class="cls-1"/><path d="M41.9 118.74c-2.82-4.59-1.26-7.76-.39-9.45s4.61-3.73 4.61-3.73c.88-.65-.1-2.61-.1-2.61a3.41 3.41 0 0 0-4.18-.94 21.55 21.55 0 0 0-8.76 10.46c.88 3 .27 9.63.27 9.63a4.89 4.89 0 0 1 3.53 3.08h10.4c-.16-2.62-5.38-6.44-5.38-6.44Z" class="cls-2"/></g></svg>