<svg xmlns="http://www.w3.org/2000/svg" xml:space="preserve" id="Layer_1" x="0" y="0" style="enable-background:new 0 0 338 240" version="1.0" viewBox="0 0 338 240"><style>.st0{fill:#612e87}.st1{fill:#ef6719}</style><path d="M48 57.3h242v125.3H48z" class="st0"/><path d="M120.9 67.9c-23.6 0-42.7 19.1-42.7 42.7s19.1 42.7 42.7 42.7 42.7-19.1 42.7-42.7c.1-23.6-19.1-42.7-42.7-42.7" class="st1"/><path d="M116.5 126.1c-1.6 0-3-1-3.5-2.5l-2.2-5.1H96.6l-2.3 5.3c-.5 1.4-1.9 2.2-3.3 2.2-1.8 0-3.3-1.5-3.3-3.3v-.1c0-.5.2-1 .4-1.5l11.3-25.5c.7-1.7 2.3-2.9 4.2-2.8h.4c1.8 0 3.5 1.1 4.1 2.8l11.3 25.5c.9 1.6.2 3.6-1.4 4.5-.5.4-1 .5-1.5.5z" class="st0"/><path d="M99.2 112.3h9l-4.5-10.7z" class="st1"/><path d="M150.6 111.7c0 9.8-5.5 14.6-14.2 14.6s-14-4.9-14-14.4V96.7c-.1-2 1.4-3.6 3.4-3.8 2-.1 3.6 1.4 3.8 3.4v15.4c0 5.3 2.6 8 7 8s7-2.6 7-7.8V96.7c-.1-2 1.4-3.6 3.4-3.8 2-.1 3.6 1.4 3.8 3.4v.4l-.2 15z" class="st0"/><path d="m174 88.4 4.8-10.8c.3-.7 1-1.2 1.8-1.2h.2c.8 0 1.5.5 1.8 1.2l4.8 10.8c.1.2.2.4.2.6 0 .8-.6 1.4-1.4 1.5-.6 0-1.2-.4-1.5-1l-.9-2.2h-6.1l-1 2.2c-.2.6-.8 1-1.4 1-.8 0-1.4-.6-1.4-1.4-.1-.2-.1-.4.1-.7m8.5-3.7-1.9-4.5-1.9 4.5h3.8zm6-.2V78c.1-.8.9-1.4 1.7-1.3.6.1 1.1.6 1.3 1.3v6.4c0 2.2 1.1 3.4 3 3.4s3-1.1 3-3.3V78c.1-.8.9-1.4 1.7-1.3.6.1 1.1.6 1.3 1.3v6.4c0 4.2-2.3 6.2-6 6.2s-6-2.1-6-6.1m-14.2 22.2c-.6-.5-.8-1.3-.3-2 .3-.4.7-.6 1.1-.6.3 0 .6.1.9.3 1 .8 2.2 1.2 3.5 1.2 1.2 0 2-.5 2-1.3s-.5-1.2-2.8-1.8c-2.8-.7-4.6-1.5-4.6-4.2 0-2.5 2-4.1 4.8-4.1 1.5 0 3.1.4 4.4 1.2.4.3.7.7.7 1.2 0 .8-.6 1.4-1.4 1.4-.3 0-.5-.1-.8-.2-.8-.5-1.8-.8-2.8-.8-1.2 0-1.8.5-1.8 1.2 0 .9.6 1.2 3 1.8 2.8.7 4.4 1.7 4.4 4.1 0 2.7-2.1 4.3-5.1 4.3-1.8 0-3.6-.6-5.2-1.7m12.1-10.9c0-.8.7-1.5 1.5-1.5h.3c.6 0 1.1.3 1.4.8l3.7 5.9 3.7-6c.3-.5.8-.8 1.4-.8h.3c.8 0 1.5.7 1.5 1.5v10.9c.1.8-.5 1.6-1.3 1.7s-1.6-.5-1.7-1.3v-7.2l-2.7 4.1c-.4.7-1.2 1-1.9.6-.3-.1-.5-.3-.6-.6l-2.6-4v6.8c0 .8-.7 1.5-1.5 1.5s-1.5-.6-1.5-1.4v-11zm15.5 10.4 4.8-10.8c.3-.7 1-1.2 1.8-1.2h.2c.8 0 1.5.5 1.8 1.2l4.8 10.8c.1.2.1.4.1.6 0 .8-.6 1.4-1.4 1.5-.7 0-1.2-.4-1.4-1.1l-.9-2.2h-6.1l-1 2.3c-.2.6-.8 1-1.4 1-.8 0-1.4-.6-1.4-1.4-.1-.2 0-.4.1-.7m8.5-3.7-1.9-4.5-1.9 4.5h3.8zm6.5-6.7c-.1-.8.4-1.6 1.3-1.7.8-.1 1.6.4 1.7 1.3v10.1h5.6c.8-.1 1.4.5 1.5 1.3.1.8-.5 1.4-1.3 1.5h-7.3c-.8 0-1.5-.7-1.5-1.5v-11zm11.4 0c-.1-.8.4-1.6 1.3-1.7.8-.1 1.6.4 1.7 1.3v10.1h5.6c.8.1 1.3.7 1.3 1.5-.1.7-.6 1.2-1.3 1.3h-7.1c-.8 0-1.5-.7-1.5-1.5v-11zm-54.5 17.9c0-.8.7-1.5 1.5-1.5h7.7c.8-.1 1.4.5 1.5 1.3.1.8-.5 1.4-1.3 1.5h-6.4v2.9h5.3c.8.1 1.3.7 1.3 1.5-.1.7-.6 1.2-1.3 1.3h-5.3v3.9c-.1.8-.9 1.4-1.7 1.3-.6-.1-1.1-.6-1.3-1.3v-10.9zm12.2-.1c.1-.8.9-1.4 1.7-1.3.6.1 1.1.6 1.3 1.3v11c-.1.8-.9 1.4-1.7 1.3-.6-.1-1.1-.6-1.3-1.3v-11zm5.7.1c0-.8.7-1.5 1.5-1.5h.3c.6 0 1.2.3 1.6.9l5.8 7.7v-7.1c0-.8.7-1.5 1.5-1.5s1.5.7 1.5 1.5v11c0 .8-.7 1.5-1.5 1.5h-.1c-.6 0-1.2-.3-1.6-.9l-6.1-7.9v7.4c0 .8-.7 1.5-1.5 1.5s-1.5-.7-1.5-1.5l.1-11.1zm14 10.3 4.8-10.8c.3-.7 1-1.2 1.8-1.2h.2c.8 0 1.5.5 1.8 1.2L219 124c.1.2.2.4.2.6 0 .8-.6 1.4-1.4 1.4-.6 0-1.2-.4-1.4-1l-.9-2.2h-6.1l-1 2.3c-.2.6-.8.9-1.4.9-.8 0-1.4-.6-1.4-1.4-.1-.1 0-.4.1-.6m8.5-3.8-1.9-4.5-1.9 4.5h3.8zm6.5-6.5c0-.8.7-1.5 1.5-1.5h.3c.6 0 1.2.3 1.6.9l5.8 7.7v-7.1c0-.8.7-1.5 1.5-1.5s1.5.7 1.5 1.5v11c0 .8-.7 1.5-1.5 1.5h-.1c-.6 0-1.2-.3-1.6-.9l-6.1-7.9v7.4c0 .8-.7 1.5-1.5 1.5s-1.5-.7-1.5-1.5v-11.1zm14.1 5.4c-.1-3.9 3-7.1 6.9-7.1h.3c1.6-.1 3.3.4 4.6 1.4.4.3.6.7.6 1.2 0 .8-.7 1.5-1.5 1.5-.3 0-.6-.1-.9-.3-.8-.6-1.8-1-2.8-1-2.3 0-4 1.9-4 4.2v.1c-.1 2.2 1.6 4.2 3.8 4.3h.2c1.1 0 2.2-.4 3-1.1.3-.2.6-.3.9-.3.8 0 1.4.6 1.4 1.4 0 .4-.2.8-.5 1.1-3 2.6-7.6 2.2-10.2-.8-1.1-1.3-1.7-2.9-1.8-4.6m14.4 5.4v-10.7c0-.8.7-1.5 1.5-1.5h7.7c.8 0 1.4.6 1.4 1.4 0 .7-.6 1.3-1.3 1.3h-6.2v2.8h5.2c.8 0 1.4.6 1.4 1.4 0 .7-.6 1.3-1.3 1.3h-5.2v2.9h6.2c.8 0 1.4.6 1.4 1.4 0 .7-.6 1.3-1.3 1.3H251c-1.2-.1-1.8-.8-1.8-1.6m-75.4 7.1c0-.8.7-1.5 1.5-1.5h4.9c1.3-.1 2.6.4 3.6 1.2.6.6 1 1.5.9 2.3 0 1.3-.7 2.4-1.8 3 1.6.6 2.6 1.5 2.6 3.4 0 2.5-2 3.8-5.1 3.8h-5c-.8 0-1.5-.7-1.5-1.5l-.1-10.7zm5.7 4.1c1.3 0 2.2-.4 2.2-1.4 0-.9-.7-1.4-2-1.4h-3v2.9l2.8-.1zm.8 5.5c1.3 0 2.1-.5 2.1-1.5 0-.9-.7-1.5-2.2-1.5h-3.5v3h3.6zm6.1.6 4.8-10.8c.3-.7 1-1.2 1.8-1.2h.2c.8 0 1.5.5 1.8 1.2l4.8 10.8c.4.7.1 1.5-.6 1.9-.2.1-.4.2-.7.2-.6 0-1.2-.4-1.4-1l-.9-2.2H190l-1 2.3c-.2.6-.8.9-1.4.9-.8 0-1.4-.6-1.4-1.4 0-.2.1-.4.2-.7m8.5-3.7-1.9-4.6-1.9 4.5 3.8.1zm6.5-6.6c0-.8.7-1.5 1.5-1.5h.3c.6 0 1.2.3 1.6.9l5.8 7.7v-7.1c0-.8.7-1.5 1.5-1.5s1.5.7 1.5 1.5v10.9c0 .8-.7 1.5-1.5 1.5h-.1c-.6 0-1.2-.3-1.6-.9l-6.1-8v7.4c0 .8-.7 1.5-1.5 1.5s-1.5-.7-1.5-1.5l.1-10.9zm14.8-.1c.1-.8.8-1.4 1.7-1.3.7.1 1.2.6 1.3 1.3v4.6l5.6-5.5c.3-.4.8-.6 1.3-.6.8 0 1.4.6 1.4 1.3v.1c0 .4-.2.9-.6 1.1l-3.9 3.7 4.2 5.3c.3.3.4.7.4 1.1 0 .8-.6 1.5-1.4 1.5h-.1c-.5 0-1-.3-1.3-.7l-3.9-5.2-1.7 1.6v2.8c-.1.8-.8 1.4-1.7 1.3-.7-.1-1.2-.6-1.3-1.3v-11.1z" style="fill:#fefefe"/><path d="M48 163.9h242v18.8H48z" class="st1"/><path d="M203.1 179.5c.2.2.3.4.3.7 0 .3-.1.5-.3.7-.2.2-.4.3-.6.3-.2 0-.5-.1-.6-.3-.2-.2-.3-.4-.2-.7 0-.3.1-.5.2-.7.2-.2.4-.3.6-.3.2 0 .5.1.6.3m.5-3.9c.1.1.2.1.4.1.1 0 .3-.1.4-.1.1-.1.1-.2.1-.4 0-.1-.1-.3-.1-.4-.1-.1-.2-.2-.4-.1-.1 0-.3.1-.4.1-.1.1-.1.2-.1.4-.1.2 0 .3.1.4zm-4.2-10c.1-.1.3-.2.5-.2s.4.2.7.5l.5.5 3.1 3h1.2c.7.1.7 1.2 0 1.2h-1.2v2.3c0 .2 0 .3-.1.4-.1.1-.2.2-.3.1-.2-.1-.5-.1-.7-.1-.3 0-.6 0-.9-.1-.6 0-1.3.1-1.8.5-.4.2-.7.6-.8 1.1 0 .5.2.9.6 1.2.4.3.9.5 1.5.5.2 0 .5 0 .7-.1l.6-.3c-.1-.1-.2-.2-.3-.4-.1-.2-.1-.3-.1-.5 0-.4.1-.7.4-.9.3-.3.6-.4 1-.4s.7.1 1 .4c.3.2.4.6.4.9 0 .7-.4 1.4-1 1.8-.7.5-1.6.8-2.5.7-.9 0-1.8-.3-2.5-.9-.6-.5-1-1.3-1-2.1s.5-1.6 1.2-2c.8-.6 1.8-.9 2.8-.8h.7v-1.4H197v6.5c0 .2-.1.4-.2.5-.1.1-.3.2-.5.2s-.4-.1-.5-.2c-.1-.1-.2-.3-.2-.5v-.9c-.2.2-.5.4-.8.5-.4.1-.8.2-1.3.2-.7 0-1.5-.2-2-.7-.5-.4-.8-1.1-.8-1.7 0-.8.3-1.5.9-2 .6-.5 1.3-.8 2.1-.8.3 0 .6.1.9.2.2.1.4.4.4.6 0 .1-.1.3-.2.4-.1.1-.3.2-.5.2h-1.1l2.2 1.8c.1-.1.1-.2.2-.3 0-.1.1-.2.1-.3v-3.7H190c-.3 0-.6-.4-.5-.7 0-.3.3-.5.5-.5h12.6l-2.7-2.6-.4-.4c-.2-.2-.3-.3-.3-.4 0-.1.1-.2.2-.3zm5 .8c.3.3.3.7 0 1-.1.1-.3.2-.5.2s-.4-.1-.5-.2c-.3-.3-.3-.7 0-1 .1-.1.3-.2.5-.2s.4.1.5.2zm-12.3 7.6c-.1.2-.1.3-.1.5 0 .3.2.7.4.9.3.2.6.4 1 .4.2 0 .5 0 .7-.1.2 0 .3-.1.5-.2l-2.3-1.9c-.1.1-.1.3-.2.4zm-12.2-8.4c.1-.1.3-.2.5-.2s.4.2.7.5l.5.5 3.2 3.1H183l-2.8-2.6-.4-.4c-.2-.2-.3-.3-.3-.4.2-.2.2-.4.4-.5zm-13.4 4.1c.5.3.8.9.9 1.5 0 .4-.1.8-.3 1.1-.2.3-.5.6-.8.8.4.3.8.6 1.1 1 .3.3.4.7.4 1.2 0 .7-.3 1.4-.9 1.9-.6.5-1.4.8-2.2.8-.9 0-1.9-.3-2.6-.9-.7-.4-1.1-1.1-1.1-1.9 0-.2.1-.3.2-.4.1-.1.3-.2.4-.2.2 0 .4.1.5.2.2.1.3.3.4.6.1.4.4.8.8 1 .4.3.9.4 1.4.4.5 0 .9-.2 1.2-.5.3-.3.5-.7.5-1.1 0-.4-.2-.7-.5-.9-.4-.3-.8-.4-1.2-.4-.2 0-.4-.1-.6-.2-.2-.1-.3-.3-.2-.5 0-.2.1-.3.2-.4.2-.1.4-.2.6-.1.4 0 .7-.1 1-.4.3-.2.4-.5.4-.9 0-.3-.2-.6-.5-.8-.3-.2-.7-.3-1.1-.3-.3 0-.6 0-.9.1-.3.1-.5.2-.8.3-.2.1-.4.1-.6 0-.2-.1-.3-.3-.3-.5 0-.3.2-.6.7-.8.6-.2 1.2-.3 1.8-.3.8 0 1.5.2 2.1.6zm19.7-.3c.3.1.6.4.5.8-.1.2-.2.4-.5.5h-1.3v6.5c0 .2-.1.4-.2.5-.1.1-.3.2-.5.2s-.4-.1-.5-.2c-.1-.1-.2-.3-.2-.5v-6.5h-2.4c.2.3.4.6.6 1 .1.4.2.8.2 1.2 0 .8-.4 1.6-1 2.2-.7.6-1.5.9-2.4.9-.6 0-1.2-.2-1.7-.6-.5-.4-.7-.9-.7-1.5 0-.4.2-.8.5-1.1.3-.3.7-.5 1.1-.5.3 0 .6.1.9.2.2.1.3.4.4.6 0 .2-.1.4-.2.6-.1.1-.3.2-.5.2h-.5c-.1 0-.2-.1-.4-.1 0 .3.1.5.3.6.2.2.5.3.8.2.5 0 1-.2 1.4-.5.4-.3.6-.8.6-1.3s-.2-1.1-.5-1.5c-.3-.4-.8-.6-1.3-.6h-4v6.5c0 .2-.1.4-.2.5-.1.1-.3.2-.5.2s-.4-.1-.5-.2c-.1-.1-.2-.3-.2-.5v-6.5h-2.1v6.5c0 .2-.1.4-.2.5-.1.1-.3.2-.5.2s-.4-.1-.5-.2c-.1-.1-.2-.3-.2-.5v-3h-1.5c-.2 0-.4-.1-.5-.2-.1-.1-.2-.3-.2-.4 0-.2.1-.3.2-.4.1-.1.3-.2.5-.2h1.5v-2.2h-.7c-.2 0-.3-.1-.5-.2-.1-.1-.2-.3-.2-.4 0-.2.1-.3.2-.4.1-.1.3-.2.5-.2l17.1-.2zm-29.1 1.2h-1.3v6.5c0 .2-.1.4-.2.5-.1.1-.3.2-.5.2s-.4-.1-.5-.2c-.1-.1-.2-.3-.2-.5v-6.5h-2.1v6.5c0 .2-.1.4-.2.5-.1.1-.3.2-.5.2s-.4-.1-.5-.2c-.1-.1-.2-.3-.2-.5v-3c0-.3-.2-.5-.4-.6-.3-.2-.7-.3-1-.2-.3 0-.6.1-.8.3-.2.2-.4.4-.5.7 0 .1-.1.2-.2.3-.1.1-.2.1-.3.1-.2 0-.5-.2-.5-.4-.1-.3-.3-.6-.6-.7-.3-.2-.6-.3-1-.3s-.8.2-1.1.5c-.3.3-.5.7-.5 1.1 0 .5.2.9.6 1.2.4.3.8.5 1.3.5.2 0 .4.1.5.2.1.1.2.3.2.5 0 .1-.1.3-.3.4-.2.1-.5.2-.7.1-.8 0-1.5-.3-2.1-.9-.6-.6-.9-1.3-.9-2.1s.3-1.5.9-2c.6-.5 1.3-.8 2.1-.8.4 0 .8.1 1.2.2.3.2.7.4.9.7.2-.3.5-.5.8-.7.4-.2.8-.3 1.2-.2.2 0 .4 0 .7.1.2 0 .4.1.6.2v-1.6h-9.7v6.5c0 .2-.1.4-.2.5-.1.1-.3.2-.4.2-.2 0-.4-.1-.6-.2-.1-.1-.2-.3-.2-.5v-.9c-.2.2-.5.4-.8.5-.4.1-.8.2-1.2.2-.7 0-1.4-.3-2-.7-.5-.4-.8-1.1-.8-1.7 0-.3 0-.5.1-.8.1-.2.2-.5.4-.6h-1.9c-.2 0-.4-.1-.5-.2-.1-.1-.2-.3-.2-.4 0-.2.1-.3.2-.4.1-.1.3-.2.5-.2h4.9c.2 0 .3.1.5.2.1.1.2.3.2.4 0 .2-.1.3-.2.4-.1.1-.3.2-.5.2h-.7c-.8 0-1.4.6-1.4 1.4 0 .3.2.7.5.9.3.2.7.4 1.1.4.5 0 1-.1 1.3-.4.3-.2.6-.6.6-1v-3.7h-7.3c-.3 0-.6-.4-.5-.7 0-.3.3-.5.5-.5H154l-2.7-2.6-.4-.4c-.2-.2-.3-.3-.3-.4 0-.2.1-.4.2-.5.1-.1.3-.2.5-.2s.4.2.8.5l.5.5 3.2 3h1.4c.5.1.5 1.1-.1 1.1z" style="fill:#fff"/></svg>