<svg xmlns="http://www.w3.org/2000/svg" xml:space="preserve" id="Layer_1" width="87" height="87" x="0" y="0" version="1.0"><style id="style9" type="text/css">.st0{fill:#612e87}.st1{fill:#ef6719}</style><g id="g228" transform="translate(.8 .8)"><path id="path13" d="M42.7 0C19.1 0 0 19.1 0 42.7s19.1 42.7 42.7 42.7 42.7-19.1 42.7-42.7C85.5 19.1 66.3 0 42.7 0" class="st1"/><path id="path15" d="M38.3 58.2c-1.6 0-3-1-3.5-2.5l-2.2-5.1H18.4l-2.3 5.3c-.5 1.4-1.9 2.2-3.3 2.2-1.8 0-3.3-1.5-3.3-3.3v-.1c0-.5.2-1 .4-1.5l11.3-25.5c.7-1.7 2.3-2.9 4.2-2.8h.4c1.8 0 3.5 1.1 4.1 2.8l11.3 25.5c.9 1.6.2 3.6-1.4 4.5-.5.4-1 .5-1.5.5z" class="st0"/><path id="polygon17" d="m108.2 112.3-4.5-10.7-4.5 10.7z" class="st1" transform="translate(-78.2 -67.9)"/><path id="path19" d="M72.4 43.8c0 9.8-5.5 14.6-14.2 14.6s-14-4.9-14-14.4V28.8c-.1-2 1.4-3.6 3.4-3.8 2-.1 3.6 1.4 3.8 3.4v15.4c0 5.3 2.6 8 7 8s7-2.6 7-7.8V28.8c-.1-2 1.4-3.6 3.4-3.8 2-.1 3.6 1.4 3.8 3.4v.4z" class="st0"/></g></svg>