<svg xmlns="http://www.w3.org/2000/svg" width="535.814" height="186.632" viewBox="0 0 88.723 30.588"><clipPath id="a"><path d="M22.324 841.676V22.324"/></clipPath><g clip-path="url(#a)" transform="matrix(1.25 0 0 -1.25 -363.122 733.821)"><path fill="none" stroke="#000" stroke-width=".498" d="M22.174 45H-.352m22.301 774H-.352"/></g><g fill="#f15a29"><path d="m19.807 29.577-13.742.01-.005-.368 10.118-.402c1.92-.074 3.785-.173 5.59-.787 3.7-1.238 6.649-3.757 7.515-6.877.932-3.344-1.207-6.595-5.238-6.876 3.414-1.002 6.326-3.164 7.1-5.951 1.008-3.616-.814-5.443-3.888-6.113 5.113-.081 9.113 1.636 7.752 6.531-.774 2.785-3.755 4.905-7.146 5.83a5.696 5.696 0 0 1 5.11 7.397c-1.098 3.445-3.876 5.583-7.576 6.817-1.806.615-3.667.716-5.59.79"/><path d="m12.596 27.845-6.492.308c-.002-.166-.009-.216-.027-.376l16.39-4.73.011-.263-16.616 3.998a2.325 2.325 0 0 0-.135-.348l17.451-9.69-.111-.27L5.219 25.6c-.11-.153-.093-.16-.216-.295l20.745-19.56-.18-.22L4.214 24.641c-.098-.073-.152-.13-.26-.194L19.107 2.344l-.269-.075L3.047 24.04c-.088-.029-.176-.058-.264-.083l8.67-21.378-.23-.025-9.776 21.215c-.12 0-.241.002-.364.01L1 23.786 7.299 1.03l11.766.037c5.566-.318 9.963 1.185 8.518 6.383-.777 2.785-3.686 4.95-7.082 5.875l-.02.074c4.03.28 6.3 3.524 5.37 6.869-.867 3.118-3.967 5.553-7.667 6.79-1.807.614-3.671.716-5.588.787M61.905 1.893c-.263 1.007-.724 1.063-1.3 1.063H59.48c-.94 0-1.016-.403-.826-1.063h1.112c-.108.343-.244.657.346.657.39 0 .52-.094.67-.638zm9.673 5.244-.844-1.09-.073.276c-.216.836-.206 1.179.306 1.179.285 0 .467-.111.61-.365zm-.642-1.61.843 1.098.083-.299c.17-.665.304-1.127-.302-1.132-.307-.005-.492.12-.624.334zm5.55-.546.225-.96h-3.154l-1.193 4.64h-1.067l.281-1.012c-.304.323-.84.425-1.269.425-1.162 0-.973-1.118-.796-1.804.173-.67.53-1.652 1.66-1.652.405 0 .852.11 1.011.392l.253-.99h-2.584l.16-.509h7.583l-.932-1.152.776-.57.994 1.722h.303l-.797-2.094.939-.417.548 2.511h7.161l-.16.51h-.598l-1.193 4.645H83.57l1.192-4.645h-.924l-.37 1.18h-1.491c-.485 0-.618.58-.817 1.436-.239 1.03-.424 1.651.246 1.651a.759.759 0 0 0 .214-.05c-.07-.635.294-1.373 1.044-1.373.686 0 .687.375.593.706-.13.467-.37.718-.831.848.238.447.81.482.81.482l-1.145.63c-.265-.312-.422-.586-.468-.905a3.39 3.39 0 0 1-.831.096c-1.375 0-1.146-1.346-.914-2.255.237-.937.646-1.758 1.776-1.758.405 0 .863.026.863.026l.201-.714h-3.002l-1.194 4.645h-1.066l1.193-4.645h-.854l-.426 1.636H76.3c.092-.357-.075-.491-.53-.491-.411 0-.533.058-.703.645-.121.502.023.608.52.596h.85c.626 0 .74.234.516 1.164-.274 1.047-.783 1.108-1.423 1.108h-1.247c-1.09 0-1.13-.486-.883-1.28h1.23c-.113.419-.36.831.354.831.432 0 .577-.105.74-.706.136-.434.17-.66-.487-.66 0 0-.583-.007-.86-.007-.732 0-.615-.619-.483-1.131.26-.945.444-1.068 1.533-1.068.669 0 .965.075 1.059.323zM47.03 7.511c.38 0 .54-.35.757-1.185.17-.665.297-1.125-.165-1.125-.485 0-.595.46-.765 1.125-.216.835-.235 1.185.173 1.185zm.198 1.149c.28-1.013.274-1.011.274-1.011zm-3.7-1.564-.851-1.104c-.03.104-.06.213-.089.331-.216.836-.206 1.179.306 1.179.3 0 .486-.124.634-.406zm-.638-1.608.834 1.082.066-.244c.17-.665.303-1.127-.302-1.132-.289-.005-.468.106-.598.294zm.82-1.977-.93-1.152.778-.57.993 1.722h.3l-.794-2.094.938-.417.549 2.511h6.213l-.16.51H49.44l-.267 1.077c.29-.324.647-.447 1.077-.447 1.16 0 .907 1.098.73 1.782-.17.672-.465 1.642-1.593 1.642-.223 0-.425-.044-.54-.148l.08-.3c.03.003.073.028.106.028.485 0 .618-.582.789-1.247.215-.835.233-1.184-.174-1.184-.338 0-.537.252-.728.892l-.633 2.545-1.059-.001.274-1.011c-.305.323-.645.434-1.073.434-1.163 0-.898-1.158-.722-1.843.172-.671.454-1.61 1.584-1.61.406 0 .66.098.818.38l.25-.99h-2.874l-1.193 4.64h-1.067l.28-1.011c-.306.323-.839.425-1.27.425-1.16 0-.93-1.186-.754-1.87.173-.67.49-1.586 1.618-1.586.407 0 .856.11 1.014.392l.25-.99h-2.6l.16-.509zm10.892 5.145H53.01l.136-.525h1.387c.352 0 .87-.198 1.05-.894.11-.44-.079-.95-.711-.95h-1.043l.138-.576h1.208c.428 0 .756-.365.883-.846.094-.366.072-.855-.564-.855h-1.296l.134-.526h1.56c.79 0 1.649.34 1.419 1.289-.17.706-.534 1.06-1.366 1.193.862.118 1.032.691.858 1.375-.325 1.259-1.665 1.315-2.2 1.315zm9.607-4.635h-.843l-.658 2.534c-.076.295-.068.513.29.513s.494-.338.57-.635zm-6.33-.51h9.545l-.16.51h-1.93l-.32 1.223c.298-.29.658-.422 1.077-.422.534 0 .935.264.818.723l-.686 2.667H65.1l.59-2.29c.076-.298.071-.528-.287-.528-.259 0-.436.217-.544.449l-.279 1.072c-.055.218-.368 1.528-.398 1.746H63.02l.355-1.423c-.314.297-.643.403-1.066.403-.534 0-.935-.266-.815-.726l.75-2.894h-.888L60.16 8.666h-1.066l1.193-4.645h-.844l-1.191 4.645h-1.067l.627-2.44h-.866l.147-.52h.853l.434-1.685h-.664zM45.971 2.246h1.016l-.227.846h-1.016zm15.41 6.073h1.015l-.228.843h-1.015zm12.884.832h1.015l-.23.846h-1.013zM42.769 15.37h.729c.63 0 .759.322.647.853-.177.835-.776.846-1.042.846h-.694zm.52-2.445h.771c.421 0 .651.325.558.762-.124.58-.544.762-.817.762h-.836zm-.116 5.061c.53 0 1.863-.065 2.184-1.581.176-.818.065-1.393-.795-1.516l.002-.018c.708-.132 1.154-.629 1.3-1.316.272-1.275-.457-1.55-1.412-1.55h-2.219l-1.27 5.981h2.21m4.885-2.02c-.097.455-.184 1.384-.874 1.384-.38 0-.355-.366-.29-.662.157-.749.578-.697 1.164-.722zm1.323-.845c.162-.763.106-1.4-1.376-1.4-.448 0-.844.074-1.152.273-.313.19-.54.515-.647 1.018h1.143c.072-.329.17-.637.574-.637.424 0 .418.258.342.615l-.067.32c-1.081-.015-2.164.042-2.457 1.426-.156.729.014 1.334.825 1.334.505 0 .89-.207 1.23-.637h.017l-.069.553h1.086c.03-.256.052-.521.107-.777zm2.069-1.317h-1.17l-.887 4.182h1.168l.613-2.882c.079-.372.206-.663.578-.663.374 0 .378.29.3.663l-.614 2.882h1.168l.714-3.353c.123-.58-.295-.912-.85-.912-.44 0-.782.131-1.094.505h-.016zm2.878 4.183.484-2.278h.017l.602 2.278h1.319l-.827-2.319 1.58-1.863h-1.216l-1.427 1.763h-.016l.757-3.563h-1.17l-1.27 5.982zm5.525-.662c-.43 0-.48-.274-.208-1.55.184-.87.32-1.31.817-1.31s.445.44.26 1.31c-.272 1.276-.438 1.55-.869 1.55zm-.156.745c1.506 0 1.9-.919 2.18-2.229.241-1.144.283-2.12-1.256-2.12-1.543 0-1.916.976-2.159 2.12-.278 1.31-.274 2.23 1.235 2.23m5.278-6.091a6.453 6.453 0 0 0-.412-.015c-1.426 0-1.46.637-1.708 1.84h-.53l-.153.719h.521l-.735 3.462h1.168l.735-3.462h.548l.152-.72h-.547l.108-.506c.09-.423.227-.606.693-.572zm2.247 3.39h.729c.63 0 .76.322.647.853-.179.835-.777.846-1.042.846h-.696zm.52-2.445h.77c.422 0 .652.325.558.762-.122.58-.543.762-.816.762h-.837zm-.116 5.061c.53 0 1.862-.065 2.184-1.581.174-.818.064-1.393-.796-1.516l.003-.018c.707-.132 1.153-.629 1.3-1.316.27-1.275-.458-1.55-1.412-1.55h-2.22l-1.27 5.981zm4.884-2.02c-.098.455-.186 1.384-.873 1.384-.381 0-.353-.366-.289-.662.158-.749.578-.697 1.162-.722zm1.324-.845c.162-.763.107-1.4-1.377-1.4-.446 0-.843.074-1.15.273-.315.19-.542.515-.649 1.018h1.144c.07-.329.17-.637.574-.637.423 0 .418.258.342.615l-.069.32c-1.081-.015-2.162.042-2.456 1.426-.154.729.015 1.334.826 1.334.506 0 .89-.207 1.23-.637h.017l-.068.553h1.083c.032-.256.055-.521.11-.777zm.899-1.317-.887 4.182h1.168l.484-2.277c.087-.414.23-1.012 1.244-.944l.221-1.044c-.471 0-.899.14-1.217.62h-.016l.114-.537zm3.266 3.521c-.43 0-.48-.274-.208-1.55.184-.87.32-1.31.817-1.31s.445.44.26 1.31c-.272 1.276-.437 1.55-.87 1.55zm-.157.745c1.507 0 1.9-.919 2.179-2.229.245-1.144.286-2.12-1.256-2.12-1.54 0-1.914.976-2.157 2.12-.278 1.31-.274 2.23 1.234 2.23m3.895-.721c-.421 0-.401-.438-.18-1.492.178-.836.294-1.417.8-1.417.48 0 .348.58.172 1.417-.223 1.054-.394 1.492-.792 1.492zm1.506.636 1.272-5.98h-1.17l-.467 2.195h-.014c-.166-.357-.43-.48-.852-.48-1.177 0-1.419 1.3-1.599 2.144-.182.864-.51 2.205.7 2.205.447 0 .801-.14 1.103-.547h.015l-.096.463zm3.054-2.02c-.096.455-.186 1.384-.873 1.384-.38 0-.354-.366-.29-.662.159-.749.578-.697 1.163-.722zm1.325-.845c.162-.763.107-1.4-1.377-1.4-.447 0-.843.074-1.152.273-.313.19-.54.515-.646 1.018h1.143c.07-.329.167-.637.575-.637.422 0 .417.258.342.615l-.07.32c-1.08-.015-2.163.042-2.458 1.426-.154.729.016 1.334.828 1.334.505 0 .89-.207 1.227-.637h.017l-.067.553h1.087c.028-.256.05-.521.108-.777z"/></g><path fill="#152b75" d="M65.883 29.485h21.84v-8.358h-21.84z"/><g fill-rule="evenodd"><path fill="#fff" d="M70.207 23.993v-.132h.63l.222.012.203.028.177.037.184.054.195.074.19.093.138.084.158.114.137.12.122.13.1.127.091.147.074.15.052.143.04.165.018.15.003.16-.016.16-.03.146-.048.146-.067.153-.088.155-.101.15-.12.145-.136.134-.15.12-.152.098-.162.08-.167.064-.17.047-.176.033-.279.025-.208.012-.237.005h-.427l.001-.634v-.753h.073l.725-.002.069-.005c.44-.107.432-.633-.022-.702l-.092-.002h-.754v-.521zm-2.077-.132v3.461h1.89v-3.46z"/><path fill="#fff" d="M69.042 27.036h-.758l.001-1.562.002-.016.006-.004.043-.01.021-.012.02-.015.014-.018.01-.019.008-.03.003-.02-.002-.027-.01-.038-.017-.032-.04-.051-.039-.052-.024-.042-.015-.038-.006-.028-.002-.026.002-.03.007-.031.01-.024.022-.03.03-.028.025-.017.032-.016.02-.008.004-.006-.001-.007-.03-.043-.012-.03-.005-.02-.004-.026-.002-.031.004-.033.008-.026.013-.03.027-.044.016-.02.02-.019.024-.019.03-.018.037-.015.034-.01.037-.006.032-.003.051.005.038.005.007-.003.005-.009.014-.029.017-.03.028-.034.031-.03.04-.027.03-.017.029-.011.058-.014.057-.007.064.006.016.003.023.005.035.012.042.02.032.02.034.028.02.022.029.039.02.036.009.02.006.003h.013l.067-.015.043-.003h.037l.036.007.042.014.034.018.02.014.019.019.03.04.01.02.01.024.006.032.004.035-.004.052-.01.033-.018.034-.04.056v.006l.005.006.024.004.027.005.021.008.03.017.028.025.017.02.016.028.01.033.003.021-.002.04-.012.04-.022.044-.023.035-.034.05-.03.055-.017.05-.003.038.007.032.013.031.012.016.018.02.022.016.024.01.03.007.004.005.002.022.001.04v1.514h-.733z"/><path fill="#ed1c24" d="M69.05 27.037v-.008l-.015-.015-.023-.016-.035-.026-.017-.021-.02-.034-.004-.005-.008-.001-.059.01h-.03l-.068-.016-.014-.005-.003-.007v-.006l.018-.025v-.004l-.006-.004-.016-.006-.045-.017-.036-.007-.006-.003-.004-.006.003-.006.02-.018.022-.011.038-.016.006-.004v-.007l-.05-.057-.022-.034-.01-.019-.022-.031-.006-.014.002-.007.008-.011.005-.019.004-.005.016-.004.01-.004.01-.014.005-.003h.028l.007-.001.013-.013.006-.002.011.004h.007l.01-.009.011-.005h.009l.013.005.007.001.007-.002.01-.01.008-.004.022.006.007-.002.011-.012.006-.018-.005-.038-.003-.018-.004-.057-.012-.067-.003-.046-.003-.036-.002-.032-.006-.048-.01-.072-.005-.014-.011-.042-.007-.036-.005-.035-.005-.028-.016-.11-.002-.06v-.056l.007-.064.016-.068.021-.06v-.006l-.003-.002h-.008l-.01.005-.008.01-.018.024-.04.046-.015.014-.008.01-.005.02-.01.014-.006.017-.007.008-.01.007-.007.008-.004.015v.052l-.002.03-.005.023-.006.012-.007.004-.021.003-.009.005-.012.007-.026.003h-.008l-.007-.008-.007-.013v-.011l.01-.025v-.007l-.002-.002-.01-.003-.007-.004-.004-.006v-.007l.013-.044.011-.028.01-.018.023-.025.004-.023.012-.013.007-.016.013-.015.026-.04.017-.036.018-.038v-.009l-.002-.011-.025-.033-.03-.056-.01-.01-.014-.004-.008-.006-.007-.013-.01-.014-.005-.014.001-.017-.014-.024-.005-.004-.003.001-.003.011-.006.005h-.003l-.003-.002-.001-.008.01-.032.001-.013-.006-.019v-.012l.006-.014.017-.02.024-.02.002-.004-.012-.012-.002-.006.002-.007.005-.004.027-.008.004-.005-.001-.007-.006-.005-.02.003-.006-.003-.002-.003v-.013l-.003-.007-.014-.005-.025-.013-.013-.012-.01-.013-.001-.007.005-.005.023-.01.01-.006.007-.002.014-.005.016-.003.014-.006h.016l.01-.005h.007l.01.004h.017l.023.006.009.005.007.007v.007l-.012.02-.015.02-.008.005-.007.008v.007l.006.014v.007l-.003.005-.008.002-.015-.004-.008.001-.002.003-.002.008v.018l.017.041.006.029-.007.059.003.01.014.015.006.019.009.014.005.015.016.022.024.023.006.002h.003l.004-.006.026-.11.013-.03.029-.052.007-.017.01-.021.015-.015.01-.013.001-.009-.002-.007-.017-.016-.034-.029-.043-.051-.022-.04-.014-.035-.01-.033-.004-.035-.002-.029.002-.038.007-.04.012-.04.024-.051.015-.023.03-.036.015-.014.009-.01.028-.02.037-.021.047-.02.023-.006.04-.008.033-.001.039.002.036.007.03.007.034.013.04.022.025.017.025.019.024.027.02.024.03.047.016.045.01.04.003.029.002.038-.001.026-.009.04-.012.038-.015.036-.02.032-.015.02-.02.022-.027.025-.017.012-.006.008v.007l.013.016.01.015.013.03.01.01.013.013.024.03.023.039.01.02v.013l-.006.017-.005.015v.008l.002.003h.004l.006-.002.02-.015.005-.008.002-.017.006-.01.017-.01.006-.012.017-.017.002-.007-.01-.08.004-.025.02-.028.003-.009v-.003l-.007-.002h-.026l-.003-.003v-.008l.006-.014-.001-.008-.005-.005-.014-.009h-.017l-.006-.002-.004-.005-.001-.008.007-.021.016-.014.006-.003h.017l.017-.007.015.002.01-.004.014-.001.012-.001.01-.004.01.002h.02l.011.006.016.003.01.006.002.007-.003.01-.014.021-.028.023-.004.006.003.011-.001.008-.006.005-.014.004v.002l.012.007.007.008v.008l-.008.011v.004l.002.006.012.018.007.013v.013l-.007.026.002.008.012.016.007.017v.004l-.003.002h-.004l-.003-.002-.004-.005-.005-.004h-.007l-.003.003-.016.04-.002.022-.002.006-.015.015-.007.015-.007.008-.015.01-.009.01-.027.043-.034.043v.006l.021.032.025.031.015.01.02.014.023.009.011.003.008-.002.008-.006.018-.011.015-.004.038-.001.015-.004.007.003.006.008.005.005.008.001.024.005.02.007.02.009.006.008v.007l-.014.025-.006.004h-.014l-.007.003v.003l.002.006v.007l-.004.004-.007.002-.053-.003-.042.006-.03.001-.018-.002-.018-.005h-.008l-.014.006h-.013l-.013-.006-.018-.005-.012-.006-.02-.02-.03-.017-.042-.028-.02-.019-.03-.036h-.007l-.006.004-.01.022-.005.022.005.028.012.06.009.05.006.066v.04l-.004.063-.008.063-.009.05-.01.062-.022.096-.001.032.002.027.002.022.007.046.002.037-.002.018-.001.055-.004.034.003.03v.036l-.007.041v.018l.005.02.007.012.006.004h.008l.013-.005.011-.005.008.001.014.015.007.002.023-.005.009.001.007.007.009.006.007.001.02-.004h.013l.007.003.01.013.007.003h.028l.009.004.011.018.008.002.012-.001.016.001.006.004.005.02.005.003.023.006.009.005.003.006-.003.006-.002.007.006.009.002.006-.002.006-.022.02-.042.044-.028.03-.038.036-.033.026-.004.005.003.005.037.02.023.016.018.02.003.006-.002.008-.004.001-.037.002-.055.007-.006.004v.008l.012.019v.006l-.006.004-.012.002-.033.006-.05.007-.04-.002-.027-.007-.012-.001-.005.004-.012.021-.02.027-.012.012-.026.031-.005.009v.008l-.001.005zm.09-.513-.003-.009v.006zm-.138-.069.002.003v-.003zm-.163-1.028-.002.009v.008l.002.002h.012l.008-.005.006-.009.003-.017.002-.02-.004-.02-.006-.005h-.002l-.003.002-.005.01zm.362-.452.01.014.006.002.012-.008.014-.013.014-.01.019-.02.02-.031.019-.034.013-.038.009-.043.003-.04-.001-.031-.01-.049-.01-.033-.008-.017-.025-.041-.026-.032-.022-.02-.028-.02-.036-.02-.041-.016-.05-.01-.04-.003-.028.002-.028.005-.042.012-.04.018-.031.02-.022.018-.025.022-.017.025-.028.044-.014.033-.006.017-.007.036-.004.042.003.033.005.038.012.041.017.031.02.028.024.03.017.015.023.018.007.002.006-.004.015-.022.005-.014.002-.04.01-.02.007-.03.005-.022.003-.02.006-.019.02-.028.004-.014.005-.032-.001-.022.003-.015.001-.014.002-.016.005-.009.014-.01.025-.027.017-.03.001-.02.004-.01.009-.01.007-.002h.008l.007.008.006.012.003.023.014.029.02.022.017.016.008.012.003.012-.002.012-.004.02.007.045.005.015.01.014.012.017.006.017.008.05-.002.023.01.043.003.027zm.237-.004.01.002h.023l.018-.006.012-.007.006-.008.004-.012-.002-.007h-.011l-.01-.006h-.003l-.009.007h-.007l-.007-.002h-.006l-.005.005-.005.004h-.004l-.007-.003h-.005l-.01.008h-.002l-.012-.008h-.003l-.002.002-.001.004.002.008.005.009.012.006zm-.844.015.025.003.029-.003.032-.01.013-.007.008-.01v-.009l-.001-.001-.01-.004-.007-.001-.012.006h-.003l-.005-.01-.006-.004-.003.001-.002.003-.002.007-.003.005-.004-.004-.006-.008-.007-.002-.003.002-.005.01-.005.003h-.002l-.005-.005-.006-.004-.009.005h-.01l-.004.001-.004.006-.009.003v.006l.014.015zm.937-.045-.006.004-.002.007h.002l.004-.004zm-.474-.128-.005-.005-.002.002-.002.003v.003l.002.002h.004l.003-.002zm.084-.02-.006.007.001.002.006.004h.003l.001-.002-.001-.007zm-.122.011-.008-.002-.003.002-.001.003.002.002.003.001h.004l.003-.003zm-.044-.01-.003-.006v-.004l.004-.002h.007l.004.006.003.005h.006v-.002l-.003-.01v-.006l-.002-.001-.01.002-.015.01-.008.012-.001.007.001.003.003.001.01-.004.006-.004zm.138-.014-.004.007v.001l.001.003h.008l.006-.002.005-.01-.001-.003-.003-.002-.013-.005v.004zm-.015-.013-.006.012.005.006h.003l.001-.003v-.004l.003-.01h-.002zm-.093.002.003.007.004.01.002-.001.002-.004v-.008l-.003-.003zm.106-.041-.007.011.001.003h.006l.003-.002v-.019l-.004-.01-.008-.006-.023-.006-.03-.002-.023.002-.018.007-.004.004.01.007.003.006v.007l-.004.005-.007.002-.003-.001-.003-.003-.002-.007-.003-.01h-.002l-.006.008-.002.012.002.008.008.002.027-.002.014-.005.016-.004.019.004h.012l.003-.001.003-.011.008-.006.007-.001.004.002zm-.069-.014.005-.006.006-.001.011.004.004.006v.006l-.008.008-.007.001-.005-.002-.005-.005zm.022-.032.028.004.002-.002v-.004l-.001-.002-.007-.003-.038-.003-.027.002-.006.004v.003l.002.002.004.001.02-.003zm.014-.031.024.002.008-.001v-.002l-.001-.002-.023-.005h-.037l-.045.004-.007.003v.002l.002.003h.005l.028-.005zm-.038-.031h.034l.001-.003v-.003l-.003-.002-.008-.002h-.018l-.008.002-.002.003.002.003z"/><path fill="#fff" d="m69.11 26.482-.009-.015-.032-.05-.006-.017-.006-.013-.002-.01-.01-.03-.005-.004-.002-.014-.006-.024-.008-.016-.015-.072-.006-.047-.004-.025v-.009h.002l.006.007.008.024.001.014.003.011v.013l.007.027.012.057.013.04.016.046.026.052.019.033.019.035-.001.003-.008.002h-.003l-.003-.003v-.008zm-.13-.055-.013-.036-.011-.042-.004-.022-.011-.056-.004-.034-.002-.03v-.012l.003-.025-.002-.013.002-.007h.002l.003.004.012.066.012.102.006.042.01.034.009.039.002.007v.002h-.003l-.006-.007zm.17-.213-.019-.009-.02-.01-.016-.015-.024-.03-.017-.04-.009-.037-.006-.044-.003-.05.004-.004h.002l.003.006v.022l.005.036.002.03.01.03.014.036.013.022.025.022.009.01.02.013.02.008.008.007.002.002-.001.002-.006.003-.002-.005-.001-.003-.002-.001zm-.281-.152.017-.022.031-.03.021-.021.017-.022.028-.047.03-.052.017-.039.01-.022.023-.058.02-.06.033-.098.037-.091.016-.041.008-.028.018-.044.057-.118.018-.029.018-.03.003-.01v-.013l-.009-.019-.012-.017-.012-.011-.016-.004-.05-.045-.015-.008-.007-.001h-.004l-.003.007v.062l-.003.002-.015-.051-.006-.014-.005-.003-.003.001-.003.01-.003.028-.002.016v.011l-.012.059-.01.064-.008.036-.018.07-.025.078-.013.045-.024.061-.006.012-.006.014-.002.002h-.002L69 25.58l.017-.04.016-.048.01-.03.002-.015-.001-.01.007-.024.01-.032.016-.051.008-.04.003-.015.004-.013.003-.023.003-.021.006-.032.003-.012.004-.028.003-.01.002-.017.007-.062.006-.01h.002l.044.022.04.022.028.013.03.024.019.027.022.036.01.02v.007l-.009.015-.05.087-.028.063-.01.022-.016.036-.02.055-.037.128-.023.062-.007.017-.019.051-.006.018-.06.129-.015.027-.01.019-.013.02-.026.035-.034.034-.032.029-.027.016-.007.001-.003-.001-.004-.007zm-.03-.525.01-.024.034-.07.008-.033.003-.021-.01-.048-.008-.026.001-.018.006-.018.022-.03.03-.032.037-.03.064-.036.04-.022.006-.003h.003v.007l-.007.013-.015.022-.019.018-.025.019-.057.038-.04.035-.015.015-.005.014-.002.017.001.033.005.034v.024l.002.004.003.003.007-.002.031-.017.01-.005h.003v.001l-.006.012-.022.026-.019.014-.02.014-.017.017-.015.022-.026.055-.002.001h-.001v-.011zm.369-.282v-.022l.001-.02.002-.001h.002l.004.01.002.028-.004.024-.005.008-.002-.008zm-.16 1.732-.03-.018-.016-.012-.014-.02-.01-.019-.001-.018.003-.01.01-.02.02-.013.028-.005.016-.002.022.002.035.012.019.01.01.013.006.014v.011l-.007.021-.01.016-.014.014-.04.032-.007.001-.01-.004zm.194-.079-.032-.01-.025-.013-.017-.011-.007-.008-.001-.002.001-.004.009-.006.037-.01.014-.001.029.004.021.007.03.017.013.01.004.006v.004l-.004.004-.04.013zm-.403-.017-.013-.002-.025-.007-.003-.003.002-.005.009-.01.018-.01.025-.01.03-.008h.014l.04.007.017.005.005.005-.002.008-.017.011-.026.012-.029.006-.031.002zm.505-.048-.027-.006-.009-.006-.002-.003v-.006l.007-.003.016-.002.03.003.024.01.006.004.002.003v.002l-.007.003-.028.002zm-.283-.02-.016-.006-.017-.012-.019-.02-.014-.03-.008-.034v-.033l.004-.015.006-.026.014-.024.03-.042.026-.025.01-.005.007-.002.01.006.037.043.025.037.014.044.004.025-.003.035-.005.018-.008.02-.016.022-.015.013-.012.008-.03.006zm-.273 0h-.013l-.052-.015-.002-.002-.001-.003.004-.005.016-.007.024-.005h.014l.025.01.036.015.002.002v.003l-.007.004-.02.005zm.381-.027.015-.036.007-.04v-.036l.008-.021.011-.022.014-.015.031-.026.029-.014.013-.003.008.002.002.003v.007l-.014.03-.01.04-.008.03-.02.047-.016.026-.02.018-.021.017-.023.01-.008.001-.003-.002v-.003zm.087-.013.014-.025.012-.03.013-.047.01-.02.019-.023.035-.022.03-.01h.012l.002.003-.001.007-.018.03-.04.073-.022.03-.034.029-.031.02-.008.003h-.003l-.001-.001zm-.294.015-.017-.012-.016-.018-.026-.041-.011-.031-.016-.048-.008-.025-.013-.034v-.003l.007-.004h.018l.022.007.041.02.014.01.012.016.004.01-.006.035v.032l.001.02.005.03.014.04v.003l-.003.002-.007-.001zm-.074-.004-.018-.01-.011-.009-.016-.013-.008-.01-.022-.036-.016-.037-.017-.05-.009-.02V26.6l.003-.002h.012l.027.012.018.01.009.011.007.02.01.016.001.01.002.013.027.058.02.033.01.01.001.003v.002l-.008.002zm.473-.064.035-.065.01-.013.019-.015.012-.006.023-.008h.013l.007.003.002.002-.001.006-.017.017-.056.058-.034.029-.014.01h-.006v-.002zm-.592-.002-.017-.016-.025-.032-.016-.033-.011-.027v-.006l.008-.003.025.009.015.01.007.01.02.053.016.042v.006h-.004zm.4-.11-.005-.014.002-.007.007-.007.015-.005h.007l.006.004.005.01v.008l-.013.021-.007.006h-.007l-.006-.01zm.155-.023.01-.013.01-.007.01-.001.007.002.002.013-.002.007-.008.006-.03.014h-.003l-.002-.002.001-.008zm.113-.003-.003-.006-.007-.002-.028.002h-.013l-.006-.004-.006-.018-.004-.005-.006-.004-.031.002-.006-.004-.005-.014-.005-.004-.007-.001-.022.007h-.01l-.016-.007-.02.004-.012.003-.006-.003-.015-.014v-.004l.001-.002.015.003.007-.004.02-.013.008-.002.006.004.007.016.007.003.007-.001.022-.013h.011l.004.006.006.014.007.003.01-.003.014-.007.007-.002.007.002.003.007.003.012.006.004.024-.004.013.001.004.005.002.014.004.006.007.003.026-.002.003.001.002.007.002.008.005.005.014.004v.001l-.05.013h-.005l-.003-.001-.001-.003zm-.472.006-.01-.01-.001-.007.007-.007.007-.003.007.002.013.01.005.009v.007l-.003.01-.006.004-.007-.002zm.25-.02-.008-.014v-.003l.003-.002.015.004.01-.004.008-.006h.007l.01.009.008.002.029-.01h.003l.003.002v.003l-.005.005-.035.012-.026.014-.007.001-.006-.003zm-.48-.01-.008.004-.002.003v.014l-.009.002-.035-.009-.004-.004v-.003l.002-.002.014-.006.013-.012.006-.002.015.004.008-.001.015-.014.006-.003.018.006.007-.002.01-.01.005-.004h.008l.012.008h.007l.008-.002.013-.017.007-.002.022.005.014-.005h.007l.002.003v.003l-.002.002-.014.006-.014.015-.013.01h-.009l-.01-.004-.017-.006h-.018l-.006.003-.013.016-.01.005h-.013zm.075.002.006.004.001.003v.002h-.006l-.006-.004-.001-.002zm.077-.02.008.001.003.006v.003l-.008.002h-.005l-.003-.002-.002-.003zm-.097-1.187-.012-.003-.002-.003v-.003l.002-.002h.009l.03.009.002.002v.002l-.008.002h-.013zm.01-.028-.013-.005-.006-.004v-.005h.008l.037.016.002.002-.001.002h-.008zm.003-.022-.019-.01-.003-.005.002-.002h.007l.04.017.002.002v.002h-.014zm.05-.044-.006.02-.005.004h-.008l-.028-.006-.015-.007-.008-.008-.002-.011.009-.04.007-.025.01-.024.015-.026.015-.015.022-.016.03-.017.016-.005.007.002.002.004.001.018.004.025.008.02.003.012-.002.007-.04.042-.005.004h-.003l-.003-.003-.004-.01-.002-.002-.007.002-.006.008-.003.012zm-.228.498.007-.013.003-.002v.013l-.01.02-.004.004h-.003v-.006zm-.03-.01-.005.014-.005.009h-.003l-.001-.002v-.004l.002-.007.01-.028v-.022l.005-.01.016-.014v-.003l-.002-.002h-.008l-.013.002-.004.004-.002.008-.004.015-.005.005h-.003l-.001-.002-.001-.004.004-.011.015-.046.01-.019.012-.011.02-.014.012-.001.012.002.012.007.003.006-.001.011-.004.034.002.021v.018l-.007.01-.007.002-.02.003h-.031l-.004.006zm.061-.008.003-.005.002.006v.015l-.004.006-.003.002-.002.001-.001-.002zm.847-.187-.028-.005-.01-.005-.004-.005-.002-.008v-.012l.008-.012.006-.004.02-.003.009-.006.007-.007.014-.01.01-.003.048-.007.003.002v.005l-.01.005-.015.004-.005.004-.013.026-.004.005v.004l.004.004h.006l.007-.007.008-.012.005-.004.018-.005.002.001.006.02-.009.01-.008.011-.009.005-.036.009zm.095-.01-.001-.003.001-.002.003-.003.008-.001.01.004.008.007v.002l-.002.002-.012-.002zm-.905.001-.012-.006-.004-.007v-.007l.018-.048.02-.033.032-.044.009-.023.005-.005h.012l.047.009.005.005.002.007-.008.03-.016.035-.017.026-.023.03-.03.031-.015.01h-.008zm.932-.022-.017-.002h-.004v-.003l.011-.002.025.002.012.004.002.002v.002h-.007l-.01-.003zm-.274-.03-.027-.016-.023-.02-.014-.019-.014-.024-.006-.022.003-.015.02-.05.01-.015.006-.004h.007l.007.006.021.062.01.013.049.057.003.01-.003.007-.013.02-.008.016-.007.003-.01-.004zm-.643-.115-.025-.038-.017-.035v-.008l.004-.006.024-.015h.007l.006.004.017.022.024.028.003.013-.007.027-.008.015-.006.004h-.008l-.009-.006zm.635-.046-.008-.031v-.008l.006-.009.02-.018.017-.01.01-.002.006.003.024.018v.004l-.002.01-.017.026-.016.017-.02.014-.007.003h-.004l-.005-.006zm-.736-.11-.006-.009-.005-.014.003-.012.001-.003h.003l.007.001h.004l.003-.006.013-.035-.002-.013-.004-.013.002-.008.002-.002.003-.002h.003l.005.006.007.022.002.016.006.018v.04l-.004.01-.014.01-.006.003h-.008zm.836-.022-.005-.006-.002-.007.006-.033-.01-.063.002-.013.005-.013.001.011.002.002.003.002.005-.004.01-.015.003-.002.003.001.001.003-.001.008-.009.016v.012l.013.027.005.019.001.007.003.003h.004l.007-.007.002.001.002.007-.003.02-.008.016-.011.012-.008.002-.012-.002zm-.503-.077-.004-.021v-.01h.002l.022.035.003.008v.003l-.007.004-.006.003-.003-.001-.004-.006zm.044-.004-.009-.02-.002-.017.003-.01.008-.02.004-.01.003-.002.006.001.02.01.02.007h.024l.015-.004.014-.005h.003l.003.006v.007l-.006.013-.022.021-.025.018-.03.015-.01.002h-.01l-.004-.005zm-.37-.004.006.005v.005l-.003.003h-.007l-.002-.003v-.008zm.032-.024.001-.002.005.004.005.015v.004l-.001.002-.004-.004zm.838-.028.002.003v.009l-.003.003-.003.001-.003-.001-.002-.008zm-.534-.061-.003.013.005.005h.006l.005-.006.001-.007-.004-.006-.006-.003zm.002-.148-.003-.007h-.003l-.002.003v.007l.004.001.003-.001zm.107-.085-.003-.007h-.003l-.003.004v.004l.001.002.003.001.003-.001zm.007.007-.002-.005h-.003l-.002.003v.003l.001.002h.005zm.087.073.003.002v-.003h-.002zm-.08.18-.012.005-.019.004-.019-.006-.02-.012-.011-.013-.011-.013-.012-.022-.004-.004h-.008l-.007.001-.004-.006v-.007l.002-.003h.003l.006-.003.002-.003v-.008l-.005-.015-.005-.004h-.01l-.01-.01-.003-.01.002-.008.003-.002h.013l.007.003.005.002.003-.002.012-.017.018-.033.008-.011.012-.008.018-.005.019.004h.017l.013-.005h.008l.016.008.01.01.008.02v.007l-.002.002h-.021l-.02.004-.002.003v.004l.001.002.007.003.022-.001.01.003.012.003.008.002.003.006.003.016.006.014.003.01v.02l-.003.006-.004.003-.01-.002h-.002l-.005.01-.007.017-.022.025zm.059-.037v.013l.005.005h.004l.002-.001.005-.01v-.006l-.003-.006-.006-.003-.003.002zm.028-.1-.006.009.003.006.006.002.003-.002v-.012l-.003-.003z"/><path fill="#ed1c24" d="m69.029 25 .01.007.012.002.014-.005.011-.008.002-.008-.001-.003-.01-.005-.006-.004v-.002l.004-.009v-.002l-.004-.002h-.01l-.015-.004h-.007l-.002.003.003.005.01.009.002.002-.013.005-.007.008v.003zm.051-.083.007.009.01.003.008-.002.012-.007.007-.007v-.006l-.008-.008-.009-.004-.012-.002-.012.003-.007.007-.002.006zm-.057.002h.012l.005.007.003-.001.002-.008-.003-.01-.014-.011v-.002l.003-.002.005-.005v-.003l-.002-.003-.012-.008-.015-.003-.016.002-.01.005-.004.005v.003l.002.002.003.002.016-.004.007.002-.001.002-.012.003-.01.01v.007l.008.005.006.009.011.003.008-.001zm.037-.056-.008.003v.008l.005.005h.004l.005-.004v-.007z"/><path fill="#fff" d="m69.065 24.77-.002-.005h-.003l-.001.002v.006h.005zm-.013-.003-.002-.006h-.002l-.002.003v.005l.003.001.002-.001zm-.005.012-.002-.005h-.003l-.001.002v.006h.005zm.009.011-.003-.006h-.002l-.002.003v.003l.001.002h.005zm-.088.052-.003-.007h-.002l-.003.004v.004l.001.002.003.001.003-.001z"/><path fill="#fff" d="m68.966 24.839-.003-.007h-.003l-.002.003v.007l.004.001.003-.001zm.017-.021-.003-.006h-.003l-.002.003v.004l.001.003h.006zm.112-.01-.003-.007h-.003l-.002.003v.004l.001.003.003.001.003-.001zm.049.031-.003-.007h-.003l-.003.003v.004l.001.003.003.001.003-.001zm-.022-.019-.003-.006h-.002l-.003.003v.004l.001.003.003.001.003-.001z"/></g><path fill="#fff" d="M76.266 25.29h7.478v.246h-7.478z"/><path fill="#fff" fill-rule="evenodd" d="M77.816 27.169h-.366l-.034-.008-.012-.011-.009-.037.003-.21.013-.035.034-.015.054-.006.013-.01.008-.016.006-.828-.013-.035-.015-.01-.074-.013-.013-.012-.012-.035.002-.215.015-.033.03-.014h.504l.24.018.134.042.06.037.123.11.056.08.05.104.036.11.026.15.005.135-.005.135-.034.168-.049.126-.06.095-.113.117-.09.062-.1.028-.152.026h-.192zm4.014-.867-.005.057.01.012.016.005.087-.002.068-.006.011-.01.004-.017-.002-.019-.085-.33-.01-.01-.01.005-.009.015zm-3.96.393.001.103.007.035.012.01.05.013.136-.021.08-.035.06-.045.046-.062.038-.088.02-.094.005-.156-.015-.116-.035-.11-.043-.064-.056-.05-.065-.032-.066-.023-.142-.013-.017.007-.011.014-.006.038zm1.705.476-.536-.002h-.243l-.017-.007-.013-.013-.01-.039v-.213l.005-.02.011-.016.035-.01.052-.007.013-.012.009-.037v-.599l-.007-.228-.008-.012-.034-.01-.037-.003-.016-.006-.012-.012-.009-.035.001-.217.005-.019.01-.015.034-.012.863-.002.158.003.017.004.014.01.013.035-.003.324-.003.153-.007.017-.012.014-.034.01-.14-.006-.028-.02-.072-.2-.013-.013-.036-.01h-.263l-.016.006-.014.01-.01.037v.154l.007.018.011.011.034.007.142-.002.018.006.014.012.008.016.002.23-.009.06-.01.014-.016.009-.174.008-.014.009-.01.015-.003.058.001.194.006.017.011.012.033.008.267-.003.015-.005.014-.012.022-.073.047-.17.01-.016.015-.01.036-.007.14.005.016.007.01.014.006.057-.007.486-.005.018-.01.013-.033.01zm1.29-.017-.026-.029-.384-.771-.011-.011h-.01l-.01.033v.35l-.004.077.003.018.009.016.03.015.054-.001.016.004.013.012.009.038-.005.23-.008.016-.03.013-.469.008-.036-.005-.016-.009-.011-.015-.007-.038v-.213l.008-.018.013-.013.034-.008.036-.001.016-.006.012-.012.008-.038.002-.668-.004-.153-.009-.015-.015-.009-.058-.004-.017-.006-.012-.013-.008-.038-.002-.213.014-.033.013-.01.088-.005h.085l.085-.004.122.001.033.012.034.045.344.703.012.008.008-.007.002-.06-.004-.153.001-.18-.004-.02-.01-.017-.014-.01-.086-.01-.01-.012-.008-.037-.002-.215.016-.036.034-.013h.481l.035.009.013.013.009.037-.002.196-.01.04-.013.013-.068.015-.013.01-.012.035-.005.248-.007.882-.005.018-.01.013-.033.011-.138.003zm1.442.015h-.174l-.069-.005-.017-.005-.014-.011-.013-.035v-.196l.006-.04.011-.015.016-.01.037-.005.016-.008.009-.014v-.04l-.024-.093-.008-.016-.013-.01-.123-.008-.158.001-.017.006-.011.011-.02.073-.012.057.002.018.01.014.055.018.013.01.012.036.003.136-.006.08-.006.02-.012.014-.015.01-.325.007-.155-.005-.019-.006-.013-.012-.01-.035-.004-.213.005-.019.011-.015.034-.014.037-.005.015-.008.012-.012.067-.256.144-.587-.002-.018-.009-.013-.032-.009-.035-.005-.014-.01-.015-.037v-.214l.003-.02.01-.015.013-.011.053-.008.345.003.432.002.017.007.012.012.01.057.002.097-.007.098-.006.02-.01.014-.035.014-.036.008-.011.011-.005.017.023.113.18.725.01.015.015.01.056.007.016.01.01.015.007.04-.003.197-.004.02-.01.015-.015.01-.138.007zm-.28-1.956-.556-.002-.034-.006-.015-.01-.014-.03.002-.063.015-.028.031-.01.106-.01.014-.01.009-.013.006-.188-.003-.498-.006-.094-.009-.012-.032-.01-.352-.002-.036.006-.012.01-.011.03-.003.64v.11l.006.015.012.012.034.009.109.004.016.008.011.013.008.047v.048l-.007.014-.012.01-.035.01h-.811l-.018-.004-.014-.01-.015-.029.002-.065.013-.03.031-.012.106-.002.015-.006.012-.01.008-.032.006-.265-.007-.063-.009-.012-.032-.013-.351.006-.035.01-.012.012-.009.03-.004.128-.01.046-.024.042-.041.033-.052.015-.07.004-.123-.024-.113-.042-.104-.06-.063-.052-.052-.063-.03-.073-.004-.048.024-.077.04-.055.042-.03.065-.025.102-.016.577-.005.262-.008.015-.008.014-.028.001-.1-.01-.03-.012-.01-.052-.005h-.56l-.638-.002-.019.004-.014.009-.01.013-.012.254-.008.014-.013.01-.037.007-.876-.007-.156.002-.052.01-.046.024-.035.038-.016.047.004.049.023.041.042.03.082.033.123.017h.104l.087-.014.085-.027.074-.042.096-.09.032-.015.07-.004.374.007.018.003.015.009.01.013.005.05.005.31.004.015.009.012.032.008.09.007.017.004.014.01.013.03v.065l-.005.016-.012.012-.015.007-.348.004-.178.002-.282-.007-.016-.005-.013-.011-.01-.033.001-.066.007-.014.013-.01.035-.01.072-.003.017-.005.014-.01.009-.03-.002-.05-.007-.014-.012-.008h-.036l-.22.046-.192.028-.176.013h-.141l-.172-.019-.1-.026-.097-.044-.07-.052-.052-.061-.025-.06-.013-.06.002-.065.02-.077.05-.083.063-.06.057-.033.098-.034.12-.016.353.002.507.001.035-.008.01-.012.007-.032-.003-.033-.005-.015-.012-.01-.037-.007-.875-.006-.108-.003-.016-.006-.01-.01-.008-.031.004-.081.005-.015.01-.01.033-.009h.283l.386.002.401-.002.018-.004.01-.01v-.013l-.037-.034-.15-.109-.11-.055-.084-.028-.12-.02h-.07l-.09.018-.15.058-.016-.003-.026-.021-.152-.262-.006-.03.006-.015.026-.02.099-.036.135-.03.071.001.106.019.11.046.202.12.594.424.032.008.367.005h.697l.799-.002.469.005.296.001h.497l.018.002.015.008.015.027.002.066-.005.031-.006.014-.013.01-.053.008-.163.006-.016.006-.013.01-.008.032v.732l.01.029.01.01.034.006.107.005.03.012.01.013.003.079-.01.03-.014.01-.037.006z"/><path fill="#ff0" d="M46.75 29.485h16.278v-8.358H46.75z"/><path fill="#d40000" d="M41.055 29.485h5.696v-8.358h-5.696z"/><g fill-rule="evenodd"><path fill="#fff" d="m44.014 22.01-.005.011c-.01.024-.025.07-.047.085l-.003.002v.041l-.004.002c-.036.019-.048.11-.061.146l-.003.006h-.013l-.001.007c-.003.023-.01.047-.013.07v.007h-.014v.028h-.014v.028h-.007l-.003.001-.001.001-.001.002v.004c-.002.005-.003.004-.007.006h-.008v.03c.002.067 0 .169.025.23l.002.006h.014v.042h.014v.07h.014v.042h.013l.003.005.002.006.001.006.002.006.003.012.003.012.002.011.003.01.002.005.002.004.002.004.002.003v.028h.004c.036.008.024.13.048.139h.003v.01c.001.026.012.104 0 .129v.002h-.014v.027l-.013.014h-.014l-.014.015v.009l-.002.005-.002.004-.002.004-.002.004c-.006.008-.014.015-.018.024v.003l-.001.003h-.003c-.011.001-.025.012-.035.013h-.003v.008c-.014.075-.198.1-.249.104h-.01v.002l-.002.002c-.01.007-.017.008-.029.011l-.009.002-.01.003-.019.003-.017.003-.014.001-.009.001-.003.003-.004.003-.006.004-.006.004a1.218 1.218 0 0 1-.282.111l-.007.001h-.005v.002c-.007.018-.048.048-.065.054H43.1v.003c-.005.031-.066.09-.09.106l-.006.003v.003c-.003.028-.037.037-.04.064v.003h-.004c-.019.004-.062.03-.065.053v.003h-.006c-.059.006-.085.083-.111.131l-.005.009h-.014l-.001.002a.424.424 0 0 0-.026.065v.003h-.003c-.017.01-.025.038-.05.042h-.002v.003c-.029.059-.12.146-.163.192v.029H42.5v.027h-.013v.007c-.001.02-.003.06-.025.064h-.003v.041l-.002.002c-.024.014-.036.074-.05.082h-.002v.007l-.013.047-.001.003h-.013l-.028.055h-.014v.001c0 .015-.009.025-.022.027h-.005l-.013.07h-.014l-.001.002c-.012.025 0 .111 0 .138v.014h.011c.002.002.006.003.006.006v.003c.001.004 0 .004.006.004h.007v.004c.002.013.013.035.025.039h.002v.028l.014.014h.028v.004c0 .02.012 0 .013.02v.004h.027l.002.001.005.003.007.005.008.005.01.005.009.005.004.001.004.002h.003l.003.001.014.014v.014l.013.014c.053.036.035-.016.095.05v.006h.028v.014h.027v.014h.027l.014.014v.028l.054.056h.005l.003.001.003.001.002.002a.027.027 0 0 1 .01.009l.001.002.001.003.001.002v.002l.002.003v.003l.013.014.014.014h.006l.003.002c.013.008.02.014.03.024l.002.002h.027l.04.028v.014h.002c.013.002.024.007.026.023v.005h.027l.014.013v.015l.014.014h.027l.04.042v.028h.004a.122.122 0 0 1 .038.028v.014h.013v.014h.014l.014.013c.003.114.247.337.336.384l.01.005.008.003c.152.04.44.032.594-.006l.01-.004.01-.004v-.014l.005-.002a.505.505 0 0 1 .118-.025h.012v-.003c.008-.015.035-.023.041-.037v-.003h.003c.015-.002.085-.024.092-.04v-.001h.069l.013-.015v-.014h.014v-.014h.014l.013-.013a.203.203 0 0 1 .016-.048l.003-.007.003-.007a.055.055 0 0 1 .016-.022h.003v-.028c.016-.02.024-.06.039-.081l.002-.004h.014c.013-.015.014-.036.032-.05l.004-.002.005-.004v-.041h.005l.002-.002a.031.031 0 0 0 .02-.024v-.002l.002-.003.006-.009.009-.011.01-.014.01-.015.009-.013.003-.006.003-.005.002-.005v-.003l.055-.056h.002l.003-.001.004-.002.003-.002.008-.004.007-.005.008-.005.007-.005.003-.002h.004l.003-.002h.002l.014-.014v-.005l.001-.002.001-.003.002-.001.001-.002.002-.002.002-.002c.013-.011.035-.015.044-.032v-.002l.001-.003v-.002h.003c.011-.001.046-.012.052-.025v-.003h.027l.003-.003.004-.002.005-.002.005-.001.012-.003.012-.003c.011-.002.028-.005.038-.012l.003-.002v-.014h.041v-.014h.006c.01.002.032.01.034-.01v-.004h.042v-.003c.006-.014.036-.024.04-.036v-.003h.042v-.014h.054v-.014h.027v-.028h.014v-.028h.014v-.112h-.014v-.028h-.014L45.347 25c-.023-.063 0-.197.002-.264v-.012h.001c.013-.012.012-.114.013-.13v-.01h-.014v-.005c.003-.015.01-.033-.009-.036h-.005v-.012c.002-.064.026-.205.003-.264l-.003-.004h-.013v-.028h-.014v-.196h-.013l-.014-.07-.013-.014h-.014v-.014h-.014l-.014-.014v-.042h-.004c-.018-.002 0-.013-.018-.014h-.005v-.006c-.003-.015-.01-.029-.013-.044v-.006h-.003l-.003-.001-.003-.001-.003-.002-.007-.005-.007-.005-.006-.005-.005-.005-.003-.003h-.001v-.03l-.014-.013h-.002l-.007-.001c-.008-.002-.027-.012-.03-.022l-.001-.002v-.003h-.007a.74.74 0 0 1-.151-.04l-.006-.002v-.014l-.055-.014v-.005c-.002-.018-.012 0-.013-.018v-.005h-.041v-.014h-.027v-.014h-.028v-.004c-.002-.019-.011 0-.013-.019v-.005h-.003c-.011 0-.048-.012-.052-.026v-.002h-.04v-.028h-.014v-.028h.004c.018 0 0-.012.018-.014h.005v-.027l.014-.015h.027l.013-.014v-.014l.014-.013h.027v-.015h.028l.013-.014v-.014h.014l.013-.013c0-.006.003-.011.005-.016l.002-.006.003-.005c.003-.006.003-.01.004-.016l.014-.013h.013v-.014h.014l.014-.015v-.027h.004c.018-.002 0-.013.018-.015h.005v-.027h.013v-.029h.014v-.027l.013-.014h.014l.014-.014v-.028h.014v-.028h.004c.018-.002 0-.013.018-.014h.005v-.028h.004c.018-.002 0-.013.019-.014h.004v-.042h.014v-.042h.013v-.042h.014l.002-.006c.012-.034.011-.08.023-.114l.002-.006h.014v-.056h.014v-.056h.013l.001-.003c.013-.042 0-.117.011-.162l.002-.003h.013l.002-.003c.01-.04-.014-.08-.003-.12l.001-.003h.014v-.056H45.2v-.056h-.013v-.041h-.014v-.043h-.013v-.028h-.014v-.028l-.014-.013-.013-.015h-.014l-.017.002-.02.002-.023.002h-.02c-.013 0-.028.001-.04-.003l-.001-.001-.002-.002v-.014h-.068v-.014h-.001c-.019-.012-.102.012-.108-.011v-.002l-.004-.002c-.017-.006-.079-.022-.091-.039v-.001h-.027v-.014h-.006c-.011.003-.02.008-.022-.01v-.005h-.003c-.013-.002-.025-.008-.038-.014l-.327.014v.004c-.04.045-.214.043-.27.075l-.001.003"/><path fill="#00a" d="m45.17 22.467.005-.023.006-.022.005-.023c.078-.334-.33-.198-.487-.232h-.027l-.027-.002c-.173 0-.457-.241-.562-.086l-.006.008-.004.008-.005.01-.004.01-.003.009c-.023.07-.009.152-.006.225v.035c0 .03-.014.107-.036.125l-.003.002h-.005c-.069-.012-.117-.162-.196 0l-.005.007-.005.008-.005.007-.003-.004a.162.162 0 0 1 .042-.2l.007-.004.002-.037.002-.035c-.039-.49.521-.545.837-.54l.02.002.019.003c.352.052.607.307.502.72l-.004.016-.004.015-.007-.001h-.036zm-1.983 2.89-.02.02-.11.114-.02.019.011.068.01.067.01.068c.017.113.035.225.05.338l.028.302.028.303c.057.606.115 1.213.17 1.82l-.002.007-.001.007-.002.008c-.01.073.01.153-.015.225l-.003.008-.004.007.054.002c.138.003.276 0 .415.003l.053.001-.15-.237-.003-.004a.125.125 0 0 1-.02-.05v-.008c.02-.35.031-.7.056-1.05l.005-.075.006-.075.017.017c.235.27.257 1.05.261 1.402v.07l.03.001c.15.005.298-.002.447.003l.03.002-.024-.038a.673.673 0 0 0-.145-.17l-.013-.01-.002-.146-.003-.147-.003-.145-.003-.146a16.26 16.26 0 0 1 .012-1.325l.005-.075.005-.074.006-.076c.02-.09-.007-.205.057-.277l.011-.018.023-.037c.063-.106.121-.216.188-.319l.012-.018.012-.018.012-.018.013-.016.012-.017a.88.88 0 0 1 .24-.211l.017-.01.017-.01c.12-.071.272-.11.382-.172l.007-.005.006-.007.006-.006.005-.007.005-.007.005-.008a.349.349 0 0 0 .027-.174l-.002-.028-.002-.03c-.023-.283-.003-.577-.032-.86l-.004-.02-.004-.02-.004-.018c-.072-.381-.325-.37-.601-.552l-.029-.016-.028-.016-.028-.017-.003.018-.017.094-.003.018.034.017c.168.083.342.186.487.312l.014.012-.11.254-.028.02-.144-.01-.017-.149-.056.006-.012.094-.039.003.01.05c-.008.062-.001.124-.007.185l-.002.015.011.001c.017.001.035-.002.052 0h.011l.005-.017c.007-.03.011-.062.018-.092l.005-.019.016.002c.04.003.079 0 .118.003l.017.002-.006.032c-.092.573-.321 1.097-.586 1.595l-.027.052-.019-.002-.143-.01-.019-.002.005-.012.005-.012.005-.012c.035-.095.154-.276.166-.358l.003-.017.003-.016.005-.033c.011-.08.017-.161.036-.24l.004-.016.004-.016.005-.017.006-.017.006-.017.006-.017.007-.017.008-.018.008-.017.01-.018.01-.018.031-.074-.012-.103.034-.337.035-.072.001-.005.002-.005v-.012c-.005-.04-.026-.074-.03-.12l-.002-.018-.002-.019c-.006-.12-.01-.243.027-.358v-.026a.173.173 0 0 0-.024-.071l-.002-.005v-.005c-.012-.047.001-.097.003-.144l.001-.013v-.013l.001-.011v-.01h-.018c-.037.002-.073.01-.11.011h-.018l.013.06c.129.667.018 1.655-.33 2.227l-.005.01-.86.015-.014-.375.03-.001c.145-.007.29-.004.436-.011l.03-.002v-.068l-.393.01v-.01c-.013-.068-.038-.132-.05-.199v-.01l-.01.004c-.035.016-.063.039-.097.056l-.009.005"/><path fill="navy" d="m45.04 22.53.006-.004c.028-.01.09-.023.116 0l.05-.04-.006-.006c-.046-.046-.128-.033-.181-.015l-.01.004zm-.564-.13.01-.003c.081-.021.144-.016.21.043l.007.006.042-.048-.008-.007c-.083-.074-.165-.083-.267-.056l-.01.003m.404.766-.018.008c-.167.062-.313.04-.432-.11l-.01-.015-.051.039.012.017c.136.173.31.202.502.13l.02-.009zm.209-.321v-.032h-.145v.065h.145zm-.516-.268-.004.008c-.036.076-.087.1-.162.091l-.008-.001-.01.064.01.001c.101.013.18-.026.227-.127l.005-.01"/><path fill="navy" d="m45.213 22.453-.001.004-.002.003c-.017.033-.059.05-.077.094l-.002.005-.002.006c-.005.027-.014.105-.037.12l-.002.002-.002.001-.002.008-.002.008-.002.008-.002.007c-.021.195.011.146-.088.347l-.006.013-.007.012a.887.887 0 0 1-.249.27l-.018.014-.018.014-.018.016-.03.003a.585.585 0 0 1-.438-.134l-.013-.01-.025-.02-.023-.018-.012-.009-.01-.008-.012-.008-.01-.007-.057-.037h-.001l-.001-.002-.001-.001-.001-.002-.002-.004-.003-.006a1.357 1.357 0 0 1-.057-.177l-.005-.017-.005-.017-.007-.017-.007-.017-.004-.008-.004-.009-.005-.008c-.044-.069-.12-.259-.105-.346l.001-.011.002-.012.002-.01.002-.012.004-.011-.004-.015-.004-.013-.005-.01-.004-.01-.002-.003-.002-.002-.002-.003-.002-.002-.002-.001c-.01-.006-.017.007-.022.014l-.001.005-.005.01-.004.013-.004.014c-.048.264.251.572.112.805l-.006.012-.013.025-.015.028.132.094.018-.186.426.255c.027.052.018.125.042.18l.003.004h.008l.008-.001h.008l.007-.001.015-.003.014-.002.014-.003.014-.002h.008l.008-.002h.016l.002-.002.002-.003.002-.002.001-.002v-.003l.002-.002v-.002c.002-.018-.015-.037-.004-.052l.001-.002.002-.003.003-.002.002-.002c.008-.015.018.002.027 0l.002-.002h.002l.002-.003a.068.068 0 0 0 .01-.021l.002-.007.001-.008c.007-.023.006-.049.015-.07v-.006l.001-.004v-.01l-.002-.008v-.016c.002-.006.004-.008.009-.012h.002l.016-.01a3.95 3.95 0 0 0 .093-.058l.017-.011.016-.01.004-.004c.03-.03.074-.082.101-.117l.01-.013.01-.014.009-.014c.123-.193.184-.429.238-.655l.003-.016.002-.017.003-.017"/><path fill="#231f20" d="M43.027 24.654h.082v.516h-.082zm.908-2.074-.031.007.03.15.062-.013-.03-.15"/><path fill="navy" d="m45.253 24.147-.072.007-.007.12c-.071.154-.11.32-.158.484l-.004.206-.1.108-.045.117-.034.099-.026.1.297-.154.122-.036.053-.027.043-.067-.018-.492"/></g><path fill="#f9f9f9" stroke="#fff" stroke-miterlimit="2.613" stroke-width=".082" d="m0 0-.652-.059-.072-1.066c-.646-1.388-1.002-2.871-1.443-4.326l-.039-1.833-.92-.971-.401-1.042-.319-.882-.237-.888 2.719 1.368 1.121.323.484.24.392.597-.161 4.393z" transform="matrix(.10918 0 0 -.11208 45.252 24.148)"/><path fill="navy" fill-rule="evenodd" d="m44.713 22.72.001.016.004.099.001.016.007.004c.119.067.147-.034.141-.151v-.013h.008l.041-.005h.007l.002.023c.006.333-.302.31-.271.02v-.01h.054m-1.679 2.036c-.081.025-.146.097-.194.178.065.064.132.118.197.182-.003-.12 0-.24-.003-.36"/><path fill="navy" fill-rule="evenodd" d="m43.863 23.33-.032.013-.032.013-.033.012-.035.013a8.646 8.646 0 0 1-.227.077l-.041.013-.043.014c-.252.07-.16.04-.354.215l-.04.04-.04.04-.038.04a4.255 4.255 0 0 0-.515.687l-.025.04-.024.04-.024.041-.023.04c-.047.094-.132.184-.125.3v.009l.001.008.002.008c.003.02.008.035.015.053l.004.01.004.009.005.01.005.009.006.009.1.071.1.072.103.073.101.071.102.073.101.072.101.071.1.072-.003-.02-.002-.017-.002-.015-.002-.015-.002-.015-.002-.016-.003-.017-.003-.02-.037-.026-.038-.026-.038-.029-.038-.028-.078-.058-.077-.06-.078-.058-.078-.058-.038-.029-.038-.028c-.036-.032-.15-.092-.165-.15l-.003-.007-.001-.009-.002-.009c0-.134.286-.57.367-.674l.02-.027.021-.027.02-.026.022-.027.041-.052.043-.051.085-.102.085-.1.01-.006.009-.005.009-.005.009-.004.009-.003.008-.002.008-.002.008-.001h.023a.135.135 0 0 1 .076.046l.006.006.01.014.011.014.01.016.01.015.013.057.01.053.005.05.005.045.001.043v.04l-.004.036-.005.035-.008.032-.01.03-.01.027-.014.027-.016.025c-.095.134-.268.22-.389.33l-.032.028-.033.031-.033.033-.034.036.03.034.03.034c.09.103.19.2.295.287l.03.023.03.023.033.03.03.021.01-.002.008-.003.01-.003.009-.004.018-.01.017-.01.018-.011.019-.01.006-.012.01-.003.008-.004.001-.004-.024-.021c-.14-.103-.316-.184-.429-.327l-.01-.014.004-.01.005-.009.005-.009.005-.008a.287.287 0 0 1 .066-.076l.013-.01.012-.008.013-.007.013-.007.013-.006.013-.006.014-.006.013-.005.042-.045c.047-.052.092-.105.14-.156l.015-.017.016-.017.016-.016.016-.016c.127-.086.111-.361.095-.502l-.003-.015-.002-.014-.003-.013-.004-.011-.003-.01c-.036-.049-.08-.106-.101-.165l-.004-.01-.002-.01c-.01-.047.004-.076.044-.096l.01-.004.012-.003.014-.004c.85-.266.335-.146 1.078-.006l.02.003.019.002.018.003-.001-.016-.01-.068-.002-.015h-.017a1.125 1.125 0 0 1-.538-.183l-.02-.013m13.974 3.511-.198-.47-.204.47zm.034.075h-.47l-.057.133a.3.3 0 0 0-.027.11c0 .038.015.066.045.084a.36.36 0 0 0 .13.025v.037h-.442v-.037a.198.198 0 0 0 .117-.062.798.798 0 0 0 .114-.206l.477-1.09h.018l.48 1.12a.686.686 0 0 0 .113.201.153.153 0 0 0 .095.037v.037h-.645v-.037h.027c.052 0 .088-.008.109-.023a.055.055 0 0 0 .022-.046.123.123 0 0 0-.006-.037.832.832 0 0 0-.03-.076zm-.675-.978v.037a.193.193 0 0 0-.101.04 1.158 1.158 0 0 0-.155.23l-.289.495v.33c0 .071.003.115.011.133a.102.102 0 0 0 .043.045c.021.013.05.02.085.02h.074v.037h-.747v-.037h.07c.039 0 .07-.007.093-.022a.093.093 0 0 0 .04-.048.425.425 0 0 0 .011-.127v-.274l-.313-.586a.856.856 0 0 0-.132-.204.161.161 0 0 0-.102-.032v-.037h.638v.037h-.028c-.039 0-.066.006-.081.018-.016.011-.023.023-.023.036a.62.62 0 0 0 .078.182l.241.453.24-.413c.059-.1.089-.167.089-.2 0-.018-.008-.033-.026-.045-.022-.017-.063-.027-.122-.03v-.038zm-1.894.903-.198-.47-.204.47zm.034.075h-.47l-.056.133a.3.3 0 0 0-.028.11c0 .038.015.066.045.084a.36.36 0 0 0 .13.025v.037h-.442v-.037a.198.198 0 0 0 .117-.062.798.798 0 0 0 .114-.206l.477-1.09h.018l.48 1.12a.686.686 0 0 0 .113.201.153.153 0 0 0 .095.037v.037h-.644v-.037h.026c.052 0 .088-.008.109-.023a.055.055 0 0 0 .022-.046.123.123 0 0 0-.006-.037.832.832 0 0 0-.03-.076zm-1.556-.94v-.038h.707v.037h-.043a.184.184 0 0 0-.094.021.1.1 0 0 0-.04.049.43.43 0 0 0-.01.127v.669a.78.78 0 0 1-.038.286.326.326 0 0 1-.137.149.438.438 0 0 1-.234.06.397.397 0 0 1-.272-.09c-.07-.061-.104-.128-.104-.201 0-.047.014-.085.042-.115a.138.138 0 0 1 .104-.044.14.14 0 0 1 .1.04.13.13 0 0 1 .041.097.148.148 0 0 1-.007.049.328.328 0 0 1-.03.05c-.019.028-.027.047-.027.059 0 .017.008.032.025.045a.157.157 0 0 0 .097.028.11.11 0 0 0 .07-.022.124.124 0 0 0 .039-.07c.007-.03.01-.117.01-.26v-.73a.462.462 0 0 0-.01-.131.106.106 0 0 0-.045-.046.174.174 0 0 0-.088-.02zm-.332 1.292v.037h-.697v-.037h.045a.17.17 0 0 0 .093-.022.088.088 0 0 0 .04-.048.425.425 0 0 0 .01-.127v-.9a.462.462 0 0 0-.01-.13.097.097 0 0 0-.045-.046.172.172 0 0 0-.088-.02h-.045v-.037h.697v.037h-.045a.182.182 0 0 0-.093.021.097.097 0 0 0-.04.049.435.435 0 0 0-.01.127v.899c0 .07.003.113.01.13a.106.106 0 0 0 .045.047.17.17 0 0 0 .088.02zm-.758-1.33v.037a.214.214 0 0 0-.129.08 1.233 1.233 0 0 0-.123.237L52 27.349h-.033l-.456-1.086a1.417 1.417 0 0 0-.11-.231c-.02-.023-.054-.038-.106-.044v-.037h.638v.037h-.022c-.057 0-.096.007-.117.022a.05.05 0 0 0-.023.045c0 .012.003.026.008.043.005.016.023.06.053.132l.284.68.263-.605c.032-.073.05-.122.058-.147a.243.243 0 0 0 .01-.064.09.09 0 0 0-.061-.088.298.298 0 0 0-.112-.017v-.038"/><g fill="navy" fill-rule="evenodd" stroke-width=".83"><path d="M51.026 23.802h.14v1.007l.353.164v-1.171h.55l-.157-.22h-.491l-.018-.025c-.107-.186-.073-.307.112-.388l.036-.015.039-.012c.404-.112.926.121 1.267.35l.074.048.118-.041-.086-.068-.084-.064c-.41-.307-1.123-.602-1.614-.386l-.025.01-.024.011c-.252.15-.28.348-.04.542l.024.019.026.02h-.357z"/><path d="M52.492 24.533h-.036c-.723-.099-.084-.642.563-.272l.08.037-.04.028a1.208 1.208 0 0 1-.497.203l-.036.002zm-.568-.262v.018l.002.019c.04.17.267.3.401.357l.029.01.03.01c.202.073.375.041.57-.045l.061-.031.063-.035v.235l.352.164v-1.171h.55l-.157-.22h-2.023l.156.22h1.122v.372l-.037-.029c-.283-.26-.996-.344-1.117.091l-.002.018"/><path d="m53.75 24.106.051.074.053.07c.212.264.556.55.896.514l.028-.006.026-.008c.27-.092.2-.305.03-.467l-.022-.02-.022-.02h.49v.566l.353.164v-1.171h.547l-.156-.22h-2.337l.157.22h1.436v.194h-.843l-.06.048.032.018.03.017.028.017c.068.05.113.094.157.17l.01.023.008.023c.012.051.02.093-.016.132l-.01.008-.01.007-.01.008c-.217.102-.528-.13-.662-.308l-.034-.047-.032-.048"/><path d="M56.573 24.45h-.028l-.026-.002-.026-.002a.46.46 0 0 1-.197-.068l-.016-.012-.016-.011c-.044-.038-.034-.074.014-.084l.048-.006.049-.007.044-.01.042-.01c.076-.017.19-.049.25-.107l.01-.013.004-.006.002-.008.003-.006v-.017l-.005-.012-.003-.011-.007-.014-.016-.03-.024-.034-.03-.039-.038-.042-.044-.047-.048-.05h.608v.47l-.039.02a1.203 1.203 0 0 1-.45.156l-.03.002zm-.628-.344.012.031c.21.475.67.684 1.113.452l.053-.029v.249l.353.164v-1.171h.547l-.156-.22h-1.992l.157.22h.306c.235.187-.176.305-.298.3l-.047.002"/><path d="M57.875 23.802h.132v1.007l.353.164v-1.171h.549l-.156-.22h-1.037"/></g><path fill="none" stroke="#666" stroke-linecap="round" stroke-linejoin="round" stroke-width=".273" d="M41.149 19.544h46.367m-23.06 1.62v8.284"/></svg>