<svg xmlns="http://www.w3.org/2000/svg" xmlns:xlink="http://www.w3.org/1999/xlink" width="160.853" height="193.647" viewBox="0 0 24.333 29.257"><g transform="translate(294.048 202.014)"><use xlink:href="#a" width="100%" height="100%" x="964.084" y="293.861" fill="#fff" transform="translate(-253.463 20.552) scale(.35278)"/><use xlink:href="#a" width="100%" height="100%" x="975.844" y="293.861" fill="#fff" transform="translate(-253.463 20.552) scale(.35278)"/><g transform="translate(-63.387 -256.121) scale(.35278)"><use xlink:href="#b" width="100%" height="100%" x="436.775" y="136.648" fill="#3a6bbd"/><use xlink:href="#b" width="100%" height="100%" x="436.777" y="136.648" fill="#3a6bbd"/><use xlink:href="#c" width="100%" height="100%" x="335.738" y="164.15" fill="#3a6bbd"/><use xlink:href="#d" width="100%" height="100%" x="91.496" y="298.953" fill="#3a6bbd"/><use xlink:href="#d" width="100%" height="100%" x="296.199" y="298.953" fill="#3a6bbd"/><use xlink:href="#d" width="100%" height="100%" x="299.199" y="298.953" fill="#3a6bbd"/><use xlink:href="#e" width="100%" height="100%" x="582.587" y="689.693" fill="#4582cc"/><use xlink:href="#f" width="100%" height="100%" x="212.645" y="508.15" fill="#f03a1c"/><use xlink:href="#g" width="100%" height="100%" x="213.894" y="508.15" fill="#f03a1c"/><use xlink:href="#e" width="100%" height="100%" x="592.406" y="671.535" fill="#f03a1c"/><use xlink:href="#e" width="100%" height="100%" x="593.906" y="671.535" fill="#f03a1c"/></g><path fill="#191917" d="m-281.883-179.54-7.695 6.803 4.307-9.303-8.777-5.071 10.03 1.076 2.135-15.996 2.136 15.996 10.033-1.076-8.779 5.071 4.307 9.303zm0 0"/><path fill="#e3300c" d="m-281.883-179.736-7.267 6.426 4.068-8.79-8.292-4.788 9.482 1.014 2.01-15.048 2.01 15.048 9.484-1.017-8.293 4.792 4.068 8.789zm0 0"/><path fill="#0073bd" fill-rule="evenodd" d="M-279.872-185.874h-4.02l-1.185 3.779 3.194 2.36 3.202-2.364zm0 0"/><path fill="#191917" fill-rule="evenodd" d="M-281.885-180.542a2.595 2.595 0 0 1-2.592-2.592 2.594 2.594 0 0 1 2.592-2.592 2.594 2.594 0 0 1 2.592 2.592 2.595 2.595 0 0 1-2.592 2.592"/><path fill="#fff" fill-rule="evenodd" d="M-281.885-180.69a2.448 2.448 0 0 1-2.446-2.444 2.45 2.45 0 0 1 2.446-2.446 2.449 2.449 0 0 1 2.444 2.446 2.448 2.448 0 0 1-2.444 2.444"/><path fill="#191917" d="M-281.975-184.814c-.004.003-.006.006-.006.01 0 .008.004.012.01.016-.025 0-.036-.012-.036-.012s.008-.01.032-.014zm.023 0 .022.008s-.007.014-.026.016c.004-.003.01-.008.01-.015 0-.004-.003-.007-.006-.01zm-.053.032a.092.092 0 0 0 .04.008c.047 0 .06-.032.066-.035 0-.033-.02-.062-.053-.066-.012-.003-.031.003-.04.008a.061.061 0 0 0-.027.029c.015-.004.033-.023.072-.017.018.004.04.03.027.034-.01-.007-.014-.011-.022-.013-.032-.012-.062.011-.078.025-.004 0-.007-.003-.01-.003.005.014.01.02.024.029zm.198-.032a.013.013 0 0 0-.004.01c0 .008.004.012.01.016a.096.096 0 0 1-.036-.012s.01-.01.03-.014zm.026 0h.003c.005.003.013.003.014.006.003.003.004.003.005.003 0 0-.007.014-.026.018.004-.004.008-.008.008-.017a.013.013 0 0 0-.004-.01zm-.124.128c.004.004.008 0 .014 0 .018 0 .036.011.051.004.028-.012-.004-.05-.004-.076 0-.012.001-.02.007-.031 0 0 .053.029.086-.004.003-.006.01-.006.016-.011l.004-.004.003-.01c-.005 0-.007.01-.014.004-.02-.014-.034-.02-.058-.017a.079.079 0 0 0-.04.013c-.008-.042.075-.049.096-.021a.072.072 0 0 0-.016-.025c-.024-.022-.08-.006-.095.014-.01.014-.012.076-.01.099 0 .012.01.018.01.03 0 .01-.007.02-.016.021-.012.003-.04-.012-.033.014zm1.141 3.123c-.028-.013-.033-.042-.052-.057-.003 0-.012-.01-.02-.012l-.017-.011c-.024-.011-.051-.015-.076-.022-.01-.003-.018-.003-.028-.004-.01-.004-.02-.011-.031-.017-.037-.007-.082-.004-.122-.007-.062-.003-.118-.012-.176-.019-.026-.004-.056-.007-.081-.017-.008-.003-.017-.008-.025-.01a.085.085 0 0 0-.058.004c-.008.003-.016.01-.022.01-.011 0-.02-.017-.036-.013-.008.008-.014.02-.007.03a.09.09 0 0 0 .022.018c.02.008.03-.003.043-.006.047-.013.1.01.14.016.105.017.244.01.338.04.018.004.036.007.051.013.044.016.075.042.109.063.02.026.04.046.079.055.018.006.047.006.047-.019 0-.029-.053-.023-.078-.036zm.65-.133c.008.007.023.025.022.038-.001.004-.007.01-.014.01-.018 0-.015-.043-.044-.04-.003 0-.008 0-.011.008-.008.024.044.033.029.071-.005.016-.024.018-.046.018 0-.007.008-.01.008-.019 0-.025-.034-.048-.055-.028.001.02.023.03.015.051-.01.013-.041.013-.05 0 .002 0 .013.003.018 0 .005 0 .007-.006.008-.01.003-.01-.008-.013-.019-.019-.008-.007-.016-.012-.022-.02.004-.042-.036-.05-.078-.054l-.22-.02c.004-.033-.027-.037-.055-.042-.038-.008-.073-.01-.113-.02-.016-.003-.042-.01-.044-.023 0-.015.02-.025.032-.033.037-.028.073-.054.106-.083a.529.529 0 0 1 .186.079c.015.008.032.013.046.02.016.01.033.017.048.022.077.023.184.001.24.04.02.011.038.03.038.057-.014 0-.014-.033-.029-.035-.008 0-.015.008-.015.014 0 .008.011.013.02.018zm-.202.076c-.015-.007-.033-.007-.05-.008-.028-.003-.057-.01-.086-.014-.029-.006-.058-.007-.083-.013.018-.01.048-.007.076-.007.051-.003.135 0 .154.029a.104.104 0 0 1 .003.019c-.003 0-.008-.004-.013-.006zm-.24.006c.008.024.03.03.025.065a.11.11 0 0 1-.027.029.04.04 0 0 0-.01-.039c-.006 0-.003.011-.007.011-.011-.003-.007-.016-.024-.015-.003.015.011.022.013.036.004.034-.021.052-.053.05.003-.016.025-.01.03-.023.002-.016-.013-.027-.023-.034-.008 0 0 .008-.01.011-.01-.004-.018-.023-.036-.016.008.01.018.027.007.04a.095.095 0 0 1-.048.012c-.027-.001-.055-.007-.069-.024-.008-.01-.012-.024-.02-.033-.01-.01-.028-.01-.039-.02-.007-.004-.01-.014-.015-.02-.01-.008-.026-.013-.043-.02a.483.483 0 0 0-.146-.038c-.085-.008-.178-.006-.26-.02-.03-.006-.06-.013-.087-.017-.03-.003-.06.007-.087.004-.025-.004-.039-.022-.046-.044a.45.45 0 0 0-.045-.165.137.137 0 0 1-.005-.079c.001-.02.01-.042.014-.067.003-.025.003-.053.007-.077a.213.213 0 0 1 .04-.105c.01.003.02.02.026.026.02.014.047.02.066.037a.103.103 0 0 1 .02.025c.026.043.016.11.035.163.003.007.01.012.008.02-.027.004-.062.003-.078.021.012.02.044.004.07.004.026 0 .058.008.076.02.014.01.027.032.045.04.028.01.072.012.108.016a.928.928 0 0 1 .114.014.766.766 0 0 1 .153.052l.024.011c.007.004.012.011.019.014.016.01.039.01.06.012.02.004.038.011.056.017.015.008.038.012.058.024.007.003.012.011.02.014.014.003.028 0 .039.003a.125.125 0 0 1 .037.02c.024.013.043.031.043.066-.01-.007-.013-.036-.035-.021zm-.857.087c-.026-.015-.053-.037-.088-.045-.01-.003-.022-.006-.033-.003-.003.013.017.01.029.012a.17.17 0 0 1 .065.026c.008.007.025.015.02.026-.01.02-.046-.013-.046-.02-.01-.003-.014-.013-.025-.017-.008-.003-.018 0-.026-.003-.011 0-.018-.006-.027-.008-.004.03.043.017.057.03.004.002-.003.006-.003.011.005.006.01.008.014.011 0 0-.004-.006-.001-.01.033-.008.034.03.008.038-.028.007-.046-.014-.065-.02-.032-.005-.06.005-.086-.002-.024-.006-.033-.02-.05-.036-.017-.018-.04-.02-.065-.028.012-.023.019-.052.04-.07.01-.01.062-.034.088-.02.014.007.036.01.045.016a.1.1 0 0 1 .022.015c.008.007.014.02.022.022.018.006.05.01.07.018.007.001.017.003.017.011 0 .004 0 .01-.008.01-.005.001-.008-.007-.012-.01-.017-.01-.048-.01-.07-.018.004.004.012.006.015.008.033.007.059.022.084.036.007.003.02.012.01.02zm-.36-.233.015-.459.003-.003v.003c.006.006.006.017.006.025l.024.19c.01.072.03.14.033.214-.016.008-.035.012-.05.018-.01.004-.017.014-.03.012zm.141-.077c-.01.006-.025.006-.038.008a2.833 2.833 0 0 1-.064-.368 2.771 2.771 0 0 1-.019-.398c.008-.003.016-.008.029-.004.018.008.01.069.012.095.003.102.01.208.017.302.005.067.014.133.025.19.008.063.03.118.038.175zm-.034-.404a2.082 2.082 0 0 1-.004-.339c0-.015 0-.03.003-.044.004-.026.005-.052.022-.07l.03-.022a.3.3 0 0 0 .028-.028c.004-.016.015-.036.016-.048 0-.004.001 0 .001 0 .01.231-.023.392-.045.602l-.017.173c-.022-.064-.025-.144-.034-.224zm-.161-.387-.053.06c-.008.01-.016.023-.027.03.056-.162.13-.315.179-.486.023-.085.048-.17.071-.26a1.33 1.33 0 0 0 .038-.298s0-.003.003-.003v.001c.018.01.024.03.028.049.022.056.033.122.046.187.007.044.013.09.015.138 0 .02.006.045.006.07 0 .025.004.054 0 .074-.003.027-.024.056-.038.079-.012.026-.029.048-.044.07a.975.975 0 0 1-.095.131c-.044.053-.084.108-.13.157zm.035.147c.003.126-.007.246-.01.37-.003.146-.015.288-.022.42-.027-.004-.053-.015-.084-.02-.031-.007-.066-.007-.096-.008.047-.16.103-.32.138-.494l.066-.315s0-.003.003-.003c.008-.003.005.04.005.05zm-.227.873c.011-.026.022-.05.033-.08h.003c-.007.026-.02.056-.029.081-.004.001-.004-.003-.007 0zm.136.07c-.01.026-.008.054-.035.07-.005.003-.014.001-.017.004-.023.016-.022.08-.066.053-.01-.024.02-.03.03-.015 0-.014-.015-.016-.03-.016.003-.027.022-.037.039-.05v-.014c-.013-.011-.024.004-.022.017-.004.007-.02.018-.027.03-.008.013-.008.028-.023.013-.003-.037.029-.038.036-.065 0-.004-.003-.004-.004-.007-.025-.003-.017.03-.035.033-.008.016-.01.036-.02.05-.004.003-.008-.001-.013-.003.003-.003-.003-.007 0-.011.001-.004.005-.004.008-.007-.012-.023.007-.048.022-.06-.012-.024-.033.02-.037.031-.003.01 0 .02-.008.02-.01 0-.001-.036.003-.046.006-.014.016-.017.02-.026-.008 0-.02.008-.024.015-.004.004-.006.014-.011.014-.013 0-.001-.02 0-.022.012-.013.017-.018.035-.02.007-.007.01-.017.018-.022.017-.01.062-.006.086-.004a.323.323 0 0 1 .045.007c.017.001.033.001.04.011 0 .01-.007.013-.01.02zm-.165.112c.003 0 .004.003.008.003-.003-.011.012-.013.017-.006.008.026-.035.027-.025.003zm-.125-.113a2.14 2.14 0 0 0-.164.008c-.014-.055-.028-.11-.04-.166.059-.003.122.01.176.016.007.008.011.016.017.026.01.01.027.018.04.029l.023.026a.25.25 0 0 1 .015.01.232.232 0 0 0 .029.022c-.01.01-.023.015-.03.025-.015.008-.043.003-.066.004zm-.15.064a.021.021 0 0 1-.004-.01.18.18 0 0 1 .018-.008.93.93 0 0 1 .17-.017c.004 0 .015-.004.016.003-.063.015-.136.02-.2.033zm-.085.025a.513.513 0 0 1-.12.021l-.059-.001a.279.279 0 0 1-.08-.015.187.187 0 0 1-.031-.022c-.014-.014-.025-.03-.018-.06l.003-.004v-.013c.004-.006.01-.013.01-.022a.064.064 0 0 0-.016-.03.044.044 0 0 0-.04.019c-.003.003-.003.004-.004.007 0 0-.01.01-.012.01-.003.003-.016.006-.022.006a.092.092 0 0 1-.039-.007c-.029-.013-.045-.039-.063-.064-.003-.02-.011-.029-.008-.052 0-.014.004-.033.01-.044.004-.008.023-.028.015-.046-.003-.007-.013-.008-.018-.014-.006-.006-.004-.012-.01-.019-.01-.004-.02 0-.024.007-.01.017-.015.048-.02.063 0 .03-.001.067.006.094.003.02.016.028.019.046a.29.29 0 0 0 .044.048c.001 0 .003 0 .004.003.011.016.046.029.054.045l.045.022c.014.018.047.017.062.032a.208.208 0 0 1 .049.022c.062.021.114.051.173.072.024.014.046.028.068.039.01.013.023.023.031.035.001 0 0 0 0 0-.013-.004-.023-.022-.04-.013a.049.049 0 0 0 .026.03v.007c.005-.004.008.007.013.01-.01.003-.018-.017-.029-.02-.003-.006-.01-.016-.019-.016-.004.006.005.008.003.015l-.01-.012c-.01.01.006.02.01.027-.007-.003-.014-.013-.023-.017-.006.004 0 .01 0 .015-.006 0-.006-.01-.01-.008-.006.008 0 .016.004.023.003.008.008.015.01.025.006.033-.011.074.006.103-.02-.022-.007-.067-.01-.095a.202.202 0 0 0-.02-.053.382.382 0 0 0-.217-.133c-.018-.01-.05-.016-.073-.023-.055-.015-.11-.04-.166-.062-.027-.018-.045-.04-.067-.062a.37.37 0 0 1-.036-.051.146.146 0 0 1-.018-.048.177.177 0 0 1-.006-.046.295.295 0 0 1-.004-.06.34.34 0 0 1 .043-.129c.018-.03.04-.055.06-.08a1.09 1.09 0 0 0 .072-.078c.024-.037.04-.073.073-.1.017-.015.036-.023.058-.035a.546.546 0 0 1 .203-.062c.037.136.071.277.107.413.005.02.011.041.01.06-.022-.006-.083-.024-.103-.012-.024.013.004.043.026.043-.004.003-.01.003-.014.004a.087.087 0 0 1-.032.017c-.004.003-.008.003-.012.004-.014.006-.02.015-.028.028-.008.017.005.035.028.024.012-.007.03-.026.041-.032a.248.248 0 0 1 .112-.02c.015.056.03.115.043.176a.33.33 0 0 1-.117 0c-.027-.008-.042-.01-.06.006.004.006.007.008.007.016 0 .025-.036.017-.04-.003-.007.03.03.054.058.057h.015a.67.67 0 0 0 .15-.028c.002.017-.02.014-.031.02zm-.034.192c.014.012.02.033.028.05-.013-.014-.018-.034-.028-.05zm-.18-1.428c-.03-.124-.057-.25-.092-.373-.008-.03-.013-.062-.022-.093a.713.713 0 0 1-.023-.093c-.04-.19-.091-.375-.135-.561l-.001-.004c.027.01.066.007.09.015-.003.025.005.048.037.046.005.01.007.023.012.033.022.006.04-.004.052-.01.11.045.21.1.342.122.006.131-.01.27-.014.414 0 .048-.008.093-.01.142a3.095 3.095 0 0 1-.018.271c-.01.065-.016.132-.022.194-.003.025-.003.047-.004.073 0 .021-.008.05.001.067a.04.04 0 0 0 .016.013c.029.021.077.036.106.058v.025c-.077.008-.148.022-.222.033-.03-.124-.065-.247-.094-.372zm-.293-1.195c.003-.008.02-.01.02-.023 0-.011-.007-.016-.01-.028.012.003.017.017.027.028.005.006.025.025.033.025.011.003.032-.006.025-.02-.011-.005-.025-.002-.036-.01-.016-.011-.023-.032-.031-.051.005-.013-.001-.028-.011-.032.003-.02-.003-.035-.013-.044v-.004h.003c.02.01.04.019.058.03a.13.13 0 0 1 .068.1c.013.009.03.014.04.027-.006.032-.017.058-.04.073-.016-.008-.03-.02-.043-.03-.017.015-.07.007-.081-.006-.004-.004-.011-.025-.008-.035zm-.044-.02c-.01.003-.014.012-.018.022-.016-.004-.029-.036-.006-.047.02-.008.077.004.077.018.001.02-.038.006-.053.007zm-.05-.055c.016-.018.053-.008.072 0 .01.003.028.008.02.022-.025.003-.06-.011-.082.01-.01-.004-.014-.02-.01-.032zm-.006-.049c.005-.006.02-.006.029-.007.029-.003.04.01.06.021.01.008.028.011.027.02 0 .008-.008.009-.02.008-.02-.003-.042-.018-.064-.013-.011.001-.02.008-.026.008-.014-.003-.013-.028-.006-.037zm.103.003c-.012.003-.02-.01-.03-.015-.025-.01-.055 0-.077.004-.014-.067.12-.037.107.011zm-.09-.102c.006 0 .012.008.016.014.01.01.028.02.037.033-.015-.007-.037 0-.048-.008-.01-.004-.022-.037-.005-.038zm.285.213c0-.006.008-.004.01-.003.01.023-.002.05-.012.073-.008.016-.024.045-.041.053-.011.006-.027.006-.027-.008 0-.006.016-.016.022-.023a.237.237 0 0 0 .048-.092zm.037.018c.003-.003.01-.006.014 0-.01.004-.024.024-.01.033-.006.007-.015.01-.013.026-.008.004-.015.014-.012.022l-.012.015v.008c-.015.003-.015.02-.028.024-.004-.001-.004-.01-.006-.014.033-.026.05-.07.066-.115zm.02.086c0-.006 0-.012.003-.018a.061.061 0 0 0 .01-.017c.003-.008 0-.018.01-.024.064.013.133.024.192.043a.213.213 0 0 1 .038.014c.011.006.02.019.03.024.01.001.016.006.023 0 .022-.021-.008-.053-.035-.053 0-.01.003-.02.006-.028.004-.003.02 0 .03 0a.342.342 0 0 1 .107.04c-.008.049-.036.076-.05.119-.017.016-.02.047-.047.052-.015.001-.048-.007-.062-.01a.668.668 0 0 0-.06-.013c-.018-.006-.035-.016-.053-.02-.055-.02-.111-.048-.164-.069.001-.018.015-.026.022-.04zm.289-.104a.288.288 0 0 1 .143.044c-.001.003-.001.007-.004.01a.698.698 0 0 0-.143-.043c0-.007 0-.01.004-.011zm.03-.137c.01-.06.02-.118.034-.182.013-.053.022-.1.045-.142.007-.013.015-.02.026-.031.004-.004.004-.01.008-.014.014-.011.029-.02.044-.035.003 0 .007-.003.007 0 .015-.012.04-.015.058-.024h.004a.816.816 0 0 0 .015.128c.006.023.014.043.016.065l-.093.067c-.008-.01-.004-.025-.017-.03-.006.01-.014.018-.014.03 0 .008.01.025.008.033 0 .011.003.064 0 .084 0 .011-.01.065-.012.091-.001.014-.003.024-.001.036a.951.951 0 0 0-.138-.032c.004-.015.004-.033.01-.044zm.26-.204c.01.014.042.014.03.039a.144.144 0 0 1-.05.044h-.014c0-.015.01-.02.015-.03.008-.011.005-.03 0-.039.003-.008.014-.01.02-.014zm.05-.262v.003c.007.045.011.089.02.129.003.013.01.026.01.04a.142.142 0 0 1-.044.028.458.458 0 0 1-.029-.183.3.3 0 0 0 .043-.016zm-.01-.37c.004-.02.007-.036.014-.051l.015-.024c.03-.035.076-.052.12-.07 0-.01 0-.02.004-.03.004.01.003.022.006.03.038.007.06.026.087.048.027.02.05.048.059.087.004.02.003.033.008.05.007.013.02.026.018.048a.29.29 0 0 1-.097.207.126.126 0 0 1-.096.031.194.194 0 0 1-.086-.045.268.268 0 0 1-.05-.07.195.195 0 0 1-.03-.122c0-.036.021-.055.028-.09zm.293.405c.004-.018.005-.025.011-.039.013.004.025.01.038.017-.013.012-.035.014-.049.022zm-.03-.081c0-.007.004-.017.004-.03 0-.01-.003-.017.001-.024 0 .03.014.056.013.084-.001.028-.016.05-.025.07a1.476 1.476 0 0 0-.174.097.424.424 0 0 1-.036-.12c-.003-.018-.007-.037-.004-.053 0-.012.008-.022.008-.037a.17.17 0 0 1 .03.03c.021.016.048.04.086.04.012 0 .025-.005.037-.008.015 0 .03.007.044-.003.008-.004.018-.02.018-.033 0-.006-.003-.01-.003-.014zm.119.143c-.018.025-.047.043-.073.063-.053.04-.106.077-.159.122a.29.29 0 0 0-.034.033c-.018.018-.042.03-.033.06.019 0 .031-.019.044-.03l.125-.116.01-.008v.003c.025-.022.053-.041.08-.063a.273.273 0 0 1 .047-.035c.003 0 .005-.004.008-.006h-.003a.45.45 0 0 1 .044-.026.13.13 0 0 1 .028-.008c.016-.004.042-.023.056-.004-.015.014-.036.02-.052.03-.027.02-.049.034-.073.053-.007.008-.016.014-.024.02a.78.78 0 0 0-.132.147c-.03.037-.057.076-.083.114-.052.079-.103.159-.17.225-.017.016-.07.041-.078-.003.011-.001.024-.001.032-.006.022-.011.038-.033.054-.053.01-.012.024-.027.017-.041-.017-.001-.026.02-.035.03-.018.008-.028.02-.053.02-.048 0-.073-.028-.071-.083 0-.014-.003-.073.003-.088a.137.137 0 0 1 .045-.054l.097-.072c.01-.007.019-.018.03-.026.02-.015.045-.029.066-.044.054-.034.109-.066.167-.095v.003c.024-.014.05-.025.075-.039h-.004l.049-.023zm-.007.686v-.022l-.001-.022v-.012c0-.003.002 0 .002-.003h.004c0 .013.004.03.004.045 0 .01 0 .018-.004.026-.004-.001-.006-.008-.006-.012zm-.287 1.166c-.012.028-.029.051-.043.076a.276.276 0 0 1-.05.067 4.61 4.61 0 0 0-.105.128c-.03.038-.062.075-.09.116-.004.004-.007.014-.015.014-.006-.02-.006-.041-.008-.063-.007-.065-.008-.141-.007-.208 0-.05.018-.08.036-.118l.015-.035c.025-.058.05-.12.08-.17.022-.045.05-.084.076-.125.052-.08.106-.16.151-.248.036-.066.065-.133.1-.2.02-.044.045-.09.065-.132a.32.32 0 0 1 .065-.09c.001-.003.003-.004.007-.003.011 0 .003.036.003.044-.003.011-.01.036-.01.043-.037.143-.08.277-.128.41-.007.027-.02.054-.028.079-.008.026-.016.056-.027.08l-.019.03a.185.185 0 0 0-.018.033c-.012.022-.026.044-.033.066a.206.206 0 0 0-.026.037c-.015.025-.032.05-.04.083-.004.014-.011.039 0 .044.016.006.031-.023.04-.033.01-.018.017-.033.026-.047.05-.095.092-.21.132-.313.041-.108.076-.22.107-.336.007-.029.017-.058.024-.088.003-.008 0-.022.01-.026 0 .036-.006.069-.01.105a17.742 17.742 0 0 1-.072.283 2.14 2.14 0 0 1-.13.34c-.012.027-.021.055-.038.08-.012.026-.026.05-.04.077zm-.27.582c.006-.018.018-.036.028-.054a2.05 2.05 0 0 1 .134-.201c.012-.017.024-.03.034-.047.016-.025.036-.049.055-.072.005-.007.01-.018.018-.023.008.01-.001.026-.003.035-.014.062-.025.119-.048.175-.001.004-.032.054-.014.064.01.003.025-.03.027-.037.02-.047.036-.09.051-.142.016-.05.03-.098.05-.145.008-.017.012-.033.02-.047.007-.007.017-.012.021-.02h.001c.001.024-.006.057-.01.091l-.028.137a3.694 3.694 0 0 1-.062.231l-.079.217-.014.034c-.008.018-.01.037-.026.041-.008.003-.025-.003-.037-.004a.263.263 0 0 1-.11-.05c-.005-.023-.008-.05-.011-.076-.003-.04-.011-.076.003-.108zm-.079-.305c.004.058.006.116.008.176a.337.337 0 0 0-.148 0 .063.063 0 0 0-.016.01c0 .02.01.033.02.043a.07.07 0 0 1 .024.007c.017-.003.034-.01.056-.004.007.001.015.01.022.012.01.004.02.006.026.01.016.013.025.034.038.045.01.037.016.093.021.137a.79.79 0 0 0 .025.108.06.06 0 0 0-.024-.004c-.024-.003-.052-.001-.075-.006-.018-.003-.042-.003-.065-.004l-.124-.498a.186.186 0 0 1 .066-.018l.117-.016a.06.06 0 0 1 .029.003zm.279-1.4c-.017.007-.014-.014-.018-.033-.003-.02-.014-.044.008-.043.007.02.01.051.01.076zm.003-.108c-.008.008-.025.018-.043.008.003-.013.018-.016.026-.022.01-.007.018-.016.028-.02.023-.003.038-.014.053-.024l.006.001c-.016.022-.046.04-.07.057zm.056.097a.078.078 0 0 1 .003-.064.088.088 0 0 1 .065-.035c.041-.004.081.01.095.035.014.04 0 .082-.032.098-.042.025-.115.003-.13-.034zm-.117.642c-.023.006-.029.032-.04.051-.018.04-.036.077-.052.123-.038.09-.075.191-.11.286-.004.008-.005.021-.014.028-.005-.011-.004-.028-.004-.041a3.219 3.219 0 0 1 .003-.22c.003-.028.007-.053.008-.08l-.001-.061c0-.017.007-.033.01-.051l.013-.047a.06.06 0 0 1 .01-.024.726.726 0 0 1 .097-.183c.034-.05.071-.095.108-.136a.957.957 0 0 1 .162-.148.629.629 0 0 0 .097-.083c.01-.01.017-.024.03-.031 0 .014-.008.027-.012.036-.019.028-.042.057-.063.085-.041.055-.085.11-.123.174l-.053.095c-.056.092-.104.191-.159.286a.521.521 0 0 0-.045.102c.01 0 .013-.012.019-.022.076-.125.149-.256.226-.38a1.79 1.79 0 0 1 .135-.192.918.918 0 0 0 .098-.144c.01-.017.02-.036.031-.05.011-.01.02.02.017.039-.001.008-.01.022-.014.033-.016.033-.026.067-.043.099-.022.043-.045.084-.063.124-.041.088-.09.165-.134.244l-.067.12c-.062.111-.124.22-.185.333-.005.008-.01.024-.02.024a3.41 3.41 0 0 1 .095-.215c.018-.04.033-.073.044-.122.004-.017.014-.04 0-.052zm.318-.796c.02-.01.035-.011.047-.018h.004v.004c0 .004-.006.007-.008.01-.013.021-.016.054-.035.064-.013.008-.028.003-.046.006-.032-.032-.105-.033-.143-.01-.013.005-.025.018-.046.013.004-.015.02-.022.032-.03.025-.014.047-.03.074-.043.014-.006.03-.014.044-.01.001.02.011.036.042.029a.125.125 0 0 0 .019-.008c.006 0 .011-.005.016-.007zm-.354.172v-.087l.001.001c0 .026.005.06 0 .085zm-.128-.017c.001-.01 0-.02.003-.029.004-.019.014-.037.022-.052.007.012.005.033.007.052l.011.085c.001.022 0 .04-.008.053l-.027.049c-.007-.05-.013-.105-.007-.158zm.025.182.02-.04a.4.4 0 0 1 .047-.078c.011-.014.021-.028.033-.04a.735.735 0 0 0 .116.012c.011.001.028 0 .037.003.011.003.024.017.038.02.016.005.037.002.056.005-.014.025-.039.042-.06.061a.753.753 0 0 0-.057.058c-.037.041-.076.08-.11.127a4.803 4.803 0 0 0-.101.133c-.025.035-.044.073-.067.11-.006.012-.011.027-.023.035-.003-.074.008-.147.018-.218.004-.03.017-.063.025-.095.01-.03.017-.065.028-.092zm-.124.743c-.001.06-.006.118-.007.18a.837.837 0 0 1-.003.07c-.001.024 0 .046-.005.067-.008-.004-.014-.01-.03-.007.015-.116.027-.232.04-.349l.004.001c.005.011 0 .025 0 .037zm.023-.066c-.01-.001-.022-.004-.034-.007 0-.135 0-.263.007-.38.003-.03.003-.062.003-.094 0-.03.003-.06.004-.088.003-.07.003-.14.007-.215.018-.008.03-.022.045-.032h.001c.011.034.003.074.005.108.003.038.01.076.005.11 0 .013-.007.027-.01.038-.003.012-.004.026-.01.034 0 .017-.006.036-.01.055v.014c0 .003-.004.007-.004.008-.018.126-.008.288-.01.448zm.831-1.527.011.028c.013.044.02.09.026.139.006.022.01.047.014.069l.015.067a.066.066 0 0 0-.026.006c-.047.007-.111.007-.165.024v-.01l-.001-.01c-.003-.018-.003-.017-.003-.03 0-.013-.001-.032-.007-.03-.001-.016-.022-.048-.025-.023v.022c.004.039.003.037.004.08a.61.61 0 0 1-.001.105c-.008 0-.017.003-.025 0a.132.132 0 0 1-.034.013.164.164 0 0 1-.053.007.273.273 0 0 1-.05-.014c-.013-.007-.027-.018-.04-.02-.04-.014-.043.027-.089.019.015-.04.04-.072.062-.106a.967.967 0 0 1 .098-.135l.044-.052a1.27 1.27 0 0 1 .06-.063c.007-.006.013-.015.026-.017a.139.139 0 0 1-.05.086c-.008.008-.015.018-.022.022-.007.006-.02.008-.02.018v.006c-.002.019.023.023.038.015.016-.011.03-.041.043-.064a.52.52 0 0 1 .142-.176c.012-.01.024.014.028.023zm.084.362c-.01.003-.025.003-.038.006l-.007-.031c.008-.004.02-.01.031-.007a.063.063 0 0 0 .014.033zm.008.018c.003.003.01.001.01.007 0 .008-.036.014-.042.017a.63.63 0 0 0-.141.06c-.012.008-.018.02-.032.014a.059.059 0 0 1 .017-.02.15.15 0 0 1 .025-.013c.033-.015.066-.033.104-.047.018-.006.042-.01.058-.018zm.014.343c.033.09.057.184.083.284.004.014.014.038.01.05-.003.015-.046.028-.064.029-.01 0-.027 0-.033-.003-.007-.004-.014-.028-.02-.04-.03-.066-.098-.267-.126-.34-.01-.028-.007-.05-.014-.078-.003-.016 0-.034 0-.088a.303.303 0 0 1 .122-.025l.012.057.004.037.004.04.006.03c.003.016.011.03.017.047zm.117.338h.004c.01.01-.006.026-.014.033a.22.22 0 0 1-.108.03c-.016 0-.042-.002-.032-.023.058.014.13.003.15-.04zm.011.037c.011-.003.022.01.022.018 0 .014-.016.008-.031.013-.007 0-.011.01-.021.013l-.014.001c-.007 0-.012.006-.02.008-.004 0-.01-.003-.016 0-.008 0-.01.006-.018.01-.013-.007-.019.004-.029.007-.013.003-.033-.01-.022-.024.005-.01.034-.008.047-.01a.302.302 0 0 0 .049-.011c.024-.008.04-.024.053-.025zm.028.047c.055.014.107.04.162.057.035.01.068.019.094.035l.017.011.028.016c.005.003.012 0 .009.008-.01.006-.017-.006-.024-.008-.047-.025-.095-.054-.16-.062.007.01.02.01.03.01.058.016.108.052.155.08.007.003.02.007.02.018-.009.006-.02 0-.026-.006-.052-.035-.104-.077-.183-.09-.006.015.015.016.022.017.041.01.07.024.103.044l.03.021c.01.006.024.01.03.02-.017.013-.04 0-.058-.01-.015-.007-.026-.015-.043-.022a.576.576 0 0 0-.1-.026c-.017-.004-.036-.004-.053-.008-.015-.003-.029-.016-.045-.016-.014.017.01.016.027.022l.007.007c.021.006.051.004.076.008.017.003.047.013.047.021.001.018-.062.004-.08.004-.04-.003-.066.003-.103-.004-.028-.004-.057-.01-.072-.029a.057.057 0 0 1-.01-.022c0-.008.003-.02 0-.03-.003-.01-.01-.013-.005-.02.001-.008.005-.002.015-.007.004 0 .008-.004.011-.006h.018c.01 0 .011-.015.026-.01a.142.142 0 0 1 .035-.024zm.248.07c.008-.007.022.003.036.01.01.003.023.006.031.01a.265.265 0 0 1 .039.046c.007.015.003.033-.007.048-.017.012-.036.02-.054.03-.007.004-.014.004-.02.008-.01.006-.016.02-.027.02 0-.01.007-.017.01-.024.007-.006.011-.014.017-.02.022-.005.067-.012.07-.034 0-.01-.01-.015-.016-.026-.004-.004-.005-.012-.008-.015-.008-.01-.025-.017-.038-.025a.153.153 0 0 1-.019-.012c-.005-.003-.015-.008-.015-.016zm.106.021c.023-.003.028.022.047.03.014.003.032-.002.047.002s.019.017.029.029c.003.004.013.011.01.016 0 .007-.012.007-.017.008-.017.008-.035.025-.05.038a.146.146 0 0 1-.06.029l-.042-.003c-.012 0-.026.008-.037 0 .008-.01.025-.01.037-.017.022-.01.065-.028.062-.068-.003-.02-.022-.04-.026-.062zm.153.108c.025-.001.037.013.048.029.033.05.04.13.064.194.003.014.01.027.013.041.013.044.01.097.01.148 0 .052-.004.107-.004.16.003.086.021.168.02.26 0 .01.003.025-.004.034-.007 0-.007-.012-.008-.017-.007-.02-.017-.042-.02-.065a.308.308 0 0 1 .003-.053c0-.053-.003-.1-.022-.14-.004-.008-.016-.024-.018-.03 0-.008.007-.016.008-.024.013-.056-.03-.098-.028-.154 0-.022.004-.043.003-.064a.26.26 0 0 0-.054-.149c.01-.015.03-.027.037-.05a.14.14 0 0 0-.001-.074c-.003-.01-.01-.028-.02-.035-.023-.017-.059-.003-.075.008-.003.003-.007.01-.011.013-.007.006-.017.007-.025.013.025-.02.048-.044.086-.046zm-.164 1.115a.17.17 0 0 0 .02-.097c0-.033-.012-.062-.006-.095.007-.032.027-.066.044-.097a.204.204 0 0 0 .027-.071.113.113 0 0 0-.003-.046c-.006-.018-.018-.031-.02-.047 0-.015.008-.029.015-.04.007-.01.018-.016.023-.026.003-.004.004-.01.007-.015.005-.014.013-.029.017-.047.003 0 .003-.004.004-.004 0 0 0 .003.003.003.004.035-.015.079-.004.113 0 .006.006.012.008.018l.01.018c.01.02.027.03.033.055a.077.077 0 0 1 0 .043c-.003.008-.008.015-.011.03 0 .02.01.037.003.056-.003.016-.017.024-.02.043-.006.02 0 .044 0 .062 0 .011-.005.025-.009.039-.005.033-.007.065-.029.081-.007.006-.014.008-.02.012-.007.004-.011.013-.022.014-.007-.008-.003-.02 0-.027.013-.039.063-.09.024-.133 0 .024 0 .054-.01.073-.008.01-.021.02-.025.03a.027.027 0 0 0-.007.013c-.007.022-.001.048-.013.073-.012.029-.06.041-.098.026a.15.15 0 0 0 .06-.058zm-.194-.268c-.003.011-.016.02-.011.035-.021-.027-.004-.058-.004-.098-.003-.033-.039-.06-.021-.1.01.008.014.017.018.032.003.006.007.01.008.014 0 .007 0 .012.004.02.004.01.01.017.014.023 0 .014-.013.027-.013.044 0 .008.007.022.004.03zm-.1.149c.003-.025.014-.047.017-.072a.48.48 0 0 0 0-.053c-.005-.053-.051-.097-.037-.159.01-.003 0 .015.008.017.01 0 .01-.006.016-.007.017-.054-.034-.089-.016-.144.01.008.015.02.029.025.004.015.012.03.013.047 0 .012-.007.022-.007.034 0 .032.02.047.032.072.004.047-.005.097.013.138.008.023.023.037.037.055l.01.02c.017.046.008.098-.02.12-.011.007-.025.012-.033.021-.007.008-.008.021-.017.026-.006-.007 0-.028-.003-.04a.085.085 0 0 0-.01-.027c-.014-.02-.034-.04-.032-.073zm-.016.06c0-.002.004-.002.005-.002a.13.13 0 0 1 .025.08c-.014 0-.026-.002-.037-.003.003-.022.01-.051.007-.075zm-.036-.104c-.01-.033.011-.077.008-.117a.196.196 0 0 0-.02-.072c-.014-.033-.036-.06-.04-.098-.004-.05.03-.078.04-.121.008-.017.008-.035.012-.055v-.003c.008-.001.007.007.007.018.003.015.007.023.01.036a.053.053 0 0 1 .008.016c0 .014-.007.03-.008.044-.003.02.006.041.006.055 0 .013-.004.024-.004.036-.005.025-.011.054-.007.081 0 .014.008.03.012.046.008.027.02.054.017.09-.001.03-.018.057-.018.088-.007-.017-.017-.032-.022-.045zm-.111-.046a.214.214 0 0 0-.001-.044c0-.006-.007-.014-.004-.019 0-.007.005-.01.007-.018.013-.041-.024-.072-.042-.096a.21.21 0 0 1-.04-.17l.003-.004c.02.02.032.048.053.065-.003.038-.004.08.013.109.007.014.017.025.025.038.008.014.022.03.025.042.004.022-.01.04-.016.056-.017.044-.008.108.012.135.01.013.034.022.033.039 0 .016-.02.02-.028.034a.135.135 0 0 1-.044-.058.139.139 0 0 1-.013-.05c.003-.02.016-.038.017-.059zm.037-.912a.05.05 0 0 0-.007.032.112.112 0 0 0-.025.043.076.076 0 0 0-.065.05c-.006.014-.004.03-.003.047.001.007.004.017.004.025 0 .018-.008.05-.016.066-.008.02-.028.036-.04.055l-.014.021a.13.13 0 0 0 .008.087c.006.008.016.015.02.022v.025l.003.025c0 .024-.01.046-.012.067a.304.304 0 0 0 .038.17c.004.007.011.013.014.024a.13.13 0 0 1-.06-.05c-.014-.028-.013-.061-.014-.101-.003-.038-.018-.07-.027-.104-.004-.02-.005-.037-.007-.056 0-.02.003-.037.006-.058a1.01 1.01 0 0 1 .035-.161c.007-.038.026-.06.037-.094a.455.455 0 0 1 .105-.138c.01 0 .015-.006.025-.007.004.003-.003.006-.006.01zm.033.145c0-.006 0-.008.003-.013a.8.8 0 0 0-.028.093.022.022 0 0 1 0-.019c.003-.02.01-.053.025-.062zm-.13.231c.005-.016.018-.029.025-.044a.285.285 0 0 0 .02-.09v-.007c.002 0 .002 0 .004.003.023.08-.025.153-.024.226 0 .025.008.049.018.07.005.016.017.03.007.056-.018-.014-.026-.032-.04-.054a.377.377 0 0 1-.014-.025.266.266 0 0 1 .004-.135zm.033-.238c.011-.006.018-.015.035-.012a.226.226 0 0 0-.02.092c-.003-.004-.01-.006-.016-.011-.015-.018-.01-.054.001-.07zm-.07.196h.004c.018-.036.043-.065.052-.108.004.001.005.004.008.004 0 .079-.062.113-.07.182-.012-.015-.01-.051.001-.062v.003c.007 0 0-.02.004-.008.004-.003-.003-.006 0-.011zm.132-.027c0 .021.001.046-.004.068-.007.022-.023.037-.026.063v.013c0 .006-.005.01-.007.015-.003.02.003.04.003.066a.173.173 0 0 1-.012-.119c.007-.028.02-.053.022-.082.006-.053-.001-.115.008-.164.008-.03.026-.047.04-.07.008-.002.012-.014.023-.013.001-.003-.006 0-.004-.003.036-.025.086-.052.142-.036a.38.38 0 0 1-.06.006c-.05.02-.094.047-.118.097l-.003.006a.22.22 0 0 0-.012.059c-.006.034.008.063.008.095zm.491-.077a.274.274 0 0 1-.02.153c-.015.028-.032.051-.05.077.003.01.01.03 0 .04a.164.164 0 0 1-.056-.019c.003.029.032.032.053.043 0 .008-.008.018-.013.019-.007.001-.032-.018-.04-.02-.004-.004-.007-.01-.01-.01 0 .027.021.035.034.048-.004.008-.013.02-.021.02-.022.003-.033-.037-.04-.056-.014.006-.01.026-.015.04-.035-.013-.047-.048-.044-.087.008-.032.066-.025.075-.058a.064.064 0 0 0-.005-.03c-.004-.01-.006-.02-.013-.021-.007.011.01.026 0 .039-.007.004-.013 0-.02 0-.023-.003-.042.008-.064.006-.01-.001-.021-.006-.032-.006-.008 0-.017 0-.025-.004-.003-.013.008-.025-.005-.03a.05.05 0 0 0-.008.04c.001.012.014.026.022.031.02.011.048.011.057.028a.047.047 0 0 1 0 .033c-.002.033-.03.055-.057.063.004-.01.007-.04-.005-.038-.008 0-.011.022-.018.031-.01.017-.035.03-.048.004.019-.014.038-.022.047-.047a.149.149 0 0 0-.042.013c-.015.007-.026.016-.026-.013a.077.077 0 0 0 .058-.038c-.017.006-.037.015-.06.01-.004-.004 0-.01 0-.013a.292.292 0 0 1-.068-.182.352.352 0 0 1 .048-.176c.008-.015.017-.028.033-.034a.19.19 0 0 1 .076-.013c.029.003.048.017.072.022.03.008.05-.013.076-.016a.118.118 0 0 1 .088.025c.008.004.015.016.023.024a.19.19 0 0 1 .044.102zm-.02.465c.005.007.012.01.016.019.007.016.007.07-.008.076.004-.068-.06-.097-.044-.166a.253.253 0 0 1 .015-.045c.011-.033.028-.07.016-.113 0-.003-.005-.01-.005-.015 0-.007.02-.043.027-.05.01.004.01.02.01.026.009.025.024.054.025.084a.18.18 0 0 1-.023.082c-.015.022-.039.038-.036.074l.008.028zm.025-.525v-.006c0 .003.002.003.003.003.028.013.04.05.042.086 0 .027-.011.055-.013.079a.098.098 0 0 0 .016.067c.007.008.023.016.023.032 0 .017-.014.028-.017.041-.01-.012-.012-.03-.016-.045s-.01-.033-.011-.05c-.001-.016.003-.027.004-.044a.368.368 0 0 0-.03-.164zm.153.347a.133.133 0 0 1-.012.048c-.012.02-.03.025-.037.046-.008.028.012.056.007.082-.008 0-.013-.01-.015-.018a.064.064 0 0 1-.013-.022c-.01-.038.017-.093.004-.136 0-.008-.01-.018-.01-.024 0-.02.019-.037.016-.063 0-.016-.01-.023-.018-.036-.008-.01-.017-.015-.017-.029 0-.022.016-.04.02-.062a.145.145 0 0 0-.016-.1h.004a.205.205 0 0 1 .062.136c0 .035-.01.07-.007.105.004.026.03.043.032.073zm-.09-.465c-.005 0 .008-.007.008-.01.015-.014.038.002.041.016.017.047-.022.103-.058.109-.015.003-.04-.003-.041-.014.004-.006.008-.003.012-.004a.103.103 0 0 0 .068-.036c.01-.029-.003-.06-.03-.06zm-.01.004c0 .008-.006.014-.003.022 0 .006.007.01.007.014 0 .006-.024.018-.033.022-.025.008-.06.001-.07-.012a.205.205 0 0 0 .1-.046zm-.3-.071c0-.013.016-.008.02-.015.027.003-.007.026-.02.015zm.028.019c.02-.004.025-.02.043-.02.012.019-.014.028-.021.04-.014.008-.026.019-.052.016-.017-.003-.032-.013-.049-.02-.038-.016-.088-.005-.12.008-.03.012-.05.033-.072.052.017-.057.052-.088.106-.097a.309.309 0 0 1 .06.004c.037.004.075.024.105.017zm-.524-.843c.001-.008.014-.011.024-.013.029-.008.063-.019.096-.019a.02.02 0 0 1 .006.014v.003c-.02.007-.042.008-.065.01-.02.004-.04.012-.059.009v-.004zm-.081.071c-.001-.006-.006-.008-.008-.013.017-.011.03-.034.048-.04h.003a.288.288 0 0 0 .008.056c.003.014.004.03.008.044l.014.084c.005.03.025.105.035.133.031.086.07.168.107.245-.003.01-.012.02-.01.034.001.01.01.011.014.018-.003.013-.01.018-.007.03.003.023.038.03.06.032.006.01.01.022.016.037.003.008.015.03.013.042 0 .008-.019.015-.024.022-.016.012-.027.029-.039.047a.627.627 0 0 0-.076.132c-.004.01-.007.02-.015.029.007-.323-.02-.631-.147-.832v-.024h.002v-.037c0-.012 0-.028-.003-.039zm.084 1.383c-.006-.003 0-.011.001-.017l.013-.058c0-.012 0-.023.008-.032l.003.001c-.007.021-.007.049-.011.07-.004.013-.005.027-.014.035zm.033-.064.001-.003h.004c.024.058.007.132.039.18.018.034.054.045.095.059.018.013.006.033.008.052 0 .012.01.023.012.039a.179.179 0 0 1-.007.044c-.008-.007-.008-.022-.012-.032-.007-.014-.015-.03-.026-.041-.024-.027-.065-.032-.09-.06a.21.21 0 0 1-.047-.122c0-.042.022-.072.022-.116zm.246.434c-.004.006.003.018-.004.02-.01-.003-.013-.016-.016-.024a.14.14 0 0 1-.008-.085c.011-.036.025-.072.013-.112-.006-.016-.02-.033-.03-.052-.014-.027-.03-.049-.024-.091.004-.03.015-.062.017-.097 0-.037-.001-.071.01-.102a.213.213 0 0 1 .022-.048c.007-.003.01.014.012.022a.206.206 0 0 1 .008.097c-.006.02-.017.037-.023.056a.248.248 0 0 0-.007.105c.003.015.01.03.015.044.012.03.037.058.041.09a.147.147 0 0 1-.001.048c-.001.031-.02.053-.01.09.004.016.018.032.026.049a.156.156 0 0 1 0 .135c-.017-.004-.024-.02-.034-.032.026-.03.013-.085-.007-.113zm.301-.09c0-.005.004-.015.004-.021 0-.014-.01-.027-.007-.043.001-.015.013-.028.016-.044 0-.018-.01-.028-.01-.047-.003-.008.004-.025.004-.036-.001-.006-.008-.051-.017-.051-.011-.001-.016.026-.016.04a.082.082 0 0 0-.001.028c0 .013.01.022.015.035.007.025-.01.049-.01.068 0 .01.005.022.005.03.003.02-.01.037-.01.055.003.015.016.028.02.043.016.057-.022.098-.04.132-.01.011-.026.014-.04.03-.012.016-.015.049-.05.03.005-.013.022-.014.027-.027.018-.013.037-.027.044-.052.008-.033-.003-.079-.003-.121 0-.021.008-.035.014-.054a.288.288 0 0 0 .014-.055c.004-.039-.02-.073-.015-.104.004-.013.019-.024.02-.038 0-.013-.006-.02-.01-.026-.015.004-.036 0-.05.004-.002.008-.005.015-.003.024 0 .008.01.014.012.023.006.013.008.027.011.044.003.013.011.027.011.042.001.043-.029.079-.026.127a.034.034 0 0 1-.011-.02.034.034 0 0 1-.003-.021c0-.014.01-.022.012-.035.001-.01-.003-.02 0-.033.002-.016.016-.029.016-.041 0-.013-.01-.02-.014-.028 0-.027-.015-.041-.014-.073 0-.003-.005-.006-.005-.01-.015-.009-.034-.002-.047-.012-.012-.01-.01-.042-.02-.056.01-.007.022-.006.035-.008.01-.004.022-.013.03-.014.012-.001.025.007.036.007.011-.003.018-.008.027-.008.01 0 .024.011.035.012h.011c.018.002.027.012.036.02.032-.01.046-.039.06-.066-.004.04-.03.065-.024.109.004.037.032.06.04.092l.004.033c.005.057-.022.084-.04.126-.01-.008-.023-.025-.023-.042-.001-.023.023-.042.027-.066.006-.037-.012-.07-.02-.096-.004-.015-.007-.03-.011-.039-.004-.006-.01-.01-.013-.016-.006-.008-.004-.022-.015-.028-.01.004-.011.011-.012.02 0 .024.029.049.037.07.004.008.005.02.01.033a.082.082 0 0 1 .01.05c-.005.021-.03.038-.033.061a.109.109 0 0 0 .01.046l.02.026a.149.149 0 0 1 .014.046.19.19 0 0 1 .01.046c.002.011-.002.039-.003.053a.096.096 0 0 1-.023.044.067.067 0 0 1-.034.03c-.012.007-.026.01-.042.015-.007.001-.015.006-.022.008-.014.003-.024-.01-.04-.008.006-.042.042-.046.063-.073a.142.142 0 0 0 .034-.108c-.003-.027-.017-.05-.017-.08zm.37.082c-.001.007-.007.015-.011.022a.211.211 0 0 1-.033.058c-.027.033-.07.054-.108.083-.011.008-.02.02-.032.03a.138.138 0 0 1-.034.029c-.005.003-.011.007-.02.003-.005-.011.009-.011.014-.013.005-.008.016-.01.02-.018.003-.003 0-.01.004-.016.01-.022.037-.034.053-.057a.082.082 0 0 0 .014-.035c.003-.006.001-.014.005-.02.008-.012.024-.016.033-.026a.863.863 0 0 1 .02-.027.23.23 0 0 0 .016-.043c.008-.046-.012-.08-.004-.138-.018.02-.01.062-.01.092 0 .043-.022.07-.045.091.003-.015-.006-.029-.006-.041.003-.018.016-.029.024-.041.014-.025.003-.055.007-.084.003-.014.01-.027.013-.04a.096.096 0 0 0 0-.04c-.001-.008-.008-.018-.007-.028 0-.011.01-.022.008-.04 0-.011-.007-.022-.007-.033a.075.075 0 0 1 .012-.047c.004-.003.008-.003.013-.006.003-.004.008-.016.013-.014.014.006.025.055.027.075a.439.439 0 0 1-.001.09c-.001.019-.003.042-.001.061 0 .042.02.07.023.108a.175.175 0 0 1-.001.064zm-2.477-2.588c.013-.007.028-.014.039-.023-.004.013-.02.023-.037.027l-.001-.004zm-.029.18c-.008-.031-.01-.07-.016-.097a.475.475 0 0 1 .02.059c.003.022.01.045.006.065-.007-.006-.008-.018-.01-.028zm-.044-.172c.003-.008.014-.01.02-.014.003.004-.005.006-.007.01.006.021.006.046.022.061-.008 0-.011.006-.018.006 0-.011-.02-.05-.017-.062zm-.008-.063a1.359 1.359 0 0 0-.052-.088.579.579 0 0 0 .015-.098c.006 0 .003.007.004.014.008.024.029.055.004.064.008.042.026.078.036.12-.005-.003-.004-.008-.007-.012zm-.023.121a.157.157 0 0 1-.062-.004c-.011-.006-.02-.014-.032-.022-.022-.041-.014-.113-.01-.167.006.022.002.065.004.097a.15.15 0 0 0 .011.055c.007.018.032.03.054.034.01.003.022 0 .033-.003.007 0 .016-.007.02.001 0 .007-.012.007-.019.008zm3.023 2.769-.03-.01c-.02-.004-.048-.004-.07-.004-.021-.003-.042-.003-.065-.008-.022-.004-.044-.006-.065-.013-.016-.006-.034-.02-.05-.029a2.12 2.12 0 0 0-.187-.084c.014-.022.029-.038.04-.06.014-.027.017-.061.022-.098.004-.022.011-.047.013-.066a.678.678 0 0 0-.003-.129c-.013-.128 0-.253-.006-.373a.54.54 0 0 0-.03-.147c-.016-.047-.027-.098-.043-.138a.175.175 0 0 0-.025-.044c-.008-.011-.025-.02-.03-.03-.002-.007 0-.01-.002-.019-.006-.016-.026-.022-.038-.031-.01-.007-.017-.015-.025-.021a.092.092 0 0 0-.029-.015c-.008-.003-.018-.003-.026-.008-.008-.003-.011-.01-.017-.014-.026-.016-.052-.008-.088-.016-.006 0-.01-.006-.016-.006-.044-.014-.106-.003-.155-.018-.052-.013-.096-.042-.139-.055.003-.025-.016-.03-.03-.04 0-.013.01-.036-.006-.046h-.02c-.023-.084-.037-.167-.059-.247-.01-.04-.028-.078-.035-.117-.004-.02-.005-.041-.01-.067-.001-.021-.008-.043-.01-.066-.007-.035-.005-.065-.008-.1.01-.015.037-.031.035-.057v-.013a.206.206 0 0 0-.023-.044c-.02-.048-.028-.106-.04-.163-.01-.059-.019-.114-.038-.164-.006-.016-.014-.033-.018-.048 0 0-.003 0-.003-.003-.005-.034-.02-.052-.051-.058-.004-.01-.012-.019-.02-.031-.003-.007-.017-.025-.017-.032-.004-.02.003-.033-.004-.046-.001-.008-.011-.01-.013-.017 0-.007.003-.014.001-.021 0-.01-.01-.011-.013-.02.013-.022 0-.045-.011-.057.01-.017-.001-.033-.01-.044.012-.017-.003-.036-.01-.049a.044.044 0 0 0-.011-.048c.01-.026-.004-.043-.007-.058v-.015c0-.008-.007-.014-.01-.02-.001-.007-.001-.014-.004-.021a.132.132 0 0 0-.007-.026c-.007-.05-.014-.08-.045-.115a.216.216 0 0 0-.164-.066.264.264 0 0 0-.163.05.153.153 0 0 0-.062.086.03.03 0 0 1-.007.01.187.187 0 0 0-.025.083l-.018.054c-.003.01 0 .02-.004.03 0 .004-.004.01-.006.015 0 .006.003.011.003.018-.016.011-.014.032-.01.053-.013.008-.015.036-.004.044-.016.014-.016.047-.004.063-.003.011-.01.014-.01.025 0 .01.007.015.007.023s-.01.014-.012.023a.039.039 0 0 0 .006.034c-.01.014-.022.032-.014.054-.004.007-.01.01-.012.018-.003.004 0 .01-.003.016-.003.012-.017.02-.025.03a.377.377 0 0 0-.062.13c-.03.127-.055.267-.09.388-.007.025-.01.05-.023.072-.065-.023-.142-.033-.214-.05-.003-.012 0-.026-.01-.033-.013-.007-.03.004-.044.007-.006-.016-.034-.024-.05-.013-.009-.006-.018-.008-.025-.016a.15.15 0 0 0-.051-.082c-.011-.007-.028-.014-.042-.024-.022-.012-.04-.023-.066-.031-.015-.006-.047-.025-.053-.039l-.003-.018a15.683 15.683 0 0 1-.064-.244c-.003-.014-.008-.029-.007-.038.001-.007.006-.008.007-.016 0-.008-.004-.022-.005-.031-.01-.035-.02-.065-.025-.1a.17.17 0 0 0 .09-.042c.012-.022.027-.039.025-.075-.008-.09-.079-.157-.084-.255-.001-.02.006-.04-.004-.057-.011 0-.017.016-.02.026-.026.076.018.143.03.21.005.03-.002.063-.021.08-.01.009-.03.027-.042.02a.205.205 0 0 1-.01-.103c-.01-.016.01-.032.005-.051 0-.007-.014-.018-.02-.025-.005-.01-.013-.018-.018-.025a1.009 1.009 0 0 1-.066-.127c-.007-.014-.01-.033-.027-.038-.01.008-.004.019-.003.027.006.032.008.062.011.098 0 .025 0 .069-.005.096-.003.008-.01.018-.008.028.003.006.011.01.014.015l.014.025c.02.028.036.06.048.092-.007.004-.014.014-.01.024-.05.019-.08-.015-.084-.058-.004-.039 0-.081-.007-.121a.23.23 0 0 0-.045-.113c-.007-.008-.02-.022-.033-.017 0 .012.01.02.015.032.025.071.014.19.015.277a.097.097 0 0 0 .046.081c.031.02.076.007.116 0 .01.03.022.073.03.108.003.008.003.016.006.022l.014.01c.006.007.007.028.01.04.024.096.05.196.071.287 0 .008-.008.011-.01.017-.006.014-.004.026-.004.044v.02c0 .009.008.016.011.024.003.018 0 .034.014.044 0 .02.011.037.02.048.009.008.02.011.024.018.005.008.01.033.014.047a.46.46 0 0 0 .011.05c.025.097.046.191.072.29.081.322.16.643.237.964.015.066.036.128.044.195a.252.252 0 0 0-.043.014.785.785 0 0 0-.17.083l-.017.01a.749.749 0 0 0-.2.243.744.744 0 0 1-.025.04c-.004.008-.005.018-.01.028-.004.008-.01.015-.014.025a.434.434 0 0 0-.035.124.309.309 0 0 0 .016.156c-.025-.001-.079.008-.08.031 0 .014.017.026.02.035a.06.06 0 0 1-.04.004.236.236 0 0 0-.1.004c-.008.006-.022.015-.02.027.002.022.05.028.071.028.01 0 .018-.004.025-.004.02-.001.041 0 .058.006.008.004.008.007.012.008h.018c.005 0 .011.004.018.004h.06c-.003.006-.01.01-.016.016.003.008 0 .013.001.025.011.018.025.025.047.03.043.011.079-.01.12-.006.029.003.06.02.097.013-.014.015-.024.045-.011.065.007.01.017.01.026.016a.519.519 0 0 0 .096.001c.022 0 .062-.014.082 0 .007.004.01.017.017.026.001.003.007.007.014.011l.011.013c.014.008.054.015.062.03.001.001-.004.004.001.006 0 .036.001.074.018.1.008.012.022.017.028.03.019.01.037.026.059.04.012.008.029.012.044.019.014.008.025.022.036.033l.003-.001.003-.001c-.007.003-.007-.011-.007-.018 0-.02.008-.039.012-.056.025-.118-.042-.203-.096-.257-.007-.008-.017-.012-.02-.022.028-.006.045-.02.068-.031.01.04.018.085.026.13.004.013.007.03.017.036.01.006.034-.004.038-.01.011-.015-.003-.044-.007-.062a2.1 2.1 0 0 0-.02-.087c-.003-.012-.013-.037-.008-.046.004-.014.046-.016.073-.014.013 0 .034.006.05.006.021-.003.04-.018.063-.01.01.007.015.02.027.022a.24.24 0 0 0 .113 0l.05-.015c.025-.007.05-.007.066-.018.016-.004.05-.01.052-.025 0-.008-.01-.007-.008-.018.014-.004.028-.01.043-.01.022-.001.044.006.063.006.011.001.025-.006.036-.003.025.003.05.014.077.01.013-.003.025-.008.043-.01.017-.003.034.004.052.006a.617.617 0 0 0 .073-.003.288.288 0 0 0 .091-.022c.006-.003.017-.014.024-.014.007 0 .023.004.036.007l.04.003c.013 0 .037-.003.038-.01.004-.009-.012-.023-.018-.027-.031-.02-.095-.02-.136-.013-.01.003-.024.01-.03 0 0-.01.015-.008.023-.013.007-.004.01-.011.016-.016a.33.33 0 0 0 .113.001c.02.014.045.017.073.02.003.006 0 .012.003.018.017.012.045.015.07.015.072.004.152.018.221.022.03.023.087.018.126.03-.011.004-.018.013-.027.018a.315.315 0 0 0-.157.006c-.018.008-.026.029-.01.043.015.015.051.02.083.02.032 0 .063.006.092 0a.085.085 0 0 0 .036-.016c.008-.004.01-.014.01-.022.029 0 .113.004.117-.026.001-.01-.008-.013-.01-.02.015.003.018-.018.032-.022h.02l.028-.008c.013-.008.015-.018.026-.027.018 0 .035.006.053-.003.018-.007.031-.027.052-.03.02-.007.039 0 .06.005.019.004.04.011.061.011.018.003.047 0 .062-.01.011-.004.02-.015.03-.019.02-.006.045-.004.057-.02l.001-.016c.037-.015.055-.043.05-.095-.004-.05-.041-.081-.087-.09zm-1.105.339c-.01 0-.022.008-.03.007-.007 0-.014-.006-.024-.01a.206.206 0 0 0-.048-.008c-.02 0-.082.008-.052.033.01.01.036.013.052.018-.008.008-.006.019.003.024.02.017.077.016.108.02.02-.001.053-.004.08-.001.01.003.026.01.037.012a.1.1 0 0 0 .07-.016c.013-.01.024-.017.018-.034-.023-.017-.06-.022-.102-.024-.012-.032-.076-.03-.112-.021zm-.143-.397c.012-.013.032-.013.044-.022-.022-.024-.091-.021-.087.026.004.02.047.023.043-.004zm.328-.565c-.001.013.012.027.023.027.014.003.03-.01.026-.026-.01-.006-.037-.004-.05 0zm-.097-.354c.017-.006.037.008.021.017a.016.016 0 0 1-.012-.003c.003.018.028.017.04.008.004.003.008.003.006.008-.024.008-.062 0-.055-.031zm.04-.024c-.029-.015-.059.006-.084 0-.005 0-.01-.009-.015-.009 0 .025.011.036.033.039.011.033.046.044.092.042.005.004.003.01.01.011.005 0 .013-.01.013-.015a.074.074 0 0 0-.011-.03c-.004-.012-.028-.03-.037-.037zm.188.047c-.004 0-.006.006-.01.003-.001-.008.005-.006.008-.01 0-.014.006-.022.019-.022.01.006.01.02 0 .026.018.006.028-.01.029-.027.008-.001.01.003.014.007-.005.023-.036.035-.06.023zm.074-.052c-.018 0-.039-.013-.056-.01-.014 0-.03.013-.04.024a.158.158 0 0 0-.018.057c0 .003 0 .008.008.01.007.005.006-.01.01-.01.037.003.063.003.082-.011.011-.008.017-.025.022-.04.005-.01.018-.02.014-.035h-.004c-.006.003-.01.013-.018.015zm-.151-.004a.034.034 0 0 1-.016-.021c-.006.02-.018.023-.029.026-.01.003-.015-.006-.02-.006-.004.029.042.02.052.006.008.011.041.024.044-.003-.01.006-.022.003-.031-.003zm-.85-.875c-.01.01-.016.01-.024-.004a.066.066 0 0 1-.015-.047.07.07 0 0 1 .03-.044h.003c.03.02.033.067.006.094zm-.013-.101c-.028.003-.048.015-.057.033a.057.057 0 0 0-.003.051.08.08 0 0 0 .061.039.08.08 0 0 0 .063-.036c.021-.047-.016-.09-.064-.087zm-.004-.852v-.004c.004-.003.01 0 .015.001.001.006-.014.004-.015.003zm.065-.038c-.004 0-.007.006-.011.006-.005 0-.013-.004-.018-.004-.008-.001-.015.003-.02.004-.019-.014-.034.006-.046.003-.01 0-.01-.007-.017-.007-.005.004-.004.015 0 .02.006.002.015-.002.02 0 .007.008.007.025.02.03a.073.073 0 0 0 .041 0c.01-.006.016-.018.018-.03.005 0 .013-.004.025-.004.001-.012-.003-.018-.012-.018"/><path fill="#ee7a00" d="m-281.883-199.814-1.803 13.554 1.806-.963zm-3.858 15.416-6.965-2.27 7.367 4.24zm14.679-2.274-8.386.903 1.442 1.364zm-8.401 6.787 4.427 6.002-3.616-7.777zm-9.268 6.008 6.45-5.716-2.016-.295zm7.099-5.862 2.056-.296.827-1.831zm-3.378-2.125.826 1.828 2.052.297zm.914-3.848-1.463 1.373.41 1.989zm4.428 0 1.463 1.372-.409 1.99zm-.387-.309-1.825-.988-1.828.988zm0 0"/></g></svg>