<svg xmlns="http://www.w3.org/2000/svg" width="207.008" height="172.482" viewBox="0 0 34.278 28.269"><clipPath id="a"><path d="M22.324 841.676V22.324"/></clipPath><g clip-path="url(#a)" transform="matrix(1.25 0 0 -1.25 -364.122 732.637)"><path fill="none" stroke="#000" stroke-width=".498" d="M22.174 45H-.352m22.301 774H-.352"/></g><g fill="#f15a29"><path d="m18.807 28.393-13.742.01-.005-.368 10.118-.402c1.92-.074 3.785-.173 5.59-.787 3.7-1.238 6.649-3.757 7.515-6.877.932-3.344-1.207-6.595-5.238-6.876 3.414-1.002 6.326-3.164 7.1-5.951 1.008-3.616-.814-5.443-3.888-6.113 5.113-.081 9.113 1.636 7.752 6.53-.774 2.786-3.755 4.906-7.146 5.83a5.696 5.696 0 0 1 5.11 7.398c-1.098 3.445-3.876 5.583-7.576 6.817-1.806.615-3.667.716-5.59.79"/><path d="m11.596 26.66-6.492.309c-.002-.166-.009-.216-.027-.376l16.39-4.73.011-.263-16.616 3.998a2.325 2.325 0 0 0-.135-.348l17.451-9.69-.111-.27-17.848 9.126c-.11-.153-.093-.16-.216-.295L24.748 4.56l-.18-.22L3.214 23.457c-.098-.073-.152-.13-.26-.194L18.107 1.16l-.269-.075-15.791 21.77c-.088-.028-.176-.057-.264-.082l8.67-21.378-.23-.025L.447 22.585c-.12 0-.241.002-.364.01L0 22.602 6.299-.154l11.766.037c5.566-.318 9.963 1.185 8.518 6.383-.777 2.785-3.686 4.95-7.082 5.875l-.02.074c4.03.28 6.3 3.524 5.37 6.869-.867 3.118-3.967 5.553-7.667 6.79-1.807.614-3.671.716-5.588.787"/></g></svg>