<svg xmlns="http://www.w3.org/2000/svg" width="57.175" height="51.474" viewBox="0 0 45.74 41.179"><path d="M287.66 35.86c37.5 35.45 75.01 70.88 112.52 106.31-3.41 3.51-6.89 6.95-10.34 10.41-33.99-32.1-67.99-64.2-101.95-96.34-33.16 33.28-66.69 66.18-99.87 99.44-3.54-3.41-7.17-6.74-10.71-10.17 28.57-28.5 57.31-56.82 85.84-85.37 8.39-7.86 16.4-16.13 24.51-24.28z" style="fill:#013cc8;fill-opacity:1" transform="translate(-4.448 -3.406) scale(.09499)"/><path d="M195.95 161.92c30.82-30.66 61.95-61 92.8-91.62 31.46 29.57 62.81 59.26 94.26 88.83-3.46 3.46-6.93 6.92-10.38 10.4-27.83-26.32-55.66-52.64-83.64-78.79-27.39 27.08-54.9 54.02-82.23 81.16-3.67-3.26-7.22-6.65-10.81-9.98z" style="fill:#013cc8;fill-opacity:1" transform="translate(-4.448 -3.406) scale(.09499)"/><path d="M213.73 178.88c24.83-24.58 49.95-48.87 74.71-73.53 25.38 23.5 50.53 47.23 75.85 70.78-3.47 3.46-6.94 6.92-10.4 10.4-21.66-20.27-43.42-40.42-65.06-60.71-21.54 20.96-42.93 42.09-64.38 63.15-3.6-3.33-7.11-6.77-10.72-10.09zm153.42 5.25c12.91-12.29 25.3-25.12 37.96-37.67 37.43 35.53 74.97 70.93 112.49 106.36-3.44 3.43-6.89 6.85-10.28 10.33-34.04-31.93-67.93-64.03-101.79-96.15-33.6 32.88-66.72 66.25-100.16 99.3-3.49-3.46-7.1-6.78-10.69-10.13 24.19-23.98 48.39-47.95 72.47-72.04zm-250.36 16.68c16.75-16.98 33.87-33.56 50.71-50.45 37.45 35.49 75.05 70.85 112.49 106.36-3.44 3.45-6.88 6.89-10.33 10.33-33.97-32.07-67.97-64.13-101.86-96.29-19.94 19.74-39.94 39.41-59.72 59.31-13.69 13.11-26.7 26.91-40.45 39.96-3.49-3.39-7.08-6.65-10.59-10.01 11.58-11.75 23.49-23.17 35.11-34.88 8.18-8.14 16.23-16.43 24.64-24.33z" style="fill:#013cc8;fill-opacity:1" transform="translate(-4.448 -3.406) scale(.09499)"/><path d="M313.35 272.44c30.91-30.44 61.79-60.92 92.75-91.31 3.08 2.08 5.5 5 8.27 7.46 28.7 27.02 57.29 54.16 86.1 81.06-3.47 3.5-6.96 6.98-10.45 10.47-27.75-26.35-55.72-52.47-83.47-78.82-27.48 27.06-55.01 54.08-82.4 81.25-3.68-3.28-7.21-6.73-10.8-10.11zM168.58 184.7c31.35 29.71 62.86 59.25 94.25 88.91-3.49 3.43-6.88 6.96-10.46 10.28-27.85-26.26-55.72-52.49-83.57-78.74-27.4 27.12-54.97 54.06-82.38 81.18-3.41-3.44-7.31-6.4-10.39-10.15 22.3-22.72 45.38-44.66 67.86-67.2 8.36-7.97 16.33-16.32 24.69-24.28z" style="fill:#013cc8;fill-opacity:1" transform="translate(-4.448 -3.406) scale(.09499)"/><path d="M361.56 259.64c14.79-14.54 29.62-29.06 44.43-43.58 25.35 23.55 50.55 47.26 75.86 70.85-3.55 3.4-7.16 6.74-10.63 10.22-21.58-20.3-43.37-40.38-64.95-60.68-21.52 20.97-42.89 42.09-64.38 63.09-3.65-3.33-7.21-6.75-10.74-10.2 10.37-9.66 20.2-19.88 30.41-29.7zM93.51 293.32c24.81-24.6 49.97-48.83 74.71-73.51 25.41 23.45 50.49 47.26 75.88 70.74-3.43 3.54-6.94 7-10.42 10.49-21.72-20.29-43.43-40.6-65.23-60.8-21.19 21.23-42.91 41.93-64.09 63.17-3.65-3.33-7.3-6.65-10.85-10.09z" style="fill:#013cc8;fill-opacity:1" transform="translate(-4.448 -3.406) scale(.09499)"/><path d="M46.83 270.08c40.79 35.92 81.67 71.74 122.4 107.73 37.5-34.58 74.98-69.18 112.39-103.86-.39 6.68.58 13.34.39 20.02-37.54 34.46-74.99 69.01-112.45 103.56-40.02-35.32-79.85-70.86-119.85-106.21-.98-.97-2.38-1.89-2.19-3.47-.16-5.92-.57-11.84-.69-17.77zm246.39 1.75c40.56 35.54 81.55 70.6 122.3 105.92 36.29-35.15 72.62-70.27 108.8-105.52-.08 6.63.58 13.24.74 19.86-36.17 35.34-72.75 70.26-109 105.51-40.62-35.58-81.4-70.98-122.06-106.52-.24-6.42-.35-12.84-.78-19.25z" style="fill:#013cc8;fill-opacity:1" transform="translate(-4.448 -3.406) scale(.09499)"/><path d="M417.25 416.01c36.53-36.43 72.53-73.37 108.71-110.15.28 6.34.27 12.7.55 19.05-36.17 36.97-72.44 73.84-108.55 110.86-40.77-35.61-81.42-71.36-122.22-106.94-.09-6.96-.68-13.89-.88-20.85 40.76 36.06 81.62 71.99 122.39 108.03zM47.97 306.16c40.82 36.63 81.58 73.34 122.49 109.86 37.63-35.84 74.77-72.2 112.11-108.34-.27 6.15.92 12.3.3 18.45-2.57 3.62-6.18 6.39-9.3 9.53-34.17 33.51-68.66 66.68-102.77 100.25-37.72-33.55-75.38-67.16-113.07-100.75-3.04-2.84-6.44-5.33-9.16-8.49-.09-6.83-.5-13.67-.6-20.51z" style="fill:#013cc8;fill-opacity:1" transform="translate(-4.448 -3.406) scale(.09499)"/><path d="M419.02 449.58c36.2-36.84 72.28-73.79 108.33-110.78.55 6.66.87 13.33 1.02 20.01-36.26 36.83-72.58 73.61-108.87 110.42-40.6-35.11-81.4-69.99-122.03-105.07-.68-6.68-.5-13.39-.83-20.08 40.7 35.27 81.69 70.21 122.38 105.5zm-247.52-.07c37.61-36.09 74.78-72.62 112.02-109.07.45 6.72.69 13.45.64 20.19-37.49 36.22-75.01 72.42-112.39 108.75-40.63-35.71-81.37-71.31-122.07-106.93-.3-6.74-.19-13.48-.38-20.21 16.16 14.69 32.82 28.82 49.18 43.29 24.35 21.31 48.67 42.65 73 63.98z" style="fill:#013cc8;fill-opacity:1" transform="translate(-4.448 -3.406) scale(.09499)"/></svg>