<svg xmlns="http://www.w3.org/2000/svg" width="62.323" height="53.328" viewBox="0 0 16.49 14.11"><g style="display:inline"><g style="display:inline"><path d="M0 0c-.59-2.023-.422-1.264-1.295-4.582-.789-3.151-1.608-6.271-2.226-8.351a6.893 6.893 0 0 0-.732-1.183 9.854 9.854 0 0 0-1.268-1.378c-2.679-2.334-6.678-3.714-10.14-3.179a6.202 6.202 0 0 0-1.014.198c-2.173.507-3.608 1.578-4.425 2.923-.873 1.436-1.099 3.32-.79 5.346.03.28.114.646.224 1.068 1.325 5.346 2.678 10.658 4.004 15.973.534 2.698-5.159 3.404-6.369-.111l-3.663-14.401c-.081-.448-.195-1.01-.282-1.599-.535-3.431-.028-6.698 1.552-9.397 1.661-2.781 4.395-4.866 8.309-5.789.423-.114.931-.199 1.521-.284 5.209-.787 11.212 1.183 15.131 4.641.785.704 1.52 1.464 2.14 2.277a14.616 14.616 0 0 1 1.579 2.702v.027l.111.308c.62 2.028 1.466 5.344 2.338 8.691C5.521-2.923 5.831-1.826 6.45.256 7.044 3.095 1.521 4.305 0 0" style="fill:#ed1d24;fill-opacity:1;fill-rule:nonzero;stroke:none" transform="matrix(.35278 0 0 -.35278 9.942 5.32)"/></g><g style="display:inline"><path d="M0 0c.615 1.994.449 1.24 1.294 4.584.819 3.121 1.635 6.274 2.222 8.326.201.392.455.814.762 1.179.368.508.79.956 1.267 1.377 2.679 2.363 6.708 3.715 10.144 3.207.282-.055.62-.111 1.013-.196 2.171-.536 3.635-1.577 4.454-2.954.842-1.434 1.101-3.292.787-5.34-.057-.284-.111-.62-.225-1.071-1.411-5.624-2.817-11.218-4.196-16.845-.37-3.347 5.548-3.683 6.393.085L27.719 7.65c.111.478.225 1.011.309 1.629.506 3.405.029 6.665-1.579 9.365-1.63 2.785-4.364 4.867-8.281 5.794-.422.084-.933.198-1.549.283-5.211.785-11.211-1.21-15.128-4.643a14.845 14.845 0 0 1-2.144-2.276 12.073 12.073 0 0 1-1.546-2.701l-.143-.336c-.59-1.997-1.465-5.344-2.31-8.663-.845-3.206-1.125-4.303-1.747-6.354C-6.454-4.105-.681-3.768 0 0" style="fill:#006cb7;fill-opacity:1;fill-rule:nonzero;stroke:none" transform="matrix(.35278 0 0 -.35278 6.534 8.781)"/></g></g></svg>