<svg xmlns="http://www.w3.org/2000/svg" width="694.7" height="143.947" viewBox="0 0 221.741 46.085"><path fill="#00836c" d="M0 46.085h221.741V0H0z"/><path fill="#fff" d="M55.805 23.04c0 12.825-10.391 23.22-23.219 23.22-12.82 0-23.215-10.395-23.215-23.22 0-12.815 10.395-23.215 23.215-23.215 12.828 0 23.219 10.4 23.219 23.215m8.036 8.018c-.02-1.016.022-2.027.068-3.035-.008-3.838.015-7.68-.011-11.515-.117-.997-.01-2.02-.1-3.014-.04-.731-.03-1.478-.062-2.214-.077-.26-.044-.545-.098-.822-.13-.39.118-.428.447-.338 1.111-.005 2.205.058 3.319.039.729-.065 1.486-.009 2.216-.068.023.523-.075 1.01-.079 1.525a25.523 25.523 0 0 0-.098 2.43c-.04.656-.038 1.327-.045 1.99-.015 1.917-.058 3.833-.051 5.753-.022 1.935.016 3.872.017 5.807.052 1.172.015 2.351.055 3.523.016.954.043 1.909.099 2.859.04.554.112 1.097.102 1.665-.428-.032-.878-.024-1.286-.073-1.01-.012-2.028-.053-3.039 0-.475-.021-.909.066-1.386.046-.388.17-.271-.179-.271-.442.06-.29.051-.606.098-.9.048-.833.014-1.682.093-2.51-.001-.236-.004-.471.012-.706zm15.828 2.056a27.96 27.96 0 0 0 3.622.166c1.461.014 2.92-.295 4.189-1.011a6.764 6.764 0 0 0 2.386-2.285c.37-.507.632-1.072.875-1.653.443-1.182.743-2.462.839-3.743.137-1.25.14-2.54.065-3.802a11.507 11.507 0 0 0-.742-3.45c-.354-.814-.788-1.594-1.412-2.24-.526-.608-1.191-1.103-1.913-1.48-.476-.202-.972-.457-1.497-.563-1.687-.48-3.47-.412-5.206-.32-.404.014-.805.054-1.206.07-.08 5.208-.05 10.422-.055 15.633.054 1.558.004 3.121.055 4.678zm-5.565-1.8c.056-2.44.066-4.888.057-7.334.08-1.477-.041-2.958 0-4.44.02-2.277-.075-4.542-.092-6.807-.092-.622-.022-1.28-.098-1.9.015-.2-.292-.883.133-.705.748.116 1.53.217 2.315.222.873.073 1.75.093 2.647.083.734-.102 1.528-.078 2.275-.15 1.134-.041 2.233-.154 3.364-.163a15.856 15.856 0 0 1 3.739.205c.885.129 1.762.403 2.602.692.876.344 1.702.8 2.462 1.374.984.756 1.853 1.687 2.481 2.74a11.03 11.03 0 0 1 1.327 3.45c.217.792.298 1.609.357 2.428.086.943.073 1.91.01 2.853-.085.735-.113 1.492-.29 2.217a12.064 12.064 0 0 1-.512 1.897c-.395 1.266-1.056 2.434-1.878 3.473-.523.58-1.044 1.176-1.69 1.632-1.033.872-2.267 1.463-3.534 1.92-.806.231-1.609.486-2.447.59-1.851.343-3.755.302-5.615.19-.84-.013-1.658-.116-2.508-.116-1.155-.112-2.367-.202-3.512-.049a16.32 16.32 0 0 0-1.822.25c.032-.493.14-.97.136-1.472.036-1.028.066-2.043.093-3.08zm32.385 1.759c.805.054 1.598.189 2.433.09.55-.112 1.12-.225 1.61-.504.237-.123.449-.28.642-.446.238-.167.478-.447.667-.715.207-.224.321-.564.494-.835.176-.441.306-.933.39-1.412.005-.493.089-.957.076-1.45-.123-.323.001-.763-.159-1.088-.112-.487-.267-.975-.58-1.38-.145-.24-.297-.46-.52-.62-.17-.252-.499-.396-.727-.594-.282-.08-.503-.296-.806-.324-.38-.124-.779-.271-1.194-.24-.56-.173-1.21-.062-1.807-.095-.526-.146-.59.169-.52.62v8.993zm0-11.972c.857.003 1.738.042 2.541-.202.405-.132.867-.266 1.239-.544.404-.234.712-.544 1.007-.894a4.2 4.2 0 0 0 .666-1.336c.114-.29.161-.618.193-.934.058-.53.12-1.071 0-1.583-.025-.375-.106-.726-.293-1.042-.193-.474-.52-.82-.905-1.147-.326-.289-.72-.42-1.12-.615-.996-.282-2.094-.371-3.123-.203-.4-.015-.124.574-.205.842v7.658zm-5.429 9.957c.018-1.612.025-3.226.046-4.836.04-2.212.007-4.433.018-6.648-.067-1.05-.015-2.118-.048-3.174-.01-1.3-.026-2.591-.084-3.882-.044-.572-.037-1.123-.112-1.663.04-.24-.134-.643.031-.764 1.103.027 2.21.04 3.311.068 1.27-.077 2.564 0 3.84-.05 1.276.002 2.579-.094 3.835.113.492.087 1 .134 1.462.323.578.124 1.097.382 1.627.635.292.214.667.374.951.635.45.336.878.78 1.198 1.289.297.455.515.96.623 1.499.109.612.167 1.261.04 1.883-.054.592-.212 1.187-.503 1.7-.248.622-.691 1.155-1.161 1.652-.428.42-.935.75-1.413 1.061-.468.273-1.002.482-1.528.669-.277.067-.569.138-.837.222.32.043.624.155.938.238.406.092.757.318 1.161.436.586.323 1.161.622 1.652 1.054.593.462 1.079 1.054 1.474 1.7.374.728.67 1.538.738 2.378a7.273 7.273 0 0 1-.384 3.387 5.842 5.842 0 0 1-.969 1.742c-.317.381-.65.771-1.057 1.048-.488.444-1.076.755-1.66 1.057a10.77 10.77 0 0 1-2.207.656c-.945.116-1.881.192-2.84.157-1.292-.044-2.596-.014-3.884-.073-.87 0-1.716-.03-2.578 0-.565.076-1.178.033-1.755.073-.302.003-.055-.511-.105-.741.05-.533.09-1.06.098-1.622.067-.739.046-1.483.082-2.222zm22.845 0c.083-3.346.052-6.695.059-10.045.006-2.508-.004-5.019-.083-7.52-.062-.465-.01-.984-.063-1.457.014-.436-.07-.832-.07-1.255a2.86 2.86 0 0 1-.044-.69c.67.035 1.346.044 2.026.037.59.073 1.246.01 1.861.03.622-.074 1.275.003 1.898-.062.377-.086.093.38.176.6-.085.524-.07 1.062-.094 1.62-.071.604-.003 1.242-.06 1.854-.086.567.004 1.185-.047 1.77-.016 1.356-.047 2.71-.06 4.066.005 3.121-.026 6.243.06 9.358.022.724-.008 1.458.033 2.177.084.703 0 1.45.088 2.155-.03.62.09 1.184.089 1.79.078.32-.455.056-.656.123-.445-.027-.887-.054-1.345-.039-.627-.059-1.278-.007-1.914-.025-.363.067-.812-.017-1.164.061-.307-.021-.657.06-.909.01.03-.444.053-.872.107-1.29.027-.69.074-1.36.06-2.057.058-.38.05-.812.052-1.211zm21.978 2.786c.59.01 1.177-.05 1.75-.123.262-.12.597-.07.86-.227.262-.08.49-.224.715-.393.367-.203.602-.56.811-.89.107-.227.197-.45.266-.683.21-.634.163-1.34.165-2.018-.032-.271-.069-.555-.161-.795-.035-.294-.214-.525-.309-.797-.198-.26-.372-.582-.666-.76-.166-.19-.48-.315-.71-.455-.403-.177-.812-.27-1.239-.362-.344-.087-.732-.072-1.102-.12-.252-.013-.641-.128-.513.267.003 2.025-.014 4.056.05 6.072.02.325-.002.685.048.966.008.106-.027.248.035.318zm4.406-12.945c.028-.465-.025-.952-.179-1.358a2.565 2.565 0 0 0-.424-.763 2.631 2.631 0 0 0-.555-.464c-.224-.119-.402-.245-.656-.3-.269-.1-.57-.15-.86-.215-.538-.106-1.105-.1-1.665-.093-.091.322-.058.702-.067 1.064-.084.25-.053.565-.083.852-.055 1.638-.052 3.29-.05 4.937.53.014 1.052-.035 1.571-.066.325-.09.685-.065.993-.198.303-.074.53-.23.766-.451a3.29 3.29 0 0 0 .409-.474c.302-.396.413-.87.585-1.324.057-.384.215-.755.215-1.147zm-1.618 4.341c.734.051 1.48.059 2.203.183.362.025.669.158 1.019.222.228.076.46.146.677.249.271.102.517.258.785.389.183.199.43.341.603.536.197.202.338.433.495.672.077.183.18.391.244.585.09.299.173.612.222.927.098.675.083 1.39.02 2.075-.089.398-.153.81-.315 1.181-.135.283-.218.61-.453.822-.225.443-.632.76-.985 1.094a7.152 7.152 0 0 1-1.11.64c-.267.085-.501.259-.785.279-.237.128-.521.14-.779.227-.403.04-.8.181-1.218.174-1.567.067-3.143.012-4.713.03-1.086-.006-2.195.011-3.266-.009.036-.363.077-.708.085-1.085.077-.513.016-1.072.098-1.581.045-1.725.021-3.46.023-5.191-.054-.665.004-1.35-.075-2.014.01-1.21-.035-2.412-.062-3.618.012-.843-.034-1.675-.05-2.51.004-1.183-.022-2.362-.019-3.544.977.013 1.953.074 2.93.073.722.005 1.44.044 2.16.055 1.236.033 2.49-.047 3.705.162.355.093.752.11 1.087.271.45.107.895.31 1.286.545.216.07.41.264.608.383.3.21.488.5.759.747.083.231.264.414.338.654.126.205.177.447.244.66.1.423.12.906.107 1.368-.064.253-.035.51-.143.744-.046.276-.185.547-.328.804-.13.307-.342.545-.552.796-.109.17-.302.282-.431.438-.244.129-.474.356-.73.457-.2.134-.438.278-.692.334-.2.131-.434.196-.673.256-.317.087-.647.214-.987.241-.433.116-.884.15-1.332.19v.089zm18 2.728c-.096-.355-.186-.743-.394-1.063-.03-.245-.186-.416-.223-.656-.078-.225-.141-.434-.235-.648-.127-.405-.275-.77-.387-1.16-.144-.33-.234-.678-.423-.973-.021-.257-.24-.409-.235-.68-.17-.316-.29-.663-.413-.988-.122-.126-.138-.6-.266-.236-.069.202-.178.339-.27.529a26.19 26.19 0 0 0-.528 1.265c-.133.193-.134.46-.265.637-.045.272-.194.479-.243.761-.163.287-.266.627-.379.916-.146.372-.302.752-.401 1.143-.11.2-.162.44-.237.659-.01.148-.28.532.091.444.504.027 1.024.07 1.564.05h3.244zm7.555 7.462c-.851-.019-1.677.047-2.525.038a77.55 77.55 0 0 1-2.376.057c-.095-.297-.166-.581-.254-.861-.073-.254-.132-.439-.199-.676-.24-.547-.419-1.143-.573-1.721-.106-.422-.272-.821-.38-1.243-.082-.267-.172-.513-.261-.774-.071-.15-.13-.375-.249-.437h-6.623a5.617 5.617 0 0 0-.311.92 23.526 23.526 0 0 0-.729 2.02c-.248.628-.4 1.31-.672 1.925a9.825 9.825 0 0 1-.292.847c-.601-.022-1.19-.066-1.8-.057-.157-.113-.681.063-.673-.097.043-.157.146-.362.218-.54.219-.5.43-1.059.644-1.563.198-.555.462-1.112.668-1.693.278-.527.432-1.102.683-1.645.245-.628.523-1.234.779-1.848.13-.485.376-.948.54-1.415.2-.377.268-.797.498-1.158.218-.549.398-1.159.657-1.715.225-.549.422-1.108.688-1.629.155-.47.322-.924.507-1.381.308-.822.695-1.61.97-2.445.131-.44.352-.856.465-1.316.209-.419.375-.866.561-1.292.1-.128.32.059.499.034.503.046 1.039.003 1.534-.066.589.283.597 1.552.987 2.18.345.828.722 1.646.993 2.506.23.545.387 1.12.686 1.627.296.842.624 1.664.946 2.494.095.306.325.55.37.873.176.442.324.896.501 1.342.196.508.361 1.018.608 1.454.224.556.441 1.142.659 1.72.14.363.266.762.459 1.11.33.522.408 1.141.696 1.691.119.402.275.783.421 1.123.087.208.146.399.276.54.12.293.228.626.342.91-.003.053.098.09.062.161zm19.041-19.457c-.049.487-.095.967-.127 1.454-.03.639-.09 1.271-.116 1.91a59.331 59.331 0 0 0-.084 3.644c-.092.992-.022 2.02-.044 3.028.102 1.18 0 2.383.086 3.565.008 1.073.098 2.136.13 3.202.002.687.037 1.371.08 2.048-.025.219.046.563 0 .701-.482-.024-.88-.124-1.388-.095-.41-.04-.721.068-1.09.095-.196-.125-.287-.385-.491-.525-.183-.193-.311-.41-.507-.569-.11-.223-.34-.33-.454-.543a54.198 54.198 0 0 1-1.408-1.594c-.263-.289-.527-.553-.764-.853-.281-.238-.438-.574-.727-.815-.437-.453-.841-.92-1.253-1.393-.216-.153-.333-.407-.539-.56-.193-.246-.448-.452-.616-.733-.507-.423-.888-.938-1.346-1.433-.377-.324-.69-.712-.994-1.084-.213-.261-.517-.44-.694-.728-.303-.241-.499-.592-.787-.856-.48-.396-.86-.907-1.27-1.37-.245-.14-.394-.39-.594-.579.004 3.061-.014 6.127.028 9.184.03 1.307.089 2.613.076 3.926.043.198.15.67-.178.516-.419-.085-.84-.097-1.32-.08-.319.043-.618.068-.959.09V15.972c.517-.032.907.065 1.372.085.319.083.746.082 1.085.025.26-.03.486-.05.745-.11.335.45.739.84 1.122 1.245.678.836 1.435 1.603 2.134 2.42.588.546 1.03 1.223 1.616 1.774.496.59 1.058 1.12 1.55 1.709.524.64 1.136 1.202 1.65 1.848.617.582 1.107 1.281 1.719 1.872.604.71 1.241 1.385 1.858 2.085.285.499.15-.226.174-.454-.028-1.597-.005-3.196-.062-4.79-.053-1.967.012-3.941-.07-5.907-.036-.577-.005-1.16-.015-1.739.402.087.848.135 1.355.117.414-.02.75-.047 1.117-.18zm20.174 19.552h-5.446c-.356-.514-.68-1.031-1.014-1.558-.351-.527-.693-1.064-1.043-1.59-.229-.34-.435-.718-.697-1.04-.191-.382-.501-.702-.675-1.087-.282-.36-.52-.752-.792-1.136a15.231 15.231 0 0 1-.506-.742c-.206-.27-.369-.584-.604-.85-.133-.244-.35-.466-.493-.707.003 2.207-.014 4.418.015 6.621.121.364-.025.815.09 1.186.024.297.047.61.101.903-.457-.004-.875-.067-1.33-.058-.436-.073-.909-.017-1.364-.037-.383.002-.767-.006-1.15.005-.261.07-.587.072-.9.09.001-1.635-.01-3.272.026-4.9.025-1.412.026-2.826.047-4.236.092-.874.014-1.767.074-2.645.013-2.12.04-4.248-.035-6.363-.107-.323-.03-.715-.086-1.058-.085-.3.015-.411.3-.307.58.091 1.189.137 1.787.171.557.074 1.136-.033 1.708-.035.319-.047.656-.049.97-.116-.057.482-.118.964-.107 1.479-.079.246-.026.535-.08.793-.02.659.026 1.34-.035 1.984-.049 1.539-.027 3.1-.032 4.648.186-.273.417-.465.639-.72.299-.36.588-.727.905-1.067.369-.459.805-.9 1.143-1.4.322-.28.523-.636.818-.94.233-.312.508-.615.755-.92.255-.351.561-.668.8-1.03.243-.263.436-.546.654-.827.175-.247.403-.47.557-.741.168-.157.313-.384.442-.576.224-.195.332-.546.58-.683.44.095.987.076 1.455.116.581-.013 1.256.048 1.748-.095.438-.121.067.197-.099.354-.379.458-.78.89-1.183 1.328-.346.329-.64.704-.978 1.044-.412.489-.875.95-1.284 1.422-.466.458-.871.99-1.342 1.449-.561.591-1.095 1.203-1.661 1.792-.208.257-.472.46-.664.731.372.616.838 1.172 1.23 1.78.77 1.046 1.467 2.142 2.24 3.183.22.31.445.614.663.924.237.343.483.683.747 1.013.381.616.831 1.182 1.214 1.8.363.424.638.915.979 1.366.313.422.593.863.913 1.282z"/><path fill="#f58220" d="M32.418 40.418c2.184.003 4.379-.589 6.223-1.77a10.823 10.823 0 0 0 2.928-2.513c.543-.582.933-1.27 1.351-1.942.693-1.346 1.207-2.798 1.347-4.314a12.48 12.48 0 0 0-.449-5.05 12.562 12.562 0 0 0-1.642-3.478c-.985-1.454-2.257-2.74-3.777-3.623-.343-.214-.637-.43-.983-.64-.51-.353-1.333-.795-1.937-.324-.615.605-.586 1.557-.639 2.369-.004 5.748-.03 11.496-.019 17.245-.035.482.114 1.067-.381 1.35a4.633 4.633 0 0 1-1.685.607c-.49.14-.954-.072-1.432-.162-.41-.142-.855-.32-1.153-.604-.433-.382-.173-1.055-.244-1.59-.007-5.88.015-11.761-.011-17.64-.086-.631-.155-1.403-.745-1.78-.272-.14-.576-.12-.856-.003-.669.196-1.237.762-1.804 1.098a11.11 11.11 0 0 0-2.661 2.157c-.677.683-1.214 1.486-1.71 2.312-.707 1.287-1.247 2.673-1.49 4.125a12.139 12.139 0 0 0-.062 4.072c.318 2.057 1.207 4.018 2.5 5.644 1.278 1.629 3.036 2.824 4.93 3.634 1.405.518 2.897.839 4.4.82zm.045-26.931c.16-.006.327.018.483-.022.098-.006.186-.08.29-.061.067-.054.142-.11.228-.113.078-.048.2-.03.24-.136.086-.03.156-.08.234-.123.075-.037.13-.115.201-.163.11-.047.145-.172.25-.225.054-.067.102-.139.17-.195.067-.1.136-.195.176-.31.069-.053.08-.148.128-.22.036-.08.084-.15.101-.235a.423.423 0 0 0 .059-.235c.039-.103.01-.222.083-.315-.005-.238.01-.48-.007-.715-.077-.098-.04-.226-.076-.338a.5.5 0 0 0-.078-.235c-.059-.23-.21-.42-.317-.627-.052-.07-.08-.142-.156-.19-.072-.101-.182-.17-.24-.283-.104-.006-.157-.114-.238-.166-.056-.059-.145-.084-.207-.133-.075-.03-.112-.11-.206-.106-.133-.057-.261-.14-.408-.166-.08-.039-.148-.093-.244-.069-.105-.002-.207-.025-.313-.025-.18-.022-.364.002-.544.01-.11.04-.242-.024-.337.064-.115.057-.245.063-.356.128-.072.055-.172.05-.227.125-.097.018-.164.099-.256.131-.077.064-.16.137-.23.2-.099-.012-.115.114-.184.165-.074.053-.091.14-.16.193a1.804 1.804 0 0 0-.32.498c-.013.088-.091.138-.094.229-.04.085-.078.157-.096.246-.022.092.005.198-.062.28.01.216-.043.433 0 .647-.004.115-.009.23.05.334-.013.142.048.27.108.393-.01.1.078.136.092.223.031.074.052.154.104.22.045.15.174.242.266.359.06.054.077.148.159.186.058.063.101.138.189.169.05.08.157.1.215.177.092.084.235.07.308.18.065.045.165.035.224.076.066.035.151.056.22.09.1.007.181.077.283.06.156.049.332.01.495.023z"/><path fill="#f58220" d="M38.298 8.668c.299-.659 1.09-1.162 1.763-.66 1.332.85 2.342 2.137 3.496 3.215 1.504 1.46 2.873 3.094 3.813 4.982.978 1.932 1.554 4.06 1.625 6.228.228 2.19-.14 4.435-.792 6.527-1.343 3.936-4.115 7.424-7.79 9.415-5.085 2.872-11.672 2.681-16.633-.363-4.722-2.819-7.785-8.133-8.026-13.61-.127-2.516.271-5.061 1.282-7.38.977-2.317 2.604-4.304 4.42-6.026 1.03-1.035 1.98-2.177 3.202-2.977.518-.398 1.351-.324 1.628.305.613.97 1.036 2.175 1.002 3.356-.152 1.945-1.855 3.137-3.214 4.293-1.611 1.326-2.735 3.133-3.666 4.985-.842 1.805-1.285 3.782-1.22 5.806.01 4.337 2.15 8.636 5.658 11.204 2.301 1.61 5.088 2.542 7.914 2.45 3.863-.05 7.563-2.053 9.89-5.1a14.216 14.216 0 0 0 2.92-9.537c-.092-2.07-.738-4.079-1.7-5.876a14.576 14.576 0 0 0-3.541-4.233c-1.068-.994-2.374-1.93-2.718-3.42-.258-1.227.163-2.482.687-3.584z"/></svg>