<svg xmlns="http://www.w3.org/2000/svg" width="104.112" height="101.985" viewBox="-0.5 0 33.651 32.651"><g fill="#f58220"><path d="M16.352 32.644c2.184.004 4.38-.588 6.223-1.77a10.823 10.823 0 0 0 2.929-2.512c.542-.582.933-1.27 1.35-1.943.694-1.345 1.207-2.797 1.348-4.313.202-1.69.04-3.422-.45-5.05a12.562 12.562 0 0 0-1.641-3.479c-.985-1.454-2.257-2.739-3.778-3.623-.342-.213-.636-.429-.982-.64-.51-.352-1.333-.794-1.938-.323-.614.604-.585 1.557-.638 2.369-.004 5.748-.031 11.496-.02 17.244-.035.483.115 1.068-.38 1.35a4.633 4.633 0 0 1-1.685.608c-.491.14-.954-.072-1.433-.163-.409-.141-.854-.318-1.152-.603-.433-.382-.173-1.055-.244-1.59-.008-5.88.015-11.761-.011-17.64-.086-.631-.155-1.403-.745-1.78-.273-.14-.577-.12-.856-.003-.67.196-1.237.762-1.804 1.098a11.11 11.11 0 0 0-2.662 2.157c-.677.683-1.214 1.486-1.71 2.311-.707 1.288-1.246 2.673-1.49 4.126a12.139 12.139 0 0 0-.062 4.072c.318 2.056 1.208 4.018 2.5 5.644 1.279 1.629 3.037 2.824 4.931 3.633 1.405.52 2.897.84 4.4.82zm.045-26.93c.161-.006.328.018.483-.022.099-.006.187-.08.29-.061.068-.054.143-.11.228-.113.079-.048.2-.03.24-.136.087-.03.157-.08.235-.123.075-.037.13-.115.2-.164.11-.046.146-.171.251-.224.054-.067.101-.139.17-.195.067-.1.136-.195.176-.31.068-.054.08-.148.127-.22.036-.08.084-.15.102-.236a.423.423 0 0 0 .058-.234c.04-.103.011-.223.084-.315-.005-.238.01-.48-.008-.715-.077-.098-.039-.227-.076-.338a.5.5 0 0 0-.077-.235c-.06-.23-.21-.42-.317-.627-.052-.07-.08-.142-.156-.19-.073-.101-.182-.17-.24-.283-.105-.006-.157-.114-.238-.166-.057-.06-.145-.084-.207-.133-.075-.03-.113-.11-.207-.107-.133-.056-.26-.139-.408-.165-.08-.039-.147-.093-.243-.069-.105-.002-.207-.025-.313-.025-.18-.022-.365.002-.544.01-.11.04-.242-.024-.337.064-.116.057-.246.063-.356.128-.072.055-.172.05-.228.125-.097.018-.164.099-.256.131-.077.064-.16.137-.23.2-.098-.012-.115.114-.184.165-.074.053-.09.14-.16.193-.13.147-.244.315-.32.498-.012.088-.09.138-.094.228-.04.085-.077.158-.096.247-.021.091.005.197-.061.28.01.216-.043.432 0 .647-.004.115-.009.23.05.333-.013.143.048.27.107.394-.009.1.079.135.092.223.032.074.052.154.104.22.045.15.174.241.266.359.06.054.078.148.16.186.057.063.101.138.188.168.05.081.157.1.215.178.092.084.235.07.308.179.065.045.165.036.225.076.065.036.15.057.22.09.1.007.18.078.282.061.157.049.332.01.495.023z"/><path d="M22.232.894c.3-.658 1.091-1.16 1.764-.658 1.332.849 2.341 2.136 3.495 3.214 1.505 1.46 2.874 3.094 3.814 4.981.978 1.933 1.554 4.06 1.625 6.228.228 2.19-.14 4.435-.793 6.528-1.342 3.936-4.114 7.424-7.79 9.415-5.085 2.872-11.671 2.68-16.632-.363-4.722-2.819-7.786-8.133-8.027-13.61-.126-2.516.272-5.061 1.283-7.38.976-2.317 2.604-4.304 4.42-6.026C6.42 2.188 7.37 1.046 8.592.246c.518-.398 1.352-.324 1.629.305.613.97 1.036 2.175 1.001 3.356-.152 1.945-1.855 3.137-3.214 4.292-1.61 1.327-2.735 3.134-3.666 4.985-.842 1.806-1.284 3.783-1.22 5.807.011 4.336 2.15 8.636 5.659 11.203 2.3 1.612 5.088 2.543 7.914 2.45 3.863-.049 7.563-2.053 9.89-5.1a14.216 14.216 0 0 0 2.92-9.536c-.093-2.07-.739-4.08-1.7-5.876a14.576 14.576 0 0 0-3.542-4.233c-1.068-.994-2.373-1.93-2.717-3.42-.258-1.228.162-2.482.686-3.585z"/></g></svg>