<svg xmlns="http://www.w3.org/2000/svg" width="289" height="50"><path d="M363.272 391.479h47.722v-7.953h-47.722v7.953z" style="fill:#004c8f;fill-opacity:1;fill-rule:nonzero;stroke:none" transform="matrix(6.01697 0 0 -6.01697 -2184.727 2356.597)"/><path d="M371.226 391.479h39.768v-7.953h-39.768v7.953z" style="fill:#004c8f;fill-opacity:1;fill-rule:nonzero;stroke:none" transform="matrix(6.01697 0 0 -6.01697 -2184.727 2356.597)"/><path d="M373.755 385.621v3.763h1.238v-1.27h1.16v1.27h1.24v-3.763h-1.24v1.46h-1.16v-1.46h-1.238m5.597 2.828h.321c.231 0 .4-.024.508-.072a.483.483 0 0 0 .202-.165.935.935 0 0 0 .125-.296c.028-.121.043-.249.043-.384 0-.22-.03-.404-.095-.553a.64.64 0 0 0-.271-.322c-.117-.067-.291-.099-.521-.099l-.312-.002v1.893zm.478-2.828c.292 0 .534.024.732.077.199.051.361.119.485.2.126.083.24.195.345.334.104.144.195.325.266.547.073.221.108.47.108.752 0 .414-.079.764-.239 1.056a1.392 1.392 0 0 1-.663.615c-.28.122-.614.182-1.002.182h-1.721v-3.763h1.689m2.503 0v3.763h2.936v-.928h-1.714v-.603h1.371v-.903h-1.371v-1.329h-1.222m7.082 2.324h-1.169a.694.694 0 0 1-.203.441.615.615 0 0 1-.433.155.658.658 0 0 1-.534-.253c-.138-.17-.207-.445-.207-.823 0-.264.031-.462.088-.597a.659.659 0 0 1 .245-.306.718.718 0 0 1 .394-.098c.19 0 .342.048.453.158.114.103.18.257.202.463h1.19a2.112 2.112 0 0 0-.141-.59 1.522 1.522 0 0 0-.338-.476 1.623 1.623 0 0 0-.568-.371 2.052 2.052 0 0 0-.762-.128c-.286 0-.553.041-.794.125-.244.086-.45.208-.614.361a1.756 1.756 0 0 0-.39.538 2.161 2.161 0 0 0-.197.941c0 .29.047.565.142.817.095.25.226.463.393.635a1.7 1.7 0 0 0 .555.385c.258.11.542.163.857.163.274 0 .528-.04.768-.121.239-.081.435-.199.588-.356a1.639 1.639 0 0 0 .475-1.063m3.965.592c.175 0 .288-.008.344-.024a.346.346 0 0 0 .175-.116.308.308 0 0 0 .067-.196.292.292 0 0 0-.111-.235c-.078-.063-.211-.092-.402-.092h-.466v.663h.393zm.311-2.916c.293 0 .499.014.62.04.119.028.242.072.367.13.122.064.216.124.278.19a.88.88 0 0 1 .219.327c.052.131.078.279.078.438a.913.913 0 0 1-.17.566.84.84 0 0 1-.46.309c.327.206.49.472.49.796a.845.845 0 0 1-.429.765c-.22.134-.563.202-1.028.202h-1.867v-3.763h1.902zm-.199 1.576c.245 0 .404-.03.484-.093a.315.315 0 0 0 .114-.258.32.32 0 0 0-.121-.267c-.077-.067-.238-.095-.477-.095h-.505v.713h.505m4.48-.311h-.787l.388 1.369.399-1.369zm-1.157-1.265.143.494h1.232l.144-.494h1.231l-1.35 3.763h-1.257l-1.351-3.763h1.208m3.27 0v3.763h1.153l1.301-2.015v2.015h1.186v-3.763h-1.178l-1.273 1.965v-1.965h-1.189m4.465 0v3.763h1.199v-1.241l1.119 1.241h1.454l-1.379-1.417 1.522-2.346h-1.482l-.905 1.499-.329-.325v-1.174h-1.199" style="fill:#fff;fill-opacity:1;fill-rule:nonzero;stroke:none" transform="matrix(6.01697 0 0 -6.01697 -2184.727 2356.597)"/><path d="M363.272 391.479h7.953v-7.953h-7.953v7.953z" style="fill:#ed232a;fill-opacity:1;fill-rule:nonzero;stroke:none" transform="matrix(6.01697 0 0 -6.01697 -2184.727 2356.597)"/><path d="M364.664 390.087h5.17v-5.17h-5.17v5.17z" style="fill:#fff;fill-opacity:1;fill-rule:nonzero;stroke:none" transform="matrix(6.01697 0 0 -6.01697 -2184.727 2356.597)"/><path d="M366.851 391.479h.795v-7.953h-.795v7.953z" style="fill:#fff;fill-opacity:1;fill-rule:nonzero;stroke:none" transform="matrix(6.01697 0 0 -6.01697 -2184.727 2356.597)"/><path d="M363.272 387.899h7.953v-.795h-7.953v.795z" style="fill:#fff;fill-opacity:1;fill-rule:nonzero;stroke:none" transform="matrix(6.01697 0 0 -6.01697 -2184.727 2356.597)"/><path d="M366.056 388.695h2.386v-2.386h-2.386v2.386z" style="fill:#004c8f;fill-opacity:1;fill-rule:nonzero;stroke:none" transform="matrix(6.01697 0 0 -6.01697 -2184.727 2356.597)"/></svg>