<svg xmlns="http://www.w3.org/2000/svg" width="289" height="50"><path d="M363.272 391.479h7.953v-7.953h-7.953v7.953z" style="fill:#ed232a;fill-opacity:1;fill-rule:nonzero;stroke:none" transform="matrix(6.01697 0 0 -6.01697 -2184.727 2356.597)"/><path d="M364.664 390.087h5.17v-5.17h-5.17v5.17z" style="fill:#fff;fill-opacity:1;fill-rule:nonzero;stroke:none" transform="matrix(6.01697 0 0 -6.01697 -2184.727 2356.597)"/><path d="M366.851 391.479h.795v-7.953h-.795v7.953z" style="fill:#fff;fill-opacity:1;fill-rule:nonzero;stroke:none" transform="matrix(6.01697 0 0 -6.01697 -2184.727 2356.597)"/><path d="M363.272 387.899h7.953v-.795h-7.953v.795z" style="fill:#fff;fill-opacity:1;fill-rule:nonzero;stroke:none" transform="matrix(6.01697 0 0 -6.01697 -2184.727 2356.597)"/><path d="M366.056 388.695h2.386v-2.386h-2.386v2.386z" style="fill:#004c8f;fill-opacity:1;fill-rule:nonzero;stroke:none" transform="matrix(6.01697 0 0 -6.01697 -2184.727 2356.597)"/></svg>