<svg xmlns="http://www.w3.org/2000/svg" width="244.42" height="53.328" viewBox="0 0 64.669 14.11"><g style="display:inline"><g style="display:inline"><path d="M0 0c-.59-2.023-.422-1.264-1.295-4.582-.789-3.151-1.608-6.271-2.226-8.351a6.893 6.893 0 0 0-.732-1.183 9.854 9.854 0 0 0-1.268-1.378c-2.679-2.334-6.678-3.714-10.14-3.179a6.202 6.202 0 0 0-1.014.198c-2.173.507-3.608 1.578-4.425 2.923-.873 1.436-1.099 3.32-.79 5.346.03.28.114.646.224 1.068 1.325 5.346 2.678 10.658 4.004 15.973.534 2.698-5.159 3.404-6.369-.111l-3.663-14.401c-.081-.448-.195-1.01-.282-1.599-.535-3.431-.028-6.698 1.552-9.397 1.661-2.781 4.395-4.866 8.309-5.789.423-.114.931-.199 1.521-.284 5.209-.787 11.212 1.183 15.131 4.641.785.704 1.52 1.464 2.14 2.277a14.616 14.616 0 0 1 1.579 2.702v.027l.111.308c.62 2.028 1.466 5.344 2.338 8.691C5.521-2.923 5.831-1.826 6.45.256 7.044 3.095 1.521 4.305 0 0" style="fill:#ed1d24;fill-opacity:1;fill-rule:nonzero;stroke:none" transform="matrix(.35278 0 0 -.35278 9.942 5.32)"/></g><g style="display:inline"><path d="M0 0c.615 1.994.449 1.24 1.294 4.584.819 3.121 1.635 6.274 2.222 8.326.201.392.455.814.762 1.179.368.508.79.956 1.267 1.377 2.679 2.363 6.708 3.715 10.144 3.207.282-.055.62-.111 1.013-.196 2.171-.536 3.635-1.577 4.454-2.954.842-1.434 1.101-3.292.787-5.34-.057-.284-.111-.62-.225-1.071-1.411-5.624-2.817-11.218-4.196-16.845-.37-3.347 5.548-3.683 6.393.085L27.719 7.65c.111.478.225 1.011.309 1.629.506 3.405.029 6.665-1.579 9.365-1.63 2.785-4.364 4.867-8.281 5.794-.422.084-.933.198-1.549.283-5.211.785-11.211-1.21-15.128-4.643a14.845 14.845 0 0 1-2.144-2.276 12.073 12.073 0 0 1-1.546-2.701l-.143-.336c-.59-1.997-1.465-5.344-2.31-8.663-.845-3.206-1.125-4.303-1.747-6.354C-6.454-4.105-.681-3.768 0 0" style="fill:#006cb7;fill-opacity:1;fill-rule:nonzero;stroke:none" transform="matrix(.35278 0 0 -.35278 6.534 8.781)"/></g><g style="display:inline"><path d="M0 0c-.396 0-.76-.089-1.124-.255a2.698 2.698 0 0 1-.987-.732l.171.842h-1.271l-1.267-6.016-.029-.167h1.324l.758 3.598c.089.506.314.902.651 1.183.339.307.762.445 1.266.445.368 0 .623-.112.79-.308.14-.196.169-.476.085-.87L-.48-6.328H.847l.814 3.936c.2.872.172 1.517-.109 1.858C1.298-.171.792 0 0 0m7.299-3.208c-.169-.702-.427-1.236-.764-1.631a1.913 1.913 0 0 0-1.349-.56c-.506 0-.876.197-1.099.56-.197.366-.228.901-.085 1.547.143.702.394 1.237.759 1.63.254.252.565.422.875.506.139.028.282.054.449.054.535 0 .902-.167 1.13-.53.197-.366.224-.872.084-1.576m2.364 5.317H8.396L7.747-.9a1.86 1.86 0 0 1-.672.729 2.39 2.39 0 0 1-1.042.229c-.145 0-.258 0-.397-.033a2.955 2.955 0 0 1-1.719-.871c-.619-.619-1.043-1.434-1.239-2.421-.225-.98-.143-1.767.221-2.388.371-.59.96-.9 1.747-.9.341 0 .68.086.99.199.054.028.082.028.112.058.366.168.707.42 1.042.757l-.17-.787h1.269L9.55 1.63Zm-20.509.113c-.537 0-.956-.144-1.297-.395-.308-.255-.531-.679-.645-1.211l-.144-.761h-.957l-.197-.983h.931l-1.102-5.2h1.325l1.103 5.2h1.069l.224.983h-1.097l.111.478c.06.283.139.51.251.591.116.114.284.143.539.143h.169l.281-.029.222 1.127h-.053c-.337.025-.589.057-.733.057m6.424-.113h-1.437l-1.776-8.437h1.411l1.746 8.267zm16.988 0h-1.325L10.96.786h1.323zm3.887-6.13c-.081-.423-.309-.762-.701-1.044a2.732 2.732 0 0 0-.623-.334 2.699 2.699 0 0 0-.674-.087c-.309 0-.537.087-.705.223-.139.173-.167.394-.111.679.053.251.166.449.337.618.195.139.451.252.76.31.08 0 .223.026.393.055l.112.03c.622.082 1.072.196 1.382.334zM16.115.058c-.363 0-.704-.033-.986-.116a2.923 2.923 0 0 1-.983-.419c-.535-.369-.875-.845-.988-1.463l-.03-.115h1.241v.057c.086.306.226.562.478.729.085.055.17.086.282.141.197.058.425.112.705.112.425 0 .734-.086.933-.224.166-.139.22-.366.166-.646-.087-.366-.561-.618-1.41-.732h-.139c-.085-.026-.169-.026-.255-.056-.9-.114-1.546-.337-1.943-.618-.453-.309-.736-.786-.875-1.407-.11-.588-.028-1.039.255-1.349.28-.338.731-.507 1.352-.507.422 0 .818.086 1.211.283.394.168.76.421 1.073.76-.058-.339 0-.566.17-.703.139-.171.42-.254.813-.254.115 0 .228.027.34.027.113.031.252.056.366.086l.198.957c-.087-.031-.144-.031-.172-.031h-.082c-.14 0-.226.031-.28.113-.03.085-.03.227.028.478l.644 3.065c.116.591 0 1.07-.336 1.379-.366.306-.958.453-1.776.453M-16.73-4.755a2.226 2.226 0 0 0-1.413-.9c-.139 0-.282-.028-.425-.028-.532 0-.954.142-1.239.451-.307.278-.449.703-.449 1.266 0 .395.056.815.196 1.236.144.422.311.79.538 1.098.198.279.48.53.759.674.195.083.399.168.62.197.113.028.255.028.368.028.592 0 1.014-.142 1.323-.423.284-.28.424-.701.424-1.236 0-.958-.226-1.743-.702-2.363m-.906 4.98c-.17 0-.338 0-.507-.03-.899-.113-1.664-.479-2.253-1.125-.732-.787-1.072-1.771-1.072-2.954 0-.871.254-1.546.735-2.023.506-.479 1.211-.705 2.14-.705h.45c.929.114 1.691.482 2.284 1.155.732.758 1.098 1.743 1.098 2.923 0 .842-.281 1.518-.785 2.027-.514.476-1.215.732-2.09.732M9.55-5.851l-.081-.477h1.321l1.296 6.183h-1.324zm10.933 23.874h-4.62l-4.454-4.104 1.749 8.349h-3.86L5.888 6.071h3.859l.675 3.238 1.779 1.487 1.746-4.778h4.336l-2.929 7.449zm-34.117-7.706a2.382 2.382 0 0 0-.931-1.487c-.283-.198-.562-.367-.872-.448a2.913 2.913 0 0 0-.904-.144c-.42 0-.729.144-.957.394-.199.252-.254.616-.169 1.039a1.4 1.4 0 0 0 .449.817c.257.197.622.364 1.104.503.14.031.308.057.477.115.139.026.252.055.422.082.758.144 1.352.34 1.692.507zm4.311 6.44c-.311.533-.79.928-1.467 1.183-.672.251-1.55.364-2.62.364-.731 0-1.408-.056-2.027-.168-.817-.169-1.523-.422-2.142-.815-1.043-.649-1.829-1.659-2.31-3.008h3.606c.17.45.45.788.846 1.013.395.222.842.336 1.379.336.507 0 .873-.084 1.102-.282.222-.166.306-.423.222-.786l-.054-.281c-.085-.421-.817-.733-2.227-.958-.142-.026-.283-.057-.422-.057-.731-.138-1.381-.252-1.889-.367-1.128-.251-1.998-.698-2.675-1.319-.65-.621-1.069-1.405-1.295-2.39-.226-1.097-.058-1.94.475-2.591.538-.613 1.384-.923 2.539-.923.73 0 1.435.113 2.114.392.254.087.504.199.731.337.45.226.872.535 1.296.875-.03-.227-.03-.425-.057-.649v-.592h4l.085.451c-.169.109-.28.31-.308.62-.029.308 0 .73.113 1.263l.956 4.557c.226 1.126.365 1.967.338 2.474 0 .506-.112.957-.309 1.321m6.392-4.272c.197.982.506 1.714.93 2.193.399.448.958.675 1.635.675.648 0 1.043-.197 1.184-.59.168-.366.083-1.265-.197-2.674L-.647 6.071H3.27l1.63 7.79c.341 1.575.256 2.7-.22 3.405-.483.701-1.44 1.038-2.819 1.038-.817 0-1.579-.141-2.227-.476-.677-.31-1.265-.788-1.83-1.435l.364 1.63h-3.829L-8.169 6.071h3.89zm-44.115 5.819c-.818 0-1.551-.141-2.225-.476a5.347 5.347 0 0 1-1.804-1.435l.338 1.63h-3.83l-2.511-11.952h3.89l1.351 6.414c.197.982.507 1.714.93 2.193.426.448.959.675 1.66.675.623 0 1.018-.197 1.16-.59.165-.366.079-1.265-.198-2.674l-1.272-6.018h3.919l1.637 7.79c.334 1.575.248 2.7-.229 3.405-.48.701-1.408 1.038-2.816 1.038m-26.908 3.964-.675-3.149h3.918l.649 3.149zm-7.464-3.964c-.817 0-1.547-.141-2.225-.476-.649-.31-1.265-.788-1.803-1.435l.341 1.63h-3.833l-2.001-9.56-.507-2.392h3.885l1.353 6.414c.229.982.538 1.714.929 2.193.425.448.959.675 1.665.675.619 0 1.01-.197 1.181-.59.14-.366.085-1.265-.223-2.674l-1.268-6.018h3.914l1.633 7.79c.339 1.575.257 2.7-.221 3.405-.479.701-1.412 1.038-2.82 1.038m4.059-12.233h3.887l2.506 11.952h-3.888zm15.916 5.991c-.227-1.071-.62-1.914-1.157-2.502a2.493 2.493 0 0 0-1.184-.789 3.044 3.044 0 0 0-.729-.082c-.735 0-1.242.278-1.521.871-.282.588-.31 1.403-.086 2.502.228 1.098.593 1.912 1.13 2.503.332.392.757.649 1.206.788.227.054.455.083.708.083.731 0 1.265-.28 1.549-.871.28-.591.309-1.433.084-2.503m-1.017 6.384c-.446 0-.899-.028-1.324-.086-1.406-.197-2.646-.73-3.687-1.603-1.354-1.123-2.257-2.698-2.681-4.695-.419-1.996-.192-3.571.708-4.694.875-1.127 2.313-1.689 4.311-1.689.449 0 .9.029 1.349.085 1.409.225 2.621.758 3.666 1.604 1.378 1.123 2.253 2.698 2.676 4.694.423 1.997.196 3.572-.705 4.695-.873 1.127-2.311 1.689-4.313 1.689m-27.999 3.822h-4.113l-2.14-10.123c-.23-1.097-.595-1.881-1.13-2.36-.507-.476-1.239-.704-2.199-.704-.984 0-1.631.228-1.941.704-.34.479-.368 1.263-.141 2.36l2.111 10.123h-4.056l-2.03-9.613c-.28-1.352-.391-2.423-.28-3.236.114-.816.397-1.491.9-2.051a4.755 4.755 0 0 1 1.944-1.297c.791-.281 1.72-.449 2.791-.449a9.9 9.9 0 0 1 2.959.449c.9.283 1.745.733 2.506 1.297a6.313 6.313 0 0 1 1.717 2.051c.451.788.817 1.884 1.103 3.236l1.519 7.225zm64.74-4.777c-.112-.508-.369-.905-.762-1.182-.393-.254-.959-.367-1.663-.367h-3.322l.645 3.065h3.496c.618 0 1.096-.14 1.349-.393.284-.254.368-.62.257-1.123m-.962-6.385c-.138-.648-.446-1.125-.898-1.406a2.836 2.836 0 0 0-.986-.306 6.804 6.804 0 0 0-1.186-.085h-3.125l.761 3.567h3.55c.732 0 1.266-.168 1.576-.448.337-.309.424-.733.308-1.322m.427 11.162h-7.862l-3.407-16.197h6.337c1.069 0 1.915.029 2.621.085.282.031.505.056.732.113.761.111 1.409.307 1.971.588.816.397 1.521.96 2.113 1.69a6.015 6.015 0 0 1 1.127 2.475c.196.928.113 1.686-.256 2.333-.36.619-.987 1.042-1.888 1.293.876.309 1.582.732 2.118 1.32.506.564.87 1.267 1.041 2.138.311 1.409.085 2.45-.675 3.126-.762.7-2.086 1.036-3.972 1.036" style="fill:#ed1d24;fill-opacity:1;fill-rule:nonzero;stroke:none" transform="matrix(.35278 0 0 -.35278 57.443 10.923)"/></g></g></svg>