<svg xmlns="http://www.w3.org/2000/svg" xml:space="preserve" id="layer" width="155.697" height="137.1" x="0" y="0" version="1.1" viewBox="-153 -46 155.697 137.1"><style id="style540" type="text/css">.st0{fill-rule:evenodd;clip-rule:evenodd;fill:#005da9}</style><g id="g572" transform="translate(-23.117 -239.2)"><path id="path564" d="m-46.2 268.5.3.3c38.3-55.6 106.1-3.3 50.9 47.9l10.4 9.7-3.6 3.5-47.9-3.8-1.1-25.8c-9.2 28.4-63.5 40.5-76.9-16.6l-14.3 2.8 22.2-37.5 3.2-3.5 24.2 14.5c-29.5-22.8-7.2-78.6 55.5-56.1l1.8-7.6 3.2-3.1 24.7 41.7-3.6 3.8-46.1 17.3 5.4-14.6c-19.7-7.3-28.2 14.9-8.2 27.8-.1-.2-.1-.5-.1-.7m-24.8-3.8 13.4 8-3.9 3.5-11.8-.3c1.1 17.6 28.1 18 27.2-6.6-10 .1-18.3-1.6-24.9-4.6m25.2 4.3c4 4.6 6.7 9.2 8.3 13.6l3.1-3.3 10.7 10.4c14.6-13.5-1.9-34.1-22.1-20.7" style="fill-rule:evenodd;clip-rule:evenodd;fill:#fff"/><path id="path566" d="M-47.283 272.8c40.3 50.7-50.1 91.2-68 15.2l-14.6 2.4 25-41.3 44.7 27.4-15.4 3.1c3.9 19.1 27.4 16.4 28.3-6.8-.2.1-.3.2-.4.3-70.8 1.4-55.8-93.4 23.2-65.3l3.9-10.8 24.3 41.7-48.6 21.2 5.7-14.6c-20-7.3-28.6 14.9-8.6 27.8 35.8-58.4 107.3-3.5 51.5 47.9l8.6 9-49.7.3 1.1-47.2 11.1 10.8c14.9-13.8-1.9-34.5-22.1-21.1" style="fill-rule:evenodd;clip-rule:evenodd;fill:#f4bb4f"/></g></svg>