<svg xmlns="http://www.w3.org/2000/svg" xml:space="preserve" id="layer" x="0" y="0" style="enable-background:new -153-46 652 652" version="1.1" viewBox="-153 -46 652 652"><style>.st0{fill-rule:evenodd;clip-rule:evenodd;fill:#005da9}</style><path d="m422.8 264.3 2 3.3-.8 58.4c-1.6 1.4-2 2.5-1.2 3.2l17.6-.4c.4-.7-.4-1.4-1.2-2.2l.4-11.5.8-.4 7.2 11.5-.8 2.9h22s-1.6-2.5-4-3.2c-2.4-3.6-16.8-27.8-16.8-27.8 0-1.4 6-12.3 9.2-14.8 2.8-1.1 3.6-1.1 4-2.2h-12l-.8.4s4 2.5 2.4 4.7c-2 1.8-9.6 15.9-9.6 15.9s-2 .7-1.6-2.2c0-2.5-.8-34.3-.8-34.3s-1.2-5.8-6.4-4c-5.2 2.3-9.6 2.7-9.6 2.7m-124.3 32.1v28.5c2.8.4 14.4-.4 16-9.7 3.2-18.5-13.6-18.8-16-18.8m-.4-31 .8 27.8s12 1.1 12.4-12.6c.8-14.1-8-14.1-12-14.8-3.6-.8-1.2-.4-1.2-.4m-17.1-3.3v1.1s2.4 2.2 2.8 3.3c.8 1.1.4 58.8.4 58.8s-4.4 4-2.8 4h32.4c.8 0 8-2.2 11.6-7.9 4.4-6.8 6-17.6-7.2-26.7 5.6-5.1 18-25.3-11.2-32.5h-26zm111 21.3 1.2 2.9c2-1.4 2.8-1.4 4.8-2.9 2-1.1 4.4-1.8 6.4-1.8 2.8 0 5.2 1.1 7.2 2.9 1.6 1.5 1.6 2.9 2.4 5.4.4 1.8.4 5.4.4 10.8v18c0 1.8-.8 9 2 9.4v.7l-18 .4v-1.1c2.8-2.9 2-5.1 2-9.4v-20.6c0-4 .4-7.9 0-9-.8-1.1-1.2-1.1-4-1.1s-3.2 2.2-3.6 4l-.4 26.7c-.4 3.6.4 6.1.4 7.2 0 1.1.4 2.2 2 2.5v.7h-19.2l.4-1.1c3.2-.4 2.4-5.1 2.4-9.4v-26.3c0-3.6-.4-5.8-.8-6.5-.8-.7-.8-1.1.8-1.5l10.4-2.2c1.6-.5 3.2-.2 3.2 1.3m-38.7 22V322s-4 4-6 1.1c-3.6-4.7-2.8-24.6 6-17.7m-18-15.2c4.4-.7 10-2.5 14 .4 4 3.3 3.6 3.3 3.6 5.8s-4.8 4.7-9.6 6.1c-4.4 1.4-13.6 5-12.4 14.4 1.2 9.4 8.4 15.2 21.2 9 .8-.7 2.4-1.8 3.6 0 1.6 1.8 10.8 6.5 16.8-1.1-2.4 0-4 .4-4-4.3.4-4.3-.4-27.1-.4-27.1s.4-10.1-12.4-12.3c-13.6 1.2-18.8 8.1-20.4 9.1M197 305l.4 16.2s-2.8 4-5.2 1.1c-4-5.4-4-14.1 1.6-18.4 1.2-1 3.2 1.1 3.2 1.1m-17.1-14.8c4-.7 9.6-2.5 13.6.4 4 3.3 3.6 3.3 3.6 5.8s-4.8 4.7-9.2 6.1c-4.8 1.4-14 5-12.8 14.4 1.6 9.4 8.4 15.2 20.8 9 1.2-.7 2.8-1.8 4 0 1.6 1.8 10.8 6.5 16.8-1.1-2.4 0-4 .4-4-4.3.4-4.3-.4-27.8-.4-27.8s.4-10.1-12.4-12.3c-13.6 1.2-18.8 8.8-20 9.8M61.2 327.7v1.4H41.6v-1.4c2.4-.7 2.4-3.6 2.4-10.1v-44.4c0-4-.4-10.1-3.2-10.1V262H62v.7c-3.2 1.8-3.2 5.4-3.2 10.5v44.4c0 3.6-.4 8.7 2.4 10.1m17.6-45.4c.8-.4 2.4-.4 3.2 0 .8.7-.4 2.9 1.6 3.6 1.2.7 2.8-1.5 4.4-2.5 2-1.1 5.6-1.8 7.6-1.8 2.4 0 4.4.7 6 2.5 1.6 1.4 2.8 2.2 3.2 4.7v34.9c.4 2.5.4 2.9 2 4.3v1.1h-18V328c2.4-.4 2-6.5 2-8.3v-20.2c.4-3.6 0-7.9 0-8.6-.4-1.1-.8-1.8-1.2-2.2-.4-.7-1.2-.7-1.6-.7-2.4 0-3.2-1.1-4.8 2.9l-.4 34.6c0 1.1.8 2.2 1.6 2.5v1.1H66v-1.4c1.6-.7 2.4-1.4 2-4.3l.4-33.9c0-1.8 0-2.9-.4-3.2-1.2-.7-1.2-1.8-.4-1.8l11.2-2.2zm71.5-17.7v50.1c0 3.2-.4 5-.4 5.8.8 2.2-.4 2.5 1.6 4.3l.4 1.4c-3.6.7-5.2 1.5-8.8 2.2-1.6 0-2 .4-3.6 0-3.2-2.5-6-2.2-8.4-.7-1.6.7-3.6 1.4-5.6 1.4-5.2 0-9.2-2.5-12.4-7.2-2.4-4.3-3.6-9-3.6-15.1 0-4.7 1.2-9 2.4-12.6 1.6-3.6 4-6.5 6.4-8.3 2.8-2.2 7.2-5.4 16.8-3.6v-6.9c0-2.2 0-4-.4-7.2l-2.4-3.6 13.6-2.9c2.4 0 3.2 1.8 4.4 2.9m-14.8 23.1c-4-3.2-8-.7-9.2 4.7-2 7.6-2.8 16.2-1.2 24.2 1.6 6.5 6.8 9.4 10.4 6.5v-35.4zm29.2-23.8c2.4 0 4.4.7 6 2.2 1.2 1.4 2 3.2 2 5.4s-.8 4-2 5.4c-1.6 1.4-3.6 2.2-6 2.2-2 0-4-.7-5.6-2.2-1.6-1.5-2-3.3-2-5.4 0-2.2.4-4 2-5.4 1.6-1.5 3.6-2.2 5.6-2.2m8.4 20.9v38.6c0 2.2 0 3.6 2 4.7v1.1h-19.2v-1.1c2-.7 2-3.6 2-8.3V287c-.8-.7-1.2-1.5-1.2-2.2l9.6-2.5c4-1.1 6 .4 6.8 2.5m63.1-1.4 1.2 2.9c2.4-1.4 2.8-1.4 4.8-2.9 2-1.1 4.4-1.8 6.8-1.8 2.4 0 4.8 1.1 6.8 2.9 1.6 1.5 2 2.9 2.4 5.4.4 1.8.4 5.4.4 10.8v18c0 1.8-.8 9 2 9.4v.7l-18 .4v-1.1c2.8-2.9 2-5.1 2-9.4v-20.6c0-4 .4-7.9 0-9-.8-1.1-1.2-1.1-4-1.1-2.4 0-3.2 2.2-3.6 4l-.4 26.7c-.4 3.6.4 6.1.4 7.2 0 1.1.4 2.2 2 2.5v.7h-19.2l.4-1.1c3.2-.4 2.4-5.1 2.4-9.4v-26.3c0-3.6 0-5.8-.8-6.5-.4-.7-.8-1.1 1.2-1.5l10-2.2c1.6-.5 3.2-.2 3.2 1.3m44.8-54.8c-3.2-4-5.6-8.7-8-13 .4-.4.4-.7.4-1.1 9.2 0 8.4 7.2 8 13.7-.1 0-.4 0-.4.4m42.3-9.4-.4 11.9c-7.2 5.8-10-2.5-8.4-9.4.8-4 4.4-9.7 8.8-2.5m-53.1.7 7.2 13.7c-9.6 2.9-8.8-10.1-7.2-13.7m-145.9-16.2H98c-.4-.4-.4-.7-.8-.7-.4-2.9-.4-5 1.2-6.8 5.6-6.1 21.2-6.1 26.8.3 1.5 2.9.7 5-.9 7.2m48.8 3.9c0 2.5-.4 5.4-.4 7.9v16.9c-3.6 3.3-8.8 3.6-11.2 1.8-.8-.7-1.6-1.4-2-1.8-.8-2.9-1.6-5.8-.4-9 4.8-1.1 7.2-2.2 10-5.8 1.2-2.9 1.6-5.4-.4-10.1h4.4zm31.1 28.9c-6.8-.7-7.6-9-.8-10.4h3.6c.4.7.8.7 1.6 1.1 3.2 3.6 2.8 6.9-1.6 9.4h-2.8zm104.3-44.7c2.8 0 5.2 2.2 5.2 4.7s-2.4 4.7-5.2 4.7c-2.8 0-5.2-2.2-5.2-4.7s2.4-4.7 5.2-4.7zM70 189.2c4 0 7.2 2.9 7.2 6.1 0 3.6-3.2 6.5-7.2 6.5-3.6 0-6.8-2.9-6.8-6.5 0-3.2 3.2-6.1 6.8-6.1m-28.4 24.9c4.8-5 13.2-6.1 20-3.6l-.4-2.9H38.4V204h44.4c2.8-6.1 2.4-8.7 9.2-11.9 3.2-1.1 6.8-1.8 10-2.5 11.2-1.4 32-1.4 37.2 10.1.4 1.1.8 2.9.4 4.3h102.3v3.6h-6v33.5l2.8 2.9H219c-.8 0 2.4-.7 2.4-1.8v-19.8c-2-.7-2.8-.3-4.4-.3-.4 1.4.8 1.4 1.2 1.8 3.6 9.4-.4 18-11.6 19.5-9.6 1.4-16-4.7-15.6-13.7.4-7.2 4.8-10.8 12.8-12.3 3.6-.7 10.4 0 14.8 0 .8-.4 2 0 2.8-.4v-9c-2.8 0-34-.7-34 0l-.4 32.8c0 1.4 2 2.2 3.2 2.9v.3l-20 .4c-.4 0 0-.7 0-.7 2-1.5 3.2-2.5 2-6.2-3.2.7-5.6 1.4-8 1.4-16 .7-21.6-7.2-20-20.9 3.6-1.1 6.4 0 8.8-2.9 3.2-3.6 1.6-6.5-1.2-7.6H139v6.5c0 .4.4 1.1 0 1.5-3.2 1.1-9.2 0-12.8.4-.8 0-1.2 0-1.6-.4-.4-1.1-.4-1.5-1.2-1.8-4.4-1.1-9.2 2.9-5.6 6.1 4 3.6 12.8 2.2 18.8 5 4.4 2.2 6.8 6.1 4.4 10.5-3.6 8.3-16.8 11.2-25.6 9-4.4-1.1-10.4-4.7-12.8-6.1 1.2-3.3 3.2-5.4 4.4-7.9 2.4 4.3 9.6 15.5 19.2 8.6 4-2.9 4-7.9 0-11.2-6.4-6.1-19.2 1.1-22.8-8.3-3.6-9.4 13.2-12.2 20.8-8.6 1.2 0-.4-2.2 0-2.9v-.4h-26l-.2 33.7c0 1.1 2.4 2.2 3.2 2.5v.7h-10c-4.8 0-9.6.4-10-.4 1.2-.7 2-1.4 2.4-2.9v-33.5h-8l-.4 8.3-14-.4c.4-3.2-3.2-3.2-5.2-1.5-1.2 1.5-2 4-.8 5.4 6 7.9 23.2-4 25.2 11.5 1.6 10.1-11.6 12.6-11.6 12.6.4 5.8 5.6 9.4 10 8.7.8.7-1.6 1.8-2 2.2-7.2 3.2-12.8 2.2-16.7-.7-6-3.6-9.6-10.5-16-14.4-1.2-.7-2.4-1.1-4-1.4 0-.4-.8-.4-.4-.7l3.6-3.6c1.2 2.9 1.6 2.9 3.6 4.3 5.6 4.3 12 6.1 17.6.7 3.6-3.6 2.8-10.5-3.2-11.5-6.8-1.4-14 2.9-18.8-2.5-2.9-2.9-3.7-7.2-.9-10.5m280.5-1c.4 0 .8.7 1.2 0l.4-5.1h-27.2c-.4 1.8 0 1.8-.4 4 0 0-.4 0 0 11.2 0 5-.4 16.6.4 18.4.4 1.1 4 2.9 2.8 2.9h-20.8c-.4 0 0-.7 0-.7 2-2.2 2.8-4 2-7.9-3.6 2.5-9.6 4.3-14.4 2.5-15.2-5.4-12.8-25.6 3.6-28.1 5.2-.7 11.6 3.6 12 2.2.4-.7-.4-2.9 0-4.7l-26.4.4v-4h1.2c2.8 0 17.6 0 18-.4-1.2-2.9-7.2-8.7-10.4-10.1-.8-.4-2-.7-1.2-1.1 20.4-2.2 18.8 9 24 10.5l3.2 1.1c0-.4.4-.4.4-.7-1.2-3.6-5.2-7.6-9.2-9.7-1.2-.4-2 0-1.6-.7 4.4-1.4 15.6 0 17.6 2.5 1.6 2.9 4 7.9 8 7.9 18.4.4 38.4.4 56.7.4v4.3h-23.2l-.4 5.4c5.2-4 21.6-6.5 24 8.7 1.2 6.5-2 15.1-11.2 16.2-4.4.4-6-.7-9.6-2.5-.4-.4-.4-.7-.4-.7 6.8-2.5 6.8-11.9 3.2-17.3-.4-.7-.8-1.1-1.6-1.1-2.4-.4-4.4 0-4.4 2.2l-.4 20.6c0 4 1.6 3.2 2.8 4.3 0 .3.4 1.1.4 1.1-1.2.4-2.8 0-4 0-2 0-16.4.4-16.8 0-.4-.4-.8 0-.4-.4 4-1.8 2.4-2.2 2.8-8.3-3.6 2.2-4.8 2.5-6.8 2.9-8.4 1.8-16.8-4.7-17.6-12.2-.4-5.4.4-8.7 4.8-12.3 6.5-5 11.3-5.7 18.9-1.7" class="st0"/><path d="m-46.2 268.5.3.3c38.3-55.6 106.1-3.3 50.9 47.9l10.4 9.7-3.6 3.5-47.9-3.8-1.1-25.8c-9.2 28.4-63.5 40.5-76.9-16.6l-14.3 2.8 22.2-37.5 3.2-3.5 24.2 14.5c-29.5-22.8-7.2-78.6 55.5-56.1l1.8-7.6 3.2-3.1 24.7 41.7-3.6 3.8-46.1 17.3 5.4-14.6c-19.7-7.3-28.2 14.9-8.2 27.8-.1-.2-.1-.5-.1-.7m-24.8-3.8 13.4 8-3.9 3.5-11.8-.3c1.1 17.6 28.1 18 27.2-6.6-10 .1-18.3-1.6-24.9-4.6m25.2 4.3c4 4.6 6.7 9.2 8.3 13.6l3.1-3.3 10.7 10.4c14.6-13.5-1.9-34.1-22.1-20.7" style="fill-rule:evenodd;clip-rule:evenodd;fill:#fff"/><path d="M-48.6 272.8c40.3 50.7-50.1 91.2-68 15.2l-14.6 2.4 25-41.3 44.7 27.4-15.4 3.1c3.9 19.1 27.4 16.4 28.3-6.8-.2.1-.3.2-.4.3-70.8 1.4-55.8-93.4 23.2-65.3l3.9-10.8 24.3 41.7-48.6 21.2 5.7-14.6c-20-7.3-28.6 14.9-8.6 27.8 35.8-58.4 107.3-3.5 51.5 47.9l8.6 9-49.7.3 1.1-47.2 11.1 10.8c14.9-13.8-1.9-34.5-22.1-21.1" style="fill-rule:evenodd;clip-rule:evenodd;fill:#f4bb4f"/><path d="M-122.4 359.7v-15.2h-6.6v-2h15.8v2h-6.6v15.2h-2.6zm18-1.5c-.9.7-1.8 1.1-2.6 1.4-.9.3-1.8.4-2.7.4-1.6 0-2.8-.3-3.7-1-.9-.7-1.3-1.5-1.3-2.6 0-.6.2-1.2.5-1.7s.8-.9 1.3-1.2c.5-.3 1.1-.5 1.8-.7.5-.1 1.2-.2 2.2-.3 2-.2 3.5-.4 4.4-.7v-.6c0-.8-.2-1.5-.7-1.8-.6-.5-1.6-.7-2.8-.7-1.2 0-2 .2-2.6.5-.5.3-1 1-1.2 1.9l-2.4-.3c.2-.9.6-1.6 1.1-2.2.5-.5 1.2-1 2.2-1.3.9-.3 2-.4 3.3-.4 1.2 0 2.2.1 3 .4.8.2 1.4.6 1.7 1 .4.4.6.9.8 1.5.1.4.1 1 .1 2v2.8c0 2 0 3.2.1 3.7s.3 1 .6 1.5h-2.6c-.2-.5-.4-1-.5-1.6m-.2-4.8c-.9.3-2.2.6-4 .8-1 .1-1.7.3-2.1.4-.4.1-.7.4-1 .7-.2.3-.3.6-.3 1 0 .6.2 1 .7 1.4.5.4 1.2.6 2.2.6 1 0 1.8-.2 2.5-.5.7-.4 1.3-.9 1.6-1.5.3-.5.4-1.2.4-2.1v-.8zm6.3 6.3v-17.3h2.4v9.9l5.8-5.1h3.2l-5.5 4.6 6.1 7.9h-3l-4.8-6.4-1.7 1.4v5h-2.5zm14-17.3h2.5v2.4h-2.5v-2.4zm0 4.8h2.5v12.5h-2.5v-12.5zm6.2 12.5v-12.5h2.2v1.8c1.1-1.4 2.6-2.1 4.6-2.1.9 0 1.7.2 2.4.4.7.3 1.3.6 1.6 1.1.4.4.6.9.8 1.6.1.4.1 1.1.1 2.1v7.7h-2.5v-7.6c0-.9-.1-1.5-.3-1.9-.2-.4-.5-.8-1-1-.5-.3-1.1-.4-1.7-.4-1 0-1.9.3-2.7.9-.8.6-1.1 1.7-1.1 3.3v6.8h-2.4zm15.1 1.1 2.4.3c.1.6.4 1.1.8 1.4.6.4 1.4.6 2.5.6s2-.2 2.6-.6 1-.9 1.3-1.7c.1-.4.2-1.3.2-2.7-1.1 1.1-2.4 1.6-4 1.6-2 0-3.5-.6-4.6-1.9-1.1-1.3-1.6-2.7-1.6-4.5 0-1.2.2-2.3.8-3.3.5-1 1.2-1.8 2.2-2.3.9-.5 2.1-.8 3.3-.8 1.7 0 3.1.6 4.2 1.8v-1.5h2.3V358c0 1.9-.2 3.3-.7 4.1-.5.8-1.2 1.5-2.2 1.9-1 .5-2.2.7-3.7.7-1.7 0-3.1-.3-4.2-1-1.1-.6-1.6-1.6-1.6-2.9m2-7.6c0 1.7.4 2.9 1.2 3.6.8.8 1.7 1.1 2.8 1.1 1.1 0 2.1-.4 2.8-1.1.8-.8 1.2-1.9 1.2-3.5 0-1.5-.4-2.7-1.2-3.5-.8-.8-1.7-1.2-2.9-1.2-1.1 0-2 .4-2.8 1.1-.7.9-1.1 2-1.1 3.5m22 6.5v-17.3h7.5c1.5 0 2.7.2 3.7.5.9.4 1.7.9 2.2 1.6.5.7.8 1.5.8 2.3 0 .8-.2 1.4-.7 2.1-.5.7-1.2 1.2-2.1 1.6 1.2.3 2.1.8 2.8 1.6.6.7 1 1.6 1 2.6a4.645 4.645 0 0 1-2.1 3.9c-.6.4-1.3.6-2.2.8-.9.2-2 .3-3.2.3H-39zm2.6-10h4.4c1.2 0 2-.1 2.5-.2.7-.2 1.2-.5 1.5-.9.3-.4.5-.9.5-1.5s-.2-1.1-.5-1.5c-.3-.4-.8-.7-1.4-.9-.6-.2-1.6-.2-3.1-.2h-4v5.2zm0 8h5c.9 0 1.5 0 1.8-.1.6-.1 1.1-.2 1.5-.5.4-.2.8-.6 1-1 .3-.4.4-.9.4-1.5s-.2-1.2-.6-1.7c-.4-.5-.9-.8-1.6-1-.7-.2-1.7-.3-2.9-.3h-4.6v6.1zm25.3.5c-.9.7-1.8 1.1-2.6 1.4-.8.3-1.7.4-2.7.4-1.6 0-2.8-.3-3.7-1-.9-.7-1.3-1.5-1.3-2.6 0-.6.2-1.2.5-1.7s.7-.9 1.3-1.2c.5-.3 1.1-.5 1.8-.7.5-.1 1.2-.2 2.2-.3 2-.2 3.5-.4 4.4-.7v-.6c0-.8-.2-1.5-.7-1.8-.6-.5-1.6-.7-2.8-.7-1.1 0-2 .2-2.6.5-.6.3-1 1-1.2 1.9l-2.4-.3c.2-.9.6-1.6 1.1-2.2.5-.5 1.2-1 2.1-1.3 1-.3 2.1-.4 3.3-.4 1.2 0 2.2.1 3 .4.8.2 1.3.6 1.7 1 .4.4.6.9.8 1.5.1.4.1 1 .1 2v2.8c0 2 0 3.2.2 3.7.1.5.3 1 .6 1.5h-2.6c-.2-.5-.4-1-.5-1.6m-.2-4.8c-.9.3-2.2.6-4 .8-1 .1-1.7.3-2.1.4-.4.1-.8.4-1 .7-.2.3-.3.6-.3 1 0 .6.2 1 .7 1.4.5.4 1.2.6 2.2.6 1 0 1.8-.2 2.5-.5.7-.4 1.3-.9 1.6-1.5.3-.5.4-1.2.4-2.1v-.8zm6.3 6.3v-12.5h2.2v1.8c1.1-1.4 2.6-2.1 4.6-2.1.9 0 1.7.2 2.4.4.7.3 1.3.6 1.6 1.1.4.4.6.9.8 1.6.1.4.1 1.1.1 2.1v7.7H4.3v-7.6c0-.9-.1-1.5-.3-1.9-.2-.4-.5-.8-1-1-.5-.3-1.1-.4-1.7-.4-1.1 0-1.9.3-2.7.9-.7.6-1.1 1.7-1.1 3.3v6.8H-5zm15.5 0v-17.3H13v9.9l5.8-5.1H22l-5.5 4.6 6.1 7.9h-3l-4.8-6.4-1.7 1.4v5h-2.6zm14-17.3H27v2.4h-2.5v-2.4zm0 4.8H27v12.5h-2.5v-12.5zm6.2 12.5v-12.5H33v1.8c1.1-1.4 2.6-2.1 4.6-2.1.9 0 1.7.2 2.4.4.7.3 1.3.6 1.6 1.1.4.4.6.9.8 1.6.1.4.1 1.1.1 2.1v7.7H40v-7.6c0-.9-.1-1.5-.3-1.9-.2-.4-.5-.8-1-1-.5-.3-1.1-.4-1.7-.4-1.1 0-2 .3-2.7.9-.8.6-1.1 1.7-1.1 3.3v6.8h-2.5zm15.1 1.1 2.4.3c.1.6.4 1.1.8 1.4.6.4 1.4.6 2.5.6s2-.2 2.7-.6c.6-.4 1-.9 1.2-1.7.1-.4.2-1.3.2-2.7-1.1 1.1-2.4 1.6-4 1.6-2 0-3.5-.6-4.6-1.9-1.1-1.3-1.7-2.7-1.7-4.5 0-1.2.3-2.3.8-3.3s1.2-1.8 2.2-2.3c.9-.5 2.1-.8 3.3-.8 1.7 0 3.1.6 4.2 1.8v-1.5h2.3V358c0 1.9-.2 3.3-.7 4.1-.5.8-1.2 1.5-2.2 1.9-1 .5-2.2.7-3.7.7-1.7 0-3.1-.3-4.2-1-1-.6-1.5-1.6-1.5-2.9m2.1-7.6c0 1.7.4 2.9 1.1 3.6.8.8 1.7 1.1 2.8 1.1 1.1 0 2.1-.4 2.8-1.1.8-.8 1.1-1.9 1.1-3.5 0-1.5-.4-2.7-1.2-3.5-.8-.8-1.7-1.2-2.9-1.2-1.1 0-2 .4-2.8 1.1-.5.9-.9 2-.9 3.5m26.6 6.5v-15.2h-6.6v-2h15.9v2h-6.6v15.2h-2.7zm18.5-4 2.5.3c-.4 1.3-1.1 2.3-2.2 3-1.1.7-2.5 1.1-4.1 1.1-2.1 0-3.8-.6-5-1.7-1.2-1.1-1.9-2.7-1.9-4.8 0-2.1.6-3.8 1.9-4.9 1.2-1.2 2.9-1.8 4.9-1.8 1.9 0 3.5.6 4.7 1.7 1.2 1.1 1.8 2.7 1.8 4.8v.6H84.8c.1 1.4.5 2.4 1.3 3.2.8.7 1.8 1.1 3 1.1.9 0 1.7-.2 2.3-.6.7-.5 1.3-1.1 1.6-2m-8-3.5h8c-.1-1-.4-1.8-.9-2.4-.8-.8-1.8-1.2-3-1.2-1.1 0-2.1.3-2.8 1-.8.7-1.3 1.6-1.3 2.6m23.1 2.9 2.4.3c-.3 1.4-.9 2.6-2 3.4-1.1.8-2.4 1.2-4 1.2-2 0-3.6-.5-4.8-1.7-1.2-1.1-1.8-2.7-1.8-4.8 0-1.4.3-2.5.8-3.5s1.3-1.8 2.4-2.3c1.1-.5 2.2-.8 3.5-.8 1.6 0 2.9.3 3.9 1.1 1 .7 1.7 1.7 1.9 2.9l-2.4.3c-.2-.8-.6-1.5-1.2-1.9-.6-.4-1.3-.6-2.1-.6-1.3 0-2.3.4-3 1.1-.8.8-1.2 2-1.2 3.6 0 1.7.4 2.9 1.1 3.7.7.8 1.7 1.2 2.9 1.2 1 0 1.8-.3 2.4-.8.6-.5 1-1.3 1.2-2.4m4.5 4.6v-17.3h2.4v6.2c1.1-1.1 2.6-1.7 4.3-1.7 1.1 0 2 .2 2.8.6.8.4 1.4.9 1.7 1.5.3.6.5 1.6.5 2.8v7.9H122v-7.9c0-1-.3-1.8-.8-2.3-.5-.5-1.3-.7-2.3-.7-.7 0-1.4.2-2 .5-.7.3-1.1.8-1.4 1.3-.3.6-.4 1.3-.4 2.3v6.9h-2.5zm15.6 0v-12.5h2.2v1.8c1.1-1.4 2.6-2.1 4.6-2.1.9 0 1.7.2 2.4.4.7.3 1.3.6 1.7 1.1.4.4.6.9.8 1.6.1.4.1 1.1.1 2.1v7.7h-2.4v-7.6c0-.9-.1-1.5-.3-1.9-.2-.4-.5-.8-1-1-.5-.3-1.1-.4-1.7-.4-1 0-1.9.3-2.7.9-.8.6-1.1 1.7-1.1 3.3v6.8h-2.6zm14.6-6.3c0-2.3.7-4 2.3-5.1 1.2-.9 2.8-1.4 4.5-1.4 2 0 3.6.6 4.9 1.7 1.3 1.1 1.9 2.7 1.9 4.7 0 1.6-.3 2.9-.8 3.8-.6.9-1.4 1.6-2.4 2.1-1.1.5-2.2.8-3.5.8-2 0-3.7-.5-4.9-1.7-1.4-1.1-2-2.7-2-4.9m2.5 0c0 1.6.4 2.8 1.2 3.6.8.8 1.8 1.2 3 1.2s2.3-.4 3.1-1.2c.8-.8 1.2-2 1.2-3.7 0-1.6-.4-2.7-1.2-3.5-.8-.8-1.8-1.2-3-1.2s-2.2.4-3 1.2c-.8.9-1.3 2-1.3 3.6m13.9-11h2.4v17.3h-2.4v-17.3zm5.4 11c0-2.3.7-4 2.2-5.1 1.3-.9 2.8-1.4 4.6-1.4 2 0 3.6.6 4.9 1.7 1.3 1.1 1.9 2.7 1.9 4.7 0 1.6-.3 2.9-.8 3.8-.6.9-1.4 1.6-2.4 2.1-1.1.5-2.3.8-3.5.8-2 0-3.7-.5-4.9-1.7-1.4-1.1-2-2.7-2-4.9m2.5 0c0 1.6.4 2.8 1.2 3.6.8.8 1.8 1.2 3.1 1.2 1.2 0 2.2-.4 3-1.2.8-.8 1.2-2 1.2-3.7 0-1.6-.4-2.7-1.2-3.5-.8-.8-1.8-1.2-3-1.2s-2.3.4-3.1 1.2c-.8.9-1.2 2-1.2 3.6m13.5 7.4 2.4.3c.1.6.4 1.1.8 1.4.6.4 1.4.6 2.5.6 1.2 0 2-.2 2.7-.6.6-.4 1-.9 1.2-1.7.1-.4.2-1.3.2-2.7-1.1 1.1-2.4 1.6-4 1.6-2 0-3.5-.6-4.6-1.9-1.1-1.3-1.6-2.7-1.6-4.5 0-1.2.2-2.3.8-3.3.5-1 1.2-1.8 2.2-2.3.9-.5 2.1-.8 3.4-.8 1.7 0 3.1.6 4.2 1.8v-1.5h2.3V358c0 1.9-.3 3.3-.7 4.1-.5.8-1.2 1.5-2.2 1.9-1 .5-2.2.7-3.7.7-1.7 0-3.1-.3-4.2-1-1.2-.6-1.7-1.6-1.7-2.9m2-7.6c0 1.7.4 2.9 1.1 3.6.7.8 1.7 1.1 2.8 1.1 1.1 0 2.1-.4 2.9-1.1.8-.8 1.1-1.9 1.1-3.5 0-1.5-.4-2.7-1.2-3.5-.8-.8-1.7-1.2-2.8-1.2-1.1 0-2 .4-2.8 1.1-.7.9-1.1 2-1.1 3.5m13.9 11.3-.3-2c.6.1 1 .2 1.4.2.6 0 1-.1 1.3-.3.3-.1.6-.4.8-.7.2-.2.4-.7.7-1.6.1-.1.1-.3.2-.5l-5.5-12.5h2.6l3 7.2c.4.9.8 1.9 1 2.9.3-1 .6-1.9 1-2.9l3.1-7.3h2.4l-5.5 12.7c-.6 1.4-1.1 2.3-1.4 2.8-.4.7-.9 1.2-1.5 1.5-.6.3-1.2.5-2 .5-.2.3-.7.2-1.3 0m27.2-6.7.4 1.9c-.7.1-1.3.2-1.8.2-.9 0-1.6-.1-2.1-.4-.5-.2-.8-.6-1-.9-.2-.4-.3-1.2-.3-2.5v-7.2H217v-1.6h1.8v-3.1l2.4-1.3v4.4h2.5v1.6h-2.5v7.3c0 .6.1 1 .1 1.2.1.2.3.3.4.4.2.1.5.1.8.1.4 0 .8 0 1.2-.1m1.5-4.4c0-2.3.7-4 2.2-5.1 1.2-.9 2.7-1.4 4.6-1.4 2 0 3.6.6 4.9 1.7 1.3 1.1 1.9 2.7 1.9 4.7 0 1.6-.3 2.9-.8 3.8-.5.9-1.4 1.6-2.4 2.1-1.1.5-2.2.8-3.5.8-2 0-3.7-.5-4.9-1.7-1.4-1.1-2-2.7-2-4.9m2.5 0c0 1.6.4 2.8 1.2 3.6.8.8 1.8 1.2 3.1 1.2 1.2 0 2.2-.4 3.1-1.2.8-.8 1.2-2 1.2-3.7 0-1.6-.4-2.7-1.2-3.5-.8-.8-1.8-1.2-3-1.2s-2.3.4-3.1 1.2c-.9.9-1.3 2-1.3 3.6m27.1 4.4.3 1.9c-.7.1-1.3.2-1.8.2-.9 0-1.6-.1-2.1-.4-.5-.2-.8-.6-1-.9-.2-.4-.3-1.2-.3-2.5v-7.2h-1.8v-1.6h1.8v-3.1l2.5-1.3v4.4h2.5v1.6h-2.5v7.3c0 .6 0 1 .1 1.2.1.2.2.3.4.4.2.1.5.1.8.1.3 0 .7 0 1.1-.1m2.4 1.9v-17.3h2.5v6.2c1.1-1.1 2.6-1.7 4.4-1.7 1.1 0 2 .2 2.8.6.8.4 1.3.9 1.7 1.5.3.6.5 1.6.5 2.8v7.9h-2.4v-7.9c0-1-.3-1.8-.8-2.3-.5-.5-1.3-.7-2.3-.7-.7 0-1.4.2-2.1.5-.6.3-1.1.8-1.3 1.3-.3.6-.4 1.3-.4 2.3v6.9h-2.6zm25.5-4 2.5.3c-.4 1.3-1.1 2.3-2.2 3-1.1.7-2.5 1.1-4.2 1.1-2.1 0-3.8-.6-5-1.7-1.2-1.1-1.9-2.7-1.9-4.8 0-2.1.6-3.8 1.9-4.9 1.3-1.2 2.9-1.8 4.9-1.8 2 0 3.5.6 4.7 1.7 1.3 1.1 1.9 2.7 1.9 4.8v.6h-10.8c.1 1.4.5 2.4 1.3 3.2.8.7 1.8 1.1 3 1.1.9 0 1.7-.2 2.3-.6.7-.5 1.2-1.1 1.6-2m-8.1-3.5h8.1c-.1-1-.4-1.8-.9-2.4-.8-.8-1.8-1.2-3.1-1.2-1.1 0-2.1.3-2.8 1-.8.7-1.2 1.6-1.3 2.6m36.1 1.5 2.6.6c-.5 1.9-1.5 3.3-3 4.3s-3.2 1.5-5.3 1.5c-2.2 0-3.9-.4-5.3-1.1-1.3-.8-2.4-1.9-3.1-3.3-.7-1.4-1.1-3-1.1-4.6 0-1.8.4-3.4 1.2-4.7.8-1.3 1.9-2.4 3.4-3.1 1.5-.7 3.1-1 4.8-1 2 0 3.7.4 5.1 1.3 1.4.9 2.3 2.1 2.9 3.7l-2.6.5c-.5-1.3-1.2-2.2-2-2.7-.9-.6-2-.9-3.3-.9-1.5 0-2.8.3-3.9 1-1 .6-1.7 1.5-2.2 2.5-.4 1.1-.7 2.2-.7 3.3 0 1.5.3 2.8.7 3.9.5 1.1 1.3 1.9 2.3 2.4 1.1.5 2.2.8 3.4.8 1.5 0 2.7-.4 3.8-1.1 1.2-.8 1.9-1.9 2.3-3.3m4.7-.3c0-2.3.7-4 2.2-5.1 1.2-.9 2.8-1.4 4.6-1.4 2 0 3.6.6 4.9 1.7 1.3 1.1 1.9 2.7 1.9 4.7 0 1.6-.3 2.9-.8 3.8-.6.9-1.4 1.6-2.4 2.1-1.1.5-2.3.8-3.5.8-2 0-3.7-.5-4.9-1.7-1.4-1.1-2-2.7-2-4.9m2.5 0c0 1.6.4 2.8 1.2 3.6.8.8 1.8 1.2 3.1 1.2 1.2 0 2.2-.4 3-1.2.8-.8 1.2-2 1.2-3.7 0-1.6-.4-2.7-1.2-3.5-.8-.8-1.8-1.2-3-1.2s-2.2.4-3.1 1.2c-.8.9-1.2 2-1.2 3.6m13.9 6.3v-12.5h2.2v1.8c.5-.6 1.1-1.1 1.8-1.5.8-.4 1.6-.6 2.6-.6 1.1 0 2 .2 2.7.6.7.4 1.2.9 1.4 1.6 1.2-1.5 2.6-2.2 4.5-2.2 1.5 0 2.5.3 3.3 1.1.8.7 1.2 1.7 1.2 3.2v8.6H349v-7.9c0-.9-.1-1.5-.2-1.8-.2-.4-.5-.7-.9-.9-.4-.2-.9-.3-1.5-.3-1 0-1.8.3-2.5.9-.7.6-1 1.5-1 2.8v7.3h-2.4v-8.1c0-.9-.2-1.7-.6-2.1-.4-.5-1.1-.7-2-.7-.7 0-1.3.2-1.9.5-.6.3-1 .8-1.3 1.4-.3.6-.4 1.5-.4 2.6v6.5h-2.5zm23.3 0v-12.5h2.2v1.8c.5-.6 1.1-1.1 1.8-1.5.7-.4 1.6-.6 2.6-.6 1.1 0 2 .2 2.6.6.7.4 1.2.9 1.5 1.6 1.2-1.5 2.6-2.2 4.5-2.2 1.4 0 2.6.3 3.3 1.1.8.7 1.2 1.7 1.2 3.2v8.6h-2.5v-7.9c0-.9-.1-1.5-.2-1.8-.2-.4-.5-.7-.9-.9-.4-.2-.9-.3-1.5-.3-1 0-1.9.3-2.5.9-.7.6-1 1.5-1 2.8v7.3h-2.5v-8.1c0-.9-.2-1.7-.6-2.1-.4-.5-1.1-.7-2-.7-.7 0-1.3.2-1.9.5-.6.3-1 .8-1.3 1.4-.3.6-.4 1.5-.4 2.6v6.5h-2.4zm22.4-6.3c0-2.3.8-4 2.2-5.1 1.3-.9 2.8-1.4 4.6-1.4 2 0 3.6.6 4.9 1.7 1.3 1.1 1.9 2.7 1.9 4.7 0 1.6-.3 2.9-.8 3.8-.6.9-1.4 1.6-2.4 2.1-1.1.5-2.3.8-3.5.8-2 0-3.7-.5-4.9-1.7-1.4-1.1-2-2.7-2-4.9m2.5 0c0 1.6.4 2.8 1.2 3.6.8.8 1.8 1.2 3.1 1.2s2.2-.4 3-1.2c.8-.8 1.2-2 1.2-3.7 0-1.6-.4-2.7-1.2-3.5-.8-.8-1.8-1.2-3-1.2s-2.3.4-3.1 1.2c-.7.9-1.2 2-1.2 3.6m14 6.3v-12.5h2.2v1.8c1.1-1.4 2.6-2.1 4.6-2.1.9 0 1.7.2 2.4.4.7.3 1.3.6 1.6 1.1.4.4.6.9.8 1.6.1.4.1 1.1.1 2.1v7.7h-2.5v-7.6c0-.9-.1-1.5-.3-1.9-.2-.4-.5-.8-1-1-.5-.3-1.1-.4-1.7-.4-1 0-2 .3-2.7.9-.7.6-1.1 1.7-1.1 3.3v6.8H394zm23.5 0v-17.3h4l4.7 12.3c.4 1.1.8 2 1 2.5.2-.6.6-1.6 1.1-2.8l4.8-12h3.6v17.3h-2.5v-14.5l-5.8 14.5H426l-5.8-14.7v14.7h-2.7zm32.6-1.5c-.9.7-1.8 1.1-2.6 1.4-.8.3-1.7.4-2.7.4-1.6 0-2.8-.3-3.7-1-.9-.7-1.3-1.5-1.3-2.6 0-.6.2-1.2.5-1.7s.8-.9 1.3-1.2c.5-.3 1.1-.5 1.8-.7.5-.1 1.2-.2 2.2-.3 2-.2 3.4-.4 4.4-.7v-.6c0-.8-.2-1.5-.7-1.8-.6-.5-1.6-.7-2.8-.7-1.1 0-2 .2-2.6.5-.5.3-1 1-1.2 1.9l-2.4-.3c.2-.9.6-1.6 1.1-2.2.5-.5 1.2-1 2.2-1.3 1-.3 2-.4 3.3-.4 1.2 0 2.2.1 3 .4.8.2 1.3.6 1.7 1 .3.4.6.9.8 1.5.1.4.1 1 .1 2v2.8c0 2 .1 3.2.2 3.7s.3 1 .6 1.5h-2.6c-.4-.5-.6-1-.6-1.6m-.2-4.8c-.9.3-2.2.6-4 .8-1 .1-1.7.3-2.2.4-.4.1-.7.4-1 .7-.2.3-.4.6-.4 1 0 .6.3 1 .7 1.4.5.4 1.2.6 2.2.6 1 0 1.8-.2 2.5-.5.7-.4 1.3-.9 1.6-1.5.3-.5.4-1.2.4-2.1v-.8zm6.3 6.3v-12.5h2.2v1.8c1.1-1.4 2.6-2.1 4.6-2.1.9 0 1.7.1 2.4.4.7.3 1.3.6 1.7 1.1s.6 1 .8 1.6c.1.4.1 1.1.1 2.1v7.7h-2.4v-7.6c0-.9-.1-1.5-.3-1.9-.2-.4-.5-.8-1-1-.5-.3-1-.4-1.7-.4-1.1 0-1.9.3-2.7.9-.8.6-1.1 1.7-1.1 3.3v6.8h-2.6z" class="st0"/></svg>