<svg xmlns="http://www.w3.org/2000/svg" width="201.422" height="201.399" viewBox="0 0 61.471 61.517"><path fill="#9e173b" fill-rule="evenodd" d="M53.088.795H8.381C4.203.795.768 4.265.768 8.505v44.511c0 4.238 3.435 7.709 7.613 7.709h44.707c4.203 0 7.615-3.471 7.615-7.709V8.506c0-4.24-3.412-7.71-7.615-7.71"/><path fill="#fab90c" fill-rule="evenodd" d="M41.974 8.622h10.913v44.286H41.974v-12.54c-9.613 3.515-18.602 3.825-26.86-4.266-3.42-3.56-5.35-8.41-4.543-16.86.138-1.294-.467-7.296-1.986-10.632h9.693c4.541 7.21-1.41 16.412 5.547 22.286 9.482 6.138 17.75-1.202 18.15-7.829zm-10.873 4.57c5.168 0 9.343 4.181 9.343 9.249 0 5.115-4.175 9.255-9.343 9.255-5.167 0-9.387-4.14-9.387-9.255 0-5.068 4.22-9.249 9.387-9.249"/></svg>