<svg xmlns="http://www.w3.org/2000/svg" width="377.953" height="129.485" viewBox="0 0 100 34.26"><path d="M92.88 193.227c-1.827-1.514-4.19-2.491-6.275-3.354-2.875-1.189-5.359-2.215-5.359-4.117 0-.831.389-1.594 1.096-2.145.745-.581 1.787-.9 2.93-.9 3.595 0 6.462 2.541 6.487 2.564l.701.64 3.186-5.976-.364-.385c-.14-.147-3.495-3.611-9.967-3.611-3.106 0-5.961.992-8.045 2.794-2.114 1.83-3.281 4.354-3.281 7.107 0 2.685 1.042 4.857 3.182 6.637 1.799 1.495 4.04 2.461 6.21 3.396 2.957 1.275 5.515 2.377 5.515 4.338 0 1.494-1.012 3.09-3.847 3.09-4.067 0-7.33-3.096-7.362-3.128l-.612-.594-3.96 5.489.394.442c.045.046 1.068 1.177 2.991 2.302a16.764 16.764 0 0 0 8.458 2.258c3.32 0 6.149-1.018 8.183-2.943 1.913-1.812 2.965-4.315 2.965-7.048 0-2.812-1.055-5.055-3.226-6.856m33.482 16.353h7.421v-33.144h-7.421zm-14.507-6.206h-5.65V182.64h4.982c2.232 0 3.513 1.25 3.513 3.426 0 2.2-1.152 3.313-3.425 3.313h-1.716v6.1h2.296c1.255 0 2.301.391 3.024 1.136.76.78 1.067 1.552 1.067 2.664 0 2.526-1.567 4.094-4.091 4.094m9.854-8.689A7.556 7.556 0 0 0 118.77 192c1.934-1.55 3.027-3.93 3.027-6.646 0-2.747-1.046-5.039-3.027-6.63-1.865-1.498-4.456-2.29-7.495-2.29H99.199v33.144h12.21c3.24 0 6.042-.818 8.103-2.369 2.34-1.759 3.575-4.376 3.575-7.572 0-1.821-.476-3.534-1.378-4.95" style="fill:#292075;fill-opacity:1;fill-rule:nonzero;stroke:none;stroke-width:1.27435" transform="translate(-33.783 -175.841)"/><path d="M50.918 175.841c-9.463 0-17.135 7.69-17.135 17.175 0 8.892 6.743 16.206 15.382 17.085v-12.476a4.94 4.94 0 0 1-3.18-4.61 4.939 4.939 0 0 1 4.933-4.934 4.94 4.94 0 0 1 4.935 4.935c0 2.102-1.326 3.9-3.182 4.609v12.476c8.64-.88 15.382-8.193 15.382-17.085 0-9.485-7.671-17.175-17.135-17.175" style="fill:#00b5ef;fill-opacity:1;fill-rule:nonzero;stroke:none;stroke-width:1.27435" transform="translate(-33.783 -175.841)"/></svg>