<?xml version="1.0" encoding="UTF-8" standalone="no"?>
<svg
   xmlns:dc="http://purl.org/dc/elements/1.1/"
   xmlns:cc="http://creativecommons.org/ns#"
   xmlns:rdf="http://www.w3.org/1999/02/22-rdf-syntax-ns#"
   xmlns:svg="http://www.w3.org/2000/svg"
   xmlns="http://www.w3.org/2000/svg"
   viewBox="0 0 425 46"
   height="46"
   width="425"
   xml:space="preserve"
   id="svg10"
   version="1.1"><metadata
     id="metadata16"><rdf:RDF><cc:Work
         rdf:about=""><dc:format>image/svg+xml</dc:format><dc:type
           rdf:resource="http://purl.org/dc/dcmitype/StillImage" /><dc:title></dc:title></cc:Work></rdf:RDF></metadata><defs
     id="defs14"><clipPath
       id="clipPath26"
       clipPathUnits="userSpaceOnUse"><path
         id="path24"
         d="M 0,774 H 594 V 0.06 H 0 Z" /></clipPath></defs><g
     transform="matrix(1.3333333,0,0,-1.3333333,0,46)"
     id="g18"><g
       transform="matrix(1.6141776,0,0,1.5345379,41.674325,9.8903597)"
       id="g32"><path
         id="path34"
         style="fill:#98272a;fill-opacity:1;fill-rule:evenodd;stroke:none"
         d="m 0,0 -1.168,-5.891 h -5.105 c 0.388,1.95 0.777,4.041 1.218,6.036 0.09,0.433 0.19,0.876 0.285,1.359 0,0.342 0.047,0.682 0.1,1.023 C -4.477,4.91 -6.178,5.35 -7.826,4.619 -8.807,4.23 -9.244,3.551 -9.723,2.672 -10.166,1.893 -10.305,1.166 -10.506,0.193 l -1.265,-6.084 h -5.059 l 2.965,14.5 c 1.558,0.049 3.111,0.098 4.672,0.143 -0.192,-0.922 -0.436,-1.799 -0.582,-2.723 1.9,2.287 4.322,3.453 7.15,2.629 C 0.195,7.879 0.783,5.053 0.338,2.334 0.283,1.504 0.195,0.777 0,0" /></g><g
       transform="matrix(1.6141776,0,0,1.5345379,190.60479,33.172368)"
       id="g36"><path
         id="path38"
         style="fill:#98272a;fill-opacity:1;fill-rule:evenodd;stroke:none"
         d="M 0,0 H 4.963 L 0.537,-21.109 h -4.568 c 0.191,0.779 0.383,1.554 0.631,2.339 -0.928,-0.88 -1.702,-1.607 -2.725,-2.097 v 3.164 c 0.389,0.094 0.783,0.244 1.119,0.435 1.465,0.926 2.039,2.58 2.039,4.235 l -0.094,0.826 c -0.095,0.775 -0.433,1.461 -1.314,1.846 -0.48,0.295 -1.166,0.295 -1.75,0.195 v 3.748 c 0.289,0 0.533,-0.096 0.783,-0.096 1.408,-0.341 2.619,-1.269 3.309,-2.677 z m -6.125,-20.867 c -0.338,-0.195 -0.723,-0.291 -1.17,-0.385 -1.353,-0.34 -2.141,-0.439 -3.549,0.094 -1.65,0.586 -2.474,1.703 -3.107,3.211 -1.459,3.695 0.14,8.949 3.74,10.75 1.166,0.586 2.672,0.922 4.086,0.779 v -3.748 c -0.387,-0.049 -0.82,-0.195 -1.117,-0.387 -0.828,-0.537 -1.365,-1.314 -1.654,-2.236 -0.336,-0.922 -0.54,-2.238 -0.243,-3.209 0.094,-0.488 0.293,-0.834 0.58,-1.121 0.68,-0.584 1.614,-0.729 2.434,-0.584" /></g><g
       transform="matrix(1.6141776,0,0,1.5345379,124.02968,22.795823)"
       id="g40"><path
         id="path42"
         style="fill:#98272a;fill-opacity:1;fill-rule:evenodd;stroke:none"
         d="m 0,0 -1.02,-3.111 c -1.408,0.386 -2.435,0.586 -3.89,0.681 -0.442,0 -0.774,0.049 -1.113,-0.045 -1.028,-0.25 -1.467,-1.17 -0.686,-1.853 0.969,-0.971 2.674,-1.211 3.889,-1.992 0.297,-0.198 0.634,-0.489 0.972,-0.78 0.965,-1.507 0.828,-3.113 -0.191,-4.673 -1.609,-2.379 -4.67,-2.623 -7.443,-2.428 -1.508,0.101 -2.774,0.39 -4.284,0.681 l 0.93,3.504 c 1.846,-0.49 3.016,-0.929 4.756,-0.728 0.785,0.047 1.91,0 1.91,1.066 -0.199,0.78 -0.926,1.268 -1.709,1.606 -1.162,0.535 -2.428,0.875 -3.351,1.801 -0.543,0.777 -0.692,1.361 -0.692,2.333 0,0.973 0.299,1.651 0.736,2.286 C -8.701,1.895 -3.592,0.875 0,0" /></g><g
       transform="matrix(1.6141776,0,0,1.5345379,77.476783,23.323704)"
       id="g44"><path
         id="path46"
         style="fill:#98272a;fill-opacity:1;fill-rule:evenodd;stroke:none"
         d="M 0,0 5.154,0.096 C 4.766,-1.705 4.373,-3.504 3.984,-5.398 3.748,-6.615 3.26,-8.176 3.602,-9.389 c 0.197,-0.679 0.429,-0.924 1.068,-1.117 0.73,-0.246 1.66,-0.098 2.242,0.34 1.746,1.262 2.233,3.357 2.67,5.4 l 1.07,4.862 h 5.012 l -3.117,-14.741 c -1.457,-0.046 -2.918,0.049 -4.426,0 0.145,0.831 0.344,2.047 0.537,2.874 -0.537,-0.489 -0.971,-1.026 -1.556,-1.461 -0.727,-0.582 -1.606,-0.973 -2.528,-1.217 -1.072,-0.242 -2.531,-0.242 -3.553,0.197 -1.121,0.438 -1.945,1.455 -2.384,2.578 -0.582,1.508 -0.342,2.526 -0.096,4.086 C -1.072,-5.061 -0.533,-2.482 0,0" /></g><g
       transform="matrix(1.6141776,0,0,1.5345379,68.208174,33.172368)"
       id="g48"><path
         id="path50"
         style="fill:#98272a;fill-opacity:1;fill-rule:evenodd;stroke:none"
         d="M 0,0 H 4.963 L 0.49,-21.109 h -4.574 c 0.195,0.779 0.438,1.554 0.629,2.339 -0.869,-0.88 -1.695,-1.607 -2.67,-2.097 v 3.164 c 0.391,0.094 0.775,0.244 1.121,0.435 1.404,0.926 1.994,2.58 1.994,4.235 l -0.056,0.826 c -0.094,0.775 -0.483,1.461 -1.35,1.846 -0.498,0.295 -1.176,0.295 -1.709,0.195 v 3.748 c 0.244,0 0.48,-0.096 0.775,-0.096 1.364,-0.341 2.579,-1.269 3.309,-2.677 z m -6.125,-20.867 c -0.387,-0.195 -0.779,-0.291 -1.174,-0.385 -1.353,-0.34 -2.176,-0.439 -3.588,0.094 -1.613,0.586 -2.488,1.703 -3.123,3.211 -1.414,3.695 0.207,8.949 3.752,10.75 1.166,0.586 2.721,0.922 4.133,0.779 v -3.748 c -0.437,-0.049 -0.824,-0.195 -1.174,-0.387 -0.771,-0.537 -1.353,-1.314 -1.65,-2.236 -0.336,-0.922 -0.526,-2.238 -0.244,-3.209 0.101,-0.488 0.295,-0.834 0.629,-1.121 0.689,-0.584 1.558,-0.729 2.439,-0.584" /></g><g
       transform="matrix(1.6141776,0,0,1.5345379,8.4642356,33.172368)"
       id="g52"><path
         id="path54"
         style="fill:#98272a;fill-opacity:1;fill-rule:evenodd;stroke:none"
         d="M 0,0 H 5.203 L 0.877,-21.062 h -5.252" /></g><g
       transform="matrix(1.6141776,0,0,1.5345379,164.23559,9.8903597)"
       id="g56"><path
         id="path58"
         style="fill:#98272a;fill-opacity:1;fill-rule:evenodd;stroke:none"
         d="m 0,0 -1.221,-5.891 h -5.154 c 0.436,1.95 0.873,4.041 1.266,6.036 0.097,0.433 0.199,0.876 0.343,1.308 0,0.393 0,0.733 0.043,1.074 C -4.473,4.91 -6.285,5.35 -7.885,4.619 -8.809,4.182 -9.246,3.551 -9.73,2.672 -10.213,1.893 -10.363,1.115 -10.508,0.193 l -1.318,-6.084 h -4.959 l 2.871,14.5 c 1.551,0.049 3.119,0.049 4.668,0.143 C -9.438,7.83 -9.637,6.953 -9.834,6.029 -7.936,8.316 -5.502,9.482 -2.682,8.658 0.143,7.879 0.729,5.053 0.34,2.283 0.24,1.504 0.143,0.777 0,0" /></g><g
       transform="matrix(1.6141776,0,0,1.5345379,130.467,33.172368)"
       id="g60"><path
         id="path62"
         style="fill:#98272a;fill-opacity:1;fill-rule:evenodd;stroke:none"
         d="M 0,0 H 5.254 L 0.928,-21.062 h -5.26" /></g><g
       transform="matrix(1.6141776,0,0,1.5345379,287.6443,9.6601787)"
       id="g64"><path
         id="path66"
         style="fill:#98272a;fill-opacity:1;fill-rule:evenodd;stroke:none"
         d="m 0,0 -1.213,-5.93 h -5.156 c 0.389,1.992 0.877,4.133 1.271,6.08 0.086,0.485 0.188,0.92 0.289,1.409 0,0.341 0.041,0.681 0.094,1.027 C -4.516,4.969 -6.27,5.4 -7.928,4.676 -8.852,4.281 -9.285,3.602 -9.814,2.725 -10.258,1.947 -10.402,1.215 -10.596,0.246 l -1.273,-6.131 h -5.057 l 2.924,14.596 c 1.547,0.049 3.158,0.098 4.717,0.146 C -9.482,7.934 -9.68,7.006 -9.871,6.131 -8.02,8.418 -5.492,9.586 -2.717,8.809 0.197,7.98 0.732,5.107 0.344,2.383 0.291,1.559 0.146,0.83 0,0" /></g><g
       transform="matrix(1.6141776,0,0,1.5345379,297.07111,33.172368)"
       id="g68"><path
         id="path70"
         style="fill:#98272a;fill-opacity:1;fill-rule:evenodd;stroke:none"
         d="m 0,0 h 5.105 l -2.628,-12.549 5.16,6.035 h 5.736 l -6.025,-6.666 3.787,-7.978 H 5.686 l -3.35,7.736 -1.607,-7.736 h -5.008" /></g><g
       transform="matrix(1.6141776,0,0,1.5345379,258.83931,12.575801)"
       id="g72"><path
         id="path74"
         style="fill:#98272a;fill-opacity:1;fill-rule:evenodd;stroke:none"
         d="m 0,0 c -0.438,-2.092 -0.875,-4.135 -1.271,-6.18 l -0.19,-1.65 h -4.232 l 0.298,2.236 c -0.73,-0.728 -1.513,-1.361 -2.337,-1.801 v 2.53 c 0.044,0.049 0.139,0.049 0.234,0.101 0.543,0.289 0.934,0.483 1.221,0.778 0.683,0.726 1.027,1.841 1.309,2.769 h -0.725 c -0.625,0 -1.362,0.045 -2.039,0 v 2.432 c 1.017,0.096 2.186,0.051 3.349,0.051 0,1.267 -0.484,2.234 -1.797,2.523 -0.582,0.1 -1.113,0.1 -1.552,0.1 V 6.908 C -4.57,7.293 -1.214,6.76 -0.047,3.889 0.532,2.432 0.199,1.508 0,0 m -7.732,-7.395 c -0.78,-0.39 -1.659,-0.636 -2.483,-0.728 -1.9,-0.193 -3.891,0.678 -4.717,2.432 -0.588,0.974 -0.435,2.041 -0.2,3.158 0.25,1.07 0.739,1.656 1.993,2.533 1.803,0.873 3.563,1.168 5.407,1.215 v -2.432 c -0.732,-0.049 -1.461,-0.246 -1.947,-0.588 -0.971,-0.728 -1.356,-2.09 -0.294,-2.912 0.633,-0.437 1.509,-0.396 2.241,-0.148 z m 0,11.284 c -0.686,0 -1.272,-0.047 -2.043,-0.244 -0.875,-0.192 -1.508,-0.485 -2.34,-0.87 l 0.584,3.401 c 1.174,0.289 2.427,0.584 3.799,0.732" /></g><g
       transform="matrix(1.6141776,0,0,1.5345379,218.56234,30.55905)"
       id="g76"><path
         id="path78"
         style="fill:#98272a;fill-opacity:1;fill-rule:evenodd;stroke:none"
         d="m 0,0 h 2.674 c 2.34,0 5.937,-0.34 6.609,-3.064 0.149,-0.438 0.196,-0.872 0.196,-1.309 v -0.053 c 0,-1.599 -0.772,-3.013 -2.231,-3.99 C 6.223,-8.898 5.354,-9.143 4.332,-9.434 6.953,-9.871 8.662,-11.672 8.123,-14.543 7.338,-18.529 3.598,-19.158 0,-19.406 v 3.5 c 0.193,0 0.393,0.052 0.537,0.103 3.012,0.485 3.69,3.987 0.828,4.617 -0.445,0.1 -0.875,0.153 -1.365,0.1 v 3.115 c 0.584,0 1.217,0.049 1.748,0.141 1.609,0.391 3.744,2.043 1.992,3.894 C 3.01,-3.164 1.264,-3.258 0,-3.354 Z M -4.863,0 H 0 v -3.354 h -0.439 l -1.024,-4.568 c 0.44,0 0.981,-0.049 1.463,-0.049 v -3.115 c -0.682,0 -1.412,-0.1 -2.092,-0.15 l -1.021,-4.86 c 0.871,0.049 2.045,0.049 3.113,0.19 v -3.5 c -0.295,-0.049 -0.625,-0.049 -0.93,-0.098 h -7.875" /></g></g></svg>