<svg xmlns="http://www.w3.org/2000/svg" xml:space="preserve" width="186.25" height="43.75"><defs><clipPath id="a"><path d="M0 811h613V0H0v811z"/></clipPath></defs><g clip-path="url(#a)" style="fill:#504" transform="matrix(1.25 0 0 -1.25 -519.147 978.314)"><g style="fill:#504"><path d="M0 0h2.882c1.86 0 3.237-.229 4.142-.689.901-.459 1.645-1.211 2.231-2.246.58-1.036.875-2.247.875-3.631 0-.983-.166-1.887-.493-2.715-.325-.824-.777-1.512-1.35-2.053-.578-.545-1.203-.921-1.87-1.128-.67-.206-1.833-.312-3.487-.312H0V0zm2.421-2.344v-8.059h1.126c1.109 0 1.915.126 2.416.383.504.252.91.683 1.23 1.286.321.603.479 1.344.479 2.222 0 1.358-.379 2.41-1.139 3.158-.681.672-1.78 1.01-3.291 1.01h-.821z" style="fill:#504;fill-opacity:1;fill-rule:nonzero;stroke:none" transform="translate(419.216 771.887)"/></g><g style="fill:#504"><path d="M0 0h2.371v-9.449H0v.999c-.464-.443-.928-.756-1.39-.951a3.894 3.894 0 0 0-1.517-.29c-1.221 0-2.273.472-3.165 1.418-.888.947-1.337 2.124-1.337 3.53 0 1.457.436 2.654 1.292 3.586C-5.254-.225-4.21.241-2.975.241c.566 0 1.099-.105 1.595-.322.496-.215.955-.53 1.38-.962V0zm-2.493-1.946c-.732 0-1.337-.26-1.823-.78-.484-.515-.732-1.179-.732-1.992 0-.817.248-1.484.741-2.013a2.398 2.398 0 0 1 1.827-.793c.744 0 1.359.259 1.844.776.499.52.744 1.203.744 2.042 0 .82-.245 1.484-.744 1.996-.485.508-1.1.764-1.857.764" style="fill:#504;fill-opacity:1;fill-rule:nonzero;stroke:none" transform="translate(448.728 768.561)"/></g><g style="fill:#504"><path d="M0 0h2.374v-.969c.538.454 1.024.767 1.459.946.438.176.883.264 1.342.264.934 0 1.731-.326 2.386-.979.548-.556.823-1.379.823-2.466v-6.245H6.04v4.137c0 1.127-.055 1.875-.153 2.245-.102.371-.279.655-.529.848a1.498 1.498 0 0 1-.93.292c-.482 0-.891-.163-1.236-.482-.341-.323-.582-.765-.716-1.332-.07-.296-.102-.936-.102-1.918v-3.79H0V0z" style="fill:#504;fill-opacity:1;fill-rule:nonzero;stroke:none" transform="translate(453.334 768.561)"/></g><g style="fill:#504"><path d="M0 0h2.371v-9.449H0v.999c-.461-.443-.928-.756-1.389-.951a3.887 3.887 0 0 0-1.515-.29c-1.221 0-2.276.472-3.168 1.418-.891.947-1.337 2.124-1.337 3.53 0 1.457.434 2.654 1.292 3.586.866.932 1.91 1.398 3.145 1.398.561 0 1.097-.105 1.593-.322A4.37 4.37 0 0 0 0-1.043V0zm-2.49-1.946c-.735 0-1.342-.26-1.831-.78-.482-.515-.724-1.179-.724-1.992 0-.817.248-1.484.741-2.013a2.393 2.393 0 0 1 1.821-.793c.742 0 1.362.259 1.853.776.486.52.734 1.203.734 2.042 0 .82-.248 1.484-.734 1.996-.491.508-1.111.764-1.86.764" style="fill:#504;fill-opacity:1;fill-rule:nonzero;stroke:none" transform="translate(474.927 768.561)"/></g><g style="fill:#504"><path d="M0 0h2.371v-1.088c.407.446.854.781 1.35 1.001a4.012 4.012 0 0 0 1.622.328c.59 0 1.126-.144 1.597-.435.479-.285.864-.707 1.151-1.266.372.559.836.981 1.385 1.266a3.752 3.752 0 0 0 1.793.435c.671 0 1.267-.156 1.776-.47a2.75 2.75 0 0 0 1.096-1.219c.223-.508.333-1.325.333-2.46v-5.541H12.09v4.792c0 1.072-.134 1.799-.404 2.176-.266.378-.661.568-1.197.568-.404 0-.771-.117-1.089-.346a2.079 2.079 0 0 1-.718-.959c-.155-.41-.234-1.064-.234-1.968v-4.263H6.06v4.577c0 .845-.057 1.457-.184 1.834-.129.383-.314.663-.563.847-.25.186-.548.278-.906.278-.391 0-.754-.117-1.071-.351-.327-.233-.567-.563-.727-.985-.159-.424-.238-1.088-.238-1.998v-4.202H0V0z" style="fill:#504;fill-opacity:1;fill-rule:nonzero;stroke:none" transform="translate(489.318 768.561)"/></g><g style="fill:#504"><path d="M0 0c.409 0 .769-.151 1.066-.452.298-.3.447-.666.447-1.096 0-.42-.149-.783-.442-1.082a1.449 1.449 0 0 0-1.058-.449c-.42 0-.777.156-1.075.459a1.532 1.532 0 0 0-.446 1.107c0 .418.144.772.439 1.069C-.774-.15-.419 0 0 0" style="fill:#504;fill-opacity:1;fill-rule:nonzero;stroke:none" transform="translate(506.82 772.452)"/></g><path d="M505.632 768.562h2.374v-9.449h-2.374v9.449z" style="fill:#504;fill-opacity:1;fill-rule:nonzero;stroke:none"/><g style="fill:#504"><path d="M0 0h-2.617c.014-.154.05-.294.106-.412a.933.933 0 0 1 .237-.317c.098-.091.212-.169.341-.228.137-.055.279-.082.437-.082.228 0 .436.06.62.184a1 1 0 0 1 .404.494h.393a1.52 1.52 0 0 0-.234-.435 1.568 1.568 0 0 0-.536-.427 1.478 1.478 0 0 0-.662-.148c-.414 0-.759.144-1.052.432a1.418 1.418 0 0 0-.428 1.05c0 .276.064.532.2.772.132.238.317.424.559.56.238.137.483.203.741.203.253 0 .496-.066.737-.203.233-.136.424-.324.558-.564C-.063.638.002.387.002.124L0 0m-.372.332c-.03.147-.069.272-.124.377a.997.997 0 0 1-.219.288 1.309 1.309 0 0 1-.342.229c-.136.057-.28.088-.436.088-.154 0-.295-.027-.43-.084a1.32 1.32 0 0 1-.34-.215 1.11 1.11 0 0 1-.227-.3 1.46 1.46 0 0 1-.127-.383h2.245z" style="fill:#504;fill-opacity:1;fill-rule:nonzero;stroke:none" transform="translate(513.205 753.238)"/></g><g style="fill:#504"><path d="M0 0h.367a.834.834 0 0 1 .055-.291.441.441 0 0 1 .179-.223.535.535 0 0 1 .293-.074c.161 0 .292.043.386.137a.477.477 0 0 1 .139.365c0 .131-.04.24-.114.329-.07.089-.231.176-.466.258a2.054 2.054 0 0 0-.407.177.877.877 0 0 0-.261.261.689.689 0 0 0-.087.356c0 .23.077.422.231.574a.793.793 0 0 0 .579.229.8.8 0 0 0 .718-.425.858.858 0 0 0 .075-.359h-.368a.538.538 0 0 1-.14.336.4.4 0 0 1-.291.116.427.427 0 0 1-.313-.125.425.425 0 0 1-.121-.303l.06-.212.171-.151C.744.942.833.906.947.863c.209-.072.366-.136.452-.197a.83.83 0 0 0 .292-.291.901.901 0 0 0 .092-.435.893.893 0 0 0-.106-.441.695.695 0 0 0-.313-.312.97.97 0 0 0-.459-.11.9.9 0 0 0-.419.092.822.822 0 0 0-.288.221.745.745 0 0 0-.151.268A1.157 1.157 0 0 0 0 0" style="fill:#504;fill-opacity:1;fill-rule:nonzero;stroke:none" transform="translate(513.527 752.787)"/></g><g style="fill:#504"><path d="M0 0v2.543h-.605v.33H0v1.018h.367V2.873h.692v-.33H.367V0H0z" style="fill:#504;fill-opacity:1;fill-rule:nonzero;stroke:none" transform="translate(516.095 751.936)"/></g><g style="fill:#504"><path d="M0 0v-2.873h-.371v.507h-.008a1.619 1.619 0 0 0-.219-.256 1.4 1.4 0 0 0-.927-.322c-.297 0-.558.069-.793.201-.229.135-.41.322-.534.56A1.53 1.53 0 0 0-2.845-.68c.137.239.321.424.564.557a1.576 1.576 0 0 0 1.279.115 1.22 1.22 0 0 0 .623-.493h.008V0H0zm-2.674-1.443c0-.206.045-.405.147-.583a1.02 1.02 0 0 1 .42-.431 1.2 1.2 0 0 1 .592-.152c.205 0 .407.048.59.151.179.102.322.243.427.427.104.183.151.382.151.589a1.2 1.2 0 0 1-.151.598c-.105.188-.25.332-.427.432-.18.105-.374.156-.58.156a1.158 1.158 0 0 1-.61-.166 1.062 1.062 0 0 1-.268-.217 1.003 1.003 0 0 1-.211-.351 1.267 1.267 0 0 1-.08-.453" style="fill:#504;fill-opacity:1;fill-rule:nonzero;stroke:none" transform="translate(520.194 754.809)"/></g><g style="fill:#504"><path d="M0 0v3.891h.367V2.372h.01c.079.105.156.187.23.251.07.065.159.123.256.173.102.05.208.087.313.113a1.54 1.54 0 0 0 .939-.078 1.523 1.523 0 0 0 .777-.733A1.532 1.532 0 0 0 2.845.686 1.403 1.403 0 0 0 2.284.13 1.567 1.567 0 0 0 1.029.008C.885.058.754.127.64.221a1.53 1.53 0 0 0-.263.286h-.01V0H0zm.345 1.432c0-.203.05-.397.148-.582.1-.184.241-.329.424-.434.187-.101.383-.152.591-.152.211 0 .404.049.593.146.186.1.327.242.428.428.098.184.145.386.145.601 0 .219-.053.416-.152.603-.101.18-.246.323-.429.422a1.194 1.194 0 0 1-1.176-.003 1.091 1.091 0 0 1-.421-.439 1.222 1.222 0 0 1-.151-.59" style="fill:#504;fill-opacity:1;fill-rule:nonzero;stroke:none" transform="translate(520.852 751.936)"/></g><path d="M524.396 755.826h.367v-3.893h-.367v3.893zm1.028 0h.362v-.662h-.362v.662zm0-1.017h.362v-2.873h-.362v2.873z" style="fill:#504;fill-opacity:1;fill-rule:nonzero;stroke:none"/><g style="fill:#504"><path d="M0 0h.364c.01-.123.026-.223.055-.291a.457.457 0 0 1 .182-.223.516.516 0 0 1 .287-.074c.169 0 .295.043.386.137.1.092.142.215.142.365 0 .131-.034.24-.114.329-.07.089-.226.176-.469.258a1.99 1.99 0 0 0-.399.177.789.789 0 0 0-.26.261.643.643 0 0 0-.087.356c0 .23.071.422.226.574a.787.787 0 0 0 .575.229.788.788 0 0 0 .424-.114.703.703 0 0 0 .295-.311.99.99 0 0 0 .082-.359h-.37c-.017.149-.061.261-.141.336a.396.396 0 0 1-.295.116.42.42 0 0 1-.308-.125.41.41 0 0 1-.126-.303l.065-.212.173-.151A1.63 1.63 0 0 1 .95.863c.211-.072.36-.136.448-.197a.843.843 0 0 0 .291-.291.911.911 0 0 0 .099-.435.92.92 0 0 0-.111-.441.695.695 0 0 0-.313-.312.956.956 0 0 0-.457-.11.923.923 0 0 0-.426.092.878.878 0 0 0-.285.221.76.76 0 0 0-.151.268A1.07 1.07 0 0 0 0 0" style="fill:#504;fill-opacity:1;fill-rule:nonzero;stroke:none" transform="translate(526.232 752.787)"/></g><g style="fill:#504"><path d="M0 0v3.891h.362V2.51H.38c.097.135.219.244.364.321.145.078.325.118.546.118.191 0 .367-.037.522-.105.158-.068.297-.172.418-.306.078-.088.134-.196.189-.321.074-.199.111-.406.111-.637V0h-.369v1.58c0 .328-.085.584-.253.768a.858.858 0 0 1-.652.269.838.838 0 0 1-.414-.101.918.918 0 0 1-.296-.248.887.887 0 0 1-.126-.281 1.453 1.453 0 0 1-.058-.407V0H0z" style="fill:#504;fill-opacity:1;fill-rule:nonzero;stroke:none" transform="translate(528.444 751.936)"/></g><g style="fill:#504"><path d="M0 0h-2.619c.017-.154.047-.294.104-.412.057-.119.139-.227.236-.317.101-.091.216-.169.352-.228.129-.055.27-.082.424-.082.233 0 .441.06.628.184.184.121.319.285.401.494h.39a1.652 1.652 0 0 0-.23-.435 1.506 1.506 0 0 0-1.202-.575c-.409 0-.758.144-1.048.432a1.43 1.43 0 0 0-.432 1.05c0 .276.067.532.198.772.137.238.322.424.566.56a1.442 1.442 0 0 0 1.475 0A1.527 1.527 0 0 0 0 .124V0m-.372.332a1.39 1.39 0 0 1-.124.377c-.05.1-.126.195-.221.288a1.361 1.361 0 0 1-.342.229 1.147 1.147 0 0 1-.436.088 1.167 1.167 0 0 1-.767-.299.942.942 0 0 1-.228-.3 1.298 1.298 0 0 1-.129-.383h2.247z" style="fill:#504;fill-opacity:1;fill-rule:nonzero;stroke:none" transform="translate(534.383 753.238)"/></g><g style="fill:#504"><path d="M0 0v-3.893h-.362v.506h-.01a1.627 1.627 0 0 0-.229-.258 1.518 1.518 0 0 0-.407-.232 1.496 1.496 0 0 0-.501-.082c-.429 0-.791.145-1.084.436-.3.291-.446.64-.446 1.049 0 .279.062.537.201.773.134.24.317.427.561.56.24.133.493.2.768.2.259 0 .494-.059.705-.177a1.44 1.44 0 0 0 .432-.391h.01V0H0zm-.338-2.453c0 .19-.052.381-.146.57a1.085 1.085 0 0 1-.416.444 1.148 1.148 0 0 1-.609.166c-.211 0-.406-.051-.588-.154a1.115 1.115 0 0 1-.424-.427 1.254 1.254 0 0 1-.151-.605c0-.213.05-.414.151-.594.102-.182.244-.324.424-.423.184-.099.377-.153.591-.153.211 0 .409.054.588.156.186.104.325.246.427.432.101.186.153.377.153.588" style="fill:#504;fill-opacity:1;fill-rule:nonzero;stroke:none" transform="translate(537.821 755.826)"/></g><g style="fill:#504"><path d="M0 0v3.537h-.67v.354H.392V0H0z" style="fill:#504;fill-opacity:1;fill-rule:nonzero;stroke:none" transform="translate(540.118 751.936)"/></g><g style="fill:#504"><path d="M0 0h-.447l.903 1.32-.013.005a.845.845 0 0 0-.367-.085c-.18 0-.347.033-.506.1-.156.07-.298.159-.401.27a1.466 1.466 0 0 0-.263.372c-.09.192-.135.395-.135.606 0 .243.06.473.174.689.117.216.276.382.482.5.206.118.431.175.677.175.255 0 .481-.061.687-.181a1.21 1.21 0 0 0 .479-.505 1.54 1.54 0 0 0 .164-.676c0-.171-.033-.334-.087-.492-.06-.155-.187-.375-.385-.668L0 0zm1.039 2.609c0 .157-.035.317-.109.475a.906.906 0 0 1-.826.518.897.897 0 0 1-.471-.129.862.862 0 0 1-.348-.364 1.16 1.16 0 0 1 0-1.026.936.936 0 0 1 .817-.492c.14 0 .267.03.381.085.115.056.213.131.298.217a1.049 1.049 0 0 1 .258.716" style="fill:#504;fill-opacity:1;fill-rule:nonzero;stroke:none" transform="translate(542.378 751.936)"/></g><g style="fill:#504"><path d="M0 0v.354l1.362 1.311c.213.206.367.364.464.473.092.114.161.216.205.323a.815.815 0 0 1 .068.32.848.848 0 0 1-.41.712.814.814 0 0 1-.423.114.818.818 0 0 1-.546-.192l-.166-.194a1.146 1.146 0 0 1-.1-.255 1.97 1.97 0 0 1-.04-.333H.027c.005.193.023.344.058.453.042.169.121.318.228.445.111.131.246.235.414.312.171.077.352.114.55.114.385 0 .701-.142.938-.436.183-.226.278-.48.278-.759 0-.115-.017-.219-.047-.313a1.09 1.09 0 0 0-.107-.254l-.149-.201a5.398 5.398 0 0 0-.417-.451L.526.354h1.94V0H0z" style="fill:#504;fill-opacity:1;fill-rule:nonzero;stroke:none" transform="translate(544.153 751.936)"/></g><g style="fill:#504"><path d="m0 0 1.605 3.537H-.242v.354h2.249v-.354L.412 0H0z" style="fill:#504;fill-opacity:1;fill-rule:nonzero;stroke:none" transform="translate(547.296 751.936)"/></g><g style="fill:#504"><path d="M0 0c.734 0 1.3.086 1.677.296.969.558 1.148 1.288 1.158 2.148.003 1.052-.588 1.807-1.158 2.058-.318.182-.722.326-1.796.345h-1.925V0H0zm.385-6.41c.639 0 1.25.084 1.714.252.88.392 1.5 1.095 1.525 2.41-.003 1.178-.605 2.066-1.561 2.495C1.416-.98 1.039-.967 0-.967h-2.044V-6.41H.385zM-.119 5.814c1.103.002 1.81-.179 2.348-.493 1.276-.675 1.63-1.956 1.623-2.949.009-.315-.007-1.829-1.414-2.731 2.019-.853 2.212-2.803 2.208-3.392-.013-1.645-.854-2.762-2.181-3.323-.582-.199-1.277-.301-2.103-.301h-3.424V5.814h2.943" style="fill:#504;fill-opacity:1;fill-rule:nonzero;stroke:none" transform="translate(513.384 766.484)"/></g><g style="fill:#504"><path d="M0 0c.032-1.955 1.322-4.068 4.103-4.072 2.364.004 3.993 1.844 4.001 4.067-.008 2.359-1.747 4.068-4.053 4.073C1.813 4.063.005 2.418 0 0m4.051-5.021c-1.558 0-2.828.609-3.692 1.543A5.112 5.112 0 0 0-.984-.005c0 1.318.486 2.572 1.361 3.497.876.928 2.144 1.525 3.674 1.525 1.825-.003 3.247-.884 4.003-1.894v1.67h.982v-9.588h-.982v1.685c-.896-1.199-2.302-1.911-3.989-1.911h-.014z" style="fill:#504;fill-opacity:1;fill-rule:nonzero;stroke:none" transform="translate(519.944 763.904)"/></g><g style="fill:#504"><path d="M0 0v5.051C0 6.586-.412 7.51-1.029 8.069c-.638.576-1.516.794-2.402.794-2.185-.057-3.416-1.218-3.435-3.384V0h-.985v9.588h.985V8.409c.784.938 2.118 1.4 3.326 1.404l.106-.001c1.206 0 2.231-.322 3.012-.966C.54 8.023.987 6.717.984 5.051V0H0z" style="fill:#504;fill-opacity:1;fill-rule:nonzero;stroke:none" transform="translate(539.002 759.11)"/></g><g style="fill:#504"><path d="M0 0c2.192.148 2.314-1.326 2.314-1.496v-3.108c.461.402.967.7 1.436.898.472.201.948.303 1.427.303.934 0 1.728-.327 2.371-.975.548-.563.821-1.387.821-2.474v-6.245H6.035v4.142c0 1.094-.053 1.838-.154 2.223-.104.39-.282.675-.538.869-.251.19-.558.289-.933.289-.478 0-.892-.162-1.235-.483-.347-.316-.585-.75-.717-1.298-.069-.288-.106-.934-.106-1.95v-3.792H0V0" style="fill:#504;fill-opacity:1;fill-rule:nonzero;stroke:none" transform="translate(431.251 772.209)"/></g><g style="fill:#504"><path d="m0 0-3.626 5.003 3.207 4.446s-2.339.394-3.244-.803c-.72-.907-1.32-1.773-1.32-1.773l-1.868 2.576h-2.751l3.248-4.479L-10.011 0s2.357-.399 3.27.805c.555.703.409.499 1.748 2.286L-2.751 0H0z" style="fill:#504;fill-opacity:1;fill-rule:nonzero;stroke:none" transform="translate(488.286 759.112)"/></g><g style="fill:#504"><path d="M0 0c0 .172-.119 1.674-2.349 1.521v-13.098H.008L0 0z" style="fill:#504;fill-opacity:1;fill-rule:nonzero;stroke:none" transform="translate(465.938 770.69)"/></g><g style="fill:#504"><path d="m0 0 3.549 4.688H2.281l-4.61-6.139v9.104c0 .074-.055.7-.985.637V-4.899h.985v1.827L-.623-.796l3.197-4.103h1.278L0 0z" style="fill:#504;fill-opacity:1;fill-rule:nonzero;stroke:none" transform="translate(545.451 764.009)"/></g><g style="fill:#504"><path d="m0 0 .052-.102.027-.064C.984-2.029.377-3.527.064-4.493l-.012-.099a9.92 9.92 0 0 1-.311-2.179c.011-1.516.343-2.913.707-3.989l-.032-.05.025-.064.007-.021a3.247 3.247 0 0 1-.404-1.125l-.029-.275-1.427 3.14-.029-.024.002.024-1.416-3.232-.035.367a3.056 3.056 0 0 1-.407 1.125l.01.021c.602 1.518.945 3.536.518 5.721C-2.2-4.479-1.01-2.122 0 0" style="fill:#504;fill-opacity:1;fill-rule:nonzero;stroke:none" transform="translate(559.719 769.766)"/></g><g style="fill:#504"><path d="M0 0s-.02 0-.126-.165c-.109-.166-.303-.084-.303-.084.102.035.094.074.186.178C-.151.036 0 0 0 0m.191.757L.36.411S.512.061.191.061c-.315 0-.178.34-.178.34l.178.356zm0-1.168-.159.189s-.134.199.159.199c.279 0 .154-.191.154-.191L.191-.411zM.799.771C.7.708.77.367.657.22.578.122.417.108.417.108c.097.163.018.211.042.409.055.271.34.254.34.254m-1.236 0s.296.017.345-.254C-.066.319-.141.271-.044.108c0 0-.169.014-.246.112-.114.147-.039.488-.147.551M.378 0s.158.036.248-.071c.089-.104.081-.143.186-.178 0 0-.204-.082-.3.084C.397 0 .378 0 .378 0" style="fill:#504;fill-opacity:1;fill-rule:nonzero;stroke:none" transform="translate(562.404 776.013)"/></g><g style="fill:#504"><path d="m0 0-1.183-2.696S-2.076-5.291 0-5.291c2.123 0 1.139 2.646 1.139 2.646L0 0z" style="fill:#504;fill-opacity:1;fill-rule:nonzero;stroke:none" transform="translate(558.287 759.517)"/></g><g style="fill:#504"><path d="m0 0 1.071 1.522S1.885 2.99 0 2.99c-1.935 0-1.032-1.498-1.032-1.498L0 0z" style="fill:#504;fill-opacity:1;fill-rule:nonzero;stroke:none" transform="translate(558.277 750.838)"/></g><g style="fill:#504"><path d="M0 0s-1.93.102-2.275-1.947c-.168-1.503.345-1.878-.297-3.163 0 0 1.101.134 1.612.871C-.174-3.113-.657-.501 0 0" style="fill:#504;fill-opacity:1;fill-rule:nonzero;stroke:none" transform="translate(562.36 759.636)"/></g><g style="fill:#504"><path d="M0 0s1.922.102 2.267-1.947c.171-1.503-.345-1.878.295-3.163 0 0-1.094.134-1.6.871C.168-3.113.652-.501 0 0" style="fill:#504;fill-opacity:1;fill-rule:nonzero;stroke:none" transform="translate(554.17 759.636)"/></g><g style="fill:#504"><path d="M0 0s1.015.25 1.63-.547c.613-.789.56-1.083 1.227-1.378 0 0-1.277-.595-1.994.662C.145 0 0 0 0 0" style="fill:#504;fill-opacity:1;fill-rule:nonzero;stroke:none" transform="translate(559.547 754)"/></g><g style="fill:#504"><path d="M0 0s-1.007.25-1.627-.547c-.618-.789-.568-1.083-1.235-1.378 0 0 1.287-.595 2.002.662C-.142 0 0 0 0 0" style="fill:#504;fill-opacity:1;fill-rule:nonzero;stroke:none" transform="translate(557.052 754)"/></g><g style="fill:#504"><path d="M0 0c.697-.18.762-.847.77-.969-.224.127-.546.207-.901.207-.377 0-.707-.051-.931-.186l-.069-.04c.1.789.784 1.008.784 1.008v.669c.201.196.347 0 .347 0V0z" style="fill:#504;fill-opacity:1;fill-rule:nonzero;stroke:none" transform="translate(558.716 778.188)"/></g><g style="fill:#504"><path d="M0 0s.705.107.863-.463c.172-.576.035-.601.524-1.174.494-.574.248-.959.109-.929-.137.025-.518.49-.704.378C.605-2.293.404-2.705 0-2.676c-.409.027-.689.576-.875.524-.193-.059-.538-.366-.601-.389-.104-.04-.545.141-.193.711.357.577.432.139.759.928.335.794.42.876.91.902" style="fill:#504;fill-opacity:1;fill-rule:nonzero;stroke:none" transform="translate(558.468 777.082)"/></g><g style="fill:#504"><path d="M0 0s-.018 0-.124-.165C-.233-.331-.43-.249-.43-.249c.102.035.09.074.189.178C-.151.036 0 0 0 0m.186.757.17-.346s.15-.35-.17-.35c-.31 0-.176.34-.176.34l.176.356zm0-1.168-.154.189s-.136.199.154.199c.28 0 .159-.191.159-.191L.186-.411zM.799.771C.699.708.771.367.654.22.577.122.411.108.411.108c.102.163.023.211.045.409.057.271.343.254.343.254m-1.238 0s.294.017.347-.254C-.064.319-.145.271-.045.108c0 0-.166.014-.246.112-.113.147-.047.488-.148.551M.377 0S.53.036.625-.071c.092-.104.079-.143.184-.178 0 0-.197-.082-.303.084C.396 0 .377 0 .377 0" style="fill:#504;fill-opacity:1;fill-rule:nonzero;stroke:none" transform="translate(553.825 776.013)"/></g><g style="fill:#504"><path d="m0 0-.002.034C-.319 1-.93 2.498-.022 4.361L0 4.426c.092.178.182.365.271.59.124.315-.097.72-.253.974l2.763 2.678 1.297-.459-.059-.17C3.208 6.218.928 1.209 0 0" style="fill:#504;fill-opacity:1;fill-rule:nonzero;stroke:none" transform="translate(556.818 765.238)"/></g><g style="fill:#504"><path d="M0 0c-.1.416-.571.697-.665.545 0 0-.224-.221-.154-.545.08-.318.176-.791.027-1.035-.131-.231-.838-.847-1.225-1.098l-.131-.072c-.174-.385-.402-.871-.656-1.414l.09-.276.04-.119.01-.035c.077.024.411.127.833.33l-.027.132c-.045.156-.047.228-.084.419l.054.03c.144.052.293.132.424.245.477.404 1.023 1.215 1.29 2.102.144.486.144.429.144.429 0 .017.064.197.03.362m-1.757-4.055a6.961 6.961 0 0 0-.818-.328l.114-.414c0-.162.018-.336.06-.514.198-.787.964-1.701 1.029-2.22.064-.521.174-1.188.35-1.336.176-.15.375.689.392.965.025.272.221-.098.287.121l.005.037c.045.22-.684.501-.905 1.53-.161.809-.427 1.816-.514 2.159" style="fill:#504;fill-opacity:1;fill-rule:nonzero;stroke:none" transform="translate(563.201 774.809)"/></g><g style="fill:#504"><path d="m0 0-.032-.158v-.005l-.049-.255-.075-.225c-.273-.441-1.156-1.799-1.439-1.836-.346-.05-.694.391-.694.391-.687.375-1.332-.176-1.453-.369-.124-.203.267-.203.709-.293.449-.104.845-.447 1.637-.127.65.268 1.423 1.042 1.8 1.514a.491.491 0 0 1 .145.217c.024.066.101.416.158.658l.03.156C.37-.186 0 0 0 0m3.329 3.295c-1.131.109-2.319-.191-2.743-.772C.494 2.406.38 1.988.28 1.55a5.263 5.263 0 0 0-.652.378c-.384.251-1.089.866-1.225 1.096-.151.244-.049.717.025 1.033.069.326-.149.543-.149.543-.09.156-.563-.125-.665-.543-.04-.162.03-.34.03-.36 0 0-.005.057.144-.429.271-.889.809-1.7 1.285-2.099C-.823 1.08-.496.874.1.66.072.504.053.385.04.32.206.214.799-.007.799-.007.854.306.945.816.96.925l.003.022 2.411 2.346-.045.002z" style="fill:#504;fill-opacity:1;fill-rule:nonzero;stroke:none" transform="translate(555.799 770.77)"/></g></g></svg>