<svg xmlns="http://www.w3.org/2000/svg" xml:space="preserve" width="13.978" height="35.157"><defs><clipPath id="a"><path d="M0 811h613V0H0Z"/></clipPath></defs><g clip-path="url(#a)" style="fill:#504" transform="matrix(1.25 0 0 -1.25 -690.042 973.705)"><g style="fill:#504"><path d="m0 0 .052-.102.027-.064C.984-2.029.377-3.527.064-4.493l-.012-.099a9.92 9.92 0 0 1-.311-2.179c.011-1.516.343-2.913.707-3.989l-.032-.05.025-.064.007-.021a3.247 3.247 0 0 1-.404-1.125l-.029-.275-1.427 3.14-.029-.024.002.024-1.416-3.232-.035.367a3.056 3.056 0 0 1-.407 1.125l.01.021c.602 1.518.945 3.536.518 5.721C-2.2-4.479-1.01-2.122 0 0" style="fill:#504;fill-opacity:1;fill-rule:nonzero;stroke:none" transform="translate(559.719 769.766)"/></g><g style="fill:#504"><path d="M0 0s-.02 0-.126-.165c-.109-.166-.303-.084-.303-.084.102.035.094.074.186.178C-.151.036 0 0 0 0m.191.757L.36.411S.512.061.191.061c-.315 0-.178.34-.178.34zm0-1.168-.159.189s-.134.199.159.199c.279 0 .154-.191.154-.191zM.799.771C.7.708.77.367.657.22.578.122.417.108.417.108c.097.163.018.211.042.409.055.271.34.254.34.254m-1.236 0s.296.017.345-.254C-.066.319-.141.271-.044.108c0 0-.169.014-.246.112-.114.147-.039.488-.147.551M.378 0s.158.036.248-.071c.089-.104.081-.143.186-.178 0 0-.204-.082-.3.084C.397 0 .378 0 .378 0" style="fill:#504;fill-opacity:1;fill-rule:nonzero;stroke:none" transform="translate(562.404 776.013)"/></g><g style="fill:#504"><path d="m0 0-1.183-2.696S-2.076-5.291 0-5.291c2.123 0 1.139 2.646 1.139 2.646z" style="fill:#504;fill-opacity:1;fill-rule:nonzero;stroke:none" transform="translate(558.287 759.517)"/></g><g style="fill:#504"><path d="m0 0 1.071 1.522S1.885 2.99 0 2.99c-1.935 0-1.032-1.498-1.032-1.498z" style="fill:#504;fill-opacity:1;fill-rule:nonzero;stroke:none" transform="translate(558.277 750.838)"/></g><g style="fill:#504"><path d="M0 0s-1.93.102-2.275-1.947c-.168-1.503.345-1.878-.297-3.163 0 0 1.101.134 1.612.871C-.174-3.113-.657-.501 0 0" style="fill:#504;fill-opacity:1;fill-rule:nonzero;stroke:none" transform="translate(562.36 759.636)"/></g><g style="fill:#504"><path d="M0 0s1.922.102 2.267-1.947c.171-1.503-.345-1.878.295-3.163 0 0-1.094.134-1.6.871C.168-3.113.652-.501 0 0" style="fill:#504;fill-opacity:1;fill-rule:nonzero;stroke:none" transform="translate(554.17 759.636)"/></g><g style="fill:#504"><path d="M0 0s1.015.25 1.63-.547c.613-.789.56-1.083 1.227-1.378 0 0-1.277-.595-1.994.662C.145 0 0 0 0 0" style="fill:#504;fill-opacity:1;fill-rule:nonzero;stroke:none" transform="translate(559.547 754)"/></g><g style="fill:#504"><path d="M0 0s-1.007.25-1.627-.547c-.618-.789-.568-1.083-1.235-1.378 0 0 1.287-.595 2.002.662C-.142 0 0 0 0 0" style="fill:#504;fill-opacity:1;fill-rule:nonzero;stroke:none" transform="translate(557.052 754)"/></g><g style="fill:#504"><path d="M0 0c.697-.18.762-.847.77-.969-.224.127-.546.207-.901.207-.377 0-.707-.051-.931-.186l-.069-.04c.1.789.784 1.008.784 1.008v.669c.201.196.347 0 .347 0z" style="fill:#504;fill-opacity:1;fill-rule:nonzero;stroke:none" transform="translate(558.716 778.188)"/></g><g style="fill:#504"><path d="M0 0s.705.107.863-.463c.172-.576.035-.601.524-1.174.494-.574.248-.959.109-.929-.137.025-.518.49-.704.378C.605-2.293.404-2.705 0-2.676c-.409.027-.689.576-.875.524-.193-.059-.538-.366-.601-.389-.104-.04-.545.141-.193.711.357.577.432.139.759.928.335.794.42.876.91.902" style="fill:#504;fill-opacity:1;fill-rule:nonzero;stroke:none" transform="translate(558.468 777.082)"/></g><g style="fill:#504"><path d="M0 0s-.018 0-.124-.165C-.233-.331-.43-.249-.43-.249c.102.035.09.074.189.178C-.151.036 0 0 0 0m.186.757.17-.346s.15-.35-.17-.35c-.31 0-.176.34-.176.34zm0-1.168-.154.189s-.136.199.154.199c.28 0 .159-.191.159-.191zM.799.771C.699.708.771.367.654.22.577.122.411.108.411.108c.102.163.023.211.045.409.057.271.343.254.343.254m-1.238 0s.294.017.347-.254C-.064.319-.145.271-.045.108c0 0-.166.014-.246.112-.113.147-.047.488-.148.551M.377 0S.53.036.625-.071c.092-.104.079-.143.184-.178 0 0-.197-.082-.303.084C.396 0 .377 0 .377 0" style="fill:#504;fill-opacity:1;fill-rule:nonzero;stroke:none" transform="translate(553.825 776.013)"/></g><g style="fill:#504"><path d="m0 0-.002.034C-.319 1-.93 2.498-.022 4.361L0 4.426c.092.178.182.365.271.59.124.315-.097.72-.253.974l2.763 2.678 1.297-.459-.059-.17C3.208 6.218.928 1.209 0 0" style="fill:#504;fill-opacity:1;fill-rule:nonzero;stroke:none" transform="translate(556.818 765.238)"/></g><g style="fill:#504"><path d="M0 0c-.1.416-.571.697-.665.545 0 0-.224-.221-.154-.545.08-.318.176-.791.027-1.035-.131-.231-.838-.847-1.225-1.098l-.131-.072c-.174-.385-.402-.871-.656-1.414l.09-.276.04-.119.01-.035c.077.024.411.127.833.33l-.027.132c-.045.156-.047.228-.084.419l.054.03c.144.052.293.132.424.245.477.404 1.023 1.215 1.29 2.102.144.486.144.429.144.429 0 .017.064.197.03.362m-1.757-4.055a6.961 6.961 0 0 0-.818-.328l.114-.414c0-.162.018-.336.06-.514.198-.787.964-1.701 1.029-2.22.064-.521.174-1.188.35-1.336.176-.15.375.689.392.965.025.272.221-.098.287.121l.005.037c.045.22-.684.501-.905 1.53-.161.809-.427 1.816-.514 2.159" style="fill:#504;fill-opacity:1;fill-rule:nonzero;stroke:none" transform="translate(563.201 774.809)"/></g><g style="fill:#504"><path d="m0 0-.032-.158v-.005l-.049-.255-.075-.225c-.273-.441-1.156-1.799-1.439-1.836-.346-.05-.694.391-.694.391-.687.375-1.332-.176-1.453-.369-.124-.203.267-.203.709-.293.449-.104.845-.447 1.637-.127.65.268 1.423 1.042 1.8 1.514a.491.491 0 0 1 .145.217c.024.066.101.416.158.658l.03.156C.37-.186 0 0 0 0m3.329 3.295c-1.131.109-2.319-.191-2.743-.772C.494 2.406.38 1.988.28 1.55a5.263 5.263 0 0 0-.652.378c-.384.251-1.089.866-1.225 1.096-.151.244-.049.717.025 1.033.069.326-.149.543-.149.543-.09.156-.563-.125-.665-.543-.04-.162.03-.34.03-.36 0 0-.005.057.144-.429.271-.889.809-1.7 1.285-2.099C-.823 1.08-.496.874.1.66.072.504.053.385.04.32.206.214.799-.007.799-.007.854.306.945.816.96.925l.003.022 2.411 2.346z" style="fill:#504;fill-opacity:1;fill-rule:nonzero;stroke:none" transform="translate(555.799 770.77)"/></g></g></svg>