<svg xmlns="http://www.w3.org/2000/svg" width="55.544" height="55.95"><defs><clipPath id="a"><path d="M0 0h594v774H0Z"/></clipPath></defs><g clip-path="url(#a)" transform="matrix(1.24079 0 0 -1.25 -255.002 121.897)"><path d="m0 0-8.854 8.621-2.125-.017h-3.535v1.028l3.535.026 2.17.029L.687.094zm-2.895-.055-5.959 5.746h-2.125l-3.527-.017-.002 1.034 3.529.031 2.172.024L-2.209.045zm-8.084-12.688-3.267-3.222-.106.684 3.373 3.443 5.268 5.398v5.66h1.019l.051-5.711zm0 3.876 2.336 2.427v5.66h1.022l.052-5.711-3.41-3.337-3.32-3.244-.094.678zm-7.359 6.676-1.877 1.967 1.877 1.838 3.855 3.762 3.504-3.679 2.022-2.123-2.022-1.982-3.715-3.62zm0-8.4-2.174-.016-9.49 9.584.681.1 8.854-8.617h2.129l3.527.007v-1.022zm-8.1 9.715 5.967-5.734 2.133.002 3.527.007V-7.63l-3.527-.037-2.186-.026-6.593 6.722zm11.504 12.341-3.404-3.525-2.34-2.417V-.135h-1.025l-.045 5.698 3.41 3.341 3.316 3.25zm-3.404.357 3.269 3.216.094-.679-3.363-3.447-5.268-5.389V-.135h-1.027l-.043 5.698zm9.721-.388v6.224l-6.297-.02-3.424-3.591-8.01-8.431h-6.017V-.493l11.63-12.023v-5.91h5.922l3.834 3.833 7.885 7.892h5.815V0Z" style="fill:#ce0f3e;fill-opacity:1;fill-rule:evenodd;stroke:none" transform="translate(242.717 75.432)"/><path d="M-378.159 109.025h124.188V64.423h-124.188z" style="fill:#fff;fill-opacity:1;fill-rule:evenodd;stroke:none"/><path d="M-376.518 76.254h30.591v30.592h-30.591z" style="fill:#176fc1;fill-opacity:1;fill-rule:evenodd;stroke:none"/><path d="M-376.518 75.493h120.906v-8.891h-120.906z" style="fill:#ce0f3e;fill-opacity:1;fill-rule:evenodd;stroke:none"/><path d="M-345.139 76.254h89.527v30.531h-89.527z" style="fill:#176fc1;fill-opacity:1;fill-rule:evenodd;stroke:none"/><path d="m0 0-.008-.094-.019-.098-.014-.091-.033-.093-.025-.09-.039-.088-.052-.078-.046-.083-.058-.072-.065-.071-.063-.058-.079-.055L-.537-1l-.041-.024-.04-.015-.036-.02-.049-.008-.04-.022-.046-.004-.046-.012-.011-.003-.078-.012-.102-.002h-.045l-.092.007-.039.01-.04.012-.037.004-.041.015-.036.015-.035.02-.033.015-.031.024-.027.029-.032.025-.024.03-.017.031-.029.027-.038.069-.032.074-.025.083-.015.078-.002.085v.088l.002.094.015.095.023.097.019.095.04.084.042.08.041.084.053.083.06.063.064.073.069.071.073.054.039.021.039.029.04.019.039.022.042.013.046.017.041.016.048.01h.015l.076.013.099.002h.093l.045-.007.041-.003.044-.011.033-.012.04-.02.036-.014.036-.014.035-.028.032-.018.024-.029.03-.03.025-.023.024-.039.019-.031.04-.066.033-.076.014-.08.019-.084L0 .084Zm.327 1.899-.076-.411-.035.057-.043.061-.037.045-.046.055-.049.039-.049.048-.055.035-.064.035-.063.03-.06.034-.06.021-.065.026-.06.018-.066.012-.07.012-.07.009-.03.003h-.206l-.097-.006-.103-.018-.092-.012-.099-.025-.088-.029-.099-.036-.09-.039-.092-.038-.079-.047-.09-.064-.082-.054-.087-.064-.08-.07-.084-.078-.072-.078-.087-.081-.064-.086-.073-.091-.064-.089-.063-.091-.062-.093-.056-.092-.047-.094-.049-.103-.041-.095-.043-.101-.045-.106-.021-.103-.033-.113-.033-.104-.018-.115-.019-.102-.015-.113-.009-.107-.009-.106v-.1l.009-.104.001-.097.017-.096.015-.103.023-.093.018-.088.034-.096.039-.093.031-.081.043-.086.049-.084.047-.082.056-.072.056-.069.062-.067.063-.057.064-.059.073-.044.071-.048.08-.035.078-.035.08-.026.085-.028.089-.013.102-.012.093-.007.1-.011h.057l.028.011.029.001.069.006.081.012.072.013.067.019.077.018.076.022.078.037.07.034.034.015.039.023.071.044.065.045.063.053.063.051.059.06.064.072.044.068h.019l-.089-.463H.845l.775 4.159Zm-3.32 1.205.04.073.036.072.033.077.024.084.019.081.009.082.004.079v.082l-.005.073-.019.07-.023.072-.031.065-.039.059-.047.06-.043.047-.055.046-.052.029-.063.036-.063.017-.066.013-.075.004h-.069l-.077-.014-.071-.018-.069-.026-.068-.039-.07-.04-.068-.05-.064-.056-.065-.065-.051-.059-.054-.079-.032-.07-.045-.075-.029-.079-.031-.078-.013-.086-.01-.081-.008-.084v-.077l.014-.072.011-.073.025-.067.03-.066.041-.066.045-.057.043-.049.059-.044.052-.031.064-.032.064-.017.061-.006.082-.002.075.002.066.006.07.017.069.032.068.031.073.044.065.049.061.057.067.066.054.066zM-5.274-2.26l.768 4.159h1.298l-.775-4.159ZM-6.925 0l-.009-.094-.01-.098-.024-.091-.03-.093-.029-.09-.039-.088-.048-.078-.054-.083-.051-.072-.065-.071-.075-.058-.068-.055L-7.47-1l-.031-.024-.043-.015-.044-.02-.038-.008-.046-.022-.038-.004-.048-.012-.018-.003-.077-.012-.099-.002H-8l-.04.002-.041.005-.052.01-.043.012-.037.004-.039.015-.032.015-.036.02-.033.015-.032.024-.022.029-.031.025-.027.03-.022.031-.02.027-.041.069-.034.074-.024.083-.017.078-.01.085v.088l.01.094.017.095.024.097.02.095.042.084.038.08.044.084.049.083.059.063.065.073.068.071.082.054.034.021.041.029.035.019.041.022.043.013.043.017.047.016.039.01h.016l.079.013.098.002h.095l.046-.007.041-.003.041-.011.043-.012.037-.02.035-.014.033-.014.032-.028.028-.018.032-.029.022-.03.03-.023.023-.039.017-.031.042-.066.032-.076.019-.08.012-.084.014-.085V0Zm.801 4.472-.554-2.984-.033.057-.039.061-.038.045-.051.055-.1.087-.054.035-.06.035-.061.03-.057.034-.066.021-.062.026-.07.018-.129.024-.065.009-.033.003h-.206l-.099-.006-.104-.018-.092-.012-.1-.025-.093-.029-.089-.036-.089-.039-.094-.038-.083-.047-.089-.064-.087-.054-.076-.064-.089-.07-.079-.078-.078-.078-.076-.081-.079-.086-.061-.091-.072-.089-.06-.091-.059-.093-.055-.092-.05-.094-.051-.103-.046-.095-.036-.101-.041-.106-.031-.103-.032-.113-.026-.104-.019-.115-.02-.102-.016-.113-.01-.107-.004-.106v-.1l.004-.104.009-.097.008-.096.021-.103.02-.093.024-.088.031-.096.03-.093.035-.081.041-.086.054-.084.052-.082.053-.072.055-.069.059-.067.067-.057.065-.059.068-.044.075-.048.075-.035.079-.035.088-.026.086-.028.09-.013.09-.012.099-.007.094-.011h.062l.024.011.029.001.078.006.07.012.074.013.076.019.074.018.073.022.071.037.082.034.026.015.047.023.065.044.068.045.059.053.065.051.056.06.057.072.06.068h.015l-.088-.463h1.296l1.245 6.732zm-4.321-3.393.007-.077.006-.077V.754l-.006-.081-.016-.184-.011-.095-.02-.093-.474-2.561h-1.289l.371 2.031v.02l.011.017.001.026.004.023.009.036.008.039.005.038.011.044.008.042v.033l.012.085.01.063v.179l-.01.054-.012.061-.012.055-.018.055-.011.024-.005.03-.017.018-.018.02-.017.021-.022.022-.023.007-.028.016-.053.028-.062.012-.07.011h-.128l-.09-.007-.049-.008-.036-.008-.041-.015-.039-.013-.036-.02-.037-.012-.031-.023-.035-.023-.035-.026-.025-.03-.031-.032-.027-.03-.025-.036-.044-.073-.043-.078-.04-.077-.037-.086-.033-.084-.031-.085-.017-.099-.016-.092-.402-2.153H-14.8l.771 4.159h1.296l-.105-.529h.015l.077.09.08.075.071.081.075.064.075.062.077.055.073.05.082.04.074.032.081.029.082.026.084.019.09.016.082.013.093.006h.184l.085-.003.087-.009.076-.012.07-.018.074-.024.063-.024.068-.021.049-.039.057-.031.05-.044.091-.089.041-.052.031-.054.028-.055.032-.062.024-.06.019-.068.021-.066.014-.069.012-.074zm-5.483 2.774-1.143-6.113h1.394l1.134 6.113zm-2.915.618-.065.025-.061.015-.071.016-.063.013-.072.005h-.164l-.099-.014-.088-.01-.09-.014-.091-.035-.086-.022-.096-.032-.093-.041-.09-.047-.084-.049-.085-.055-.085-.056-.08-.066-.079-.066-.081-.078-.074-.081-.036-.032-.034-.038-.026-.039-.031-.03-.024-.037-.029-.036-.03-.039-.023-.03-.045-.072-.04-.065-.042-.066-.03-.073-.037-.072-.02-.068-.027-.065-.025-.072-.039-.143-.035-.15-.035-.159-.03-.164-.099-.53h-.454l-.224-1.216h.451l-.551-2.943h1.297l.547 2.943h.899l.227 1.216h-.897l.121.666.016.088.016.076.021.079.027.07.026.057.031.061.031.055.026.045.037.043.033.028.045.033.045.017.052.025.047.008.058.013.065.003h.037l.048-.003.039-.014.039-.007.037-.007.034-.018.04-.014.037-.021.029-.013.03-.008.031-.018.026-.004.234 1.263-.059.028zM-23.81 0l-.011-.094-.014-.098-.024-.091-.02-.093-.039-.09-.04-.088-.045-.078-.052-.083-.116-.143-.071-.058-.078-.055-.033-.029-.039-.024-.04-.015-.041-.02-.041-.008-.045-.022-.041-.004-.046-.012-.016-.003-.078-.012-.095-.002h-.049l-.051.002-.036.005-.046.01-.042.012-.039.004-.04.015-.037.015-.033.02-.03.015-.029.024-.033.029-.024.025-.022.03-.054.058-.041.069-.028.074-.023.083-.011.078-.012.085v.088l.004.094.016.095.021.097.031.095.03.084.036.08.045.084.057.083.059.063.059.073.073.071.075.054.038.021.036.029.042.019.044.022.041.013.046.017.037.016.045.01h.018l.079.013.095.002h.096l.044-.007.044-.003.04-.011.04-.012.034-.02.038-.014.034-.014.035-.028.028-.018.034-.029.023-.03.023-.023.03-.039.018-.031.036-.066.029-.076.027-.08.014-.084.011-.085V0Zm1.384.541-.02.104-.022.107-.022.098-.027.098-.039.095-.043.089-.042.081-.059.086-.061.078-.067.079-.069.061-.07.07-.075.064-.077.058-.163.094-.085.049-.088.035-.09.035-.097.03-.095.028-.098.02-.095.016-.108.012-.104.005-.113.007v-.012h-.107l-.111-.006-.107-.013-.082-.009-.02-.007-.111-.019-.1-.026-.107-.026-.102-.035-.204-.084-.1-.044-.097-.053-.099-.055-.105-.064-.091-.07-.098-.061-.094-.079-.084-.078-.089-.086-.079-.081-.072-.089-.074-.095-.068-.098-.126-.205-.044-.104-.052-.121-.043-.106-.044-.123-.033-.125-.031-.121-.029-.137-.017-.132-.017-.129-.012-.119-.001-.117v-.117l.009-.11.01-.113.02-.105.026-.099.035-.098.034-.086.044-.09.047-.089.054-.08.058-.076.068-.074.066-.067.076-.066.076-.063.079-.057.078-.047.083-.048.089-.039.091-.045.086-.03.094-.033.092-.018.098-.022.102-.015.107-.013.106-.001.105-.011.11.011.111.001.101.013.088.009.016.006.107.022.107.022.104.029.104.036.1.039.103.039.098.048.202.104.094.067.1.065.093.068.183.15.085.083.082.082.074.094.071.093.064.09.062.108.058.098.055.11.053.113.041.112.04.122.038.114.029.137.048.261.021.121.005.125.006.123-.006.106zm-8.151 1.381L-32.192.42l.753 4.076h-1.295l-1.243-6.732h1.284l.318 1.694 1.095-1.694h1.808L-30.989.006l2.18 1.916zm-3.739-.822-.008.073-.008.078-.018.068-.019.067-.021.07-.023.058-.027.058-.028.061-.036.053-.038.053-.043.044-.045.045-.047.043-.058.028-.058.039-.064.024-.069.024-.07.018-.069.021-.081.015-.079.006-.089.009h-.183l-.087-.01-.092-.012-.083-.017-.087-.016-.081-.026-.16-.065-.078-.038-.076-.051-.075-.054-.076-.06-.073-.069-.076-.079-.076-.079-.068-.086h-.023l.107.529h-1.295l-.769-4.158h1.29l.398 2.154.019.088.026.096.022.089.038.087.035.082.039.077.038.078.052.076.023.036.053.06.031.026.032.031.031.023.032.016.041.022.039.018.034.012.041.015.041.008.042.011.046.002.052.002h.127l.067-.008.063-.015.058-.027.022-.016.02-.011.024-.02.018-.022.013-.015.018-.026.012-.026.014-.026.01-.051.014-.06.014-.056.008-.057.003-.057V.32l-.003-.064-.008-.059-.005-.042-.009-.044-.002-.035-.012-.044-.002-.032-.008-.046-.006-.034-.008-.045-.004-.018-.005-.023-.003-.026-.01-.017-.372-2.027h1.291l.479 2.567.014.089.014.094.008.089.009.092v.081l.01.089v.079l-.01.079zM-40.371.02l-.002-.088-.012-.098-.024-.096-.028-.094-.032-.088-.041-.088-.042-.083-.053-.074-.06-.068-.062-.075-.071-.061-.069-.056-.041-.026-.034-.025-.044-.012-.042-.019-.044-.016-.036-.018-.046-.009-.047-.01h-.018l-.073-.009-.098-.012h-.048l-.092.014-.04.007-.047.01-.032.009-.04.016-.035.018-.038.019-.032.012-.028.025-.029.026-.026.025-.031.031-.027.028-.015.033-.04.065-.03.078-.025.074-.016.083-.01.079v.097l.01.091.016.099.018.094.027.09.036.084.043.084.044.079.045.083.064.072.063.069.068.068.077.056.035.028.039.024.042.018.04.018.043.02.044.018.042.013.047.002.009.004.081.018.095.003.049-.003h.045l.048-.009h.041l.041-.013.039-.01.04-.015.036-.021.037-.013.028-.022.034-.028.024-.024.031-.029.026-.025.019-.036.02-.028.041-.077.031-.072.023-.076.017-.087.002-.086zm.256 1.494-.038.058-.039.057-.039.044-.049.049-.042.049-.057.047-.054.034-.064.035-.055.032-.064.029-.059.026-.07.019-.062.016-.067.016-.068.015-.061.006-.04.009h-.2l-.105-.01-.096-.017-.097-.019-.096-.017-.087-.03-.096-.035-.092-.04-.088-.04-.087-.05-.09-.058-.081-.059-.084-.062-.082-.073-.08-.076-.081-.076-.078-.083-.071-.082-.066-.093-.073-.09-.06-.088-.059-.092-.052-.098-.051-.092-.051-.101-.041-.099-.045-.101-.033-.104-.039-.106-.029-.107-.027-.108-.016-.111-.021-.106-.016-.113-.01-.105-.005-.104v-.106l.005-.105.008-.092.014-.097.011-.101.024-.095.024-.089.03-.093.029-.093.041-.081.045-.085.049-.083.045-.087.111-.14.059-.064.063-.058.07-.059.069-.047.074-.048.076-.032.079-.037.081-.025.089-.023.091-.018.089-.013.102-.01.1-.005h.052l.034.005.025.001.074.012.076.01.07.011.076.016.071.022.079.024.067.032.074.038.033.015.047.016.069.048.06.047.07.052.061.054.057.062.057.068.053.07h.018l-.084-.463h1.293l.768 4.158h-1.291zm-5.053.636-.011-.085-.024-.091-.02-.084-.035-.07-.033-.061-.021-.037-.025-.021-.018-.028-.028-.022-.026-.018-.022-.017-.032-.02-.027-.01-.063-.028-.065-.023-.059-.018-.065-.017-.061-.012-.064-.009-.064-.003h-.016l-.051-.007h-.032l-.006.01h-.164l.226 1.182h.232l.058-.003.061-.005.055-.015.06-.004.051-.019.054-.022.051-.023.055-.022.019-.017.02-.01.018-.026.018-.022.014-.012.01-.032.01-.028.01-.023.01-.074.011-.069zm-.07-2.337-.002-.09-.018-.099-.019-.085-.02-.081-.031-.073-.035-.061-.046-.06-.048-.051-.051-.043-.06-.035-.057-.028-.068-.031-.057-.025-.133-.035-.064-.022-.065-.005-.063-.013-.047-.005h-.053l-.044-.002h-.24l-.015.002-.009.005h-.176l.246 1.319h.519l.065-.004.065-.011.066-.01.068-.014.059-.018.061-.024.059-.023.057-.027.018-.019.029-.017.021-.023.019-.021.016-.027.014-.029.014-.028.013-.037.003-.031.007-.039.002-.036zm1.407 3.216-.014.075-.025.073-.02.065-.026.063-.034.058-.034.055-.039.051-.046.045-.051.04-.049.044-.052.039-.05.034-.062.032-.063.031-.062.028-.066.024-.071.021-.071.018-.075.011-.079.015-.077.012-.085.012-.084.002h-2.073l-1.138-6.113h2.148l.089.002.093.006.087.006.093.009.09.009.085.021.09.018.091.021.085.025.088.024.084.036.088.032.084.033.085.039.09.044.081.046.076.047.077.052.075.06.076.061.064.065.063.073.055.074.056.082.055.081.045.093.043.093.037.1.043.107.032.108.022.113.024.114.026.157.014.151.012.14-.004.138-.008.067-.008.063-.006.063-.02.058-.022.116-.046.104-.023.052-.027.046-.028.048-.034.04-.034.046-.044.032-.038.037-.048.034-.048.035-.052.025-.055.022-.055.029-.057.017-.06.02-.067.013-.074.012v.006l.094.05.08.056.081.053.068.064.071.067.055.074.063.068.048.081.045.087.043.082.037.086.036.093.039.096.022.092.024.1.023.103.017.108.012.104.009.097.009.097v.181l-.009.08zm-9.041-5.265h1.287l1.243 6.732h-1.283zM-54.576.02l-.006-.088-.014-.098-.047-.19-.035-.088-.043-.088-.047-.083-.049-.074-.056-.068-.061-.075-.072-.061-.07-.056-.042-.026-.038-.025-.041-.012-.04-.019-.041-.016-.043-.018-.043-.009-.05-.01h-.01l-.079-.009-.095-.012h-.049l-.091.014-.043.007-.041.01-.038.009-.04.016-.033.018-.034.019L-56-1l-.032.025-.033.026-.02.025-.025.031-.026.028-.019.033-.043.065-.029.078-.028.074-.013.083-.011.079v.097l.007.091.013.099.022.094.028.09.036.084.037.084.051.079.047.083.066.072.056.069.075.068.066.056.046.028.037.024.038.018.041.018.041.02.044.018.045.013.044.002.015.004.078.018.093.003.055-.003h.042l.044-.009h.045l.038-.013.044-.01.038-.015.035-.021.035-.013.029-.022.031-.028.031-.024.053-.054.024-.036.021-.028.036-.077.033-.072.019-.076.017-.087.007-.086zm.251 1.494-.04.058-.034.057-.046.044-.041.049-.051.049-.048.047-.058.034-.061.035-.055.032-.07.029-.057.026-.067.019-.062.016-.128.031-.073.006-.037.009h-.203l-.099-.01-.099-.017-.092-.019-.095-.017-.096-.03-.091-.035-.093-.04-.088-.04-.087-.05-.086-.058-.086-.059-.086-.062-.079-.073-.082-.076-.076-.076-.078-.083-.073-.082-.073-.093-.064-.09-.062-.088-.057-.092-.059-.098-.046-.092-.053-.101-.044-.099-.044-.101-.031-.104-.034-.106-.03-.107-.031-.108-.021-.111-.014-.106-.017-.113-.008-.105-.004-.104v-.211l.006-.092.009-.097.017-.101.024-.095.031-.089.022-.093.035-.093.079-.166.049-.083.053-.087.049-.068.062-.072.057-.064.063-.058.07-.059.071-.047.073-.048.077-.032.079-.037.082-.025.087-.023.09-.018.093-.013.095-.01.096-.005h.065l.021.005.032.001.075.012.069.01.074.011.078.016.071.022.074.024.074.032.076.038.032.015.035.016.072.048.072.047.064.052.055.054.064.062.056.068.053.07h.019l-.083-.463h1.283l.772 4.158h-1.287zm-3.335.46.249.006-.263-1.413-.026.001-.021.018-.045.024-.055.023-.05.02-.05.012-.047.01-.056.008-.056.004-.056.008h-.06l-.133-.012-.059-.003-.059-.007-.053-.018-.058-.014-.054-.02-.049-.018-.046-.029-.051-.026-.04-.026-.037-.035-.04-.035-.039-.036-.033-.042-.029-.041-.061-.096-.054-.099-.05-.106-.047-.104-.039-.12-.034-.118-.036-.129-.021-.126-.318-1.671h-1.283l.772 4.158h1.286l-.127-.677h.018l.063.085.064.086.071.075.075.081.075.061.083.061.081.051.168.091.084.037.091.029.091.025.09.021.085.014.094.012zm-2.907-.052h-.725l.232 1.255h-1.294l-.23-1.255h-.417l-.225-1.221h.417l-.541-2.937h1.291l.541 2.937h.727zm-3.239-.822-.008.073-.018.078-.011.068-.022.067-.019.07-.025.058-.025.058-.033.061-.033.053-.04.053-.04.044-.047.045-.049.043-.055.028-.06.039-.058.024-.068.024-.065.018-.082.021-.077.015-.077.006-.087.009h-.184l-.092-.01-.092-.012-.086-.017-.079-.016-.083-.026-.161-.065-.077-.038-.072-.051-.08-.054-.076-.06-.078-.069-.071-.079-.071-.079-.077-.086h-.012l.101.529h-1.295l-.776-4.158h1.297l.397 2.154.019.088.024.096.03.089.031.087.035.082.038.077.045.078.047.076.025.036.026.028.029.032.031.026.036.031.022.023.036.016.033.022.044.018.08.027.037.008.045.011.048.002.045.002h.123l.079-.008.055-.015.059-.027.024-.016.017-.011.022-.02.021-.022.016-.015.013-.026.019-.026.005-.026.016-.051.015-.06.009-.056.007-.057.004-.057V.32l-.004-.064-.007-.059-.002-.042-.007-.044-.005-.035-.01-.044-.004-.032-.012-.046-.003-.034-.002-.045-.009-.018-.004-.023-.006-.026-.003-.017-.377-2.027h1.291l.479 2.567.028.183.01.089.003.092.006.081.005.089v.079l-.005.079Zm-7.14-.655h1.496l-.003.07-.005.071-.016.067-.02.055-.02.059-.03.056-.036.048-.043.054-.047.036-.043.037-.051.031-.055.023-.056.02-.059.013-.062.009h-.133l-.065-.009h-.006l-.072-.013-.062-.015-.067-.028-.065-.024-.056-.038-.063-.035-.06-.04-.056-.053-.049-.056-.051-.054-.037-.064-.04-.067-.038-.07zm2.62.146.003-.116.004-.115-.004-.112-.008-.125-.01-.123-.02-.126-.019-.128v.003l-.031-.151h-2.714l-.014-.117-.011-.099-.005-.097.007-.091.013-.079.021-.076.031-.07.018-.034.018-.028.021-.041.021-.02.023-.023.032-.021.027-.023.027-.023.034-.016.032-.015.04-.015.035-.013.038-.009.039-.008.093-.011h.249l.041.014.045.014.043.016.013.007.036.01.042.022.045.027.037.026.038.03.042.031.038.043.041.044.038.041.031.052h1.245l-.04-.093-.043-.087-.039-.082-.043-.087-.05-.077-.046-.075-.054-.072-.056-.07-.055-.066-.059-.062-.062-.062-.067-.054-.062-.052-.14-.101-.076-.041-.075-.044-.079-.032-.073-.035-.073-.037-.074-.03-.078-.03-.074-.026-.081-.02-.076-.018-.058-.017-.014-.004-.08-.011-.078-.019-.077-.003-.077-.009-.073-.001-.085-.005-.11.005-.108.001-.102.012-.102.019-.102.018-.091.022-.092.037-.091.028-.082.03-.165.093-.079.053-.139.114-.073.065-.058.063-.061.08-.059.073-.045.083-.041.083-.04.088-.033.092-.024.101-.022.096-.014.109-.013.105-.003.115v.115l.003.122.013.124.019.13.019.134.022.126.033.124.038.126.03.11.042.117.045.111.05.107.056.099.057.104.059.099.058.095.069.087.072.089.077.077.077.081.084.075.083.074.086.069.093.058.087.06.09.056.094.047.095.038.097.039.096.036.101.036.102.019.104.023.104.017.078.007.028.005.106.01h.233l.109-.01.111-.017.102-.012.101-.023.09-.026.097-.029.087-.045.079-.034.079-.047.075-.053.069-.053.065-.066.062-.068.057-.067.053-.074.05-.082.041-.086.038-.082.036-.091.03-.092.023-.096.022-.103.015-.103zm-3.887 3.137-.14.064-.143.061-.141.06-.151.045-.074.008-.081.02-.077.017-.16.014-.081.013h-.076l-.086.008h-.064l-.138-.012-.14-.019-.14-.021-.139-.028-.139-.038-.144-.053-.139-.054-.143-.06-.142-.067-.136-.077-.135-.083-.131-.081-.124-.091-.124-.104-.121-.098-.118-.107-.22-.231-.104-.127-.108-.123-.09-.133-.091-.133-.085-.139-.078-.15-.074-.146-.066-.149-.067-.142-.058-.156-.047-.15-.047-.154-.035-.151-.034-.156-.027-.172-.018-.166-.015-.158-.013-.164V-.01l.013-.156.015-.148.018-.152.032-.141.034-.144.046-.134.054-.139.057-.121.074-.128.076-.119.085-.115.086-.106.095-.093.092-.094.098-.09.104-.076.106-.076.112-.069.116-.054.12-.055.125-.049.123-.038.123-.032.133-.031.133-.013.136-.007.141-.011h.07l.069.011.064.001.07.006.067.012.068.01.066.013.067.011.088.02.088.028.088.027.088.019.094.03.094.03.098.037.098.028.35 1.905-.07-.076-.074-.067-.073-.071-.072-.058-.082-.057-.082-.05-.08-.056-.093-.041-.084-.047-.093-.031-.086-.034-.083-.018-.09-.023-.082-.016-.088-.007h-.165l-.078.006-.075.006-.066.018-.072.016-.065.018-.065.026-.061.024-.061.036-.056.037-.053.03-.051.046-.045.048-.053.047-.037.054-.076.115-.03.061-.039.068-.024.066-.022.068-.027.075-.01.066-.02.072-.004.075-.007.078v.161l.003.086.008.083.014.08.014.095.019.089.023.082.021.09.021.082.032.082.032.078.032.078.077.152.043.075.051.065.044.073.051.07.057.061.057.065.058.066.056.061.065.051.065.055.062.046.066.039.07.042.069.036.069.034.075.03.067.025.076.02.072.018.076.012.074.011.077.009h.172l.082-.009.091-.017.075-.014.083-.03.078-.025.073-.039.075-.037.077-.048.06-.049.067-.053.058-.06.054-.066.051-.066.044-.078.035-.074.358 1.906z" style="fill:#fff;fill-opacity:1;fill-rule:evenodd;stroke:none" transform="translate(-263.146 84.834)"/><path d="m0 0 .171 1.737H-.854l.047-.061.047-.064.036-.076.027-.076.014-.078.02-.085v-.096l-.008-.09-.012-.065-.01-.064-.018-.066-.021-.062-.027-.057L-.78.746-.819.684-.898.59-.944.535-.996.494-1.02.477-1.056.45l-.059-.043-.06-.04-.066-.036-.075-.034-.101-.045-.105-.033-.104-.029-.112-.033-.111-.016-.116-.02-.112-.007-.125-.008.005-.106.009-.103.016-.095.023-.088.029-.085.038-.067.043-.071.05-.063.027-.023.027-.026.036-.023.034-.02.069-.04.079-.029.087-.026.091-.013.097-.009.108-.004.093.004.093.009.092.013.036.013.058.013.089.029.093.033.083.041.085.048.081.05.082.058.083.072.073.062.079.075.079.084.069.083zm-6.18 2.89.004.083-.004.073-.004.067-.017.068-.018.056-.024.055-.032.052-.039.042-.038.039-.044.036-.058.039-.058.026-.061.025-.07.024-.075.024-.072.016-.086.016-.088.015-.095.009-.104.008-.108.002-.111.009h-.112l-.125-.009-.23-.01-.206-.024-.202-.016-.189-.027-.172-.037-.152-.037-.074-.026-.072-.024-.068-.02-.06-.032-.062-.026-.055-.027-.051-.032-.051-.035-.049-.028-.034-.036-.039-.039-.039-.034-.029-.042-.028-.041-.019-.044-.025-.04-.019-.046-.012-.048-.009-.044-.009-.05-.004-.094v-.084l.004-.076.018-.054.003-.027.018-.017.01-.02.013-.014.015-.013.016-.011h.019l.018-.004.02.004.018.008v.009l.007.017h2.95l-.038.041.066.04.054.041.053.056.044.05.031.054.027.051.021.067zm.993-.466h9.789l-.069-.687H3.87l-.365-3.884H2.236l.371 3.884H1.43l-.366-3.884H-.202l.085.885-.096-.065-.093-.058-.085-.057-.091-.047-.099-.05-.094-.042-.088-.034-.095-.041-.094-.034-.068-.014-.029-.007-.096-.026-.187-.031-.096-.005-.094-.015h-.094l-.161.006-.158.011-.14.021-.142.024-.059.022-.072.02-.06.021-.065.022-.058.03-.056.03-.058.031-.054.034-.055.027-.055.04-.046.036-.044.044-.052.037-.045.046-.037.049-.049.048-.027.053-.049.053-.03.051-.036.062-.063.119-.056.13-.042.116-.037.129-.033.13-.021.136-.022.151-.01.156-.002.155v.169l.198.099.005-.008.007-.008h.046l.07-.001.092-.009.093.009.086.001h.093l.083.016.084.015.076.013.081.03.072.022.097.041.079.04.071.049.038.03.019.026.025.027.023.034.021.027.018.035.013.03.015.036.012.039.004.037.007.06v.107l-.007.047-.011.058-.011.045-.01.046-.018.046-.027.044-.016.039-.033.036-.024.033-.038.035-.04.031-.04.03-.039.029h-2.255L-4.645.681h-2.199l-.065-.003-.055-.01-.031-.012-.025-.008-.02-.011-.019-.014-.039-.033-.011-.024-.01-.026-.009-.026-.013-.02-.004-.024-.007-.032V.327l.011-.03.013-.033.011-.022.019-.023.025-.018.022-.024.031-.016.03-.015.081-.017.041-.008.047-.004H-5.5l.054-.003.122-.017.054-.01.054-.019.058-.013.055-.021.053-.024.048-.023.101-.066.049-.032.047-.033.046-.038.05-.045.038-.04.038-.05.045-.049.037-.036.026-.059.02-.048.027-.053.019-.059.019-.05.018-.059.011-.055.007-.063.007-.059.007-.063v-.062l-.007-.069-.012-.081-.009-.093-.022-.079-.019-.077-.019-.081-.027-.075-.028-.076-.042-.074-.034-.067-.036-.071-.096-.126-.054-.068-.057-.062-.055-.055-.064-.06-.143-.111-.07-.044-.077-.043-.073-.043-.09-.041-.082-.026-.093-.039-.086-.025-.099-.025-.091-.02-.199-.03-.106-.014h-.386l-.176.018-.177.022-.182.029-.246.048-.23.058-.214.052-.199.062-.184.061-.165.068-.077.037-.077.032-.072.043-.058.03-.055.029-.049.036-.047.044-.058.038-.049.042-.05.048-.053.061-.052.052.428 1.038v-.013l.006-.013.008-.022.018-.022.044-.038.06-.05.077-.053.095-.062.116-.065.131-.077.152-.078.161-.08.153-.06.146-.061.156-.052.149-.034.154-.032.138-.029.102-.011.094-.004.093-.009.087-.001.084.001.085.009.078.004.074.011.057.019.073.015.051.027.055.023.046.021.047.033.034.031.033.041.029.039.025.045.012.054.02.048.009.04v.04l-.009.036-.02.033-.012.035-.025.034-.029.03-.033.031-.04.031-.035.026-.041.017-.035.021-.047.007-.048.011-.076.008H-7.24l-.055.007-.064.007-.12.018-.058.013-.054.013-.056.025-.054.025-.11.047-.055.028-.054.039-.05.033-.052.036-.052.039-.044.045-.054.044-.045.045-.04.051-.029.046-.037.049-.031.05-.024.046-.022.053-.016.055-.018.056-.016.048-.002.055-.003.057v.116l.005.057.013.056.01.057.02.054.012.057.03.055.021.045.036.05.029.052.04.044.039.047.043.044.048.044.054.047.046.041.058.038.102.061.109.054.118.052.115.043.12.028.116.02.119.015.13.007h1.221l.036.327h-3.581l-.371-3.884h-1.265l.365 3.884h-.66l.07.687h.495l-.016.041-.015.04-.008.041-.008.056-.007.05-.005.054.005.048v.058l.015.11.023.108.023.112.026.106.038.1.041.096.048.092.05.087.061.081.057.086.069.074.077.075.08.071.082.069.09.061.096.057.096.056.108.049.112.052.118.043.121.04.135.036.125.034.139.032.147.023.145.021.152.016.169.011.166.014.167.008h.365l.197-.008.188-.01.183-.01.181-.014.16-.021.167-.027.153-.026.139-.032.141-.034.133-.041.118-.045.114-.049.105-.051.099-.055.091-.059.077-.063.055-.054.061-.052.047-.061.049-.065.038-.065.04-.062.028-.077.03-.075.041-.151.013-.088.009-.081.009-.091v-.093l-.009-.096-.009-.096v-.053l-.009-.046-.008-.051-.014-.046-.017-.041-.017-.036-.019-.035-.021-.031-.068-.076Zm-5.965.509.064.061.055.067.054.064.039.07.039.078.023.079.026.082.015.086.005.092-.005.081-.009.085-.019.071-.027.074-.039.07-.046.068-.056.062-.055.054-.064.05-.07.047-.066.03-.075.033-.08.017-.079.013-.083.004h-.094l-.087-.007-.086-.02-.084-.029-.083-.024-.078-.051-.075-.043-.081-.057-.074-.061-.054-.069-.057-.071-.047-.075-.037-.077-.032-.089-.022-.083-.012-.095-.006-.086.006-.086.005-.04.007-.041.013-.039.02-.039.008-.034.018-.042.02-.031.024-.034.053-.072.057-.056.065-.057.071-.048.064-.038.081-.029.079-.026.082-.016.087-.011.08-.006.087.006.085.015.08.02.079.024.075.037.073.036.071.053zm-5.726-1.196h3.392l-.036-.369h-1.679l-.123-.01-.119-.018-.118-.022-.109-.032-.11-.041-.105-.044-.102-.05-.058-.028-.05-.031-.05-.041-.047-.037-.046-.039-.041-.047-.035-.04-.035-.041-.032-.046-.019-.053-.029-.05-.024-.049-.022-.109-.011-.051-.008-.057V.318l.008-.054.011-.052.007-.051.014-.047.02-.046.025-.049.028-.042.026-.036.037-.044.039-.041.041-.037.051-.033.042-.032.052-.04.099-.054.099-.049.105-.04.108-.032.108-.019.119-.023.127-.01.122-.004h1.106l.052-.011.049-.004.021-.004.017-.013.022-.013.007-.018.014-.015.013-.012.01-.022.002-.02.009-.047v-.056l-.011-.055-.017-.051-.025-.043-.026-.039-.036-.03-.04-.027-.05-.023-.059-.014-.072-.014-.111-.001h-.16l-.213-.006-.201.006-.188.008-.181.015-.169.02-.153.028-.149.034-.137.043-.122.043-.139.068-.136.06-.143.066-.136.064-.152-.802.108-.068.108-.06.113-.049.114-.036.075-.203.071-.182.072-.166.068-.145.034-.063.036-.062.04-.051.071-.103.037-.038.032-.039.037-.026.051-.044.063-.044.075-.029.071-.039.085-.029.089-.029.101-.023.102-.025.116-.014.118-.021.126-.015.135-.009.142-.008.151-.009.151-.007.164-.002.129.002.091.007.062.009.033.011.097.776-.3.006-.258.009-.112.011-.107.014-.095.009-.081.018-.071.019-.067.018-.054.019-.043.026-.033.024-.018.03-.01.011-.006.02v.047l.012.014.01.023.009.016h.363l.134.007.132.007h.128l.127.001.128.011.143.005.125.021.121.02.113.028.106.03.091.034.084.042.078.039.047.032.04.037.038.037.041.034.069.074.027.05.034.041.034.053.016.046.024.049.018.059.014.061.015.057.018.061.011.064.012.071v.189l-.005.066-.014.062-.027.111-.024.056-.022.047-.031.053-.03.042-.035.044-.038.047-.041.034-.043.042-.042.037-.045.019-.045.036-.042.019-.101.047-.096.036-.112.033-.116.018-.118.015H-14.8l-.101.003h-.075l-.061.005-.04.011-.027.01-.028.012-.016.015-.022.023-.014.019-.004.031-.009.029v.026l.01.063.022.044.031.045.036.031.036.025.048.018.05.008.069.007h2.522l.106 1.089h.734l.064.687h-5.343zm-7.249-3.553.014-.054.009-.054v-.132l-.009-.066-.014-.055-.018-.058-.023-.054-.04-.054-.034-.052-.04-.043-.047-.049-.052-.034-.055-.033-.055-.036-.058-.02-.058-.022-.062-.015-.06-.011-.064-.005h-.062l-.063.011-.117.031-.047.024-.056.031-.05.034-.049.042-.04.046-.037.04-.031.047-.02.056-.018.055-.01.06v.13l.01.068.017.064.05.123.031.051.041.055.045.044.048.047.057.04.056.034.057.03.056.03.059.017.065.011.061.011h.129l.06-.011.06-.017.055-.019.049-.027.045-.033.053-.033.046-.04.031-.05.039-.047.028-.047zm-.602 2.095.009.079.005.08.023.243.017.211.017.2.019.17.017.154.011.129.007.103.01.089h1.244l-.157-1.671-.045-.047-.047-.032-.046-.041-.041-.034-.049-.034-.05-.022-.046-.023-.051-.027-.054-.02-.05-.019-.054-.01-.052-.013-.053-.006-.054-.003-.056-.002-.06.002h-.061l-.052.019-.052.013-.04.019-.046.024-.038.03-.035.036-.025.042-.026.045-.011.053-.016.056-.012.069zm-1.443 1.458h.35l-.008-.061-.007-.097-.015-.134-.014-.159-.017-.204-.017-.233-.024-.269-.032-.301-.006-.078v-.08l.006-.077.003-.074.01-.07.009-.069.021-.074.019-.074.028-.068.024-.059.037-.073.035-.065.034-.062.045-.063.046-.058.05-.064.046-.053.056-.058.056-.046.054-.046.06-.042.055-.041.062-.033.068-.034.066-.029.059-.026.07-.025.142-.025.072-.011.077-.01.077-.004h.139l.141.004.127.015.118.017.01.001.109.023.106.034.109.042.094.052-.094-1.023h1.265l.198 2.094.037.043.04.044.048.032.038.031.044.035.048.025.048.033.041.018.052.018.045.019.052.019.053.013.049.002.054.016h.055l.057.002.084-.002.084-.009.078-.007.065-.015.066-.022.054-.023.048-.029.049-.036.038-.037.033-.045.029-.053.019-.048.017-.059.007-.056v-.142l-.007-.057-.017-.059-.019-.05-.021-.051-.028-.046-.036-.042-.041-.038-.043-.035-.047-.021-.056-.034-.056-.017-.062-.016-.07-.013-.075-.008-.08-.008-.083-.004-.102.004-.096.009-.049.007-.043.013-.04.016-.034.015-.091-.904.026-.026.024-.016.03-.023.028-.018.039-.018.04-.011.041-.013.04-.011.091-.012.109-.015.114-.001.126.001.088.006.08.011.087.01.075.011.083.013.075.022.075.02.074.021.066.018.074.032.062.031.069.029.059.034.063.035.06.042.058.043.065.043.055.059.061.056.047.049.051.062.048.06.044.067.039.066.034.066.031.075.029.071.047.156.022.079.015.088.011.083.011.093.003.091v.077l-.003.085-.009.081-.028.162-.022.072-.024.076-.029.07-.026.063-.044.075-.038.055-.043.065-.054.062-.051.052-.057.052-.053.052-.062.04-.059.042-.066.037-.063.039-.074.022-.069.035-.07.023-.08.021-.08.019-.078.014-.086.017-.086.011-.088.009h-.243l-.148-.017-.138-.02-.139-.022-.131-.038-.126-.04-.119-.053-.114-.063.063.708h2.945l.073.687h-7.038zm.138.946.078.032.08.039.077.046.071.045.097.068.1.075.091.081.081.09.074.097.075.096.063.109.065.114.058.129.052.133.054.126.058.127h-1.364l-.009-.059-.014-.061-.027-.062-.034-.048-.032-.048-.036-.046-.049-.045-.052-.035-.063-.035-.064-.028-.071-.024-.083-.028-.087-.013-.086-.013-.099-.012-.099-.013h-.112l-.093.013-.094.012-.083.019-.042.012-.035.024-.041.015-.034.016-.035.032-.029.023-.028.026-.031.032-.042.035-.026.046-.035.049-.023.039-.015.043-.007.047-.007.048.007.039h-1.35l.028-.127.035-.126.027-.133.041-.129.043-.111.045-.102.062-.098.056-.094.071-.088.075-.082.082-.078.089-.071.064-.039.062-.044.078-.038.068-.041.076-.026.081-.039.089-.022.082-.022.089-.034.095-.006.096-.024.098-.011.107-.013.105-.004.106-.008.106-.001h.115l.114.001.112.008.104.008.099.013.103.019.099.013.187.05.092.026.083.026zm-5.516-.928.066.669h5.114l-.067-.687h-.657l-.37-3.884h-1.267l.371 3.884h-.66v.018h-.499l-.37-3.902h-1.265l.185 1.953h-.972l.049.512.038.363h.969l.106 1.074zm-.318-2.36-.013.088-.011.03-.014.049-.025.08-.033.072-.042.076-.048.071-.044.067-.063.072-.062.066-.071.055-.08.065-.079.056-.093.055.078.034.072.044.124.077.059.051.052.043.054.049.045.054.042.057.032.059.036.06.05.133.01.034.011.034.013.069.02.073v.086l.006.079-.006.077-.006.072-.016.077-.022.067-.032.067-.028.062-.036.062-.043.062-.052.056-.049.054-.061.053-.064.047-.071.048-.079.046-.064.033-.069.03-.066.026-.07.03-.076.019-.077.019-.073.025-.075.013-.168.023-.172.018-.172.009-.183-.004-.114-.005-.122-.012-.111-.021-.122-.02-.121-.028-.118-.033-.12-.037-.121-.044-.122-.054-.131-.064-.128-.049-.128-.054.354-.884.129.066.125.056.133.045.127.037.132.03.134.023.268.018h.072l.07-.002.064-.004.058-.012.057-.013.048-.019.042-.017.045-.02.025-.025.033-.028.023-.036.023-.033.011-.034.006-.04.006-.049-.006-.048-.006-.039-.009-.047-.012-.036-.013-.031-.02-.033-.019-.027-.021-.028-.028-.025-.029-.018-.029-.016-.036-.016-.039-.008-.042-.006-.041-.003h-.998l-.072-.784h.887l.06-.01.058-.011.056-.015.05-.019.047-.011.038-.025.033-.025.064-.06.021-.038.021-.029.009-.043.01-.04.008-.045v-.101l-.011-.08-.016-.081-.029-.071-.025-.074-.038-.059-.037-.046-.048-.046-.057-.034-.046-.031-.052-.018-.059-.021-.066-.012-.072-.016-.084-.012-.091-.006-.09-.007h-.058l-.064.007h-.059l-.121.021-.06.02-.056.017-.063.023-.057.027-.064.026-.058.034-.059.036-.064.034-.053.05-.056.043-.057.047-.075.058-.071.063-.066.062-.058.064-.061.069-.054.069-.056.073-.052.074-.668-.864.042-.075.061-.075.062-.072.063-.073.077-.081.165-.149.095-.068.086-.068.083-.059.09-.061.087-.053.088-.051.091-.041.092-.044.095-.034.093-.035.096-.031.103-.029.094-.023.107-.023.102-.014.11-.006.101-.016.075-.003h.076l.075-.007h.074l.108.007h.108l.101.009.104.01.1.012.092.018.09.019.082.017.083.026.082.032.078.028.076.027.073.036.06.042.066.043.066.043.054.048.055.047.05.047.045.061.05.06.036.054.038.07.034.066.032.074.026.064.024.08.029.076.014.086.003.018.011.059.013.092.008.089.006.094-.006.088zm-13.176 2.342h2.895l-.193-2.044-.044-.036-.041-.046-.042-.035-.044-.037-.047-.033-.095-.063-.059-.018-.052-.025-.062-.021-.053-.009-.066-.019-.064-.006-.065-.014-.065-.002-.068-.006h-.062l-.052.006-.048.007-.048.015-.044.019-.046.017-.043.031-.035.025-.035.04-.024.041-.028.041-.014.05-.014.055-.001.063v.057l.001.071.012.06.016.066.017.055.018.055.032.044.031.049.037.036.039.038.047.038.046.025.06.025.053.024.064.016.064.015.074.01.074.004h.081l.071-.014.076-.015.065-.025.07-.036.06-.045.067-.055.059-.059.091.961-.041.035-.037.03-.048.028-.051.028-.05.028-.049.015-.06.021-.052.022-.062.013-.059.015-.068.008-.067.012-.144.015-.157.007-.075-.007-.086-.009-.073-.006-.082-.012-.079-.013-.07-.019-.076-.026-.065-.027-.073-.029-.061-.036-.069-.035-.063-.04-.06-.04-.066-.057-.051-.045-.061-.051-.055-.066-.048-.059-.052-.06-.044-.062-.045-.063-.04-.068-.036-.068-.033-.074-.033-.074-.027-.078-.025-.074-.022-.08-.019-.077-.015-.085-.009-.083-.011-.091-.007-.085v-.24l.007-.076.011-.072.016-.069.013-.077.018-.064.053-.127.033-.06.034-.062.036-.053.037-.057.046-.052.047-.053.047-.049.054-.042.053-.036.053-.038.057-.034.062-.031.057-.03.061-.023.064-.022.066-.018.066-.01.069-.008.078-.012.07-.004h.08l.154.013.15.011.153.023.152.037.154.045.152.049.155.068.147.07-.071-.755h1.265l.202 2.094.043.053.045.047.049.05.044.044.044.036.054.035.045.033.044.034.045.023.054.019.047.021.043.016.054.017.042.001.097.012.095-.007.078-.005.074-.009.07-.009.06-.016.048-.021.044-.024.039-.033.026-.024.031-.038.02-.041.009-.044.022-.107.003-.064v-.07l-.003-.074-.006-.069-.01-.068-.015-.059-.02-.05-.031-.057-.031-.039-.034-.051-.031-.03-.046-.028-.05-.034-.047-.021-.064-.015-.058-.014-.066-.003-.069-.01-.053.01-.052.003-.045.003-.058.022-.054.012-.056.013-.054.028-.05.025-.11-1.138.038-.048.042-.033.032-.022.031-.016.04-.014.048-.009.057-.014h.064l.066-.005h.254l.084.005.08.007.08.007.08.016.074.019.075.019.074.027.071.025.07.031.071.023.068.039.065.037.066.04.065.047.06.048.064.044.063.064.06.05.059.065.054.064.053.063.045.065.04.069.042.069.041.069.026.077.06.157.017.078.025.088.029.171.005.09.008.093V.01l-.013.087-.008.075-.017.08-.017.079-.029.076-.03.073-.064.143-.046.067-.044.064-.046.068-.056.061-.06.056-.059.054-.057.058-.065.044-.063.038-.067.051-.07.028-.072.033-.075.037-.075.023-.081.018-.078.017-.085.013-.086.01-.086.005h-.146l-.062-.005-.064-.005-.065-.014-.125-.021-.133-.037-.132-.045-.142-.056-.14-.074-.14-.07.063.696h3.359l.064.687h-7.517zm.148.958-.086.011-.081.016-.079.026-.072.029-.072.038-.069.048-.068.057-.06.056-.049.072-.023.034-.019.031-.021.042-.015.034-.009.039-.011.039-.007.041-.005.04-.005.086.005.086.011.095.021.083.031.089.035.077.042.075.06.071.061.069.071.061.075.057.081.043.077.051.082.024.083.029.086.02.089.007h.087l.087-.004.085-.013.071-.017.076-.033.076-.03.066-.047.066-.05.06-.054.053-.062.043-.068.038-.07.03-.074.019-.071.01-.085v-.081l-.006-.092-.018-.086-.02-.082-.025-.079-.041-.078-.042-.07-.051-.064-.05-.067-.066-.061-.07-.053-.078-.053-.07-.036-.075-.037-.078-.024-.077-.02-.084-.015-.088-.006zm-3.699-3.212-.127-.04-.064-.015-.056-.008-.051-.002-.047-.009-.093-.004h-.084l-.074.004-.074.009-.06.007-.059.018-.049.017-.037.011-.05.028-.035.04-.03.042-.026.048-.018.064-.009.061v.065l.005.078.012.058.01.055.009.047.017.046.01.038.015.036.022.031.018.023.041.033.04.033.04.03.039.031.316-.29.593-.542zm3.197 2.941h-.319l-.029.077-.058.132-.052.121-.062.126-.06.127-.069.123-.069.118-.071.12-.079.12-.075.112-.083.114-.084.117-.084.108-.097.112-.086.105-.081.084-.088.097-.077.078-.084.082-.088.075-.093.078-.088.071-.087.075-.891-.729.122-.074.124-.08.12-.088.109-.09.113-.097.114-.102.102-.102.104-.112.101-.119.092-.121.088-.13.093-.132.086-.137.076-.143.063-.116h-.423l-.022.041-.075.118-.088.127-.092.126-.105.122-.123.129-.137.13-.116.115-.13.112-.131.107-.147.104-.583-.81.054-.005.055-.013.052-.012.048-.02.042-.018.051-.029.044-.033.045-.032.038-.041.08-.096.068-.107.01-.015h-2.47l-.069-.687h3.41l-.181-1.876-.072-.042-.046-.023-.052-.029-.042-.013-.034-.021-.027-.019-.9.852.088.014.08.015h.074l.066.005.082-.005.089-.015.102-.018.117-.033.102-.026.087-.026.066-.014.046-.008.095.776-.024.023-.034.019-.035.013-.04.019-.104.022-.124.017-.152.024-.176.008-.199.006-.227.006h-.092l-.018-.005-.073-.001-.088-.006-.088-.008-.173-.028-.081-.017-.086-.018-.081-.023-.071-.028-.081-.028-.073-.028-.074-.03-.073-.038-.068-.038-.067-.041-.08-.058-.067-.054-.074-.056-.056-.058-.061-.065-.055-.062-.05-.073-.048-.066-.039-.079-.032-.073-.039-.086-.028-.079-.022-.085-.022-.089-.014-.091-.006-.09-.007-.091v-.085l.007-.083.006-.08.01-.08.023-.075.021-.076.026-.076.028-.07.035-.063.041-.069.05-.059.052-.061.052-.06.056-.057.068-.054.058-.041.059-.04.058-.04.066-.037.06-.032.07-.028.062-.03.066-.016.072-.023.068-.018.077-.014.072-.01.075-.012.076-.007h.153l.218.013.092.008h.011l.108.013.1.016.098.011.101.023.091.016.095.03.09.021.089.031.091.028.086.036.085.038.078.04.078.035-.082-.906h1.253l.373 3.884h.82l.059.503zm-23.023 0h16.223l-.065-.687h-1.186l-.085-.812.065-.061.049-.058.091-.128.036-.078.034-.071.027-.09.027-.081.02-.094.014-.087.015-.103.008-.103.003-.105-.003-.103-.008-.113-.012-.124-.007-.101-.018-.102-.025-.096-.017-.095-.03-.097-.028-.09-.036-.089-.041-.093-.039-.079-.051-.086-.043-.082-.058-.08-.057-.077-.058-.074-.067-.073-.064-.068-.068-.068-.072-.064-.076-.056-.075-.053-.066-.052-.078-.046-.078-.04-.073-.036-.079-.03-.08-.03-.081-.031-.079-.016-.079-.017-.087-.009-.167-.01h-.209l-.186.01-.159.012-.138.018-.065.011-.055.01-.049.022-.047.004-.032.026-.033.012-.027.018-.021.022.088.956.025-.023.049-.03.087-.023.112-.031.121-.025.108-.017.105-.007h.101l.073.007.072.017.066.023.058.021.123.083.05.046.05.063.044.064.04.07.037.075.034.088.027.088.027.1.021.109.017.115.011.103.011.091v.092l-.007.083-.005.081-.021.072-.016.061-.02.058-.02.033-.021.029-.021.022-.017.032-.027.02-.025.021-.025.019-.029.015-.028.015-.037.014-.028.011-.039.01-.077.005h-.152l-.063-.015-.066-.017-.057-.033-.055-.035-.059-.043-.052-.052-.05-.058-.049-.082L-55.62 0l-.024-.079-.031-.06-.041-.418h-1.188l.05.498-.01.059-.014.055-.013.048-.024.038-.039.045-.035.033-.053.026-.048.032-.061.018-.066.012-.069.011-.077.003h-.086l-.083-.014-.033-.005-.035-.016-.034-.007-.033-.015-.034-.022-.032-.019-.031-.022-.025-.029-.025-.026-.027-.029-.024-.03-.024-.032-.029-.055-.024-.069-.028-.07-.025-.08-.022-.088-.019-.095-.021-.107-.014-.112-.007-.112-.006-.102.006-.095.013-.096.021-.085.031-.078.018-.035.018-.04.024-.034.024-.034.046-.053.051-.046.052-.039.053-.03.06-.016.054-.022.065-.001h.061l.061.009.071.018.075.023.081.027.084.031.086.041.095.044.11.053-.105-1.038-.025-.026-.027-.017-.037-.018-.037-.012-.096-.032-.107-.022-.139-.022-.143-.01-.169-.007-.186-.004-.167.011-.08.003-.079.02-.075.023-.072.019-.075.03-.141.068-.074.046-.062.046-.065.049-.059.055-.052.062-.07.068-.109.131-.051.081-.046.078-.044.077-.042.084-.031.08-.029.085-.028.092-.019.089-.02.089-.013.095-.006.095-.004.095-.006.097.006.104.01.1.004.105.017.104.023.101.024.097.031.093.029.095.041.088.038.086.089.167.055.082.055.073.061.075.063.069.07.067.069.069.071.059.066.052.072.044.069.049.074.046.074.038.075.038.082.023.075.027.078.025.083.019.083.024.077.011.086.01.089.003.085.008.111-.008.105-.003.102-.01.091-.015.093-.022.092-.034.089-.028.086-.041.072-.046.079-.049.07-.058.071-.065.062-.056.066-.077.055-.076.055-.082.072.087.088.107.109.118.135.135.09.056.084.04.087.035.079.036.082.024.076.019.073.005.071.008.085-.008.088-.003.09-.01.101-.015.046.455h-5.493L-60.353.47h-1.595l-.109-.032-.096-.031-.086-.04-.09-.04-.076-.048-.069-.048-.066-.045-.061-.057-.044-.063-.056-.06-.04-.075-.03-.07-.027-.075-.022-.084-.016-.074-.006-.089v-.13l.003-.038.013-.04.006-.035.018-.032.016-.036.019-.035.018-.033.026-.028.022-.033.033-.029.03-.026.029-.03.041-.028.066-.035.072-.034.08-.039.083-.022.087-.02.091-.012.096-.006.108-.007.077.007h.079l.084.006.08.012.082.016.08.012.073.021.078.018.08.031.074.018.077.034.082.034.07.032.076.041.073.04.074.044.106.064.092.063.077.055.068.05.052.055.043.042.019.042.019.033.313-1.152-.152-.113-.165-.098-.176-.104-.179-.091-.181-.073-.175-.072-.179-.055-.188-.058-.182-.036-.055-.013 1.325-1.588-.908-.731-1.085 1.43-1.262-1.197-.789.757 1.545 1.299-.06.013-.19.052-.09.029-.088.034-.083.039-.089.05-.082.041-.079.056-.081.055-.081.059-.08.082-.078.067-.066.076-.061.082-.055.084-.046.085-.046.094-.032.092-.032.1-.022.098-.017.101-.01.102-.004.116V-.6l.009.12.012.122.022.115.027.109.033.111.037.11.039.103.049.096.061.102.065.089.062.089.073.083.083.081.084.079.093.074.096.075.101.056.14.081.138.073.144.058.131.047.134.037.133.03.062.004.068.014h.059l.065.005h.607l.035.374h-7.393l-.367-3.884h-1.262l.145 1.54h-1.211l.08.904h1.216l.138 1.44h-1.439l.035-.036.029-.053.027-.046.024-.043.028-.047.019-.052.013-.046.015-.056.009-.053.013-.06.011-.054v-.058l.002-.061v-.058l-.002-.061-.008-.07-.016-.086-.014-.099-.014-.083-.017-.084-.029-.081-.027-.083-.034-.072-.036-.076-.039-.073-.035-.072-.047-.061-.045-.058-.048-.058-.057-.06-.052-.051-.065-.051-.056-.042-.061-.043-.064-.039-.058-.035-.068-.028-.064-.028-.078-.029-.071-.02-.073-.02-.079-.013-.074-.018-.081-.002-.087-.013h-.167l-.09.004-.01-.078v-.077l.01-.077.02-.078.025-.077.031-.07.045-.067.047-.074.048-.035.053-.038.067-.024.075-.022.077-.019.09-.012.095-.007.104-.005.155.005.158.014.175.024.183.032.147.024.107.015.058.018.023.001-.096-.959.015-.009v-.003l-.015-.006-.031-.011-.108-.023-.167-.029-.106-.023-.109-.008-.104-.012-.105-.016-.1-.01-.107-.003h-.108l-.107-.001-.165.001-.165.01-.151.019-.143.02-.138.029-.127.032-.118.045-.105.044-.052.034-.049.025-.048.028-.047.023-.039.044-.036.032-.041.035-.035.035-.071.078-.024.047-.027.042-.029.045-.022.048-.022.049-.013.05-.046.143-.042.145-.027.145-.01.143-.014.155.008.144.008.153.023.148h-.435l.079.82h1.005l.071-.008.062-.009.068-.008h.066l.161.015.07.01.07.024.06.025.057.03.056.036.047.038.048.045.041.045.034.058.028.066.027.062.022.074.016.079.012.083.004.081-.004.081-.008.069-.02.069-.015.03-.018.033-.016.022-.017.029-.05.043-.025.024-.03.021-.066.039-.066.032h-.035l-.027.009-.033.01h-1.681l.066.687h4.979l-.027.064-.056.114-.059.113-.065.105-.07.102-.072.094-.079.097-.087.098-.088.081-.187.163-.102.071-.111.073-.113.064-.116.065-.118.059.815.729.078-.032.079-.044.087-.043.08-.043.077-.059.076-.055.081-.057.078-.06.091-.078.088-.089.088-.082.089-.096.08-.099.085-.103.073-.099.084-.109.147-.226.07-.126.075-.126.068-.122.068-.135.063-.141zm3.677-2.182-.014.06-.019.062-.019.043-.016.048-.026.039-.025.035-.025.019-.025.024h-1.072l.034-.024.023-.019.03-.026.021-.033.021-.038.014-.04.02-.04.013-.035.012-.053.006-.045.001-.05.007-.055-.007-.121-.016-.132-.003-.042-.013-.038-.014-.043-.017-.037-.022-.036-.022-.031-.027-.023-.027-.03-.07-.042-.041-.013-.04-.014-.043-.015-.101-.01-.054-.004-.038.004-.039.004-.035.008-.03.025-.035.015-.032.026-.033.033-.022.031-.031.036-.022.037-.018.036-.013.043-.018.037-.005.038-.011.033v.124l.012.074.013.074.017.07.023.064.029.053.034.054.037.048.043.039.047.031.057.028.059.03.065.017.068.009.076.011h2.383l.069.708h-2.669l-.108-.005-.098-.008-.097-.013-.095-.011-.092-.024-.086-.021-.084-.031-.087-.036-.091-.044-.086-.052-.087-.049-.074-.058-.074-.066-.07-.063-.06-.077-.063-.075-.054-.086-.045-.084-.042-.088-.041-.101-.035-.1-.026-.102-.023-.113-.022-.114-.002-.069-.009-.076-.002-.074.002-.068.009-.067.009-.076.015-.063.018-.058.022-.059.025-.065.03-.062.034-.059.034-.058.04-.054.045-.053.052-.056.052-.059.054-.045.062-.056.059-.037.063-.042.072-.036.067-.035.077-.028.073-.025.081-.027.082-.019.081-.015.084-.011.09-.014.097-.002.094-.005h.085l.084.005.079.002.077.019.082.006.076.023.078.016.076.022.068.029.075.031.073.033.066.034.066.043.065.044.063.045.066.045.062.052.055.058.049.05.053.058.048.062.038.059.045.062.038.054.029.064.032.06.022.066.022.068.024.067.014.064.009.068.01.08.006.1v.116l-.011.098z" style="fill:#fff;fill-opacity:1;fill-rule:evenodd;stroke:none" transform="translate(-265.292 95.625)"/><path d="M-373.67 79.101h24.899v24.897h-24.899z" style="fill:#fff;fill-opacity:1;fill-rule:evenodd;stroke:none"/><path d="m0 0-4.923 4.795-1.183-.009h-1.966v.571l1.966.015 1.207.015L.383.051zm-1.609-.031-3.314 3.197h-1.183l-1.962-.01-.001.575 1.963.018 1.21.012L-1.227.025zm-4.497-7.057L-7.924-8.88l-.058.38 1.876 1.916 2.93 3.001v3.149h.568l.027-3.177zm0 2.157 1.3 1.348v3.149h.568l.03-3.177-1.898-1.855-1.847-1.805-.051.377zM-10.2-1.218l-1.044 1.093L-10.2.898l2.146 2.093L-6.106.944l1.125-1.181-1.125-1.102-2.065-2.014zm0-4.673-1.209-.01-5.278 5.332.379.055 4.926-4.793h1.182l1.963.005v-.57zm-4.504 5.404 3.319-3.189 1.185.001 1.963.004v-.574l-1.963-.019-1.215-.015-3.668 3.738zm6.399 6.864L-10.2 4.416l-1.3-1.344V-.075h-.571l-.025 3.169 1.896 1.859 1.846 1.807zm-1.895.198 1.819 1.789.053-.378L-10.2 6.07l-2.929-2.998V-.075h-.572l-.023 3.169zm5.408-.215v3.461l-3.503-.01-1.905-1.998-4.454-4.689H-18V-.274l6.468-6.687v-3.289h3.294l2.132 2.133 4.387 4.39h3.233V0Z" style="fill:#ce0f3e;fill-opacity:1;fill-rule:evenodd;stroke:none" transform="translate(-352.979 91.713)"/><path d="M0 0h.505v-2.652h-.544v1.817h-.722v.336C-.334-.458 0-.25 0 0" style="fill:#fff;fill-opacity:1;fill-rule:nonzero;stroke:none" transform="translate(-373.697 72.09)"/><path d="M0 0c.266 0 .511.16.511.395 0 .237-.24.417-.511.417-.276 0-.512-.18-.512-.417C-.512.16-.263 0 0 0m-.035 1.318c.73 0 1.167-.661 1.167-1.348C1.125-.695.736-1.357.037-1.357c-.467-.01-.933.245-1.02.662l.553.053a.44.44 0 0 1 .395-.222c.336-.008.561.282.62.598C.447-.451.179-.491-.073-.491c-.541-.003-.982.394-.982.886.01.507.46.923 1.02.923" style="fill:#fff;fill-opacity:1;fill-rule:nonzero;stroke:none" transform="translate(-370.854 70.795)"/><path d="M0 0h.505v-2.652h-.543v1.817h-.723v.336C-.334-.458 0-.25 0 0" style="fill:#fff;fill-opacity:1;fill-rule:nonzero;stroke:none" transform="translate(-367.676 72.09)"/><path d="M0 0h.508v-2.652h-.542v1.817h-.724v.336C-.328-.458 0-.25 0 0" style="fill:#fff;fill-opacity:1;fill-rule:nonzero;stroke:none" transform="translate(-364.669 72.09)"/><path d="m0 0 .387.226c.161-.261.277-.418.38-.418.121 0 .227.079.227.192v.598H-.138v.4H3.28v-.4h-.482v-2.337h-.495v1.193h-.547l-.196.399h.743v.745h-.824v-.694c.006-.275-.18-.501-.41-.501-.072-.007-.134.018-.164.051l.765-1.02-.407-.173Z" style="fill:#fff;fill-opacity:1;fill-rule:nonzero;stroke:none" transform="translate(-362.005 71.14)"/><path d="m0 0 .319.25 1.383-1.364h-.44Z" style="fill:#fff;fill-opacity:1;fill-rule:nonzero;stroke:none" transform="translate(-360.932 73.252)"/><path d="M0 0a.69.69 0 0 0-.245-.082c-.064 0-.172.043-.326.13a.475.475 0 0 0 .106-.322c0-.39-.359-.708-.796-.708-.524 0-1.049.437-1.311 1.095l.371.159c.212-.519.572-.871.913-.871.203-.01.372.186.372.422 0 .269-.364.449-.728.358l-.112.335c.353.057.605.224.605.405 0 .159-.122.292-.273.292-.22-.004-.476-.13-.715-.347l-.242.283c.255.276.601.436.957.436.421-.004.765-.298.765-.664-.006-.144-.079-.3-.217-.452.206-.126.408-.197.574-.197.077 0 .184.032.302.101v.79h-.439v.4H.976v-.4H.494v-2.337H0Z" style="fill:#fff;fill-opacity:1;fill-rule:nonzero;stroke:none" transform="translate(-354.887 70.575)"/><path d="M0 0h-.478v.4H.975V0H.492v-2.337H0Z" style="fill:#fff;fill-opacity:1;fill-rule:nonzero;stroke:none" transform="translate(-353.554 71.738)"/><path d="M0 0v.943h-.988V.052c.009-.18.197-.33.439-.33.179 0 .385.106.549.278m0-.451a.852.852 0 0 0-.549-.226c-.51 0-.926.35-.926.777v.843h-.292v.4H.976v-.4H.498v-2.337H0Z" style="fill:#fff;fill-opacity:1;fill-rule:nonzero;stroke:none" transform="translate(-350.936 70.795)"/><path d="M0 0a.85.85 0 0 0-.494-.187c-.47 0-.849.355-.849.79-.008.453.388.823.866.823a.75.75 0 0 0 .208-.035l.075-.38a1.3 1.3 0 0 1-.215.011.425.425 0 0 1-.44-.419.362.362 0 0 1 .355-.377c.168 0 .347.091.494.25V1.62h-1.58v.4h3.615v-.4H.492v-.469c.101.119.308.183.552.183.407 0 .742-.297.742-.657-.009-.404-.225-.802-.607-1.095l-.35.295c.274.21.432.495.432.774a.299.299 0 0 1-.303.3C.796.951.618.83.492.626V-.717H0Z" style="fill:#fff;fill-opacity:1;fill-rule:nonzero;stroke:none" transform="translate(-348.502 70.118)"/><path d="m0 0 .318.25L1.7-1.114h-.441Z" style="fill:#fff;fill-opacity:1;fill-rule:nonzero;stroke:none" transform="translate(-349.731 73.252)"/><path d="M0 0h-.485v.4h.43a.806.806 0 0 0-.062.3c.006.465.506.846 1.131.846.655-.005 1.29-.442 1.64-1.118h-.491c-.289.444-.722.714-1.149.714C.662 1.152.377.944.377.7c0-.112.015-.21.059-.3h.535V0H.487v-2.337H0Z" style="fill:#fff;fill-opacity:1;fill-rule:nonzero;stroke:none" transform="translate(-344.868 71.738)"/><path d="M0 0c-.28-.02-.546-.292-.66-.672l-.369.198a.73.73 0 0 0 .152.323c-.159.139-.294.218-.387.218-.313-.003-.568-.209-.568-.469 0-.292.358-.612.901-.793l-.224-.331c-.655.224-1.096.672-1.096 1.124-.005.485.441.873.987.873A.973.973 0 0 0-.576.149.787.787 0 0 0 0 .42v.423h-2.492v.4H.971v-.4h-.48v-2.337H0Z" style="fill:#fff;fill-opacity:1;fill-rule:nonzero;stroke:none" transform="translate(-341.528 70.895)"/><path d="M0 0c.162.027.274.089.274.158C.282.23.23.314.139.402l-.905.745c-.209.19-.327.398-.327.573v.969h-.311v.4h2.463v-.4H.767v-.745a.57.57 0 0 0-.493-.55c-.21.186-.269.237-.315.294.184.032.315.201.315.403v.598h-.876V1.642c-.007-.077.047-.155.139-.223L.578.525C.718.378.797.271.797.202.803-.031.578-.248.274-.295Z" style="fill:#fff;fill-opacity:1;fill-rule:nonzero;stroke:none" transform="translate(-339.272 69.049)"/><path d="M0 0h.361L.116-.945h-.604z" style="fill:#fff;fill-opacity:1;fill-rule:nonzero;stroke:none" transform="translate(-336.158 72.836)"/><path d="M0 0h.362L.115-.945h-.603z" style="fill:#fff;fill-opacity:1;fill-rule:nonzero;stroke:none" transform="translate(-334.465 72.836)"/><path d="M0 0a.878.878 0 0 0-.496-.187c-.471 0-.852.355-.852.79-.003.453.388.823.87.823a.755.755 0 0 0 .207-.035l.077-.38a1.337 1.337 0 0 1-.216.011.425.425 0 0 1-.441-.419.358.358 0 0 1 .355-.377c.168 0 .349.091.496.25V1.62h-1.581v.4h3.615v-.4H.492v-.469c.098.119.305.183.549.183.41 0 .739-.297.739-.657-.006-.404-.221-.802-.601-1.095L.82-.123c.278.21.436.495.436.774.009.165-.131.3-.3.3C.795.951.617.83.492.626V-.717H0Z" style="fill:#fff;fill-opacity:1;fill-rule:nonzero;stroke:none" transform="translate(-332.161 70.118)"/><path d="M-331.918 73.258h.605v-.544h-.605zm-1.604-.03.294.274 1.538-1.364h-.443z" style="fill:#fff;fill-opacity:1;fill-rule:nonzero;stroke:none"/><path d="M0 0h-.483v.4h.434a.739.739 0 0 0-.065.3c.009.465.509.846 1.125.846.66-.005 1.298-.442 1.646-1.118h-.493c-.287.444-.723.714-1.153.714C.664 1.152.38.944.38.7.38.588.399.49.437.4h.535V0H.488v-2.337H0Z" style="fill:#fff;fill-opacity:1;fill-rule:nonzero;stroke:none" transform="translate(-329.737 71.738)"/><path d="m0 0-1.182-.676-.189.273.766.43c-.491.167-.825.545-.825.945-.004.361.321.65.717.65H.05v.344h-1.723v.4h2.719v-.4h-.5v-.694H-.55c-.237 0-.439-.11-.439-.249 0-.36.345-.65.768-.65h.164c0 .265.171.478.382.478C.533.854.709.709.709.529A.523.523 0 0 0 .492.123c.213-.325.29-.431.325-.526l-.492-.07A4.8 4.8 0 0 0 0 0" style="fill:#fff;fill-opacity:1;fill-rule:nonzero;stroke:none" transform="translate(-327.216 69.772)"/><path d="M0 0h-1.1c-.178-.01-.329-.116-.329-.257-.006-.336.3-.727.798-1.045l-.245-.277c-.617.391-.98.895-.98 1.352-.003.344.336.624.756.624H0V.79h-2.089v.4H.973v-.4H.492v-2.337H0Z" style="fill:#fff;fill-opacity:1;fill-rule:nonzero;stroke:none" transform="translate(-324.198 70.948)"/><path d="M0 0h.572L.166-.946h-.413z" style="fill:#fff;fill-opacity:1;fill-rule:nonzero;stroke:none" transform="translate(-322.615 72.635)"/><path d="M0 0h.572L.166-.946h-.41z" style="fill:#fff;fill-opacity:1;fill-rule:nonzero;stroke:none" transform="translate(-320.952 72.635)"/><path d="M0 0h-.508v.361c0 .147.016.258.043.345.021.088.069.16.138.229a.721.721 0 0 0 .269.16L.04.887a.44.44 0 0 1-.215-.14.415.415 0 0 1-.068-.243H0Zm.841 0H.338v.361c0 .147.013.261.039.345a.49.49 0 0 0 .144.229.733.733 0 0 0 .266.16L.884.887a.495.495 0 0 1-.217-.14.416.416 0 0 1-.07-.243h.244z" style="fill:#fff;fill-opacity:1;fill-rule:nonzero;stroke:none" transform="translate(-314.655 71.138)"/><path d="m0 0 .517-.166C.439-.456.304-.665.123-.81c-.181-.14-.42-.207-.7-.207-.35 0-.641.121-.867.359-.225.24-.337.571-.337.982 0 .439.112.786.337 1.025.23.243.525.367.901.367.32 0 .581-.094.783-.288.119-.111.213-.274.27-.486L-.015.816a.56.56 0 0 1-.196.323.58.58 0 0 1-.363.12.603.603 0 0 1-.475-.212c-.12-.136-.18-.368-.18-.686 0-.329.054-.566.179-.709A.578.578 0 0 1-.588-.56a.53.53 0 0 1 .371.138c.103.088.178.23.217.422" style="fill:#fff;fill-opacity:1;fill-rule:nonzero;stroke:none" transform="translate(-311.602 70.536)"/><path d="M0 0v2.644h1.953V2.19H.536v-.583H1.86v-.449H.536V.435h1.471V0Z" style="fill:#fff;fill-opacity:1;fill-rule:nonzero;stroke:none" transform="translate(-310.631 69.567)"/><path d="M0 0v2.644h.513L1.595.875v1.769h.498V0h-.534L.494 1.724V0Z" style="fill:#fff;fill-opacity:1;fill-rule:nonzero;stroke:none" transform="translate(-308.164 69.567)"/><path d="M0 0v2.19h-.788v.454h2.105V2.19H.532V0Z" style="fill:#fff;fill-opacity:1;fill-rule:nonzero;stroke:none" transform="translate(-304.913 69.567)"/><path d="M0 0v2.644h1.125c.279 0 .483-.033.616-.077a.648.648 0 0 0 .306-.249.797.797 0 0 0 .111-.42.707.707 0 0 0-.171-.492c-.12-.126-.291-.208-.526-.245a1.05 1.05 0 0 0 .286-.222c.078-.079.181-.22.308-.426L2.377 0h-.636l-.39.57a3.066 3.066 0 0 1-.282.392.37.37 0 0 1-.162.109.821.821 0 0 1-.265.03H.534V0Zm.534 1.521h.393c.26 0 .418.013.481.035.064.02.112.059.153.109.031.055.05.12.05.195 0 .095-.021.164-.07.219a.368.368 0 0 1-.199.105c-.045.003-.18.006-.392.006H.534Z" style="fill:#fff;fill-opacity:1;fill-rule:nonzero;stroke:none" transform="translate(-303.251 69.567)"/><path d="M0 0h-.585l-.233.595h-1.049L-2.09 0h-.565l1.031 2.644h.562zm-.985 1.038-.363.986-.358-.986Z" style="fill:#fff;fill-opacity:1;fill-rule:nonzero;stroke:none" transform="translate(-298.201 69.567)"/><path d="M0 0v2.616h.53V.435h1.326V0Z" style="fill:#fff;fill-opacity:1;fill-rule:nonzero;stroke:none" transform="translate(-297.905 69.567)"/><path d="M0 0h.509v-.371c0-.144-.019-.26-.041-.341a.532.532 0 0 0-.144-.23.747.747 0 0 0-.268-.158l-.098.208c.101.033.175.08.217.14a.428.428 0 0 1 .063.238H0Zm-.852 0h.505v-.371c0-.144-.012-.26-.037-.341a.557.557 0 0 0-.142-.23.734.734 0 0 0-.265-.158l-.103.208c.103.033.176.08.22.14a.42.42 0 0 1 .066.238h-.244z" style="fill:#fff;fill-opacity:1;fill-rule:nonzero;stroke:none" transform="translate(-294.854 72.211)"/><path d="M0 0v2.19h-.783v.454h2.1V2.19H.536V0Z" style="fill:#fff;fill-opacity:1;fill-rule:nonzero;stroke:none" transform="translate(-292.204 69.567)"/><path d="M0 0c0 .272.042.498.127.677.059.13.138.257.241.362.108.111.217.185.345.238.162.071.352.107.567.107.392 0 .701-.124.937-.366.232-.24.35-.573.35-1.007 0-.422-.118-.761-.35-.998-.231-.241-.542-.362-.929-.362-.395 0-.709.121-.935.359C.122-.75 0-.419 0 0m.548.019c0-.299.081-.523.21-.682a.685.685 0 0 1 .53-.229c.211 0 .384.076.522.229.136.159.202.383.202.69 0 .304-.065.527-.195.679a.669.669 0 0 1-.529.221.662.662 0 0 1-.533-.228C.618.55.548.322.548.019" style="fill:#fff;fill-opacity:1;fill-rule:nonzero;stroke:none" transform="translate(-290.722 70.868)"/><path d="M0 0v1.11l-.969 1.534h.626l.618-1.049.609 1.049h.617L.529 1.105V0Z" style="fill:#fff;fill-opacity:1;fill-rule:nonzero;stroke:none" transform="translate(-286.085 69.567)"/><path d="M0 0c0 .272.04.498.116.677.062.13.15.257.248.362.105.111.22.185.342.238.164.071.354.107.571.107.389 0 .695-.124.929-.366.233-.24.352-.573.352-1.007 0-.422-.114-.761-.352-.998-.225-.241-.54-.362-.925-.362-.394 0-.704.121-.935.359C.115-.75 0-.419 0 0m.544.019c0-.299.068-.523.208-.682a.684.684 0 0 1 .527-.229c.209 0 .387.076.523.229.139.159.207.383.207.69 0 .304-.068.527-.202.679a.665.665 0 0 1-.528.221.662.662 0 0 1-.533-.228C.612.55.544.322.544.019" style="fill:#fff;fill-opacity:1;fill-rule:nonzero;stroke:none" transform="translate(-284.424 70.868)"/><path d="M0 0h.532v-1.435c0-.229.011-.375.018-.44a.49.49 0 0 1 .165-.263c.087-.071.205-.097.355-.097.152 0 .263.026.344.096a.364.364 0 0 1 .139.222c.01.092.018.242.018.45V0h.535v-1.395c0-.317-.011-.545-.045-.671a.733.733 0 0 0-.466-.543 1.386 1.386 0 0 0-.511-.083c-.251 0-.442.031-.573.092a.743.743 0 0 0-.309.226.652.652 0 0 0-.151.289A3.214 3.214 0 0 0 0-1.416Z" style="fill:#fff;fill-opacity:1;fill-rule:nonzero;stroke:none" transform="translate(-281.453 72.211)"/><path d="m0 0 .521.053C.55-.118.613-.252.716-.335c.089-.085.22-.121.38-.121.173 0 .3.036.39.111.084.076.129.154.129.255a.22.22 0 0 1-.057.158c-.033.046-.097.085-.188.113a3.946 3.946 0 0 1-.427.118C.658.371.458.457.338.56a.68.68 0 0 0-.242.529.69.69 0 0 0 .114.38.753.753 0 0 0 .328.267c.148.062.319.094.528.094.328 0 .581-.077.743-.218a.782.782 0 0 0 .264-.582l-.532-.025a.494.494 0 0 1-.147.297.592.592 0 0 1-.339.087.613.613 0 0 1-.364-.099.19.19 0 0 1-.084-.162c0-.067.03-.115.079-.162.067-.052.231-.112.492-.175.255-.065.452-.125.571-.188a.77.77 0 0 0 .296-.272.807.807 0 0 0-.024-.844.758.758 0 0 0-.356-.294 1.472 1.472 0 0 0-.576-.098c-.332 0-.588.076-.765.232C.143-.515.04-.294 0 0" style="fill:#fff;fill-opacity:1;fill-rule:nonzero;stroke:none" transform="translate(-277.895 70.422)"/><path d="M-275.314 72.211h.535v-2.644h-.535z" style="fill:#fff;fill-opacity:1;fill-rule:nonzero;stroke:none"/><path d="M0 0v2.644h.524L1.609.875v1.769h.492V0h-.532L.502 1.724V0Z" style="fill:#fff;fill-opacity:1;fill-rule:nonzero;stroke:none" transform="translate(-274.271 69.567)"/><path d="m0 0 .52-.166C.434-.456.311-.665.122-.81c-.184-.14-.417-.207-.699-.207-.353 0-.641.121-.865.359-.225.24-.34.571-.34.982 0 .439.115.786.34 1.025.226.243.526.367.897.367.323 0 .583-.094.785-.288.124-.111.209-.274.27-.486L-.017.816a.529.529 0 0 1-.198.323.562.562 0 0 1-.36.12.603.603 0 0 1-.476-.212c-.124-.136-.183-.368-.183-.686 0-.329.058-.566.179-.709A.582.582 0 0 1-.588-.56c.142 0 .271.045.37.138.102.088.172.23.218.422" style="fill:#fff;fill-opacity:1;fill-rule:nonzero;stroke:none" transform="translate(-269.917 70.536)"/><path d="M0 0v2.644h1.961V2.19H.532v-.583H1.86v-.449H.532V.435h1.476V0Z" style="fill:#fff;fill-opacity:1;fill-rule:nonzero;stroke:none" transform="translate(-268.942 69.567)"/><path d="M0 0h-.506v1.905a1.701 1.701 0 0 0-.654-.384v.458c.131.045.272.129.434.249a.915.915 0 0 1 .314.421H0Z" style="fill:#fff;fill-opacity:1;fill-rule:nonzero;stroke:none" transform="translate(-264.272 69.567)"/><path d="m0 0 .491.054a.387.387 0 0 1 .093-.227.323.323 0 0 1 .202-.071c.103 0 .195.053.27.149.076.095.114.296.134.597a.616.616 0 0 0-.472-.22.725.725 0 0 0-.541.237.89.89 0 0 0-.225.628c0 .269.08.483.239.645.16.167.36.249.61.249a.8.8 0 0 0 .651-.311c.178-.209.266-.547.266-1.022 0-.482-.098-.831-.274-1.046a.858.858 0 0 0-.697-.32c-.203 0-.376.053-.502.166A.815.815 0 0 0 0 0m1.15 1.104c0 .17-.039.295-.113.379-.077.096-.163.138-.261.138a.295.295 0 0 1-.232-.111c-.066-.073-.095-.193-.095-.363 0-.17.037-.297.102-.373A.305.305 0 0 1 .808.657c.09 0 .173.031.238.111a.509.509 0 0 1 .104.336" style="fill:#fff;fill-opacity:1;fill-rule:nonzero;stroke:none" transform="translate(-263.505 70.175)"/><path d="M0 0h-.504v1.905a1.68 1.68 0 0 0-.654-.384v.458c.134.045.277.129.432.249a.937.937 0 0 1 .32.421H0Z" style="fill:#fff;fill-opacity:1;fill-rule:nonzero;stroke:none" transform="translate(-260.17 69.567)"/><path d="M0 0h-.512v1.905a1.708 1.708 0 0 0-.648-.384v.458c.127.045.269.129.429.249a.964.964 0 0 1 .316.421H0Z" style="fill:#fff;fill-opacity:1;fill-rule:nonzero;stroke:none" transform="translate(-258.314 69.567)"/><path d="m0 0 .137-2.026H0c-.181.607-.44 1.043-.777 1.31-.337.266-.742.399-1.213.399a1.96 1.96 0 0 1-1.072-.301c-.32-.2-.571-.52-.754-.96-.184-.439-.275-.986-.275-1.639 0-.539.087-1.006.259-1.402.173-.395.433-.698.781-.909a2.238 2.238 0 0 1 1.188-.316c.387 0 .728.082 1.024.248.296.165.621.494.976.986l.136-.088c-.299-.53-.648-.918-1.046-1.164-.398-.246-.872-.369-1.419-.369-.988 0-1.752.365-2.294 1.098-.405.545-.607 1.187-.607 1.926 0 .593.134 1.14.4 1.638.267.498.633.884 1.101 1.158.467.274.978.411 1.531.411.431 0 .856-.106 1.275-.317.123-.064.211-.096.264-.096.079 0 .147.028.206.083.076.08.13.189.163.33z" style="fill:#fff;fill-opacity:1;fill-rule:nonzero;stroke:none" transform="translate(-429.667 40.084)"/><path d="M0 0h1.863c-.014.256-.045.439-.092.544a.885.885 0 0 1-.327.387.836.836 0 0 1-.455.141.908.908 0 0 1-.653-.284C.144.599.032.335 0 0m0-.256c-.003-.598.142-1.067.435-1.407.293-.339.637-.509 1.033-.509.263 0 .492.073.688.217.194.146.358.394.489.746l.137-.088a2.106 2.106 0 0 0-.536-1.097 1.434 1.434 0 0 0-1.112-.494c-.484 0-.898.188-1.242.564-.344.377-.516.883-.516 1.519 0 .688.176 1.225.53 1.61.352.386.796.578 1.329.578.451 0 .822-.148 1.112-.446.29-.297.435-.695.435-1.193z" style="fill:#fff;fill-opacity:1;fill-rule:nonzero;stroke:none" transform="translate(-428.124 36.754)"/><path d="M0 0c.472.567.922.851 1.349.851.22 0 .409-.054.567-.164.158-.11.284-.291.378-.543.065-.175.097-.445.097-.808v-1.719c0-.254.02-.428.061-.518a.36.36 0 0 1 .156-.171c.072-.041.205-.062.398-.062v-.158H1.015v.158h.084c.187 0 .319.028.393.086a.444.444 0 0 1 .156.253c.012.043.018.181.018.412v1.648c0 .367-.048.632-.143.798-.096.165-.256.248-.481.248C.693.311.346.121 0-.26v-2.123c0-.271.016-.44.049-.505a.404.404 0 0 1 .168-.186c.072-.04.218-.06.438-.06v-.158h-1.991v.158h.088c.205 0 .343.052.416.156.071.104.107.302.107.595v1.494c0 .485-.011.778-.033.884C-.78.1-.814.172-.859.211a.28.28 0 0 1-.182.056.828.828 0 0 1-.295-.066l-.066.158 1.213.492H0Z" style="fill:#fff;fill-opacity:1;fill-rule:nonzero;stroke:none" transform="translate(-423.633 37.281)"/><path d="M0 0v-1.323h.94v-.307H0v-2.611c0-.26.037-.436.112-.527A.355.355 0 0 1 .4-4.904c.096 0 .19.029.281.09.091.06.161.148.211.266h.171c-.102-.287-.247-.503-.435-.649a.943.943 0 0 0-.58-.217.785.785 0 0 0-.395.112.678.678 0 0 0-.286.321c-.062.139-.092.354-.092.644v2.707h-.638v.144c.162.065.326.174.495.328.168.154.318.336.45.547.068.111.161.315.282.611z" style="fill:#fff;fill-opacity:1;fill-rule:nonzero;stroke:none" transform="translate(-419.137 39.337)"/><path d="M0 0v-.904C.337-.301.683 0 1.037 0a.564.564 0 0 0 .4-.146.453.453 0 0 0 .158-.341.403.403 0 0 0-.114-.29.365.365 0 0 0-.272-.119c-.103 0-.218.051-.345.152-.128.101-.222.152-.284.152-.053 0-.11-.03-.171-.088C.277-.8.141-.999 0-1.273v-1.93c0-.222.028-.39.084-.506a.458.458 0 0 1 .202-.197c.096-.053.236-.079.417-.079v-.158h-2.061v.158c.205 0 .358.032.457.097a.374.374 0 0 1 .154.224c.015.049.022.192.022.426v1.561c0 .467-.01.747-.028.837a.337.337 0 0 1-.106.195.297.297 0 0 1-.191.061.847.847 0 0 1-.308-.066l-.044.158L-.184 0Z" style="fill:#fff;fill-opacity:1;fill-rule:nonzero;stroke:none" transform="translate(-416.628 38.132)"/><path d="M0 0v1.533a9.175 9.175 0 0 1-.857-.373c-.231-.13-.397-.263-.496-.404a.782.782 0 0 1-.15-.462c0-.211.063-.386.189-.525a.572.572 0 0 1 .435-.208c.223 0 .516.145.879.439m0-.286C-.413-.605-.672-.79-.778-.84a1.188 1.188 0 0 0-.505-.109.907.907 0 0 0-.688.285c-.18.19-.27.44-.27.752 0 .195.044.365.132.51.12.198.328.386.626.562.297.176.792.389 1.483.641v.158c0 .401-.063.678-.191.826-.127.151-.313.225-.556.225a.622.622 0 0 1-.439-.15.445.445 0 0 1-.167-.342l.008-.255c0-.135-.034-.239-.103-.312a.351.351 0 0 0-.27-.11.344.344 0 0 0-.266.114.448.448 0 0 0-.103.313c0 .251.129.482.386.693.258.211.62.316 1.086.316.357 0 .65-.059.879-.179a.829.829 0 0 0 .382-.426c.053-.127.079-.385.079-.773V.531c0-.383.008-.619.022-.705.015-.087.039-.144.073-.174a.171.171 0 0 1 .116-.044c.047 0 .088.01.123.031.062.038.18.145.356.321v-.246c-.328-.44-.641-.659-.94-.659a.429.429 0 0 0-.343.149c-.085.1-.129.27-.132.51" style="fill:#fff;fill-opacity:1;fill-rule:nonzero;stroke:none" transform="translate(-412.528 34.855)"/><path d="M0 0v-5.34c0-.252.018-.419.055-.5a.39.39 0 0 1 .169-.187c.077-.042.219-.064.427-.064v-.158h-1.973v.158c.184 0 .31.019.377.058.068.037.121.1.159.188.038.088.057.256.057.505v3.656c0 .454-.01.734-.031.838-.02.104-.054.175-.099.213a.26.26 0 0 1-.173.057.816.816 0 0 1-.29-.071l-.075.155 1.2.492z" style="fill:#fff;fill-opacity:1;fill-rule:nonzero;stroke:none" transform="translate(-409.43 40.238)"/><path d="M0 0c-.533 0-.961-.197-1.283-.593-.401-.493-.602-1.213-.602-2.163 0-.972.208-1.72.624-2.245.319-.398.741-.597 1.266-.597.559 0 1.021.217 1.386.655.365.435.547 1.125.547 2.064 0 1.02-.2 1.781-.602 2.282C1.014-.199.569 0 0 0m.084.321c.773 0 1.443-.293 2.011-.881.566-.587.85-1.321.85-2.199 0-.906-.286-1.657-.857-2.254C1.516-5.611.825-5.91.013-5.91c-.82 0-1.509.291-2.067.874-.559.583-.837 1.337-.837 2.263 0 .946.322 1.719.966 2.316.56.519 1.229.778 2.009.778" style="fill:#fff;fill-opacity:1;fill-rule:nonzero;stroke:none" transform="translate(-403.137 39.763)"/><path d="M0 0v-2.646c0-.375.041-.612.123-.712a.544.544 0 0 1 .435-.193h.365v-.158h-2.404v.158h.18a.6.6 0 0 1 .321.088.46.46 0 0 1 .2.237c.037.1.055.293.055.58V0h-.782v.316h.782V.58c0 .401.065.741.194 1.019.128.279.325.503.591.675.264.171.563.257.894.257.308 0 .59-.1.848-.299.17-.132.255-.28.255-.444a.352.352 0 0 0-.114-.248.346.346 0 0 0-.246-.116.393.393 0 0 0-.213.072c-.076.049-.167.152-.275.312-.109.16-.208.267-.299.324a.584.584 0 0 1-.303.083.547.547 0 0 1-.343-.108.602.602 0 0 1-.202-.334C.021 1.622 0 1.233 0 .606v-.29h1.037V0Z" style="fill:#fff;fill-opacity:1;fill-rule:nonzero;stroke:none" transform="translate(-397.991 37.698)"/><path d="M0 0v-2.646c0-.375.041-.612.123-.712a.54.54 0 0 1 .435-.193h.365v-.158h-2.404v.158h.18c.117 0 .224.029.321.088a.465.465 0 0 1 .2.237c.036.1.055.293.055.58V0h-.783v.316h.783V.58c0 .401.064.741.193 1.019.129.279.326.503.591.675.265.171.563.257.894.257.308 0 .591-.1.849-.299.169-.132.254-.28.254-.444a.352.352 0 0 0-.114-.248.343.343 0 0 0-.246-.116.399.399 0 0 0-.213.072c-.075.049-.166.152-.275.312-.108.16-.208.267-.299.324a.579.579 0 0 1-.303.083.547.547 0 0 1-.343-.108.607.607 0 0 1-.202-.334C.02 1.622 0 1.233 0 .606v-.29h1.037V0Z" style="fill:#fff;fill-opacity:1;fill-rule:nonzero;stroke:none" transform="translate(-395.156 37.698)"/><path d="M0 0a.427.427 0 0 0 .314-.13.426.426 0 0 0 .129-.313.436.436 0 0 0-.129-.317A.426.426 0 0 0 0-.893a.432.432 0 0 0-.317.133.431.431 0 0 0-.132.317c0 .123.043.227.13.313.086.087.193.13.319.13m.364-2.106V-5.34c0-.252.018-.419.055-.503a.387.387 0 0 1 .163-.186c.071-.041.203-.062.393-.062v-.158H-.98v.158c.196 0 .328.019.395.058.067.037.121.1.161.188.039.088.059.256.059.505v1.552c0 .436-.013.719-.04.848-.02.093-.053.159-.096.196a.277.277 0 0 1-.181.054.85.85 0 0 1-.298-.066l-.062.158 1.213.492z" style="fill:#fff;fill-opacity:1;fill-rule:nonzero;stroke:none" transform="translate(-392.708 40.238)"/><path d="M0 0c-.108-.53-.321-.938-.637-1.223-.317-.287-.667-.429-1.05-.429-.458 0-.856.191-1.196.575-.34.384-.51.902-.51 1.557 0 .632.188 1.146.565 1.542.376.395.829.592 1.356.592.395 0 .721-.104.975-.313.255-.21.383-.428.383-.653a.354.354 0 0 0-.108-.27.417.417 0 0 0-.301-.103c-.173 0-.303.055-.391.167-.05.061-.083.178-.099.351a.575.575 0 0 1-.178.396c-.102.088-.245.131-.426.131a.872.872 0 0 1-.708-.325c-.237-.287-.356-.667-.356-1.138a2.3 2.3 0 0 1 .354-1.272c.236-.368.555-.552.956-.552.287 0 .545.098.773.294.161.135.318.38.471.735z" style="fill:#fff;fill-opacity:1;fill-rule:nonzero;stroke:none" transform="translate(-387.813 35.518)"/><path d="M0 0h1.864c-.015.256-.046.439-.093.544a.878.878 0 0 1-.782.528.905.905 0 0 1-.652-.284C.144.599.033.335 0 0m0-.256c-.002-.598.143-1.067.436-1.407.292-.339.637-.509 1.032-.509.264 0 .493.073.688.217.195.146.358.394.49.746l.136-.088a2.091 2.091 0 0 0-.536-1.097 1.433 1.433 0 0 0-1.112-.494c-.483 0-.897.188-1.241.564-.345.377-.517.883-.517 1.519 0 .688.177 1.225.53 1.61.353.386.796.578 1.329.578.451 0 .822-.148 1.112-.446.29-.297.435-.695.435-1.193z" style="fill:#fff;fill-opacity:1;fill-rule:nonzero;stroke:none" transform="translate(-386.561 36.754)"/><path d="M0 0v.193c.302.101.536.255.702.464.165.21.248.432.248.666a.237.237 0 0 1-.04.141c-.02.026-.041.04-.061.04-.033 0-.103-.03-.211-.088a.463.463 0 0 0-.51.088.471.471 0 0 0-.128.351c0 .143.055.266.166.369a.566.566 0 0 0 .401.154c.194 0 .366-.084.516-.253.151-.168.227-.392.227-.67 0-.302-.105-.582-.314-.842C.786.354.455.15 0 0" style="fill:#fff;fill-opacity:1;fill-rule:nonzero;stroke:none" transform="translate(-383.041 32.49)"/><path d="m0 0 .136-2.026H0c-.182.607-.441 1.043-.778 1.31-.337.266-.742.399-1.213.399a1.96 1.96 0 0 1-1.072-.301c-.32-.2-.571-.52-.754-.96-.183-.439-.275-.986-.275-1.639 0-.539.087-1.006.26-1.402.172-.395.433-.698.779-.909a2.246 2.246 0 0 1 1.189-.316c.387 0 .728.082 1.024.248.296.165.621.494.976.986l.136-.088c-.299-.53-.647-.918-1.046-1.164-.398-.246-.871-.369-1.419-.369-.988 0-1.752.365-2.294 1.098-.405.545-.607 1.187-.607 1.926 0 .593.134 1.14.4 1.638.267.498.633.884 1.101 1.158.467.274.978.411 1.531.411.431 0 .856-.106 1.275-.317.123-.064.211-.096.264-.096a.29.29 0 0 1 .206.083c.076.08.13.189.163.33z" style="fill:#fff;fill-opacity:1;fill-rule:nonzero;stroke:none" transform="translate(-373.605 40.084)"/><path d="M0 0v-2.944c.326.357.583.586.774.687.19.102.381.151.571.151a.937.937 0 0 0 .589-.188c.164-.126.286-.324.365-.593.055-.188.083-.531.083-1.029V-5.34c0-.254.021-.429.062-.522a.34.34 0 0 1 .149-.167c.07-.041.199-.062.387-.062v-.158H1.002v.158h.093c.187 0 .317.028.391.086a.458.458 0 0 1 .154.253c.008.046.013.184.013.412v1.424c0 .439-.023.728-.068.866a.585.585 0 0 1-.218.31.618.618 0 0 1-.36.103c-.144 0-.293-.038-.449-.114C.403-2.827.217-2.982 0-3.213V-5.34c0-.275.016-.446.047-.514a.372.372 0 0 1 .171-.169c.084-.045.228-.068.433-.068v-.158h-1.995v.158a.89.89 0 0 1 .422.083.313.313 0 0 1 .14.168c.035.081.053.248.053.5v3.644c0 .46-.011.743-.033.848-.022.106-.056.177-.101.215a.276.276 0 0 1-.183.057 1.07 1.07 0 0 1-.298-.071l-.062.155L-.202 0Z" style="fill:#fff;fill-opacity:1;fill-rule:nonzero;stroke:none" transform="translate(-371.558 40.238)"/><path d="M0 0v1.533a9.175 9.175 0 0 1-.857-.373c-.231-.13-.397-.263-.496-.404a.782.782 0 0 1-.15-.462c0-.211.063-.386.189-.525a.572.572 0 0 1 .435-.208c.223 0 .516.145.879.439m0-.286C-.413-.605-.672-.79-.778-.84a1.188 1.188 0 0 0-.505-.109.906.906 0 0 0-.688.285c-.18.19-.27.44-.27.752 0 .195.044.365.132.51.12.198.328.386.626.562.297.176.792.389 1.483.641v.158c0 .401-.064.678-.191.826-.128.151-.313.225-.556.225a.624.624 0 0 1-.44-.15.447.447 0 0 1-.166-.342l.008-.255c0-.135-.034-.239-.103-.312a.351.351 0 0 0-.27-.11.34.34 0 0 0-.266.114.448.448 0 0 0-.103.313c0 .251.129.482.386.693.258.211.62.316 1.086.316.357 0 .65-.059.879-.179a.829.829 0 0 0 .382-.426c.053-.127.079-.385.079-.773V.531c0-.383.007-.619.022-.705.015-.087.039-.144.073-.174a.171.171 0 0 1 .116-.044c.047 0 .088.01.123.031.062.038.18.145.356.321v-.246c-.328-.44-.642-.659-.94-.659a.429.429 0 0 0-.343.149c-.085.1-.129.27-.132.51" style="fill:#fff;fill-opacity:1;fill-rule:nonzero;stroke:none" transform="translate(-365.959 34.855)"/><path d="M0 0c.472.567.922.851 1.349.851.22 0 .409-.054.567-.164.158-.11.284-.291.378-.543.065-.175.097-.445.097-.808v-1.719c0-.254.02-.428.061-.518a.357.357 0 0 1 .157-.171c.071-.041.204-.062.397-.062v-.158H1.015v.158h.084c.187 0 .318.028.393.086a.444.444 0 0 1 .156.253c.012.043.018.181.018.412v1.648c0 .367-.048.632-.143.798-.096.165-.256.248-.481.248C.693.311.346.121 0-.26v-2.123c0-.271.016-.44.049-.505a.4.4 0 0 1 .169-.186c.071-.04.217-.06.437-.06v-.158h-1.991v.158h.088c.205 0 .343.052.415.156.072.104.108.302.108.595v1.494c0 .485-.011.778-.033.884C-.78.1-.814.172-.859.211a.28.28 0 0 1-.182.056.828.828 0 0 1-.295-.066l-.066.158 1.213.492H0Z" style="fill:#fff;fill-opacity:1;fill-rule:nonzero;stroke:none" transform="translate(-363.072 37.281)"/><path d="M0 0v2.074c-.017.198-.07.38-.158.545a.917.917 0 0 1-.773.496c-.258 0-.488-.116-.69-.348-.267-.305-.4-.75-.4-1.336 0-.592.129-1.045.386-1.359.258-.316.545-.473.862-.473.266 0 .524.133.773.401m0-.309A2.015 2.015 0 0 0-.576-.75a1.392 1.392 0 0 0-.606-.134c-.439 0-.823.183-1.151.552-.328.367-.493.839-.493 1.417 0 .577.182 1.105.545 1.584.364.479.831.718 1.402.718.355 0 .648-.113.879-.339v.744c0 .46-.011.743-.033.848-.022.106-.056.177-.103.215a.272.272 0 0 1-.176.057.927.927 0 0 1-.303-.071l-.057.155 1.199.492h.198V.834c0-.472.011-.759.033-.864.022-.103.058-.176.105-.216a.252.252 0 0 1 .17-.063c.079 0 .184.025.316.075l.049-.153L.202-.884H0Z" style="fill:#fff;fill-opacity:1;fill-rule:nonzero;stroke:none" transform="translate(-356.902 34.75)"/><path d="M0 0h1.863c-.015.256-.045.439-.092.544a.887.887 0 0 1-.783.528.905.905 0 0 1-.652-.284C.144.599.032.335 0 0m0-.256c-.003-.598.142-1.067.435-1.407.293-.339.637-.509 1.032-.509.264 0 .493.073.688.217.195.146.358.394.49.746l.136-.088a2.091 2.091 0 0 0-.536-1.097 1.433 1.433 0 0 0-1.112-.494c-.483 0-.897.188-1.241.564-.345.377-.516.883-.516 1.519 0 .688.176 1.225.529 1.61.353.386.796.578 1.33.578.451 0 .821-.148 1.111-.446.29-.297.435-.695.435-1.193z" style="fill:#fff;fill-opacity:1;fill-rule:nonzero;stroke:none" transform="translate(-354.568 36.754)"/><path d="M0 0v-.904C.337-.301.683 0 1.037 0a.564.564 0 0 0 .4-.146.453.453 0 0 0 .158-.341.403.403 0 0 0-.114-.29.365.365 0 0 0-.272-.119c-.103 0-.218.051-.345.152-.127.101-.222.152-.284.152-.052 0-.11-.03-.171-.088C.277-.8.141-.999 0-1.273v-1.93c0-.222.028-.39.084-.506a.458.458 0 0 1 .202-.197c.097-.053.236-.079.417-.079v-.158h-2.061v.158c.205 0 .358.032.457.097a.37.37 0 0 1 .154.224c.015.049.022.192.022.426v1.561c0 .467-.01.747-.029.837a.331.331 0 0 1-.105.195.295.295 0 0 1-.191.061.85.85 0 0 1-.308-.066l-.044.158L-.184 0Z" style="fill:#fff;fill-opacity:1;fill-rule:nonzero;stroke:none" transform="translate(-350.073 38.132)"/><path d="M0 0c.293.293.466.462.518.505.132.111.274.198.427.26.152.061.303.091.452.091.252 0 .469-.073.651-.218.181-.148.303-.36.364-.638.302.352.557.582.765.692.208.11.422.164.642.164.214 0 .403-.054.569-.164.165-.11.296-.29.393-.539.065-.17.097-.436.097-.799v-1.732c0-.252.019-.425.057-.518a.364.364 0 0 1 .163-.165c.079-.045.208-.068.386-.068v-.158H3.498v.158h.083c.173 0 .308.033.405.101a.399.399 0 0 1 .145.224c.011.05.017.192.017.426v1.732c0 .328-.039.559-.118.694-.115.187-.298.281-.55.281-.155 0-.311-.038-.467-.116-.158-.077-.347-.222-.57-.433l-.009-.049.009-.188v-1.921c0-.275.016-.446.046-.514a.375.375 0 0 1 .174-.169c.085-.045.23-.068.435-.068v-.158H1.063v.158c.223 0 .376.026.459.079a.41.41 0 0 1 .174.237c.015.05.022.195.022.435v1.732c0 .328-.048.564-.145.707a.619.619 0 0 1-.54.282.983.983 0 0 1-.471-.127A1.83 1.83 0 0 1 0-.22v-2.158c0-.264.018-.435.055-.514a.365.365 0 0 1 .163-.177c.071-.04.217-.06.437-.06v-.158h-1.991v.158c.185 0 .313.02.387.06a.378.378 0 0 1 .167.188c.038.087.057.254.057.503v1.539c0 .442-.013.728-.04.857-.02.096-.052.163-.096.2a.277.277 0 0 1-.181.054.819.819 0 0 1-.294-.066l-.066.158 1.213.492H0Z" style="fill:#fff;fill-opacity:1;fill-rule:nonzero;stroke:none" transform="translate(-347.058 37.276)"/><path d="M0 0v-2.438c0-.467.011-.751.033-.856.022-.103.057-.176.106-.216a.245.245 0 0 1 .168-.063.78.78 0 0 1 .308.075l.062-.153-1.204-.497h-.198v.852c-.346-.375-.61-.611-.791-.707a1.207 1.207 0 0 0-.576-.145.923.923 0 0 0-.587.195 1.02 1.02 0 0 0-.345.503c-.064.205-.096.495-.096.871v1.797c0 .19-.021.322-.062.396a.407.407 0 0 1-.182.168c-.081.041-.226.058-.437.055V0h1.41v-2.694c0-.375.065-.621.196-.738a.678.678 0 0 1 .472-.176.99.99 0 0 1 .429.119c.159.079.349.229.569.453v2.28c0 .229-.042.383-.126.464-.083.08-.257.123-.52.129V0Z" style="fill:#fff;fill-opacity:1;fill-rule:nonzero;stroke:none" transform="translate(-337.724 38.014)"/><path d="M0 0v-4.008l1.024.936c.217.199.343.326.378.379a.19.19 0 0 1 .035.105.194.194 0 0 1-.073.151c-.048.042-.128.067-.239.073v.14h1.749v-.14a1.646 1.646 0 0 1-.6-.111 1.928 1.928 0 0 1-.525-.359L.716-3.788l1.033-1.306a9.38 9.38 0 0 1 .58-.685c.141-.138.264-.227.369-.268.073-.029.201-.044.383-.044v-.158H1.125v.158c.111.003.187.02.227.051.039.03.059.073.059.13 0 .066-.059.176-.176.324L0-4.008v-1.336c0-.261.018-.432.055-.514a.342.342 0 0 1 .156-.175c.067-.035.214-.055.439-.058v-.158h-2.047v.158c.205 0 .358.024.461.075a.32.32 0 0 1 .141.149c.044.097.065.263.065.502v3.664c0 .467-.01.751-.03.855-.021.104-.054.176-.101.215a.276.276 0 0 1-.185.06.84.84 0 0 1-.277-.076l-.074.155L-.202 0Z" style="fill:#fff;fill-opacity:1;fill-rule:nonzero;stroke:none" transform="translate(-335.562 40.238)"/><path d="M0 0v-2.944c.325.357.583.586.774.687.19.102.38.151.571.151a.939.939 0 0 0 .589-.188c.164-.126.285-.324.365-.593.055-.188.083-.531.083-1.029V-5.34c0-.254.021-.429.062-.522a.34.34 0 0 1 .149-.167c.07-.041.199-.062.387-.062v-.158H1.002v.158h.092c.188 0 .318.028.392.086a.452.452 0 0 1 .153.253c.009.046.014.184.014.412v1.424c0 .439-.023.728-.069.866a.579.579 0 0 1-.217.31.618.618 0 0 1-.36.103c-.144 0-.293-.038-.449-.114C.403-2.827.217-2.982 0-3.213V-5.34c0-.275.016-.446.046-.514a.375.375 0 0 1 .172-.169c.083-.045.228-.068.433-.068v-.158h-1.996v.158c.179 0 .32.027.422.083a.31.31 0 0 1 .141.168c.035.081.053.248.053.5v3.644c0 .46-.011.743-.033.848-.022.106-.056.177-.101.215a.278.278 0 0 1-.183.057c-.061 0-.161-.024-.299-.071l-.061.155L-.202 0Z" style="fill:#fff;fill-opacity:1;fill-rule:nonzero;stroke:none" transform="translate(-331.071 40.238)"/><path d="M0 0a.425.425 0 0 0 .314-.13.427.427 0 0 0 .13-.313.437.437 0 0 0-.13-.317A.424.424 0 0 0 0-.893a.43.43 0 0 0-.316.133.431.431 0 0 0-.132.317c0 .123.043.227.13.313A.43.43 0 0 0 0 0m.365-2.106V-5.34c0-.252.018-.419.055-.503a.38.38 0 0 1 .162-.186c.072-.041.203-.062.394-.062v-.158H-.98v.158c.196 0 .328.019.396.058.067.037.12.1.16.188.039.088.059.256.059.505v1.552c0 .436-.013.719-.039.848-.021.093-.053.159-.097.196a.276.276 0 0 1-.18.054.856.856 0 0 1-.299-.066l-.062.158 1.213.492z" style="fill:#fff;fill-opacity:1;fill-rule:nonzero;stroke:none" transform="translate(-326.729 40.238)"/><path d="M0 0v.193c.301.101.535.255.701.464.165.21.248.432.248.666a.237.237 0 0 1-.04.141c-.02.026-.041.04-.061.04a.657.657 0 0 1-.211-.088.36.36 0 0 0-.167-.04.463.463 0 0 0-.343.128.471.471 0 0 0-.127.351c0 .143.054.266.165.369a.567.567 0 0 0 .402.154c.193 0 .365-.084.516-.253.151-.168.226-.392.226-.67 0-.302-.105-.582-.314-.842C.785.354.454.15 0 0" style="fill:#fff;fill-opacity:1;fill-rule:nonzero;stroke:none" transform="translate(-325.05 32.49)"/><path d="M0 0h1.617L5.26-4.47v3.438c0 .365-.041.593-.123.685-.109.123-.28.184-.514.184h-.207V0H6.49v-.163h-.211c-.252 0-.43-.076-.536-.229-.064-.094-.096-.306-.096-.64v-5.024h-.159L1.56-1.257v-3.67c0-.366.039-.595.118-.685.112-.124.283-.184.515-.184h.21v-.163H.329v.163h.207c.255 0 .435.075.54.228.065.093.097.307.097.641v4.145a2.724 2.724 0 0 1-.394.4 1.49 1.49 0 0 1-.393.18A1.413 1.413 0 0 1 0-.163Z" style="fill:#fff;fill-opacity:1;fill-rule:nonzero;stroke:none" transform="translate(-321.152 39.948)"/><path d="M0 0v1.533a9.05 9.05 0 0 1-.857-.373c-.232-.13-.397-.263-.497-.404a.788.788 0 0 1-.149-.462c0-.211.063-.386.189-.525a.572.572 0 0 1 .435-.208c.223 0 .516.145.879.439m0-.286C-.413-.605-.673-.79-.778-.84a1.191 1.191 0 0 0-.505-.109.906.906 0 0 0-.688.285c-.181.19-.27.44-.27.752 0 .195.044.365.131.51.121.198.329.386.626.562.298.176.792.389 1.484.641v.158c0 .401-.064.678-.192.826-.127.151-.312.225-.555.225a.624.624 0 0 1-.44-.15.448.448 0 0 1-.167-.342l.009-.255a.441.441 0 0 0-.103-.312.351.351 0 0 0-.27-.11.344.344 0 0 0-.267.114.452.452 0 0 0-.103.313c0 .251.129.482.387.693.258.211.62.316 1.086.316.357 0 .65-.059.879-.179a.833.833 0 0 0 .382-.426c.053-.127.079-.385.079-.773V.531c0-.383.007-.619.022-.705.015-.087.038-.144.072-.174a.176.176 0 0 1 .117-.044c.047 0 .088.01.123.031.061.038.18.145.356.321v-.246C1.087-.726.773-.945.474-.945a.428.428 0 0 0-.342.149c-.085.1-.129.27-.132.51" style="fill:#fff;fill-opacity:1;fill-rule:nonzero;stroke:none" transform="translate(-311.972 34.855)"/><path d="M0 0v-.904C.337-.301.683 0 1.038 0a.561.561 0 0 0 .399-.146.454.454 0 0 0 .159-.341.4.4 0 0 0-.115-.29.365.365 0 0 0-.272-.119c-.103 0-.217.051-.345.152-.127.101-.222.152-.283.152-.053 0-.11-.03-.172-.088C.277-.8.141-.999 0-1.273v-1.93c0-.222.028-.39.084-.506a.458.458 0 0 1 .202-.197c.097-.053.236-.079.418-.079v-.158h-2.061v.158c.205 0 .357.032.457.097a.373.373 0 0 1 .153.224c.015.049.022.192.022.426v1.561c0 .467-.009.747-.028.837a.337.337 0 0 1-.106.195.295.295 0 0 1-.191.061.842.842 0 0 1-.307-.066l-.044.158L-.184 0Z" style="fill:#fff;fill-opacity:1;fill-rule:nonzero;stroke:none" transform="translate(-309.081 38.132)"/><path d="M0 0a.427.427 0 0 0 .314-.13.427.427 0 0 0 .13-.313.437.437 0 0 0-.13-.317A.426.426 0 0 0 0-.893a.434.434 0 0 0-.317.133.431.431 0 0 0-.132.317c0 .123.043.227.13.313.086.087.193.13.319.13m.364-2.106V-5.34c0-.252.019-.419.055-.503a.387.387 0 0 1 .163-.186c.072-.041.203-.062.393-.062v-.158H-.98v.158c.196 0 .328.019.395.058.068.037.121.1.16.188.04.088.06.256.06.505v1.552c0 .436-.013.719-.04.848-.02.093-.052.159-.096.196a.276.276 0 0 1-.18.054.856.856 0 0 1-.299-.066l-.062.158 1.213.492z" style="fill:#fff;fill-opacity:1;fill-rule:nonzero;stroke:none" transform="translate(-306.237 40.238)"/><path d="M0 0c.293.293.465.462.518.505.132.111.274.198.426.26.153.061.304.091.453.091.252 0 .469-.073.65-.218.182-.148.304-.36.365-.638.302.352.557.582.765.692.208.11.422.164.641.164.214 0 .404-.054.57-.164.165-.11.296-.29.393-.539.064-.17.097-.436.097-.799v-1.732c0-.252.019-.425.057-.518a.366.366 0 0 1 .162-.165c.079-.045.208-.068.387-.068v-.158H3.498v.158h.083c.173 0 .308.033.404.101a.389.389 0 0 1 .145.224c.012.05.018.192.018.426v1.732c0 .328-.04.559-.119.694-.114.187-.297.281-.549.281-.155 0-.311-.038-.468-.116-.157-.077-.346-.222-.569-.433l-.009-.049.009-.188v-1.921c0-.275.015-.446.046-.514a.375.375 0 0 1 .174-.169c.085-.045.23-.068.435-.068v-.158H1.063v.158c.223 0 .376.026.46.079a.413.413 0 0 1 .173.237c.015.05.022.195.022.435v1.732c0 .328-.049.564-.145.707a.62.62 0 0 1-.541.282.98.98 0 0 1-.47-.127A1.819 1.819 0 0 1 0-.22v-2.158c0-.264.018-.435.055-.514a.368.368 0 0 1 .162-.177c.072-.04.218-.06.437-.06v-.158h-1.99v.158c.184 0 .313.02.386.06a.373.373 0 0 1 .167.188c.038.087.057.254.057.503v1.539c0 .442-.013.728-.039.857-.021.096-.053.163-.097.2a.276.276 0 0 1-.18.054.819.819 0 0 1-.294-.066l-.066.158 1.213.492H0Z" style="fill:#fff;fill-opacity:1;fill-rule:nonzero;stroke:none" transform="translate(-303.565 37.276)"/><path d="M0 0v1.533c-.443-.176-.729-.301-.857-.373-.232-.13-.397-.263-.497-.404a.78.78 0 0 1-.149-.462c0-.211.063-.386.189-.525a.572.572 0 0 1 .435-.208c.222 0 .515.145.879.439m0-.286C-.414-.605-.673-.79-.778-.84a1.196 1.196 0 0 0-.506-.109.909.909 0 0 0-.688.285c-.179.19-.27.44-.27.752 0 .195.044.365.132.51.12.198.329.386.627.562.296.176.791.389 1.483.641v.158c0 .401-.064.678-.191.826-.128.151-.313.225-.557.225a.622.622 0 0 1-.439-.15.448.448 0 0 1-.167-.342l.009-.255a.441.441 0 0 0-.103-.312.354.354 0 0 0-.271-.11.34.34 0 0 0-.265.114.443.443 0 0 0-.104.313c0 .251.129.482.387.693.258.211.619.316 1.085.316.358 0 .651-.059.879-.179a.835.835 0 0 0 .383-.426c.052-.127.079-.385.079-.773V.531c0-.383.007-.619.022-.705.014-.087.038-.144.072-.174a.176.176 0 0 1 .117-.044.24.24 0 0 1 .123.031c.061.038.18.145.356.321v-.246C1.086-.726.773-.945.474-.945a.43.43 0 0 0-.343.149c-.085.1-.129.27-.131.51" style="fill:#fff;fill-opacity:1;fill-rule:nonzero;stroke:none" transform="translate(-295.479 34.855)"/><path d="M0 0c.471.567.921.851 1.349.851.22 0 .409-.054.567-.164.158-.11.284-.291.378-.543.064-.175.096-.445.096-.808v-1.719c0-.254.021-.428.062-.518a.355.355 0 0 1 .156-.171c.071-.041.204-.062.398-.062v-.158H1.015v.158h.083c.188 0 .319.028.394.086a.455.455 0 0 1 .156.253c.011.043.017.181.017.412v1.648c0 .367-.048.632-.143.798-.095.165-.255.248-.481.248C.693.311.345.121 0-.26v-2.123c0-.271.016-.44.048-.505a.4.4 0 0 1 .169-.186c.072-.04.218-.06.438-.06v-.158h-1.991v.158h.088c.205 0 .343.052.415.156.071.104.108.302.108.595v1.494c0 .485-.012.778-.033.884C-.781.1-.814.172-.86.211a.279.279 0 0 1-.182.056.819.819 0 0 1-.294-.066l-.066.158 1.213.492H0Z" style="fill:#fff;fill-opacity:1;fill-rule:nonzero;stroke:none" transform="translate(-292.592 37.281)"/><path d="M0 0c.155-.029.293-.052.413-.066.12-.015.223-.022.308-.022.304 0 .567.118.788.353.221.237.332.542.332.917 0 .257-.053.498-.158.718a1.094 1.094 0 0 1-.448.497 1.31 1.31 0 0 1-.659.164A2.57 2.57 0 0 1 0 2.478Zm0-.251v-1.735c0-.375.041-.609.123-.699.111-.13.28-.193.505-.193h.229v-.163h-2.553v.163h.224c.252 0 .432.081.54.246.059.09.088.306.088.646v3.849c0 .375-.039.608-.119.698-.114.129-.284.194-.509.194h-.224v.163H.488c.533 0 .953-.055 1.261-.165a1.74 1.74 0 0 0 .778-.556c.211-.261.316-.57.316-.927 0-.487-.16-.882-.481-1.187-.321-.305-.774-.457-1.36-.457-.144 0-.299.011-.466.031A6.226 6.226 0 0 0 0-.251" style="fill:#fff;fill-opacity:1;fill-rule:nonzero;stroke:none" transform="translate(-285.451 37.03)"/><path d="M0 0a.92.92 0 0 1-.468-.138c-.157-.092-.283-.254-.38-.486-.097-.231-.145-.529-.145-.891 0-.587.117-1.092.349-1.517.234-.425.54-.638.921-.638.284 0 .519.118.703.352.185.234.277.638.277 1.209 0 .715-.154 1.277-.461 1.687C.588-.14.323 0 0 0m.136.285c.61 0 1.099-.231 1.468-.693.314-.396.47-.851.47-1.363 0-.36-.086-.725-.259-1.094a1.897 1.897 0 0 0-.714-.835 1.891 1.891 0 0 0-1.013-.281c-.606 0-1.088.241-1.446.725a2.25 2.25 0 0 0-.452 1.371c0 .37.091.736.275 1.101.182.364.423.634.722.809.299.173.616.26.949.26" style="fill:#fff;fill-opacity:1;fill-rule:nonzero;stroke:none" transform="translate(-280.178 37.847)"/><path d="M0 0a.427.427 0 0 0 .314-.13.427.427 0 0 0 .13-.313.437.437 0 0 0-.13-.317A.426.426 0 0 0 0-.893a.434.434 0 0 0-.317.133.431.431 0 0 0-.132.317c0 .123.043.227.13.313.086.087.193.13.319.13m.364-2.106V-5.34c0-.252.018-.419.055-.503a.387.387 0 0 1 .163-.186c.071-.041.203-.062.393-.062v-.158H-.98v.158c.196 0 .328.019.395.058.068.037.121.1.16.188.04.088.06.256.06.505v1.552c0 .436-.013.719-.04.848-.02.093-.052.159-.096.196a.276.276 0 0 1-.18.054.851.851 0 0 1-.299-.066l-.062.158 1.213.492z" style="fill:#fff;fill-opacity:1;fill-rule:nonzero;stroke:none" transform="translate(-276.486 40.238)"/><path d="M0 0c.471.567.921.851 1.349.851a.971.971 0 0 0 .567-.164c.158-.11.284-.291.378-.543.064-.175.096-.445.096-.808v-1.719c0-.254.021-.428.062-.518a.355.355 0 0 1 .156-.171c.071-.041.204-.062.397-.062v-.158h-1.99v.158h.083c.188 0 .319.028.394.086a.455.455 0 0 1 .156.253c.011.043.017.181.017.412v1.648c0 .367-.048.632-.143.798-.095.165-.255.248-.481.248C.692.311.345.121 0-.26v-2.123c0-.271.016-.44.048-.505a.4.4 0 0 1 .169-.186c.072-.04.218-.06.437-.06v-.158h-1.99v.158h.088c.205 0 .343.052.415.156.071.104.107.302.107.595v1.494c0 .485-.011.778-.032.884C-.781.1-.814.172-.86.211a.279.279 0 0 1-.182.056.819.819 0 0 1-.294-.066l-.066.158 1.213.492H0Z" style="fill:#fff;fill-opacity:1;fill-rule:nonzero;stroke:none" transform="translate(-273.836 37.281)"/><path d="M0 0v-1.323h.941v-.307H0v-2.611c0-.26.038-.436.112-.527A.356.356 0 0 1 .4-4.904c.097 0 .191.029.281.09.091.06.161.148.211.266h.172c-.103-.287-.248-.503-.435-.649a.945.945 0 0 0-.58-.217.788.788 0 0 0-.396.112.678.678 0 0 0-.286.321c-.061.139-.092.354-.092.644v2.707h-.637v.144c.161.065.326.174.495.328.167.154.318.336.45.547.067.111.161.315.281.611z" style="fill:#fff;fill-opacity:1;fill-rule:nonzero;stroke:none" transform="translate(-269.341 39.337)"/><path d="M0 0v.193c.302.101.535.255.701.464.165.21.248.432.248.666a.244.244 0 0 1-.039.141c-.021.026-.041.04-.062.04a.657.657 0 0 1-.211-.088.465.465 0 0 0-.51.088.471.471 0 0 0-.127.351c0 .143.055.266.165.369a.569.569 0 0 0 .402.154c.193 0 .365-.084.516-.253.151-.168.226-.392.226-.67 0-.302-.105-.582-.314-.842C.786.354.454.15 0 0" style="fill:#fff;fill-opacity:1;fill-rule:nonzero;stroke:none" transform="translate(-267.807 32.49)"/><path d="m0 0-2.303 5.015V1.032c0-.366.04-.595.119-.685.108-.124.28-.184.514-.184h.211V0h-2.074v.163h.211c.252 0 .43.075.536.228.064.093.097.307.097.641v3.895c0 .263-.03.453-.088.57a.49.49 0 0 1-.227.214c-.109.056-.286.085-.529.085v.163h1.687L.316 1.296l2.127 4.663h1.688v-.163h-.207c-.254 0-.435-.076-.54-.229-.065-.094-.097-.306-.097-.64V1.032c0-.366.041-.595.123-.685.109-.124.28-.184.514-.184h.207V0H1.6v.163h.211c.255 0 .433.075.536.228.064.093.096.307.096.641v3.983L.145 0Z" style="fill:#fff;fill-opacity:1;fill-rule:nonzero;stroke:none" transform="translate(-260.108 33.989)"/><path d="M0 0v-2.438c0-.467.011-.751.033-.856.022-.103.057-.176.106-.216a.246.246 0 0 1 .169-.063.78.78 0 0 1 .307.075l.062-.153-1.204-.497h-.198v.852c-.346-.375-.609-.611-.791-.707a1.207 1.207 0 0 0-.576-.145.925.925 0 0 0-.587.195c-.165.131-.28.298-.344.503-.065.205-.097.495-.097.871v1.797c0 .19-.021.322-.062.396a.407.407 0 0 1-.182.168c-.081.041-.226.058-.437.055V0h1.41v-2.694c0-.375.065-.621.196-.738a.678.678 0 0 1 .472-.176.99.99 0 0 1 .429.119c.159.079.349.229.569.453v2.28c0 .229-.042.383-.126.464-.083.08-.256.123-.52.129V0Z" style="fill:#fff;fill-opacity:1;fill-rule:nonzero;stroke:none" transform="translate(-251.978 38.014)"/><path d="M0 0c.293.293.466.462.519.505.132.111.274.198.426.26.153.061.304.091.453.091.252 0 .469-.073.65-.218.182-.148.304-.36.365-.638.302.352.557.582.765.692.208.11.422.164.641.164.214 0 .404-.054.57-.164.165-.11.296-.29.393-.539.064-.17.096-.436.096-.799v-1.732c0-.252.019-.425.058-.518a.366.366 0 0 1 .162-.165c.079-.045.208-.068.387-.068v-.158H3.499v.158h.083c.173 0 .308.033.404.101a.389.389 0 0 1 .145.224c.012.05.018.192.018.426v1.732c0 .328-.04.559-.119.694-.114.187-.297.281-.549.281a1.04 1.04 0 0 1-.468-.116c-.157-.077-.347-.222-.569-.433l-.009-.049.009-.188v-1.921c0-.275.015-.446.046-.514a.37.37 0 0 1 .174-.169c.085-.045.23-.068.435-.068v-.158H1.064v.158c.223 0 .375.026.459.079a.414.414 0 0 1 .174.237c.014.05.022.195.022.435v1.732c0 .328-.049.564-.145.707a.62.62 0 0 1-.541.282.98.98 0 0 1-.47-.127A1.836 1.836 0 0 1 0-.22v-2.158c0-.264.019-.435.056-.514a.368.368 0 0 1 .162-.177c.072-.04.218-.06.437-.06v-.158h-1.99v.158c.184 0 .313.02.386.06a.373.373 0 0 1 .167.188c.038.087.057.254.057.503v1.539c0 .442-.013.728-.039.857-.021.096-.053.163-.097.2a.276.276 0 0 1-.18.054.819.819 0 0 1-.294-.066l-.066.158 1.213.492H0Z" style="fill:#fff;fill-opacity:1;fill-rule:nonzero;stroke:none" transform="translate(-249.812 37.276)"/><path d="M0 0v-2.409c.149-.146.303-.256.463-.332.16-.074.323-.111.49-.111.267 0 .515.146.745.44.23.292.345.718.345 1.278 0 .515-.115.912-.345 1.188-.23.278-.491.416-.784.416C.758.47.603.43.448.351.331.293.181.175 0 0m0 .281c.389.542.81.812 1.261.812.413 0 .773-.175 1.081-.529.308-.352.461-.836.461-1.447 0-.716-.237-1.291-.712-1.728-.407-.375-.861-.562-1.362-.562-.234 0-.472.043-.714.128a3.246 3.246 0 0 0-.74.382v4.17c0 .458-.011.739-.034.844-.021.106-.056.177-.103.215a.269.269 0 0 1-.175.057.904.904 0 0 1-.308-.071l-.062.155 1.209.492H0Z" style="fill:#fff;fill-opacity:1;fill-rule:nonzero;stroke:none" transform="translate(-242.903 37.039)"/><path d="M0 0v1.533a9.175 9.175 0 0 1-.857-.373c-.231-.13-.396-.263-.496-.404a.782.782 0 0 1-.15-.462c0-.211.063-.386.189-.525a.573.573 0 0 1 .436-.208c.222 0 .515.145.878.439m0-.286C-.413-.605-.672-.79-.777-.84a1.196 1.196 0 0 0-.506-.109.909.909 0 0 0-.688.285c-.179.19-.27.44-.27.752 0 .195.044.365.132.51.12.198.329.386.627.562.296.176.791.389 1.482.641v.158c0 .401-.064.678-.191.826-.127.151-.312.225-.556.225a.622.622 0 0 1-.439-.15.448.448 0 0 1-.167-.342l.009-.255a.441.441 0 0 0-.103-.312.355.355 0 0 0-.271-.11.34.34 0 0 0-.265.114.443.443 0 0 0-.104.313c0 .251.129.482.387.693.258.211.619.316 1.085.316.358 0 .651-.059.879-.179a.829.829 0 0 0 .382-.426c.053-.127.08-.385.08-.773V.531c0-.383.007-.619.021-.705.015-.087.039-.144.073-.174a.173.173 0 0 1 .116-.044c.047 0 .088.01.123.031.062.038.181.145.356.321v-.246c-.328-.44-.641-.659-.94-.659a.429.429 0 0 0-.343.149c-.085.1-.129.27-.132.51" style="fill:#fff;fill-opacity:1;fill-rule:nonzero;stroke:none" transform="translate(-237.226 34.855)"/><path d="M0 0a.429.429 0 0 0 .315-.13.426.426 0 0 0 .129-.313.436.436 0 0 0-.129-.317A.428.428 0 0 0 0-.893a.432.432 0 0 0-.316.133.431.431 0 0 0-.132.317c0 .123.043.227.13.313A.43.43 0 0 0 0 0m.365-2.106V-5.34c0-.252.018-.419.055-.503a.38.38 0 0 1 .162-.186c.072-.041.203-.062.394-.062v-.158H-.98v.158c.197 0 .328.019.396.058.067.037.12.1.16.188.039.088.059.256.059.505v1.552c0 .436-.013.719-.039.848-.021.093-.053.159-.097.196a.276.276 0 0 1-.18.054.856.856 0 0 1-.299-.066l-.061.158 1.213.492z" style="fill:#fff;fill-opacity:1;fill-rule:nonzero;stroke:none" transform="translate(-234.488 40.238)"/><path d="M-230.678 36.339h2.272v-.663h-2.272z" style="fill:#fff;fill-opacity:1;fill-rule:nonzero;stroke:none"/><path d="M0 0v2.629L-1.86 0Zm1.355 0v-.555H.644v-1.398H0v1.398h-2.242v.5L.215 3.453h.429V0Z" style="fill:#fff;fill-opacity:1;fill-rule:nonzero;stroke:none" transform="translate(-223.178 35.942)"/><path d="M0 0c0-.729.09-1.324.27-1.785.148-.387.369-.582.664-.582.14 0 .286.064.437.19.151.126.266.338.344.634.12.449.18 1.08.18 1.895 0 .604-.063 1.108-.188 1.512-.093.299-.215.511-.363.636a.598.598 0 0 1-.387.129c-.177 0-.334-.079-.472-.238-.188-.216-.315-.556-.383-1.02A9.426 9.426 0 0 1 0 0m-.765.098c0 .605.091 1.124.273 1.561.182.436.424.76.727.974.234.169.476.254.726.254.406 0 .771-.207 1.094-.621.404-.513.605-1.208.605-2.086 0-.614-.088-1.137-.265-1.566-.177-.43-.403-.742-.678-.936-.275-.194-.539-.291-.795-.291-.505 0-.926.298-1.262.895C-.623-1.215-.765-.61-.765.098" style="fill:#fff;fill-opacity:1;fill-rule:nonzero;stroke:none" transform="translate(-220.491 36.508)"/><path d="M0 0c0-.729.09-1.324.27-1.785.148-.387.369-.582.664-.582.14 0 .286.064.437.19.151.126.266.338.344.634.12.449.18 1.08.18 1.895 0 .604-.063 1.108-.188 1.512-.093.299-.215.511-.363.636a.598.598 0 0 1-.387.129c-.177 0-.334-.079-.472-.238-.188-.216-.315-.556-.383-1.02A9.426 9.426 0 0 1 0 0m-.765.098c0 .605.091 1.124.273 1.561.182.436.424.76.727.974.234.169.476.254.726.254.406 0 .771-.207 1.094-.621.404-.513.605-1.208.605-2.086 0-.614-.088-1.137-.265-1.566-.177-.43-.403-.742-.678-.936-.275-.194-.539-.291-.795-.291-.505 0-.926.298-1.262.895C-.623-1.215-.765-.61-.765.098" style="fill:#fff;fill-opacity:1;fill-rule:nonzero;stroke:none" transform="translate(-216.491 36.508)"/><path d="M0 0c0-.729.09-1.324.27-1.785.148-.387.369-.582.664-.582.14 0 .286.064.437.19.151.126.266.338.344.634.12.449.18 1.08.18 1.895 0 .604-.063 1.108-.188 1.512-.093.299-.215.511-.363.636a.598.598 0 0 1-.387.129c-.177 0-.334-.079-.472-.238-.188-.216-.315-.556-.383-1.02A9.426 9.426 0 0 1 0 0m-.765.098c0 .605.091 1.124.273 1.561.182.436.424.76.727.974.234.169.476.254.726.254.406 0 .771-.207 1.094-.621.404-.513.605-1.208.605-2.086 0-.614-.088-1.137-.265-1.566-.177-.43-.403-.742-.678-.936-.275-.194-.539-.291-.795-.291-.505 0-.926.298-1.262.895C-.623-1.215-.765-.61-.765.098" style="fill:#fff;fill-opacity:1;fill-rule:nonzero;stroke:none" transform="translate(-210.491 36.508)"/><path d="m0 0-.372-1.019h-3.125v.144c.92.839 1.567 1.524 1.942 2.055.375.531.562 1.017.562 1.457 0 .336-.103.612-.308.828a.985.985 0 0 1-.739.324c-.26 0-.494-.076-.701-.228-.207-.152-.36-.376-.459-.67h-.144c.065.481.232.852.502 1.109.269.258.606.387 1.01.387.429 0 .788-.138 1.076-.414.287-.276.431-.602.431-.977 0-.268-.062-.536-.187-.804-.193-.422-.506-.868-.938-1.34C-2.098.144-2.503-.284-2.665-.429h1.383c.282 0 .479.01.592.031A.765.765 0 0 1-.145 0Z" style="fill:#fff;fill-opacity:1;fill-rule:nonzero;stroke:none" transform="translate(-203.877 35.008)"/><path d="m0 0 1.289.629h.129v-4.473c0-.296.012-.481.037-.554a.29.29 0 0 1 .154-.168c.079-.039.237-.062.477-.067v-.144H.094v.144c.25.005.411.027.484.065a.327.327 0 0 1 .153.152c.028.064.043.255.043.572v2.86c0 .386-.014.633-.04.742a.314.314 0 0 1-.099.184A.267.267 0 0 1 .461 0C.365 0 .231-.04.059-.121Z" style="fill:#fff;fill-opacity:1;fill-rule:nonzero;stroke:none" transform="translate(-202.608 38.766)"/><path d="M0 0a.52.52 0 0 0 .385-.159.527.527 0 0 0 .157-.383.523.523 0 0 0-.159-.383A.523.523 0 0 0 0-1.084a.523.523 0 0 0-.384.159.522.522 0 0 0-.158.383.52.52 0 0 0 .158.386A.528.528 0 0 0 0 0" style="fill:#fff;fill-opacity:1;fill-rule:nonzero;stroke:none" transform="translate(-198.295 34.936)"/></g></svg>