<svg xmlns="http://www.w3.org/2000/svg" xmlns:xlink="http://www.w3.org/1999/xlink" width="39.899" height="36.129"><defs><linearGradient id="e" x1="-626.603" x2="-626.098" y1="97.65" y2="97.65" gradientTransform="scale(.37705 2.65217)" gradientUnits="userSpaceOnUse"><stop offset="0" stop-color="#fff"/><stop offset=".19" stop-color="#fff"/><stop offset=".498" stop-color="#8e8e8d"/><stop offset=".752" stop-color="#373737"/><stop offset=".866" stop-color="#161615"/><stop offset="1" stop-color="#161615"/></linearGradient><linearGradient id="b" x1=".939" x2="0" y1=".195" y2=".874" gradientUnits="objectBoundingBox"><stop offset="0" stop-opacity=".129"/><stop offset=".752" stop-opacity=".545"/><stop offset="1"/></linearGradient><linearGradient id="a" x1="-10291.812" x2="-10282.685" y1="2343.899" y2="2343.899" gradientUnits="objectBoundingBox"><stop offset="0" stop-color="#fff"/><stop offset=".038" stop-color="#fff"/><stop offset=".2" stop-color="#c4c4c4"/><stop offset=".388" stop-color="#878786"/><stop offset=".561" stop-color="#565655"/><stop offset=".711" stop-color="#333332"/><stop offset=".834" stop-color="#1d1d1c"/><stop offset=".914" stop-color="#161615"/><stop offset="1" stop-color="#161615"/></linearGradient><linearGradient xlink:href="#a" id="l" x1="9.948" x2="9.979" y1="3778.231" y2="3778.231" gradientTransform="scale(6.2525 .15994)" gradientUnits="userSpaceOnUse"/><linearGradient xlink:href="#a" id="n" x1="10.018" x2="10.048" y1="3767.505" y2="3767.505" gradientTransform="scale(6.28016 .15923)" gradientUnits="userSpaceOnUse"/><linearGradient xlink:href="#b" id="o" x1="125.053" x2="114.705" y1="506.111" y2="512.441" gradientTransform="scale(2.49735 .40042)" gradientUnits="userSpaceOnUse"/><linearGradient xlink:href="#b" id="f" x1="173.036" x2="165.921" y1="371.405" y2="376.55" gradientTransform="scale(1.70976 .58488)" gradientUnits="userSpaceOnUse"/><linearGradient xlink:href="#a" id="i" x1="135.534" x2="135.987" y1="208.427" y2="208.427" gradientTransform="scale(.4432 2.2563)" gradientUnits="userSpaceOnUse"/><clipPath id="c"><path fill="none" d="M0 0h3.971v.005H0z" data-name="Rectangle 2877"/></clipPath><clipPath id="d"><path fill="none" d="M0 .005h3.97c-1.449 0-2.854 0-3.97.005" data-name="Path 24194"/></clipPath><clipPath id="g"><path fill="none" d="M0 0h.021v.112H0z" data-name="Rectangle 2880"/></clipPath><clipPath id="h"><path fill="none" d="M0 .111.021 0 0 .111" data-name="Path 24200"/></clipPath><clipPath id="j"><path fill="none" d="M-.004 0Z" data-name="Path 24203"/></clipPath><clipPath id="k"><path fill="none" d="M1.25 0Z" data-name="Path 24202"/></clipPath><clipPath id="m"><path fill="none" d="M0 0Z" data-name="Path 24206"/></clipPath></defs><g data-name="Group 25531"><path fill="#00387d" stroke="rgba(0,0,0,0)" stroke-miterlimit="10" d="M0 36.124 2.291 23.78c0-.007.005-.013.007-.02l-.006.034.008-.032c1.27-3.953 6.677-4.233 7.65-4.241.361 0 .8-.005 1.3-.007h3.97l-.247 1.324-1.949 10.54a5.808 5.808 0 0 1-5.71 4.751z" data-name="Union 63"/><g data-name="Group 25491" style="isolation:isolate;mix-blend-mode:multiply"><g data-name="Group 25495"><g clip-path="url(#c)" data-name="Group 25494" transform="translate(11.248 19.507)"><g data-name="Group 25493"><g clip-path="url(#d)" data-name="Group 25492"><path fill="url(#e)" d="M0 0h.559v3.932H0z" data-name="Rectangle 2876" style="fill:url(#e)" transform="rotate(-82 .002 .003)"/></g></g></g></g></g><path fill="url(#b)" d="M291.372 216.375c-.974.008-6.38.289-7.653 4.24l-.034.179s1.132-2.616 5.645-2.97a62.316 62.316 0 0 1 7.064-.137l.247-1.325h-3.97c-.5 0-.937 0-1.3.007" data-name="Path 24196" style="fill:url(#f)" transform="translate(-281.422 -196.854)"/><path fill="#f99300" d="m4.175 13.694.733-3.933-.741 3.98c0-.018.008-.035.013-.054v.006" data-name="Path 24195"/><path fill="#f99300" stroke="rgba(0,0,0,0)" stroke-miterlimit="10" d="m3.077 19.522.718-3.876.01.007.318-1.708.017-.092.021-.112c0-.018.008-.034.013-.053a5.1 5.1 0 0 1 3.221-3.313 10.727 10.727 0 0 1 3.192-.616h19.8l-.243 1.3-.569 3.062a6.6 6.6 0 0 1-6.492 5.395s-4.08-.012-7.863-.013c-1.449 0-2.854 0-3.97.005-.5 0-.937 0-1.3.007-.977.014-6.383.295-7.656 4.244a.162.162 0 0 1-.007.022Zm1.042-5.549Z" data-name="Union 62"/><g data-name="Group 25493" style="isolation:isolate;mix-blend-mode:multiply"><g data-name="Group 25505"><g clip-path="url(#g)" data-name="Group 25504" transform="translate(4.145 13.741)"><g data-name="Group 25503"><g clip-path="url(#h)" data-name="Group 25502" transform="translate(0 .001)"><path fill="url(#a)" d="M286.51 207.871h-.021v-.112h.022z" data-name="Path 24199" style="fill:url(#i)" transform="translate(-286.489 -207.76)"/></g></g></g></g></g><g data-name="Group 25494" style="isolation:isolate;mix-blend-mode:multiply"><g data-name="Group 25510"><g clip-path="url(#j)" data-name="Group 25509" transform="translate(10.588 9.761)"><g data-name="Group 25508"><g clip-path="url(#k)" data-name="Group 25507"><path fill="url(#l)" d="m297.354 201.821-1.251.016v-.016l1.251-.016z" data-name="Path 24201" style="fill:url(#l)" transform="translate(-296.104 -201.821)"/></g></g></g></g></g><g data-name="Group 25495" style="isolation:isolate;mix-blend-mode:multiply"><g data-name="Group 25515"><g clip-path="url(#m)" data-name="Group 25514" transform="translate(11.848 9.761)"><g data-name="Group 25513"><g clip-path="url(#m)" data-name="Group 25512"><path fill="url(#n)" d="m316.521 201.821-18.537.235v-.235l18.537-.235z" data-name="Path 24204" style="fill:url(#n)" transform="translate(-297.983 -201.821)"/></g></g></g></g></g><path fill="url(#o)" d="M294.184 201.821h-1.26a10.751 10.751 0 0 0-3.19.613 5.1 5.1 0 0 0-3.222 3.313c0 .019-.009.036-.012.054l-.021.111c-.007.04-.015.078-.021.12 0 0 .458-1.514 3.01-2.357 2.552-.843 4.785-.684 7.862-.661l15.148.109.243-1.3z" data-name="Path 24198" style="fill:url(#o)" transform="translate(-282.336 -192.06)"/><path fill="#00387d" d="M8.789 0a2.478 2.478 0 0 0-2.435 2.023L4.91 9.764l-.733 3.933v-.006a5.1 5.1 0 0 1 3.222-3.313 10.744 10.744 0 0 1 3.189-.613h23.023A5.23 5.23 0 0 0 38.732 5.6L39.899 0z" data-name="Path 24199"/></g></svg>